<svg width="24" height="24" viewBox="0 0 24 24" fill="none" xmlns="http://www.w3.org/2000/svg">
<path d="M16.4802 4.41471C15.9273 3.86176 15.0308 3.86176 14.4778 4.41471C13.9249 4.96766 13.9249 5.86416 14.4778 6.41711L17.5836 9.52288C18.1366 10.0758 19.0331 10.0758 19.586 9.52288C20.139 8.96994 20.139 8.07343 19.586 7.52048L16.4802 4.41471Z" fill="#CED4DA"/>
<path d="M12.925 6.38176C12.5107 6.38176 12.1774 6.71509 11.5107 7.38176L5.65441 13.2381C5.45976 13.4327 5.36243 13.5301 5.29546 13.6484C5.22849 13.7666 5.1951 13.9002 5.12834 14.1672L4.36842 17.2069C4.00739 18.651 3.82688 19.3731 4.22723 19.7734C4.62759 20.1738 5.34965 19.9933 6.79378 19.6322L9.83344 18.8723C10.1005 18.8056 10.234 18.7722 10.3523 18.7052C10.4706 18.6382 10.5679 18.5409 10.7626 18.3463L16.6189 12.4899C17.2856 11.8233 17.6189 11.4899 17.6189 11.0757C17.6189 10.6615 17.2856 10.3282 16.6189 9.6615L14.3392 7.38176C13.6725 6.71509 13.3392 6.38176 12.925 6.38176Z" fill="#CED4DA"/>
<path d="M12 19C12 18.4477 12.4477 18 13 18H19C19.5523 18 20 18.4477 20 19C20 19.5523 19.5523 20 19 20H13C12.4477 20 12 19.5523 12 19Z" fill="#CED4DA"/>
</svg>
