<svg width="24" height="24" viewBox="0 0 24 24" fill="none" xmlns="http://www.w3.org/2000/svg">
<path d="M10.6011 12.0005C10.6013 11.8178 10.5847 11.6341 10.5508 11.4519L14.3106 9.28117C15.2499 10.0843 16.6296 10.2517 17.7609 9.59858C19.1957 8.77015 19.6874 6.93538 18.8589 5.5005C18.0305 4.06562 16.1957 3.574 14.7609 4.40242C13.6296 5.05553 13.0847 6.33412 13.3106 7.54912L9.55084 9.71983C9.00663 9.25447 8.31454 9.00256 7.60859 9.00002C7.1883 8.99851 6.7631 9.08538 6.36127 9.26822C6.03956 9.41382 5.74171 9.61684 5.48468 9.87275C5.22082 10.1348 5.01239 10.44 4.8643 10.7701C4.68536 11.1667 4.59971 11.5859 4.6001 12.0005C4.59971 12.4151 4.68536 12.8343 4.8643 13.231C5.01239 13.561 5.22083 13.8662 5.4847 14.1283C5.74171 14.3842 6.03954 14.5872 6.36122 14.7328C6.76307 14.9156 7.1883 15.0025 7.60862 15.001C8.01944 15.0003 8.4346 14.9151 8.82772 14.7383C9.087 14.6223 9.33099 14.4692 9.55084 14.2812L13.3106 16.4519C13.0847 17.6669 13.6296 18.9455 14.7609 19.5986C16.1957 20.427 18.0305 19.9354 18.8589 18.5005C19.6874 17.0656 19.1957 15.2309 17.7609 14.4024C16.6296 13.7493 15.2499 13.9167 14.3106 14.7198L10.5508 12.5491C10.5847 12.3669 10.6013 12.1833 10.6011 12.0005Z" fill="#CED4DA"/>
</svg>
