<svg width="24" height="24" viewBox="0 0 24 24" fill="none" xmlns="http://www.w3.org/2000/svg">
<path d="M16.2292 4.93133C16.3463 5 16.5248 5 16.8818 5H18.5C19.3284 5 20 5.67157 20 6.5C20 6.77615 19.7761 7 19.5 7H4.5C4.22386 7 4 6.77615 4 6.5C4 5.67157 4.67157 5 5.5 5H7.11819C7.47517 5 7.65367 5 7.77079 4.93133C7.88791 4.86266 8.02035 4.62603 8.28522 4.15276C8.67015 3.46495 9.40578 3 10.25 3H13.75C14.5942 3 15.3299 3.46495 15.7148 4.15276C15.9797 4.62603 16.1121 4.86266 16.2292 4.93133Z" fill="#CED4DA"/>
<path fill-rule="evenodd" clip-rule="evenodd" d="M4.35448 10.3041C4.18972 9.2332 4.10735 8.69774 4.40665 8.34887C4.70595 8 5.24771 8 6.33122 8H17.6688C18.7523 8 19.2941 8 19.5934 8.34887C19.8927 8.69774 19.8103 9.2332 19.6455 10.3041L18.7827 15.9123C18.4092 18.34 18.2225 19.5538 17.3796 20.2769C16.5368 21 15.3087 21 12.8525 21H11.1475C8.69132 21 7.46322 21 6.62037 20.2769C5.77751 19.5538 5.59077 18.34 5.21729 15.9123L4.35448 10.3041ZM11 13C11 12.4477 10.5523 12 10 12C9.44772 12 9 12.4477 9 13V16C9 16.5523 9.44772 17 10 17C10.5523 17 11 16.5523 11 16V13ZM15 13C15 12.4477 14.5523 12 14 12C13.4477 12 13 12.4477 13 13V16C13 16.5523 13.4477 17 14 17C14.5523 17 15 16.5523 15 16V13Z" fill="#CED4DA"/>
</svg>
