<svg width="32" height="32" viewBox="0 0 32 32" fill="none" xmlns="http://www.w3.org/2000/svg">
<path fill-rule="evenodd" clip-rule="evenodd" d="M6.66667 17C7.58714 17 8.33333 17.7462 8.33333 18.6667V21.3333C8.33333 22.622 9.378 23.6667 10.6667 23.6667H21.3333C22.622 23.6667 23.6667 22.622 23.6667 21.3333V18.6667C23.6667 17.7462 24.4129 17 25.3333 17C26.2538 17 27 17.7462 27 18.6667V21.3333C27 24.4629 24.4629 27 21.3333 27H10.6667C7.53705 27 5 24.4629 5 21.3333V18.6667C5 17.7462 5.74619 17 6.66667 17Z" fill="#343A40"/>
<path d="M17.2785 20.5989C16.6599 21.4918 15.3398 21.4918 14.7212 20.5989L9.60846 13.2192C8.89371 12.1876 9.63207 10.7778 10.8871 10.7778L21.1127 10.7778C22.3677 10.7778 23.1061 12.1876 22.3913 13.2192L17.2785 20.5989Z" fill="#343A40"/>
<path d="M16.8426 13.8914C16.8061 14.3295 16.4398 14.6665 16.0002 14.6665C15.5606 14.6665 15.1944 14.3295 15.1579 13.8914L14.5738 6.88335C14.5043 6.04887 15.1628 5.33317 16.0002 5.33317C16.8376 5.33317 17.4961 6.04887 17.4266 6.88335L16.8426 13.8914Z" fill="#343A40"/>
</svg>
