<svg width="430" height="430" viewBox="0 0 430 430" fill="none" xmlns="http://www.w3.org/2000/svg">
<path d="M430 215C430 333.741 333.741 430 215 430C96.2588 430 0 333.741 0 215C0 96.2588 96.2588 0 215 0C333.741 0 430 96.2588 430 215Z" fill="#FF845D"/>
<path d="M160.799 98.975C150.797 114.073 154.638 135.755 169.205 146.417L203.579 171.577C213.672 178.965 218.718 182.658 224.015 181.649C229.311 180.639 232.645 175.348 239.313 164.766L262.022 128.725C271.645 113.453 267.241 91.8771 252.386 81.5175C238.101 71.5558 219.658 75.8584 211.193 91.1276C209.469 94.2376 205.386 95.0159 202.639 92.7582C189.15 81.6737 170.418 84.457 160.799 98.975Z" fill="#FFF176"/>
<path d="M147.995 166.873C134.626 162.761 118.28 176.177 110.404 186.196C103.92 186.196 91.1575 186.196 78.5941 203.685C81.5586 198.86 77.7399 190.658 69.5912 193.711C54.1152 199.51 54.5978 245.553 57.8199 269.171C64.2651 308.892 88.9673 335.14 122.219 351.521C168.445 374.293 216.733 365.477 225.326 356.889C230.696 351.521 215.659 330.05 198.475 312.874C187.184 301.589 165.223 284.2 158.779 273.465C152.334 262.73 155.896 250.511 165.179 222.697C170.554 206.593 160.887 198.005 156.591 195.858C160.887 186.196 161.957 171.167 147.995 166.873Z" fill="#FFF176"/>
<path fill-rule="evenodd" clip-rule="evenodd" d="M146.743 195.678C142.988 196.322 138.237 198.582 133.22 204.45C126.543 212.26 122.579 223.816 120.6 235.589C118.627 247.328 118.673 259.005 119.798 266.823C119.955 267.916 119.196 268.93 118.103 269.088C117.01 269.245 115.996 268.486 115.839 267.393C114.65 259.135 114.619 247.041 116.656 234.925C118.687 222.843 122.821 210.458 130.18 201.851C135.702 195.392 141.248 192.562 146.067 191.736C150.844 190.917 154.747 192.095 156.959 193.397C157.911 193.957 158.229 195.183 157.669 196.135C157.109 197.087 155.883 197.405 154.931 196.845C153.491 195.997 150.541 195.027 146.743 195.678Z" fill="black"/>
<path fill-rule="evenodd" clip-rule="evenodd" d="M84.5628 197.206C85.1108 198.165 84.7776 199.387 83.8186 199.935C78.9158 202.737 74.9344 208.952 71.4959 217.261C68.0911 225.488 65.3922 235.314 62.7858 244.856C61.7801 248.538 61.07 252.18 60.6341 255.776C60.5012 256.872 59.5045 257.653 58.4079 257.52C57.3114 257.388 56.5302 256.391 56.6632 255.294C57.1228 251.503 57.8707 247.669 58.9272 243.802C61.5179 234.318 64.2807 224.235 67.7999 215.731C71.2854 207.309 75.6903 199.973 81.834 196.462C82.7931 195.914 84.0148 196.247 84.5628 197.206Z" fill="black"/>
<path fill-rule="evenodd" clip-rule="evenodd" d="M111.221 185.908C111.908 186.773 111.764 188.031 110.899 188.718C101.371 196.287 95.564 209.678 92.2576 223.722C88.9676 237.696 88.2437 251.926 88.5873 260.717C88.6304 261.821 87.7706 262.751 86.6669 262.794C85.5632 262.837 84.6335 261.977 84.5903 260.874C84.2349 251.78 84.9789 237.184 88.364 222.806C91.7328 208.497 97.8084 194.009 108.411 185.586C109.276 184.899 110.534 185.044 111.221 185.908Z" fill="black"/>
<path d="M286.984 166.873C300.352 162.761 316.699 176.177 324.575 186.196C331.058 186.196 343.821 186.196 356.384 203.685C353.42 198.86 357.239 190.658 365.387 193.711C380.863 199.51 380.381 245.553 377.159 269.171C370.713 308.892 346.011 335.14 312.759 351.521C266.534 374.293 218.245 365.477 209.653 356.889C204.283 351.521 219.319 330.05 236.504 312.874C247.794 301.589 269.756 284.2 276.2 273.465C282.644 262.73 279.082 250.511 269.799 222.697C264.425 206.593 274.091 198.005 278.387 195.858C274.091 186.196 273.021 171.167 286.984 166.873Z" fill="#9971FF"/>
<path fill-rule="evenodd" clip-rule="evenodd" d="M288.235 195.678C291.991 196.322 296.741 198.582 301.759 204.45C308.436 212.26 312.399 223.816 314.378 235.589C316.352 247.328 316.306 259.005 315.181 266.823C315.023 267.916 315.782 268.93 316.875 269.088C317.969 269.245 318.983 268.486 319.14 267.393C320.328 259.135 320.36 247.041 318.323 234.925C316.292 222.843 312.158 210.458 304.799 201.851C299.276 195.392 293.731 192.562 288.911 191.736C284.134 190.917 280.231 192.095 278.019 193.397C277.067 193.957 276.749 195.183 277.31 196.135C277.87 197.087 279.096 197.405 280.048 196.845C281.488 195.997 284.437 195.027 288.235 195.678Z" fill="black"/>
<path fill-rule="evenodd" clip-rule="evenodd" d="M350.416 197.206C349.868 198.165 350.201 199.387 351.16 199.935C356.063 202.737 360.044 208.952 363.483 217.261C366.887 225.488 369.586 235.314 372.193 244.856C373.198 248.538 373.909 252.18 374.344 255.776C374.477 256.872 375.474 257.653 376.571 257.52C377.667 257.388 378.448 256.391 378.315 255.294C377.856 251.503 377.108 247.669 376.051 243.802C373.461 234.318 370.698 224.235 367.179 215.731C363.693 207.309 359.288 199.973 353.144 196.462C352.185 195.914 350.964 196.247 350.416 197.206Z" fill="black"/>
<path fill-rule="evenodd" clip-rule="evenodd" d="M323.758 185.908C323.071 186.773 323.215 188.031 324.08 188.718C333.608 196.287 339.415 209.678 342.721 223.722C346.011 237.696 346.735 251.926 346.391 260.717C346.348 261.821 347.208 262.751 348.312 262.794C349.415 262.837 350.345 261.977 350.388 260.874C350.744 251.78 350 237.184 346.614 222.806C343.246 208.497 337.17 194.009 326.568 185.586C325.703 184.899 324.445 185.044 323.758 185.908Z" fill="black"/>
</svg>
