<svg width="430" height="430" viewBox="0 0 430 430" fill="none" xmlns="http://www.w3.org/2000/svg">
<path d="M430 215C430 333.741 333.741 430 215 430C96.2588 430 0 333.741 0 215C0 96.2588 96.2588 0 215 0C333.741 0 430 96.2588 430 215Z" fill="#4CE6B7"/>
<mask id="mask0" mask-type="alpha" maskUnits="userSpaceOnUse" x="0" y="0" width="430" height="430">
<path d="M430 215C430 333.741 333.741 430 215 430C96.2588 430 0 333.741 0 215C0 96.2588 96.2588 0 215 0C333.741 0 430 96.2588 430 215Z" fill="#4CE6B7"/>
</mask>
<g mask="url(#mask0)">
<path fill-rule="evenodd" clip-rule="evenodd" d="M148.474 86.9999C125.987 86.6122 113.321 101.054 109.848 108.159C109.484 108.903 108.586 109.212 107.842 108.848C107.097 108.484 106.789 107.586 107.153 106.841C111.013 98.9463 124.614 83.588 148.526 84.0003C149.355 84.0146 150.014 84.6977 150 85.526C149.986 86.3543 149.303 87.0142 148.474 86.9999Z" fill="#231F20"/>
<path fill-rule="evenodd" clip-rule="evenodd" d="M136.975 74.5041C124.92 74.2981 118.166 81.9723 116.346 85.6634C115.979 86.4064 115.08 86.7117 114.337 86.3453C113.594 85.9789 113.289 85.0796 113.655 84.3366C115.868 79.8488 123.561 71.2744 137.026 71.5045C137.854 71.5187 138.514 72.2017 138.5 73.03C138.486 73.8583 137.803 74.5183 136.975 74.5041Z" fill="#231F20"/>
<path d="M-48.0625 299.651C-59.221 315.895 -58.7973 340.754 -49.1925 357.139C-42.9777 367.732 -32.6666 374.653 -21.3669 378.749C-10.3496 382.846 4.05753 383.834 15.781 384.258C22.2784 409.965 40.2167 431.999 64.3699 443.158C77.2234 449.09 91.2068 451.915 105.331 452.621C122.705 453.469 138.383 449.797 155.474 446.265C157.593 445.842 159.712 445.418 161.83 445.559C171.717 446.548 185.842 459.401 195.729 463.497C208.583 469.006 222.425 472.679 236.409 473.526C275.251 475.927 308.021 454.458 330.479 424.09C359.858 384.117 378.644 336.517 389.096 288.351C397.289 250.639 405.622 207.134 390.509 169.987C382.74 150.777 365.932 143.008 345.31 146.257C334.999 147.811 318.614 159.111 308.444 154.308C295.167 148.093 267.765 97.9507 225.533 111.228C216.21 114.194 205.334 119.279 194.882 119.561C184.853 119.844 176.944 114.335 167.48 112.075C155.05 108.827 128.637 106.425 123.835 122.81C114.936 153.037 97.4217 180.298 77.6471 204.451C59.4263 226.909 38.8042 251.203 13.9448 266.458C-2.29858 276.345 -21.9319 279.17 -37.8928 289.623C-41.9889 292.165 -45.3789 295.696 -48.0625 299.651Z" fill="#8E61FA"/>
<path d="M22.5319 349.058C29.6697 336.696 23.1888 319.591 8.05638 310.854C-7.07602 302.117 -25.1295 305.057 -32.2673 317.419C-39.4051 329.782 -32.9242 346.886 -17.7918 355.623C-2.6594 364.36 15.3942 361.421 22.5319 349.058Z" fill="#CDBDFF"/>
<path opacity="0.2" d="M23.9511 287.318C47.3918 293.632 60.9444 310.779 66.2925 330.395C79.9745 328.707 94.9863 329.836 109.395 333.717C129.912 339.244 150.602 353.442 164.555 370.316C181.482 353.115 213.033 348.575 241.855 356.339C279.262 366.415 318.478 405.37 309.816 437.527C301.154 469.683 249.952 481.189 208.212 468.282C190.124 463.41 179.378 451.532 161.804 444.666C138.462 450.982 107.192 455.062 77.7739 447.138C46.2237 438.64 20.8786 412.088 16.3132 385.37C15.3132 385.091 14.2896 384.811 13.2416 384.528C-41.9541 384.528 -63.8269 347.944 -55.165 315.787C-46.5031 283.63 -15.5992 276.664 23.9511 287.318Z" fill="#FAF9FF"/>
<path d="M143.955 404.851C149.515 384.212 129.163 361.411 103.778 354.574C78.3937 347.736 50.1081 353.731 44.5486 374.37C38.9892 395.009 58.2611 422.477 83.6456 429.314C109.03 436.152 138.396 425.49 143.955 404.851Z" fill="#CDBDFF"/>
<path d="M101.971 377.602C101.854 378.593 100.956 379.303 99.9642 379.186C98.9727 379.069 98.2636 378.171 98.3804 377.179C98.4971 376.188 99.3956 375.478 100.387 375.595C101.379 375.712 102.088 376.61 101.971 377.602Z" fill="#B39BFF"/>
<path d="M76.0842 391.69C75.9674 392.681 75.069 393.39 74.0775 393.274C73.086 393.157 72.3769 392.258 72.4937 391.267C72.6104 390.275 73.5088 389.566 74.5003 389.683C75.4918 389.8 76.2009 390.698 76.0842 391.69Z" fill="#B39BFF"/>
<path d="M10.7267 335.671C10.61 336.663 9.71156 337.372 8.72006 337.255C7.72857 337.138 7.01946 336.24 7.13623 335.248C7.253 334.257 8.15142 333.548 9.14292 333.665C10.1344 333.781 10.8435 334.68 10.7267 335.671Z" fill="#B39BFF"/>
<path d="M1.94159 321.393C1.82482 322.384 0.926399 323.094 -0.0650955 322.977C-1.05659 322.86 -1.7657 321.962 -1.64893 320.97C-1.53216 319.979 -0.633735 319.269 0.35776 319.386C1.34925 319.503 2.05836 320.401 1.94159 321.393Z" fill="#B39BFF"/>
<path d="M79.3791 409.816C79.2623 410.807 78.3639 411.516 77.3724 411.4C76.3809 411.283 75.6718 410.384 75.7886 409.393C75.9053 408.401 76.8038 407.692 77.7953 407.809C78.7868 407.926 79.4959 408.824 79.3791 409.816Z" fill="#B39BFF"/>
<path d="M112.33 409.816C112.213 410.807 111.315 411.516 110.324 411.4C109.332 411.283 108.623 410.384 108.74 409.393C108.857 408.401 109.755 407.692 110.746 407.809C111.738 407.926 112.447 408.824 112.33 409.816Z" fill="#B39BFF"/>
<path d="M123.865 386.199C123.749 387.19 122.85 387.899 121.859 387.782C120.867 387.666 120.158 386.767 120.275 385.776C120.392 384.784 121.29 384.075 122.282 384.192C123.273 384.309 123.982 385.207 123.865 386.199Z" fill="#B39BFF"/>
<path d="M217.719 449.373C245.264 458.151 272.692 449.269 278.982 429.534C285.271 409.799 268.04 386.685 240.494 377.906C212.949 369.128 185.521 378.01 179.231 397.745C172.942 417.48 190.173 440.595 217.719 449.373Z" fill="#CDBDFF"/>
<g filter="url(#filter0_f)">
<path d="M70.4475 313C98.7669 293.166 124.366 268.87 145.389 241.227C156.89 226.104 166.165 209.369 174.079 192.139C181.746 175.528 191.887 157.306 193 138.712C185.951 137.1 178.902 135.489 171.853 134.001C170.988 133.753 151.572 172.305 149.47 175.9C141.184 190.031 132.157 203.791 122.634 217.179C107.547 238.376 83.8034 276.184 54 276.308C57.0916 276.308 64.6352 290.563 65.9956 293.166C69.2109 298.992 72.4262 306.058 70.4475 313Z" fill="#6D31FF"/>
</g>
<g filter="url(#filter1_f)">
<path d="M183.668 367.405C183.668 367.405 287.706 291.641 285.979 182.16C285.979 182.16 281.86 153.467 272.957 151.087C263.789 148.707 250.768 195.647 248.642 202.258C238.544 233.86 226.851 270.221 204.795 295.872C196.291 305.789 185.661 314.384 173.437 319.276C168.388 321.259 140.219 326.152 141.017 333.292C141.415 336.333 144.471 335.407 146.331 336.73C146.331 336.73 174.5 357.621 174.5 376L183.668 367.405Z" fill="#6D31FF"/>
</g>
<path d="M215.584 413.66C215.467 414.651 214.569 415.36 213.577 415.243C212.586 415.127 211.877 414.228 211.994 413.237C212.11 412.245 213.009 411.536 214 411.653C214.992 411.77 215.701 412.668 215.584 413.66Z" fill="#B39BFF"/>
<path d="M250.731 403.773C250.614 404.764 249.715 405.473 248.724 405.357C247.732 405.24 247.023 404.341 247.14 403.35C247.257 402.358 248.155 401.649 249.147 401.766C250.138 401.883 250.847 402.781 250.731 403.773Z" fill="#B39BFF"/>
<path d="M226.569 430.136C226.452 431.128 225.553 431.837 224.562 431.72C223.57 431.603 222.861 430.705 222.978 429.713C223.095 428.722 223.993 428.013 224.985 428.129C225.976 428.246 226.685 429.145 226.569 430.136Z" fill="#B39BFF"/>
<path d="M269.957 420.798C269.84 421.79 268.942 422.499 267.951 422.382C266.959 422.265 266.25 421.367 266.367 420.375C266.483 419.384 267.382 418.675 268.373 418.792C269.365 418.908 270.074 419.807 269.957 420.798Z" fill="#B39BFF"/>
<g filter="url(#filter2_f)">
<path d="M362.384 192.307C362.384 192.307 374.867 199.7 376.321 223.212C377.775 246.724 325.905 401.325 317.058 407.263C317.058 407.263 313.422 377.085 297.182 372.722C297.182 372.601 366.747 255.571 362.384 192.307Z" fill="#6D31FF"/>
</g>
<path fill-rule="evenodd" clip-rule="evenodd" d="M139.032 120.739C142.744 120.245 146.833 120.959 149.461 121.738C150.52 122.052 151.124 123.165 150.811 124.224C150.497 125.283 149.384 125.887 148.325 125.573C146.01 124.887 142.52 124.31 139.559 124.704C138.09 124.9 136.892 125.316 136.032 125.945C135.223 126.536 134.622 127.378 134.384 128.681C133.014 136.219 128.734 145.927 126.791 149.813C126.297 150.801 125.096 151.202 124.108 150.708C123.12 150.214 122.72 149.012 123.214 148.024C125.115 144.222 129.183 134.927 130.449 127.966C130.871 125.645 132.041 123.907 133.672 122.715C135.253 121.56 137.164 120.988 139.032 120.739Z" fill="white"/>
<path fill-rule="evenodd" clip-rule="evenodd" d="M231.855 119.944C238.415 119.232 244.954 119.971 249.018 120.88C250.096 121.121 250.774 122.19 250.533 123.268C250.292 124.346 249.223 125.024 248.145 124.784C244.429 123.953 238.336 123.264 232.287 123.921C226.187 124.583 220.534 126.565 217.18 130.685C216.483 131.541 215.223 131.671 214.366 130.973C213.51 130.276 213.381 129.016 214.078 128.16C218.413 122.833 225.346 120.65 231.855 119.944Z" fill="#C8B1FF"/>
<path fill-rule="evenodd" clip-rule="evenodd" d="M332.452 166.42C331.704 166.902 331.134 167.27 330.758 167.458C329.77 167.952 328.569 167.551 328.075 166.563C327.581 165.575 327.981 164.374 328.969 163.88C329.153 163.788 329.501 163.557 329.999 163.225C334 160.56 347.722 151.421 364.449 156.053C365.513 156.347 366.137 157.449 365.842 158.514C365.547 159.578 364.446 160.202 363.381 159.908C348.815 155.874 337.142 163.398 332.452 166.42Z" fill="#C8B1FF"/>
<path fill-rule="evenodd" clip-rule="evenodd" d="M63.5005 329.627C55.0174 300.997 15.837 268.531 -37.049 291.081C-38.0651 291.514 -39.24 291.042 -39.6732 290.026C-40.1064 289.01 -39.634 287.835 -38.6179 287.402C15.7129 264.235 56.7708 296.623 66.8233 326.861C88.3089 324.365 134.891 329.136 164.438 367.246C185.739 353.033 236.901 336.761 284.486 377.797C285.323 378.519 285.416 379.782 284.695 380.618C283.973 381.455 282.71 381.548 281.874 380.827C234.912 340.327 184.465 357.842 165.162 371.604C164.277 372.235 163.049 372.043 162.398 371.171C133.343 332.216 85.8016 328.168 65.7009 331.039C64.7188 331.179 63.7823 330.579 63.5005 329.627Z" fill="#C8B1FF"/>
<path d="M183.828 220.096C178.189 218.113 176.111 209.412 179.187 200.661C182.263 191.91 189.328 186.422 194.967 188.404C200.606 190.386 202.684 199.087 199.608 207.839C196.532 216.59 189.467 222.078 183.828 220.096Z" fill="white"/>
<path d="M191.213 188.111C193.819 191.577 195.228 198.445 192.836 205.252C190.443 212.059 185.118 217.107 180.917 218.179C177.423 215.03 176.829 207.274 179.222 200.467C181.614 193.66 185.877 188.785 191.213 188.111Z" fill="#231F20"/>
<path d="M221.211 228.026C215.572 226.044 213.494 217.343 216.57 208.592C219.646 199.84 226.711 194.353 232.35 196.335C237.989 198.317 240.067 207.018 236.991 215.769C233.915 224.521 226.85 230.008 221.211 228.026Z" fill="white"/>
<path d="M228.595 196.044C231.201 199.509 232.611 206.378 230.218 213.185C227.826 219.992 222.501 225.039 218.3 226.112C214.806 222.963 214.212 215.207 216.605 208.4C218.997 201.593 223.26 196.718 228.595 196.044Z" fill="#231F20"/>
<path d="M197.249 236.891C198.421 237.253 195.25 251.674 194.888 252.845C193.888 260.236 192.526 268.799 196.127 273.761C198.108 275.657 198.918 277.19 201.261 277.914C219.282 286.047 228.329 256.759 231.948 245.043C231.948 245.043 233.758 239.186 233.396 240.357C234.205 241.891 198.421 237.253 197.249 236.891Z" fill="#FD476D"/>
<path fill-rule="evenodd" clip-rule="evenodd" d="M272.537 244.06C272.407 245.712 270.962 246.946 269.311 246.816L157.805 238.038C156.153 237.908 154.919 236.463 155.049 234.811C155.18 233.16 156.624 231.926 158.276 232.056L269.782 240.834C271.433 240.964 272.667 242.409 272.537 244.06Z" fill="#231F20"/>
<path fill-rule="evenodd" clip-rule="evenodd" d="M213.446 237.49C215.07 237.819 216.12 239.402 215.79 241.026L212.85 240.43L209.91 239.834C210.239 238.21 211.822 237.161 213.446 237.49ZM212.85 240.43C209.91 239.834 209.91 239.834 209.91 239.834L209.699 240.873C209.565 241.536 209.372 242.483 209.14 243.624C208.676 245.906 208.053 248.96 207.419 252.051C206.785 255.142 206.14 258.266 205.631 260.689C205.377 261.901 205.158 262.931 204.992 263.692C204.84 264.392 204.757 264.744 204.734 264.842C204.729 264.863 204.727 264.872 204.727 264.871C204.238 266.454 205.125 268.133 206.708 268.622C208.291 269.112 209.971 268.225 210.46 266.642C210.604 266.174 211.019 264.227 211.504 261.921C212.015 259.485 212.662 256.35 213.296 253.257C213.931 250.162 214.555 247.104 215.019 244.821C215.252 243.679 215.445 242.73 215.579 242.067L215.79 241.027C215.79 241.027 215.79 241.026 212.85 240.43Z" fill="#231F20"/>
</g>
<defs>
<filter id="filter0_f" x="19.6017" y="99.6017" width="207.797" height="247.797" filterUnits="userSpaceOnUse" color-interpolation-filters="sRGB">
<feFlood flood-opacity="0" result="BackgroundImageFix"/>
<feBlend mode="normal" in="SourceGraphic" in2="BackgroundImageFix" result="shape"/>
<feGaussianBlur stdDeviation="17.1991" result="effect1_foregroundBlur"/>
</filter>
<filter id="filter1_f" x="106.602" y="116.602" width="213.797" height="293.797" filterUnits="userSpaceOnUse" color-interpolation-filters="sRGB">
<feFlood flood-opacity="0" result="BackgroundImageFix"/>
<feBlend mode="normal" in="SourceGraphic" in2="BackgroundImageFix" result="shape"/>
<feGaussianBlur stdDeviation="17.1991" result="effect1_foregroundBlur"/>
</filter>
<filter id="filter2_f" x="267.666" y="162.791" width="138.2" height="273.987" filterUnits="userSpaceOnUse" color-interpolation-filters="sRGB">
<feFlood flood-opacity="0" result="BackgroundImageFix"/>
<feBlend mode="normal" in="SourceGraphic" in2="BackgroundImageFix" result="shape"/>
<feGaussianBlur stdDeviation="14.7577" result="effect1_foregroundBlur"/>
</filter>
</defs>
</svg>
