<svg width="430" height="430" viewBox="0 0 430 430" fill="none" xmlns="http://www.w3.org/2000/svg">
<path d="M430 215C430 333.741 333.741 430 215 430C96.2588 430 0 333.741 0 215C0 96.2588 96.2588 0 215 0C333.741 0 430 96.2588 430 215Z" fill="#9971FF"/>
<mask id="mask0" mask-type="alpha" maskUnits="userSpaceOnUse" x="0" y="0" width="430" height="430">
<path d="M430 215C430 333.741 333.741 430 215 430C96.2588 430 0 333.741 0 215C0 96.2588 96.2588 0 215 0C333.741 0 430 96.2588 430 215Z" fill="#9971FF"/>
</mask>
<g mask="url(#mask0)">
<path fill-rule="evenodd" clip-rule="evenodd" d="M291.143 189.187C295.667 181.898 298.18 172.529 298.18 160.519C298.18 114.414 261.15 77.0391 215.471 77.0391C169.793 77.0391 132.763 114.414 132.763 160.519C132.763 172.467 135.249 181.8 139.728 189.072C132.343 190.057 126.646 196.382 126.646 204.036C126.646 212.374 133.406 219.134 141.744 219.134H288.404C296.742 219.134 303.502 212.374 303.502 204.036C303.502 196.633 298.174 190.475 291.143 189.187Z" fill="#570014"/>
<path fill-rule="evenodd" clip-rule="evenodd" d="M287.897 190.625L289.444 188.132C293.727 181.231 296.18 172.25 296.18 160.519C296.18 115.501 260.028 79.0391 215.471 79.0391C170.915 79.0391 134.763 115.501 134.763 160.519C134.763 172.188 137.19 181.137 141.431 188.023L143.047 190.647L139.993 191.055C133.588 191.909 128.646 197.397 128.646 204.036C128.646 211.27 134.51 217.134 141.744 217.134H288.404C295.638 217.134 301.502 211.27 301.502 204.036C301.502 197.616 296.881 192.271 290.783 191.154L287.897 190.625ZM292.208 187.364C296.06 180.354 298.18 171.551 298.18 160.519C298.18 114.414 261.15 77.0391 215.471 77.0391C169.793 77.0391 132.763 114.414 132.763 160.519C132.763 171.474 134.853 180.232 138.654 187.218C138.998 187.85 139.356 188.468 139.728 189.072C139.019 189.167 138.325 189.311 137.651 189.5C131.301 191.285 126.646 197.117 126.646 204.036C126.646 212.374 133.406 219.134 141.744 219.134H288.404C296.742 219.134 303.502 212.374 303.502 204.036C303.502 197.363 299.172 191.701 293.169 189.706C292.513 189.488 291.836 189.314 291.143 189.187C291.512 188.593 291.867 187.985 292.208 187.364Z" fill="#A16B64"/>
<path d="M93.8242 320.901H333.588L317.917 529.243H109.495L93.8242 320.901Z" fill="#FD476D"/>
<path d="M74.0176 306.215C74.0176 298.104 80.5929 291.528 88.7039 291.528H342.812C350.923 291.528 357.498 298.104 357.498 306.215C357.498 314.326 350.923 320.901 342.812 320.901H88.704C80.5929 320.901 74.0176 314.326 74.0176 306.215Z" fill="#FFA4B7"/>
<path d="M82.8965 313.387C82.8965 310.746 85.0373 308.605 87.6781 308.605H343.836C346.476 308.605 348.617 310.746 348.617 313.387C348.617 316.028 346.476 318.169 343.836 318.169H87.6781C85.0373 318.169 82.8965 316.028 82.8965 313.387Z" fill="#FF96AC"/>
<mask id="mask1" mask-type="alpha" maskUnits="userSpaceOnUse" x="93" y="320" width="241" height="233">
<path d="M93.9004 320.673H333.892L318.206 552.822H109.586L93.9004 320.673Z" fill="#FD476D"/>
</mask>
<g mask="url(#mask1)">
<path d="M96.6463 370.084H117.822L47.2363 474.394H26.0605L96.6463 370.084Z" fill="#E61641"/>
<path d="M142.523 370.083H163.699L93.1132 474.393H71.9375L142.523 370.083Z" fill="#E61641"/>
<path d="M188.41 370.083H209.586L139 474.393H117.824L188.41 370.083Z" fill="#E61641"/>
<path d="M234.289 370.083H255.465L184.879 474.393H163.703L234.289 370.083Z" fill="#E61641"/>
<path d="M280.17 370.083H301.345L230.76 474.393H209.584L280.17 370.083Z" fill="#E61641"/>
<path d="M326.051 370.083H347.226L276.641 474.393H255.465L326.051 370.083Z" fill="#E61641"/>
<path d="M371.929 370.083H393.105L322.519 474.393H301.344L371.929 370.083Z" fill="#E61641"/>
</g>
<path fill-rule="evenodd" clip-rule="evenodd" d="M361.571 271.91C366.097 264.621 368.612 255.25 368.612 243.236C368.612 197.131 331.582 159.756 285.903 159.756C240.225 159.756 203.195 197.131 203.195 243.236C203.195 255.18 205.68 264.512 210.157 271.784C202.752 272.751 197.035 279.084 197.035 286.753C197.035 295.091 203.795 301.851 212.133 301.851H358.793C367.131 301.851 373.891 295.091 373.891 286.753C373.891 279.364 368.582 273.214 361.571 271.91Z" fill="#652017"/>
<path fill-rule="evenodd" clip-rule="evenodd" d="M358.328 273.342L359.872 270.855C364.158 263.953 366.612 254.97 366.612 243.236C366.612 198.218 330.46 161.756 285.903 161.756C241.347 161.756 205.195 198.218 205.195 243.236C205.195 254.902 207.62 263.849 211.86 270.735L213.48 273.366L210.416 273.767C203.995 274.606 199.035 280.102 199.035 286.753C199.035 293.987 204.899 299.851 212.133 299.851H358.793C366.027 299.851 371.891 293.987 371.891 286.753C371.891 280.345 367.286 275.008 361.205 273.877L358.328 273.342ZM362.635 270.089C366.49 263.078 368.612 254.272 368.612 243.236C368.612 197.131 331.582 159.756 285.903 159.756C240.225 159.756 203.195 197.131 203.195 243.236C203.195 254.188 205.284 262.943 209.082 269.927C209.426 270.56 209.785 271.179 210.157 271.784C209.447 271.876 208.752 272.019 208.076 272.207C201.708 273.979 197.035 279.82 197.035 286.753C197.035 295.091 203.795 301.851 212.133 301.851H358.793C367.131 301.851 373.891 295.091 373.891 286.753C373.891 280.093 369.578 274.441 363.594 272.435C362.938 272.215 362.263 272.039 361.571 271.91C361.939 271.317 362.294 270.71 362.635 270.089Z" fill="#A26B64"/>
<path fill-rule="evenodd" clip-rule="evenodd" d="M220.79 271.91C225.316 264.621 227.83 255.25 227.83 243.236C227.83 197.131 190.801 159.756 145.122 159.756C99.4433 159.756 62.4134 197.131 62.4134 243.236C62.4134 255.18 64.8987 264.512 69.3758 271.784C61.9712 272.751 56.2539 279.084 56.2539 286.753C56.2539 295.091 63.0133 301.851 71.3514 301.851H218.012C226.35 301.851 233.109 295.091 233.109 286.753C233.109 279.364 227.801 273.214 220.79 271.91Z" fill="#72301C"/>
<path fill-rule="evenodd" clip-rule="evenodd" d="M217.547 273.342L219.09 270.855C223.376 263.953 225.83 254.97 225.83 243.236C225.83 198.218 189.678 161.756 145.122 161.756C100.565 161.756 64.4134 198.218 64.4134 243.236C64.4134 254.902 66.8391 263.849 71.0789 270.735L72.699 273.366L69.635 273.767C63.2133 274.606 58.2539 280.102 58.2539 286.753C58.2539 293.987 64.1178 299.851 71.3514 299.851H218.012C225.245 299.851 231.109 293.987 231.109 286.753C231.109 280.345 226.505 275.008 220.424 273.877L217.547 273.342ZM221.854 270.089C225.709 263.078 227.83 254.273 227.83 243.236C227.83 197.131 190.801 159.756 145.122 159.756C99.4433 159.756 62.4134 197.131 62.4134 243.236C62.4134 254.188 64.5027 262.943 68.3008 269.927C68.6452 270.56 69.0036 271.179 69.3758 271.784C68.6655 271.876 67.9708 272.019 67.2951 272.207C60.927 273.979 56.2539 279.82 56.2539 286.753C56.2539 295.091 63.0133 301.851 71.3514 301.851H218.012C226.35 301.851 233.109 295.091 233.109 286.753C233.109 280.093 228.797 274.441 222.813 272.435C222.157 272.215 221.482 272.039 220.79 271.91C221.158 271.317 221.513 270.71 221.854 270.089Z" fill="#A16B64"/>
</g>
<path d="M297.085 108.968L268.195 181.528L337.396 210.418C342.323 197.652 352.849 170.375 355.536 163.388C358.896 154.654 355.536 151.966 348.818 148.607C342.099 145.248 345.458 138.529 339.412 133.826C333.365 129.123 330.678 134.498 322.615 120.389C316.166 109.102 302.908 108.072 297.085 108.968Z" fill="#67311D"/>
<path fill-rule="evenodd" clip-rule="evenodd" d="M297.798 109.879L269.488 180.984L336.833 209.099C341.899 195.975 351.981 169.845 354.603 163.029C356.241 158.771 356.126 156.277 355.09 154.482C354.001 152.594 351.762 151.197 348.37 149.501C346.525 148.579 345.335 147.401 344.512 146.066C343.707 144.759 343.278 143.334 342.9 141.991C342.866 141.87 342.832 141.749 342.798 141.629C342.076 139.043 341.405 136.643 338.798 134.616C337.402 133.53 336.216 133.033 335.076 132.683C334.667 132.557 334.278 132.453 333.871 132.345C333.686 132.296 333.497 132.246 333.302 132.193C332.693 132.026 332.053 131.835 331.387 131.559C328.647 130.425 325.819 128.012 321.747 120.885C318.674 115.507 313.978 112.561 309.309 111.062C304.926 109.655 300.608 109.539 297.798 109.879ZM309.921 109.158C314.949 110.772 320.107 113.985 323.484 119.893C327.474 126.876 330.021 128.829 332.152 129.711C332.703 129.939 333.25 130.105 333.83 130.264C333.994 130.309 334.166 130.354 334.342 130.401C334.766 130.514 335.216 130.633 335.664 130.771C336.981 131.176 338.398 131.771 340.026 133.037C343.165 135.478 343.993 138.457 344.704 141.016C344.745 141.162 344.785 141.307 344.825 141.45C345.204 142.795 345.572 143.973 346.215 145.017C346.841 146.034 347.751 146.956 349.265 147.713C352.592 149.376 355.392 151.002 356.822 153.482C358.306 156.054 358.191 159.271 356.469 163.747C353.782 170.735 343.256 198.013 338.329 210.778L337.959 211.736L266.902 182.072L296.367 108.066L296.933 107.979C299.982 107.51 304.91 107.549 309.921 109.158Z" fill="#A16B64"/>
<path d="M297.085 109.39L268.195 181.278L328.662 206.808C334.037 194.044 341.427 174.83 344.114 167.842L344.115 167.841C347.474 159.107 343.443 157.343 336.724 153.984C330.006 150.624 333.365 143.906 327.318 139.203C321.272 134.5 318.584 139.875 310.522 125.766C304.072 114.479 302.908 108.494 297.085 109.39Z" fill="#864730"/>
<path d="M298.376 140.242C299.393 137.674 302.298 136.417 304.866 137.434L311.809 140.183C314.377 141.2 315.634 144.105 314.617 146.673L308.405 162.362C307.388 164.929 304.483 166.186 301.915 165.17L294.972 162.42C292.404 161.403 291.147 158.498 292.164 155.931L298.376 140.242Z" fill="#67311D"/>
<path fill-rule="evenodd" clip-rule="evenodd" d="M311.441 141.113L304.497 138.363C302.443 137.55 300.119 138.556 299.306 140.61L293.093 156.299C292.28 158.353 293.286 160.677 295.34 161.49L302.283 164.24C304.337 165.053 306.662 164.047 307.475 161.993L313.687 146.305C314.501 144.251 313.495 141.926 311.441 141.113ZM304.866 137.434C302.298 136.417 299.393 137.674 298.376 140.242L292.164 155.931C291.147 158.498 292.404 161.403 294.972 162.42L301.915 165.17C304.483 166.186 307.388 164.929 308.405 162.362L314.617 146.673C315.634 144.105 314.377 141.2 311.809 140.183L304.866 137.434Z" fill="#925742"/>
<path d="M286.997 168.976C288.014 166.408 290.919 165.151 293.487 166.168L300.43 168.917C302.998 169.934 304.255 172.84 303.238 175.407L297.026 191.096C296.009 193.663 293.104 194.921 290.536 193.904L283.593 191.154C281.025 190.138 279.768 187.232 280.785 184.665L286.997 168.976Z" fill="#67311D"/>
<path fill-rule="evenodd" clip-rule="evenodd" d="M300.062 169.847L293.119 167.098C291.065 166.284 288.74 167.29 287.927 169.344L281.714 185.033C280.901 187.087 281.907 189.411 283.961 190.225L290.904 192.974C292.958 193.788 295.283 192.782 296.096 190.728L302.309 175.039C303.122 172.985 302.116 170.661 300.062 169.847ZM293.487 166.168C290.919 165.151 288.014 166.408 286.997 168.976L280.785 184.665C279.768 187.232 281.025 190.138 283.593 191.154L290.536 193.904C293.104 194.921 296.009 193.663 297.026 191.096L303.238 175.407C304.255 172.84 302.998 169.934 300.43 168.917L293.487 166.168Z" fill="#925742"/>
<path d="M318.366 148.158C319.383 145.59 322.288 144.333 324.856 145.35L331.799 148.099C334.367 149.116 335.624 152.021 334.607 154.589L328.395 170.278C327.378 172.845 324.473 174.102 321.905 173.086L314.962 170.336C312.394 169.319 311.137 166.414 312.154 163.847L318.366 148.158Z" fill="#67311D"/>
<path fill-rule="evenodd" clip-rule="evenodd" d="M331.431 149.029L324.488 146.279C322.434 145.466 320.109 146.472 319.296 148.526L313.084 164.215C312.27 166.269 313.276 168.593 315.33 169.406L322.274 172.156C324.328 172.969 326.652 171.963 327.465 169.909L333.678 154.221C334.491 152.167 333.485 149.842 331.431 149.029ZM324.856 145.35C322.288 144.333 319.383 145.59 318.366 148.158L312.154 163.847C311.137 166.414 312.394 169.319 314.962 170.336L321.905 173.086C324.473 174.102 327.378 172.845 328.395 170.278L334.607 154.589C335.624 152.021 334.367 149.116 331.799 148.099L324.856 145.35Z" fill="#925742"/>
<path d="M306.987 176.892C308.004 174.325 310.909 173.067 313.477 174.084L320.421 176.833C322.988 177.85 324.245 180.756 323.229 183.323L317.016 199.012C316 201.579 313.094 202.837 310.527 201.82L303.583 199.071C301.015 198.054 299.758 195.148 300.775 192.581L306.987 176.892Z" fill="#67311D"/>
<path fill-rule="evenodd" clip-rule="evenodd" d="M320.052 177.763L313.109 175.014C311.055 174.2 308.73 175.206 307.917 177.26L301.705 192.949C300.891 195.003 301.897 197.327 303.951 198.141L310.895 200.89C312.949 201.704 315.273 200.698 316.086 198.644L322.299 182.955C323.112 180.901 322.106 178.577 320.052 177.763ZM313.477 174.084C310.909 173.067 308.004 174.325 306.987 176.892L300.775 192.581C299.758 195.148 301.015 198.054 303.583 199.071L310.527 201.82C313.094 202.837 316 201.579 317.016 199.012L323.229 183.323C324.245 180.756 322.988 177.85 320.421 176.833L313.477 174.084Z" fill="#925742"/>
<path d="M288.39 184.079C278.145 176.592 263.762 178.661 257.852 180.631L263.27 188.019L309.569 222.005C320.077 220.363 340.698 215.897 339.122 211.169C337.152 205.258 322.375 193.437 313.017 194.915C303.659 196.392 301.196 193.437 288.39 184.079Z" fill="#652017"/>
<path d="M149.983 222.497C149.983 223.857 147.998 224.96 145.55 224.96C143.102 224.96 141.117 223.857 141.117 222.497C141.117 221.137 143.102 220.034 145.55 220.034C147.998 220.034 149.983 221.137 149.983 222.497Z" fill="#652017"/>
<path d="M141.118 202.796C141.118 204.156 139.133 205.258 136.685 205.258C134.237 205.258 132.252 204.156 132.252 202.796C132.252 201.436 134.237 200.333 136.685 200.333C139.133 200.333 141.118 201.436 141.118 202.796Z" fill="#652017"/>
<path d="M165.745 178.168C165.745 179.528 163.76 180.631 161.312 180.631C158.864 180.631 156.879 179.528 156.879 178.168C156.879 176.808 158.864 175.705 161.312 175.705C163.76 175.705 165.745 176.808 165.745 178.168Z" fill="#652017"/>
<path d="M180.522 192.945C180.522 194.305 178.537 195.408 176.089 195.408C173.641 195.408 171.656 194.305 171.656 192.945C171.656 191.585 173.641 190.482 176.089 190.482C178.537 190.482 180.522 191.585 180.522 192.945Z" fill="#652017"/>
<path d="M211.059 217.572C211.059 218.932 209.075 220.035 206.626 220.035C204.178 220.035 202.193 218.932 202.193 217.572C202.193 216.212 204.178 215.109 206.626 215.109C209.075 215.109 211.059 216.212 211.059 217.572Z" fill="#652017"/>
<path d="M238.641 195.899C238.641 197.259 236.657 198.362 234.208 198.362C231.76 198.362 229.775 197.259 229.775 195.899C229.775 194.539 231.76 193.437 234.208 193.437C236.657 193.437 238.641 194.539 238.641 195.899Z" fill="#570014"/>
<path d="M270.165 212.646C270.165 214.006 268.18 215.109 265.732 215.109C263.284 215.109 261.299 214.006 261.299 212.646C261.299 211.286 263.284 210.184 265.732 210.184C268.18 210.184 270.165 211.286 270.165 212.646Z" fill="#570014"/>
<path d="M313.508 198.855C313.508 200.215 311.524 201.318 309.076 201.318C306.627 201.318 304.643 200.215 304.643 198.855C304.643 197.495 306.627 196.393 309.076 196.393C311.524 196.393 313.508 197.495 313.508 198.855Z" fill="#570014"/>
<path d="M353.899 227.423C353.899 228.783 351.914 229.885 349.466 229.885C347.018 229.885 345.033 228.783 345.033 227.423C345.033 226.063 347.018 224.96 349.466 224.96C351.914 224.96 353.899 226.063 353.899 227.423Z" fill="#570014"/>
<path d="M332.227 222.497C332.227 223.857 330.243 224.96 327.794 224.96C325.346 224.96 323.361 223.857 323.361 222.497C323.361 221.137 325.346 220.034 327.794 220.034C330.243 220.034 332.227 221.137 332.227 222.497Z" fill="#570014"/>
<path d="M250.464 229.393C250.464 230.754 248.479 231.856 246.031 231.856C243.582 231.856 241.598 230.754 241.598 229.393C241.598 228.033 243.582 226.931 246.031 226.931C248.479 226.931 250.464 228.033 250.464 229.393Z" fill="#570014"/>
<path d="M176.581 125.958C176.581 127.318 174.596 128.421 172.148 128.421C169.7 128.421 167.715 127.318 167.715 125.958C167.715 124.598 169.7 123.495 172.148 123.495C174.596 123.495 176.581 124.598 176.581 125.958Z" fill="#4B0112"/>
<path d="M262.284 155.511C262.284 156.871 260.299 157.973 257.851 157.973C255.403 157.973 253.418 156.871 253.418 155.511C253.418 154.15 255.403 153.048 257.851 153.048C260.299 153.048 262.284 154.15 262.284 155.511Z" fill="#4B0112"/>
<path d="M277.061 142.705C277.061 144.065 275.076 145.168 272.628 145.168C270.18 145.168 268.195 144.065 268.195 142.705C268.195 141.345 270.18 140.242 272.628 140.242C275.076 140.242 277.061 141.345 277.061 142.705Z" fill="#4B0112"/>
<path d="M182.493 142.705C182.493 144.065 180.508 145.168 178.06 145.168C175.612 145.168 173.627 144.065 173.627 142.705C173.627 141.345 175.612 140.242 178.06 140.242C180.508 140.242 182.493 141.345 182.493 142.705Z" fill="#4B0112"/>
<path d="M162.79 149.6C162.79 150.961 160.805 152.063 158.357 152.063C155.909 152.063 153.924 150.961 153.924 149.6C153.924 148.24 155.909 147.138 158.357 147.138C160.805 147.138 162.79 148.24 162.79 149.6Z" fill="#4B0112"/>
<path d="M90.8776 212.646C90.8776 214.006 88.8929 215.109 86.4447 215.109C83.9964 215.109 82.0117 214.006 82.0117 212.646C82.0117 211.286 83.9964 210.184 86.4447 210.184C88.8929 210.184 90.8776 211.286 90.8776 212.646Z" fill="#652017"/>
<path d="M108.611 220.527C108.611 222.431 107.067 223.975 105.163 223.975C103.258 223.975 101.715 222.431 101.715 220.527C101.715 218.623 103.258 217.079 105.163 217.079C107.067 217.079 108.611 218.623 108.611 220.527Z" fill="white"/>
<path d="M124.371 190.974C124.371 192.335 123.268 193.437 121.908 193.437C120.548 193.437 119.445 192.335 119.445 190.974C119.445 189.614 120.548 188.512 121.908 188.512C123.268 188.512 124.371 189.614 124.371 190.974Z" fill="white"/>
<path d="M197.269 233.334C197.269 235.238 195.725 236.781 193.821 236.781C191.917 236.781 190.373 235.238 190.373 233.334C190.373 231.429 191.917 229.886 193.821 229.886C195.725 229.886 197.269 231.429 197.269 233.334Z" fill="white"/>
<path d="M264.254 192.945C264.254 194.305 263.151 195.408 261.791 195.408C260.431 195.408 259.328 194.305 259.328 192.945C259.328 191.585 260.431 190.482 261.791 190.482C263.151 190.482 264.254 191.585 264.254 192.945Z" fill="white"/>
<path d="M342.077 233.334C342.077 235.238 340.534 236.781 338.629 236.781C336.725 236.781 335.182 235.238 335.182 233.334C335.182 231.429 336.725 229.886 338.629 229.886C340.534 229.886 342.077 231.429 342.077 233.334Z" fill="white"/>
<path fill-rule="evenodd" clip-rule="evenodd" d="M251.593 107.193C252.974 107.193 254.093 108.312 254.093 109.693C254.093 133.663 244.31 151.678 230.1 159.669C215.73 167.749 197.618 165.147 182.194 149.447C181.226 148.462 181.24 146.879 182.225 145.911C183.21 144.944 184.793 144.958 185.761 145.943C199.908 160.343 215.604 162.084 227.649 155.311C239.854 148.447 249.093 132.411 249.093 109.693C249.093 108.312 250.213 107.193 251.593 107.193Z" fill="black"/>
<path d="M188.777 92.1206L195.409 116.081C188.707 114.954 173.955 105.514 173.951 95.1081C173.948 84.7025 183.476 83.3567 188.777 92.1206Z" fill="white"/>
<path d="M188.777 92.1206L195.409 116.081C200.478 111.311 208.089 94.9489 202.786 86.1833C197.484 77.4177 188.773 81.7173 188.777 92.1206Z" fill="white"/>
<path fill-rule="evenodd" clip-rule="evenodd" d="M195.409 116.081C195.216 116.049 195.016 116.01 194.811 115.964C187.87 114.41 173.955 105.214 173.951 95.1081C173.948 85.3469 182.333 83.5581 187.747 90.6086C188.104 91.074 188.449 91.5779 188.777 92.1206C188.777 91.488 188.809 90.878 188.87 90.2921C189.82 81.2427 197.806 77.9508 202.786 86.1833C207.936 94.6966 200.905 110.376 195.852 115.641C195.703 115.797 195.555 115.944 195.409 116.081ZM195.509 114.402C197.72 111.877 200.325 107.311 201.95 102.295C203.8 96.5842 204.248 90.7058 201.854 86.7475C200.613 84.6968 199.232 83.5078 197.932 82.9526C196.648 82.4046 195.38 82.4435 194.24 82.9575C191.928 83.9989 189.865 87.173 189.867 92.1202L189.868 94.0184L195.509 114.402ZM188.809 94.2798L187.844 92.6848C185.333 88.5319 182.01 87.0641 179.566 87.499C177.227 87.9152 175.04 90.2207 175.041 95.1077C175.043 99.8153 178.416 104.499 182.869 108.239C186.808 111.548 191.343 113.907 194.477 114.758L188.809 94.2798Z" fill="white"/>
<path d="M233.18 81.1646L239.811 105.125C233.11 103.998 218.357 94.5576 218.354 84.152C218.35 73.7465 227.879 72.4006 233.18 81.1646Z" fill="white"/>
<path d="M233.18 81.1646L239.811 105.125C244.88 100.355 252.491 83.9929 247.189 75.2273C241.886 66.4617 233.176 70.7612 233.18 81.1646Z" fill="white"/>
<path fill-rule="evenodd" clip-rule="evenodd" d="M239.811 105.125C239.618 105.093 239.419 105.054 239.213 105.008C232.273 103.454 218.357 94.2581 218.354 84.152C218.35 74.3908 226.735 72.6021 232.149 79.6525C232.507 80.118 232.851 80.6219 233.18 81.1646C233.179 80.532 233.211 79.922 233.273 79.3361C234.222 70.2867 242.209 66.9947 247.189 75.2273C252.339 83.7406 245.308 99.4195 240.255 104.685C240.105 104.841 239.957 104.988 239.811 105.125ZM239.912 103.446C242.122 100.921 244.727 96.3552 246.352 91.3386C248.203 85.6282 248.65 79.7497 246.256 75.7915C245.016 73.7408 243.635 72.5517 242.334 71.9965C241.051 71.4485 239.783 71.4875 238.642 72.0014C236.331 73.0429 234.268 76.2169 234.27 81.1642L234.27 83.0624L239.912 103.446ZM233.212 83.3238L232.247 81.7287C229.735 77.5758 226.413 76.108 223.968 76.5429C221.629 76.9592 219.442 79.2646 219.444 84.1517C219.445 88.8593 222.818 93.5426 227.272 97.2834C231.211 100.592 235.745 102.951 238.879 103.802L233.212 83.3238Z" fill="white"/>
<path d="M191.646 94.8801L196.556 114.506C191.388 113.64 180.073 106.016 180.163 97.467C180.254 88.9183 187.629 87.7274 191.646 94.8801Z" fill="#449AFF"/>
<path d="M191.646 94.8801L196.556 114.506C200.516 110.542 206.543 97.031 202.525 89.877C198.506 82.723 191.736 86.3332 191.646 94.8801Z" fill="#449AFF"/>
<path d="M236.049 83.924L240.959 103.55C235.79 102.684 224.476 95.0597 224.566 86.5109C224.656 77.9622 232.031 76.7714 236.049 83.924Z" fill="#449AFF"/>
<path d="M236.049 83.924L240.959 103.55C244.918 99.5855 250.946 86.075 246.927 78.9209C242.908 71.7669 236.139 75.3771 236.049 83.924Z" fill="#449AFF"/>
<path fill-rule="evenodd" clip-rule="evenodd" d="M177.156 124.256C176.44 126.448 174.893 128.127 172.816 128.641C170.88 129.121 168.88 128.491 167.275 127.104C166.503 129.08 165.028 130.572 163.092 131.052C159.511 131.939 155.708 129.03 154.599 124.553C153.489 120.076 155.493 115.728 159.075 114.84C161.011 114.36 163.011 114.99 164.616 116.377C165.388 114.401 166.863 112.909 168.799 112.43C170.932 111.901 173.143 112.719 174.817 114.413C175.533 112.22 177.08 110.542 179.157 110.027C182.738 109.14 186.541 112.049 187.65 116.526C188.759 121.003 186.755 125.351 183.174 126.239C181.041 126.767 178.83 125.949 177.156 124.256Z" fill="#FD476D"/>
<path fill-rule="evenodd" clip-rule="evenodd" d="M159.304 121.183C159.661 120.59 160.431 120.4 161.023 120.757L165.069 123.196C165.662 123.553 165.852 124.323 165.495 124.915C165.138 125.508 164.368 125.698 163.776 125.341L159.73 122.902C159.137 122.545 158.947 121.775 159.304 121.183Z" fill="black"/>
<path fill-rule="evenodd" clip-rule="evenodd" d="M168.757 118.815C169.114 118.222 169.884 118.031 170.476 118.389L174.522 120.828C175.115 121.185 175.305 121.955 174.948 122.547C174.591 123.14 173.821 123.33 173.229 122.973L169.183 120.534C168.59 120.177 168.4 119.407 168.757 118.815Z" fill="black"/>
<path fill-rule="evenodd" clip-rule="evenodd" d="M177.765 116.772C178.122 116.179 178.892 115.989 179.484 116.346L183.53 118.785C184.122 119.142 184.313 119.912 183.956 120.504C183.599 121.097 182.829 121.287 182.237 120.93L178.191 118.491C177.598 118.134 177.408 117.364 177.765 116.772Z" fill="black"/>
<path fill-rule="evenodd" clip-rule="evenodd" d="M259.925 108.573C259.154 110.55 257.679 112.042 255.742 112.522C252.161 113.409 248.358 110.5 247.249 106.023C246.14 101.546 248.144 97.1976 251.725 96.3101C253.662 95.8302 255.663 96.4607 257.268 97.8491C258.04 95.872 259.515 94.38 261.452 93.9001C265.033 93.0126 268.836 95.9223 269.945 100.399C271.054 104.876 269.05 109.224 265.469 110.112C263.532 110.592 261.531 109.961 259.925 108.573Z" fill="#FD476D"/>
<path fill-rule="evenodd" clip-rule="evenodd" d="M251.954 102.656C252.311 102.063 253.081 101.872 253.674 102.229L257.719 104.668C258.312 105.026 258.503 105.795 258.145 106.388C257.788 106.98 257.018 107.171 256.426 106.814L252.38 104.375C251.788 104.018 251.597 103.248 251.954 102.656Z" fill="black"/>
<path fill-rule="evenodd" clip-rule="evenodd" d="M260.06 100.646C260.417 100.053 261.187 99.8625 261.779 100.22L265.825 102.659C266.417 103.016 266.608 103.786 266.251 104.378C265.894 104.971 265.124 105.161 264.531 104.804L260.486 102.365C259.893 102.008 259.702 101.238 260.06 100.646Z" fill="black"/>
<path d="M201.012 94.2504C201.012 95.4544 200.28 96.4304 199.377 96.4304C198.474 96.4304 197.742 95.4544 197.742 94.2504C197.742 93.0464 198.474 92.0703 199.377 92.0703C200.28 92.0703 201.012 93.0464 201.012 94.2504Z" fill="white"/>
<path d="M245.69 82.2601C245.69 83.4642 244.958 84.4402 244.055 84.4402C243.152 84.4402 242.42 83.4642 242.42 82.2601C242.42 81.0561 243.152 80.0801 244.055 80.0801C244.958 80.0801 245.69 81.0561 245.69 82.2601Z" fill="white"/>
<path fill-rule="evenodd" clip-rule="evenodd" d="M72.5 154.5C72.5 153.672 73.1716 153 74 153H96.5C97.3284 153 98 153.672 98 154.5C98 155.328 97.3284 156 96.5 156H74C73.1716 156 72.5 155.328 72.5 154.5Z" fill="black"/>
<path fill-rule="evenodd" clip-rule="evenodd" d="M70.7432 116.425C71.1955 115.731 72.1248 115.535 72.8189 115.987L105.401 137.222C106.095 137.674 106.291 138.603 105.839 139.297C105.387 139.991 104.457 140.187 103.763 139.735L71.1809 118.501C70.4868 118.049 70.2909 117.119 70.7432 116.425Z" fill="black"/>
<path fill-rule="evenodd" clip-rule="evenodd" d="M98.6054 105.616C99.291 105.151 100.224 105.33 100.689 106.016L114.035 125.685C114.5 126.371 114.321 127.303 113.635 127.769C112.95 128.234 112.017 128.055 111.552 127.37L98.2064 107.7C97.7412 107.014 97.9199 106.082 98.6054 105.616Z" fill="black"/>
</svg>
