<svg width="430" height="430" viewBox="0 0 430 430" fill="none" xmlns="http://www.w3.org/2000/svg">
<path d="M430 215C430 333.741 333.741 430 215 430C96.2588 430 0 333.741 0 215C0 96.2588 96.2588 0 215 0C333.741 0 430 96.2588 430 215Z" fill="#FFCF52"/>
<path d="M161.598 254.982C147.199 250.154 105.756 212.413 86.8352 194.146C49.1176 153.144 51.8174 231.825 52.8549 245.587C53.8925 259.348 71.4602 314.775 118.388 337.098C165.317 359.42 234.508 370.851 251.806 373.709C265.644 375.995 270.769 365.986 271.601 360.696C278.66 362.474 282.896 363.541 288.908 357.556C293.718 352.767 292.814 344.039 291.76 340.274C294.94 339.575 299.886 337.821 302.018 329.358C303.724 322.588 298.035 317.354 294.978 315.584C303.112 307.133 297.474 299.713 283.356 296.156L224.057 281.217C231.475 279.586 245.961 274.135 244.563 265.383C242.814 254.442 229.397 254.062 212.089 257.202C194.782 260.342 179.597 261.016 161.598 254.982Z" fill="#FF9FB3"/>
<path fill-rule="evenodd" clip-rule="evenodd" d="M223.464 280.948C223.194 282.019 222.107 282.669 221.036 282.399C215.562 281.02 197.691 274.434 189.551 271.36C188.517 270.97 187.996 269.816 188.386 268.782C188.777 267.749 189.931 267.228 190.964 267.618C199.224 270.738 216.82 277.212 222.013 278.52C223.084 278.79 223.734 279.877 223.464 280.948Z" fill="black"/>
<path fill-rule="evenodd" clip-rule="evenodd" d="M293.008 315.999C292.738 317.07 291.651 317.72 290.58 317.45L213.003 297.906C211.932 297.636 211.283 296.549 211.553 295.478C211.822 294.407 212.909 293.758 213.981 294.028L291.557 313.571C292.628 313.841 293.277 314.928 293.008 315.999Z" fill="black"/>
<path fill-rule="evenodd" clip-rule="evenodd" d="M292.892 340.966C292.496 341.997 291.339 342.512 290.308 342.116C266.491 332.971 231.099 325.247 217.215 322.62C216.129 322.414 215.416 321.368 215.621 320.283C215.827 319.197 216.873 318.484 217.958 318.689C231.888 321.326 267.573 329.101 291.742 338.382C292.773 338.778 293.288 339.935 292.892 340.966Z" fill="black"/>
<path fill-rule="evenodd" clip-rule="evenodd" d="M275.674 361.236C275.064 362.156 273.823 362.409 272.902 361.799C263.044 355.269 249.344 349.677 235.962 345.527C222.588 341.379 209.715 338.727 201.583 338C200.483 337.901 199.671 336.93 199.769 335.829C199.868 334.729 200.839 333.917 201.94 334.016C210.437 334.775 223.599 337.504 237.147 341.706C250.688 345.906 264.797 351.633 275.111 358.464C276.032 359.074 276.284 360.315 275.674 361.236Z" fill="black"/>
<path d="M170.614 196.591C161.106 210.942 164.758 231.552 178.604 241.686L211.277 265.602C220.871 272.624 225.668 276.135 230.702 275.175C235.737 274.215 238.906 269.186 245.244 259.127L266.829 224.869C275.976 210.352 271.79 189.844 257.67 179.997C244.091 170.528 226.561 174.618 218.515 189.132C216.876 192.088 212.995 192.828 210.384 190.682C197.562 180.146 179.757 182.791 170.614 196.591Z" fill="#9971FF"/>
<path d="M267.805 173.28C282.598 176.718 327.438 210.352 348.009 226.739C389.45 263.974 379.289 185.904 376.949 172.303C374.609 158.703 351.856 105.195 303.02 87.431C254.183 69.6668 184.219 64.8596 166.728 63.6578C152.735 62.6964 148.585 73.1471 148.259 78.4927C141.062 77.3928 136.744 76.7329 131.328 83.2624C126.994 88.486 128.724 97.0886 130.13 100.737C127.032 101.735 122.274 103.951 120.956 112.578C119.901 119.48 126.061 124.149 129.273 125.621C121.977 134.806 128.294 141.658 142.687 143.857L203.137 153.096C195.907 155.425 182.004 162.227 184.228 170.807C187.008 181.532 200.401 180.636 217.331 175.866C234.262 171.096 249.314 168.982 267.805 173.28Z" fill="#FF7759"/>
<path fill-rule="evenodd" clip-rule="evenodd" d="M203.753 153.308C203.92 152.216 204.941 151.466 206.033 151.633C211.613 152.486 230.028 157.344 238.424 159.632C239.49 159.922 240.119 161.022 239.828 162.087C239.538 163.153 238.438 163.782 237.373 163.491C228.854 161.17 210.722 156.396 205.428 155.587C204.336 155.421 203.587 154.4 203.753 153.308Z" fill="black"/>
<path fill-rule="evenodd" clip-rule="evenodd" d="M131.179 125.512C131.075 124.412 131.882 123.436 132.981 123.332C150.126 121.705 163.15 121.804 175.42 123.81C187.688 125.816 199.102 129.712 213.027 135.566C214.045 135.994 214.524 137.166 214.096 138.184C213.668 139.203 212.495 139.681 211.477 139.253C197.681 133.454 186.597 129.69 174.775 127.758C162.956 125.825 150.299 125.707 133.359 127.314C132.26 127.418 131.284 126.611 131.179 125.512Z" fill="black"/>
<path fill-rule="evenodd" clip-rule="evenodd" d="M128.87 100.821C128.799 99.7192 129.634 98.7678 130.737 98.6964C144.029 97.836 159.745 98.6107 173.75 100.793C180.756 101.885 187.369 103.335 193.06 105.124C198.721 106.904 203.595 109.059 207.029 111.62C207.914 112.28 208.097 113.533 207.436 114.419C206.776 115.304 205.523 115.487 204.637 114.826C201.725 112.654 197.339 110.662 191.86 108.94C186.409 107.226 180 105.816 173.134 104.746C159.397 102.605 143.975 101.848 130.995 102.688C129.893 102.759 128.941 101.924 128.87 100.821Z" fill="black"/>
<path fill-rule="evenodd" clip-rule="evenodd" d="M148.331 79.0825C148.164 80.1744 148.914 81.1948 150.006 81.3617L224.145 92.6928C225.237 92.8597 226.257 92.1098 226.424 91.0179C226.591 89.926 225.841 88.9056 224.749 88.7387L150.61 77.4076C149.518 77.2408 148.498 77.9906 148.331 79.0825Z" fill="black"/>
</svg>
