<svg width="430" height="430" viewBox="0 0 430 430" fill="none" xmlns="http://www.w3.org/2000/svg">
<path d="M430 215C430 333.741 333.741 430 215 430C96.2588 430 0 333.741 0 215C0 96.2588 96.2588 0 215 0C333.741 0 430 96.2588 430 215Z" fill="#449AFF"/>
<path d="M178.081 155.39C178.739 156.377 197.182 116.042 198.826 113.411C208.199 97.9533 225.465 81.1806 243.553 80.0295C250.46 79.5362 259.34 85.2915 263.122 92.8557C267.561 101.407 255.557 113.411 249.638 117.686C243.225 122.29 242.896 122.619 238.127 129.69C218.723 158.796 240.922 200.563 276.77 194.314C291.57 191.683 300.943 179.515 306.533 166.36C327.582 115.384 365.403 174.088 327.582 235.095C289.761 296.102 231.056 418.28 171.036 384.899C111.016 351.518 132.228 307.284 128.94 276.205C116.771 262.228 52.9689 203.03 81.0879 185.27C86.0211 182.146 92.2697 181.653 98.1895 182.475C117.264 185.599 123.842 201.55 139.793 209.607C134.202 206.812 119.567 172.609 118.744 166.689C116.771 154.191 116.607 140.872 121.375 128.868C124.5 121.139 136.668 102.886 146.37 102.886C161.827 103.051 171.01 144.702 178.081 155.39Z" fill="#FF7759"/>
<path fill-rule="evenodd" clip-rule="evenodd" d="M137.152 109.212C138.241 109.394 138.976 110.425 138.793 111.514L138.793 111.514L138.793 111.515L138.793 111.518L138.789 111.541C138.786 111.562 138.78 111.595 138.773 111.641C138.759 111.733 138.738 111.874 138.712 112.062C138.659 112.439 138.585 113.004 138.504 113.743C138.342 115.22 138.15 117.388 138.037 120.121C137.81 125.589 137.901 133.307 139.17 142.269C141.709 160.197 148.953 183.028 167.743 202.852C168.503 203.654 168.469 204.92 167.668 205.68C166.866 206.44 165.6 206.406 164.84 205.604C145.32 185.011 137.828 161.319 135.209 142.83C133.9 133.583 133.806 125.618 134.04 119.956C134.157 117.124 134.356 114.864 134.528 113.306C134.614 112.526 134.692 111.921 134.75 111.507C134.779 111.3 134.803 111.141 134.82 111.031C134.829 110.976 134.835 110.934 134.84 110.904L134.846 110.869L134.848 110.858L134.848 110.855C134.848 110.854 134.849 110.853 136.821 111.184L134.849 110.853C135.032 109.763 136.063 109.029 137.152 109.212Z" fill="black"/>
<path fill-rule="evenodd" clip-rule="evenodd" d="M183.195 151.132C183.195 151.132 183.195 151.132 183.195 151.132L183.194 151.136L183.191 151.152L183.178 151.223C183.166 151.287 183.149 151.384 183.126 151.512C183.081 151.768 183.015 152.147 182.936 152.636C182.777 153.613 182.563 155.024 182.343 156.749C181.902 160.202 181.443 164.888 181.358 169.844C181.272 174.816 181.567 179.976 182.594 184.41C183.633 188.891 185.349 192.316 187.851 194.214C188.731 194.882 188.904 196.137 188.236 197.017C187.568 197.897 186.314 198.069 185.434 197.401C181.832 194.668 179.818 190.147 178.698 185.313C177.566 180.432 177.27 174.908 177.358 169.776C177.446 164.628 177.923 159.789 178.375 156.242C178.602 154.467 178.823 153.01 178.988 151.994C179.071 151.486 179.139 151.088 179.187 150.815C179.212 150.678 179.231 150.573 179.244 150.501L179.259 150.418L179.264 150.395L179.265 150.387C179.265 150.386 179.265 150.386 181.23 150.759L179.265 150.386C179.471 149.301 180.518 148.588 181.603 148.794C182.688 149 183.401 150.047 183.195 151.132Z" fill="black"/>
<path fill-rule="evenodd" clip-rule="evenodd" d="M140.905 211.57C140.905 211.57 140.905 211.57 140.905 211.57L140.905 211.582L140.905 211.626C140.906 211.665 140.906 211.725 140.906 211.803C140.908 211.961 140.91 212.194 140.915 212.494C140.926 213.094 140.946 213.958 140.988 215.008C141.07 217.112 141.235 219.946 141.563 222.887C141.893 225.842 142.38 228.837 143.089 231.288C143.443 232.513 143.837 233.55 144.264 234.356C144.701 235.181 145.106 235.642 145.422 235.865C146.323 236.504 146.536 237.752 145.897 238.653C145.258 239.555 144.01 239.767 143.109 239.129C142.085 238.403 141.318 237.341 140.729 236.228C140.13 235.098 139.645 233.782 139.246 232.398C138.447 229.633 137.929 226.383 137.588 223.331C137.246 220.265 137.076 217.329 136.991 215.165C136.948 214.082 136.927 213.188 136.916 212.563C136.911 212.25 136.908 212.004 136.907 211.836C136.906 211.751 136.906 211.686 136.905 211.641L136.905 211.59L136.905 211.571C136.905 211.57 136.905 211.57 138.892 211.57L136.905 211.571C136.905 210.466 137.801 209.57 138.905 209.57C140.01 209.57 140.905 210.465 140.905 211.57Z" fill="black"/>
<path d="M273.21 102.537C267.57 111.048 269.736 123.273 277.948 129.284L297.328 143.468C303.018 147.633 305.863 149.716 308.849 149.147C311.836 148.578 313.715 145.594 317.474 139.628L330.277 119.309C335.702 110.699 333.219 98.5348 324.844 92.6943C316.791 87.0781 306.393 89.5038 301.621 98.1123C300.649 99.8657 298.347 100.304 296.798 99.0316C289.193 92.7823 278.632 94.3515 273.21 102.537Z" fill="#FFF176"/>
</svg>
