<svg width="430" height="430" viewBox="0 0 430 430" fill="none" xmlns="http://www.w3.org/2000/svg">
<path d="M430 215C430 333.741 333.741 430 215 430C96.2588 430 0 333.741 0 215C0 96.2588 96.2588 0 215 0C333.741 0 430 96.2588 430 215Z" fill="#FFCF52"/>
<mask id="mask0" mask-type="alpha" maskUnits="userSpaceOnUse" x="0" y="0" width="430" height="430">
<path d="M430 215C430 333.741 333.741 430 215 430C96.2588 430 0 333.741 0 215C0 96.2588 96.2588 0 215 0C333.741 0 430 96.2588 430 215Z" fill="#FFCF52"/>
</mask>
<g mask="url(#mask0)">
<path fill-rule="evenodd" clip-rule="evenodd" d="M304.245 167.881C304.413 167.071 305.205 166.559 306.015 166.738L305.711 168.205C306.015 166.738 306.016 166.738 306.017 166.738L306.023 166.74L306.04 166.743L306.098 166.757C306.149 166.768 306.222 166.785 306.316 166.808C306.504 166.853 306.777 166.921 307.123 167.011C307.814 167.193 308.802 167.469 309.998 167.848C312.386 168.606 315.624 169.783 319.011 171.46C325.698 174.771 333.36 180.226 335.73 188.608C335.956 189.408 335.494 190.233 334.699 190.45C333.903 190.667 333.074 190.194 332.848 189.393C330.847 182.315 324.221 177.372 317.712 174.15C314.5 172.56 311.414 171.437 309.127 170.711C307.985 170.349 307.047 170.087 306.398 169.917C306.073 169.832 305.821 169.769 305.653 169.729C305.568 169.709 305.505 169.694 305.464 169.684L305.418 169.674L305.408 169.672C305.407 169.671 305.408 169.672 305.408 169.672C304.598 169.493 304.077 168.691 304.245 167.881Z" fill="black"/>
<path fill-rule="evenodd" clip-rule="evenodd" d="M310.742 160.697C310.899 159.885 311.684 159.361 312.497 159.528L312.213 161C312.497 159.528 312.496 159.528 312.497 159.528L312.5 159.529L312.508 159.531L312.532 159.536C312.553 159.54 312.583 159.547 312.621 159.555C312.697 159.572 312.808 159.596 312.951 159.629C313.236 159.695 313.649 159.794 314.171 159.93C315.214 160.202 316.694 160.62 318.459 161.21C321.981 162.388 326.67 164.26 331.287 167.037C332 167.466 332.239 168.389 331.82 169.099C331.401 169.809 330.483 170.037 329.77 169.608C325.4 166.98 320.931 165.191 317.543 164.059C315.852 163.493 314.439 163.094 313.452 162.837C312.959 162.709 312.573 162.616 312.313 162.556C312.183 162.526 312.084 162.504 312.02 162.49L311.949 162.475L311.933 162.471L311.93 162.471C311.118 162.304 310.586 161.509 310.742 160.697Z" fill="black"/>
<path d="M228.669 140.838L179.514 115.781C150.115 100.795 115.774 98.8431 84.8653 110.401L70.1071 115.92C56.9281 120.848 45.6002 129.74 37.682 141.371C16.6418 172.277 24.4683 214.368 55.2114 235.646L123.717 283.059C184.163 324.895 230.354 384.233 256.079 453.097L282.85 524.761C295.928 559.772 334.917 577.545 369.923 564.455C383.022 559.556 394.281 550.719 402.151 539.159L411.079 526.044C429.655 498.757 435.907 464.919 428.307 432.795L415.504 378.685C391.166 275.817 322.847 188.845 228.669 140.838Z" fill="#FFF8AE"/>
<path d="M268.475 154.734L187.59 98.0397C161.542 79.7822 127.514 77.4908 99.2538 92.0913L91.6008 96.0453C81.754 101.133 73.6127 108.992 68.1818 118.654C53.4655 144.834 61.6968 177.947 86.9586 194.189L184.424 256.855C235.323 289.581 273.73 338.481 293.463 395.685L331.784 506.778C341.365 534.552 370.92 550.058 399.218 542.158C410.583 538.985 420.642 532.275 427.937 523.001L434.358 514.837C453.388 490.642 458.268 458.212 447.202 429.488L412.143 338.486C383.572 264.323 333.556 200.352 268.475 154.734Z" fill="#76381C"/>
<path fill-rule="evenodd" clip-rule="evenodd" d="M213.642 145.302C213.016 146.208 211.763 146.441 210.844 145.822L198.774 137.696L175.142 122.834C166.768 117.567 157.173 114.492 147.264 113.899L142.58 113.618C141.469 113.552 140.623 112.61 140.689 111.515C140.756 110.42 141.709 109.586 142.819 109.653L147.504 109.933C158.096 110.567 168.352 113.855 177.304 119.484L200.989 134.38L213.112 142.542C214.031 143.16 214.268 144.396 213.642 145.302Z" fill="white"/>
<path d="M160.191 242.817L89.5865 199.282C58.8878 180.353 51.2035 139.078 73.0335 110.37C74.6072 108.3 76.439 106.44 78.4842 104.835L85.2181 99.5492C54.0491 131.635 84.5176 167.623 99.6837 176.464C149.525 202.119 259.351 261.968 291.892 327.885C324.429 393.795 348.332 470.291 358.001 502.075C365.526 522.841 389.893 553.885 419.235 530.854C389.989 558.804 341.582 546.548 329.159 508.049L301.842 423.389C277.603 348.268 227.38 284.246 160.191 242.817Z" fill="#4B210E"/>
<path d="M234.044 320.888C233.61 321.229 231.737 319.568 229.862 317.178C227.986 314.789 226.818 312.576 227.252 312.235C227.687 311.894 229.559 313.554 231.435 315.944C233.31 318.333 234.479 320.547 234.044 320.888Z" fill="#FFBC58"/>
<path d="M186.269 293.307C185.94 293.75 183.696 292.641 181.258 290.83C178.819 289.018 177.11 287.19 177.439 286.747C177.768 286.304 180.012 287.413 182.45 289.224C184.889 291.035 186.598 292.863 186.269 293.307Z" fill="#FFBC58"/>
<path d="M191.939 330.444C191.624 330.811 190.099 330.019 188.532 328.676C186.965 327.332 185.95 325.946 186.265 325.579C186.579 325.212 188.104 326.004 189.671 327.348C191.238 328.691 192.253 330.078 191.939 330.444Z" fill="#FFBC58"/>
<path d="M126.336 256.316C126.022 256.683 124.634 256.01 123.238 254.812C121.841 253.614 120.964 252.346 121.278 251.98C121.593 251.613 122.98 252.286 124.377 253.484C125.773 254.682 126.651 255.95 126.336 256.316Z" fill="#FFBC58"/>
<path d="M110.676 228.44C110.346 228.883 108.618 228.157 106.816 226.818C105.013 225.479 103.818 224.034 104.148 223.591C104.477 223.147 106.205 223.874 108.008 225.213C109.811 226.552 111.005 227.997 110.676 228.44Z" fill="#FFBC58"/>
<path d="M53.7654 205.527C53.2338 205.677 52.3093 204.046 51.7006 201.885C51.0918 199.723 51.0293 197.85 51.5609 197.7C52.0925 197.55 53.0169 199.181 53.6257 201.342C54.2344 203.504 54.297 205.378 53.7654 205.527Z" fill="#FFBC58"/>
<path d="M269.095 398.551C268.58 398.751 267.451 397.073 266.573 394.804C265.696 392.535 265.402 390.535 265.917 390.335C266.432 390.136 267.561 391.814 268.439 394.083C269.316 396.351 269.61 398.352 269.095 398.551Z" fill="#FFBC58"/>
<path fill-rule="evenodd" clip-rule="evenodd" d="M334.463 256.718C335.172 255.87 336.433 255.757 337.281 256.465C342.922 261.18 352.191 273.064 362.624 291.108C373.098 309.224 384.846 333.724 395.386 363.839C395.751 364.882 395.201 366.023 394.159 366.388C393.116 366.753 391.975 366.203 391.61 365.161C381.151 335.276 369.507 311.004 359.161 293.11C348.773 275.143 339.791 263.776 334.716 259.535C333.868 258.826 333.755 257.565 334.463 256.718Z" fill="white"/>
<path d="M220.267 201.942C214.813 203.616 208.284 198.112 205.686 189.647C203.087 181.183 205.402 172.963 210.856 171.289C216.311 169.614 222.839 175.119 225.438 183.583C228.036 192.048 225.721 200.267 220.267 201.942Z" fill="white"/>
<path d="M207.809 173.192C211.774 174.376 216.751 178.852 218.772 185.436C220.793 192.02 219.565 198.915 216.947 202.121C212.479 201.682 207.625 196.063 205.604 189.479C203.583 182.895 204.093 176.734 207.809 173.192Z" fill="#231F20"/>
<path d="M254.006 199.759C248.551 201.434 242.023 195.929 239.424 187.464C236.825 178.999 239.14 170.78 244.595 169.105C250.049 167.431 256.577 172.935 259.176 181.4C261.775 189.865 259.46 198.085 254.006 199.759Z" fill="white"/>
<path d="M241.553 171.009C245.519 172.193 250.495 176.669 252.516 183.253C254.538 189.837 253.309 196.732 250.691 199.937C246.223 199.499 241.37 193.879 239.348 187.295C237.327 180.711 237.837 174.551 241.553 171.009Z" fill="#231F20"/>
<path d="M258.814 230.569C259.56 229.937 267.888 238.259 268.52 239.005C273.057 242.85 278.226 247.441 283.106 247.152C285.23 246.635 286.608 246.749 288.101 245.485C301.303 236.868 285.507 218.215 279.189 210.753C279.189 210.753 276.029 207.023 276.661 207.769C278.039 207.883 259.56 229.937 258.814 230.569Z" fill="#4CE6B7"/>
<path fill-rule="evenodd" clip-rule="evenodd" d="M265.913 219.693C266.968 218.601 268.709 218.572 269.801 219.628L267.89 221.605L265.978 223.582C264.886 222.526 264.857 220.785 265.913 219.693ZM267.89 221.605C265.978 223.582 265.978 223.582 265.978 223.582L266.586 224.17C266.973 224.544 267.527 225.08 268.194 225.726C269.528 227.018 271.313 228.747 273.117 230.5C274.922 232.253 276.744 234.027 278.153 235.408C278.858 236.1 279.455 236.688 279.894 237.126C280.232 237.462 280.422 237.656 280.504 237.739C280.543 237.779 280.557 237.794 280.552 237.787C281.533 238.946 283.269 239.09 284.428 238.109C285.587 237.127 285.731 235.392 284.749 234.233C284.483 233.919 283.334 232.786 282.003 231.481C280.585 230.091 278.756 228.31 276.949 226.555C275.142 224.8 273.355 223.068 272.02 221.775C271.353 221.129 270.798 220.592 270.41 220.217L269.801 219.628C269.801 219.628 269.801 219.628 267.89 221.605Z" fill="#231F20"/>
<path fill-rule="evenodd" clip-rule="evenodd" d="M217.104 211.264C218.462 210.583 220.114 211.131 220.796 212.489C223.634 218.146 232.281 230.007 248.544 229.369C256.219 229.068 262.546 223.903 267.401 216.925C272.227 209.988 275.211 201.779 276.293 196.61C276.604 195.123 278.061 194.17 279.548 194.481C281.034 194.793 281.987 196.25 281.676 197.736C280.462 203.534 277.215 212.447 271.916 220.065C266.646 227.642 258.955 234.465 248.759 234.865C229.28 235.629 219.097 221.368 215.88 214.955C215.198 213.598 215.747 211.945 217.104 211.264Z" fill="black"/>
</g>
</svg>
