<svg width="430" height="430" viewBox="0 0 430 430" fill="none" xmlns="http://www.w3.org/2000/svg">
<path d="M430 215C430 333.741 333.741 430 215 430C96.2588 430 0 333.741 0 215C0 96.2588 96.2588 0 215 0C333.741 0 430 96.2588 430 215Z" fill="#9971FF"/>
<mask id="mask0" mask-type="alpha" maskUnits="userSpaceOnUse" x="0" y="0" width="430" height="430">
<path d="M430 215C430 333.741 333.741 430 215 430C96.2588 430 0 333.741 0 215C0 96.2588 96.2588 0 215 0C333.741 0 430 96.2588 430 215Z" fill="#9971FF"/>
</mask>
<g mask="url(#mask0)">
<path d="M210.426 104.934L237.542 107.698L196.467 510.614L169.351 507.85L210.426 104.934Z" fill="#FF7A00"/>
<path d="M116.343 107.845C117.744 94.1088 130.014 84.1088 143.75 85.5091L194.129 90.645C207.865 92.0453 217.865 104.316 216.465 118.052L177.912 496.222C176.512 509.958 164.242 519.958 150.506 518.558L100.127 513.422C86.3907 512.022 76.3907 499.751 77.791 486.015L116.343 107.845Z" fill="#FF9900"/>
<path d="M227.937 119.222C229.337 105.486 241.608 95.4858 255.344 96.8861L305.723 102.022C319.459 103.422 329.459 115.693 328.059 129.429L289.506 507.599C288.106 521.335 275.836 531.335 262.1 529.935L211.72 524.799C197.984 523.398 187.984 511.128 189.385 497.392L227.937 119.222Z" fill="#FF9900"/>
<path d="M121.699 153.492C123.099 139.756 135.37 129.756 149.105 131.157L182.276 134.538C196.012 135.938 206.012 148.209 204.612 161.945L171.884 482.981C170.484 496.717 158.213 506.717 144.477 505.316L111.307 501.935C97.5707 500.535 87.5707 488.264 88.971 474.528L121.699 153.492Z" fill="#FFBC58"/>
<path fill-rule="evenodd" clip-rule="evenodd" d="M201.177 195.67L171.887 482.98C170.487 496.716 158.217 506.716 144.481 505.316L111.31 501.934C100.9 500.873 92.6359 493.569 89.8535 484.115C95.2714 481.415 103.917 479.532 117.824 480.95C123.776 481.557 128.899 482.371 133.312 483.073C151.71 486 157.781 486.966 160.252 462.725L183.732 232.402C184.09 223.719 180.583 205.923 163.688 204.201C148.98 202.701 178.332 198.402 201.177 195.67Z" fill="#FFAC30"/>
<path d="M230.687 164.603C232.087 150.867 244.358 140.867 258.094 142.267L291.265 145.649C305.001 147.049 315.001 159.319 313.6 173.055L280.872 494.091C279.472 507.827 267.202 517.827 253.466 516.427L220.295 513.045C206.559 511.645 196.559 499.375 197.959 485.639L230.687 164.603Z" fill="#FFBC58"/>
<path d="M121.699 153.492C123.099 139.756 135.37 129.756 149.105 131.157L182.276 134.538C196.012 135.938 206.012 148.209 204.612 161.945L201.796 189.572C200.395 203.308 188.125 213.308 174.389 211.908L141.218 208.526C127.482 207.126 117.482 194.855 118.882 181.119L121.699 153.492Z" fill="#FFCC80"/>
<path fill-rule="evenodd" clip-rule="evenodd" d="M310.154 206.778L280.864 494.089C279.464 507.825 267.193 517.825 253.457 516.424L220.286 513.043C209.877 511.982 201.612 504.677 198.83 495.223C204.248 492.524 212.894 490.641 226.8 492.058C232.753 492.665 237.875 493.48 242.288 494.182C260.687 497.108 266.757 498.074 269.229 473.833L292.709 243.51C293.067 234.828 289.56 217.031 272.664 215.309C257.956 213.81 287.308 209.511 310.154 206.778Z" fill="#FFAC30"/>
<path d="M226.742 203.288C228.142 189.552 240.413 179.552 254.148 180.952L287.319 184.334C301.055 185.734 311.055 198.005 309.655 211.741L306.838 239.368C305.438 253.104 293.168 263.104 279.432 261.704L246.261 258.322C232.525 256.922 222.525 244.651 223.925 230.915L226.742 203.288Z" fill="#FFCC80"/>
<path d="M123.285 137.94C125.62 115.044 146.072 98.3756 168.968 100.71C191.864 103.044 208.533 123.497 206.199 146.392L201.441 193.062C200.941 197.968 196.558 201.54 191.652 201.04L126.506 194.398C121.599 193.898 118.028 189.515 118.528 184.609L123.285 137.94Z" fill="#6A091F"/>
<path d="M232.274 149.05C234.608 126.154 255.061 109.486 277.957 111.82C300.852 114.154 317.521 134.607 315.187 157.503L306.957 238.233C306.263 245.036 300.187 249.988 293.384 249.294L235.105 243.353C228.303 242.66 223.35 236.583 224.044 229.78L232.274 149.05Z" fill="#6A091F"/>
<path fill-rule="evenodd" clip-rule="evenodd" d="M163.649 109.391C163.895 110.75 162.992 112.05 161.634 112.296C151.804 114.075 145.296 119.661 141.099 126.016C136.863 132.429 135.036 139.559 134.658 144.069L134.655 144.104L134.651 144.139C134.183 148.297 133.481 154.668 132.895 160.267C132.297 165.972 131.849 170.626 131.845 171.545C131.839 172.926 130.714 174.04 129.334 174.034C127.953 174.028 126.839 172.903 126.845 171.523C126.851 170.278 127.345 165.256 127.922 159.746C128.508 154.146 129.209 147.781 129.678 143.615C130.123 138.386 132.18 130.447 136.927 123.261C141.722 116 149.317 109.444 160.744 107.376C162.102 107.13 163.403 108.032 163.649 109.391Z" fill="white"/>
<path fill-rule="evenodd" clip-rule="evenodd" d="M272.076 121.949C272.322 123.307 271.42 124.608 270.062 124.854C260.232 126.633 253.724 132.219 249.526 138.574C245.291 144.986 243.464 152.116 243.085 156.626L243.082 156.662L243.078 156.697C242.611 160.854 241.909 167.225 241.322 172.825C240.725 178.53 240.277 183.184 240.273 184.103C240.266 185.484 239.142 186.598 237.761 186.592C236.381 186.585 235.267 185.461 235.273 184.08C235.278 182.836 235.773 177.814 236.35 172.304C236.936 166.703 237.637 160.339 238.106 156.172C238.551 150.943 240.608 143.005 245.354 135.818C250.15 128.558 257.744 122.001 269.171 119.934C270.53 119.688 271.831 120.59 272.076 121.949Z" fill="white"/>
<path fill-rule="evenodd" clip-rule="evenodd" d="M130.82 313.312C125.73 261.327 151.103 230.47 165.277 221.284L169.785 230.596C158.572 237.863 135.596 264.697 140.212 311.839C141.694 326.977 144.093 338.436 146.253 348.728L146.313 349.017C148.436 359.134 150.391 368.449 150.742 378.765C151.461 399.879 145.47 424.234 123.861 470.056L115.561 465.168C136.973 419.764 141.916 397.578 141.299 379.469C140.986 370.271 139.239 361.884 137.058 351.489L137.057 351.483C134.889 341.153 132.371 329.149 130.82 313.312Z" fill="#FFC671"/>
<path fill-rule="evenodd" clip-rule="evenodd" d="M241.607 350.217C238.657 306.351 257.19 279.669 267.869 271.399L273.041 280.24C265.277 286.252 248.339 309.104 251.03 349.111C251.891 361.912 253.459 371.584 254.871 380.274L254.91 380.517C256.299 389.065 257.579 396.943 257.694 405.688C257.928 423.563 253.305 444.284 237.172 483.432L228.635 479.08C244.599 440.345 248.446 421.481 248.245 406.136C248.143 398.353 247.003 391.278 245.577 382.502L245.576 382.498C244.158 373.77 242.509 363.623 241.607 350.217Z" fill="#FFC671"/>
<path fill-rule="evenodd" clip-rule="evenodd" d="M242.305 308.019C243.646 308.348 244.466 309.701 244.138 311.043C238.505 334.024 224.89 349.003 209.38 353.327C193.693 357.7 176.932 350.943 165.831 332.262C165.126 331.075 165.516 329.541 166.703 328.836C167.89 328.13 169.424 328.521 170.13 329.708C180.299 346.821 194.919 352.168 208.037 348.511C221.332 344.804 233.947 331.617 239.282 309.852C239.61 308.511 240.964 307.691 242.305 308.019Z" fill="black"/>
<path d="M185.635 278.849L186.362 303.37C180.204 300.716 168.284 288.203 170.724 278.229C173.165 268.256 182.613 269.204 185.635 278.849Z" fill="white"/>
<path d="M185.635 278.849L186.362 303.37C192.341 299.989 203.479 286.096 200.456 276.449C197.433 266.803 188.075 268.877 185.635 278.849Z" fill="white"/>
<path fill-rule="evenodd" clip-rule="evenodd" d="M186.362 303.37C186.185 303.294 186.003 303.209 185.817 303.117C179.53 299.997 168.354 287.916 170.724 278.229C173.014 268.873 181.47 269.129 185.003 277.158C185.236 277.688 185.448 278.251 185.635 278.849C185.784 278.242 185.957 277.665 186.154 277.118C189.19 268.668 197.617 267.389 200.456 276.449C203.392 285.818 192.971 299.193 186.891 303.052C186.711 303.167 186.534 303.273 186.362 303.37ZM186.853 301.784C189.565 299.884 193.134 296.12 195.87 291.694C198.985 286.655 200.795 281.127 199.43 276.771C198.723 274.514 197.678 273.05 196.563 272.213C195.461 271.386 194.237 271.125 193.023 271.35C190.563 271.805 187.84 274.362 186.68 279.104L186.235 280.924L186.853 301.784ZM185.159 280.926L184.609 279.17C183.177 274.6 180.338 272.413 177.893 272.256C175.553 272.105 172.916 273.801 171.769 278.485C170.665 282.997 172.797 288.278 176.187 292.909C179.185 297.005 182.976 300.331 185.78 301.883L185.159 280.926Z" fill="white"/>
<path d="M230.762 278.779L231.489 303.301C225.331 300.646 213.411 288.133 215.851 278.16C218.292 268.186 227.74 269.135 230.762 278.779Z" fill="white"/>
<path d="M230.762 278.779L231.489 303.301C237.468 299.92 248.606 286.026 245.583 276.38C242.56 266.733 233.202 268.808 230.762 278.779Z" fill="white"/>
<path fill-rule="evenodd" clip-rule="evenodd" d="M231.489 303.301C231.312 303.224 231.13 303.14 230.944 303.047C224.657 299.928 213.481 287.846 215.851 278.16C218.141 268.804 226.597 269.059 230.13 277.088C230.363 277.618 230.575 278.182 230.762 278.779C230.91 278.173 231.084 277.596 231.281 277.049C234.317 268.599 242.744 267.32 245.583 276.38C248.519 285.749 238.098 299.124 232.018 302.983C231.838 303.097 231.661 303.204 231.489 303.301ZM231.98 301.715C234.692 299.815 238.261 296.05 240.997 291.624C244.111 286.586 245.922 281.057 244.557 276.701C243.85 274.445 242.805 272.981 241.69 272.143C240.588 271.317 239.364 271.056 238.15 271.281C235.69 271.736 232.967 274.293 231.807 279.035L231.362 280.854L231.98 301.715ZM230.286 280.856L229.736 279.101C228.304 274.531 225.464 272.344 223.02 272.186C220.68 272.036 218.043 273.731 216.896 278.416C215.792 282.928 217.924 288.208 221.314 292.84C224.312 296.936 228.103 300.262 230.907 301.814L230.286 280.856Z" fill="white"/>
<path d="M187.738 282.168L187.834 302.131C183.084 300.086 174.031 290.122 176.126 281.95C178.22 273.778 185.568 274.369 187.738 282.168Z" fill="#449AFF"/>
<path d="M187.738 282.168L187.834 302.131C192.56 299.261 201.51 287.729 199.339 279.929C197.168 272.128 189.832 273.998 187.738 282.168Z" fill="#449AFF"/>
<path d="M232.865 282.099L232.961 302.061C228.211 300.017 219.158 290.053 221.253 281.881C223.347 273.709 230.695 274.3 232.865 282.099Z" fill="#449AFF"/>
<path d="M232.865 282.099L232.961 302.061C237.687 299.192 246.637 287.66 244.466 279.859C242.295 272.059 234.959 273.929 232.865 282.099Z" fill="#449AFF"/>
<path fill-rule="evenodd" clip-rule="evenodd" d="M166.952 306.922C165.751 308.854 163.875 310.098 161.764 310.104C159.796 310.109 158.026 309.034 156.813 307.327C155.61 309.041 153.845 310.124 151.876 310.129C148.236 310.138 145.275 306.457 145.263 301.906C145.252 297.355 148.194 293.658 151.834 293.649C153.803 293.644 155.573 294.718 156.785 296.425C157.989 294.712 159.754 293.628 161.722 293.623C163.89 293.618 165.817 294.921 167.023 296.936C168.225 295.004 170.101 293.76 172.212 293.754C175.852 293.745 178.813 297.427 178.825 301.978C178.836 306.529 175.894 310.226 172.254 310.235C170.086 310.241 168.159 308.938 166.952 306.922Z" fill="#FD476D"/>
<path fill-rule="evenodd" clip-rule="evenodd" d="M150.562 299.783C151.044 299.299 151.826 299.297 152.31 299.779L155.615 303.066C156.099 303.548 156.101 304.33 155.619 304.814C155.138 305.298 154.355 305.3 153.871 304.819L150.567 301.531C150.083 301.05 150.081 300.267 150.562 299.783Z" fill="black"/>
<path fill-rule="evenodd" clip-rule="evenodd" d="M160.177 299.733C160.659 299.249 161.442 299.247 161.925 299.729L165.23 303.016C165.714 303.498 165.716 304.281 165.234 304.765C164.753 305.248 163.97 305.25 163.486 304.769L160.182 301.481C159.698 301 159.696 300.217 160.177 299.733Z" fill="black"/>
<path fill-rule="evenodd" clip-rule="evenodd" d="M169.291 299.89C169.772 299.406 170.555 299.404 171.039 299.886L174.343 303.174C174.827 303.655 174.829 304.438 174.348 304.922C173.866 305.406 173.084 305.408 172.6 304.926L169.295 301.638C168.811 301.157 168.809 300.374 169.291 299.89Z" fill="black"/>
<path fill-rule="evenodd" clip-rule="evenodd" d="M249.944 311.337C248.741 313.051 246.976 314.135 245.007 314.14C241.366 314.149 238.406 310.467 238.394 305.916C238.382 301.365 241.325 297.668 244.965 297.659C246.934 297.654 248.704 298.728 249.917 300.436C251.12 298.722 252.885 297.639 254.854 297.634C258.495 297.625 261.455 301.306 261.467 305.857C261.479 310.408 258.536 314.105 254.896 314.115C252.927 314.12 251.157 313.045 249.944 311.337Z" fill="#FD476D"/>
<path fill-rule="evenodd" clip-rule="evenodd" d="M243.713 303.786C244.194 303.302 244.977 303.3 245.461 303.781L248.765 307.069C249.249 307.551 249.251 308.333 248.77 308.817C248.288 309.301 247.505 309.303 247.022 308.822L243.717 305.534C243.233 305.052 243.231 304.27 243.713 303.786Z" fill="black"/>
<path fill-rule="evenodd" clip-rule="evenodd" d="M251.953 303.765C252.434 303.281 253.217 303.279 253.701 303.761L257.005 307.049C257.489 307.53 257.491 308.313 257.01 308.797C256.528 309.281 255.746 309.283 255.262 308.801L251.957 305.513C251.473 305.032 251.471 304.249 251.953 303.765Z" fill="black"/>
<path d="M196.864 283.766C196.581 284.92 195.65 285.683 194.785 285.471C193.92 285.259 193.447 284.151 193.73 282.998C194.013 281.844 194.944 281.08 195.809 281.292C196.675 281.504 197.147 282.612 196.864 283.766Z" fill="white"/>
<path d="M242.497 282.769C242.214 283.923 241.283 284.686 240.418 284.474C239.552 284.262 239.08 283.154 239.363 282C239.646 280.847 240.577 280.083 241.442 280.295C242.307 280.507 242.78 281.615 242.497 282.769Z" fill="white"/>
</g>
<path fill-rule="evenodd" clip-rule="evenodd" d="M341.159 277.509C341.983 277.596 342.579 278.335 342.492 279.159L333.492 363.659C333.404 364.483 332.665 365.079 331.841 364.992C331.017 364.904 330.421 364.165 330.509 363.341L339.509 278.841C339.596 278.017 340.335 277.421 341.159 277.509Z" fill="black"/>
<path fill-rule="evenodd" clip-rule="evenodd" d="M77.4243 116.22C76.6208 116.422 76.1333 117.237 76.3353 118.041L89.2044 169.221C89.4064 170.024 90.2215 170.512 91.0249 170.31C91.8283 170.108 92.3158 169.293 92.1138 168.489L79.2448 117.309C79.0427 116.506 78.2277 116.018 77.4243 116.22Z" fill="black"/>
<path fill-rule="evenodd" clip-rule="evenodd" d="M354.382 324.55C355.183 324.762 355.66 325.583 355.448 326.384L346.448 360.384C346.236 361.185 345.415 361.662 344.615 361.45C343.814 361.238 343.336 360.417 343.548 359.617L352.548 325.617C352.76 324.816 353.581 324.338 354.382 324.55Z" fill="black"/>
<path fill-rule="evenodd" clip-rule="evenodd" d="M66.2826 146.249C65.5548 146.644 65.2854 147.555 65.681 148.283L76.1535 167.553C76.5491 168.281 77.4598 168.55 78.1877 168.154C78.9156 167.759 79.185 166.848 78.7894 166.12L68.3168 146.85C67.9213 146.123 67.0105 145.853 66.2826 146.249Z" fill="black"/>
</svg>
