<svg width="430" height="430" viewBox="0 0 430 430" fill="none" xmlns="http://www.w3.org/2000/svg">
<path d="M430 215C430 333.741 333.741 430 215 430C96.2588 430 0 333.741 0 215C0 96.2588 96.2588 0 215 0C333.741 0 430 96.2588 430 215Z" fill="#9971FF"/>
<path d="M349 291.014C349 333.54 290.125 368.014 217.5 368.014C144.875 368.014 86 333.54 86 291.014C86 248.488 144.875 214.014 217.5 214.014C290.125 214.014 349 248.488 349 291.014Z" fill="#37F4BC"/>
<path d="M362 266.514C362 306.554 297.305 339.014 217.5 339.014C137.695 339.014 73 306.554 73 266.514C73 226.473 137.695 194.014 217.5 194.014C297.305 194.014 362 226.473 362 266.514Z" fill="#00DF9C"/>
<path d="M344.18 253.208C344.18 290.222 287.463 320.228 217.5 320.228C147.537 320.228 90.8203 290.222 90.8203 253.208C90.8203 216.193 147.537 186.188 217.5 186.188C287.463 186.188 344.18 216.193 344.18 253.208Z" fill="#491700"/>
<path d="M90.8203 186.188H344.18V253.595H90.8203V186.188Z" fill="#491700"/>
<path d="M122.999 297.514C67.3988 268.314 73.1655 223.347 82.9988 204.514L101.5 217.514C131.833 256.347 178.599 326.714 122.999 297.514Z" fill="#471D0A"/>
<path d="M324.155 289.139C374.483 251.575 361.732 208.071 349.065 191.014L332.833 206.756C308.97 249.869 273.826 326.702 324.155 289.139Z" fill="#491700"/>
<path d="M122.999 297.514C67.3988 268.314 73.1655 223.347 82.9988 204.514L101.5 217.514C131.833 256.347 178.599 326.714 122.999 297.514Z" fill="#491700"/>
<path d="M146.002 227.514C130.683 241.744 121.297 292.498 171 315.514C157.564 304.354 134.068 271.553 146.002 227.514Z" fill="#361100"/>
<path d="M105.5 217.514C98.6665 239.68 102.3 290.414 171.5 316.014C148 305.68 101.9 271.514 105.5 217.514Z" fill="#361100"/>
<path d="M205.912 232.014C190.593 246.244 181.208 296.998 230.91 320.014C217.474 308.854 193.978 276.053 205.912 232.014Z" fill="#361100"/>
<path d="M260.79 222.942C247.25 238.875 241.936 289.501 294 306.514C279.345 297.011 254.116 268.08 260.79 222.942Z" fill="#361100"/>
<path d="M295.839 197.387C288.53 216.976 295.254 263.735 350 262.013C332.986 258.066 304.925 242.101 295.839 197.387Z" fill="#361100"/>
<path d="M165.411 222.014C158.577 244.18 161.8 294.414 231 320.014C207.5 309.68 161.81 276.014 165.411 222.014Z" fill="#361100"/>
<path d="M219.395 217.773C215.215 240.589 222.27 289.227 294 306.513C269.448 299.015 222.169 271.821 219.395 217.773Z" fill="#361100"/>
<path d="M255.154 206.616C258.988 229.493 276.669 270.171 350 262.014C324.362 263.319 276.156 256.495 255.154 206.616Z" fill="#361100"/>
<path d="M230 320.014C202.4 334.814 178.167 322.514 169.5 314.514L200 312.514L230 320.014Z" fill="#491700"/>
<path d="M265.5 320.514C249.1 324.914 235.333 321.68 230.5 319.514L244.5 309.514L293 306.514C290.667 309.347 281.9 316.114 265.5 320.514Z" fill="#491700"/>
<path d="M350 262.014C340.8 299.614 308.5 306.68 293.5 305.514V301.514L325.5 275.014L350 262.014Z" fill="#491700"/>
<path d="M362 182.014C362 219.017 297.305 249.014 217.5 249.014C137.695 249.014 73 219.017 73 182.014C73 145.011 137.695 115.014 217.5 115.014C297.305 115.014 362 145.011 362 182.014Z" fill="#00DF9C"/>
<path d="M349 162.014C349 199.017 290.125 229.014 217.5 229.014C144.875 229.014 86 199.017 86 162.014C86 125.011 144.875 95.0137 217.5 95.0137C290.125 95.0137 349 125.011 349 162.014Z" fill="#37F4BC"/>
<path fill-rule="evenodd" clip-rule="evenodd" d="M203.367 209.552C203.699 211.175 202.653 212.761 201.03 213.093C171.503 219.142 145.374 206.888 131.66 195.627C130.38 194.575 130.194 192.685 131.246 191.404C132.297 190.124 134.188 189.938 135.468 190.99C148.211 201.454 172.55 212.803 199.826 207.215C201.449 206.883 203.034 207.929 203.367 209.552Z" fill="white"/>
<path d="M232.604 100.948C238.044 117.585 214.202 140.311 179.352 151.708C144.501 163.104 111.838 158.855 106.398 142.218C100.957 125.58 124.799 102.854 159.65 91.4579C194.501 80.0616 227.163 84.3104 232.604 100.948Z" fill="#00DF9C"/>
<path d="M106.657 152.188C123.847 162.61 136.602 149.367 140.832 141.442C143.282 140.251 147.034 134.57 142.44 121.379C136.696 104.89 114.217 100.729 99.7457 105.25C88.1689 108.866 88.9813 116.351 90.8346 119.642C80.6534 122.076 85.1711 139.161 106.657 152.188Z" fill="#00BC62"/>
<mask id="mask0" mask-type="alpha" maskUnits="userSpaceOnUse" x="85" y="103" width="60" height="54">
<path d="M106.657 152.188C123.847 162.61 136.602 149.367 140.832 141.442C143.282 140.251 147.034 134.57 142.44 121.379C136.696 104.89 114.217 100.729 99.7457 105.25C88.1689 108.866 88.9813 116.351 90.8346 119.642C80.6534 122.076 85.1711 139.161 106.657 152.188Z" fill="#00BC62"/>
</mask>
<g mask="url(#mask0)">
<path fill-rule="evenodd" clip-rule="evenodd" d="M141.401 142.24L90.3469 122.05L91.8179 118.331L142.872 138.521L141.401 142.24Z" fill="#01AA59"/>
<path fill-rule="evenodd" clip-rule="evenodd" d="M104.51 124.186L101.533 104.831L105.486 104.223L108.854 126.11L90.5402 138.215L88.3346 134.878L104.51 124.186ZM116.713 103.503L120.628 133.027L100.368 148.405L97.9497 145.219L116.357 131.247L112.748 104.029L116.713 103.503ZM130.082 106.892L134.783 137.449L113.324 155.879L110.718 152.845L130.492 135.861L126.128 107.501L130.082 106.892Z" fill="#01AA59"/>
</g>
<path d="M195.074 72.3739C185.416 69.5609 174.389 71.5558 170.92 70.8877C180.718 84.7623 201.712 112.693 207.306 113.421C214.298 114.331 221.16 100.882 218.98 95.3112C216.8 89.7405 214.75 78.1054 195.074 72.3739Z" fill="#FCF5B3"/>
<path d="M195.108 86.2071C174.238 69.8793 156.996 61.3402 150.983 59.1117C155.278 80.5107 164.976 125.798 169.408 135.754C174.949 148.199 197.596 145.252 207.881 134.269C218.166 123.286 221.197 106.617 195.108 86.2071Z" fill="#FFFBD3"/>
<path d="M143.834 139.286L149.945 68.5417C145.585 73.4264 131.321 89.9447 123.651 99.9118C114.104 112.318 115.062 122.869 118.722 132.128C124.34 146.343 140.448 142.054 143.834 139.286Z" fill="#FCF5B3"/>
<path d="M191.46 128.79C189.387 139.808 180.667 143.355 177.305 144.035L159.054 64.5195C162.373 67.3805 169.088 75.325 172.228 79.6421C176.154 85.0385 195.263 108.584 191.46 128.79Z" fill="#FCF5B3"/>
<path d="M135.114 91.0655C142.022 77.4924 144.815 58.2364 145.348 50.305C160.861 60.7834 178.561 88.0003 185.631 112.931C192.701 137.862 175.314 152.157 154.77 152.879C138.453 153.453 129.033 143.266 125.764 131.48C122.495 119.694 126.479 108.032 135.114 91.0655Z" fill="#FFFBD3"/>
<path d="M124.482 187.476C122.691 189.199 119.843 189.144 118.119 187.353C116.396 185.562 116.451 182.714 118.242 180.99C120.033 179.267 122.881 179.322 124.605 181.113C126.328 182.904 126.273 185.752 124.482 187.476Z" fill="white"/>
<path d="M231.501 67.3428C197.545 78.6501 196.711 106.704 201.963 124.177C203.047 127.784 206.861 129.729 210.469 128.648C243.812 118.665 245.152 90.1456 240.324 71.9928C239.305 68.1599 235.264 66.0898 231.501 67.3428Z" fill="#B15B45"/>
<mask id="mask1" mask-type="alpha" maskUnits="userSpaceOnUse" x="199" y="66" width="44" height="63">
<path d="M231.501 67.3428C197.545 78.6501 196.711 106.704 201.963 124.177C203.047 127.784 206.861 129.729 210.469 128.648C243.812 118.665 245.152 90.1456 240.324 71.9928C239.305 68.1599 235.264 66.0897 231.501 67.3428Z" fill="#B15B45"/>
</mask>
<g mask="url(#mask1)">
<path fill-rule="evenodd" clip-rule="evenodd" d="M208.898 95.9606C204.06 109.779 202.384 123.761 202.325 132.37L199.325 132.349C199.386 123.45 201.107 109.135 206.066 94.9693C211.02 80.8199 219.275 66.6237 232.54 58.238L234.143 60.7738C221.685 68.6495 213.741 82.1258 208.898 95.9606ZM206.542 129.678C206.469 130.239 206.405 130.779 206.35 131.296L203.367 130.976C204.245 122.788 207.186 109.277 213.15 95.1758C219.112 81.079 228.143 66.2804 241.272 55.6481L243.16 57.9794C230.546 68.195 221.762 82.5138 215.913 96.3444C210.621 108.855 207.77 120.874 206.647 128.9C216.608 118.605 237.135 91.9849 243.074 64.1644L246.008 64.7907C239.81 93.8266 218.312 121.318 208.348 131.453L206.542 129.678Z" fill="#974632"/>
</g>
<path fill-rule="evenodd" clip-rule="evenodd" d="M295.416 147.668C296.797 147.668 297.916 148.787 297.916 150.168C297.916 172.21 288.918 188.819 275.799 196.196C262.52 203.663 245.805 201.24 231.601 186.783C230.634 185.798 230.648 184.215 231.633 183.248C232.618 182.28 234.2 182.294 235.168 183.279C248.094 196.436 262.394 197.998 273.348 191.838C284.463 185.588 292.916 170.958 292.916 150.168C292.916 148.787 294.035 147.668 295.416 147.668Z" fill="black"/>
<path d="M237.788 134.045L243.872 156.027C237.724 154.993 224.19 146.332 224.187 136.786C224.184 127.24 232.925 126.005 237.788 134.045Z" fill="white"/>
<path d="M237.788 134.045L243.872 156.027C248.522 151.651 255.505 136.64 250.64 128.599C245.776 120.557 237.784 124.501 237.788 134.045Z" fill="white"/>
<path fill-rule="evenodd" clip-rule="evenodd" d="M243.872 156.027C243.695 155.997 243.512 155.961 243.323 155.919C236.956 154.494 224.19 146.058 224.187 136.786C224.184 127.831 231.876 126.19 236.843 132.658C237.171 133.085 237.487 133.548 237.788 134.045C237.788 133.465 237.817 132.905 237.874 132.368C238.745 124.066 246.072 121.046 250.64 128.599C255.365 136.409 248.915 150.793 244.279 155.623C244.141 155.767 244.006 155.901 243.872 156.027ZM243.964 154.487C245.992 152.17 248.382 147.981 249.873 143.379C251.57 138.14 251.981 132.747 249.785 129.116C248.647 127.235 247.38 126.144 246.187 125.635C245.009 125.132 243.846 125.168 242.799 125.639C240.679 126.595 238.786 129.506 238.788 134.045L238.789 135.787L243.964 154.487ZM237.817 136.026L236.932 134.563C234.628 130.753 231.58 129.407 229.338 129.806C227.192 130.187 225.185 132.302 225.187 136.786C225.188 141.105 228.282 145.401 232.368 148.833C235.982 151.868 240.141 154.032 243.017 154.813L237.817 136.026Z" fill="white"/>
<path d="M278.522 123.995L284.606 145.976C278.458 144.942 264.924 136.282 264.921 126.735C264.918 117.189 273.659 115.955 278.522 123.995Z" fill="white"/>
<path d="M278.522 123.995L284.606 145.976C289.257 141.6 296.239 126.589 291.375 118.548C286.51 110.506 278.519 114.451 278.522 123.995Z" fill="white"/>
<path fill-rule="evenodd" clip-rule="evenodd" d="M284.606 145.976C284.429 145.947 284.246 145.911 284.057 145.868C277.69 144.443 264.924 136.007 264.921 126.735C264.918 117.78 272.61 116.139 277.577 122.608C277.905 123.034 278.221 123.497 278.522 123.995C278.522 123.414 278.552 122.855 278.608 122.317C279.479 114.015 286.806 110.995 291.375 118.548C296.099 126.358 289.649 140.742 285.013 145.573C284.876 145.716 284.74 145.85 284.606 145.976ZM284.699 144.436C286.727 142.12 289.116 137.931 290.607 133.328C292.305 128.09 292.716 122.697 290.519 119.065C289.381 117.184 288.114 116.093 286.921 115.584C285.744 115.081 284.58 115.117 283.534 115.588C281.413 116.544 279.521 119.456 279.522 123.994L279.523 125.736L284.699 144.436ZM278.552 125.976L277.667 124.512C275.362 120.702 272.314 119.356 270.072 119.755C267.926 120.137 265.92 122.252 265.921 126.735C265.923 131.054 269.017 135.35 273.103 138.782C276.716 141.817 280.876 143.982 283.751 144.762L278.552 125.976Z" fill="white"/>
<path d="M240.421 136.577L244.925 154.582C240.184 153.787 229.803 146.793 229.886 138.95C229.969 131.108 236.735 130.015 240.421 136.577Z" fill="#FF845E"/>
<path d="M240.421 136.577L244.925 154.582C248.558 150.945 254.087 138.55 250.4 131.987C246.713 125.424 240.503 128.736 240.421 136.577Z" fill="#FF845E"/>
<path d="M281.155 126.526L285.66 144.531C280.918 143.737 270.538 136.742 270.621 128.9C270.704 121.057 277.469 119.965 281.155 126.526Z" fill="#FF845E"/>
<path d="M281.155 126.526L285.66 144.531C289.292 140.894 294.822 128.5 291.135 121.937C287.448 115.373 281.238 118.685 281.155 126.526Z" fill="#FF845E"/>
<path fill-rule="evenodd" clip-rule="evenodd" d="M214.224 169.761C216.001 169.321 217.354 167.952 218.062 166.138C219.535 167.412 221.371 167.99 223.147 167.55C225.052 167.078 226.471 165.538 227.128 163.528C228.664 165.081 230.692 165.831 232.648 165.346C235.934 164.532 237.772 160.543 236.754 156.436C235.737 152.329 232.248 149.659 228.963 150.474C227.058 150.946 225.639 152.485 224.982 154.496C223.446 152.943 221.418 152.192 219.462 152.677C217.685 153.117 216.332 154.486 215.624 156.3C214.152 155.026 212.316 154.448 210.539 154.888C207.253 155.702 205.415 159.692 206.433 163.799C207.45 167.906 210.939 170.575 214.224 169.761Z" fill="#FD476D"/>
<path fill-rule="evenodd" clip-rule="evenodd" d="M210.749 160.708C211.077 160.164 211.783 159.989 212.327 160.317L216.039 162.554C216.582 162.882 216.757 163.588 216.429 164.132C216.102 164.675 215.396 164.85 214.852 164.523L211.14 162.285C210.597 161.957 210.422 161.251 210.749 160.708Z" fill="black"/>
<path fill-rule="evenodd" clip-rule="evenodd" d="M219.421 158.535C219.749 157.991 220.455 157.816 220.999 158.144L224.71 160.381C225.254 160.709 225.429 161.415 225.101 161.959C224.774 162.502 224.067 162.677 223.524 162.35L219.812 160.112C219.269 159.785 219.094 159.078 219.421 158.535Z" fill="black"/>
<path fill-rule="evenodd" clip-rule="evenodd" d="M227.685 156.661C228.013 156.117 228.719 155.942 229.262 156.27L232.974 158.507C233.518 158.835 233.693 159.541 233.365 160.085C233.037 160.628 232.331 160.803 231.788 160.476L228.076 158.238C227.532 157.911 227.357 157.204 227.685 156.661Z" fill="black"/>
<path fill-rule="evenodd" clip-rule="evenodd" d="M303.06 149.14C302.353 150.954 300.999 152.322 299.222 152.763C295.937 153.577 292.448 150.908 291.431 146.801C290.413 142.694 292.251 138.704 295.537 137.89C297.314 137.45 299.15 138.028 300.622 139.302C301.33 137.488 302.683 136.119 304.46 135.679C307.746 134.865 311.234 137.534 312.252 141.641C313.27 145.748 311.431 149.738 308.146 150.552C306.369 150.992 304.533 150.414 303.06 149.14Z" fill="#FD476D"/>
<path fill-rule="evenodd" clip-rule="evenodd" d="M295.748 143.71C296.075 143.166 296.781 142.991 297.325 143.319L301.037 145.556C301.58 145.884 301.755 146.59 301.427 147.134C301.1 147.677 300.394 147.852 299.85 147.525L296.138 145.287C295.595 144.959 295.42 144.253 295.748 143.71Z" fill="black"/>
<path fill-rule="evenodd" clip-rule="evenodd" d="M303.183 141.867C303.511 141.323 304.217 141.148 304.761 141.476L308.472 143.713C309.016 144.041 309.191 144.747 308.863 145.291C308.535 145.834 307.829 146.009 307.286 145.682L303.574 143.444C303.03 143.117 302.855 142.41 303.183 141.867Z" fill="black"/>
<path d="M249.014 136C249.014 137.105 248.342 138 247.514 138C246.685 138 246.014 137.105 246.014 136C246.014 134.895 246.685 134 247.514 134C248.342 134 249.014 134.895 249.014 136Z" fill="white"/>
<path d="M290 125C290 126.105 289.328 127 288.5 127C287.672 127 287 126.105 287 125C287 123.895 287.672 123 288.5 123C289.328 123 290 123.895 290 125Z" fill="white"/>
<path fill-rule="evenodd" clip-rule="evenodd" d="M49.7011 149.451C45.4014 152.975 42.3703 157.706 41.4605 161.573C41.2707 162.379 40.4632 162.879 39.6568 162.689C38.8504 162.5 38.3505 161.692 38.5402 160.886C39.6304 156.252 43.0992 150.983 47.7996 147.131C52.5151 143.267 58.6893 140.656 65.2471 141.75C66.0642 141.886 66.6162 142.659 66.4799 143.476C66.3436 144.293 65.5707 144.845 64.7536 144.709C59.3114 143.801 53.9855 145.94 49.7011 149.451ZM69.4394 152.306C69.6731 153.101 69.2183 153.935 68.4235 154.168C52.312 158.906 45.5003 173.591 45.5003 190.229C45.5003 191.057 44.8288 191.729 44.0003 191.729C43.1719 191.729 42.5003 191.057 42.5003 190.229C42.5003 172.866 49.6887 156.551 67.5771 151.29C68.3719 151.056 69.2057 151.511 69.4394 152.306Z" fill="black"/>
</svg>
