<svg width="430" height="430" viewBox="0 0 430 430" fill="none" xmlns="http://www.w3.org/2000/svg">
<path d="M430 215C430 333.741 333.741 430 215 430C96.2588 430 0 333.741 0 215C0 96.2588 96.2588 0 215 0C333.741 0 430 96.2588 430 215Z" fill="#449AFF"/>
<mask id="mask0" mask-type="alpha" maskUnits="userSpaceOnUse" x="0" y="0" width="430" height="430">
<path d="M430 215C430 333.741 333.741 430 215 430C96.2588 430 0 333.741 0 215C0 96.2588 96.2588 0 215 0C333.741 0 430 96.2588 430 215Z" fill="#449AFF"/>
</mask>
<g mask="url(#mask0)">
<path d="M339.839 99.0369L297.498 90.0371L199.016 553.357L247.688 563.703L344.824 106.714C345.568 103.217 343.335 99.7801 339.839 99.0369Z" fill="#FF7759"/>
<path d="M200.154 69.3465L157.814 60.3467C154.317 59.6035 150.88 61.8356 150.137 65.3323L53.0007 522.321L101.673 532.666L200.154 69.3465Z" fill="#FF7759"/>
<path d="M297.498 90.0368L200.154 69.3457L101.673 532.666L199.017 553.357L297.498 90.0368Z" fill="#FFF04A"/>
<path d="M211.899 378.463C211.686 380.268 210.05 381.559 208.245 381.346C206.44 381.134 205.149 379.498 205.361 377.693C205.574 375.887 207.21 374.596 209.015 374.809C210.82 375.021 212.111 376.657 211.899 378.463Z" fill="#FFDB1E"/>
<path d="M211.897 175.957C211.684 177.762 210.048 179.053 208.243 178.841C206.438 178.628 205.147 176.992 205.359 175.187C205.572 173.381 207.208 172.09 209.013 172.303C210.818 172.516 212.109 174.151 211.897 175.957Z" fill="#FFDB1E"/>
<path d="M200.719 246.953C200.506 248.758 198.871 250.049 197.065 249.837C195.26 249.624 193.969 247.988 194.181 246.183C194.394 244.378 196.03 243.086 197.835 243.299C199.641 243.512 200.932 245.147 200.719 246.953Z" fill="#FFDB1E"/>
<path d="M189.543 317.948C189.331 319.753 187.695 321.044 185.889 320.832C184.084 320.619 182.793 318.983 183.006 317.178C183.218 315.373 184.854 314.082 186.659 314.294C188.465 314.507 189.756 316.143 189.543 317.948Z" fill="#FFDB1E"/>
<path d="M178.366 388.944C178.153 390.749 176.517 392.04 174.712 391.828C172.906 391.615 171.615 389.979 171.828 388.174C172.041 386.369 173.676 385.078 175.482 385.29C177.287 385.503 178.578 387.139 178.366 388.944Z" fill="#FFDB1E"/>
<path d="M259.272 169.395C259.059 171.2 257.423 172.492 255.618 172.279C253.813 172.066 252.522 170.431 252.734 168.625C252.947 166.82 254.583 165.529 256.388 165.741C258.193 165.954 259.484 167.59 259.272 169.395Z" fill="#FFDB1E"/>
<path d="M214.768 93.4128C214.555 95.2181 212.919 96.5092 211.114 96.2966C209.309 96.084 208.018 94.4481 208.23 92.6428C208.443 90.8375 210.079 89.5464 211.884 89.759C213.689 89.9716 214.98 91.6074 214.768 93.4128Z" fill="#FFDB1E"/>
<path d="M254.92 125.426C254.708 127.232 253.072 128.523 251.266 128.31C249.461 128.098 248.17 126.462 248.383 124.656C248.595 122.851 250.231 121.56 252.036 121.773C253.842 121.985 255.133 123.621 254.92 125.426Z" fill="#FFDB1E"/>
<path d="M320.897 132.601C320.684 134.407 319.048 135.698 317.243 135.485C315.438 135.272 314.147 133.637 314.359 131.831C314.572 130.026 316.208 128.735 318.013 128.947C319.818 129.16 321.109 130.796 320.897 132.601Z" fill="#FF391E"/>
<path d="M300.817 194.857C300.604 196.662 298.968 197.954 297.163 197.741C295.358 197.528 294.066 195.892 294.279 194.087C294.492 192.282 296.128 190.991 297.933 191.203C299.738 191.416 301.029 193.052 300.817 194.857Z" fill="#FF391E"/>
<path d="M153.061 121.384C152.848 123.19 151.212 124.481 149.407 124.268C147.602 124.056 146.311 122.42 146.523 120.615C146.736 118.809 148.372 117.518 150.177 117.731C151.982 117.943 153.273 119.579 153.061 121.384Z" fill="#FF391E"/>
<path d="M160.778 181.721C160.565 183.527 158.929 184.818 157.124 184.605C155.319 184.393 154.027 182.757 154.24 180.951C154.453 179.146 156.088 177.855 157.894 178.068C159.699 178.28 160.99 179.916 160.778 181.721Z" fill="#FF391E"/>
<path d="M116.623 357.233C116.411 359.038 114.775 360.33 112.97 360.117C111.164 359.904 109.873 358.268 110.086 356.463C110.298 354.658 111.934 353.367 113.74 353.579C115.545 353.792 116.836 355.428 116.623 357.233Z" fill="#FF391E"/>
<path d="M286.664 325.875C286.452 327.68 284.816 328.971 283.011 328.759C281.205 328.546 279.914 326.91 280.127 325.105C280.339 323.299 281.975 322.008 283.781 322.221C285.586 322.434 286.877 324.069 286.664 325.875Z" fill="#FF391E"/>
<path d="M251.932 217.728C251.719 219.533 250.083 220.825 248.278 220.612C246.473 220.399 245.182 218.764 245.394 216.958C245.607 215.153 247.243 213.862 249.048 214.074C250.853 214.287 252.145 215.923 251.932 217.728Z" fill="#FFDB1E"/>
<path d="M227.182 324.97C226.969 326.776 225.333 328.067 223.528 327.854C221.723 327.642 220.432 326.006 220.644 324.2C220.857 322.395 222.493 321.104 224.298 321.317C226.103 321.529 227.395 323.165 227.182 324.97Z" fill="#FFDB1E"/>
<g filter="url(#filter0_f)">
<path d="M322.594 110.045L327.274 111.04L232.771 555.64L228.091 554.645L322.594 110.045Z" fill="#F71E00"/>
</g>
<g filter="url(#filter1_f)">
<path d="M175.643 78.8096L180.323 79.8043L85.8199 524.404L81.1399 523.41L175.643 78.8096Z" fill="#F71E00"/>
</g>
<path fill-rule="evenodd" clip-rule="evenodd" d="M196.283 552.598L294.691 89.6201L297.857 90.293L199.448 553.271L196.283 552.598Z" fill="#FF4F2F"/>
<path fill-rule="evenodd" clip-rule="evenodd" d="M167.528 73.7494C163.07 72.8019 158.71 75.7211 157.888 80.2035L156.046 90.2429C155.884 91.1219 155.041 91.7038 154.162 91.5425C153.283 91.3812 152.701 90.5379 152.863 89.6589L154.704 79.6195C155.856 73.3441 161.96 69.2573 168.201 70.5838L179.335 72.9504C180.209 73.1362 180.767 73.9955 180.581 74.8697C180.396 75.7438 179.536 76.3019 178.662 76.116L167.528 73.7494Z" fill="white"/>
<path d="M236.983 226.847C244.354 227.726 251.437 219.143 252.804 207.676C254.17 196.21 249.302 186.202 241.931 185.324C234.56 184.445 227.476 193.029 226.11 204.495C224.743 215.962 229.611 225.969 236.983 226.847Z" fill="white"/>
<path d="M246.947 187.216C242.144 189.651 236.812 196.536 235.751 205.434C234.691 214.332 238.256 222.277 242.352 225.773C247.154 223.337 252.487 216.453 253.547 207.555C254.608 198.657 251.042 190.712 246.947 187.216Z" fill="#231F20"/>
<path d="M193.965 221.723C201.336 222.602 208.42 214.019 209.786 202.552C211.152 191.086 206.285 181.078 198.913 180.2C191.542 179.321 184.459 187.905 183.092 199.371C181.726 210.838 186.594 220.845 193.965 221.723Z" fill="white"/>
<path d="M204.009 182.1C199.207 184.536 193.874 191.421 192.814 200.319C191.754 209.217 195.319 217.162 199.414 220.658C204.217 218.222 209.549 211.337 210.61 202.439C211.67 193.542 208.105 185.597 204.009 182.1Z" fill="#231F20"/>
<path fill-rule="evenodd" clip-rule="evenodd" d="M172.065 178.499C172.26 176.861 173.746 175.691 175.384 175.887L202.078 179.068C203.716 179.263 204.885 180.749 204.69 182.387C204.495 184.025 203.009 185.195 201.371 185L174.677 181.819C173.039 181.623 171.869 180.137 172.065 178.499Z" fill="#231F20"/>
<path fill-rule="evenodd" clip-rule="evenodd" d="M215.049 183.62C215.244 181.982 216.73 180.813 218.368 181.008L245.062 184.189C246.7 184.384 247.87 185.87 247.675 187.508C247.479 189.146 245.993 190.316 244.355 190.121L217.661 186.94C216.023 186.744 214.854 185.258 215.049 183.62Z" fill="#231F20"/>
<path fill-rule="evenodd" clip-rule="evenodd" d="M160.354 238.777C160.549 237.138 162.035 235.969 163.673 236.164L242.271 245.53C243.909 245.726 245.079 247.212 244.884 248.85C244.688 250.488 243.202 251.657 241.564 251.462L162.966 242.096C161.328 241.901 160.158 240.415 160.354 238.777Z" fill="black"/>
<path fill-rule="evenodd" clip-rule="evenodd" d="M254.797 240.65C254.797 240.65 254.797 240.65 254.797 240.65L254.797 240.65C254.797 240.65 254.797 240.65 254.797 240.65ZM254.801 240.648C254.801 240.649 254.8 240.649 254.8 240.649L254.802 240.648C254.802 240.648 254.802 240.648 254.801 240.648C254.801 240.648 254.801 240.648 254.801 240.648C254.801 240.648 254.801 240.648 254.801 240.648C254.801 240.648 254.801 240.648 254.801 240.648Z" fill="black"/>
<path fill-rule="evenodd" clip-rule="evenodd" d="M352.748 227.064C353.53 227.337 353.943 228.192 353.67 228.974L324.164 313.512C323.891 314.295 323.036 314.707 322.254 314.434C321.472 314.161 321.059 313.306 321.332 312.524L350.837 227.986C351.11 227.204 351.966 226.791 352.748 227.064Z" fill="#231F20"/>
<path fill-rule="evenodd" clip-rule="evenodd" d="M354.76 278.707C355.474 279.127 355.712 280.047 355.292 280.761L330.629 322.666C330.209 323.38 329.289 323.618 328.575 323.198C327.861 322.777 327.623 321.858 328.043 321.144L352.706 279.239C353.127 278.525 354.046 278.287 354.76 278.707Z" fill="#231F20"/>
</g>
<defs>
<filter id="filter0_f" x="203.359" y="85.3117" width="148.649" height="495.061" filterUnits="userSpaceOnUse" color-interpolation-filters="sRGB">
<feFlood flood-opacity="0" result="BackgroundImageFix"/>
<feBlend mode="normal" in="SourceGraphic" in2="BackgroundImageFix" result="shape"/>
<feGaussianBlur stdDeviation="12.3666" result="effect1_foregroundBlur"/>
</filter>
<filter id="filter1_f" x="56.4074" y="54.0763" width="148.649" height="495.061" filterUnits="userSpaceOnUse" color-interpolation-filters="sRGB">
<feFlood flood-opacity="0" result="BackgroundImageFix"/>
<feBlend mode="normal" in="SourceGraphic" in2="BackgroundImageFix" result="shape"/>
<feGaussianBlur stdDeviation="12.3666" result="effect1_foregroundBlur"/>
</filter>
</defs>
</svg>
