<svg width="430" height="430" viewBox="0 0 430 430" fill="none" xmlns="http://www.w3.org/2000/svg">
<path d="M430 215C430 333.741 333.741 430 215 430C96.2588 430 0 333.741 0 215C0 96.2588 96.2588 0 215 0C333.741 0 430 96.2588 430 215Z" fill="#9971FF"/>
<path fill-rule="evenodd" clip-rule="evenodd" d="M215 425C330.98 425 425 330.98 425 215C425 99.0202 330.98 5 215 5C99.0202 5 5 99.0202 5 215C5 330.98 99.0202 425 215 425ZM215 430C333.741 430 430 333.741 430 215C430 96.2588 333.741 0 215 0C96.2588 0 0 96.2588 0 215C0 333.741 96.2588 430 215 430Z" fill="#9971FF"/>
<path d="M362.563 177.481C376.554 247.293 331.302 315.229 261.49 329.221C191.678 343.212 123.741 297.961 109.75 228.149C95.7584 158.336 141.01 90.3998 210.822 76.4083C280.635 62.4168 348.571 107.668 362.563 177.481Z" fill="#2F1E1E"/>
<path d="M336.661 182.672C347.785 238.178 311.807 292.192 256.301 303.316C200.796 314.44 146.782 278.462 135.658 222.957C124.534 167.451 160.512 113.437 216.017 102.313C271.523 91.1888 325.536 127.167 336.661 182.672Z" fill="#352A2A"/>
<path d="M214.277 93.6459C204.758 95.5538 195.494 89.3831 193.586 79.8633C191.678 70.3434 197.848 61.0793 207.368 59.1714C216.888 57.2635 226.152 63.4342 228.06 72.954C229.968 82.4739 223.797 91.7379 214.277 93.6459Z" fill="#352A2A"/>
<path d="M264.943 346.458C255.424 348.366 246.16 342.196 244.252 332.676C242.344 323.156 248.514 313.892 258.034 311.984C267.554 310.076 276.818 316.247 278.726 325.767C280.634 335.286 274.463 344.55 264.943 346.458Z" fill="#352A2A"/>
<path d="M186.77 103.029C178.069 107.335 167.523 103.773 163.216 95.071C158.91 86.3693 162.472 75.8238 171.174 71.517C179.876 67.2101 190.421 70.7728 194.728 79.4745C199.035 88.1762 195.472 98.7217 186.77 103.029Z" fill="#352A2A"/>
<path d="M301.149 334.112C292.448 338.418 281.902 334.856 277.595 326.154C273.288 317.452 276.851 306.907 285.553 302.6C294.254 298.293 304.8 301.856 309.107 310.558C313.414 319.259 309.851 329.805 301.149 334.112Z" fill="#352A2A"/>
<path d="M162.624 119.212C155.333 125.624 144.225 124.912 137.813 117.622C131.401 110.331 132.112 99.2228 139.403 92.8106C146.693 86.3983 157.802 87.1103 164.214 94.4008C170.626 101.691 169.914 112.799 162.624 119.212Z" fill="#352A2A"/>
<path d="M332.909 312.82C325.618 319.232 314.51 318.52 308.098 311.23C301.686 303.939 302.398 292.831 309.688 286.419C316.979 280.007 328.087 280.719 334.499 288.009C340.911 295.3 340.199 306.408 332.909 312.82Z" fill="#352A2A"/>
<path d="M143.495 141.091C138.113 149.171 127.199 151.359 119.118 145.976C111.038 140.594 108.85 129.68 114.233 121.599C119.615 113.518 130.529 111.331 138.61 116.714C146.691 122.096 148.878 133.01 143.495 141.091Z" fill="#352A2A"/>
<path d="M358.087 284.029C352.705 292.11 341.791 294.297 333.71 288.915C325.629 283.532 323.442 272.618 328.825 264.538C334.207 256.457 345.121 254.27 353.202 259.652C361.282 265.034 363.47 275.948 358.087 284.029Z" fill="#352A2A"/>
<path d="M130.676 167.177C127.568 176.376 117.592 181.313 108.394 178.206C99.1953 175.098 94.2578 165.122 97.3654 155.924C100.473 146.725 110.449 141.788 119.647 144.895C128.846 148.003 133.783 157.979 130.676 167.177Z" fill="#352A2A"/>
<path d="M374.953 249.704C371.845 258.902 361.869 263.84 352.671 260.732C343.473 257.625 338.535 247.649 341.643 238.45C344.75 229.252 354.726 224.314 363.925 227.422C373.123 230.529 378.061 240.505 374.953 249.704Z" fill="#352A2A"/>
<path d="M125.05 195.691C124.429 205.381 116.07 212.732 106.381 212.111C96.6918 211.49 89.3405 203.132 89.9615 193.442C90.5825 183.753 98.9407 176.402 108.63 177.023C118.319 177.644 125.671 186.002 125.05 195.691Z" fill="#352A2A"/>
<path d="M382.356 212.185C381.735 221.875 373.377 229.226 363.688 228.605C353.998 227.984 346.647 219.626 347.268 209.937C347.889 200.247 356.247 192.896 365.937 193.517C375.626 194.138 382.977 202.496 382.356 212.185Z" fill="#352A2A"/>
<path d="M379.806 174.025C381.714 183.545 375.543 192.809 366.023 194.717C356.504 196.625 347.24 190.454 345.332 180.934C343.424 171.415 349.594 162.151 359.114 160.243C368.634 158.335 377.898 164.505 379.806 174.025Z" fill="#352A2A"/>
<path d="M136.364 252.205C140.671 260.907 137.109 271.452 128.407 275.759C119.705 280.066 109.16 276.503 104.853 267.802C100.546 259.1 104.109 248.555 112.81 244.248C121.512 239.941 132.058 243.504 136.364 252.205Z" fill="#352A2A"/>
<path d="M367.46 137.828C371.767 146.53 368.204 157.075 359.503 161.382C350.801 165.689 340.255 162.126 335.949 153.425C331.642 144.723 335.204 134.178 343.906 129.871C352.608 125.564 363.153 129.127 367.46 137.828Z" fill="#352A2A"/>
<path d="M152.558 276.347C158.971 283.637 158.259 294.746 150.968 301.158C143.678 307.57 132.57 306.858 126.157 299.568C119.745 292.277 120.457 281.169 127.747 274.757C135.038 268.345 146.146 269.056 152.558 276.347Z" fill="#352A2A"/>
<path d="M346.168 106.06C352.58 113.35 351.868 124.459 344.578 130.871C337.287 137.283 326.179 136.571 319.767 129.281C313.354 121.99 314.066 110.882 321.357 104.47C328.647 98.0574 339.756 98.7694 346.168 106.06Z" fill="#352A2A"/>
<path d="M174.443 295.48C182.524 300.863 184.711 311.777 179.329 319.857C173.946 327.938 163.032 330.125 154.952 324.743C146.871 319.36 144.684 308.446 150.066 300.366C155.449 292.285 166.363 290.098 174.443 295.48Z" fill="#352A2A"/>
<path d="M317.373 80.8845C325.454 86.2669 327.641 97.1809 322.258 105.262C316.876 113.342 305.962 115.53 297.881 110.147C289.801 104.765 287.613 93.8507 292.996 85.77C298.378 77.6894 309.292 75.502 317.373 80.8845Z" fill="#352A2A"/>
<path d="M200.528 308.299C209.726 311.406 214.664 321.382 211.556 330.581C208.449 339.779 198.473 344.717 189.274 341.609C180.076 338.502 175.138 328.526 178.246 319.327C181.354 310.129 191.33 305.191 200.528 308.299Z" fill="#352A2A"/>
<path d="M283.053 64.0186C292.252 67.1262 297.189 77.1022 294.082 86.3006C290.974 95.499 280.998 100.437 271.8 97.329C262.601 94.2214 257.664 84.2454 260.771 75.047C263.879 65.8486 273.855 60.911 283.053 64.0186Z" fill="#352A2A"/>
<path d="M229.049 313.928C238.738 314.549 246.089 322.907 245.468 332.596C244.847 342.286 236.489 349.637 226.8 349.016C217.111 348.395 209.759 340.037 210.38 330.348C211.001 320.658 219.359 313.307 229.049 313.928Z" fill="#352A2A"/>
<path d="M245.527 56.6126C255.216 57.2336 262.568 65.5917 261.947 75.281C261.326 84.9703 252.968 92.3216 243.278 91.7006C233.589 91.0796 226.238 82.7215 226.859 73.0322C227.48 63.3429 235.838 55.9916 245.527 56.6126Z" fill="#352A2A"/>
<path d="M126.992 224.693C128.9 234.213 122.729 243.477 113.209 245.385C103.689 247.293 94.4251 241.122 92.5171 231.602C90.6092 222.083 96.7799 212.819 106.3 210.911C115.82 209.003 125.084 215.173 126.992 224.693Z" fill="#352A2A"/>
<path fill-rule="evenodd" clip-rule="evenodd" d="M171.174 71.5165C179.002 67.642 188.323 70.1365 193.251 77.0121C192.95 68.558 198.804 60.8877 207.369 59.1712C215.934 57.4545 224.292 62.2778 227.272 70.1963C229.168 61.95 236.809 56.0538 245.527 56.6126C254.248 57.1715 261.075 63.998 261.9 72.4216C265.863 64.9423 274.773 61.2213 283.053 64.0185C291.328 66.8141 296.154 75.1684 294.777 83.5146C300.543 77.3259 310.105 76.0422 317.374 80.884C324.646 85.7283 327.145 95.0532 323.648 102.761C330.82 98.2659 340.396 99.4984 346.168 106.06C351.937 112.62 351.939 122.27 346.571 128.81C354.66 126.331 363.584 130 367.459 137.829C371.334 145.658 368.838 154.981 361.96 159.908C370.416 159.605 378.088 165.46 379.805 174.026C381.522 182.593 376.696 190.953 368.775 193.931C377.02 195.828 382.914 203.468 382.355 212.185C381.797 220.902 374.977 227.726 366.559 228.556C374.032 232.523 377.748 241.428 374.952 249.704C372.156 257.981 363.799 262.808 355.451 261.428C361.645 267.193 362.931 276.758 358.088 284.029C353.243 291.303 343.917 293.801 336.209 290.303C340.702 297.475 339.469 307.05 332.908 312.82C326.353 318.586 316.71 318.592 310.171 313.234C312.644 321.32 308.974 330.238 301.149 334.112C293.315 337.989 283.986 335.488 279.061 328.601C279.37 337.062 273.514 344.741 264.944 346.459C256.387 348.174 248.036 343.361 245.049 335.455C243.145 343.69 235.51 349.575 226.799 349.016C218.078 348.458 211.252 341.631 210.427 333.208C206.463 340.686 197.554 344.407 189.274 341.61C180.998 338.813 176.171 330.457 177.55 322.109C171.785 328.3 162.221 329.585 154.951 324.743C147.679 319.899 145.18 310.575 148.675 302.868C141.503 307.363 131.928 306.13 126.157 299.568C120.386 293.008 120.385 283.356 125.755 276.816C117.663 279.304 108.73 275.635 104.853 267.801C100.978 259.971 103.475 250.648 110.354 245.721C101.902 246.02 94.2333 240.166 92.5171 231.603C90.8002 223.036 95.6251 214.677 103.546 211.698C95.2991 209.803 89.4027 202.162 89.9615 193.443C90.5202 184.726 97.3407 177.902 105.759 177.072C98.2862 173.105 94.5697 164.2 97.3656 155.924C100.162 147.646 108.521 142.819 116.87 144.2C110.676 138.435 109.39 128.87 114.233 121.599C119.075 114.331 128.391 111.831 136.095 115.318C131.609 108.147 132.844 98.5785 139.402 92.8103C145.964 87.0392 155.618 87.0388 162.157 92.4113C159.674 84.321 163.343 75.3925 171.174 71.5165ZM113.72 211.017C120.234 212.529 125.592 217.71 126.992 224.694C128.391 231.678 125.443 238.524 120.014 242.429C126.694 242.207 133.207 245.824 136.365 252.205C139.524 258.589 138.449 265.965 134.216 271.142C140.615 269.189 147.851 270.996 152.558 276.347C157.262 281.696 158.132 289.1 155.382 295.197C161.058 291.657 168.513 291.53 174.443 295.48C180.37 299.428 183.126 306.353 182.05 312.952C186.617 308.069 193.781 306.02 200.528 308.299C207.278 310.58 211.733 316.558 212.399 323.214C215.544 317.31 221.938 313.473 229.048 313.928C236.147 314.383 241.99 318.991 244.364 325.233C245.882 318.729 251.06 313.382 258.035 311.984C265.023 310.584 271.873 313.536 275.777 318.971C275.547 312.284 279.165 305.761 285.552 302.6C291.93 299.444 299.298 300.514 304.475 304.737C302.534 298.344 304.343 291.12 309.687 286.419C315.037 281.714 322.443 280.845 328.54 283.596C325.002 277.921 324.876 270.467 328.825 264.538C332.773 258.61 339.697 255.854 346.297 256.93C341.412 252.364 339.362 245.198 341.642 238.45C343.921 231.705 349.893 227.251 356.544 226.58C350.645 223.434 346.812 217.043 347.267 209.936C347.723 202.828 352.343 196.977 358.598 194.611C352.086 193.098 346.73 187.917 345.331 180.935C343.931 173.952 346.878 167.106 352.306 163.201C345.623 163.426 339.107 159.808 335.948 153.425C332.789 147.042 333.864 139.668 338.095 134.491C331.699 136.437 324.47 134.628 319.767 129.281C315.061 123.932 314.192 116.527 316.943 110.43C311.267 113.97 303.812 114.096 297.882 110.147C291.956 106.199 289.2 99.2773 290.274 92.6794C285.707 97.5604 278.544 99.6076 271.799 97.3289C265.049 95.0485 260.594 89.07 259.928 82.4142C256.783 88.3186 250.389 92.1563 243.279 91.7006C236.172 91.2451 230.322 86.627 227.955 80.3743C226.443 86.888 221.261 92.246 214.278 93.6456C207.296 95.0448 200.452 92.0991 196.546 86.6738C196.77 93.3553 193.152 99.8695 186.771 103.028C180.386 106.188 173.008 105.111 167.831 100.877C169.78 107.274 167.972 114.507 162.623 119.211C157.278 123.913 149.881 124.784 143.787 122.042C147.32 127.716 147.443 135.165 143.496 141.091C139.547 147.019 132.621 149.775 126.021 148.698C130.906 153.264 132.956 160.43 130.676 167.178C128.397 173.923 122.424 178.378 115.773 179.048C121.672 182.194 125.505 188.585 125.05 195.692C124.594 202.8 119.974 208.65 113.72 211.017Z" fill="#352A2A"/>
<path fill-rule="evenodd" clip-rule="evenodd" d="M193.897 78.9051C193.062 79.1898 192.139 78.8941 191.625 78.1772C187.259 72.0852 178.997 69.8761 172.061 73.309C165.123 76.7431 161.869 84.6561 164.069 91.8244C164.328 92.6679 164.004 93.5814 163.271 94.0727C162.538 94.5639 161.57 94.5168 160.888 93.9567C155.093 89.1964 146.537 89.1988 140.723 94.312C134.913 99.4227 133.816 107.903 137.791 114.257C138.258 115.005 138.181 115.97 137.601 116.634C137.021 117.298 136.074 117.503 135.271 117.14C128.444 114.05 120.187 116.268 115.898 122.708C111.607 129.15 112.745 137.628 118.232 142.736C118.878 143.338 119.054 144.291 118.665 145.083C118.275 145.874 117.414 146.318 116.543 146.174C109.146 144.95 101.738 149.23 99.2604 156.564C96.7832 163.897 100.075 171.791 106.697 175.305C107.476 175.718 107.892 176.593 107.721 177.459C107.55 178.324 106.833 178.975 105.955 179.062C98.4963 179.797 92.4524 185.848 91.9574 193.571C91.4623 201.296 96.6869 208.069 103.994 209.749C104.853 209.947 105.482 210.684 105.541 211.565C105.6 212.445 105.075 213.26 104.249 213.57C97.2316 216.209 92.9569 223.62 94.4781 231.21C95.9987 238.797 102.794 243.987 110.284 243.722C111.165 243.691 111.963 244.241 112.247 245.076C112.532 245.91 112.236 246.833 111.519 247.347C105.423 251.712 103.212 259.976 106.646 266.914C110.081 273.855 117.998 277.108 125.168 274.904C126.011 274.645 126.925 274.969 127.416 275.702C127.908 276.435 127.861 277.403 127.301 278.085C122.543 283.88 122.546 292.435 127.658 298.247C132.772 304.061 141.259 305.156 147.613 301.173C148.361 300.705 149.327 300.782 149.992 301.363C150.656 301.943 150.861 302.891 150.497 303.694C147.4 310.523 149.617 318.787 156.06 323.078C162.501 327.369 170.978 326.232 176.087 320.746C176.688 320.1 177.641 319.925 178.432 320.314C179.224 320.703 179.667 321.565 179.524 322.435C178.301 329.831 182.581 337.237 189.915 339.715C197.25 342.193 205.147 338.897 208.659 332.271C209.073 331.491 209.948 331.075 210.814 331.245C211.68 331.416 212.331 332.134 212.417 333.013C213.148 340.476 219.2 346.525 226.927 347.021C234.645 347.515 241.413 342.301 243.101 335.005C243.299 334.146 244.036 333.519 244.915 333.46C245.794 333.401 246.609 333.924 246.92 334.749C249.566 341.753 256.969 346.017 264.551 344.498C272.144 342.976 277.336 336.17 277.063 328.674C277.03 327.792 277.58 326.993 278.416 326.708C279.251 326.423 280.175 326.72 280.688 327.438C285.052 333.54 293.321 335.755 300.262 332.319C307.195 328.887 310.449 320.983 308.258 313.819C308 312.976 308.325 312.063 309.057 311.573C309.789 311.082 310.757 311.128 311.438 311.687C317.233 316.434 325.779 316.427 331.587 311.319C337.401 306.206 338.496 297.72 334.515 291.365C334.046 290.617 334.123 289.651 334.704 288.987C335.285 288.323 336.232 288.118 337.036 288.482C343.865 291.582 352.131 289.365 356.423 282.921C360.714 276.478 359.577 268 354.089 262.892C353.443 262.291 353.267 261.338 353.656 260.546C354.045 259.754 354.907 259.311 355.778 259.455C363.174 260.677 370.58 256.397 373.057 249.064C375.535 241.731 372.243 233.837 365.621 230.323C364.842 229.91 364.426 229.035 364.597 228.169C364.767 227.304 365.485 226.653 366.363 226.566C373.821 225.83 379.864 219.78 380.359 212.057C380.854 204.334 375.631 197.561 368.327 195.88C367.467 195.682 366.838 194.944 366.78 194.064C366.721 193.184 367.246 192.369 368.071 192.059C375.09 189.42 379.365 182.009 377.844 174.419C376.323 166.829 369.524 161.639 362.032 161.907C361.15 161.938 360.352 161.389 360.067 160.554C359.782 159.719 360.078 158.796 360.795 158.282C366.89 153.916 369.1 145.653 365.667 138.716C362.234 131.779 354.324 128.525 347.157 130.722C346.314 130.981 345.401 130.656 344.91 129.923C344.419 129.191 344.466 128.223 345.025 127.541C349.782 121.747 349.778 113.193 344.666 107.381C339.552 101.567 331.065 100.473 324.71 104.455C323.963 104.924 322.996 104.847 322.332 104.266C321.668 103.685 321.462 102.738 321.827 101.934C324.925 95.1052 322.709 86.8406 316.265 82.5486C309.824 78.2587 301.349 79.3944 296.241 84.8779C295.64 85.5232 294.687 85.6985 293.895 85.3096C293.104 84.9206 292.66 84.0592 292.804 83.1891C294.024 75.794 289.744 68.3903 282.412 65.9133C275.077 63.4349 267.179 66.7311 263.667 73.3581C263.254 74.1378 262.378 74.5546 261.513 74.3837C260.647 74.2129 259.995 73.4948 259.909 72.6165C259.178 65.1529 253.126 59.1037 245.399 58.6085C237.675 58.1134 230.901 63.3378 229.221 70.6444C229.024 71.5041 228.286 72.1328 227.406 72.1918C226.526 72.2508 225.711 71.7262 225.4 70.9006C222.76 63.8845 215.351 59.6112 207.762 61.1322C200.173 62.653 194.983 69.4503 195.25 76.941C195.281 77.8224 194.731 78.6203 193.897 78.9051ZM111.724 211.151C111.666 210.272 112.188 209.458 113.012 209.146C118.559 207.047 122.65 201.86 123.054 195.564C123.457 189.269 120.064 183.603 114.831 180.812C114.055 180.398 113.64 179.524 113.811 178.66C113.981 177.797 114.696 177.146 115.572 177.058C121.472 176.463 126.762 172.513 128.781 166.538C130.801 160.56 128.988 154.209 124.655 150.159C124.012 149.557 123.838 148.606 124.226 147.816C124.615 147.025 125.474 146.582 126.343 146.724C132.197 147.68 138.334 145.233 141.832 139.982C145.328 134.733 145.222 128.132 142.089 123.099C141.624 122.352 141.701 121.388 142.281 120.725C142.86 120.063 143.805 119.857 144.607 120.218C150.013 122.651 156.568 121.874 161.302 117.71C166.04 113.542 167.646 107.134 165.918 101.459C165.661 100.617 165.986 99.7055 166.717 99.2151C167.449 98.7248 168.415 98.7708 169.097 99.3285C173.689 103.085 180.228 104.035 185.883 101.236C191.536 98.4377 194.746 92.6669 194.548 86.7407C194.518 85.8608 195.068 85.0651 195.901 84.7809C196.734 84.4967 197.655 84.7908 198.17 85.5053C201.634 90.3173 207.701 92.9241 213.885 91.6846C220.071 90.4449 224.665 85.6994 226.006 79.922C226.205 79.0643 226.942 78.4377 227.821 78.3788C228.699 78.3198 229.513 78.8425 229.825 79.666C231.925 85.2119 237.111 89.3012 243.406 89.7047C249.705 90.1084 255.373 86.7109 258.163 81.474C258.577 80.6965 259.451 80.2815 260.315 80.4521C261.179 80.6226 261.83 81.3385 261.918 82.2151C262.509 88.1185 266.46 93.4142 272.439 95.4341C278.414 97.4526 284.763 95.6423 288.813 91.313C289.415 90.6702 290.366 90.4962 291.156 90.8844C291.946 91.2727 292.389 92.1319 292.248 93.0008C291.295 98.8529 293.741 104.986 298.991 108.482C304.243 111.981 310.85 111.873 315.884 108.733C316.632 108.267 317.596 108.344 318.259 108.924C318.922 109.504 319.128 110.449 318.766 111.252C316.326 116.66 317.101 123.222 321.268 127.96C325.434 132.697 331.84 134.303 337.513 132.577C338.355 132.321 339.266 132.646 339.756 133.377C340.246 134.109 340.201 135.075 339.643 135.756C335.89 140.348 334.942 146.884 337.74 152.538C340.539 158.192 346.311 161.402 352.239 161.202C353.119 161.172 353.915 161.722 354.199 162.555C354.483 163.389 354.189 164.31 353.474 164.824C348.66 168.288 346.052 174.356 347.292 180.542C348.531 186.727 353.275 191.32 359.051 192.663C359.909 192.862 360.535 193.599 360.594 194.477C360.653 195.356 360.13 196.17 359.306 196.481C353.758 198.58 349.667 203.767 349.263 210.064C348.86 216.359 352.253 222.025 357.485 224.816C358.262 225.23 358.676 226.104 358.506 226.968C358.336 227.831 357.62 228.482 356.744 228.57C350.846 229.165 345.555 233.115 343.537 239.09C341.517 245.068 343.33 251.419 347.663 255.469C348.306 256.07 348.48 257.022 348.092 257.812C347.704 258.603 346.844 259.046 345.975 258.904C340.122 257.95 333.987 260.396 330.489 265.647C326.991 270.898 327.099 277.504 330.238 282.538C330.704 283.286 330.626 284.25 330.046 284.913C329.466 285.576 328.521 285.782 327.718 285.419C322.31 282.979 315.747 283.753 311.008 287.921C306.274 292.085 304.667 298.485 306.388 304.156C306.644 304.998 306.319 305.909 305.588 306.399C304.857 306.889 303.892 306.843 303.21 306.287C298.619 302.541 292.089 301.596 286.44 304.393C280.782 307.193 277.572 312.971 277.776 318.902C277.806 319.783 277.257 320.579 276.423 320.864C275.589 321.148 274.667 320.853 274.153 320.138C270.69 315.317 264.618 312.705 258.428 313.945C252.249 315.183 247.658 319.919 246.311 325.688C246.111 326.544 245.375 327.17 244.497 327.228C243.62 327.287 242.807 326.766 242.494 325.944C240.389 320.408 235.208 316.327 228.92 315.924C222.622 315.521 216.954 318.918 214.164 324.154C213.75 324.932 212.876 325.346 212.012 325.176C211.148 325.005 210.497 324.289 210.409 323.413C209.818 317.51 205.867 312.214 199.888 310.194C193.912 308.175 187.561 309.987 183.511 314.318C182.91 314.961 181.958 315.135 181.168 314.747C180.378 314.359 179.935 313.499 180.076 312.63C181.031 306.777 178.584 300.642 173.334 297.145C168.082 293.646 161.475 293.754 156.441 296.894C155.693 297.36 154.729 297.282 154.066 296.702C153.403 296.123 153.197 295.177 153.559 294.374C155.998 288.967 155.223 282.406 151.056 277.668C146.887 272.928 140.475 271.323 134.799 273.055C133.957 273.312 133.045 272.988 132.555 272.256C132.064 271.524 132.11 270.558 132.667 269.876C136.422 265.284 137.371 258.747 134.572 253.092C131.775 247.44 126.006 244.231 120.081 244.428C119.201 244.457 118.405 243.907 118.121 243.074C117.837 242.241 118.132 241.32 118.846 240.805C123.661 237.342 126.27 231.273 125.031 225.087C123.791 218.901 119.045 214.306 113.268 212.965C112.41 212.766 111.783 212.029 111.724 211.151ZM191.31 74.7419C192.013 75.434 192.663 76.1919 193.251 77.0121C193.215 76.0036 193.267 75.0063 193.4 74.0288C194.385 66.8127 199.826 60.6829 207.369 59.1712C214.912 57.6594 222.295 61.2198 225.984 67.4997C226.484 68.3506 226.917 69.2514 227.272 70.1963C227.498 69.2124 227.806 68.2619 228.188 67.3519C231.007 60.6349 237.849 56.1205 245.527 56.6126C253.207 57.1048 259.418 62.4574 261.355 69.4809C261.617 70.4331 261.801 71.4159 261.9 72.4216C262.373 71.5288 262.917 70.6895 263.521 69.9085C267.982 64.1468 275.761 61.5552 283.053 64.0185C290.341 66.4807 294.954 73.2546 295.01 80.5372C295.018 81.5235 294.942 82.5191 294.777 83.5146C295.465 82.7764 296.207 82.1079 296.992 81.5114C302.791 77.1068 310.972 76.6198 317.374 80.884C323.778 85.15 326.481 92.8907 324.646 99.9416C324.398 100.897 324.066 101.841 323.648 102.761C324.504 102.224 325.395 101.769 326.309 101.395C333.052 98.6361 341.085 100.282 346.168 106.06C351.249 111.837 351.857 120.012 348.262 126.347C347.776 127.205 347.212 128.03 346.571 128.81C347.536 128.514 348.513 128.306 349.492 128.182C356.717 127.265 364.047 130.934 367.459 137.829C370.872 144.724 369.343 152.777 364.232 157.966C363.539 158.67 362.781 159.32 361.96 159.908C362.969 159.872 363.967 159.923 364.945 160.057C372.162 161.041 378.293 166.482 379.805 174.026C381.317 181.571 377.755 188.955 371.472 192.644C370.621 193.144 369.72 193.575 368.775 193.931C369.759 194.157 370.71 194.465 371.62 194.848C378.335 197.667 382.847 204.508 382.355 212.185C381.863 219.862 376.515 226.071 369.496 228.01C368.545 228.273 367.563 228.457 366.559 228.556C367.45 229.03 368.288 229.573 369.068 230.177C374.826 234.638 377.415 242.415 374.952 249.704C372.49 256.993 365.714 261.606 358.431 261.661C357.444 261.669 356.448 261.593 355.451 261.428C356.191 262.116 356.86 262.858 357.457 263.644C361.865 269.443 362.353 277.626 358.088 284.029C353.821 290.434 346.08 293.137 339.028 291.302C338.072 291.053 337.129 290.721 336.209 290.303C336.746 291.16 337.201 292.05 337.574 292.964C340.332 299.707 338.686 307.739 332.908 312.82C327.134 317.899 318.966 318.509 312.632 314.921C311.774 314.435 310.95 313.873 310.171 313.234C310.466 314.198 310.673 315.173 310.797 316.151C311.71 323.374 308.042 330.7 301.149 334.112C294.25 337.526 286.193 335.994 281.004 330.877C280.3 330.183 279.649 329.423 279.061 328.601C279.098 329.611 279.047 330.611 278.914 331.59C277.933 338.811 272.491 344.946 264.944 346.459C257.406 347.969 250.029 344.415 246.337 338.144C245.837 337.296 245.405 336.397 245.049 335.455C244.822 336.437 244.514 337.384 244.132 338.292C241.31 345.001 234.472 349.508 226.799 349.016C219.119 348.524 212.909 343.172 210.972 336.148C210.709 335.196 210.525 334.213 210.427 333.208C209.953 334.1 209.41 334.939 208.805 335.72C204.345 341.482 196.565 344.073 189.274 341.61C181.985 339.147 177.372 332.371 177.317 325.088C177.31 324.101 177.386 323.105 177.55 322.109C176.862 322.848 176.12 323.517 175.335 324.114C169.536 328.52 161.354 329.008 154.951 324.743C148.547 320.477 145.845 312.737 147.678 305.687C147.926 304.731 148.258 303.788 148.675 302.868C147.819 303.405 146.929 303.859 146.015 304.233C139.272 306.992 131.239 305.347 126.157 299.568C121.075 293.791 120.468 285.616 124.062 279.281C124.55 278.422 125.114 277.597 125.755 276.816C124.79 277.113 123.812 277.322 122.832 277.447C115.603 278.369 108.268 274.7 104.853 267.801C101.44 260.905 102.97 252.851 108.083 247.661C108.776 246.959 109.534 246.308 110.354 245.721C109.346 245.756 108.348 245.704 107.371 245.571C100.156 244.584 94.0285 239.144 92.5171 231.603C91.0051 224.058 94.5667 216.675 100.848 212.986C101.699 212.486 102.6 212.054 103.546 211.698C102.561 211.472 101.611 211.164 100.701 210.782C93.9837 207.963 89.4694 201.121 89.9615 193.443C90.4536 185.766 95.8024 179.557 102.822 177.618C103.773 177.355 104.755 177.171 105.759 177.072C104.868 176.598 104.03 176.055 103.25 175.451C97.4922 170.99 94.9032 163.213 97.3656 155.924C99.8285 148.634 106.605 144.02 113.89 143.967C114.877 143.959 115.873 144.036 116.87 144.2C116.13 143.512 115.461 142.77 114.864 141.984C110.456 136.185 109.968 128.002 114.233 121.599C118.497 115.198 126.232 112.495 133.28 114.323C134.234 114.571 135.176 114.902 136.095 115.318C135.56 114.462 135.107 113.573 134.734 112.66C131.98 105.919 133.626 97.8906 139.402 92.8103C145.181 87.728 153.357 87.1211 159.693 90.7179C160.552 91.2054 161.377 91.77 162.157 92.4113C161.861 91.4456 161.652 90.4679 161.528 89.4884C160.609 82.2615 164.278 74.9298 171.174 71.5165C178.069 68.1042 186.12 69.632 191.31 74.7419ZM122.275 240.492C126.227 236.476 128.182 230.634 126.992 224.694C125.801 218.754 121.747 214.118 116.553 211.934C115.641 211.551 114.693 211.243 113.72 211.017C114.654 210.663 115.553 210.232 116.406 209.73C121.262 206.873 124.662 201.738 125.05 195.692C125.437 189.647 122.721 184.12 118.271 180.667C117.489 180.06 116.654 179.518 115.773 179.048C116.767 178.948 117.745 178.763 118.698 178.499C124.126 176.996 128.737 172.916 130.676 167.178C132.615 161.438 131.422 155.396 128.016 150.909C127.418 150.121 126.751 149.38 126.021 148.698C127.007 148.859 128.001 148.934 128.991 148.926C134.625 148.881 140.137 146.133 143.496 141.091C146.854 136.05 147.266 129.907 145.139 124.692C144.766 123.776 144.314 122.889 143.787 122.042C144.697 122.451 145.636 122.78 146.593 123.028C152.045 124.439 158.076 123.21 162.623 119.211C167.173 115.21 169.16 109.38 168.454 103.79C168.33 102.808 168.122 101.833 167.831 100.877C168.605 101.509 169.427 102.072 170.289 102.56C175.191 105.339 181.34 105.716 186.771 103.028C192.199 100.341 195.627 95.2266 196.393 89.6463C196.528 88.6663 196.58 87.6719 196.546 86.6738C197.13 87.4843 197.779 88.2394 198.484 88.933C202.5 92.8822 208.339 94.8358 214.278 93.6456C220.218 92.4551 224.854 88.4007 227.037 83.2071C227.421 82.2948 227.729 81.3474 227.955 80.3743C228.308 81.3086 228.74 82.2064 229.242 83.0592C232.099 87.9142 237.233 91.3131 243.279 91.7006C249.326 92.0882 254.855 89.3699 258.308 84.9158C258.915 84.1331 259.458 83.2967 259.928 82.4142C260.027 83.4091 260.212 84.3889 260.475 85.3435C261.977 90.7748 266.058 95.3894 271.799 97.3289C277.536 99.2672 283.576 98.0755 288.063 94.6721C288.851 94.0744 289.592 93.4085 290.274 92.6794C290.113 93.6649 290.038 94.6576 290.047 95.6466C290.094 101.279 292.841 106.789 297.882 110.147C302.925 113.506 309.073 113.917 314.29 111.786C315.207 111.412 316.095 110.959 316.943 110.43C316.532 111.341 316.201 112.282 315.953 113.24C314.538 118.694 315.765 124.731 319.767 129.281C323.767 133.829 329.595 135.817 335.183 135.112C336.165 134.988 337.139 134.781 338.095 134.491C337.463 135.264 336.901 136.087 336.413 136.948C333.637 141.849 333.261 147.996 335.948 153.425C338.635 158.854 343.751 162.283 349.332 163.048C350.313 163.182 351.307 163.235 352.306 163.201C351.495 163.784 350.739 164.434 350.045 165.139C346.095 169.155 344.14 174.995 345.331 180.935C346.521 186.874 350.574 191.509 355.766 193.693C356.678 194.076 357.625 194.385 358.598 194.611C357.664 194.964 356.766 195.396 355.913 195.897C351.056 198.753 347.655 203.89 347.267 209.936C346.88 215.982 349.596 221.508 354.046 224.962C354.828 225.568 355.663 226.11 356.544 226.58C355.55 226.681 354.572 226.865 353.618 227.129C348.191 228.633 343.58 232.713 341.642 238.45C339.703 244.19 340.896 250.232 344.302 254.719C344.9 255.508 345.567 256.248 346.297 256.93C345.311 256.769 344.317 256.694 343.328 256.702C337.695 256.749 332.183 259.496 328.825 264.538C325.466 269.58 325.055 275.727 327.185 280.943C327.559 281.86 328.011 282.748 328.54 283.596C327.629 283.185 326.689 282.855 325.73 282.606C320.275 281.19 314.238 282.417 309.687 286.419C305.141 290.418 303.153 296.243 303.855 301.829C303.979 302.81 304.185 303.783 304.475 304.737C303.702 304.107 302.88 303.546 302.02 303.06C297.12 300.289 290.978 299.915 285.552 302.6C280.12 305.289 276.691 310.408 275.928 315.993C275.794 316.975 275.743 317.971 275.777 318.971C275.193 318.158 274.544 317.401 273.838 316.706C269.822 312.75 263.978 310.793 258.035 311.984C252.1 313.173 247.467 317.221 245.282 322.408C244.898 323.318 244.59 324.262 244.364 325.233C244.009 324.301 243.578 323.406 243.076 322.556C240.218 317.708 235.087 314.316 229.048 313.928C223 313.541 217.472 316.259 214.019 320.712C213.412 321.495 212.869 322.331 212.399 323.214C212.3 322.219 212.115 321.239 211.852 320.285C210.35 314.853 206.269 310.239 200.528 308.299C194.79 306.361 188.748 307.553 184.261 310.958C183.473 311.556 182.732 312.222 182.05 312.952C182.211 311.966 182.286 310.973 182.278 309.983C182.232 304.35 179.484 298.838 174.443 295.48C169.399 292.121 163.252 291.71 158.035 293.841C157.118 294.215 156.231 294.668 155.382 295.197C155.793 294.285 156.123 293.345 156.372 292.387C157.786 286.933 156.559 280.897 152.558 276.347C148.555 271.796 142.721 269.809 137.129 270.518C136.147 270.642 135.172 270.85 134.216 271.142C134.848 270.368 135.411 269.545 135.899 268.683C138.676 263.781 139.052 257.634 136.365 252.205C133.679 246.778 128.566 243.35 122.987 242.583C122.007 242.448 121.013 242.396 120.014 242.429C120.825 241.846 121.581 241.197 122.275 240.492Z" fill="#2F1E1E"/>
<path d="M355.978 182.371C370.738 256.017 323.001 327.684 249.355 342.444C175.709 357.204 104.042 309.467 89.2818 235.821C74.5219 162.175 122.259 90.5074 195.905 75.7475C269.551 60.9876 341.218 108.724 355.978 182.371Z" fill="#FFFBD8"/>
<path d="M351.078 183.353C365.838 256.999 318.101 328.667 244.455 343.427C170.809 358.186 99.1413 310.45 84.3814 236.803C69.6215 163.157 117.358 91.4898 191.005 76.7299C264.651 61.97 336.318 109.707 351.078 183.353Z" fill="white"/>
<path d="M329.225 184.162C343.216 253.975 297.964 321.911 228.152 335.903C158.34 349.894 90.4035 304.642 76.412 234.83C62.4205 165.018 107.672 97.0815 177.484 83.09C247.297 69.0984 315.233 114.35 329.225 184.162Z" fill="#2F1E1E"/>
<path d="M303.323 189.354C314.447 244.859 278.469 298.873 222.963 309.998C167.458 321.122 113.444 285.144 102.32 229.638C91.1957 174.133 127.174 120.119 182.679 108.995C238.185 97.8704 292.199 133.849 303.323 189.354Z" fill="#352A2A"/>
<path fill-rule="evenodd" clip-rule="evenodd" d="M222.177 306.076C275.517 295.385 310.091 243.479 299.401 190.14C288.711 136.801 236.805 102.227 183.465 112.917C130.126 123.607 95.5518 175.513 106.242 228.852C116.932 282.192 168.838 316.766 222.177 306.076ZM222.963 309.998C278.469 298.873 314.447 244.859 303.323 189.354C292.199 133.849 238.185 97.8704 182.679 108.995C127.174 120.119 91.1957 174.133 102.32 229.638C113.444 285.144 167.458 321.122 222.963 309.998Z" fill="#483939"/>
<path d="M180.94 100.328C171.42 102.235 162.156 96.0648 160.248 86.5449C158.34 77.025 164.51 67.761 174.03 65.8531C183.55 63.9451 192.814 70.1158 194.722 79.6357C196.63 89.1555 190.459 98.4196 180.94 100.328Z" fill="#352A2A"/>
<path d="M231.606 353.14C222.086 355.048 212.822 348.877 210.914 339.357C209.006 329.838 215.177 320.573 224.696 318.666C234.216 316.758 243.48 322.928 245.388 332.448C247.296 341.968 241.125 351.232 231.606 353.14Z" fill="#352A2A"/>
<path d="M153.432 109.71C144.731 114.017 134.185 110.454 129.879 101.753C125.572 93.0509 129.134 82.5055 137.836 78.1986C146.538 73.8918 157.083 77.4545 161.39 86.1562C165.697 94.8578 162.134 105.403 153.432 109.71Z" fill="#352A2A"/>
<path d="M267.811 340.793C259.11 345.1 248.564 341.537 244.257 332.836C239.951 324.134 243.513 313.588 252.215 309.282C260.917 304.975 271.462 308.537 275.769 317.239C280.076 325.941 276.513 336.486 267.811 340.793Z" fill="#352A2A"/>
<path d="M129.286 125.893C121.995 132.306 110.887 131.594 104.475 124.303C98.0626 117.013 98.7746 105.904 106.065 99.4922C113.356 93.08 124.464 93.7919 130.876 101.082C137.288 108.373 136.576 119.481 129.286 125.893Z" fill="#352A2A"/>
<path d="M299.571 319.502C292.281 325.914 281.172 325.202 274.76 317.912C268.348 310.621 269.06 299.513 276.35 293.101C283.641 286.688 294.749 287.4 301.161 294.691C307.573 301.981 306.861 313.09 299.571 319.502Z" fill="#352A2A"/>
<path d="M110.158 147.772C104.775 155.853 93.8611 158.04 85.7804 152.658C77.6998 147.275 75.5124 136.361 80.8948 128.281C86.2773 120.2 97.1913 118.013 105.272 123.395C113.353 128.778 115.54 139.692 110.158 147.772Z" fill="#352A2A"/>
<path d="M324.749 290.711C319.367 298.791 308.453 300.979 300.372 295.596C292.292 290.214 290.104 279.3 295.487 271.219C300.869 263.139 311.783 260.951 319.864 266.334C327.944 271.716 330.132 282.63 324.749 290.711Z" fill="#352A2A"/>
<path d="M97.3378 173.859C94.2302 183.057 84.2542 187.995 75.0558 184.887C65.8574 181.78 60.9199 171.804 64.0275 162.605C67.1351 153.407 77.1111 148.469 86.3095 151.577C95.5079 154.685 100.445 164.661 97.3378 173.859Z" fill="#352A2A"/>
<path d="M341.615 256.385C338.508 265.584 328.532 270.521 319.333 267.414C310.135 264.306 305.197 254.33 308.305 245.132C311.412 235.933 321.388 230.996 330.587 234.103C339.785 237.211 344.723 247.187 341.615 256.385Z" fill="#352A2A"/>
<path d="M91.7116 202.373C91.0906 212.062 82.7325 219.414 73.0432 218.793C63.3539 218.172 56.0026 209.813 56.6236 200.124C57.2446 190.435 65.6028 183.083 75.2921 183.704C84.9813 184.325 92.3326 192.684 91.7116 202.373Z" fill="#352A2A"/>
<path d="M349.018 218.867C348.397 228.556 340.039 235.908 330.35 235.287C320.661 234.666 313.309 226.308 313.93 216.618C314.551 206.929 322.909 199.578 332.599 200.199C342.288 200.82 349.639 209.178 349.018 218.867Z" fill="#352A2A"/>
<path d="M346.468 180.707C348.376 190.227 342.205 199.491 332.686 201.399C323.166 203.307 313.902 197.136 311.994 187.616C310.086 178.096 316.256 168.832 325.776 166.924C335.296 165.016 344.56 171.187 346.468 180.707Z" fill="#352A2A"/>
<path d="M103.027 258.887C107.333 267.589 103.771 278.134 95.069 282.441C86.3673 286.748 75.8219 283.185 71.515 274.483C67.2082 265.782 70.7709 255.236 79.4726 250.929C88.1742 246.622 98.7197 250.185 103.027 258.887Z" fill="#352A2A"/>
<path d="M334.122 144.51C338.429 153.212 334.866 163.757 326.165 168.064C317.463 172.371 306.918 168.808 302.611 160.106C298.304 151.405 301.867 140.859 310.568 136.552C319.27 132.246 329.815 135.808 334.122 144.51Z" fill="#352A2A"/>
<path d="M119.221 283.029C125.633 290.319 124.921 301.427 117.63 307.84C110.34 314.252 99.2316 313.54 92.8194 306.249C86.4071 298.959 87.1191 287.851 94.4096 281.438C101.7 275.026 112.808 275.738 119.221 283.029Z" fill="#352A2A"/>
<path d="M312.83 112.741C319.242 120.032 318.53 131.14 311.24 137.552C303.949 143.965 292.841 143.253 286.429 135.962C280.017 128.672 280.728 117.564 288.019 111.151C295.309 104.739 306.418 105.451 312.83 112.741Z" fill="#352A2A"/>
<path d="M141.105 302.162C149.186 307.544 151.373 318.458 145.991 326.539C140.608 334.62 129.694 336.807 121.614 331.424C113.533 326.042 111.346 315.128 116.728 307.047C122.111 298.967 133.025 296.779 141.105 302.162Z" fill="#352A2A"/>
<path d="M284.035 87.5661C292.116 92.9485 294.303 103.863 288.921 111.943C283.538 120.024 272.624 122.211 264.543 116.829C256.463 111.446 254.275 100.532 259.658 92.4517C265.04 84.371 275.954 82.1837 284.035 87.5661Z" fill="#352A2A"/>
<path d="M167.19 314.981C176.388 318.088 181.326 328.064 178.218 337.263C175.111 346.461 165.135 351.398 155.936 348.291C146.738 345.183 141.8 335.207 144.908 326.009C148.016 316.81 157.992 311.873 167.19 314.981Z" fill="#352A2A"/>
<path d="M249.715 70.7002C258.914 73.8079 263.851 83.7838 260.744 92.9823C257.636 102.181 247.66 107.118 238.462 104.011C229.263 100.903 224.326 90.927 227.433 81.7286C230.541 72.5302 240.517 67.5926 249.715 70.7002Z" fill="#352A2A"/>
<path d="M195.711 320.61C205.4 321.231 212.751 329.589 212.13 339.278C211.509 348.967 203.151 356.319 193.462 355.698C183.773 355.077 176.421 346.719 177.042 337.029C177.663 327.34 186.022 319.989 195.711 320.61Z" fill="#352A2A"/>
<path d="M212.189 63.2942C221.879 63.9152 229.23 72.2734 228.609 81.9626C227.988 91.6519 219.63 99.0032 209.94 98.3822C200.251 97.7612 192.9 89.4031 193.521 79.7138C194.142 70.0245 202.5 62.6732 212.189 63.2942Z" fill="#352A2A"/>
<path d="M93.6537 231.375C95.5616 240.895 89.3909 250.159 79.8711 252.067C70.3512 253.975 61.0872 247.804 59.1792 238.284C57.2713 228.764 63.442 219.5 72.9618 217.592C82.4817 215.684 91.7457 221.855 93.6537 231.375Z" fill="#352A2A"/>
<path fill-rule="evenodd" clip-rule="evenodd" d="M137.836 78.1982C145.665 74.3236 154.985 76.8182 159.913 83.6938C159.612 75.2397 165.466 67.5693 174.031 65.8528C182.596 64.1362 190.955 68.9595 193.934 76.8779C195.83 68.6317 203.471 62.7354 212.189 63.2942C220.91 63.8531 227.737 70.6797 228.562 79.1032C232.526 71.6239 241.435 67.9029 249.715 70.7001C257.99 73.4958 262.816 81.8501 261.439 90.1963C267.205 84.0075 276.767 82.7239 284.036 87.5657C291.308 92.4099 293.807 101.735 290.31 109.442C297.483 104.948 307.058 106.18 312.83 112.742C318.599 119.302 318.601 128.952 313.233 135.492C321.322 133.012 330.246 136.681 334.121 144.51C337.997 152.34 335.5 161.662 328.622 166.59C337.078 166.287 344.75 172.141 346.467 180.707C348.184 189.274 343.359 197.634 335.437 200.612C343.682 202.51 349.576 210.15 349.017 218.867C348.459 227.583 341.639 234.408 333.221 235.238C340.694 239.204 344.41 248.11 341.614 256.386C338.818 264.662 330.461 269.489 322.114 268.11C328.307 273.875 329.593 283.44 324.75 290.711C319.905 297.984 310.579 300.483 302.871 296.985C307.365 304.157 306.132 313.731 299.57 319.502C293.015 325.268 283.372 325.274 276.833 319.915C279.306 328.001 275.637 336.92 267.811 340.793C259.977 344.671 250.648 342.17 245.723 335.283C246.032 343.743 240.176 351.423 231.606 353.14C223.049 354.855 214.698 350.042 211.711 342.137C209.807 350.371 202.172 356.256 193.461 355.698C184.74 355.139 177.914 348.313 177.089 339.889C173.125 347.368 164.216 351.088 155.937 348.291C147.66 345.495 142.833 337.138 144.212 328.79C138.447 334.982 128.883 336.267 121.613 331.424C114.341 326.581 111.842 317.257 115.337 309.55C108.165 314.044 98.59 312.812 92.8187 306.25C87.0485 299.689 87.0473 290.037 92.4175 283.498C84.3253 285.985 75.3925 282.316 71.5154 274.483C67.6398 266.653 70.1367 257.329 77.0165 252.402C68.5638 252.701 60.8954 246.848 59.1792 238.284C57.4623 229.718 62.2872 221.358 70.2076 218.38C61.9612 216.484 56.0649 208.843 56.6236 200.125C57.1823 191.408 64.0028 184.583 72.4211 183.753C64.9483 179.787 61.2318 170.882 64.0278 162.606C66.8243 154.328 75.1829 149.501 83.5317 150.882C77.3382 145.117 76.0523 135.552 80.8956 128.281C85.7367 121.013 95.0528 118.512 102.757 121.999C98.2714 114.828 99.5062 105.26 106.064 99.4919C112.626 93.7208 122.28 93.7204 128.82 99.0929C126.336 91.0027 130.005 82.0741 137.836 78.1982ZM80.382 217.699C86.8958 219.21 92.254 224.392 93.6536 231.375C95.0533 238.359 92.1051 245.205 86.6764 249.111C93.3566 248.889 99.8689 252.506 103.027 258.887C106.187 265.27 105.111 272.646 100.878 277.824C107.277 275.871 114.513 277.678 119.22 283.029C123.924 288.378 124.794 295.782 122.044 301.878C127.72 298.338 135.175 298.212 141.105 302.162C147.032 306.11 149.789 313.034 148.712 319.634C153.279 314.75 160.444 312.702 167.19 314.981C173.94 317.261 178.395 323.24 179.061 329.895C182.207 323.992 188.6 320.154 195.71 320.61C202.809 321.065 208.652 325.673 211.026 331.915C212.544 325.411 217.722 320.064 224.697 318.666C231.685 317.265 238.535 320.218 242.439 325.652C242.209 318.965 245.828 312.443 252.215 309.282C258.592 306.125 265.96 307.196 271.137 311.419C269.196 305.025 271.005 297.801 276.35 293.101C281.699 288.395 289.105 287.526 295.203 290.278C291.664 284.603 291.538 277.148 295.487 271.219C299.435 265.292 306.36 262.536 312.959 263.612C308.074 259.046 306.024 251.88 308.304 245.132C310.583 238.387 316.555 233.933 323.206 233.262C317.307 230.115 313.474 223.725 313.929 216.618C314.385 209.509 319.005 203.659 325.26 201.292C318.748 199.779 313.392 194.599 311.993 187.617C310.593 180.633 313.541 173.788 318.968 169.883C312.285 170.108 305.769 166.49 302.61 160.107C299.451 153.724 300.526 146.349 304.757 141.172C298.361 143.118 291.132 141.31 286.429 135.963C281.724 130.613 280.854 123.208 283.605 117.111C277.929 120.652 270.474 120.778 264.544 116.828C258.618 112.881 255.862 105.959 256.936 99.361C252.369 104.242 245.206 106.289 238.461 104.01C231.711 101.73 227.256 95.7517 226.59 89.0958C223.445 95.0002 217.051 98.8379 209.941 98.3822C202.834 97.9267 196.985 93.3087 194.617 87.0559C193.105 93.5696 187.923 98.9277 180.94 100.327C173.958 101.726 167.114 98.7807 163.209 93.3555C163.432 100.037 159.814 106.551 153.433 109.71C147.048 112.87 139.67 111.793 134.493 107.558C136.442 113.956 134.634 121.188 129.285 125.893C123.94 130.594 116.543 131.466 110.449 128.723C113.982 134.398 114.105 141.847 110.158 147.772C106.209 153.701 99.2834 156.457 92.6832 155.379C97.5682 159.946 99.6177 167.112 97.3381 173.859C95.0591 180.605 89.0862 185.059 82.4349 185.729C88.3339 188.876 92.1671 195.267 91.7117 202.373C91.2561 209.482 86.6365 215.331 80.382 217.699Z" fill="#352A2A"/>
<path fill-rule="evenodd" clip-rule="evenodd" d="M160.559 85.5867C159.724 85.8714 158.801 85.5757 158.288 84.8589C153.921 78.7668 145.659 76.5577 138.723 79.9907C131.785 83.4248 128.531 91.3377 130.731 98.506C130.99 99.3496 130.666 100.263 129.933 100.754C129.2 101.246 128.232 101.198 127.55 100.638C121.756 95.8781 113.199 95.8804 107.385 100.994C101.575 106.104 100.478 114.585 104.453 120.939C104.921 121.686 104.843 122.652 104.263 123.316C103.683 123.979 102.736 124.185 101.933 123.821C95.1061 120.732 86.8494 122.95 82.5601 129.389C78.2689 135.832 79.4066 144.31 84.8943 149.418C85.5401 150.019 85.7157 150.972 85.3266 151.764C84.9375 152.556 84.0756 152.999 83.2052 152.855C75.8079 151.631 68.4003 155.912 65.9225 163.246C63.4453 170.578 66.7375 178.472 73.3587 181.987C74.1378 182.4 74.554 183.275 74.3833 184.14C74.2125 185.006 73.4951 185.657 72.6174 185.744C65.1584 186.479 59.1145 192.529 58.6196 200.252C58.1245 207.977 63.349 214.751 70.6557 216.431C71.5155 216.628 72.1442 217.366 72.2031 218.246C72.2621 219.126 71.7373 219.941 70.9116 220.252C63.8937 222.891 59.619 230.301 61.1402 237.891C62.6608 245.479 69.4564 250.668 76.9458 250.404C77.8273 250.372 78.6251 250.922 78.9096 251.757C79.1941 252.592 78.898 253.515 78.1809 254.028C72.0852 258.394 69.8741 266.658 73.3079 273.596C76.743 280.536 84.6598 283.79 91.8298 281.586C92.6732 281.327 93.587 281.651 94.0785 282.384C94.57 283.116 94.5231 284.085 93.9631 284.767C89.2049 290.561 89.208 299.116 94.3205 304.929C99.4339 310.743 107.921 311.837 114.275 307.855C115.023 307.387 115.99 307.463 116.654 308.044C117.318 308.625 117.523 309.572 117.159 310.376C114.062 317.205 116.279 325.468 122.722 329.76C129.163 334.05 137.641 332.914 142.749 327.428C143.35 326.782 144.303 326.606 145.095 326.995C145.886 327.384 146.33 328.246 146.186 329.117C144.963 336.513 149.244 343.919 156.577 346.396C163.912 348.875 171.809 345.579 175.322 338.953C175.735 338.173 176.61 337.756 177.476 337.927C178.342 338.098 178.993 338.816 179.079 339.694C179.81 347.158 185.862 353.207 193.589 353.702C201.307 354.197 208.075 348.982 209.763 341.686C209.961 340.828 210.698 340.2 211.577 340.142C212.457 340.083 213.271 340.606 213.582 341.43C216.229 348.435 223.631 352.699 231.213 351.179C238.807 349.657 243.998 342.852 243.725 335.356C243.692 334.474 244.242 333.675 245.078 333.39C245.913 333.105 246.837 333.401 247.35 334.119C251.714 340.221 259.983 342.436 266.924 339.001C273.857 335.569 277.112 327.665 274.92 320.5C274.663 319.657 274.987 318.745 275.719 318.254C276.451 317.763 277.419 317.81 278.1 318.368C283.895 323.116 292.441 323.109 298.249 318C304.063 312.887 305.158 304.401 301.177 298.047C300.708 297.299 300.785 296.333 301.366 295.668C301.947 295.004 302.894 294.799 303.698 295.164C310.527 298.263 318.793 296.046 323.085 289.602C327.376 283.16 326.239 274.682 320.751 269.574C320.105 268.973 319.93 268.02 320.319 267.228C320.708 266.436 321.569 265.993 322.44 266.136C329.836 267.359 337.242 263.079 339.72 255.745C342.197 248.413 338.905 240.519 332.283 237.005C331.504 236.591 331.088 235.716 331.259 234.851C331.43 233.986 332.147 233.334 333.025 233.248C340.483 232.512 346.526 226.462 347.021 218.739C347.516 211.015 342.294 204.243 334.989 202.561C334.129 202.364 333.501 201.626 333.442 200.746C333.383 199.866 333.908 199.051 334.733 198.74C341.752 196.102 346.028 188.691 344.506 181.1C342.985 173.511 336.186 168.32 328.694 168.588C327.812 168.62 327.014 168.07 326.729 167.235C326.445 166.4 326.74 165.478 327.458 164.964C333.552 160.598 335.762 152.335 332.329 145.397C328.896 138.461 320.986 135.207 313.819 137.404C312.976 137.662 312.063 137.338 311.572 136.605C311.081 135.872 311.128 134.904 311.687 134.223C316.444 128.428 316.44 119.875 311.328 114.063C306.214 108.249 297.727 107.154 291.372 111.137C290.625 111.606 289.658 111.529 288.994 110.948C288.33 110.367 288.125 109.419 288.489 108.616C291.588 101.787 289.371 93.5223 282.927 89.2302C276.487 84.9403 268.011 86.076 262.903 91.5595C262.302 92.2048 261.349 92.3802 260.557 91.9912C259.766 91.6023 259.323 90.7408 259.466 89.8707C260.686 82.4756 256.406 75.0719 249.075 72.5949C241.739 70.1166 233.841 73.4127 230.329 80.0397C229.916 80.8195 229.04 81.2362 228.175 81.0654C227.309 80.8945 226.657 80.1764 226.571 79.2982C225.84 71.8345 219.788 65.7853 212.062 65.2901C204.337 64.795 197.563 70.0195 195.883 77.326C195.686 78.1857 194.948 78.8144 194.068 78.8734C193.188 78.9325 192.373 78.4079 192.062 77.5823C189.422 70.5662 182.013 66.2928 174.424 67.8138C166.835 69.3346 161.645 76.132 161.912 83.6227C161.943 84.5041 161.393 85.302 160.559 85.5867ZM78.3865 217.832C78.3277 216.954 78.8505 216.14 79.6741 215.828C85.2215 213.729 89.3122 208.542 89.7158 202.245C90.1192 195.95 86.7257 190.285 81.4936 187.494C80.7168 187.079 80.3023 186.206 80.4728 185.342C80.6432 184.478 81.3585 183.828 82.2345 183.739C88.1338 183.145 93.4246 179.195 95.4433 173.219C97.4626 167.242 95.6502 160.891 91.3174 156.84C90.6741 156.239 90.4998 155.288 90.8882 154.497C91.2766 153.707 92.1363 153.264 93.0055 153.406C98.8596 154.361 104.996 151.915 108.494 146.664C111.99 141.415 111.884 134.813 108.751 129.78C108.286 129.033 108.364 128.07 108.943 127.407C109.522 126.744 110.467 126.538 111.269 126.9C116.675 129.332 123.23 128.556 127.964 124.391C132.703 120.224 134.308 113.816 132.58 108.141C132.323 107.298 132.648 106.387 133.379 105.897C134.111 105.406 135.077 105.452 135.759 106.01C140.351 109.766 146.89 110.717 152.546 107.917C158.198 105.119 161.408 99.3485 161.21 93.4224C161.18 92.5424 161.73 91.7468 162.563 91.4626C163.396 91.1783 164.317 91.4724 164.832 92.1869C168.296 96.9989 174.363 99.6057 180.547 98.3663C186.733 97.1265 191.327 92.3811 192.668 86.6037C192.868 85.7459 193.604 85.1193 194.483 85.0604C195.361 85.0015 196.175 85.5241 196.487 86.3476C198.587 91.8935 203.773 95.9828 210.069 96.3863C216.367 96.79 222.035 93.3925 224.825 88.1556C225.239 87.3781 226.113 86.9631 226.977 87.1337C227.841 87.3042 228.492 88.0202 228.58 88.8967C229.171 94.8001 233.122 100.096 239.101 102.116C245.076 104.134 251.425 102.324 255.475 97.9947C256.077 97.3518 257.028 97.1778 257.818 97.5661C258.608 97.9543 259.051 98.8135 258.91 99.6824C257.957 105.535 260.404 111.667 265.653 115.164C270.905 118.662 277.512 118.554 282.547 115.414C283.294 114.948 284.258 115.026 284.921 115.606C285.585 116.186 285.79 117.131 285.428 117.934C282.988 123.342 283.763 129.903 287.93 134.642C292.096 139.378 298.502 140.985 304.175 139.259C305.017 139.003 305.928 139.328 306.418 140.059C306.909 140.79 306.863 141.756 306.306 142.438C302.553 147.03 301.604 153.566 304.402 159.22C307.201 164.874 312.973 168.083 318.901 167.884C319.781 167.854 320.577 168.403 320.861 169.237C321.145 170.07 320.851 170.992 320.136 171.506C315.322 174.97 312.714 181.038 313.954 187.223C315.193 193.408 319.937 198.002 325.713 199.344C326.571 199.543 327.197 200.28 327.256 201.159C327.315 202.038 326.792 202.851 325.968 203.163C320.42 205.262 316.329 210.449 315.925 216.746C315.522 223.041 318.915 228.706 324.147 231.497C324.924 231.912 325.339 232.785 325.168 233.649C324.998 234.513 324.283 235.164 323.407 235.252C317.508 235.847 312.217 239.797 310.199 245.772C308.179 251.749 309.992 258.101 314.325 262.151C314.968 262.752 315.142 263.703 314.754 264.494C314.366 265.284 313.506 265.728 312.637 265.586C306.784 264.631 300.649 267.078 297.152 272.328C293.653 277.58 293.761 284.186 296.9 289.22C297.366 289.967 297.288 290.932 296.708 291.595C296.128 292.258 295.183 292.463 294.38 292.101C288.972 289.66 282.409 290.435 277.67 294.603C272.936 298.766 271.329 305.167 273.051 310.838C273.306 311.68 272.981 312.59 272.25 313.08C271.52 313.57 270.554 313.525 269.872 312.969C265.281 309.223 258.751 308.278 253.102 311.074C247.444 313.874 244.234 319.652 244.438 325.584C244.468 326.464 243.919 327.261 243.085 327.545C242.251 327.83 241.329 327.535 240.815 326.819C237.352 321.999 231.28 319.386 225.09 320.627C218.911 321.865 214.32 326.601 212.973 332.369C212.773 333.226 212.037 333.851 211.159 333.91C210.282 333.969 209.469 333.448 209.156 332.625C207.051 327.089 201.87 323.009 195.582 322.606C189.284 322.202 183.616 325.599 180.826 330.836C180.412 331.613 179.538 332.028 178.674 331.858C177.81 331.687 177.159 330.971 177.071 330.095C176.48 324.191 172.529 318.896 166.55 316.876C160.574 314.857 154.223 316.668 150.173 321C149.572 321.643 148.62 321.817 147.83 321.429C147.04 321.04 146.597 320.181 146.738 319.312C147.693 313.458 145.246 307.324 139.996 303.826C134.744 300.328 128.137 300.436 123.103 303.575C122.356 304.041 121.391 303.964 120.728 303.384C120.065 302.804 119.859 301.859 120.221 301.056C122.66 295.649 121.885 289.088 117.718 284.35C113.549 279.61 107.138 278.005 101.461 279.737C100.619 279.994 99.7073 279.669 99.2167 278.938C98.726 278.206 98.7718 277.24 99.3294 276.558C103.084 271.966 104.033 265.429 101.234 259.774C98.4371 254.122 92.6679 250.913 86.7429 251.11C85.8629 251.139 85.0673 250.589 84.7833 249.756C84.4993 248.922 84.7938 248.001 85.5085 247.487C90.3235 244.023 92.9325 237.955 91.6926 231.768C90.4528 225.582 85.7073 220.988 79.9298 219.647C79.072 219.448 78.4453 218.711 78.3865 217.832ZM157.972 81.4235C158.675 82.1157 159.325 82.8735 159.913 83.6938C159.877 82.6853 159.929 81.6879 160.062 80.7105C161.048 73.4944 166.488 67.3645 174.031 65.8528C181.574 64.341 188.957 67.9015 192.647 74.1813C193.146 75.0322 193.579 75.933 193.934 76.8779C194.16 75.894 194.468 74.9435 194.85 74.0335C197.669 67.3165 204.511 62.8021 212.189 63.2942C219.869 63.7864 226.08 69.139 228.017 76.1625C228.279 77.1147 228.463 78.0976 228.562 79.1032C229.035 78.2104 229.579 77.3711 230.183 76.5901C234.644 70.8284 242.423 68.2369 249.715 70.7001C257.003 73.1623 261.616 79.9362 261.672 87.2188C261.68 88.2051 261.604 89.2007 261.439 90.1963C262.127 89.458 262.869 88.7896 263.654 88.193C269.454 83.7884 277.634 83.3014 284.036 87.5657C290.44 91.8316 293.143 99.5724 291.309 106.623C291.06 107.579 290.728 108.522 290.31 109.442C291.167 108.906 292.057 108.451 292.971 108.077C299.714 105.318 307.747 106.963 312.83 112.742C317.911 118.519 318.519 126.693 314.925 133.029C314.438 133.887 313.874 134.711 313.233 135.492C314.198 135.196 315.175 134.987 316.154 134.863C323.38 133.947 330.709 137.616 334.121 144.51C337.534 151.406 336.005 159.459 330.894 164.648C330.201 165.351 329.443 166.002 328.622 166.59C329.631 166.554 330.629 166.605 331.607 166.738C338.824 167.723 344.955 173.163 346.467 180.707C347.979 188.252 344.417 195.637 338.134 199.325C337.283 199.825 336.382 200.257 335.437 200.612C336.421 200.839 337.372 201.147 338.282 201.529C344.997 204.349 349.509 211.19 349.017 218.867C348.525 226.543 343.177 232.752 336.158 234.692C335.207 234.955 334.225 235.139 333.221 235.238C334.112 235.711 334.95 236.255 335.73 236.859C341.488 241.32 344.077 249.097 341.614 256.386C339.152 263.675 332.377 268.288 325.093 268.343C324.106 268.351 323.11 268.274 322.114 268.11C322.853 268.798 323.522 269.54 324.119 270.325C328.527 276.125 329.015 284.308 324.75 290.711C320.483 297.116 312.742 299.819 305.69 297.983C304.735 297.735 303.791 297.403 302.871 296.985C303.408 297.841 303.863 298.732 304.236 299.646C306.994 306.389 305.348 314.42 299.57 319.502C293.796 324.581 285.628 325.19 279.294 321.603C278.436 321.117 277.613 320.554 276.833 319.915C277.128 320.879 277.335 321.855 277.459 322.833C278.372 330.056 274.704 337.382 267.811 340.793C260.912 344.208 252.855 342.676 247.666 337.559C246.962 336.865 246.312 336.105 245.723 335.283C245.76 336.293 245.709 337.292 245.576 338.272C244.595 345.492 239.153 351.628 231.606 353.14C224.069 354.651 216.691 351.097 212.999 344.826C212.499 343.977 212.067 343.079 211.711 342.137C211.484 343.118 211.176 344.066 210.794 344.974C207.972 351.682 201.134 356.19 193.461 355.698C185.782 355.206 179.571 349.853 177.634 342.83C177.371 341.878 177.187 340.895 177.089 339.889C176.616 340.782 176.072 341.621 175.467 342.402C171.007 348.163 163.227 350.754 155.937 348.291C148.647 345.829 144.034 339.053 143.979 331.769C143.972 330.782 144.048 329.786 144.212 328.79C143.525 329.529 142.783 330.198 141.997 330.795C136.198 335.201 128.016 335.689 121.613 331.424C115.209 327.159 112.507 319.419 114.34 312.369C114.588 311.413 114.92 310.47 115.337 309.55C114.481 310.086 113.591 310.541 112.677 310.915C105.934 313.674 97.9012 312.028 92.8187 306.25C87.7374 300.473 87.1298 292.298 90.7243 285.963C91.2116 285.104 91.7763 284.278 92.4175 283.498C91.4517 283.794 90.4739 284.004 89.4942 284.129C82.2651 285.05 74.9298 281.382 71.5154 274.483C68.1021 267.587 69.6318 259.532 74.7451 254.343C75.4376 253.64 76.1959 252.99 77.0165 252.402C76.0078 252.438 75.0103 252.386 74.0327 252.252C66.8184 251.266 60.6906 245.826 59.1792 238.284C57.6672 230.74 61.2288 223.356 67.5102 219.667C68.3614 219.167 69.2624 218.735 70.2076 218.38C69.2235 218.154 68.2729 217.846 67.3627 217.464C60.6458 214.645 56.1315 207.803 56.6236 200.125C57.1157 192.448 62.4645 186.239 69.4842 184.299C70.4351 184.037 71.4167 183.852 72.4211 183.753C71.5297 183.28 70.6917 182.737 69.9118 182.132C64.1543 177.671 61.5653 169.894 64.0278 162.606C66.4906 155.316 73.2672 150.702 80.5519 150.648C81.539 150.641 82.5354 150.717 83.5317 150.882C82.7925 150.194 82.1233 149.452 81.526 148.666C77.1186 142.867 76.6303 134.684 80.8956 128.281C85.1593 121.88 92.8941 119.177 99.9419 121.005C100.896 121.253 101.838 121.583 102.757 121.999C102.222 121.144 101.769 120.255 101.396 119.342C98.6417 112.6 100.288 104.572 106.064 99.4919C111.843 94.4096 120.019 93.8027 126.355 97.3995C127.214 97.887 128.039 98.4517 128.82 99.0929C128.523 98.1272 128.314 97.1496 128.19 96.17C127.271 88.9431 130.94 81.6115 137.836 78.1982C144.731 74.7858 152.783 76.3136 157.972 81.4235ZM88.9366 247.173C92.8888 243.157 94.8443 237.316 93.6536 231.375C92.4632 225.435 88.4088 220.799 83.2154 218.616C82.303 218.232 81.3554 217.924 80.382 217.699C81.3166 217.345 82.2147 216.913 83.0678 216.412C87.9241 213.555 91.3242 208.419 91.7117 202.373C92.0991 196.328 89.3834 190.801 84.9328 187.348C84.1512 186.742 83.3161 186.199 82.4349 185.729C83.4286 185.629 84.4072 185.445 85.3605 185.181C90.7884 183.677 95.3996 179.597 97.3381 173.859C99.2771 168.12 98.0841 162.078 94.6783 157.591C94.0799 156.802 93.4132 156.062 92.6832 155.379C93.6694 155.54 94.6629 155.616 95.6526 155.608C101.287 155.562 106.799 152.815 110.158 147.772C113.516 142.732 113.928 136.589 111.801 131.373C111.428 130.458 110.976 129.571 110.449 128.723C111.359 129.133 112.298 129.462 113.256 129.71C118.707 131.12 124.739 129.892 129.285 125.893C133.835 121.892 135.822 116.061 135.116 110.472C134.992 109.489 134.784 108.514 134.493 107.558C135.267 108.191 136.09 108.753 136.951 109.242C141.853 112.02 148.002 112.398 153.433 109.71C158.861 107.023 162.29 101.908 163.055 96.3279C163.19 95.3479 163.242 94.3536 163.209 93.3555C163.792 94.1659 164.441 94.9211 165.146 95.6146C169.162 99.5639 175.001 101.517 180.94 100.327C186.88 99.1368 191.516 95.0823 193.699 89.8887C194.083 88.9765 194.391 88.0291 194.617 87.0559C194.97 87.9902 195.402 88.888 195.904 89.7409C198.761 94.5958 203.896 97.9948 209.941 98.3822C215.988 98.7698 221.518 96.0515 224.97 91.5974C225.577 90.8147 226.12 89.9784 226.59 89.0958C226.689 90.0908 226.874 91.0706 227.138 92.0251C228.639 97.4564 232.72 102.071 238.461 104.01C244.199 105.949 250.239 104.757 254.726 101.354C255.514 100.756 256.254 100.09 256.936 99.361C256.775 100.347 256.7 101.339 256.709 102.328C256.756 107.96 259.503 113.471 264.544 116.828C269.588 120.188 275.735 120.598 280.952 118.468C281.869 118.093 282.757 117.64 283.605 117.111C283.194 118.023 282.864 118.963 282.615 119.922C281.2 125.376 282.427 131.413 286.429 135.963C290.429 140.511 296.257 142.499 301.845 141.794C302.827 141.67 303.801 141.463 304.757 141.172C304.125 141.946 303.563 142.768 303.075 143.629C300.299 148.531 299.923 154.678 302.61 160.107C305.297 165.536 310.413 168.965 315.994 169.73C316.975 169.864 317.97 169.916 318.968 169.883C318.157 170.466 317.402 171.115 316.708 171.821C312.757 175.837 310.802 181.677 311.993 187.617C313.183 193.555 317.236 198.191 322.428 200.374C323.34 200.758 324.287 201.066 325.26 201.292C324.326 201.646 323.428 202.077 322.575 202.579C317.718 205.435 314.317 210.571 313.929 216.618C313.542 222.663 316.258 228.19 320.708 231.643C321.49 232.25 322.325 232.792 323.206 233.262C322.212 233.362 321.234 233.547 320.281 233.811C314.853 235.315 310.242 239.394 308.304 245.132C306.365 250.871 307.558 256.914 310.964 261.401C311.562 262.189 312.229 262.93 312.959 263.612C311.973 263.451 310.979 263.376 309.99 263.384C304.357 263.43 298.845 266.178 295.487 271.219C292.128 276.262 291.717 282.408 293.847 287.625C294.221 288.542 294.674 289.43 295.203 290.278C294.291 289.867 293.351 289.536 292.392 289.288C286.938 287.872 280.9 289.099 276.35 293.101C271.803 297.1 269.815 302.925 270.518 308.511C270.641 309.491 270.847 310.464 271.137 311.419C270.364 310.788 269.542 310.228 268.682 309.742C263.782 306.97 257.64 306.597 252.215 309.282C246.783 311.97 243.353 317.09 242.591 322.675C242.457 323.656 242.405 324.653 242.439 325.652C241.856 324.84 241.206 324.083 240.5 323.387C236.484 319.432 230.64 317.475 224.697 318.666C218.763 319.855 214.13 323.903 211.944 329.09C211.56 329.999 211.252 330.944 211.026 331.915C210.671 330.983 210.24 330.088 209.739 329.237C206.88 324.39 201.749 320.997 195.71 320.61C189.663 320.222 184.134 322.94 180.681 327.394C180.074 328.177 179.531 329.013 179.061 329.895C178.962 328.901 178.778 327.921 178.514 326.966C177.012 321.535 172.931 316.92 167.19 314.981C161.452 313.042 155.41 314.235 150.923 317.64C150.135 318.238 149.395 318.904 148.712 319.634C148.873 318.648 148.948 317.655 148.94 316.665C148.894 311.032 146.147 305.52 141.105 302.162C136.061 298.802 129.914 298.392 124.697 300.522C123.781 300.897 122.893 301.349 122.044 301.878C122.455 300.967 122.786 300.027 123.034 299.068C124.448 293.614 123.221 287.578 119.22 283.029C115.217 278.478 109.383 276.49 103.791 277.199C102.809 277.324 101.834 277.532 100.878 277.824C101.511 277.05 102.073 276.226 102.561 275.365C105.338 270.463 105.714 264.316 103.027 258.887C100.341 253.46 95.228 250.031 89.6493 249.265C88.6692 249.13 87.6747 249.077 86.6764 249.111C87.4872 248.527 88.2427 247.878 88.9366 247.173Z" fill="#2F1E1E"/>
<path d="M71.2362 227.199C71.5618 228.824 70.5088 230.404 68.8842 230.73C67.2597 231.056 65.6788 230.003 65.3532 228.378C65.0276 226.753 66.0806 225.173 67.7052 224.847C69.3297 224.521 70.9106 225.574 71.2362 227.199Z" fill="#786D6D"/>
<path d="M340.293 190.613C340.618 192.238 339.565 193.818 337.941 194.144C336.316 194.47 334.735 193.417 334.41 191.792C334.084 190.168 335.137 188.587 336.762 188.261C338.386 187.935 339.967 188.988 340.293 190.613Z" fill="#786D6D"/>
<path d="M71.1084 192.77C71.0053 194.423 69.5812 195.68 67.9276 195.577C66.274 195.474 65.017 194.05 65.12 192.397C65.2231 190.743 66.6472 189.486 68.3008 189.589C69.9545 189.692 71.2115 191.116 71.1084 192.77Z" fill="#786D6D"/>
<path d="M340.526 226.595C340.423 228.249 338.999 229.506 337.346 229.403C335.692 229.299 334.435 227.875 334.538 226.222C334.641 224.568 336.065 223.311 337.719 223.414C339.372 223.517 340.629 224.941 340.526 226.595Z" fill="#786D6D"/>
<path d="M79.9542 159.174C79.4257 160.745 77.7242 161.589 76.1539 161.061C74.5836 160.532 73.7391 158.831 74.2676 157.26C74.7962 155.69 76.4976 154.845 78.0679 155.374C79.6382 155.902 80.4827 157.604 79.9542 159.174Z" fill="#786D6D"/>
<path d="M331.372 261.733C330.844 263.303 329.142 264.148 327.572 263.619C326.002 263.091 325.157 261.389 325.686 259.819C326.214 258.249 327.916 257.404 329.486 257.933C331.056 258.461 331.901 260.163 331.372 261.733Z" fill="#786D6D"/>
<path d="M96.0857 130.528C95.1876 131.921 93.3308 132.321 91.9385 131.423C90.5462 130.525 90.1456 128.668 91.0437 127.276C91.9418 125.884 93.7986 125.483 95.1909 126.381C96.5832 127.279 96.9838 129.136 96.0857 130.528Z" fill="#786D6D"/>
<path d="M314.601 291.715C313.703 293.107 311.846 293.508 310.454 292.61C309.062 291.711 308.661 289.855 309.559 288.462C310.457 287.07 312.314 286.669 313.707 287.568C315.099 288.466 315.499 290.323 314.601 291.715Z" fill="#786D6D"/>
<path d="M119.861 105.833C118.636 106.949 116.739 106.861 115.623 105.637C114.507 104.412 114.595 102.515 115.82 101.399C117.044 100.283 118.942 100.371 120.058 101.595C121.174 102.82 121.086 104.717 119.861 105.833Z" fill="#786D6D"/>
<path d="M289.828 317.592C288.603 318.708 286.706 318.62 285.59 317.395C284.474 316.171 284.562 314.273 285.786 313.157C287.011 312.041 288.909 312.13 290.025 313.354C291.141 314.579 291.052 316.476 289.828 317.592Z" fill="#786D6D"/>
<path d="M151.887 86.8819C150.4 87.6142 148.602 87.003 147.87 85.5167C147.137 84.0305 147.748 82.232 149.235 81.4997C150.721 80.7675 152.519 81.3787 153.252 82.8649C153.984 84.3512 153.373 86.1496 151.887 86.8819Z" fill="#786D6D"/>
<path d="M256.41 337.49C254.924 338.223 253.125 337.611 252.393 336.125C251.661 334.639 252.272 332.84 253.758 332.108C255.244 331.376 257.043 331.987 257.775 333.473C258.507 334.96 257.896 336.758 256.41 337.49Z" fill="#786D6D"/>
<path d="M184.331 78.0181C182.708 78.3534 181.121 77.3098 180.786 75.6872C180.451 74.0646 181.494 72.4775 183.117 72.1422C184.739 71.8069 186.326 72.8505 186.662 74.4731C186.997 76.0957 185.953 77.6828 184.331 78.0181Z" fill="#786D6D"/>
<path d="M222.52 346.852C220.898 347.187 219.311 346.144 218.975 344.521C218.64 342.899 219.684 341.311 221.306 340.976C222.929 340.641 224.516 341.685 224.851 343.307C225.186 344.93 224.143 346.517 222.52 346.852Z" fill="#786D6D"/>
<path d="M220.069 77.8489C218.415 77.7393 217.164 76.3102 217.274 74.657C217.383 73.0037 218.812 71.7524 220.466 71.862C222.119 71.9717 223.37 73.4007 223.26 75.054C223.151 76.7072 221.722 77.9585 220.069 77.8489Z" fill="#786D6D"/>
<path d="M185.174 347.13C183.521 347.021 182.269 345.591 182.379 343.938C182.489 342.285 183.918 341.034 185.571 341.143C187.224 341.253 188.476 342.682 188.366 344.335C188.256 345.988 186.827 347.24 185.174 347.13Z" fill="#786D6D"/>
<path d="M253.314 86.7005C251.745 86.1698 250.903 84.4672 251.433 82.8976C251.964 81.328 253.667 80.4859 255.236 81.0166C256.806 81.5473 257.648 83.2499 257.117 84.8195C256.586 86.389 254.884 87.2312 253.314 86.7005Z" fill="#786D6D"/>
<path d="M150.404 337.977C148.835 337.446 147.992 335.744 148.523 334.174C149.054 332.604 150.756 331.762 152.326 332.293C153.896 332.824 154.738 334.526 154.207 336.096C153.676 337.665 151.974 338.508 150.404 337.977Z" fill="#786D6D"/>
<path d="M284.002 104.434C282.629 103.507 282.267 101.642 283.194 100.269C284.121 98.8957 285.986 98.534 287.359 99.4611C288.732 100.388 289.094 102.253 288.167 103.626C287.24 104.999 285.375 105.361 284.002 104.434Z" fill="#786D6D"/>
<path d="M118.281 319.531C116.908 318.604 116.546 316.739 117.474 315.366C118.401 313.992 120.265 313.631 121.639 314.558C123.012 315.485 123.373 317.35 122.446 318.723C121.519 320.096 119.655 320.458 118.281 319.531Z" fill="#786D6D"/>
<path d="M307.784 128.184C306.688 126.942 306.806 125.046 308.048 123.95C309.29 122.853 311.186 122.972 312.282 124.214C313.379 125.456 313.261 127.352 312.018 128.448C310.776 129.545 308.88 129.427 307.784 128.184Z" fill="#786D6D"/>
<path d="M93.3602 294.778C92.2637 293.536 92.3819 291.64 93.624 290.544C94.8662 289.447 96.762 289.565 97.8585 290.808C98.9549 292.05 98.8368 293.945 97.5946 295.042C96.3525 296.138 94.4566 296.02 93.3602 294.778Z" fill="#786D6D"/>
<path d="M325.255 158.13C324.517 156.646 325.122 154.846 326.606 154.108C328.089 153.371 329.89 153.975 330.628 155.459C331.365 156.943 330.76 158.743 329.276 159.481C327.793 160.218 325.992 159.613 325.255 158.13Z" fill="#786D6D"/>
<path d="M75.0145 263.534C74.277 262.05 74.8819 260.25 76.3655 259.512C77.8492 258.775 79.6498 259.38 80.3873 260.863C81.1248 262.347 80.5199 264.148 79.0362 264.885C77.5526 265.623 75.752 265.018 75.0145 263.534Z" fill="#786D6D"/>
<path d="M183.67 131.744C183.833 132.556 180.892 133.831 177.101 134.59C173.311 135.35 170.106 135.307 169.943 134.495C169.78 133.683 172.721 132.409 176.512 131.649C180.303 130.889 183.507 130.932 183.67 131.744Z" fill="#2F1E1E"/>
<path d="M203.086 137.03C203.249 137.842 200.308 139.117 196.517 139.876C192.727 140.636 189.522 140.594 189.359 139.781C189.196 138.969 192.137 137.695 195.928 136.935C199.719 136.175 202.923 136.218 203.086 137.03Z" fill="#2F1E1E"/>
<path d="M184.022 250.471C184.185 251.283 181.244 252.557 177.453 253.317C173.662 254.077 170.458 254.034 170.295 253.222C170.132 252.409 173.073 251.135 176.864 250.375C180.654 249.616 183.859 249.658 184.022 250.471Z" fill="#2F1E1E"/>
<path d="M144.022 241.471C144.185 242.283 141.244 243.557 137.453 244.317C133.662 245.077 130.458 245.034 130.295 244.222C130.132 243.409 133.073 242.135 136.864 241.375C140.654 240.616 143.859 240.658 144.022 241.471Z" fill="#2F1E1E"/>
<path d="M137.805 198.05C137.968 198.862 135.027 200.136 131.236 200.896C127.446 201.656 124.241 201.613 124.078 200.801C123.915 199.989 126.856 198.714 130.647 197.955C134.437 197.195 137.642 197.237 137.805 198.05Z" fill="#2F1E1E"/>
<path d="M266.047 150.93C266.21 151.742 263.269 153.016 259.478 153.776C255.688 154.536 252.483 154.493 252.32 153.681C252.157 152.868 255.098 151.594 258.889 150.834C262.68 150.075 265.884 150.117 266.047 150.93Z" fill="#2F1E1E"/>
<path d="M191.182 281.182C191.345 281.994 188.404 283.268 184.613 284.028C180.823 284.788 177.618 284.745 177.455 283.933C177.292 283.12 180.233 281.846 184.024 281.086C187.814 280.327 191.019 280.369 191.182 281.182Z" fill="#2F1E1E"/>
<path d="M277.075 267.026C277.237 267.839 274.296 269.113 270.506 269.873C266.715 270.632 263.51 270.59 263.347 269.777C263.185 268.965 266.126 267.691 269.916 266.931C273.707 266.171 276.912 266.214 277.075 267.026Z" fill="#2F1E1E"/>
<path d="M294.705 217.598C294.868 218.41 291.927 219.684 288.137 220.444C284.346 221.204 281.141 221.161 280.978 220.349C280.816 219.536 283.756 218.262 287.547 217.502C291.338 216.743 294.543 216.785 294.705 217.598Z" fill="#2F1E1E"/>
<path d="M257.254 244.481C257.417 245.294 254.476 246.568 250.685 247.328C246.895 248.087 243.69 248.045 243.527 247.232C243.364 246.42 246.305 245.146 250.096 244.386C253.887 243.626 257.091 243.669 257.254 244.481Z" fill="#2F1E1E"/>
<path fill-rule="evenodd" clip-rule="evenodd" d="M14.3203 292.314C21.371 287.959 30.7837 287.669 42.5002 297.237C47.087 300.983 52.1531 305.524 57.5536 310.365C87.475 337.183 127.663 373.204 153.5 334.237C184 288.237 216 243.737 254 243.737C292 243.737 283.5 277 256.5 293.5C248.562 298.351 237.626 302.271 226.419 306.289C206.578 313.401 185.891 320.817 179.5 334.237C169.5 355.237 204 400.737 278.5 371.737C301.349 362.843 323.304 361.546 343.399 360.358C355.142 359.664 366.251 359.008 376.531 356.894C337.129 401.714 279.368 430 215 430C123.512 430 45.3705 372.857 14.3203 292.314Z" fill="#F8F9FA"/>
<path fill-rule="evenodd" clip-rule="evenodd" d="M18.0921 293.711C49.3461 371.827 125.734 427 215 427C275.361 427 329.828 401.777 368.441 361.288C360.5 362.353 352.198 362.843 343.706 363.345L343.576 363.353C323.446 364.543 301.94 365.832 279.588 374.533C241.698 389.282 213.414 385.28 195.729 374.285C186.923 368.81 180.789 361.616 177.53 354.248C174.288 346.918 173.818 339.193 176.792 332.948C180.416 325.337 187.91 319.746 196.525 315.239C205.16 310.723 215.452 307.033 225.286 303.508L225.407 303.465C236.712 299.412 247.317 295.596 254.936 290.94C267.971 282.974 275.979 271.271 276.633 262.215C276.948 257.856 275.585 254.187 272.319 251.514C268.935 248.744 263.129 246.737 254 246.737C236.216 246.737 219.45 257.158 203.079 273.839C186.744 290.482 171.263 312.877 156.001 335.895C149.208 346.139 141.24 351.769 132.444 353.651C123.733 355.515 114.681 353.601 105.851 349.716C88.3947 342.037 70.5845 326.073 55.7811 312.805L55.5512 312.599C50.1361 307.745 45.1252 303.254 40.6026 299.561C35.0501 295.026 30.2824 293.024 26.2936 292.532C23.2749 292.16 20.5536 292.634 18.0921 293.711ZM371.718 357.773C362.81 359.211 353.332 359.771 343.399 360.358C323.304 361.546 301.349 362.843 278.5 371.737C204 400.737 169.5 355.237 179.5 334.237C185.891 320.817 206.578 313.401 226.419 306.289C237.626 302.271 248.562 298.351 256.5 293.5C283.5 277 292 243.737 254 243.737C216 243.737 184 288.237 153.5 334.237C127.663 373.204 87.475 337.183 57.5536 310.365C52.1531 305.524 47.087 300.983 42.5002 297.237C30.7837 287.669 21.371 287.959 14.3203 292.314C45.3705 372.857 123.512 430 215 430C277.593 430 333.939 403.252 373.23 360.564C374.344 359.353 375.445 358.13 376.531 356.894C374.946 357.22 373.341 357.511 371.718 357.773Z" fill="#F8F9FA"/>
<path fill-rule="evenodd" clip-rule="evenodd" d="M271.795 247.526C266.365 261.891 255.606 279.324 236.999 287.5C210.229 299.262 181.814 315.631 179.779 333.67C186.475 320.607 206.858 313.3 226.418 306.288C237.625 302.271 248.561 298.351 256.499 293.5C277.943 280.395 287.718 256.716 271.795 247.526ZM14.3242 292.326C45.3776 372.862 123.516 430 214.999 430C279.367 430 337.128 401.714 376.53 356.894C366.25 359.007 355.141 359.664 343.398 360.358C333.982 360.914 324.157 361.495 314.024 362.87C313.93 374.743 305.398 396.402 227.499 406.5C151.615 416.337 62.566 359.909 48.3311 302.175C46.3142 300.419 44.3671 298.762 42.4993 297.237C30.7925 287.676 21.3856 287.958 14.3369 292.303C14.3327 292.311 14.3284 292.318 14.3242 292.326Z" fill="#E9ECEF"/>
<path fill-rule="evenodd" clip-rule="evenodd" d="M215 416C326.009 416 416 326.009 416 215C416 103.991 326.009 14 215 14C103.991 14 14 103.991 14 215C14 326.009 103.991 416 215 416ZM215 430C333.741 430 430 333.741 430 215C430 96.2588 333.741 0 215 0C96.2588 0 0 96.2588 0 215C0 333.741 96.2588 430 215 430Z" fill="#9971FF"/>
<path d="M256.403 250.21C257.463 253.64 251.052 258.669 242.082 261.442C233.112 264.216 224.981 263.684 223.92 260.255C222.86 256.825 229.271 251.796 238.241 249.023C247.211 246.249 255.342 246.781 256.403 250.21Z" fill="white"/>
<path d="M222.952 263.301C223.516 265.123 222.421 267.081 220.507 267.673C218.593 268.265 216.584 267.267 216.021 265.444C215.457 263.621 216.552 261.664 218.466 261.072C220.38 260.48 222.388 261.478 222.952 263.301Z" fill="white"/>
<path fill-rule="evenodd" clip-rule="evenodd" d="M237.51 185.079C238.891 185.079 240.01 186.199 240.01 187.579C240.01 209.875 230.909 226.668 217.647 234.126C204.225 241.673 187.326 239.227 172.962 224.607C171.995 223.622 172.009 222.039 172.994 221.071C173.979 220.104 175.561 220.118 176.529 221.103C189.615 234.423 204.098 236.008 215.196 229.768C226.453 223.437 235.01 208.623 235.01 187.579C235.01 186.199 236.129 185.079 237.51 185.079Z" fill="black"/>
<path d="M179.2 171.268L185.355 193.51C179.135 192.463 165.441 183.7 165.438 174.041C165.434 164.382 174.279 163.133 179.2 171.268Z" fill="white"/>
<path d="M179.2 171.268L185.355 193.51C190.061 189.082 197.125 173.894 192.204 165.757C187.282 157.62 179.196 161.611 179.2 171.268Z" fill="white"/>
<path fill-rule="evenodd" clip-rule="evenodd" d="M185.355 193.51C185.176 193.48 184.991 193.443 184.8 193.4C178.358 191.958 165.441 183.422 165.438 174.041C165.435 164.981 173.218 163.32 178.243 169.865C178.575 170.297 178.895 170.765 179.2 171.268C179.199 170.681 179.229 170.115 179.286 169.571C180.168 161.171 187.581 158.115 192.204 165.757C196.984 173.659 190.457 188.213 185.767 193.101C185.628 193.246 185.491 193.382 185.355 193.51ZM185.449 191.951C187.501 189.607 189.918 185.369 191.427 180.712C193.145 175.412 193.56 169.955 191.338 166.281C190.186 164.377 188.904 163.273 187.697 162.758C186.506 162.249 185.329 162.286 184.27 162.763C182.125 163.729 180.21 166.676 180.211 171.268L180.212 173.03L185.449 191.951ZM179.229 173.273L178.334 171.792C176.002 167.937 172.918 166.575 170.649 166.978C168.478 167.365 166.448 169.505 166.449 174.041C166.451 178.411 169.582 182.758 173.716 186.23C177.372 189.302 181.581 191.491 184.49 192.281L179.229 173.273Z" fill="white"/>
<path d="M220.414 161.098L226.57 183.34C220.349 182.293 206.656 173.53 206.652 163.871C206.649 154.213 215.494 152.963 220.414 161.098Z" fill="white"/>
<path d="M220.414 161.098L226.57 183.34C231.276 178.912 238.34 163.724 233.418 155.587C228.496 147.451 220.411 151.442 220.414 161.098Z" fill="white"/>
<path fill-rule="evenodd" clip-rule="evenodd" d="M226.57 183.34C226.391 183.31 226.206 183.273 226.015 183.23C219.573 181.788 206.656 173.252 206.652 163.871C206.649 154.811 214.432 153.15 219.458 159.695C219.79 160.127 220.11 160.595 220.414 161.098C220.414 160.511 220.444 159.945 220.501 159.401C221.382 151.001 228.796 147.945 233.418 155.587C238.199 163.49 231.672 178.043 226.982 182.931C226.843 183.076 226.706 183.212 226.57 183.34ZM226.664 181.781C228.716 179.438 231.133 175.199 232.642 170.542C234.359 165.242 234.775 159.785 232.553 156.111C231.401 154.207 230.119 153.104 228.912 152.588C227.721 152.079 226.544 152.116 225.485 152.593C223.339 153.559 221.425 156.506 221.426 161.098L221.427 162.86L226.664 181.781ZM220.444 163.103L219.549 161.622C217.217 157.767 214.133 156.405 211.864 156.808C209.693 157.195 207.663 159.335 207.664 163.871C207.666 168.241 210.796 172.588 214.931 176.061C218.587 179.132 222.796 181.321 225.705 182.111L220.444 163.103Z" fill="white"/>
<path d="M181.864 173.829L186.421 192.047C181.624 191.243 171.121 184.166 171.205 176.23C171.289 168.295 178.134 167.19 181.864 173.829Z" fill="#449AFF"/>
<path d="M181.864 173.829L186.421 192.047C190.097 188.367 195.692 175.826 191.961 169.185C188.231 162.544 181.947 165.896 181.864 173.829Z" fill="#449AFF"/>
<path d="M223.079 163.66L227.636 181.878C222.839 181.074 212.336 173.997 212.42 166.061C212.504 158.126 219.349 157.021 223.079 163.66Z" fill="#449AFF"/>
<path d="M223.079 163.66L227.636 181.878C231.312 178.198 236.907 165.657 233.176 159.016C229.446 152.375 223.162 155.727 223.079 163.66Z" fill="#449AFF"/>
<path fill-rule="evenodd" clip-rule="evenodd" d="M168.413 201.098C167.748 203.133 166.313 204.691 164.385 205.168C162.588 205.614 160.73 205.029 159.24 203.741C158.524 205.576 157.155 206.96 155.358 207.405C152.033 208.229 148.504 205.528 147.474 201.373C146.444 197.217 148.304 193.181 151.629 192.357C153.426 191.912 155.283 192.497 156.773 193.785C157.489 191.95 158.859 190.565 160.656 190.12C162.636 189.63 164.688 190.389 166.242 191.961C166.907 189.926 168.342 188.368 170.27 187.89C173.595 187.066 177.124 189.767 178.154 193.923C179.184 198.078 177.324 202.115 173.999 202.938C172.02 203.429 169.967 202.67 168.413 201.098Z" fill="#FD476D"/>
<path fill-rule="evenodd" clip-rule="evenodd" d="M151.842 198.245C152.174 197.695 152.888 197.518 153.438 197.849L157.194 200.113C157.744 200.445 157.921 201.159 157.589 201.709C157.258 202.259 156.543 202.436 155.993 202.105L152.238 199.841C151.688 199.509 151.511 198.795 151.842 198.245Z" fill="black"/>
<path fill-rule="evenodd" clip-rule="evenodd" d="M160.616 196.047C160.947 195.497 161.662 195.319 162.212 195.651L165.967 197.915C166.517 198.246 166.694 198.961 166.363 199.511C166.031 200.061 165.317 200.238 164.767 199.906L161.011 197.643C160.461 197.311 160.284 196.596 160.616 196.047Z" fill="black"/>
<path fill-rule="evenodd" clip-rule="evenodd" d="M168.977 194.15C169.308 193.6 170.023 193.423 170.573 193.755L174.329 196.018C174.878 196.35 175.056 197.065 174.724 197.614C174.392 198.164 173.678 198.342 173.128 198.01L169.372 195.746C168.822 195.415 168.645 194.7 168.977 194.15Z" fill="black"/>
<path fill-rule="evenodd" clip-rule="evenodd" d="M245.245 186.541C244.529 188.376 243.159 189.761 241.362 190.206C238.037 191.03 234.507 188.329 233.478 184.174C232.448 180.018 234.308 175.982 237.633 175.158C239.43 174.712 241.288 175.298 242.778 176.586C243.494 174.751 244.864 173.366 246.661 172.921C249.986 172.097 253.515 174.798 254.545 178.954C255.575 183.109 253.715 187.146 250.39 187.969C248.592 188.415 246.735 187.83 245.245 186.541Z" fill="#FD476D"/>
<path fill-rule="evenodd" clip-rule="evenodd" d="M237.844 181.047C238.176 180.497 238.89 180.319 239.44 180.651L243.196 182.915C243.746 183.246 243.923 183.961 243.591 184.511C243.26 185.061 242.545 185.238 241.995 184.906L238.24 182.643C237.69 182.311 237.513 181.596 237.844 181.047Z" fill="black"/>
<path fill-rule="evenodd" clip-rule="evenodd" d="M245.368 179.181C245.699 178.631 246.414 178.454 246.964 178.786L250.719 181.05C251.269 181.381 251.446 182.096 251.115 182.646C250.783 183.196 250.069 183.373 249.519 183.041L245.763 180.777C245.213 180.446 245.036 179.731 245.368 179.181Z" fill="black"/>
<path d="M190.559 173.245C190.559 174.363 189.879 175.269 189.041 175.269C188.203 175.269 187.523 174.363 187.523 173.245C187.523 172.128 188.203 171.222 189.041 171.222C189.879 171.222 190.559 172.128 190.559 173.245Z" fill="white"/>
<path d="M232.028 162.115C232.028 163.233 231.348 164.139 230.51 164.139C229.672 164.139 228.992 163.233 228.992 162.115C228.992 160.998 229.672 160.092 230.51 160.092C231.348 160.092 232.028 160.998 232.028 162.115Z" fill="white"/>
</svg>
