<svg width="430" height="433" viewBox="0 0 430 433" fill="none" xmlns="http://www.w3.org/2000/svg">
<path d="M430 215C430 333.741 333.741 430 215 430C96.2588 430 0 333.741 0 215C0 96.2588 96.2588 0 215 0C333.741 0 430 96.2588 430 215Z" fill="#449AFF"/>
<mask id="mask0" mask-type="alpha" maskUnits="userSpaceOnUse" x="0" y="3" width="430" height="430">
<path d="M430 218C430 336.741 333.741 433 215 433C96.2588 433 0 336.741 0 218C0 99.2588 96.2588 3 215 3C333.741 3 430 99.2588 430 218Z" fill="#449AFF"/>
</mask>
<g mask="url(#mask0)">
<path d="M282.655 194.295C294.145 192.924 298.704 179.103 299.383 167.177C299.843 154.227 293.13 142.802 282.383 137.589C280.116 137 263.81 130.827 264.245 132.876C264.835 130.609 266.448 128.124 268.062 125.639C282.215 106.566 257.3 85.0862 241.212 79.9378C235.435 77.9527 225.777 77.8635 225.777 77.8635C225.777 77.8635 222.267 76.4675 221.025 75.6606C219.782 74.8537 218.54 74.0468 217.079 72.2152C212.916 67.7451 210.802 62.8393 208.471 56.9088C206.139 50.9784 203.001 46.2904 198.837 41.8203C196.135 39.1818 190.511 32.88 186.412 33.7512C179.239 35.2759 181.046 48.815 180.368 60.7403C179.472 71.6408 177.115 80.7098 170.967 82.0166C153.329 84.6947 134.577 97.2486 127.38 113.773C123.192 124.302 121.489 136.445 120.81 148.37C120.286 155.979 122.835 162.934 128.241 168.211C125.013 173.181 120.325 176.32 116.662 179.24C112.192 183.404 107.939 188.592 107.197 195.175C103.88 209.804 110.004 223.496 120.968 229.734C120.968 229.734 62.3815 261.465 110.726 317.592L344.361 267.931C345.385 267.713 351.593 186.068 282.655 194.295Z" fill="#FFF04A"/>
<path d="M316.011 497.798L236.673 512.52C235.648 512.738 234.405 511.931 234.405 511.931L188.17 375.03L308.061 349.547L315.793 496.774C316.818 496.556 316.011 497.798 316.011 497.798Z" fill="#EEEDED"/>
<path d="M335.532 372.594C332.457 373.247 167.479 408.315 167.479 408.315C163.38 409.186 159.87 407.79 157.974 403.909L111.729 317.348L351.512 266.38C351.512 266.38 343.601 360.169 342.422 364.703C341.244 369.238 338.606 371.94 335.532 372.594Z" fill="#F8F7F7"/>
<path d="M166.301 351.674C166.503 352.625 166.443 353.553 166.12 354.457C165.814 355.357 165.236 356.146 164.385 356.824C163.551 357.499 162.463 357.979 161.121 358.264C159.098 358.694 157.328 358.555 155.809 357.848C154.291 357.14 153.285 355.915 152.79 354.173L157.43 353.187C157.642 353.852 157.994 354.337 158.485 354.641C158.993 354.942 159.57 355.023 160.216 354.886C160.777 354.767 161.186 354.52 161.444 354.145C161.702 353.771 161.777 353.328 161.668 352.818C161.571 352.36 161.336 352.01 160.965 351.769C160.611 351.524 160.194 351.356 159.712 351.263C159.227 351.153 158.564 351.045 157.725 350.939C156.503 350.79 155.489 350.615 154.682 350.413C153.889 350.191 153.153 349.779 152.474 349.177C151.809 348.555 151.353 347.666 151.108 346.51C150.88 345.44 150.955 344.455 151.333 343.558C151.71 342.661 152.332 341.907 153.197 341.297C154.075 340.666 155.135 340.218 156.375 339.955C158.381 339.528 160.071 339.666 161.446 340.369C162.838 341.068 163.788 342.234 164.295 343.867L159.579 344.869C159.367 344.292 159.047 343.872 158.618 343.608C158.202 343.323 157.696 343.244 157.102 343.371C156.592 343.479 156.204 343.704 155.939 344.044C155.691 344.381 155.623 344.813 155.735 345.34C155.825 345.765 156.039 346.101 156.376 346.349C156.726 346.577 157.134 346.739 157.598 346.836C158.063 346.932 158.726 347.04 159.586 347.159C160.825 347.304 161.851 347.495 162.665 347.73C163.475 347.949 164.221 348.368 164.904 348.986C165.586 349.605 166.052 350.501 166.301 351.674Z" fill="#005131"/>
<path d="M173.381 340.416C174.792 340.116 176.113 340.146 177.344 340.506C178.589 340.845 179.643 341.501 180.506 342.472C181.387 343.439 181.985 344.662 182.299 346.141C182.613 347.619 182.565 348.98 182.154 350.222C181.76 351.46 181.066 352.496 180.07 353.329C179.088 354.142 177.892 354.698 176.482 354.998C175.071 355.298 173.743 355.279 172.499 354.939C171.25 354.583 170.186 353.921 169.305 352.953C168.442 351.982 167.853 350.758 167.538 349.279C167.224 347.8 167.264 346.442 167.658 345.203C168.069 343.961 168.774 342.932 169.772 342.116C170.768 341.282 171.971 340.716 173.381 340.416ZM174.183 344.189C173.351 344.366 172.71 344.822 172.263 345.557C171.828 346.271 171.732 347.197 171.974 348.336C172.216 349.475 172.681 350.282 173.368 350.757C174.073 351.229 174.841 351.377 175.674 351.2C176.507 351.023 177.14 350.577 177.575 349.863C178.009 349.149 178.105 348.223 177.863 347.084C177.621 345.945 177.156 345.138 176.469 344.662C175.778 344.17 175.016 344.012 174.183 344.189Z" fill="#005131"/>
<path d="M189.663 336.954C191.074 336.655 192.395 336.685 193.626 337.045C194.871 337.384 195.925 338.039 196.789 339.01C197.669 339.978 198.267 341.201 198.581 342.679C198.896 344.158 198.847 345.518 198.436 346.76C198.042 347.999 197.348 349.035 196.352 349.868C195.37 350.681 194.174 351.237 192.764 351.537C191.353 351.837 190.025 351.817 188.781 351.478C187.533 351.121 186.468 350.459 185.587 349.492C184.724 348.521 184.135 347.296 183.82 345.817C183.506 344.339 183.546 342.98 183.94 341.742C184.351 340.5 185.056 339.471 186.055 338.654C187.05 337.821 188.253 337.254 189.663 336.954ZM190.466 340.728C189.633 340.905 188.992 341.36 188.545 342.095C188.11 342.809 188.014 343.736 188.256 344.874C188.498 346.013 188.963 346.82 189.65 347.296C190.355 347.768 191.123 347.915 191.956 347.738C192.789 347.561 193.422 347.116 193.857 346.402C194.291 345.687 194.387 344.761 194.145 343.622C193.903 342.484 193.438 341.676 192.751 341.201C192.06 340.708 191.298 340.55 190.466 340.728Z" fill="#005131"/>
<path d="M208.322 333.014C209.953 332.667 211.361 332.937 212.544 333.822C213.744 334.704 214.546 336.097 214.951 338L216.707 346.26L212.347 347.187L210.7 339.437C210.497 338.485 210.085 337.8 209.463 337.381C208.855 336.942 208.134 336.811 207.301 336.988C206.418 337.176 205.772 337.607 205.364 338.279C204.974 338.949 204.889 339.802 205.109 340.838L206.713 348.385L202.354 349.311L199.33 335.086L203.689 334.159L204.242 336.76C204.469 335.823 204.93 335.023 205.624 334.361C206.335 333.694 207.234 333.246 208.322 333.014Z" fill="#005131"/>
<path d="M238.976 332.066C239.351 333.834 239.303 335.487 238.831 337.027C238.372 338.545 237.51 339.839 236.245 340.907C234.997 341.972 233.413 342.708 231.493 343.117L224.686 344.564L220.854 326.54L227.661 325.093C229.598 324.681 231.352 324.699 232.921 325.147C234.491 325.594 235.794 326.419 236.831 327.619C237.885 328.817 238.6 330.299 238.976 332.066ZM230.281 339.297C231.98 338.936 233.202 338.206 233.945 337.106C234.705 336.003 234.912 334.636 234.565 333.004C234.218 331.372 233.473 330.207 232.33 329.509C231.204 328.807 229.791 328.637 228.091 328.998L226.026 329.437L228.216 339.736L230.281 339.297Z" fill="#005131"/>
<path d="M246.974 324.77C248.385 324.47 249.706 324.5 250.937 324.86C252.182 325.2 253.236 325.855 254.099 326.826C254.98 327.793 255.578 329.016 255.892 330.495C256.206 331.974 256.158 333.334 255.747 334.576C255.353 335.814 254.659 336.85 253.663 337.684C252.681 338.496 251.485 339.053 250.074 339.353C248.664 339.653 247.336 339.633 246.092 339.293C244.843 338.937 243.779 338.275 242.898 337.308C242.035 336.337 241.446 335.112 241.131 333.633C240.817 332.155 240.857 330.796 241.251 329.558C241.662 328.316 242.367 327.286 243.365 326.47C244.361 325.637 245.564 325.07 246.974 324.77ZM247.776 328.543C246.944 328.72 246.303 329.176 245.856 329.911C245.421 330.625 245.325 331.551 245.567 332.69C245.809 333.829 246.274 334.636 246.961 335.112C247.666 335.584 248.434 335.731 249.267 335.554C250.1 335.377 250.733 334.931 251.168 334.217C251.602 333.503 251.698 332.577 251.456 331.438C251.214 330.299 250.749 329.492 250.062 329.017C249.371 328.524 248.609 328.366 247.776 328.543Z" fill="#005131"/>
<path d="M273.605 324.464C274.747 324.488 275.717 324.833 276.516 325.498C277.331 326.159 277.851 327.017 278.075 328.07C278.404 329.617 278.142 330.934 277.29 332.021C276.454 333.105 275.076 333.851 273.156 334.259L264.768 336.042L260.937 318.018L269.12 316.278C270.956 315.888 272.46 315.986 273.632 316.571C274.805 317.157 275.548 318.189 275.863 319.668C276.094 320.756 275.998 321.726 275.576 322.58C275.15 323.417 274.493 324.045 273.605 324.464ZM266.862 324.459L269.718 323.852C271.23 323.53 271.849 322.724 271.575 321.432C271.3 320.14 270.389 319.659 268.843 319.988L266.039 320.584L266.862 324.459ZM271.485 330.911C273.099 330.567 273.766 329.733 273.484 328.407C273.347 327.761 273.028 327.305 272.527 327.038C272.022 326.755 271.379 326.696 270.598 326.862L267.513 327.518L268.375 331.572L271.485 330.911Z" fill="#005131"/>
<path d="M285.016 316.683C286.426 316.383 287.747 316.413 288.978 316.773C290.223 317.112 291.277 317.767 292.141 318.738C293.021 319.706 293.619 320.929 293.933 322.408C294.248 323.886 294.199 325.247 293.788 326.489C293.394 327.727 292.7 328.763 291.705 329.596C290.723 330.409 289.526 330.965 288.116 331.265C286.705 331.565 285.378 331.545 284.133 331.206C282.885 330.85 281.82 330.188 280.94 329.22C280.076 328.249 279.487 327.024 279.173 325.546C278.858 324.067 278.898 322.709 279.292 321.47C279.703 320.228 280.408 319.199 281.407 318.383C282.402 317.549 283.605 316.983 285.016 316.683ZM285.818 320.456C284.985 320.633 284.345 321.089 283.897 321.823C283.462 322.538 283.366 323.464 283.608 324.603C283.851 325.741 284.315 326.549 285.003 327.024C285.707 327.496 286.475 327.644 287.308 327.467C288.141 327.289 288.775 326.844 289.209 326.13C289.643 325.416 289.74 324.489 289.497 323.351C289.255 322.212 288.791 321.405 288.103 320.929C287.412 320.437 286.651 320.279 285.818 320.456Z" fill="#005131"/>
<path d="M301.298 313.221C302.708 312.921 304.029 312.951 305.26 313.311C306.505 313.651 307.559 314.306 308.423 315.277C309.304 316.244 309.901 317.467 310.215 318.946C310.53 320.425 310.481 321.785 310.07 323.027C309.677 324.265 308.982 325.301 307.987 326.135C307.005 326.947 305.809 327.504 304.398 327.804C302.987 328.103 301.66 328.084 300.415 327.744C299.167 327.388 298.102 326.726 297.222 325.759C296.358 324.788 295.769 323.563 295.455 322.084C295.14 320.606 295.18 319.247 295.574 318.009C295.985 316.767 296.69 315.737 297.689 314.921C298.684 314.088 299.887 313.521 301.298 313.221ZM302.1 316.994C301.267 317.171 300.627 317.627 300.179 318.362C299.745 319.076 299.648 320.002 299.89 321.141C300.133 322.28 300.597 323.087 301.285 323.563C301.989 324.035 302.757 324.182 303.59 324.005C304.423 323.828 305.057 323.382 305.491 322.668C305.925 321.954 306.022 321.028 305.78 319.889C305.537 318.75 305.073 317.943 304.385 317.468C303.694 316.975 302.933 316.817 302.1 316.994Z" fill="#005131"/>
<path d="M263.222 133.094L234.53 139.193C237.386 137.515 251.078 131.391 253.935 129.713C259.647 126.357 265.628 122.661 271.341 119.304C271.341 119.304 267.103 131.198 263.222 133.094Z" fill="#FFDB1E"/>
<path d="M286.972 194.449C285.947 194.667 284.922 194.885 283.898 195.103C276.725 196.627 269.552 198.152 262.379 199.677C255.206 201.201 197.384 213.492 197.384 213.492L256.219 192.658C256.219 192.658 266.501 188.485 271.406 186.371C281.218 182.144 291.029 177.916 299.381 171.857C297.985 175.367 296.758 184.958 291.442 190.286C290.635 191.529 288.946 193.495 288.946 193.495C288.946 193.495 287.996 194.231 286.972 194.449Z" fill="#FFDB1E"/>
<path d="M336.172 219.335C336.172 219.335 335.994 238.651 325.222 248.438C314.668 259.249 294.238 268.947 291.163 269.6L346.498 257.839C345.473 258.056 344.127 231.567 336.172 219.335Z" fill="#FFDB1E"/>
<path fill-rule="evenodd" clip-rule="evenodd" d="M163.455 93.8039C164.188 95.2898 163.578 97.0885 162.092 97.8215C149.937 103.818 143.539 113.118 140.155 120.973C138.459 124.908 137.528 128.466 137.022 131.029C136.77 132.309 136.625 133.334 136.543 134.027C136.503 134.373 136.478 134.635 136.464 134.804C136.457 134.888 136.453 134.949 136.45 134.985L136.448 135.018L136.448 135.021C136.359 136.674 134.948 137.943 133.294 137.856C131.64 137.769 130.369 136.357 130.456 134.702L133.452 134.86C130.456 134.702 130.456 134.701 130.457 134.699L130.457 134.696L130.457 134.686L130.459 134.661C130.46 134.64 130.462 134.613 130.464 134.58C130.468 134.513 130.475 134.421 130.485 134.305C130.504 134.073 130.535 133.743 130.584 133.327C130.682 132.496 130.85 131.315 131.136 129.868C131.706 126.978 132.748 122.999 134.644 118.598C138.443 109.781 145.701 99.2172 159.438 92.4407C160.924 91.7077 162.722 92.318 163.455 93.8039Z" fill="white"/>
<path fill-rule="evenodd" clip-rule="evenodd" d="M331.969 181.561C331.855 180.74 332.428 179.983 333.249 179.869L333.455 181.354" fill="black"/>
<path fill-rule="evenodd" clip-rule="evenodd" d="M334.46 162.511C333.709 162.861 333.384 163.754 333.734 164.504C334.084 165.255 334.976 165.58 335.727 165.231L335.727 165.23" fill="black"/>
<path fill-rule="evenodd" clip-rule="evenodd" d="M87.6603 167.819C87.6609 167.819 87.6614 167.819 87.7766 169.314L87.6614 167.819C88.4873 167.755 89.2085 168.373 89.2722 169.199C89.3358 170.025 88.7183 170.746 87.8929 170.81C87.8928 170.81 87.8929 170.81 87.8929 170.81L87.8918 170.81L87.8877 170.81L87.8614 170.813C87.8366 170.815 87.7974 170.818 87.7447 170.823C87.6393 170.834 87.48 170.851 87.2741 170.876C86.862 170.926 86.2645 171.009 85.5383 171.139C84.0812 171.4 82.13 171.848 80.1281 172.591C76.0324 174.112 72.2013 176.678 71.2991 180.937C71.1274 181.747 70.3312 182.265 69.5208 182.093C68.7103 181.922 68.1926 181.125 68.3643 180.315C69.6006 174.48 74.742 171.391 79.0841 169.779C81.3011 168.956 83.4352 168.468 85.0085 168.186C85.7976 168.044 86.4517 167.953 86.9123 167.897C87.1428 167.869 87.3253 167.85 87.4524 167.838C87.516 167.831 87.5658 167.827 87.6009 167.824L87.6425 167.82L87.6548 167.819L87.6603 167.819Z" fill="black"/>
<path fill-rule="evenodd" clip-rule="evenodd" d="M96.1858 177.614C96.1853 177.614 96.1849 177.614 96.1844 177.614L96.151 177.627C96.1208 177.639 96.0721 177.658 96.0065 177.685C95.8751 177.739 95.6763 177.824 95.4225 177.942C94.9144 178.177 94.1891 178.542 93.3454 179.052C91.6519 180.075 89.5169 181.659 87.6956 183.911C85.8827 186.153 84.3791 189.056 83.9182 192.76C83.457 196.467 84.0272 201.079 86.5264 206.754C86.8603 207.512 86.5164 208.397 85.7582 208.731C85 209.065 84.1147 208.721 83.7809 207.963C81.1046 201.886 80.4014 196.728 80.9412 192.39C81.4814 188.049 83.2534 184.633 85.363 182.025C87.4642 179.427 89.8986 177.63 91.7939 176.485C92.7446 175.91 93.5686 175.494 94.1611 175.22C94.4577 175.082 94.697 174.98 94.8663 174.91C94.951 174.875 95.0182 174.849 95.0663 174.83C95.0904 174.821 95.1097 174.814 95.124 174.808L95.1418 174.801L95.1478 174.799L95.1501 174.798C95.1511 174.798 95.152 174.798 95.6682 176.206L95.152 174.798C95.9298 174.513 96.7915 174.912 97.0766 175.69C97.3614 176.467 96.9631 177.328 96.1869 177.614C96.1868 177.614 96.187 177.614 96.1869 177.614L96.1858 177.614Z" fill="black"/>
<path d="M357.362 278.889L106.112 331.159L97.8582 312.481C97.6273 311.395 98.4211 310.091 99.4456 309.873L357.637 254.993C358.662 254.775 359.917 255.643 360.148 256.729L357.925 276.499C358.156 277.586 357.362 278.889 357.362 278.889Z" fill="white"/>
<path d="M357.388 278.885L106.137 331.154L97.8836 312.476C97.6527 311.39 98.4464 310.086 99.471 309.868L357.663 254.988C358.687 254.77 359.943 255.638 360.174 256.724L357.951 276.495C358.182 277.581 357.388 278.885 357.388 278.885Z" fill="white"/>
<path opacity="0.6" d="M186.077 71.4633C189.419 67.8232 188.46 54.5233 187.563 48.3284C193.713 64.2494 195.851 70.2961 192.245 75.6783C188.639 81.0605 181.9 76.0135 186.077 71.4633Z" fill="white" fill-opacity="0.8"/>
<path opacity="0.6" fill-rule="evenodd" clip-rule="evenodd" d="M187.438 47.8454C187.684 47.7809 187.939 47.9115 188.031 48.1489C191.1 56.094 193.191 61.6309 194.054 65.856C194.924 70.1151 194.562 73.121 192.662 75.9573C191.698 77.3963 190.493 78.1794 189.271 78.4214C188.055 78.6622 186.865 78.3577 185.952 77.7024C185.039 77.0474 184.391 76.0329 184.275 74.8478C184.158 73.6549 184.586 72.3502 185.71 71.1259C186.449 70.3205 186.994 68.9202 187.356 67.0879C187.714 65.2731 187.878 63.1087 187.911 60.8473C187.976 56.3259 187.515 51.4795 187.069 48.4007C187.033 48.1489 187.191 47.9099 187.438 47.8454ZM188.528 52.2294C188.778 54.8697 188.953 57.9298 188.911 60.8618C188.878 63.1548 188.711 65.3851 188.337 67.2814C187.966 69.1602 187.378 70.7875 186.446 71.8022C185.482 72.8529 185.185 73.8854 185.27 74.7504C185.355 75.6231 185.834 76.3871 186.535 76.8899C187.235 77.3924 188.146 77.6249 189.077 77.4404C190.002 77.2572 190.992 76.6529 191.831 75.4007C193.537 72.8548 193.909 70.1463 193.074 66.0561C192.37 62.6074 190.819 58.2336 188.528 52.2294Z" fill="white"/>
<path opacity="0.4" d="M106.128 275.904C102.697 259.763 117.413 244.166 125.2 238.385C108.798 271.211 144.76 285.113 138.274 286.95C131.788 288.787 110.417 296.081 106.128 275.904Z" fill="white" fill-opacity="0.8"/>
<path opacity="0.4" fill-rule="evenodd" clip-rule="evenodd" d="M125.521 238.002C125.698 238.151 125.75 238.402 125.647 238.609C121.588 246.733 120.783 253.651 121.728 259.484C122.674 265.324 125.38 270.119 128.411 273.98C130.985 277.259 133.777 279.846 135.919 281.83C136.303 282.186 136.666 282.522 137.003 282.84C137.555 283.36 138.043 283.834 138.437 284.26C138.826 284.681 139.146 285.08 139.342 285.448C139.532 285.805 139.665 286.247 139.469 286.672C139.279 287.087 138.857 287.305 138.409 287.432C138.105 287.518 137.766 287.617 137.395 287.725C133.862 288.756 127.493 290.613 121.341 290.182C117.931 289.942 114.548 288.999 111.739 286.794C108.923 284.585 106.73 281.146 105.638 276.009C103.885 267.758 106.776 259.687 111.035 252.992C115.296 246.293 120.967 240.905 124.902 237.984C125.087 237.846 125.344 237.854 125.521 238.002ZM111.879 253.529C107.691 260.112 104.939 267.91 106.616 275.801C107.669 280.752 109.756 283.967 112.356 286.008C114.962 288.052 118.132 288.954 121.411 289.184C127.371 289.602 133.564 287.799 137.114 286.765C137.485 286.657 137.827 286.557 138.137 286.47C138.5 286.367 138.557 286.261 138.561 286.254L138.561 286.254C138.562 286.252 138.57 286.236 138.562 286.186C138.553 286.13 138.526 286.042 138.46 285.918C138.325 285.666 138.076 285.343 137.702 284.939C137.333 284.54 136.866 284.085 136.317 283.568C135.987 283.257 135.63 282.926 135.249 282.573C133.108 280.59 130.252 277.945 127.624 274.598C124.526 270.65 121.722 265.701 120.741 259.644C119.836 254.055 120.489 247.559 123.841 240.084C120.156 243.11 115.496 247.842 111.879 253.529Z" fill="white"/>
<path opacity="0.4" d="M130.496 218.006C104.885 206.213 120.16 187.349 130.999 179.391C115.007 209.837 136.033 203.076 138.271 213.603C140.061 222.024 133.834 220.047 130.496 218.006Z" fill="white" fill-opacity="0.8"/>
<path opacity="0.4" fill-rule="evenodd" clip-rule="evenodd" d="M131.324 179.012C131.501 179.164 131.549 179.418 131.441 179.624C127.454 187.214 125.808 192.426 125.572 196.133C125.339 199.8 126.484 201.995 128.146 203.608C128.992 204.428 129.982 205.108 131.032 205.755C131.44 206.006 131.867 206.258 132.298 206.512C132.946 206.895 133.602 207.282 134.213 207.679C136.287 209.026 138.158 210.672 138.759 213.499C139.215 215.642 139.182 217.213 138.744 218.316C138.289 219.461 137.418 220.043 136.391 220.221C135.399 220.393 134.272 220.19 133.212 219.838C132.154 219.486 131.115 218.969 130.26 218.448C123.815 215.476 119.876 212.031 117.81 208.362C115.734 204.676 115.581 200.825 116.596 197.128C118.613 189.781 125.251 182.991 130.702 178.988C130.89 178.851 131.148 178.861 131.324 179.012ZM118.681 207.871C120.612 211.3 124.36 214.63 130.705 217.552C130.723 217.56 130.74 217.569 130.757 217.58C131.566 218.075 132.546 218.563 133.528 218.889C134.519 219.219 135.462 219.367 136.22 219.236C136.943 219.11 137.502 218.735 137.815 217.946C138.146 217.115 138.22 215.775 137.781 213.707C137.263 211.271 135.667 209.815 133.669 208.518C133.066 208.126 132.453 207.765 131.826 207.395C131.393 207.14 130.954 206.881 130.507 206.606C129.436 205.946 128.373 205.222 127.45 204.326C125.576 202.508 124.322 200.027 124.574 196.07C124.801 192.503 126.25 187.74 129.533 181.156C124.582 185.174 119.281 191.123 117.56 197.393C116.603 200.882 116.756 204.454 118.681 207.871Z" fill="white"/>
<path d="M349.872 279.565L118.285 328.79L348.486 303.239L349.872 279.565Z" fill="#E9ECEF"/>
<path d="M211.946 163.38C217.488 162.202 220.495 154.259 218.662 145.639C216.83 137.019 210.853 130.986 205.311 132.164C199.77 133.342 196.763 141.285 198.595 149.905C200.427 158.525 206.405 164.558 211.946 163.38Z" fill="white"/>
<path d="M209.4 132.298C206.529 135.239 204.37 141.524 205.792 148.213C207.213 154.902 211.743 159.765 215.561 161.284C218.432 158.344 220.592 152.058 219.17 145.369C217.748 138.68 213.219 133.817 209.4 132.298Z" fill="#231F20"/>
<path d="M179.608 170.255C185.15 169.077 188.157 161.134 186.324 152.514C184.492 143.894 178.515 137.861 172.973 139.039C167.432 140.217 164.425 148.16 166.257 156.78C168.089 165.4 174.067 171.433 179.608 170.255Z" fill="white"/>
<path d="M177.121 139.159C174.25 142.1 172.09 148.385 173.512 155.074C174.934 161.763 179.464 166.627 183.282 168.146C186.153 165.205 188.312 158.92 186.891 152.231C185.469 145.541 180.939 140.678 177.121 139.159Z" fill="#231F20"/>
<path fill-rule="evenodd" clip-rule="evenodd" d="M153.154 144.412C152.892 143.181 153.678 141.97 154.909 141.709L174.977 137.443C176.208 137.181 177.419 137.968 177.681 139.199C177.942 140.43 177.156 141.641 175.925 141.903L155.857 146.168C154.626 146.43 153.415 145.644 153.154 144.412Z" fill="#231F20"/>
<path fill-rule="evenodd" clip-rule="evenodd" d="M185.468 137.543C185.206 136.312 185.992 135.101 187.224 134.84L207.291 130.574C208.523 130.312 209.733 131.098 209.995 132.33C210.257 133.561 209.471 134.772 208.239 135.034L188.172 139.299C186.94 139.561 185.73 138.775 185.468 137.543Z" fill="#231F20"/>
<path fill-rule="evenodd" clip-rule="evenodd" d="M157.725 191.899C157.387 190.309 158.167 188.797 159.466 188.52L221.827 175.265C223.126 174.989 224.454 176.054 224.792 177.643C225.13 179.233 224.35 180.746 223.05 181.022L160.69 194.277C159.39 194.553 158.063 193.488 157.725 191.899Z" fill="black"/>
<path fill-rule="evenodd" clip-rule="evenodd" d="M228.209 168.971C228.209 168.971 228.209 168.971 228.209 168.971L228.21 168.971C228.209 168.971 228.209 168.971 228.209 168.971ZM228.211 168.97C228.211 168.97 228.211 168.97 228.211 168.97L228.212 168.969C228.212 168.969 228.212 168.969 228.211 168.969C228.211 168.969 228.211 168.969 228.211 168.97C228.211 168.97 228.211 168.97 228.211 168.97C228.211 168.97 228.211 168.97 228.211 168.97Z" fill="black"/>
</g>
</svg>
