<svg width="430" height="430" viewBox="0 0 430 430" fill="none" xmlns="http://www.w3.org/2000/svg">
<path d="M430 215C430 333.741 333.741 430 215 430C96.2588 430 0 333.741 0 215C0 96.2588 96.2588 0 215 0C333.741 0 430 96.2588 430 215Z" fill="#4CE6B7"/>
<mask id="mask0" mask-type="alpha" maskUnits="userSpaceOnUse" x="0" y="0" width="430" height="430">
<path d="M430 215C430 333.741 333.741 430 215 430C96.2588 430 0 333.741 0 215C0 96.2588 96.2588 0 215 0C333.741 0 430 96.2588 430 215Z" fill="#4CE6B7"/>
</mask>
<g mask="url(#mask0)">
<path fill-rule="evenodd" clip-rule="evenodd" d="M309.466 429.891C335.853 424.282 352.698 398.343 347.089 371.956C341.48 345.568 315.542 328.724 289.154 334.333C262.767 339.941 245.922 365.88 251.531 392.267C257.14 418.655 283.078 435.499 309.466 429.891ZM313.611 449.392C350.769 441.494 374.489 404.969 366.591 367.811C358.692 330.653 322.167 306.933 285.009 314.831C247.851 322.729 224.131 359.254 232.029 396.412C239.928 433.571 276.453 457.29 313.611 449.392Z" fill="#9971FF"/>
<path fill-rule="evenodd" clip-rule="evenodd" d="M443.722 323.135L443.981 324.354L443.914 324.368C446.197 347.074 381.308 379.46 296.953 397.39C212.598 415.32 140.147 412.127 132.997 390.455L132.93 390.47L132.671 389.251L129.199 372.918L141.901 370.218C162.664 350.516 215.451 328.597 279.44 314.996C343.428 301.395 400.567 299.948 427.549 309.502L440.25 306.802L443.722 323.135Z" fill="#6D31FF"/>
<path d="M440.095 306.072C444.931 328.824 379.22 362.069 293.326 380.327C207.432 398.584 133.88 394.94 129.044 372.187C124.208 349.435 189.918 316.19 275.813 297.932C361.707 279.675 435.259 283.319 440.095 306.072Z" fill="#9971FF"/>
<path d="M273.888 56.6843C273.217 56.377 272.464 56.294 271.742 56.4475L180.845 75.7683C180.123 75.9218 179.47 76.3036 178.981 76.8573L140.585 120.412L194.411 145.058L287.532 125.264L326.68 80.8566L273.888 56.6843Z" fill="#FD476D"/>
<path fill-rule="evenodd" clip-rule="evenodd" d="M272.157 58.3976L181.259 77.7185C180.956 77.7829 180.682 77.9432 180.477 78.1757L143.856 119.717L194.641 142.971L286.472 123.451L323.409 81.5518L273.058 58.4971C272.776 58.3681 272.46 58.3332 272.157 58.3976ZM273.888 56.6843C273.217 56.377 272.464 56.294 271.742 56.4475L180.845 75.7683C180.123 75.9218 179.47 76.3036 178.981 76.8573L140.585 120.412L194.411 145.058L287.532 125.264L326.68 80.8566L273.888 56.6843Z" fill="#FD476D"/>
<path d="M309.513 290.89L241.695 305.305L213.2 337.621L252.406 355.699L320.225 341.284L348.689 308.822L309.513 290.89Z" fill="#CDBDFF"/>
<path fill-rule="evenodd" clip-rule="evenodd" d="M242.754 307.118L216.466 336.931L252.64 353.611L319.162 339.472L345.424 309.52L309.283 292.977L242.754 307.118ZM309.513 290.89L241.695 305.305L213.2 337.621L252.406 355.699L320.225 341.284L348.689 308.822L309.513 290.89Z" fill="#FF96AB"/>
<path d="M308.049 134.264L179.327 161.624L125.073 223.217L199.657 257.27L328.379 229.91L382.664 168.464L308.049 134.264Z" fill="#CDBDFF"/>
<path fill-rule="evenodd" clip-rule="evenodd" d="M180.387 163.437L128.345 222.519L199.887 255.183L327.321 228.096L379.392 169.157L307.818 136.351L180.387 163.437ZM308.049 134.264L179.327 161.624L125.073 223.217L199.657 257.27L328.379 229.91L382.664 168.464L308.049 134.264Z" fill="#FF96AB"/>
<path d="M140.584 120.412C139.422 129.412 125.072 223.216 125.072 223.216L199.656 257.27L194.41 145.058L140.584 120.412Z" fill="#E94164"/>
<path fill-rule="evenodd" clip-rule="evenodd" d="M127.271 222.028L197.512 254.099L192.475 146.365L142.19 123.341C141.001 131.656 137.624 154.023 134.363 175.489C132.497 187.777 130.667 199.784 129.304 208.719C128.622 213.187 128.057 216.886 127.662 219.469L127.271 222.028ZM140.3 122.475C137.97 138.901 125.072 223.216 125.072 223.216L199.656 257.27L194.41 145.058L140.584 120.412C140.524 120.88 140.428 121.576 140.3 122.475Z" fill="#E94164"/>
<path d="M194.412 145.058L199.658 257.27L328.38 229.909L287.533 125.265L194.412 145.058Z" fill="#FD476D"/>
<path fill-rule="evenodd" clip-rule="evenodd" d="M199.658 257.27L328.38 229.909L287.533 125.265L194.412 145.058L199.658 257.27ZM196.482 146.656L201.54 254.832L325.669 228.447L286.291 127.567L196.482 146.656Z" fill="#FD476D"/>
<path d="M287.531 125.264C288.272 133.092 328.526 229.878 328.526 229.878L382.811 168.432L326.826 80.8254L287.531 125.264Z" fill="#FF6181"/>
<path fill-rule="evenodd" clip-rule="evenodd" d="M328.526 229.878L382.811 168.432L326.826 80.8254L287.531 125.264C288.208 132.415 321.863 213.813 327.675 227.829C328.225 229.155 328.526 229.878 328.526 229.878ZM329.144 226.166L380.321 168.239L326.569 84.1257L289.669 125.856C289.75 126.192 289.867 126.626 290.026 127.166C290.349 128.263 290.809 129.672 291.39 131.357C292.551 134.723 294.176 139.122 296.112 144.202C299.983 154.359 305.079 167.177 310.155 179.76C315.231 192.342 320.284 204.68 324.068 213.874C325.96 218.47 327.535 222.28 328.637 224.941C328.819 225.381 328.988 225.79 329.144 226.166Z" fill="#FF96AB"/>
<path d="M125.074 223.216L213.201 337.62L252.408 355.699L199.658 257.269L125.074 223.216Z" fill="#E94164"/>
<path fill-rule="evenodd" clip-rule="evenodd" d="M214.481 336.015L131.56 228.369L198.219 258.804L247.841 351.397L214.481 336.015ZM252.408 355.699L213.201 337.62L125.074 223.216L199.658 257.269L252.408 355.699Z" fill="#E94164"/>
<path d="M199.658 257.27L252.408 355.699L320.226 341.284L328.38 229.909L199.658 257.27Z" fill="#FD476D"/>
<path fill-rule="evenodd" clip-rule="evenodd" d="M253.458 353.437L202.67 258.668L326.198 232.411L318.347 339.645L253.458 353.437ZM320.226 341.284L252.408 355.699L199.658 257.27L328.38 229.909L320.226 341.284Z" fill="#FF96AB"/>
<path d="M328.379 229.909L320.224 341.283L348.131 309.457C348.497 309.039 348.757 308.539 348.887 307.999L382.664 168.463L328.379 229.909Z" fill="#FF6181"/>
<path fill-rule="evenodd" clip-rule="evenodd" d="M320.224 341.283L348.131 309.457C348.497 309.039 348.757 308.539 348.887 307.999L382.664 168.463L328.379 229.909L320.224 341.283ZM330.318 230.725L322.647 335.496L346.632 308.142C346.786 307.967 346.895 307.757 346.95 307.53L378.834 175.809L330.318 230.725Z" fill="#FF96AB"/>
<path fill-rule="evenodd" clip-rule="evenodd" d="M208.781 78.5431C183.389 83.5364 173.89 96.2224 172.29 101.566C172.132 102.093 171.576 102.393 171.049 102.235C170.521 102.077 170.222 101.521 170.38 100.994C172.257 94.7277 182.527 81.6739 208.396 76.5868C208.936 76.4806 209.46 76.8324 209.566 77.3726C209.673 77.9128 209.321 78.4368 208.781 78.5431Z" fill="white"/>
<path d="M225.848 198.331C221.168 198.151 217.601 192.119 217.88 184.857C218.159 177.595 222.178 171.854 226.858 172.034C231.537 172.214 235.104 178.246 234.825 185.508C234.546 192.769 230.527 198.51 225.848 198.331Z" fill="white"/>
<path d="M223.981 172.683C226.732 174.675 229.376 179.49 229.159 185.138C228.942 190.787 226.123 195.796 223.226 197.57C219.884 196.021 217.645 190.353 217.862 184.704C218.079 179.056 220.143 174.422 223.981 172.683Z" fill="#231F20"/>
<path d="M255.662 195.623C250.983 195.443 247.416 189.411 247.695 182.149C247.974 174.887 251.993 169.146 256.672 169.326C261.351 169.506 264.918 175.538 264.639 182.8C264.361 190.061 260.341 195.802 255.662 195.623Z" fill="white"/>
<path d="M253.795 169.975C256.547 171.967 259.19 176.782 258.973 182.43C258.756 188.079 255.937 193.088 253.041 194.862C249.698 193.313 247.46 187.645 247.677 181.996C247.894 176.348 249.957 171.714 253.795 169.975Z" fill="#231F20"/>
<path d="M239.775 207.799C240.736 207.799 241.697 219.326 241.697 220.286C242.657 226.05 243.618 232.774 247.46 235.656C249.381 236.617 250.342 237.577 252.263 237.577C267.633 239.498 267.633 215.484 267.633 205.878C267.633 205.878 267.633 201.075 267.633 202.035C268.593 202.996 240.736 207.799 239.775 207.799Z" fill="white"/>
<path fill-rule="evenodd" clip-rule="evenodd" d="M298.42 195.614C298.784 197.231 297.768 198.836 296.151 199.199L210.658 218.411C209.042 218.774 207.437 217.758 207.074 216.142C206.71 214.525 207.726 212.92 209.343 212.557L294.836 193.345C296.452 192.982 298.057 193.998 298.42 195.614Z" fill="#231F20"/>
<path fill-rule="evenodd" clip-rule="evenodd" d="M251.971 203.855C253.62 203.69 255.09 204.893 255.255 206.542L252.27 206.84L249.285 207.139C249.12 205.49 250.323 204.02 251.971 203.855ZM252.27 206.84C249.285 207.139 249.285 207.138 249.285 207.139L249.367 207.965C249.42 208.492 249.495 209.245 249.585 210.153C249.765 211.968 250.005 214.398 250.245 216.857C250.485 219.318 250.724 221.804 250.904 223.733C250.993 224.699 251.068 225.519 251.119 226.124C251.155 226.547 251.174 226.8 251.183 226.923C251.189 227.003 251.191 227.029 251.191 227.013C251.191 228.669 252.534 230.013 254.191 230.013C255.848 230.013 257.191 228.669 257.191 227.013C257.191 226.589 257.046 224.989 256.878 223.177C256.697 221.234 256.456 218.738 256.216 216.275C255.976 213.811 255.735 211.378 255.555 209.561C255.465 208.652 255.39 207.898 255.338 207.37L255.255 206.542C255.255 206.541 255.255 206.542 252.27 206.84Z" fill="#231F20"/>
<path fill-rule="evenodd" clip-rule="evenodd" d="M145.169 86.0037C145.573 86.7273 145.313 87.6409 144.589 88.0443C120.891 101.257 118.03 125.14 119.541 135.343C119.662 136.163 119.096 136.925 118.277 137.047C117.457 137.168 116.695 136.602 116.573 135.783C114.943 124.775 118.005 99.4311 143.129 85.424C143.852 85.0206 144.766 85.2801 145.169 86.0037Z" fill="#231F20"/>
<path fill-rule="evenodd" clip-rule="evenodd" d="M129.93 82.0114C130.183 82.8001 129.749 83.6449 128.96 83.8984C113.518 88.8617 109.026 102.758 108.714 109.02C108.672 109.847 107.968 110.484 107.141 110.443C106.313 110.402 105.676 109.698 105.717 108.87C106.069 101.829 111.021 86.5131 128.043 81.0423C128.831 80.7888 129.676 81.2227 129.93 82.0114Z" fill="#231F20"/>
</g>
</svg>
