<svg width="430" height="430" viewBox="0 0 430 430" fill="none" xmlns="http://www.w3.org/2000/svg">
<path d="M430 215C430 333.741 333.741 430 215 430C96.2588 430 0 333.741 0 215C0 96.2588 96.2588 0 215 0C333.741 0 430 96.2588 430 215Z" fill="#FFCF52"/>
<mask id="mask0" mask-type="alpha" maskUnits="userSpaceOnUse" x="0" y="0" width="430" height="430">
<path d="M430 215C430 333.741 333.741 430 215 430C96.2588 430 0 333.741 0 215C0 96.2588 96.2588 0 215 0C333.741 0 430 96.2588 430 215Z" fill="#FFCF52"/>
</mask>
<g mask="url(#mask0)">
<path d="M213.961 380.477L251.506 374.617L272.631 509.979L235.085 515.838L213.961 380.477Z" fill="#E9ECEF"/>
<path d="M213.961 380.477L251.506 374.617L253.974 390.426L215.117 387.887L213.961 380.477Z" fill="#231F20"/>
<path d="M112.2 29.9756C110.837 21.2448 116.81 13.0624 125.541 11.6999L223.357 -3.56521C232.088 -4.92775 240.27 1.04547 241.633 9.77635L253.737 87.3375L262.874 181.555L282.879 274.077L294.984 351.638C296.346 360.369 290.373 368.552 281.642 369.914L183.826 385.179C175.095 386.542 166.913 380.569 165.55 371.838L153.446 294.277L145.297 199.904L124.304 107.537L112.2 29.9756Z" fill="#E51641"/>
<path d="M125.542 117.758L148.172 7.46042C148.339 6.64259 148.998 6.01503 149.822 5.8863L200.483 -2.01975C201.976 -2.25273 203.178 -0.809827 202.679 0.616413L141.729 174.939C141.064 176.841 138.321 176.677 137.888 174.708L125.548 118.59C125.488 118.316 125.486 118.033 125.542 117.758Z" fill="#FD476D"/>
<path d="M155.057 305.937L233.626 -1.67461C233.7 -1.96337 233.939 -2.18039 234.233 -2.22635C237.486 -2.73391 240.534 -0.508811 241.041 2.74356L252.061 73.3561C252.095 73.5731 252.093 73.7942 252.055 74.0106L197.828 382.635C197.68 383.478 197.012 384.133 196.167 384.265L182.498 386.399C173.767 387.761 165.585 381.788 164.222 373.057L154.751 312.364C154.417 310.223 154.521 308.036 155.057 305.937Z" fill="#FD476D"/>
<path d="M250.039 373.26L270.037 223.332C270.335 221.097 273.528 220.987 273.979 223.196L284.197 273.271C284.409 274.31 284.517 275.368 284.519 276.429L284.751 367.006C284.756 368.981 283.319 370.664 281.368 370.969L252.329 375.5C251.009 375.706 249.862 374.585 250.039 373.26Z" fill="#FD476D"/>
<path fill-rule="evenodd" clip-rule="evenodd" d="M229.67 35.0813C230.742 35.3497 231.393 36.4358 231.124 37.5073L213.052 109.657C212.784 110.728 211.698 111.379 210.626 111.111C209.555 110.842 208.904 109.756 209.172 108.685L227.244 36.5354C227.513 35.4639 228.599 34.8129 229.67 35.0813ZM186.337 208.082C187.409 208.35 188.06 209.436 187.791 210.508L162.53 311.359C162.262 312.431 161.176 313.082 160.104 312.813C159.033 312.545 158.382 311.459 158.65 310.387L183.911 209.536C184.18 208.465 185.266 207.814 186.337 208.082Z" fill="#FF7C98"/>
<path fill-rule="evenodd" clip-rule="evenodd" d="M153.933 10.8067C155.012 11.0416 155.696 12.1069 155.462 13.1862L136.934 98.3389C136.699 99.4182 135.634 100.103 134.555 99.868C133.475 99.6331 132.791 98.5678 133.026 97.4885L151.553 12.3358C151.788 11.2565 152.853 10.5719 153.933 10.8067Z" fill="white"/>
<path fill-rule="evenodd" clip-rule="evenodd" d="M274.534 239.536C275.628 239.691 276.389 240.703 276.235 241.797L257.963 371.161C257.809 372.255 256.797 373.016 255.703 372.862C254.61 372.707 253.848 371.695 254.003 370.602L272.274 241.237C272.429 240.143 273.44 239.382 274.534 239.536Z" fill="#FF7C98"/>
<path d="M173.714 154.797C168.066 155.603 162.473 149.15 161.223 140.384C159.973 131.618 163.538 123.859 169.187 123.053C174.835 122.248 180.428 128.701 181.678 137.467C182.928 146.233 179.362 153.992 173.714 154.797Z" fill="white"/>
<path d="M165.879 124.46C169.612 126.246 173.832 131.442 174.804 138.26C175.777 145.079 173.49 151.699 170.405 154.458C166.06 153.33 162.14 147.023 161.168 140.205C160.195 133.387 161.658 127.381 165.879 124.46Z" fill="#231F20"/>
<path d="M207.382 157.89C201.734 158.696 196.141 152.243 194.891 143.476C193.641 134.71 197.206 126.951 202.855 126.145C208.503 125.34 214.096 131.793 215.346 140.559C216.596 149.325 213.031 157.085 207.382 157.89Z" fill="white"/>
<path d="M199.553 127.552C203.286 129.338 207.506 134.534 208.478 141.352C209.451 148.17 207.164 154.79 204.079 157.549C199.734 156.421 195.814 150.115 194.842 143.297C193.869 136.479 195.331 130.473 199.553 127.552Z" fill="#231F20"/>
<path d="M207.34 189.073C208.176 188.565 215.108 198.081 215.616 198.916C219.499 203.42 223.891 208.76 228.757 209.234C230.936 209.053 232.279 209.38 233.95 208.364C248.332 201.906 235.63 181.022 230.549 172.668C230.549 172.668 228.009 168.491 228.517 169.327C229.86 169.654 208.176 188.565 207.34 189.073Z" fill="#FFF36C"/>
<path fill-rule="evenodd" clip-rule="evenodd" d="M216.196 179.634C217.298 178.803 218.866 179.022 219.697 180.125L217.701 181.63L215.705 183.135C214.874 182.033 215.093 180.465 216.196 179.634ZM217.701 181.63C215.705 183.135 215.705 183.135 215.705 183.135L216.214 183.81C216.538 184.241 217.002 184.857 217.56 185.598C218.677 187.082 220.171 189.068 221.681 191.08C223.191 193.093 224.715 195.129 225.892 196.713C226.481 197.505 226.98 198.181 227.347 198.682C227.661 199.112 227.826 199.344 227.882 199.423C227.899 199.448 227.907 199.458 227.905 199.455C228.622 200.635 230.16 201.01 231.34 200.292C232.52 199.575 232.894 198.037 232.177 196.857C231.971 196.518 231.023 195.235 229.905 193.73C228.721 192.137 227.192 190.094 225.68 188.079C224.168 186.064 222.673 184.076 221.555 182.591C220.996 181.849 220.532 181.232 220.207 180.801L219.697 180.125C219.697 180.125 219.697 180.125 217.701 181.63Z" fill="#231F20"/>
<path fill-rule="evenodd" clip-rule="evenodd" d="M169.22 163.752C170.535 163.332 171.942 164.058 172.361 165.374C174.296 171.44 181.046 184.621 197.354 186.538C205.097 187.448 212.224 183.265 218.128 177.103C224 170.974 228.241 163.3 230.125 158.334C230.614 157.043 232.058 156.394 233.349 156.883C234.64 157.373 235.289 158.816 234.8 160.107C232.71 165.618 228.132 173.888 221.738 180.562C215.376 187.202 206.791 192.681 196.771 191.504C177.555 189.245 169.767 173.693 167.598 166.893C167.178 165.578 167.904 164.172 169.22 163.752Z" fill="black"/>
</g>
<path d="M306.391 220.72C303.479 219.444 300.595 215.439 298.39 212.369C297.198 210.709 295.146 211.096 295.113 213.141C295.005 219.731 298.044 230.913 303.438 237.588C310.236 246 323.725 250.497 330.236 241.061C337.815 230.078 329.988 223.087 327.544 221.907C317.316 216.969 312.469 223.382 306.391 220.72Z" fill="#E51641"/>
<path fill-rule="evenodd" clip-rule="evenodd" d="M323.608 225.806C321.808 225.208 319.903 225.406 318.722 225.774C318.195 225.939 317.634 225.645 317.47 225.118C317.305 224.591 317.599 224.03 318.126 223.865C319.612 223.401 321.957 223.149 324.24 223.909C326.582 224.688 328.781 226.511 329.879 230.022C330.043 230.549 329.75 231.11 329.222 231.274C328.695 231.439 328.134 231.145 327.97 230.618C327.067 227.729 325.349 226.385 323.608 225.806Z" fill="white"/>
<path fill-rule="evenodd" clip-rule="evenodd" d="M280.427 165.215C281.121 164.761 282.05 164.955 282.504 165.648C284.439 168.606 284.636 171.922 283.512 175.174C282.404 178.376 280.025 181.512 276.794 184.352C276.172 184.899 275.224 184.837 274.677 184.215C274.13 183.593 274.192 182.645 274.814 182.098C277.805 179.469 279.794 176.744 280.676 174.193C281.541 171.692 281.351 169.365 279.993 167.291C279.54 166.598 279.734 165.668 280.427 165.215Z" fill="black"/>
<path fill-rule="evenodd" clip-rule="evenodd" d="M122.604 163.983C121.811 164.223 121.363 165.061 121.604 165.853C124.824 176.472 131.518 183.521 139.258 185.649C140.057 185.868 140.883 185.399 141.102 184.6C141.322 183.801 140.852 182.975 140.053 182.756C133.562 180.972 127.482 174.9 124.475 164.983C124.234 164.19 123.397 163.742 122.604 163.983Z" fill="black"/>
<path fill-rule="evenodd" clip-rule="evenodd" d="M288.024 179.939C288.845 179.824 289.603 180.396 289.718 181.216C290.608 187.575 287.447 194.644 281.175 200.897C274.873 207.18 265.282 212.81 252.836 216.366C252.04 216.594 251.21 216.133 250.982 215.336C250.754 214.54 251.216 213.709 252.012 213.482C264.066 210.038 273.18 204.632 279.057 198.772C284.964 192.883 287.457 186.702 286.747 181.632C286.632 180.812 287.204 180.053 288.024 179.939Z" fill="black"/>
</svg>
