<svg width="430" height="430" viewBox="0 0 430 430" fill="none" xmlns="http://www.w3.org/2000/svg">
<path d="M430 215C430 333.741 333.741 430 215 430C96.2588 430 0 333.741 0 215C0 96.2588 96.2588 0 215 0C333.741 0 430 96.2588 430 215Z" fill="#FFCF52"/>
<mask id="mask0" mask-type="alpha" maskUnits="userSpaceOnUse" x="0" y="0" width="430" height="430">
<path d="M430 215C430 333.741 333.741 430 215 430C96.2588 430 0 333.741 0 215C0 96.2588 96.2588 0 215 0C333.741 0 430 96.2588 430 215Z" fill="#FFCF52"/>
</mask>
<g mask="url(#mask0)">
<path d="M171.51 322.335L220.213 332.687L200.422 425.795C197.563 439.244 184.343 447.829 170.894 444.971C157.445 442.112 148.86 428.892 151.719 415.443L171.51 322.335Z" fill="#E9ECEF"/>
<path d="M170.262 328.294L218.953 338.699L215.416 355.253L163.711 358.944L170.262 328.294Z" fill="#231F20"/>
<path d="M243.421 55.3458C249.225 46.1127 263.389 49.1233 264.936 59.9191L305.961 346.169C307.116 354.231 299.895 360.984 291.928 359.29L194.462 338.573L96.9971 317.856C89.03 316.163 85.1795 307.057 89.5145 300.162L243.421 55.3458Z" fill="#FF2E59"/>
<path d="M202.93 182.519C197.229 182.297 192.887 174.945 193.232 166.097C193.576 157.249 198.478 150.256 204.179 150.479C209.88 150.701 214.222 158.053 213.878 166.901C213.533 175.749 208.632 182.742 202.93 182.519Z" fill="white"/>
<path d="M200.673 151.268C204.024 153.696 207.242 159.565 206.974 166.447C206.706 173.329 203.267 179.431 199.737 181.591C195.665 179.701 192.941 172.793 193.21 165.911C193.478 159.029 195.995 153.383 200.673 151.268Z" fill="#231F20"/>
<path d="M235.495 191.609C229.793 191.387 225.451 184.034 225.796 175.186C226.141 166.338 231.042 159.345 236.743 159.567C242.445 159.79 246.787 167.143 246.442 175.991C246.097 184.839 241.196 191.832 235.495 191.609Z" fill="white"/>
<path d="M233.243 160.358C236.595 162.786 239.812 168.655 239.544 175.537C239.276 182.419 235.838 188.521 232.307 190.681C228.235 188.791 225.512 181.883 225.78 175.001C226.048 168.119 228.566 162.473 233.243 160.358Z" fill="#231F20"/>
<path fill-rule="evenodd" clip-rule="evenodd" d="M196.898 190.521C198.267 190.344 199.52 191.311 199.697 192.68C200.511 198.996 204.782 213.174 220.482 217.99C227.935 220.276 235.697 217.442 242.612 212.44C249.49 207.465 255.041 200.678 257.785 196.132C258.499 194.95 260.036 194.57 261.218 195.283C262.4 195.997 262.779 197.534 262.066 198.716C259.02 203.762 253.031 211.075 245.542 216.491C238.091 221.881 228.661 225.729 219.016 222.77C200.518 217.097 195.65 200.398 194.738 193.32C194.561 191.95 195.528 190.697 196.898 190.521Z" fill="black"/>
<path d="M194.467 338.548L291.935 359.266C299.901 360.959 307.122 354.208 305.968 346.146L297.829 289.298L208.951 270.406L120.073 251.515L89.5158 300.137C85.1821 307.033 89.0328 316.137 96.9992 317.831L194.467 338.548Z" fill="#4CE6B7"/>
<path d="M267.253 259.292C266.769 261.568 264.132 262.936 261.363 262.347C258.594 261.759 256.742 259.436 257.226 257.161C257.709 254.885 261.639 247.434 264.408 248.023C267.177 248.611 267.736 257.016 267.253 259.292Z" fill="#CA2043"/>
<path d="M246.948 240.071C246.464 242.347 243.828 243.715 241.059 243.126C238.29 242.538 236.437 240.216 236.921 237.94C237.405 235.664 241.334 228.213 244.103 228.802C246.872 229.391 247.432 237.795 246.948 240.071Z" fill="#CA2043"/>
<path d="M257.643 124.747C257.16 127.023 254.523 128.391 251.754 127.802C248.985 127.214 247.133 124.892 247.616 122.616C248.1 120.34 252.03 112.889 254.799 113.478C257.568 114.066 258.127 122.471 257.643 124.747Z" fill="#CA2043"/>
<path d="M165.143 244.932C164.66 247.207 162.023 248.575 159.254 247.987C156.485 247.398 154.633 245.076 155.116 242.8C155.6 240.525 159.53 233.074 162.299 233.662C165.068 234.251 165.627 242.656 165.143 244.932Z" fill="#CA2043"/>
<path fill-rule="evenodd" clip-rule="evenodd" d="M77.2465 291.573C77.8171 292.174 77.7927 293.123 77.1921 293.694C74.1439 296.59 70.5668 301.448 69.5392 306.592C69.032 309.132 69.1515 311.703 70.218 314.165C71.2845 316.627 73.3526 319.107 76.9564 321.368C77.6581 321.809 77.8699 322.735 77.4295 323.436C76.9891 324.138 76.0633 324.35 75.3616 323.909C71.3506 321.392 68.818 318.481 67.4652 315.358C66.1124 312.235 65.994 309.025 66.5973 306.005C67.7907 300.03 71.8284 294.651 75.1259 291.519C75.7265 290.948 76.676 290.973 77.2465 291.573Z" fill="black"/>
<path fill-rule="evenodd" clip-rule="evenodd" d="M68.9441 280.307C69.3192 281.046 69.0245 281.948 68.2858 282.324C66.464 283.249 63.7342 285.13 61.5913 287.696C59.4517 290.257 58.0126 293.353 58.4056 296.789C58.4997 297.612 57.9088 298.355 57.0858 298.449C56.2627 298.543 55.5192 297.953 55.425 297.129C54.9061 292.593 56.8408 288.704 59.2888 285.773C61.7336 282.845 64.8056 280.726 66.9275 279.649C67.6661 279.274 68.569 279.568 68.9441 280.307Z" fill="black"/>
<path fill-rule="evenodd" clip-rule="evenodd" d="M307.62 369.708C307.297 368.946 307.653 368.065 308.415 367.742C312.286 366.1 317.34 362.806 320.107 358.348C321.473 356.149 322.263 353.699 322.129 351.019C321.994 348.339 320.927 345.292 318.346 341.909C317.844 341.251 317.97 340.309 318.629 339.807C319.287 339.304 320.228 339.431 320.731 340.089C323.604 343.854 324.954 347.469 325.125 350.868C325.296 354.267 324.281 357.314 322.656 359.931C319.442 365.107 313.774 368.727 309.587 370.503C308.824 370.827 307.944 370.471 307.62 369.708Z" fill="black"/>
<path fill-rule="evenodd" clip-rule="evenodd" d="M310.264 383.412C310.172 382.589 310.765 381.847 311.588 381.755C313.619 381.528 316.835 380.724 319.742 379.073C322.645 377.425 325.078 375.031 325.916 371.676C326.116 370.873 326.931 370.384 327.734 370.584C328.538 370.785 329.027 371.599 328.827 372.403C327.721 376.833 324.544 379.796 321.224 381.682C317.907 383.565 314.287 384.472 311.922 384.736C311.099 384.828 310.357 384.236 310.264 383.412Z" fill="black"/>
</g>
</svg>
