<svg width="430" height="430" viewBox="0 0 430 430" fill="none" xmlns="http://www.w3.org/2000/svg">
<path d="M430 215C430 333.741 333.741 430 215 430C96.2588 430 0 333.741 0 215C0 96.2588 96.2588 0 215 0C333.741 0 430 96.2588 430 215Z" fill="#9971FF"/>
<mask id="mask0" mask-type="alpha" maskUnits="userSpaceOnUse" x="0" y="0" width="430" height="430">
<path d="M430 215C430 333.741 333.741 430 215 430C96.2588 430 0 333.741 0 215C0 96.2588 96.2588 0 215 0C333.741 0 430 96.2588 430 215Z" fill="#9971FF"/>
</mask>
<g mask="url(#mask0)">
<path d="M505.267 78.2428C527.355 22.1724 512.649 -16.0012 502.534 -28.0792C484.473 -49.6474 461.422 -33.2784 441.551 -28.3797C421.68 -23.4811 366.332 -28.5025 357.084 -28.0959C347.835 -27.6893 330.856 -38.4221 289.3 36.006C247.744 110.434 247.808 188.355 261.173 198.993C275.551 210.436 325.698 197.797 354.384 195.79C383.069 193.784 405.83 192.336 438.562 191.344C471.294 190.353 477.657 148.331 505.267 78.2428Z" fill="#FF9900"/>
<path fill-rule="evenodd" clip-rule="evenodd" d="M298.89 19.5994C304.877 9.86216 310.279 2.07723 315.163 -4.14126C359.366 -4.16041 432.461 -6.63631 468.134 -8.077L455.847 15.4212L298.89 19.5994ZM254.264 144.854C251.392 173.213 254.743 193.884 261.169 198.999C271.452 207.184 300.034 203.049 325.973 199.296C336.301 197.802 346.211 196.368 354.38 195.797C383.065 193.79 405.826 192.342 438.558 191.351C450.899 190.977 459.491 184.77 466.887 173.427L411.757 134.535C388.814 143.135 326.844 156.395 254.264 144.854ZM271.99 72.8407C266.605 86.7167 262.531 100.302 259.578 113.123C305.554 109.331 389.022 104.467 415.734 110.656L426.143 69.6495C385.63 69.4626 306.416 69.9236 271.99 72.8407Z" fill="#FF8A00" fill-opacity="0.5"/>
<path d="M523.502 41.0685C530.222 66.2643 531.155 84.5613 510.994 104.381C490.832 124.2 468.926 157.219 449.2 154.658C429.475 152.096 427.164 137.886 438.079 99.3912C448.995 60.8964 464.17 21.7686 481.297 5.9588C498.424 -9.85099 510.609 -7.2662 523.502 41.0685Z" fill="#6A091F"/>
<path fill-rule="evenodd" clip-rule="evenodd" d="M456.24 46.7588C467.799 27.2948 482.335 7.0392 491.115 7.90552C506.795 9.45247 520.662 56.5482 515.169 72.8901C509.675 89.2321 490.163 123.185 474.409 134.909C473.565 135.538 472.733 136.16 471.913 136.773C459.172 146.302 449.269 153.709 437.985 150.644C440.768 152.763 444.489 154.042 449.208 154.655C463.937 156.568 479.881 138.642 495.408 121.187C500.675 115.265 505.894 109.398 511.002 104.378C531.163 84.5583 530.23 66.2614 523.509 41.0655C510.617 -7.26913 498.431 -9.85392 481.305 5.95587C472.299 14.2697 463.832 29.0316 456.24 46.7588Z" fill="#570014"/>
<path d="M425.133 102.786C425.931 103.739 427.419 103.807 428.456 102.938C429.494 102.069 429.688 100.592 428.89 99.6395C428.092 98.6866 426.604 98.6185 425.566 99.4874C424.529 100.356 424.335 101.833 425.133 102.786Z" fill="#D94100"/>
<path d="M331.132 4.81984C331.294 5.99745 334.021 6.39834 337.222 5.71524C340.424 5.03215 342.888 3.52374 342.727 2.34613C342.565 1.16851 339.838 0.767625 336.636 1.45072C333.435 2.13382 330.97 3.64222 331.132 4.81984Z" fill="#FF6B00"/>
<path d="M277.034 127.864C277.094 129.06 283.069 129.256 290.38 128.303C297.691 127.35 303.57 125.609 303.51 124.414C303.451 123.219 297.475 123.022 290.164 123.975C282.853 124.928 276.975 126.669 277.034 127.864Z" fill="#FF6B00"/>
<path d="M394.411 19.2219C394.471 20.4171 400.446 20.6135 407.757 19.6607C415.068 18.7079 420.947 16.9666 420.887 15.7714C420.828 14.5763 414.852 14.3798 407.541 15.3327C400.23 16.2855 394.352 18.0268 394.411 19.2219Z" fill="#FF6B00"/>
</g>
<path d="M128.108 294.785C73.5434 262.451 59.9023 219.001 59.9023 201.319C59.9023 169.742 88.9527 167.216 107.899 157.112C126.845 147.007 167.263 102.8 174.841 96.4846C182.419 90.1693 188.735 68.6972 270.833 102.8C352.932 136.903 404.451 204.005 400.929 222.791C397.14 243 349.143 268.261 325.145 287.207C301.147 306.153 282.201 321.309 255.677 344.044C229.152 366.78 196.313 335.203 128.108 294.785Z" fill="#FFBC58"/>
<path fill-rule="evenodd" clip-rule="evenodd" d="M194.672 83.0014C207.887 81.0436 230.314 84.3443 271.409 101.414C312.669 118.553 346.239 143.979 369.065 167.494C380.478 179.25 389.232 190.558 394.922 200.147C397.767 204.94 399.865 209.335 401.141 213.166C402.406 216.965 402.912 220.354 402.403 223.067C401.371 228.574 397.393 234.21 391.934 239.768C386.438 245.364 379.254 251.066 371.495 256.687C364.812 261.529 357.659 266.342 350.744 270.994C349.628 271.745 348.517 272.492 347.416 273.235C339.477 278.587 332.023 283.688 326.075 288.384C302.083 307.325 283.155 322.467 256.653 345.183C249.736 351.112 242.336 353.535 234.07 353.121C225.884 352.71 216.938 349.521 206.848 344.436C196.746 339.346 185.358 332.281 172.282 323.997C170.348 322.772 168.376 321.52 166.366 320.243C154.762 312.873 141.855 304.675 127.343 296.075C72.365 263.496 58.4023 219.578 58.4023 201.318C58.4023 193.182 60.2777 186.82 63.4652 181.716C66.6457 176.623 71.0707 172.881 76.0179 169.88C80.9516 166.888 86.4652 164.598 91.8502 162.448C92.452 162.208 93.0519 161.97 93.6492 161.732C98.4383 159.829 103.063 157.991 107.193 155.788C111.773 153.345 117.746 148.782 124.306 143.128C130.844 137.493 137.884 130.847 144.585 124.304C150.551 118.478 156.235 112.746 161.049 107.893C161.64 107.296 162.219 106.713 162.784 106.144C167.902 100.986 171.916 96.969 173.881 95.332C174.578 94.7505 175.302 93.9733 176.128 93.0878C179.333 89.6476 184.06 84.5735 194.672 83.0014ZM178.566 94.9122C177.627 95.9116 176.747 96.8488 175.801 97.6366C173.976 99.1573 170.096 103.034 164.913 108.257C164.349 108.826 163.77 109.409 163.178 110.006C158.367 114.858 152.665 120.607 146.681 126.45C139.961 133.012 132.871 139.707 126.265 145.4C119.681 151.074 113.497 155.826 108.605 158.435C104.316 160.722 99.5251 162.626 94.7595 164.519C94.1598 164.758 93.5605 164.996 92.9626 165.234C87.5721 167.387 82.2708 169.596 77.5737 172.445C72.89 175.286 68.8683 178.728 66.0098 183.305C63.1583 187.871 61.4023 193.666 61.4023 201.318C61.4023 218.424 74.7218 261.405 128.872 293.494C143.428 302.12 156.377 310.345 167.98 317.714C169.989 318.99 171.958 320.241 173.887 321.463C186.98 329.757 198.248 336.743 208.198 341.757C218.159 346.777 226.658 349.745 234.221 350.124C241.704 350.5 248.355 348.344 254.701 342.905C281.247 320.151 300.211 304.981 324.216 286.03C330.266 281.253 337.811 276.092 345.739 270.747C346.845 270.002 347.958 269.253 349.076 268.501C355.994 263.846 363.098 259.066 369.735 254.258C377.449 248.669 384.474 243.083 389.794 237.666C395.15 232.212 398.592 227.112 399.454 222.514C399.826 220.53 399.493 217.713 398.294 214.114C397.106 210.546 395.115 206.35 392.343 201.678C386.799 192.336 378.202 181.214 366.913 169.584C344.336 146.325 311.097 121.149 270.258 104.185C229.254 87.1523 207.473 84.1377 195.112 85.969C185.652 87.3705 181.769 91.5034 178.566 94.9122Z" fill="#FFCD82"/>
<path fill-rule="evenodd" clip-rule="evenodd" d="M252.396 95.5898C241.22 91.5252 231.798 88.7187 223.823 86.8867C188.877 118.725 129.47 169.272 100.324 193.74L125.585 205.108L252.396 95.5898ZM370.558 171.219C391.597 193.554 402.629 213.758 400.936 222.791C398.226 237.246 372.901 254.284 349.917 269.748C340.766 275.905 331.986 281.813 325.152 287.208C301.154 306.154 282.208 321.31 255.684 344.045C245.683 352.617 234.784 353.468 221.431 349.036L239.261 275.839C263.085 266.706 320.836 233.458 370.558 171.219ZM308.89 122.022C322.33 130.082 334.541 138.837 345.359 147.743C306.516 177.611 237.33 233.579 220.315 258.156L184.949 230.369C216.844 201.011 279.754 144.32 308.89 122.022Z" fill="#FF8A00" fill-opacity="0.2"/>
<path fill-rule="evenodd" clip-rule="evenodd" d="M59.9785 203.727C61.1437 222.7 75.8771 263.835 128.107 294.786C142.641 303.398 155.569 311.609 167.172 318.979C190.411 333.739 208.336 345.124 223.205 349.6C237.311 346.502 250.065 339.281 256.941 325.099C277.15 283.418 217.786 239.211 174.842 216.476C131.898 193.741 105.37 179.847 76.3201 186.162C66.5621 188.284 61.8068 195.229 59.9785 203.727Z" fill="#FF9900"/>
<path d="M89.0928 275.936C100.456 302.462 111.828 318.88 140.878 321.406C169.929 323.932 209.094 336.561 222.988 320.141C236.882 303.721 229.303 289.828 195.201 264.567C161.098 239.305 123.209 216.57 99.2111 215.307C75.2129 214.044 67.2932 225.05 89.0928 275.936Z" fill="#6A091F"/>
<path fill-rule="evenodd" clip-rule="evenodd" d="M146.018 232.357C124.002 223.936 99.1084 216.98 92.7423 224.054C81.3747 236.684 101.584 287.207 116.74 297.311C131.897 307.416 169.789 322.573 189.998 321.31C191.081 321.242 192.15 321.178 193.204 321.115C209.582 320.133 222.312 319.37 229.201 308.596C228.404 312.427 226.309 316.212 222.984 320.141C212.61 332.402 188.145 328.466 164.323 324.634C156.241 323.334 148.233 322.046 140.875 321.406C111.824 318.88 100.453 302.462 89.0889 275.936C67.2893 225.05 75.209 214.044 99.2072 215.307C111.827 215.971 128.287 222.573 146.018 232.357Z" fill="#570014"/>
<path d="M147.056 306.153C128.11 303.627 118.005 285.944 116.742 283.418C133.162 293.522 147.206 292.152 153.371 293.522C164.739 296.049 166.002 308.679 147.056 306.153Z" fill="white"/>
<path d="M114.216 275.84C114.216 277.235 113.085 278.366 111.69 278.366C110.295 278.366 109.164 277.235 109.164 275.84C109.164 274.444 110.295 273.313 111.69 273.313C113.085 273.313 114.216 274.444 114.216 275.84Z" fill="white"/>
<path d="M94.0056 198.793C94.0056 200.886 91.1782 202.582 87.6903 202.582C84.2025 202.582 81.375 200.886 81.375 198.793C81.375 196.7 84.2025 195.004 87.6903 195.004C91.1782 195.004 94.0056 196.7 94.0056 198.793Z" fill="#FF7A00"/>
<path d="M170.963 227.962C169.668 229.606 166.397 229.189 163.657 227.03C160.918 224.872 159.747 221.789 161.042 220.145C162.337 218.502 165.608 218.919 168.347 221.077C171.087 223.236 172.258 226.318 170.963 227.962Z" fill="#FF7A00"/>
<path d="M242.248 296.34C240.403 297.329 237.572 295.638 235.925 292.564C234.277 289.49 234.437 286.196 236.281 285.208C238.126 284.219 240.957 285.91 242.604 288.984C244.252 292.058 244.092 295.352 242.248 296.34Z" fill="#FF7A00"/>
<path d="M244.942 325.905C245.857 327.787 244.056 330.549 240.919 332.074C237.782 333.599 234.498 333.309 233.583 331.427C232.668 329.545 234.469 326.783 237.605 325.258C240.742 323.733 244.027 324.023 244.942 325.905Z" fill="#FF7A00"/>
<path d="M207.681 258.157C207.681 259.552 206.55 260.683 205.155 260.683C203.76 260.683 202.629 259.552 202.629 258.157C202.629 256.762 203.76 255.631 205.155 255.631C206.55 255.631 207.681 256.762 207.681 258.157Z" fill="#FF7A00"/>
<path d="M258.205 313.731C258.205 315.126 257.074 316.257 255.678 316.257C254.283 316.257 253.152 315.126 253.152 313.731C253.152 312.336 254.283 311.205 255.678 311.205C257.074 311.205 258.205 312.336 258.205 313.731Z" fill="#FF7A00"/>
<path d="M136.947 215.213C136.947 216.608 135.816 217.739 134.421 217.739C133.026 217.739 131.895 216.608 131.895 215.213C131.895 213.818 133.026 212.687 134.421 212.687C135.816 212.687 136.947 213.818 136.947 215.213Z" fill="#FF7A00"/>
<path d="M106.638 210.161C106.638 211.556 105.507 212.687 104.112 212.687C102.717 212.687 101.586 211.556 101.586 210.161C101.586 208.766 102.717 207.635 104.112 207.635C105.507 207.635 106.638 208.766 106.638 210.161Z" fill="#FF7A00"/>
<path d="M78.8452 215.213C78.8452 216.608 77.7142 217.739 76.3191 217.739C74.924 217.739 73.793 216.608 73.793 215.213C73.793 213.818 74.924 212.687 76.3191 212.687C77.7142 212.687 78.8452 213.818 78.8452 215.213Z" fill="#FF7A00"/>
<path d="M290.587 251.371C291.621 254.702 288.139 258.744 282.809 260.398C277.48 262.053 272.321 260.694 271.287 257.363C270.252 254.032 273.735 249.991 279.064 248.336C284.394 246.681 289.553 248.04 290.587 251.371Z" fill="#FF9900"/>
<path d="M379.34 227.031C380.374 230.362 378.422 233.929 374.979 234.998C371.536 236.067 367.907 234.233 366.873 230.902C365.838 227.571 367.791 224.005 371.234 222.936C374.676 221.867 378.306 223.7 379.34 227.031Z" fill="#FF9900"/>
<path d="M305.441 238.68C306.092 239.81 304.203 242.12 301.22 243.839C298.238 245.559 295.292 246.036 294.641 244.906C293.989 243.776 295.879 241.466 298.861 239.747C301.843 238.028 304.789 237.55 305.441 238.68Z" fill="#FF9900"/>
<path d="M220.98 109.046C221.631 110.176 219.742 112.486 216.759 114.205C213.777 115.925 210.831 116.403 210.18 115.273C209.528 114.143 211.418 111.833 214.4 110.113C217.382 108.394 220.328 107.916 220.98 109.046Z" fill="white"/>
<path d="M310.597 184.419C311.248 185.549 309.359 187.859 306.377 189.578C303.394 191.298 300.448 191.776 299.797 190.646C299.145 189.516 301.035 187.206 304.017 185.486C307 183.767 309.945 183.289 310.597 184.419Z" fill="#FF9900"/>
<path d="M341.32 173.009C342.064 174.081 337.472 178.556 331.063 183.005C324.654 187.453 318.856 190.191 318.112 189.12C317.369 188.048 321.961 183.573 328.369 179.124C334.778 174.675 340.576 171.938 341.32 173.009Z" fill="#FF9900"/>
<path d="M170.159 166.037C172.215 168.28 169.219 174.371 163.468 179.643C157.717 184.914 151.388 187.369 149.332 185.126C147.276 182.883 150.272 176.791 156.023 171.52C161.774 166.248 168.103 163.794 170.159 166.037Z" fill="white"/>
<path d="M201.922 108.53C202.665 109.601 198.073 114.076 191.665 118.525C185.256 122.974 179.458 125.712 178.714 124.64C177.97 123.569 182.562 119.094 188.971 114.645C195.38 110.196 201.178 107.458 201.922 108.53Z" fill="white"/>
<path fill-rule="evenodd" clip-rule="evenodd" d="M279.643 149.031C280.92 148.506 282.381 149.116 282.906 150.394C291.634 171.64 289.53 191.19 279.825 203.471C270.007 215.896 252.971 220.182 233.57 211.877C232.3 211.334 231.712 209.864 232.255 208.595C232.798 207.326 234.268 206.737 235.537 207.28C253.263 214.868 267.737 210.704 275.902 200.371C284.181 189.895 286.533 172.381 278.281 152.294C277.756 151.016 278.366 149.556 279.643 149.031Z" fill="black"/>
<path d="M218.589 158.633L233.174 177.434C226.831 178.873 210.338 175.881 206.55 166.67C202.762 157.459 210.709 152.802 218.589 158.633Z" fill="white"/>
<path d="M218.589 158.633L233.174 177.434C235.927 171.367 236.714 154.113 228.832 148.282C220.95 142.45 214.802 149.424 218.589 158.633Z" fill="white"/>
<path fill-rule="evenodd" clip-rule="evenodd" d="M233.174 177.434C232.992 177.475 232.801 177.513 232.602 177.547C225.892 178.696 210.229 175.616 206.55 166.67C202.997 158.029 209.769 153.396 217.127 157.669C217.613 157.951 218.101 158.272 218.589 158.633C218.359 158.073 218.165 157.521 218.006 156.98C215.556 148.623 221.429 142.804 228.832 148.282C236.487 153.945 235.965 170.383 233.407 176.883C233.331 177.075 233.253 177.259 233.174 177.434ZM232.653 175.91C233.692 172.871 234.337 167.882 233.951 162.849C233.512 157.121 231.771 151.754 228.211 149.12C226.367 147.756 224.712 147.205 223.359 147.187C222.024 147.168 220.915 147.664 220.092 148.534C218.425 150.297 217.753 153.857 219.554 158.236L220.245 159.916L232.653 175.91ZM219.403 160.533L217.968 159.472C214.234 156.709 210.759 156.618 208.753 157.891C206.834 159.111 205.736 161.947 207.515 166.273C209.228 170.44 213.918 173.36 219.221 175.052C223.912 176.548 228.784 176.988 231.868 176.601L219.403 160.533Z" fill="white"/>
<path d="M253.915 132.784L268.5 151.585C262.158 153.024 245.664 150.032 241.876 140.821C238.089 131.61 246.035 126.953 253.915 132.784Z" fill="white"/>
<path d="M253.915 132.784L268.5 151.585C271.253 145.518 272.04 128.265 264.158 122.433C256.276 116.601 250.128 123.576 253.915 132.784Z" fill="white"/>
<path fill-rule="evenodd" clip-rule="evenodd" d="M268.5 151.585C268.318 151.626 268.127 151.664 267.928 151.698C261.219 152.847 245.555 149.767 241.876 140.821C238.323 132.181 245.096 127.548 252.453 131.82C252.939 132.102 253.427 132.423 253.915 132.784C253.685 132.224 253.491 131.673 253.333 131.132C250.882 122.775 256.755 116.956 264.158 122.433C271.813 128.097 271.291 144.534 268.733 151.034C268.657 151.227 268.58 151.41 268.5 151.585ZM267.979 150.062C269.018 147.023 269.663 142.033 269.277 137C268.838 131.272 267.097 125.905 263.538 123.272C261.694 121.907 260.038 121.357 258.685 121.338C257.35 121.32 256.241 121.816 255.418 122.685C253.751 124.448 253.079 128.008 254.88 132.388L255.571 134.068L267.979 150.062ZM254.729 134.684L253.294 133.623C249.56 130.86 246.085 130.769 244.079 132.043C242.16 133.262 241.062 136.099 242.841 140.424C244.555 144.592 249.244 147.511 254.547 149.203C259.238 150.7 264.11 151.139 267.194 150.752L254.729 134.684Z" fill="white"/>
<path d="M222.134 160.031L233.619 175.621C228.728 176.733 215.938 174.099 212.909 166.498C209.88 158.897 215.976 155.16 222.134 160.031Z" fill="#449AFF"/>
<path d="M222.134 160.031L233.619 175.621C235.683 170.671 236.105 156.518 229.945 151.646C223.785 146.774 219.105 152.432 222.134 160.031Z" fill="#449AFF"/>
<path d="M257.458 134.183L268.943 149.772C264.053 150.885 251.263 148.25 248.233 140.649C245.204 133.048 251.3 129.312 257.458 134.183Z" fill="#449AFF"/>
<path d="M257.458 134.183L268.943 149.772C271.007 144.822 271.429 130.669 265.269 125.797C259.11 120.925 254.43 126.584 257.458 134.183Z" fill="#449AFF"/>
<path fill-rule="evenodd" clip-rule="evenodd" d="M210.009 202.44C211.549 201.311 212.313 199.454 212.277 197.423C214.203 198.068 216.204 197.899 217.744 196.769C219.395 195.559 220.154 193.511 219.991 191.31C222.089 192.2 224.344 192.12 226.04 190.877C228.887 188.788 229.08 184.21 226.47 180.65C223.859 177.09 219.435 175.897 216.587 177.985C214.936 179.196 214.177 181.244 214.34 183.445C212.242 182.555 209.987 182.635 208.292 183.878C206.752 185.007 205.988 186.865 206.024 188.895C204.098 188.25 202.097 188.42 200.557 189.549C197.709 191.637 197.516 196.216 200.127 199.776C202.737 203.335 207.162 204.528 210.009 202.44Z" fill="#FD476D"/>
<path fill-rule="evenodd" clip-rule="evenodd" d="M203.067 195.08C203.168 194.426 203.78 193.977 204.434 194.078L208.903 194.766C209.557 194.866 210.006 195.478 209.906 196.133C209.805 196.787 209.193 197.236 208.538 197.135L204.07 196.448C203.415 196.347 202.966 195.735 203.067 195.08Z" fill="black"/>
<path fill-rule="evenodd" clip-rule="evenodd" d="M210.575 189.546C210.676 188.892 211.288 188.443 211.942 188.544L216.411 189.231C217.065 189.332 217.514 189.944 217.413 190.599C217.313 191.253 216.701 191.702 216.046 191.601L211.577 190.914C210.923 190.813 210.474 190.201 210.575 189.546Z" fill="black"/>
<path fill-rule="evenodd" clip-rule="evenodd" d="M217.807 184.461C217.908 183.807 218.52 183.358 219.175 183.459L223.643 184.146C224.298 184.247 224.747 184.859 224.646 185.514C224.545 186.168 223.933 186.617 223.279 186.516L218.81 185.829C218.155 185.728 217.707 185.116 217.807 184.461Z" fill="black"/>
<path fill-rule="evenodd" clip-rule="evenodd" d="M287.562 147.321C287.598 149.352 286.835 151.209 285.295 152.339C282.447 154.427 278.022 153.234 275.412 149.674C272.802 146.114 272.994 141.536 275.842 139.447C277.382 138.318 279.384 138.148 281.31 138.794C281.273 136.763 282.037 134.906 283.577 133.777C286.425 131.688 290.849 132.881 293.46 136.441C296.07 140.001 295.877 144.58 293.03 146.668C291.489 147.797 289.488 147.967 287.562 147.321Z" fill="#FD476D"/>
<path fill-rule="evenodd" clip-rule="evenodd" d="M278.354 144.98C278.455 144.325 279.067 143.877 279.721 143.977L284.19 144.665C284.845 144.766 285.293 145.378 285.193 146.032C285.092 146.687 284.48 147.136 283.825 147.035L279.357 146.347C278.702 146.246 278.253 145.634 278.354 144.98Z" fill="black"/>
<path fill-rule="evenodd" clip-rule="evenodd" d="M284.799 140.253C284.9 139.599 285.512 139.15 286.167 139.251L290.635 139.938C291.29 140.039 291.739 140.651 291.638 141.306C291.537 141.96 290.925 142.409 290.271 142.308L285.802 141.621C285.148 141.52 284.699 140.908 284.799 140.253Z" fill="black"/>
<path d="M230.198 156.068C230.636 157.134 230.342 158.264 229.543 158.593C228.744 158.921 227.741 158.323 227.303 157.257C226.865 156.191 227.158 155.061 227.957 154.732C228.757 154.404 229.76 155.002 230.198 156.068Z" fill="white"/>
<path d="M265.389 129.204C265.827 130.27 265.534 131.4 264.734 131.728C263.935 132.057 262.932 131.459 262.494 130.393C262.056 129.327 262.349 128.197 263.149 127.868C263.948 127.54 264.951 128.138 265.389 129.204Z" fill="white"/>
<path fill-rule="evenodd" clip-rule="evenodd" d="M77.42 157.607C77.2268 156.802 76.4171 156.305 75.6115 156.498C56.985 160.967 47.2574 170.282 41.9854 178.97C39.3635 183.29 37.8671 187.416 36.9111 190.631C36.5293 191.915 36.2305 193.066 35.9864 194.006C35.9262 194.238 35.8694 194.457 35.8155 194.662C35.6766 195.19 35.5608 195.61 35.4556 195.938C35.4036 196.1 35.3587 196.225 35.3205 196.318C35.3017 196.364 35.2863 196.399 35.2745 196.423C35.2626 196.447 35.2569 196.456 35.2584 196.454C34.8254 197.16 35.047 198.084 35.7532 198.517C36.4595 198.95 37.3831 198.728 37.816 198.022C38.0313 197.671 38.1881 197.241 38.312 196.855C38.4439 196.444 38.5772 195.955 38.7167 195.425C38.7742 195.207 38.8336 194.978 38.8954 194.74C39.1389 193.802 39.4214 192.715 39.7866 191.486C40.6981 188.421 42.105 184.555 44.5501 180.526C49.4119 172.514 58.4725 163.695 76.3113 159.416C77.1169 159.222 77.6133 158.413 77.42 157.607Z" fill="black"/>
<path fill-rule="evenodd" clip-rule="evenodd" d="M74.3658 148.066C74.689 147.304 74.3326 146.423 73.5698 146.1C67.8836 143.691 53.928 142.127 42.422 154.301C41.853 154.903 41.8797 155.852 42.4818 156.421C43.0839 156.99 44.0333 156.964 44.6023 156.362C55.0561 145.301 67.5873 146.824 72.3995 148.862C73.1623 149.186 74.0427 148.829 74.3658 148.066Z" fill="black"/>
</svg>
