<svg width="430" height="430" viewBox="0 0 430 430" fill="none" xmlns="http://www.w3.org/2000/svg">
<path d="M430 215C430 333.741 333.741 430 215 430C96.2588 430 0 333.741 0 215C0 96.2588 96.2588 0 215 0C333.741 0 430 96.2588 430 215Z" fill="#4CE6B7"/>
<path fill-rule="evenodd" clip-rule="evenodd" d="M340.917 134.603C341.226 133.835 342.1 133.462 342.868 133.772L342.308 135.163C342.868 133.772 342.869 133.772 342.87 133.772L342.871 133.773L342.876 133.775L342.892 133.781L342.947 133.804C342.993 133.823 343.059 133.851 343.143 133.888C343.312 133.961 343.555 134.068 343.862 134.211C344.475 134.496 345.344 134.922 346.386 135.494C348.467 136.636 351.254 138.366 354.075 140.722C359.701 145.42 365.61 152.74 366.073 162.949C366.11 163.776 365.47 164.478 364.642 164.515C363.815 164.553 363.113 163.912 363.076 163.085C362.666 154.05 357.442 147.443 352.152 143.025C349.516 140.823 346.901 139.198 344.943 138.124C343.966 137.588 343.157 137.191 342.596 136.931C342.316 136.8 342.099 136.704 341.954 136.642C341.882 136.61 341.827 136.588 341.793 136.573L341.755 136.558L341.748 136.555L341.748 136.555C341.748 136.555 341.748 136.555 341.748 136.554M341.747 136.554C341.747 136.554 341.747 136.554 341.747 136.554L341.747 136.554ZM340.917 134.603C340.608 135.371 340.979 136.245 341.747 136.554L340.917 134.603Z" fill="#231F20"/>
<path fill-rule="evenodd" clip-rule="evenodd" d="M348.516 126.424C348.812 125.65 349.679 125.262 350.453 125.558L349.918 126.959C350.453 125.558 350.453 125.558 350.453 125.558L350.457 125.56L350.465 125.562L350.488 125.571C350.507 125.579 350.534 125.59 350.569 125.604C350.638 125.631 350.737 125.672 350.864 125.725C351.118 125.832 351.483 125.99 351.94 126.202C352.855 126.627 354.142 127.268 355.656 128.144C358.679 129.894 362.634 132.594 366.33 136.395C366.907 136.988 366.894 137.938 366.3 138.516C365.706 139.093 364.757 139.08 364.179 138.486C360.725 134.935 357.011 132.394 354.154 130.741C352.727 129.916 351.521 129.315 350.677 128.923C350.255 128.728 349.924 128.584 349.702 128.491C349.591 128.444 349.508 128.41 349.454 128.388C349.427 128.378 349.407 128.37 349.395 128.365L349.383 128.36C349.382 128.36 349.382 128.36 349.381 128.36M348.516 126.424C348.221 127.197 348.608 128.064 349.381 128.36L348.516 126.424Z" fill="#231F20"/>
<path fill-rule="evenodd" clip-rule="evenodd" d="M129.493 172.268C118.928 175.412 109.442 182.908 106.034 186.253L105.256 185.46C108.74 182.041 118.377 174.417 129.176 171.203L129.493 172.268Z" fill="black"/>
<path fill-rule="evenodd" clip-rule="evenodd" d="M117.775 178.554C113.081 181.668 109.062 185.062 106.805 187.229L106.036 186.427C108.338 184.217 112.408 180.781 117.161 177.628C121.907 174.48 127.379 171.583 132.48 170.499L132.71 171.586C127.813 172.627 122.478 175.434 117.775 178.554Z" fill="black"/>
<path fill-rule="evenodd" clip-rule="evenodd" d="M99.7982 245.869C98.5525 248.44 99.0862 251.108 99.9737 252.781L98.9923 253.302C97.9847 251.402 97.36 248.353 98.7984 245.385C100.243 242.403 103.695 239.653 110.526 238.201L110.757 239.287C104.113 240.699 101.038 243.311 99.7982 245.869Z" fill="black"/>
<path fill-rule="evenodd" clip-rule="evenodd" d="M102.201 247.762C100.866 250.241 101.529 252.817 102.584 254.451L101.651 255.054C100.449 253.192 99.6395 250.175 101.223 247.235C102.8 244.306 106.659 241.632 114.378 240.221L114.578 241.314C106.991 242.701 103.542 245.272 102.201 247.762Z" fill="black"/>
<path d="M293.639 228.713L283.563 318.054C283.563 318.054 325.7 293.772 331.265 280.169C339.585 259.64 345.231 240.207 347.957 218.224C348.232 215.788 352.316 180.304 352.876 180.449L352.623 180.503C347.918 198.15 326.416 210.119 293.639 228.713Z" fill="#EF8407"/>
<path d="M204.589 129.261C126.733 138.411 37.8984 204.064 41.7968 237.323C45.6952 270.581 111.692 282.713 189.547 273.563C224.07 269.396 260.81 255.773 290.769 238.836C323.546 220.242 347.917 198.15 352.315 180.304C353.095 177.76 353.316 175.071 352.833 172.795C348.934 139.537 282.697 120.058 204.589 129.261Z" fill="#FF9900"/>
<path d="M52.6073 229.74C47.0075 231.987 44.4512 238.608 47.4569 244.046C52.9089 254.778 79.4619 321.272 95.608 327.617C101.363 329.829 107.5 330.11 113.584 330.138C131.275 330.077 149.203 328.644 166.825 327.013C197.157 324.265 227.795 321.716 258.127 318.968C265.674 318.421 273.167 317.621 279.87 314.347C296.201 306.647 310.726 245.691 312.229 231.631C312.542 228.13 312.548 224.429 311.344 221.25C308.721 213.88 299.916 210.995 292.752 209.612C278.676 206.79 264.363 205.34 249.996 203.638C220.052 200.754 189.581 200.361 159.862 203.507C123.102 207.092 86.6584 215.896 52.6073 229.74Z" fill="white"/>
<path d="M271.842 321.338C267.292 322.305 262.633 322.767 258.228 323.175L166.925 331.219C149.304 332.851 131.376 334.284 113.432 334.398C107.095 334.424 100.452 334.251 94.0844 331.64C80.7352 326.022 63.9333 290.486 49.2394 257.408C46.7931 252.115 45.1211 247.978 43.879 245.864C42.0616 242.287 41.7075 238.134 43.2842 234.364C44.6082 230.647 47.664 227.62 51.295 226.055C85.3461 212.211 121.736 203.155 159.507 199.355C189.533 196.408 219.95 196.548 250.507 199.83L251.572 199.868C265.379 201.425 279.692 202.875 293.516 205.75C300.987 207.333 311.668 210.347 315.028 219.938C316.286 223.37 316.587 227.27 316.29 232.09C315.352 242.594 301.397 308.714 281.686 317.924C278.561 319.381 275.129 320.639 271.842 321.338ZM117.711 214.052C95.7153 218.727 74.4029 225.371 54.225 233.624C52.509 234.253 51.2071 235.587 50.5182 237.318C49.8294 239.05 49.9527 240.874 50.8345 242.536C52.0766 244.65 53.7486 248.787 56.2487 254.333C64.8994 273.898 85.4215 319.477 96.9851 324.154C101.928 326.274 108.011 326.302 113.589 326.438C131.28 326.377 149.209 324.944 166.324 323.42L257.627 315.375C264.615 314.683 271.908 314.189 278.159 311.275C291.618 304.979 306.696 247.869 308.275 231.679C308.588 228.178 308.503 225.289 307.513 223.121C305.788 218.732 300.936 215.799 291.841 214.033C278.324 211.357 264.264 209.854 250.71 208.243L249.645 208.205C219.54 204.563 189.375 204.368 160.162 207.407C145.682 208.899 131.616 211.097 117.711 214.052Z" fill="#FFC56F"/>
<path d="M261.376 232.494C258.402 224.653 249.168 222.706 246.09 222.057C237.235 220.354 228.199 219.342 219.164 218.33L218.472 218.151C199.085 216.08 179.47 216.013 160.253 217.817C135.968 220.371 112.659 225.978 91.0169 234.814C88.0239 236.102 85.9211 238.504 84.5759 241.397C83.5433 244.224 83.6472 247.786 85.1813 250.393C85.7589 251.574 86.9805 254.247 88.3346 257.544C100.616 284.587 109.594 302.232 118.089 305.314C122.37 307.011 127.323 307.262 131.207 307.088C142.676 307.257 154.193 306.112 165.398 305.034L223.428 299.869C226.308 299.583 229.187 299.297 232.312 298.632C234.5 298.167 236.622 297.39 239.056 296.547C254.201 289.417 262.161 240.8 262.407 240.422C262.502 237.794 262.218 234.922 261.376 232.494Z" fill="#FFF04A"/>
<path fill-rule="evenodd" clip-rule="evenodd" d="M116.762 239.088C116.962 239.877 116.484 240.679 115.695 240.878C107.466 242.961 103.808 246.018 102.358 248.664C100.925 251.278 101.473 253.81 102.394 255.335C102.815 256.032 102.592 256.938 101.895 257.359C101.198 257.78 100.292 257.556 99.8714 256.859C98.5123 254.61 97.7438 250.948 99.7729 247.247C101.785 243.577 106.367 240.198 114.972 238.021C115.761 237.821 116.563 238.299 116.762 239.088Z" fill="white"/>
<path d="M142.49 169.507C142.681 170.407 139.917 171.757 136.316 172.523C132.716 173.288 129.641 173.179 129.45 172.278C129.259 171.378 132.023 170.028 135.624 169.263C139.224 168.497 142.299 168.606 142.49 169.507Z" fill="#FFA927"/>
<path fill-rule="evenodd" clip-rule="evenodd" d="M141.621 169.439C141.622 169.439 141.62 169.444 141.612 169.455C141.617 169.445 141.621 169.439 141.621 169.439ZM141.255 169.769C141.013 169.721 140.696 169.685 140.303 169.671C139.154 169.63 137.563 169.783 135.813 170.155C134.064 170.526 132.548 171.035 131.515 171.539C131.162 171.712 130.886 171.874 130.685 172.016C130.927 172.064 131.244 172.1 131.637 172.114C132.786 172.155 134.377 172.003 136.127 171.631C137.876 171.259 139.392 170.75 140.425 170.246C140.778 170.073 141.054 169.911 141.255 169.769ZM130.216 171.864C130.217 171.863 130.222 171.867 130.231 171.874C130.22 171.867 130.216 171.864 130.216 171.864ZM130.319 172.346C130.318 172.346 130.321 172.341 130.328 172.331C130.323 172.341 130.319 172.346 130.319 172.346ZM141.709 169.911C141.72 169.918 141.724 169.921 141.724 169.922C141.723 169.922 141.718 169.919 141.709 169.911ZM136.316 172.523C139.917 171.757 142.681 170.407 142.49 169.507C142.299 168.606 139.224 168.497 135.624 169.263C132.023 170.028 129.259 171.378 129.45 172.278C129.641 173.179 132.716 173.288 136.316 172.523Z" fill="#FEB548"/>
<path d="M246.99 180.231C247.181 181.132 244.417 182.482 240.816 183.247C237.216 184.013 234.141 183.903 233.95 183.003C233.759 182.103 236.523 180.753 240.124 179.987C243.724 179.222 246.799 179.331 246.99 180.231Z" fill="#FFA927"/>
<path fill-rule="evenodd" clip-rule="evenodd" d="M246.121 180.164C246.122 180.164 246.12 180.169 246.112 180.179C246.117 180.169 246.121 180.164 246.121 180.164ZM245.755 180.494C245.513 180.446 245.196 180.41 244.803 180.396C243.654 180.355 242.063 180.507 240.313 180.879C238.564 181.251 237.048 181.759 236.015 182.264C235.662 182.436 235.386 182.598 235.185 182.741C235.427 182.789 235.744 182.824 236.137 182.838C237.286 182.879 238.877 182.727 240.627 182.355C242.376 181.983 243.892 181.475 244.925 180.97C245.278 180.798 245.554 180.636 245.755 180.494ZM234.716 182.588C234.717 182.588 234.722 182.591 234.731 182.598C234.72 182.592 234.716 182.588 234.716 182.588ZM234.819 183.07C234.818 183.07 234.821 183.065 234.828 183.055C234.823 183.065 234.819 183.07 234.819 183.07ZM246.209 180.636C246.22 180.642 246.224 180.646 246.224 180.646C246.223 180.646 246.218 180.643 246.209 180.636ZM240.816 183.247C244.417 182.482 247.181 181.132 246.99 180.231C246.799 179.331 243.724 179.222 240.124 179.987C236.523 180.753 233.759 182.103 233.95 183.003C234.141 183.903 237.216 184.013 240.816 183.247Z" fill="#FEB548"/>
<path d="M100.314 195.508C100.506 196.408 97.7416 197.758 94.1407 198.524C90.5398 199.289 87.4656 199.18 87.2742 198.279C87.0829 197.379 89.8469 196.029 93.4478 195.264C97.0487 194.498 100.123 194.607 100.314 195.508Z" fill="#FFA927"/>
<path fill-rule="evenodd" clip-rule="evenodd" d="M99.4455 195.44C99.4461 195.44 99.4438 195.445 99.4364 195.456C99.4412 195.446 99.4448 195.44 99.4455 195.44ZM99.0796 195.77C98.8374 195.722 98.5202 195.686 98.1272 195.672C96.9787 195.631 95.3869 195.784 93.6374 196.155C91.8879 196.527 90.3718 197.036 89.3391 197.54C88.9858 197.713 88.7107 197.875 88.5089 198.017C88.7511 198.065 89.0683 198.101 89.4613 198.115C90.6098 198.156 92.2016 198.003 93.9511 197.632C95.7006 197.26 97.2167 196.751 98.2493 196.247C98.6027 196.074 98.8778 195.912 99.0796 195.77ZM88.0405 197.865C88.0411 197.864 88.0466 197.868 88.055 197.875C88.0441 197.868 88.0399 197.865 88.0405 197.865ZM88.143 198.347C88.1424 198.347 88.1447 198.342 88.1521 198.332C88.1473 198.342 88.1437 198.347 88.143 198.347ZM99.5335 195.912C99.5444 195.919 99.5486 195.922 99.548 195.923C99.5474 195.923 99.5419 195.92 99.5335 195.912ZM94.1407 198.524C97.7416 197.758 100.506 196.408 100.314 195.508C100.123 194.607 97.0487 194.498 93.4478 195.264C89.8469 196.029 87.0829 197.379 87.2742 198.279C87.4656 199.18 90.5398 199.289 94.1407 198.524Z" fill="#FEB548"/>
<path d="M183.713 155.065C183.904 155.966 181.14 157.316 177.539 158.081C173.938 158.847 170.864 158.737 170.673 157.837C170.481 156.937 173.245 155.587 176.846 154.821C180.447 154.056 183.521 154.165 183.713 155.065Z" fill="#FFA927"/>
<path fill-rule="evenodd" clip-rule="evenodd" d="M182.844 154.998C182.845 154.998 182.842 155.003 182.835 155.013C182.84 155.003 182.843 154.998 182.844 154.998ZM182.478 155.328C182.236 155.28 181.919 155.244 181.526 155.23C180.377 155.189 178.785 155.341 177.036 155.713C175.286 156.085 173.77 156.593 172.738 157.098C172.384 157.27 172.109 157.432 171.907 157.575C172.15 157.623 172.467 157.658 172.86 157.672C174.008 157.713 175.6 157.561 177.35 157.189C179.099 156.817 180.615 156.309 181.648 155.804C182.001 155.632 182.276 155.47 182.478 155.328ZM171.439 157.422C171.44 157.422 171.445 157.425 171.453 157.432C171.443 157.426 171.438 157.422 171.439 157.422ZM171.541 157.904C171.541 157.904 171.543 157.899 171.551 157.889C171.546 157.899 171.542 157.904 171.541 157.904ZM182.932 155.47C182.943 155.476 182.947 155.48 182.946 155.48C182.946 155.48 182.94 155.477 182.932 155.47ZM177.539 158.081C181.14 157.316 183.904 155.966 183.713 155.065C183.521 154.165 180.447 154.056 176.846 154.821C173.245 155.587 170.481 156.937 170.673 157.837C170.864 158.737 173.938 158.847 177.539 158.081Z" fill="#FEB548"/>
<path d="M309.418 153.333C309.609 154.233 306.845 155.583 303.244 156.349C299.643 157.114 296.569 157.005 296.378 156.105C296.186 155.204 298.95 153.854 302.551 153.089C306.152 152.323 309.226 152.433 309.418 153.333Z" fill="#FFA927"/>
<path fill-rule="evenodd" clip-rule="evenodd" d="M308.549 153.266C308.55 153.265 308.547 153.27 308.54 153.281C308.545 153.271 308.548 153.266 308.549 153.266ZM308.183 153.595C307.941 153.547 307.624 153.511 307.231 153.497C306.082 153.457 304.49 153.609 302.741 153.981C300.991 154.353 299.475 154.861 298.443 155.365C298.089 155.538 297.814 155.7 297.612 155.842C297.855 155.89 298.172 155.926 298.565 155.94C299.713 155.981 301.305 155.829 303.055 155.457C304.804 155.085 306.32 154.577 307.353 154.072C307.706 153.899 307.981 153.738 308.183 153.595ZM297.144 155.69C297.145 155.69 297.15 155.693 297.159 155.7C297.148 155.694 297.143 155.69 297.144 155.69ZM297.247 156.172C297.246 156.172 297.248 156.167 297.256 156.157C297.251 156.167 297.247 156.172 297.247 156.172ZM308.637 153.737C308.648 153.744 308.652 153.748 308.651 153.748C308.651 153.748 308.645 153.745 308.637 153.737ZM303.244 156.349C306.845 155.583 309.609 154.233 309.418 153.333C309.226 152.433 306.152 152.323 302.551 153.089C298.95 153.854 296.186 155.204 296.378 156.105C296.569 157.005 299.643 157.114 303.244 156.349Z" fill="#FEB548"/>
<path d="M168.611 185.534C168.803 186.434 166.039 187.785 162.438 188.55C158.837 189.315 155.762 189.206 155.571 188.306C155.38 187.406 158.144 186.055 161.745 185.29C165.346 184.525 168.42 184.634 168.611 185.534Z" fill="#FFA927"/>
<path fill-rule="evenodd" clip-rule="evenodd" d="M167.742 185.467C167.743 185.467 167.741 185.472 167.733 185.482C167.738 185.472 167.742 185.467 167.742 185.467ZM167.376 185.796C167.134 185.749 166.817 185.713 166.424 185.699C165.276 185.658 163.684 185.81 161.934 186.182C160.185 186.554 158.669 187.062 157.636 187.567C157.283 187.739 157.008 187.901 156.806 188.043C157.048 188.091 157.365 188.127 157.758 188.141C158.907 188.182 160.499 188.03 162.248 187.658C163.998 187.286 165.514 186.778 166.546 186.273C166.9 186.101 167.175 185.939 167.376 185.796ZM156.337 187.891C156.338 187.891 156.343 187.894 156.352 187.901C156.341 187.895 156.337 187.891 156.337 187.891ZM156.44 188.373C156.439 188.373 156.442 188.368 156.449 188.358C156.444 188.368 156.441 188.373 156.44 188.373ZM167.83 185.939C167.841 185.945 167.845 185.949 167.845 185.949C167.844 185.949 167.839 185.946 167.83 185.939ZM162.438 188.55C166.039 187.785 168.803 186.434 168.611 185.534C168.42 184.634 165.346 184.525 161.745 185.29C158.144 186.055 155.38 187.406 155.571 188.306C155.762 189.206 158.837 189.315 162.438 188.55Z" fill="#FEB548"/>
<path d="M322.012 185.865C322.203 186.765 319.439 188.116 315.838 188.881C312.237 189.646 309.163 189.537 308.971 188.637C308.78 187.737 311.544 186.386 315.145 185.621C318.746 184.856 321.82 184.965 322.012 185.865Z" fill="#FFA927"/>
<path fill-rule="evenodd" clip-rule="evenodd" d="M321.143 185.798C321.143 185.798 321.141 185.803 321.134 185.813C321.138 185.803 321.142 185.798 321.143 185.798ZM320.777 186.128C320.535 186.08 320.217 186.044 319.824 186.03C318.676 185.989 317.084 186.141 315.335 186.513C313.585 186.885 312.069 187.393 311.036 187.898C310.683 188.07 310.408 188.232 310.206 188.374C310.448 188.422 310.766 188.458 311.159 188.472C312.307 188.513 313.899 188.361 315.648 187.989C317.398 187.617 318.914 187.109 319.947 186.604C320.3 186.432 320.575 186.27 320.777 186.128ZM309.738 188.222C309.738 188.222 309.744 188.225 309.752 188.232C309.741 188.226 309.737 188.222 309.738 188.222ZM309.84 188.704C309.84 188.704 309.842 188.699 309.849 188.689C309.845 188.699 309.841 188.704 309.84 188.704ZM321.231 186.27C321.242 186.276 321.246 186.28 321.245 186.28C321.245 186.28 321.239 186.277 321.231 186.27ZM315.838 188.881C319.439 188.116 322.203 186.765 322.012 185.865C321.82 184.965 318.746 184.856 315.145 185.621C311.544 186.386 308.78 187.737 308.971 188.637C309.163 189.537 312.237 189.646 315.838 188.881Z" fill="#FEB548"/>
<path d="M222.254 170.724C222.445 171.625 219.681 172.975 216.08 173.74C212.479 174.506 209.405 174.396 209.214 173.496C209.022 172.596 211.786 171.246 215.387 170.48C218.988 169.715 222.062 169.824 222.254 170.724Z" fill="#FFA927"/>
<path fill-rule="evenodd" clip-rule="evenodd" d="M221.385 170.657C221.386 170.657 221.383 170.662 221.376 170.672C221.381 170.662 221.384 170.657 221.385 170.657ZM221.019 170.987C220.777 170.939 220.46 170.903 220.067 170.889C218.918 170.848 217.326 171 215.577 171.372C213.827 171.744 212.311 172.253 211.279 172.757C210.925 172.93 210.65 173.091 210.448 173.234C210.691 173.282 211.008 173.318 211.401 173.332C212.549 173.372 214.141 173.22 215.891 172.848C217.64 172.477 219.156 171.968 220.189 171.464C220.542 171.291 220.817 171.129 221.019 170.987ZM209.98 173.081C209.981 173.081 209.986 173.084 209.994 173.092C209.984 173.085 209.979 173.082 209.98 173.081ZM210.082 173.564C210.082 173.564 210.084 173.559 210.092 173.548C210.087 173.558 210.083 173.564 210.082 173.564ZM221.473 171.129C221.484 171.136 221.488 171.139 221.487 171.139C221.487 171.14 221.481 171.136 221.473 171.129ZM216.08 173.74C219.681 172.975 222.445 171.625 222.254 170.724C222.062 169.824 218.988 169.715 215.387 170.48C211.786 171.246 209.022 172.596 209.214 173.496C209.405 174.396 212.479 174.506 216.08 173.74Z" fill="#FEB548"/>
<path d="M287.496 178.436C287.687 179.337 284.923 180.687 281.322 181.452C277.721 182.218 274.647 182.108 274.456 181.208C274.264 180.308 277.028 178.958 280.629 178.192C284.23 177.427 287.305 177.536 287.496 178.436Z" fill="#FFA927"/>
<path fill-rule="evenodd" clip-rule="evenodd" d="M286.627 178.369C286.628 178.369 286.625 178.374 286.618 178.384C286.623 178.374 286.626 178.369 286.627 178.369ZM286.261 178.699C286.019 178.651 285.702 178.615 285.309 178.601C284.16 178.56 282.569 178.712 280.819 179.084C279.07 179.456 277.553 179.964 276.521 180.469C276.167 180.642 275.892 180.803 275.691 180.946C275.933 180.994 276.25 181.03 276.643 181.044C277.791 181.084 279.383 180.932 281.133 180.56C282.882 180.188 284.398 179.68 285.431 179.176C285.784 179.003 286.059 178.841 286.261 178.699ZM275.222 180.793C275.223 180.793 275.228 180.796 275.237 180.804C275.226 180.797 275.222 180.793 275.222 180.793ZM275.325 181.275C275.324 181.276 275.326 181.271 275.334 181.26C275.329 181.27 275.325 181.275 275.325 181.275ZM286.715 178.841C286.726 178.847 286.73 178.851 286.73 178.851C286.729 178.851 286.724 178.848 286.715 178.841ZM281.322 181.452C284.923 180.687 287.687 179.337 287.496 178.436C287.305 177.536 284.23 177.427 280.629 178.192C277.028 178.958 274.264 180.308 274.456 181.208C274.647 182.108 277.721 182.218 281.322 181.452Z" fill="#FEB548"/>
<path d="M252.869 143.773C253.06 144.674 250.296 146.024 246.695 146.789C243.094 147.555 240.02 147.445 239.829 146.545C239.638 145.645 242.402 144.295 246.002 143.529C249.603 142.764 252.678 142.873 252.869 143.773Z" fill="#FFA927"/>
<path fill-rule="evenodd" clip-rule="evenodd" d="M252 143.706C252.001 143.706 251.998 143.711 251.991 143.721C251.996 143.711 252 143.706 252 143.706ZM251.634 144.036C251.392 143.988 251.075 143.952 250.682 143.938C249.533 143.897 247.942 144.049 246.192 144.421C244.443 144.793 242.926 145.301 241.894 145.806C241.541 145.978 241.265 146.14 241.064 146.283C241.306 146.331 241.623 146.366 242.016 146.38C243.165 146.421 244.756 146.269 246.506 145.897C248.255 145.525 249.771 145.017 250.804 144.512C251.157 144.34 251.433 144.178 251.634 144.036ZM240.595 146.13C240.596 146.13 240.601 146.133 240.61 146.14C240.599 146.134 240.595 146.13 240.595 146.13ZM240.698 146.612C240.697 146.612 240.699 146.607 240.707 146.597C240.702 146.607 240.698 146.612 240.698 146.612ZM252.088 144.178C252.099 144.184 252.103 144.188 252.103 144.188C252.102 144.188 252.097 144.185 252.088 144.178ZM246.695 146.789C250.296 146.024 253.06 144.674 252.869 143.773C252.678 142.873 249.603 142.764 246.002 143.529C242.402 144.295 239.638 145.645 239.829 146.545C240.02 147.445 243.094 147.555 246.695 146.789Z" fill="#FEB548"/>
<path d="M151.848 260.331C147.168 260.151 143.601 254.119 143.88 246.857C144.159 239.595 148.178 233.854 152.858 234.034C157.537 234.214 161.104 240.246 160.825 247.508C160.546 254.769 156.527 260.51 151.848 260.331Z" fill="white"/>
<path d="M149.981 234.683C152.732 236.675 155.376 241.49 155.159 247.138C154.942 252.787 152.123 257.796 149.226 259.57C145.884 258.021 143.645 252.353 143.862 246.704C144.079 241.056 146.143 236.422 149.981 234.683Z" fill="#231F20"/>
<path d="M181.662 257.623C176.983 257.443 173.416 251.411 173.695 244.149C173.974 236.887 177.993 231.146 182.672 231.326C187.351 231.506 190.918 237.538 190.639 244.8C190.361 252.061 186.341 257.802 181.662 257.623Z" fill="white"/>
<path d="M179.795 231.975C182.547 233.967 185.19 238.782 184.973 244.43C184.756 250.079 181.937 255.088 179.041 256.862C175.698 255.313 173.46 249.645 173.677 243.996C173.894 238.348 175.957 233.714 179.795 231.975Z" fill="#231F20"/>
<path d="M165.775 269.799C166.736 269.799 167.697 281.326 167.697 282.286C168.657 288.05 169.618 294.774 173.46 297.656C175.381 298.617 176.342 299.577 178.263 299.577C193.633 301.498 193.633 277.484 193.633 267.878C193.633 267.878 193.633 263.075 193.633 264.035C194.593 264.996 166.736 269.799 165.775 269.799Z" fill="#FD476D"/>
<path fill-rule="evenodd" clip-rule="evenodd" d="M224.176 257.669C224.509 259.151 223.578 260.622 222.096 260.955L136.604 280.167C135.122 280.5 133.651 279.569 133.318 278.087C132.985 276.605 133.916 275.134 135.398 274.801L220.89 255.589C222.372 255.256 223.843 256.187 224.176 257.669Z" fill="#231F20"/>
<path fill-rule="evenodd" clip-rule="evenodd" d="M177.996 266.104C179.507 265.953 180.855 267.055 181.006 268.566L178.27 268.84L175.533 269.114C175.382 267.602 176.485 266.255 177.996 266.104ZM178.27 268.84C175.533 269.114 175.533 269.114 175.533 269.114L175.616 269.94C175.668 270.467 175.743 271.221 175.833 272.128C176.013 273.944 176.253 276.374 176.493 278.833C176.733 281.293 176.973 283.78 177.153 285.71C177.242 286.676 177.317 287.497 177.368 288.103C177.407 288.561 177.426 288.825 177.435 288.942C177.439 289.001 177.441 289.022 177.441 289.012C177.441 290.531 178.672 291.762 180.191 291.762C181.71 291.762 182.941 290.531 182.941 289.012C182.941 288.605 182.798 287.022 182.629 285.201C182.448 283.258 182.208 280.762 181.967 278.299C181.727 275.836 181.487 273.402 181.306 271.586C181.216 270.677 181.141 269.922 181.089 269.395L181.006 268.566C181.006 268.566 181.006 268.566 178.27 268.84Z" fill="#231F20"/>
</svg>
