<svg width="430" height="430" viewBox="0 0 430 430" fill="none" xmlns="http://www.w3.org/2000/svg">
<path d="M430 215C430 333.741 333.741 430 215 430C96.2588 430 0 333.741 0 215C0 96.2588 96.2588 0 215 0C333.741 0 430 96.2588 430 215Z" fill="#FFCF52"/>
<path d="M387.224 151.726C386.978 155.307 383.875 158.011 380.293 157.764C376.712 157.518 374.008 154.415 374.255 150.833C374.501 147.252 377.604 144.548 381.186 144.795C384.767 145.041 387.471 148.144 387.224 151.726Z" fill="white"/>
<path d="M395.072 183.339C394.825 186.921 391.722 189.624 388.141 189.378C384.56 189.131 381.856 186.028 382.103 182.447C382.349 178.865 385.452 176.162 389.033 176.408C392.615 176.655 395.318 179.758 395.072 183.339Z" fill="white"/>
<path d="M375.352 134.87C375.144 137.901 372.518 140.188 369.488 139.98C366.457 139.771 364.17 137.145 364.378 134.115C364.587 131.085 367.212 128.797 370.243 129.006C373.273 129.214 375.561 131.84 375.352 134.87Z" fill="white"/>
<path d="M382.208 195.484C381.999 198.515 379.373 200.802 376.343 200.594C373.313 200.385 371.025 197.76 371.234 194.729C371.442 191.699 374.068 189.411 377.098 189.62C380.129 189.828 382.416 192.454 382.208 195.484Z" fill="white"/>
<path d="M376.348 120.405C376.234 122.058 374.802 123.306 373.149 123.192C371.496 123.078 370.249 121.646 370.362 119.993C370.476 118.34 371.908 117.092 373.561 117.206C375.214 117.32 376.462 118.752 376.348 120.405Z" fill="white"/>
<path d="M388.493 133.269C388.379 134.922 386.947 136.17 385.294 136.056C383.641 135.942 382.393 134.51 382.507 132.857C382.621 131.204 384.053 129.956 385.706 130.07C387.359 130.184 388.607 131.616 388.493 133.269Z" fill="#E9ECEF"/>
<path d="M375.674 217.587C375.561 219.24 374.128 220.488 372.475 220.374C370.823 220.261 369.575 218.828 369.689 217.176C369.802 215.523 371.235 214.275 372.887 214.389C374.54 214.502 375.788 215.935 375.674 217.587Z" fill="#E9ECEF"/>
<path d="M147.997 95.196C149.319 100.194 146.339 105.317 141.341 106.64C136.344 107.962 131.22 104.982 129.898 99.9841C128.576 94.9862 131.556 89.8627 136.553 88.5406C141.551 87.2184 146.675 90.1981 147.997 95.196Z" fill="white"/>
<path d="M151.399 70.0203C152.34 72.7932 150.856 75.8043 148.083 76.7459C145.31 77.6874 142.299 76.2028 141.357 73.4299C140.416 70.657 141.9 67.6459 144.673 66.7044C147.446 65.7629 150.457 67.2474 151.399 70.0203Z" fill="white"/>
<mask id="mask0" mask-type="alpha" maskUnits="userSpaceOnUse" x="0" y="0" width="430" height="430">
<path d="M430 215C430 333.741 333.741 430 215 430C96.2588 430 0 333.741 0 215C0 96.2588 96.2588 0 215 0C333.741 0 430 96.2588 430 215Z" fill="#FFCF52"/>
</mask>
<g mask="url(#mask0)">
<path d="M334.43 146.563C377.884 180.387 366.283 267.968 308.518 342.18C250.752 416.391 168.697 449.131 125.242 415.307C81.7875 381.482 93.3888 293.901 151.154 219.69C208.92 145.478 290.975 112.738 334.43 146.563Z" fill="#37F4BC"/>
<path d="M319.734 113.792C360.649 145.639 342.36 237.565 278.884 319.113C215.408 400.661 130.782 440.951 89.8666 409.103C48.9515 377.255 67.2408 285.33 130.717 203.782C194.193 122.234 278.819 81.9436 319.734 113.792Z" fill="white"/>
<path fill-rule="evenodd" clip-rule="evenodd" d="M264.915 318.086C328.435 236.482 346.989 144.688 306.356 113.06C299.19 107.482 289.969 103.982 280.434 102.722C295.453 101.982 309.705 105.815 320.123 113.924C361.038 145.772 342.407 237.505 278.887 319.11C225.99 387.066 158.433 426.403 113.687 419.269C157.584 417.564 217.159 379.438 264.915 318.086Z" fill="#F1F3F5"/>
<path d="M274.413 107.757C312.236 137.198 297.786 219.019 242.137 290.511C186.489 362.002 110.717 396.091 72.894 366.65C35.0714 337.209 49.5218 255.388 105.17 183.896C160.818 112.405 236.591 78.3166 274.413 107.757Z" fill="#37F4BC"/>
<g filter="url(#filter0_f)">
<path fill-rule="evenodd" clip-rule="evenodd" d="M254.953 272.804C209.19 322.684 148.409 341.446 113.581 314.336C78.8121 287.273 82.0143 223.916 118.96 167.384C114.253 172.637 109.646 178.146 105.17 183.896C49.5218 255.388 35.0714 337.209 72.894 366.65C110.717 396.091 186.489 362.002 242.137 290.511C246.687 284.666 250.961 278.753 254.953 272.804Z" fill="#00DF9C"/>
</g>
<path fill-rule="evenodd" clip-rule="evenodd" d="M233.898 112.18C233.892 110.75 235.047 109.586 236.477 109.58C250.045 109.525 267.375 116.228 274.88 136.453C282.288 156.418 279.835 188.904 255.991 239.849C255.385 241.145 253.843 241.704 252.547 241.097C251.252 240.491 250.693 238.949 251.3 237.654C274.968 187.084 276.693 156.227 270.024 138.255C263.451 120.541 248.446 114.711 236.498 114.759C235.068 114.765 233.904 113.611 233.898 112.18Z" fill="white"/>
<path fill-rule="evenodd" clip-rule="evenodd" d="M174.331 134.959C173.584 133.739 173.968 132.145 175.188 131.398C184.778 125.532 198.549 118.622 210.443 117.42C211.866 117.276 213.136 118.313 213.28 119.736C213.424 121.159 212.387 122.429 210.964 122.573C200.299 123.651 187.37 130.018 177.891 135.817C176.671 136.563 175.077 136.179 174.331 134.959Z" fill="white"/>
<path d="M135.639 223.577C128.367 224.914 120.789 216.849 118.714 205.563C116.639 194.277 120.853 184.044 128.125 182.707C135.398 181.37 142.975 189.435 145.05 200.721C147.125 212.007 142.912 222.24 135.639 223.577Z" fill="white"/>
<path d="M123.917 184.7C128.844 186.819 134.578 193.328 136.192 202.106C137.806 210.885 135.19 219.576 131.339 223.309C125.653 222.075 120.249 214.113 118.635 205.334C117.021 196.555 118.602 188.702 123.917 184.7Z" fill="#231F20"/>
<path d="M179.395 225.831C172.123 227.168 164.545 219.102 162.47 207.816C160.395 196.529 164.609 186.296 171.881 184.959C179.153 183.622 186.731 191.688 188.806 202.974C190.881 214.26 186.668 224.494 179.395 225.831Z" fill="white"/>
<path d="M167.68 186.952C172.608 189.071 178.342 195.58 179.956 204.358C181.57 213.137 178.954 221.828 175.102 225.561C169.417 224.327 164.013 216.365 162.399 207.586C160.785 198.807 162.366 190.954 167.68 186.952Z" fill="#231F20"/>
<path d="M180.961 266.212C182.016 265.511 191.488 277.473 192.189 278.528C197.453 284.159 203.418 290.845 209.743 291.205C212.555 290.857 214.311 291.211 216.422 289.809C234.709 280.697 217.175 254.315 210.162 243.762C210.162 243.762 206.655 238.486 207.356 239.541C209.113 239.895 182.016 265.511 180.961 266.212Z" fill="#FF845D"/>
<path fill-rule="evenodd" clip-rule="evenodd" d="M192.092 253.713C193.374 252.664 195.264 252.852 196.314 254.133L193.993 256.034L191.672 257.935C190.623 256.653 190.811 254.763 192.092 253.713ZM193.993 256.034C191.672 257.935 191.672 257.935 191.672 257.935L192.367 258.783C192.809 259.324 193.442 260.097 194.203 261.028C195.727 262.891 197.765 265.386 199.824 267.913C201.885 270.441 203.964 272.999 205.572 274.989C206.376 275.985 207.058 276.834 207.559 277.464C208.051 278.083 208.28 278.383 208.325 278.442C208.331 278.45 208.334 278.454 208.334 278.453C209.251 279.833 211.113 280.208 212.493 279.291C213.873 278.374 214.248 276.512 213.331 275.132C213.054 274.716 211.772 273.117 210.239 271.219C208.624 269.218 206.537 266.652 204.475 264.122C202.413 261.592 200.373 259.095 198.848 257.23C198.086 256.298 197.453 255.524 197.01 254.983L196.315 254.134C196.315 254.134 196.314 254.133 193.993 256.034Z" fill="#231F20"/>
<path fill-rule="evenodd" clip-rule="evenodd" d="M130.363 235.632C131.92 235.065 133.642 235.868 134.208 237.425C137.042 245.215 146.522 262.044 167.881 263.688C178.063 264.472 187.142 258.62 194.488 250.31C201.797 242.04 206.905 231.853 209.094 225.299C209.619 223.727 211.319 222.879 212.89 223.404C214.462 223.929 215.31 225.628 214.785 227.2C212.374 234.418 206.892 245.336 198.983 254.283C191.112 263.189 180.346 270.666 167.42 269.67C142.56 267.756 131.72 248.134 128.57 239.477C128.003 237.92 128.806 236.199 130.363 235.632Z" fill="black"/>
</g>
<defs>
<filter id="filter0_f" x="46.6328" y="162.204" width="213.501" height="220.209" filterUnits="userSpaceOnUse" color-interpolation-filters="sRGB">
<feFlood flood-opacity="0" result="BackgroundImageFix"/>
<feBlend mode="normal" in="SourceGraphic" in2="BackgroundImageFix" result="shape"/>
<feGaussianBlur stdDeviation="2.58983" result="effect1_foregroundBlur"/>
</filter>
</defs>
</svg>
