<svg width="430" height="430" viewBox="0 0 430 430" fill="none" xmlns="http://www.w3.org/2000/svg">
<path d="M430 215C430 333.741 333.741 430 215 430C96.2588 430 0 333.741 0 215C0 96.2588 96.2588 0 215 0C333.741 0 430 96.2588 430 215Z" fill="#FFCF52"/>
<path d="M325.486 283.295C316.641 288.075 312.855 299.699 317.203 308.728L327.463 330.035C330.476 336.291 331.982 339.419 334.84 340.309C337.698 341.199 340.714 339.479 346.745 336.038L367.287 324.322C375.992 319.357 379.474 307.638 374.906 298.682C370.513 290.069 360.356 287.356 352.219 292.622C350.562 293.695 348.358 293.009 347.603 291.185C343.894 282.231 333.991 278.698 325.486 283.295Z" fill="#9971FF"/>
<path d="M88.4054 207.385C101.086 186.983 119.384 196.378 125.451 205.937C131.249 213.329 127.986 241.828 108.265 264.907C83.6143 293.757 71.4858 270.922 69.039 263.91C64.7548 251.633 72.5547 232.888 88.4054 207.385Z" fill="#FF845E"/>
<path d="M274.825 199.595C268.726 183.646 242.622 123.342 196.675 92.6484C184.416 85.4227 171.285 79.0287 153.658 75.2546C113.344 66.6228 89.6521 84.6136 80.8143 101.929C54.1117 154.246 83.9169 215.395 101.619 221.085L227.876 237.282C242.006 282.833 259.638 404.502 293.739 366.619C314.404 343.662 289.439 237.81 274.825 199.595Z" fill="#FF845E"/>
<path fill-rule="evenodd" clip-rule="evenodd" d="M126.593 204.704C123.277 199.533 116.737 194.447 109.197 193.365C105.362 192.814 101.274 193.303 97.2835 195.346C93.3029 197.383 89.5314 200.906 86.2112 206.248C85.6281 207.186 85.916 208.42 86.8541 209.003C87.7922 209.586 89.0254 209.298 89.6085 208.36C92.6285 203.501 95.8996 200.547 99.1058 198.907C102.302 197.271 105.545 196.881 108.628 197.324C114.886 198.222 120.499 202.566 123.267 206.928L123.32 207.012L123.382 207.091C124.448 208.45 125.297 211.113 125.492 215.042C125.682 218.891 125.229 223.679 123.985 229.003C121.496 239.648 115.887 252.248 106.249 263.527C105.532 264.367 105.631 265.629 106.47 266.347C107.31 267.064 108.573 266.965 109.29 266.125C119.373 254.325 125.256 241.136 127.879 229.913C129.191 224.304 129.699 219.138 129.487 214.844C129.281 210.678 128.382 207.043 126.593 204.704Z" fill="black"/>
<path d="M116.17 219.172C124.847 193.26 147.002 198.643 155.946 207.526C164.06 214.094 167.595 246.369 151.955 277.139C132.405 315.602 113.601 293.742 109.211 286.683C101.524 274.323 105.324 251.561 116.17 219.172Z" fill="#FF845E"/>
<path fill-rule="evenodd" clip-rule="evenodd" d="M156.792 205.957C151.95 201.19 143.645 197.382 135.263 198.229C126.607 199.104 118.323 204.889 113.78 218.455C106.755 239.434 102.589 256.631 102.676 269.672C102.683 270.777 103.584 271.666 104.689 271.659C105.793 271.651 106.683 270.75 106.675 269.646C106.593 257.315 110.563 240.659 117.573 219.725C121.707 207.379 128.839 202.899 135.666 202.209C142.726 201.495 149.93 204.779 154.043 208.864L154.115 208.935L154.194 208.999C155.679 210.201 157.225 212.812 158.406 216.882C159.565 220.878 160.295 226.015 160.361 231.93C160.492 243.758 157.967 258.503 151.153 273.123C150.687 274.124 151.12 275.314 152.121 275.78C153.122 276.247 154.312 275.814 154.779 274.812C161.859 259.622 164.498 244.28 164.36 231.886C164.291 225.69 163.528 220.182 162.247 215.768C161.002 211.476 159.188 207.942 156.792 205.957Z" fill="black"/>
<path d="M153.433 233.779C155.84 206.56 178.639 206.638 189.405 213.196C198.826 217.695 209.775 248.26 201.727 281.826C191.666 323.783 168.29 306.9 162.378 301.057C152.025 290.825 150.424 267.804 153.433 233.779Z" fill="#FF845E"/>
<path fill-rule="evenodd" clip-rule="evenodd" d="M167.13 208.851C175.123 206.063 184.134 207.864 189.95 211.407C190.893 211.981 191.192 213.212 190.618 214.155C190.043 215.098 188.812 215.397 187.869 214.823C182.919 211.807 175.148 210.291 168.448 212.628C161.97 214.888 156.076 220.906 154.929 233.874C153.495 250.09 153.122 263.693 154.224 274.546C155.433 286.461 158.386 294.709 163.288 299.553C164.073 300.329 164.081 301.596 163.304 302.381C162.528 303.167 161.262 303.174 160.476 302.398C154.568 296.56 151.482 287.153 150.244 274.95C149.105 263.724 149.503 249.83 150.945 233.522C152.205 219.271 158.915 211.717 167.13 208.851Z" fill="black"/>
<path d="M221.912 329.143C238.662 317.309 241.292 247.876 240.513 214.639C241.097 195.123 237.373 155.222 217.81 151.746C198.248 148.27 190.911 182.009 189.688 199.312C184.097 222.527 197.709 248.679 205.214 258.853C201.919 262.779 194.271 276.487 190.041 299.906C184.755 329.18 200.974 343.935 221.912 329.143Z" fill="#FF845E"/>
<path fill-rule="evenodd" clip-rule="evenodd" d="M189.84 196.983C190.914 197.229 191.574 198.301 191.314 199.378C188.641 210.475 190.538 222.406 194.116 232.928C197.689 243.436 202.871 252.338 206.511 257.273L207.441 258.534L206.421 259.749C203.426 263.317 195.882 276.655 191.691 299.858C191.22 302.471 190.926 304.955 190.795 307.298C190.733 308.402 189.79 309.258 188.687 309.211C187.584 309.163 186.74 308.23 186.802 307.126C186.942 304.607 187.257 301.959 187.756 299.196C191.673 277.503 198.525 263.862 202.405 258.454C198.634 253.063 193.766 244.371 190.328 234.259C186.621 223.359 184.508 210.606 187.427 198.488C187.686 197.411 188.767 196.737 189.84 196.983ZM240.149 212.261C241.253 212.221 242.169 213.084 242.195 214.188C242.514 227.826 242.116 253.208 240.559 272.556C240.471 273.659 239.506 274.491 238.405 274.417C237.304 274.342 236.484 273.388 236.573 272.286C238.117 253.097 238.513 227.856 238.196 214.332C238.171 213.228 239.045 212.301 240.149 212.261Z" fill="black"/>
<path fill-rule="evenodd" clip-rule="evenodd" d="M212.465 355.646C212.723 354.858 213.57 354.429 214.357 354.687L257.636 368.864C258.423 369.122 258.852 369.969 258.594 370.756C258.336 371.544 257.489 371.973 256.702 371.715L213.424 357.538C212.636 357.28 212.207 356.433 212.465 355.646Z" fill="#FD476D"/>
<path fill-rule="evenodd" clip-rule="evenodd" d="M227.63 377.943C227.701 377.117 228.427 376.505 229.252 376.576L255.843 378.843C256.668 378.914 257.28 379.64 257.21 380.465C257.14 381.291 256.413 381.903 255.588 381.833L228.997 379.565C228.172 379.494 227.56 378.768 227.63 377.943Z" fill="#FD476D"/>
</svg>
