<svg width="430" height="430" viewBox="0 0 430 430" fill="none" xmlns="http://www.w3.org/2000/svg">
<path d="M430 215C430 333.741 333.741 430 215 430C96.2588 430 0 333.741 0 215C0 96.2588 96.2588 0 215 0C333.741 0 430 96.2588 430 215Z" fill="#4CE6B7"/>
<mask id="mask0" mask-type="alpha" maskUnits="userSpaceOnUse" x="0" y="0" width="430" height="430">
<path d="M430 215C430 333.741 333.741 430 215 430C96.2588 430 0 333.741 0 215C0 96.2588 96.2588 0 215 0C333.741 0 430 96.2588 430 215Z" fill="#4CE6B7"/>
</mask>
<g mask="url(#mask0)">
<path d="M317.788 138.302C315.658 128.28 307.875 121.02 298.529 118.995C306.243 113.343 310.401 103.545 308.27 93.5227C305.369 79.8755 292.183 71.312 278.536 74.2128C268.514 76.3431 261.253 84.1267 259.228 93.472C253.577 85.7584 243.778 81.6007 233.756 83.731C223.734 85.8613 216.473 93.6449 214.448 102.99C208.797 95.2766 198.998 91.119 188.976 93.2492C178.954 95.3795 171.694 103.163 169.668 112.508C164.017 104.795 154.219 100.637 144.196 102.767C134.174 104.898 126.914 112.681 124.889 122.027C119.237 114.313 109.439 110.155 99.4168 112.286C85.7696 115.186 77.2061 128.373 80.1069 142.02C82.2372 152.042 90.0208 159.303 99.3661 161.328C91.6525 166.979 87.4948 176.778 89.6251 186.8C91.7554 196.822 99.539 204.083 108.884 206.108C101.171 211.759 97.0131 221.558 99.1433 231.58C101.274 241.602 109.057 248.862 118.403 250.888C110.689 256.539 106.531 266.337 108.662 276.359C110.792 286.382 118.575 293.642 127.921 295.667C120.207 301.319 116.05 311.117 118.18 321.139C120.31 331.161 128.094 338.422 137.439 340.447C129.725 346.098 125.568 355.897 127.698 365.919C129.828 375.941 137.612 383.201 146.957 385.227C139.244 390.878 135.086 400.677 137.216 410.699C139.347 420.721 147.13 427.981 156.475 430.006C148.762 435.658 144.604 445.456 146.734 455.478C149.635 469.126 162.822 477.689 176.469 474.788C186.491 472.658 193.752 464.874 195.777 455.529C201.428 463.243 211.227 467.4 221.249 465.27C231.271 463.14 238.531 455.356 240.557 446.011C246.208 453.724 256.006 457.882 266.029 455.752C276.051 453.622 283.311 445.838 285.336 436.493C290.988 444.206 300.786 448.364 310.808 446.234C320.83 444.103 328.091 436.32 330.116 426.974C335.767 434.688 345.566 438.846 355.588 436.715C369.235 433.815 377.799 420.628 374.898 406.981C372.768 396.959 364.984 389.698 355.639 387.673C363.352 382.022 367.51 372.223 365.38 362.201C363.249 352.179 355.466 344.919 346.12 342.893C353.834 337.242 357.992 327.443 355.861 317.421C353.731 307.399 345.947 300.139 336.602 298.114C344.316 292.462 348.473 282.664 346.343 272.642C344.213 262.619 336.429 255.359 327.084 253.334C334.798 247.683 338.955 237.884 336.825 227.862C334.695 217.84 326.911 210.579 317.566 208.554C325.279 202.903 329.437 193.104 327.307 183.082C325.176 173.06 317.393 165.8 308.047 163.774C315.761 158.123 319.919 148.325 317.788 138.302Z" fill="#FF9900"/>
<path d="M160.067 181.634C163.718 180.858 166.048 177.269 165.272 173.619C164.496 169.968 160.908 167.637 157.257 168.413C153.606 169.189 151.276 172.778 152.052 176.429C152.828 180.079 156.416 182.41 160.067 181.634Z" fill="white"/>
<path fill-rule="evenodd" clip-rule="evenodd" d="M157.483 169.479C154.421 170.13 152.467 173.14 153.118 176.202C153.768 179.264 156.778 181.218 159.84 180.568C162.902 179.917 164.857 176.907 164.206 173.845C163.555 170.783 160.545 168.828 157.483 169.479ZM150.985 176.655C150.084 172.415 152.79 168.248 157.03 167.347C161.27 166.446 165.437 169.152 166.338 173.392C167.239 177.631 164.533 181.799 160.293 182.7C156.054 183.601 151.886 180.895 150.985 176.655Z" fill="#FFCC80"/>
<path d="M205.7 171.935C209.351 171.159 211.681 167.57 210.905 163.919C210.129 160.269 206.54 157.938 202.89 158.714C199.239 159.49 196.908 163.079 197.684 166.729C198.46 170.38 202.049 172.711 205.7 171.935Z" fill="white"/>
<path fill-rule="evenodd" clip-rule="evenodd" d="M203.116 159.78C200.054 160.431 198.1 163.441 198.75 166.503C199.401 169.565 202.411 171.519 205.473 170.868C208.535 170.217 210.49 167.208 209.839 164.146C209.188 161.084 206.178 159.129 203.116 159.78ZM196.618 166.956C195.717 162.716 198.423 158.549 202.663 157.648C206.902 156.746 211.07 159.453 211.971 163.692C212.872 167.932 210.166 172.099 205.926 173.001C201.687 173.902 197.519 171.195 196.618 166.956Z" fill="#FFCC80"/>
<path d="M251.333 162.235C254.983 161.459 257.314 157.87 256.538 154.219C255.762 150.568 252.173 148.238 248.522 149.014C244.872 149.79 242.541 153.378 243.317 157.029C244.093 160.68 247.682 163.011 251.333 162.235Z" fill="white"/>
<path fill-rule="evenodd" clip-rule="evenodd" d="M248.749 150.08C245.687 150.731 243.732 153.74 244.383 156.802C245.034 159.864 248.044 161.819 251.106 161.168C254.168 160.517 256.122 157.507 255.472 154.445C254.821 151.384 251.811 149.429 248.749 150.08ZM242.251 157.256C241.35 153.016 244.056 148.849 248.296 147.947C252.535 147.046 256.703 149.753 257.604 153.992C258.505 158.232 255.799 162.399 251.559 163.3C247.319 164.202 243.152 161.495 242.251 157.256Z" fill="#FFCC80"/>
<path d="M175.52 254.348C179.171 253.572 181.501 249.983 180.725 246.332C179.949 242.682 176.361 240.351 172.71 241.127C169.059 241.903 166.729 245.492 167.505 249.143C168.281 252.793 171.869 255.124 175.52 254.348Z" fill="white"/>
<path fill-rule="evenodd" clip-rule="evenodd" d="M172.936 242.194C169.874 242.845 167.92 245.855 168.571 248.917C169.222 251.979 172.231 253.933 175.293 253.282C178.355 252.632 180.31 249.622 179.659 246.56C179.008 243.498 175.998 241.543 172.936 242.194ZM166.438 249.37C165.537 245.13 168.244 240.963 172.483 240.062C176.723 239.161 180.89 241.867 181.791 246.106C182.693 250.346 179.986 254.514 175.747 255.415C171.507 256.316 167.339 253.61 166.438 249.37Z" fill="#FFCC80"/>
<path d="M221.153 244.648C224.804 243.872 227.134 240.283 226.358 236.632C225.582 232.981 221.994 230.651 218.343 231.427C214.692 232.203 212.361 235.792 213.137 239.442C213.913 243.093 217.502 245.424 221.153 244.648Z" fill="white"/>
<path fill-rule="evenodd" clip-rule="evenodd" d="M218.569 232.494C215.507 233.145 213.553 236.154 214.204 239.216C214.854 242.278 217.864 244.233 220.926 243.582C223.988 242.931 225.943 239.921 225.292 236.86C224.641 233.798 221.631 231.843 218.569 232.494ZM212.071 239.67C211.17 235.43 213.876 231.263 218.116 230.361C222.356 229.46 226.523 232.167 227.424 236.406C228.325 240.646 225.619 244.813 221.379 245.715C217.14 246.616 212.972 243.909 212.071 239.67Z" fill="#FFCC80"/>
<path d="M266.786 234.948C270.437 234.172 272.767 230.584 271.991 226.933C271.215 223.282 267.626 220.952 263.976 221.728C260.325 222.504 257.994 226.092 258.77 229.743C259.546 233.394 263.135 235.724 266.786 234.948Z" fill="white"/>
<path fill-rule="evenodd" clip-rule="evenodd" d="M264.202 222.794C261.14 223.444 259.185 226.454 259.836 229.516C260.487 232.578 263.497 234.533 266.559 233.882C269.621 233.231 271.575 230.221 270.925 227.159C270.274 224.097 267.264 222.143 264.202 222.794ZM257.704 229.969C256.803 225.73 259.509 221.562 263.749 220.661C267.988 219.76 272.156 222.466 273.057 226.706C273.958 230.946 271.252 235.113 267.012 236.014C262.773 236.915 258.605 234.209 257.704 229.969Z" fill="#FFCC80"/>
<path d="M191.022 327.276C194.673 326.5 197.003 322.911 196.227 319.26C195.451 315.609 191.863 313.279 188.212 314.055C184.561 314.831 182.231 318.42 183.007 322.07C183.783 325.721 187.371 328.052 191.022 327.276Z" fill="white"/>
<path fill-rule="evenodd" clip-rule="evenodd" d="M188.438 315.121C185.376 315.772 183.422 318.781 184.073 321.843C184.723 324.905 187.733 326.86 190.795 326.209C193.857 325.558 195.812 322.548 195.161 319.486C194.51 316.425 191.5 314.47 188.438 315.121ZM181.94 322.297C181.039 318.057 183.745 313.89 187.985 312.988C192.225 312.087 196.392 314.794 197.293 319.033C198.195 323.273 195.488 327.44 191.249 328.341C187.009 329.243 182.841 326.536 181.94 322.297Z" fill="#FFCC80"/>
<path d="M236.655 317.575C240.306 316.799 242.636 313.211 241.86 309.56C241.084 305.909 237.496 303.579 233.845 304.355C230.194 305.131 227.863 308.719 228.639 312.37C229.415 316.021 233.004 318.351 236.655 317.575Z" fill="white"/>
<path fill-rule="evenodd" clip-rule="evenodd" d="M234.073 305.422C231.011 306.072 229.057 309.082 229.707 312.144C230.358 315.206 233.368 317.161 236.43 316.51C239.492 315.859 241.447 312.849 240.796 309.787C240.145 306.725 237.135 304.771 234.073 305.422ZM227.575 312.597C226.674 308.358 229.38 304.19 233.62 303.289C237.86 302.388 242.027 305.094 242.928 309.334C243.829 313.574 241.123 317.741 236.883 318.642C232.644 319.543 228.476 316.837 227.575 312.597Z" fill="#FFCC80"/>
<path d="M282.29 307.876C285.94 307.1 288.271 303.512 287.495 299.861C286.719 296.21 283.13 293.879 279.479 294.655C275.829 295.431 273.498 299.02 274.274 302.671C275.05 306.322 278.639 308.652 282.29 307.876Z" fill="white"/>
<path fill-rule="evenodd" clip-rule="evenodd" d="M279.706 295.721C276.644 296.372 274.689 299.382 275.34 302.444C275.991 305.506 279.001 307.461 282.063 306.81C285.125 306.159 287.079 303.149 286.429 300.087C285.778 297.025 282.768 295.071 279.706 295.721ZM273.208 302.897C272.307 298.658 275.013 294.49 279.253 293.589C283.492 292.688 287.66 295.394 288.561 299.634C289.462 303.873 286.756 308.041 282.516 308.942C278.276 309.843 274.109 307.137 273.208 302.897Z" fill="#FFCC80"/>
<path d="M206.479 399.988C210.13 399.212 212.46 395.624 211.684 391.973C210.908 388.322 207.32 385.992 203.669 386.768C200.018 387.544 197.688 391.132 198.464 394.783C199.24 398.434 202.828 400.764 206.479 399.988Z" fill="white"/>
<path fill-rule="evenodd" clip-rule="evenodd" d="M203.895 387.834C200.833 388.485 198.879 391.494 199.53 394.556C200.181 397.618 203.19 399.573 206.252 398.922C209.314 398.271 211.269 395.261 210.618 392.199C209.967 389.137 206.957 387.183 203.895 387.834ZM197.397 395.01C196.496 390.77 199.203 386.602 203.442 385.701C207.682 384.8 211.849 387.506 212.75 391.746C213.652 395.986 210.945 400.153 206.706 401.054C202.466 401.956 198.298 399.249 197.397 395.01Z" fill="#FFCC80"/>
<path d="M252.112 390.289C255.763 389.513 258.093 385.925 257.317 382.274C256.541 378.623 252.953 376.293 249.302 377.069C245.651 377.845 243.32 381.433 244.096 385.084C244.872 388.735 248.461 391.065 252.112 390.289Z" fill="white"/>
<path fill-rule="evenodd" clip-rule="evenodd" d="M249.528 378.134C246.466 378.785 244.512 381.795 245.162 384.857C245.813 387.919 248.823 389.874 251.885 389.223C254.947 388.572 256.902 385.562 256.251 382.5C255.6 379.438 252.59 377.484 249.528 378.134ZM243.03 385.31C242.129 381.071 244.835 376.903 249.075 376.002C253.315 375.101 257.482 377.807 258.383 382.047C259.284 386.287 256.578 390.454 252.338 391.355C248.099 392.256 243.931 389.55 243.03 385.31Z" fill="#FFCC80"/>
<path d="M297.745 380.589C301.395 379.813 303.726 376.224 302.95 372.574C302.174 368.923 298.585 366.592 294.935 367.368C291.284 368.144 288.953 371.733 289.729 375.384C290.505 379.035 294.094 381.365 297.745 380.589Z" fill="white"/>
<path fill-rule="evenodd" clip-rule="evenodd" d="M295.161 368.434C292.099 369.085 290.144 372.095 290.795 375.157C291.446 378.219 294.456 380.173 297.518 379.523C300.58 378.872 302.534 375.862 301.884 372.8C301.233 369.738 298.223 367.783 295.161 368.434ZM288.663 375.61C287.762 371.37 290.468 367.203 294.708 366.302C298.947 365.401 303.115 368.107 304.016 372.347C304.917 376.586 302.211 380.754 297.971 381.655C293.732 382.556 289.564 379.85 288.663 375.61Z" fill="#FFCC80"/>
<path fill-rule="evenodd" clip-rule="evenodd" d="M102.322 122.811C94.1177 124.555 88.8246 132.706 90.5686 140.911C90.8189 142.088 90.0671 143.246 88.8895 143.496C87.7118 143.747 86.5542 142.995 86.3038 141.817C84.0592 131.257 90.8558 120.791 101.416 118.547C102.594 118.296 103.751 119.048 104.002 120.226C104.252 121.404 103.5 122.561 102.322 122.811Z" fill="white"/>
<path fill-rule="evenodd" clip-rule="evenodd" d="M111.838 167.591C103.633 169.335 98.3402 177.485 100.084 185.69C100.335 186.868 99.5828 188.025 98.4051 188.276C97.2274 188.526 96.0698 187.774 95.8195 186.597C93.5749 176.036 100.371 165.571 110.932 163.326C112.109 163.076 113.267 163.827 113.517 165.005C113.767 166.183 113.016 167.34 111.838 167.591Z" fill="#FFBC58"/>
<path fill-rule="evenodd" clip-rule="evenodd" d="M121.36 212.371C113.155 214.115 107.862 222.266 109.606 230.47C109.856 231.648 109.104 232.806 107.927 233.056C106.749 233.306 105.591 232.555 105.341 231.377C103.096 220.817 109.893 210.351 120.453 208.106C121.631 207.856 122.788 208.608 123.039 209.785C123.289 210.963 122.537 212.121 121.36 212.371Z" fill="#FFBC58"/>
<path fill-rule="evenodd" clip-rule="evenodd" d="M130.875 257.15C122.67 258.894 117.377 267.045 119.121 275.25C119.372 276.427 118.62 277.585 117.442 277.835C116.265 278.086 115.107 277.334 114.857 276.156C112.612 265.596 119.409 255.13 129.969 252.886C131.146 252.635 132.304 253.387 132.554 254.565C132.805 255.742 132.053 256.9 130.875 257.15Z" fill="#FFBC58"/>
<path fill-rule="evenodd" clip-rule="evenodd" d="M140.393 301.931C132.188 303.675 126.895 311.825 128.639 320.03C128.889 321.208 128.137 322.365 126.96 322.616C125.782 322.866 124.624 322.114 124.374 320.936C122.13 310.376 128.926 299.91 139.486 297.666C140.664 297.416 141.822 298.167 142.072 299.345C142.322 300.523 141.57 301.68 140.393 301.931Z" fill="#FFBC58"/>
<path fill-rule="evenodd" clip-rule="evenodd" d="M149.914 346.71C141.709 348.454 136.416 356.604 138.16 364.809C138.411 365.987 137.659 367.145 136.481 367.395C135.304 367.645 134.146 366.893 133.896 365.716C131.651 355.156 138.448 344.69 149.008 342.445C150.185 342.195 151.343 342.947 151.593 344.124C151.844 345.302 151.092 346.46 149.914 346.71Z" fill="#FFBC58"/>
<path fill-rule="evenodd" clip-rule="evenodd" d="M159.43 391.49C151.225 393.234 145.932 401.385 147.676 409.59C147.926 410.767 147.175 411.925 145.997 412.175C144.819 412.425 143.662 411.674 143.411 410.496C141.167 399.936 147.963 389.47 158.523 387.225C159.701 386.975 160.859 387.727 161.109 388.905C161.359 390.082 160.608 391.24 159.43 391.49Z" fill="#FFBC58"/>
<path fill-rule="evenodd" clip-rule="evenodd" d="M147.102 113.293C138.897 115.037 133.604 123.187 135.348 131.392C135.598 132.57 134.846 133.728 133.669 133.978C132.491 134.228 131.333 133.476 131.083 132.299C128.839 121.739 135.635 111.273 146.195 109.028C147.373 108.778 148.531 109.53 148.781 110.707C149.031 111.885 148.279 113.043 147.102 113.293Z" fill="#FFBC58"/>
<path fill-rule="evenodd" clip-rule="evenodd" d="M191.881 103.774C183.676 105.518 178.383 113.669 180.127 121.874C180.378 123.051 179.626 124.209 178.448 124.459C177.27 124.71 176.113 123.958 175.862 122.78C173.618 112.22 180.414 101.754 190.975 99.5096C192.152 99.2593 193.31 100.011 193.56 101.189C193.81 102.366 193.059 103.524 191.881 103.774Z" fill="#FFBC58"/>
<path fill-rule="evenodd" clip-rule="evenodd" d="M236.66 94.2568C228.456 96.0008 223.163 104.151 224.906 112.356C225.157 113.534 224.405 114.691 223.227 114.942C222.05 115.192 220.892 114.44 220.642 113.263C218.397 102.703 225.194 92.2367 235.754 89.992C236.931 89.7417 238.089 90.4935 238.339 91.6712C238.59 92.8488 237.838 94.0065 236.66 94.2568Z" fill="#FFBC58"/>
<path fill-rule="evenodd" clip-rule="evenodd" d="M281.44 84.7382C273.235 86.4822 267.942 94.6328 269.686 102.838C269.936 104.015 269.184 105.173 268.007 105.423C266.829 105.673 265.671 104.922 265.421 103.744C263.176 93.184 269.973 82.7181 280.533 80.4735C281.711 80.2232 282.868 80.9749 283.119 82.1526C283.369 83.3303 282.617 84.4879 281.44 84.7382Z" fill="#FFBC58"/>
<path d="M187.231 220.278C182.606 221.009 177.937 215.783 176.802 208.605C175.668 201.427 178.498 195.015 183.123 194.284C187.749 193.553 192.418 198.78 193.552 205.958C194.686 213.136 191.856 219.547 187.231 220.278Z" fill="white"/>
<path d="M180.427 195.479C183.512 196.899 187.039 201.11 187.921 206.694C188.804 212.277 187.01 217.737 184.512 220.04C180.932 219.168 177.638 214.041 176.755 208.458C175.873 202.875 176.999 197.928 180.427 195.479Z" fill="#231F20"/>
<path d="M215.956 211.84C211.331 212.571 206.661 207.345 205.527 200.167C204.393 192.989 207.223 186.578 211.848 185.847C216.473 185.116 221.142 190.342 222.277 197.52C223.411 204.698 220.581 211.11 215.956 211.84Z" fill="white"/>
<path d="M209.151 187.042C212.237 188.462 215.764 192.674 216.646 198.257C217.528 203.84 215.734 209.301 213.237 211.603C209.657 210.731 206.362 205.605 205.48 200.022C204.597 194.438 205.723 189.492 209.151 187.042Z" fill="#231F20"/>
<path d="M202.73 226.866C203.672 226.679 206.85 237.802 207.036 238.744C209.096 244.212 211.342 250.622 215.67 252.704C217.741 253.274 218.87 254.03 220.755 253.658C236.205 252.562 231.549 229.003 229.686 219.58C229.686 219.58 228.755 214.868 228.941 215.81C230.07 216.566 203.672 226.679 202.73 226.866Z" fill="#FD476D"/>
<path fill-rule="evenodd" clip-rule="evenodd" d="M257.672 203.643C258.286 205.032 257.658 206.656 256.268 207.27L176.123 242.694C174.734 243.308 173.11 242.679 172.496 241.29C171.882 239.901 172.511 238.277 173.9 237.663L254.045 202.239C255.434 201.625 257.058 202.254 257.672 203.643Z" fill="#231F20"/>
<path fill-rule="evenodd" clip-rule="evenodd" d="M214.005 220.871C215.458 220.43 216.994 221.25 217.435 222.704L214.804 223.503L212.172 224.302C211.731 222.848 212.551 221.313 214.005 220.871ZM214.804 223.503C212.172 224.302 212.172 224.302 212.172 224.302L212.413 225.096C212.567 225.603 212.787 226.328 213.051 227.201C213.58 228.947 214.286 231.284 214.998 233.65C215.711 236.018 216.428 238.411 216.979 240.269C217.254 241.199 217.486 241.99 217.654 242.575C217.781 243.016 217.851 243.272 217.882 243.385C217.898 243.442 217.904 243.463 217.902 243.453C218.196 244.943 219.643 245.912 221.133 245.618C222.623 245.323 223.592 243.877 223.297 242.387C223.218 241.986 222.772 240.462 222.252 238.707C221.698 236.837 220.978 234.435 220.265 232.065C219.552 229.695 218.844 227.355 218.315 225.607C218.05 224.733 217.83 224.008 217.677 223.5L217.435 222.704C217.435 222.704 217.435 222.704 214.804 223.503Z" fill="#231F20"/>
</g>
</svg>
