<svg width="430" height="430" viewBox="0 0 430 430" fill="none" xmlns="http://www.w3.org/2000/svg">
<path d="M430 215C430 333.741 333.741 430 215 430C96.2588 430 0 333.741 0 215C0 96.2588 96.2588 0 215 0C333.741 0 430 96.2588 430 215Z" fill="#FFCF52"/>
<mask id="mask0" mask-type="alpha" maskUnits="userSpaceOnUse" x="0" y="0" width="430" height="430">
<path d="M430 215C430 333.741 333.741 430 215 430C96.2588 430 0 333.741 0 215C0 96.2588 96.2588 0 215 0C333.741 0 430 96.2588 430 215Z" fill="#FFCF52"/>
</mask>
<g mask="url(#mask0)">
<path fill-rule="evenodd" clip-rule="evenodd" d="M323.417 276.169C324.222 276.364 324.716 277.175 324.521 277.981L304.486 360.563C304.29 361.368 303.479 361.862 302.674 361.667C301.869 361.472 301.375 360.661 301.57 359.856L321.605 277.273C321.801 276.468 322.612 275.974 323.417 276.169Z" fill="black"/>
<path fill-rule="evenodd" clip-rule="evenodd" d="M330.342 324.541C331.108 324.856 331.473 325.733 331.157 326.499L317.764 359.02C317.448 359.786 316.572 360.151 315.806 359.836C315.04 359.52 314.674 358.644 314.99 357.878L328.383 325.357C328.699 324.591 329.576 324.225 330.342 324.541Z" fill="black"/>
<path d="M23.5457 567.96L143.234 54.2858C144.701 47.9902 150.891 43.988 157.234 45.2339L333.767 79.9095C340.446 81.2215 344.698 87.8206 343.132 94.4451L217.586 625.548C215.992 632.292 209.032 636.288 202.404 634.264L31.7288 582.16C25.6901 580.316 22.1129 574.109 23.5457 567.96Z" fill="#FFF04A"/>
<path d="M53.5303 502.48L151.236 83.3335C152.708 77.0189 158.93 73.0156 165.286 74.2929L292.834 99.9227C299.486 101.259 303.708 107.841 302.149 114.444L200.178 546.462C198.578 553.238 191.567 557.235 184.921 555.16L61.6397 516.659C55.6408 514.785 52.1035 508.601 53.5303 502.48Z" fill="#7A5746"/>
<path fill-rule="evenodd" clip-rule="evenodd" d="M270.123 107.31C270.505 106.274 271.654 105.742 272.691 106.123C277.933 108.051 282.775 114.465 285.239 123.473C287.591 132.073 287.897 143.38 284.243 156.536C283.948 157.6 282.846 158.223 281.781 157.928C280.717 157.632 280.094 156.53 280.389 155.465C283.87 142.931 283.523 132.361 281.38 124.528C279.065 116.061 274.785 111.155 271.31 109.878C270.274 109.497 269.742 108.347 270.123 107.31Z" fill="white"/>
<path fill-rule="evenodd" clip-rule="evenodd" d="M307.217 94.317L294.147 91.9692L294.854 88.0322L307.924 90.3801C315.811 91.7967 320.902 99.5309 319.084 107.335L289.949 232.454L286.053 231.547L315.189 106.427C316.487 100.853 312.85 95.3289 307.217 94.317Z" fill="#FFDB1E"/>
<path d="M176.223 147.993C170.522 147.771 166.18 140.418 166.524 131.57C166.869 122.723 171.771 115.73 177.472 115.952C183.173 116.174 187.515 123.527 187.171 132.375C186.826 141.223 181.925 148.215 176.223 147.993Z" fill="white"/>
<path d="M173.966 116.742C177.317 119.17 180.535 125.039 180.267 131.921C179.998 138.803 176.56 144.905 173.03 147.065C168.958 145.174 166.234 138.267 166.503 131.385C166.771 124.503 169.288 118.857 173.966 116.742Z" fill="#231F20"/>
<path d="M208.788 157.083C203.086 156.861 198.744 149.508 199.089 140.66C199.434 131.812 204.335 124.819 210.036 125.041C215.738 125.263 220.08 132.616 219.735 141.464C219.39 150.312 214.489 157.305 208.788 157.083Z" fill="white"/>
<path d="M206.536 125.831C209.888 128.26 213.105 134.129 212.837 141.011C212.569 147.893 209.131 153.994 205.6 156.154C201.528 154.264 198.805 147.356 199.073 140.474C199.341 133.592 201.858 127.947 206.536 125.831Z" fill="#231F20"/>
<path d="M203.147 187.75C204.06 187.401 209.17 198.007 209.519 198.92C212.531 204.049 215.892 210.09 220.593 211.43C222.769 211.644 224.032 212.207 225.858 211.508C241.166 207.738 232.423 184.912 228.925 175.782C228.925 175.782 227.176 171.217 227.526 172.13C228.789 172.693 204.06 187.401 203.147 187.75Z" fill="#23F5BB"/>
<path fill-rule="evenodd" clip-rule="evenodd" d="M213.441 179.832C214.798 179.15 216.451 179.698 217.132 181.055L214.675 182.29L212.218 183.524C211.536 182.167 212.084 180.514 213.441 179.832ZM214.675 182.29C212.218 183.524 212.218 183.524 212.218 183.524L212.597 184.279C212.839 184.761 213.184 185.45 213.6 186.28C214.432 187.94 215.545 190.162 216.669 192.413C217.793 194.664 218.926 196.94 219.799 198.709C220.236 199.595 220.606 200.348 220.876 200.906C221.083 201.334 221.199 201.58 221.248 201.686C221.272 201.737 221.281 201.756 221.278 201.747C221.821 203.166 223.411 203.875 224.829 203.332C226.248 202.788 226.957 201.198 226.414 199.78C226.266 199.395 225.556 197.946 224.731 196.275C223.852 194.494 222.715 192.209 221.59 189.956C220.464 187.702 219.35 185.477 218.517 183.815C218.101 182.985 217.755 182.295 217.513 181.812L217.132 181.055C217.132 181.055 217.132 181.055 214.675 182.29Z" fill="#231F20"/>
<path fill-rule="evenodd" clip-rule="evenodd" d="M170.161 155.746C171.667 155.551 173.046 156.615 173.24 158.121C174.049 164.398 178.291 178.451 193.85 183.224C201.193 185.476 208.873 182.693 215.761 177.71C222.608 172.758 228.137 165.997 230.866 161.475C231.651 160.175 233.342 159.757 234.642 160.542C235.942 161.327 236.36 163.018 235.575 164.318C232.514 169.389 226.503 176.728 218.984 182.167C211.506 187.576 201.992 191.474 192.237 188.482C173.6 182.766 168.702 165.941 167.785 158.825C167.591 157.318 168.655 155.94 170.161 155.746Z" fill="black"/>
<path d="M214.595 639L21 579.873L102.254 231H311L214.595 639Z" fill="#FFF8AE"/>
<path d="M204.802 231H192.79C203.094 276.591 214.482 313.274 206.348 347.336C191.089 411.23 117.957 409.696 125.551 483.585C135.211 577.567 142.766 583.315 147.647 618.251L160.048 622C155.168 587.064 147.073 577.567 137.414 483.585C129.819 409.696 202.952 411.23 218.21 347.336C226.345 313.274 215.106 276.591 204.802 231Z" fill="#652F17"/>
<path fill-rule="evenodd" clip-rule="evenodd" d="M115.753 245C114.841 245 114.045 245.617 113.817 246.499L109.937 261.501L106.064 260.499L109.944 245.498C110.629 242.85 113.018 241 115.753 241H162.001V245H115.753Z" fill="white"/>
<path d="M311.5 231L215.095 639L189 631.03L281.5 231H311.5Z" fill="#FF9900"/>
<path d="M189 631.03L281.5 231H287L194.5 632.71L189 631.03Z" fill="#FFF04A"/>
<path fill-rule="evenodd" clip-rule="evenodd" d="M159.661 65.177C154.272 64.3388 149.138 67.7658 147.846 73.0642L145.458 82.8562L142.543 82.1453L144.931 72.3534C146.593 65.541 153.193 61.1349 160.122 62.2127L171.731 64.0185L171.27 66.9829L159.661 65.177Z" fill="white"/>
</g>
</svg>
