<svg width="430" height="430" viewBox="0 0 430 430" fill="none" xmlns="http://www.w3.org/2000/svg">
<path d="M430 215C430 333.741 333.741 430 215 430C96.2588 430 0 333.741 0 215C0 96.2588 96.2588 0 215 0C333.741 0 430 96.2588 430 215Z" fill="#FF845E"/>
<mask id="mask0" mask-type="alpha" maskUnits="userSpaceOnUse" x="0" y="0" width="430" height="430">
<path d="M430 215C430 333.741 333.741 430 215 430C96.2588 430 0 333.741 0 215C0 96.2588 96.2588 0 215 0C333.741 0 430 96.2588 430 215Z" fill="#FF845D"/>
</mask>
<g mask="url(#mask0)">
<path fill-rule="evenodd" clip-rule="evenodd" d="M324.573 281.886C325.263 281.427 326.194 281.614 326.653 282.304L325.404 283.135C326.653 282.304 326.653 282.304 326.653 282.305L326.654 282.307L326.657 282.311L326.666 282.324L326.696 282.37C326.721 282.409 326.757 282.465 326.802 282.536C326.893 282.68 327.021 282.888 327.179 283.156C327.496 283.691 327.933 284.465 328.425 285.439C329.408 287.384 330.62 290.142 331.534 293.392C333.354 299.871 334.033 308.5 329.07 316.492C328.633 317.195 327.708 317.411 327.005 316.974C326.301 316.537 326.085 315.613 326.522 314.909C330.865 307.916 330.348 300.262 328.646 294.204C327.798 291.186 326.667 288.612 325.748 286.792C325.289 285.884 324.884 285.168 324.597 284.683C324.454 284.441 324.34 284.257 324.264 284.135C324.226 284.075 324.197 284.03 324.178 284.001L324.159 283.971L324.155 283.966L324.155 283.965L324.155 283.965C323.696 283.275 323.883 282.345 324.573 281.886Z" fill="#231F20"/>
<path fill-rule="evenodd" clip-rule="evenodd" d="M334.547 279.645C335.229 279.174 336.163 279.345 336.634 280.026L335.4 280.879C336.634 280.026 336.634 280.026 336.634 280.026L336.636 280.03L336.641 280.036L336.654 280.055C336.665 280.071 336.68 280.094 336.699 280.122C336.737 280.18 336.792 280.262 336.86 280.369C336.998 280.582 337.192 280.892 337.428 281.29C337.9 282.087 338.542 283.242 339.234 284.691C340.615 287.585 342.208 291.683 343.033 296.482C343.174 297.298 342.626 298.074 341.809 298.215C340.993 298.355 340.217 297.807 340.077 296.991C339.31 292.535 337.825 288.704 336.527 285.983C335.878 284.625 335.28 283.55 334.847 282.82C334.631 282.455 334.456 282.177 334.338 281.993C334.279 281.901 334.233 281.832 334.204 281.788L334.172 281.741L334.166 281.732C334.166 281.731 334.166 281.732 334.166 281.732M334.547 279.645C333.866 280.116 333.695 281.05 334.166 281.732L334.547 279.645Z" fill="#231F20"/>
<path d="M59.8159 30.7694C41.3101 43.0623 49.1744 69.556 53.7316 73.0725C67.5137 146.059 92.5548 281.896 95.9676 306.906C100.234 338.169 107.952 332.304 112.53 333.838C115.438 334.813 178.285 345.537 228.544 354.016C250.464 357.715 272.693 349.608 287.122 332.698L302.351 319.431C304.915 317.197 307.022 314.486 308.554 311.45C311.238 306.131 312.04 300.085 310.826 294.253C293.309 210.106 261.544 53.8094 261.134 36.5991C260.708 18.7557 253.482 11.7427 249.922 10.4665C214.261 3.65044 137.586 -10.6326 116.174 -13.2358C89.4084 -16.4899 82.9482 15.4033 59.8159 30.7694Z" fill="#8E5AFE"/>
<path d="M142.981 282.083L157.8 205.145L175.619 266.69L142.981 282.083Z" fill="#6D31FF"/>
<path d="M120.051 333.908C122.876 334.849 183.584 344.849 232.416 352.794C250.995 355.817 269.728 350.089 283.395 337.632C287.926 333.502 292.114 328.979 296.867 325.106L298.93 323.425C302.475 320.537 305.557 317.16 308.094 313.414C313.169 305.925 315.231 295.174 308.5 289.13C306.796 287.6 304.697 286.259 302.204 285.157C292.38 280.812 281.046 281.536 250.064 276.468C219.082 271.4 198.68 260.54 176.01 256.92C153.34 253.3 148.806 275.02 139.739 281.536C130.671 288.053 133.694 294.569 117.069 304.705C103.77 312.814 105.101 321.599 107.872 324.978C111.979 335.376 116.803 332.825 120.051 333.908Z" fill="#DCCFFF"/>
<path d="M153.192 324.962C154.618 325.462 180.478 329.982 206.139 334.398C215.965 336.088 225.318 340.717 235.27 341.3C245.618 341.905 254.348 336.841 260.658 330.766C264.163 327.392 267.395 323.724 271.09 320.558C272.109 319.685 273.064 318.742 273.951 317.737C279.657 311.268 280.986 300.041 273.194 296.34C273.151 296.32 273.109 296.3 273.066 296.28C267.139 293.524 250.321 291.737 231.63 288.522C212.938 285.306 200.629 278.416 186.953 276.12C173.276 273.823 170.54 287.603 165.07 291.737C159.599 295.871 161.423 300.005 151.393 306.436C143.369 311.58 144.173 317.154 145.845 319.297C148.322 325.894 151.232 324.275 153.192 324.962Z" fill="#FF2E59"/>
<path d="M252.627 9.61851C217.9 3.16922 143.236 -10.3247 122.4 -12.706C114.442 -13.6154 110.239 -4.88433 111.931 2.94429L164.858 247.796C166.075 253.424 171.812 256.918 177.498 257.826C200.168 261.446 220.57 272.306 251.552 277.374C282.534 282.443 290.455 281.193 300.279 285.538C308.137 289.013 311.15 290.585 312.929 298.932C295.566 217.572 264.385 53.5237 263.789 35.6639C263.194 17.8041 256.1 10.8587 252.627 9.61851Z" fill="#B397FF"/>
<g filter="url(#filter0_f)">
<path d="M188.221 26.9776C196.09 32.0378 208.277 31.3986 218.248 29.5881C227.247 27.9541 236.666 33.1495 238.449 42.1201C248.5 92.6822 277.478 239.263 277.315 247.642C277.068 260.312 263.93 248.168 231.46 236.782C198.99 225.397 204.555 242.631 196.512 238.154C182.865 230.559 161.621 106.15 148.197 27.0977C147.892 25.3006 148.197 23.4167 149.472 22.1141C158.032 13.3707 176.849 19.6647 188.221 26.9776Z" fill="url(#paint0_linear)"/>
</g>
<path fill-rule="evenodd" clip-rule="evenodd" d="M206.537 146.307L192.645 144.199C191.143 143.971 189.741 145.003 189.513 146.505C189.285 148.006 190.318 149.408 191.82 149.636L213.017 152.853C217.384 153.516 219.488 147.687 215.704 145.408L192.807 131.616C191.506 130.832 189.816 131.251 189.033 132.552C188.249 133.853 188.668 135.543 189.969 136.327L206.537 146.307Z" fill="#231F20"/>
<path d="M236.178 166.877C241.599 168.58 248.142 163.124 250.791 154.69C253.441 146.256 251.193 138.039 245.772 136.336C240.35 134.633 233.807 140.089 231.158 148.522C228.509 156.956 230.756 165.174 236.178 166.877Z" fill="white"/>
<path d="M248.703 138.456C244.745 139.61 239.76 144.036 237.704 150.58C235.648 157.125 236.827 164 239.414 167.209C243.867 166.802 248.737 161.236 250.793 154.692C252.849 148.147 252.38 142.008 248.703 138.456Z" fill="#231F20"/>
<path fill-rule="evenodd" clip-rule="evenodd" d="M250.809 137.139C250.684 138.652 249.356 139.778 247.842 139.653L226.622 137.902C225.109 137.777 223.983 136.449 224.108 134.935C224.233 133.421 225.561 132.296 227.075 132.42L248.295 134.172C249.808 134.297 250.934 135.625 250.809 137.139Z" fill="#231F20"/>
<path fill-rule="evenodd" clip-rule="evenodd" d="M205.754 170.988C207.271 170.909 208.564 172.075 208.643 173.592C208.812 176.834 209.443 182.163 211.146 187.217C212.878 192.354 215.531 196.665 219.372 198.663C220.78 199.395 222.234 199.331 223.987 198.394C225.846 197.4 227.841 195.498 229.823 192.921C233.768 187.793 237.058 180.795 238.732 176.043C239.237 174.61 240.807 173.858 242.239 174.362C243.672 174.867 244.424 176.437 243.92 177.87C242.118 182.984 238.586 190.55 234.183 196.274C231.991 199.123 229.431 201.72 226.581 203.244C223.624 204.825 220.215 205.301 216.834 203.542C211.097 200.558 207.824 194.579 205.935 188.974C204.018 183.287 203.335 177.423 203.151 173.877C203.072 172.361 204.238 171.067 205.754 170.988Z" fill="#231F20"/>
<path fill-rule="evenodd" clip-rule="evenodd" d="M187.345 192.858C193.762 193.387 199.484 187.508 200.126 179.726C200.768 171.944 196.087 165.207 189.671 164.677C186.2 164.391 182.933 165.979 180.563 168.73C178.675 165.628 175.713 163.526 172.243 163.24C165.826 162.71 160.104 168.59 159.462 176.371C158.82 184.153 163.501 190.891 169.917 191.42C173.388 191.707 176.655 190.118 179.025 187.368C180.913 190.469 183.875 192.571 187.345 192.858Z" fill="#FD476D"/>
<path fill-rule="evenodd" clip-rule="evenodd" d="M168.454 173.203C169.334 172.547 170.579 172.729 171.235 173.609L176.393 180.529C177.049 181.409 176.867 182.654 175.987 183.31C175.106 183.966 173.861 183.785 173.205 182.905L168.048 175.985C167.392 175.104 167.573 173.859 168.454 173.203Z" fill="#FD476D"/>
<path fill-rule="evenodd" clip-rule="evenodd" d="M182.172 174.002C183.053 173.346 184.298 173.528 184.954 174.408L190.111 181.328C190.767 182.208 190.586 183.453 189.705 184.109C188.825 184.765 187.58 184.584 186.924 183.703L181.766 176.783C181.11 175.903 181.292 174.658 182.172 174.002Z" fill="#FD476D"/>
<path fill-rule="evenodd" clip-rule="evenodd" d="M273.611 194.937C280.028 195.466 285.75 189.587 286.392 181.805C287.034 174.023 282.353 167.286 275.937 166.756C272.466 166.47 269.198 168.059 266.828 170.809C264.941 167.708 261.978 165.606 258.508 165.32C252.092 164.79 246.37 170.67 245.728 178.452C245.086 186.233 249.767 192.971 256.183 193.501C259.654 193.787 262.921 192.198 265.291 189.448C267.179 192.549 270.141 194.651 273.611 194.937Z" fill="#FD476D"/>
<path fill-rule="evenodd" clip-rule="evenodd" d="M254.717 175.283C255.597 174.627 256.843 174.809 257.499 175.689L262.656 182.609C263.312 183.489 263.131 184.734 262.25 185.39C261.37 186.046 260.125 185.865 259.469 184.985L254.311 178.065C253.655 177.184 253.837 175.939 254.717 175.283Z" fill="#FD476D"/>
<path fill-rule="evenodd" clip-rule="evenodd" d="M268.436 176.082C269.316 175.426 270.562 175.608 271.218 176.488L276.375 183.408C277.031 184.288 276.849 185.533 275.969 186.189C275.089 186.845 273.844 186.664 273.188 185.783L268.03 178.863C267.374 177.983 267.556 176.738 268.436 176.082Z" fill="#FD476D"/>
<path fill-rule="evenodd" clip-rule="evenodd" d="M231.1 20.3158C231.1 19.218 231.99 18.3281 233.087 18.3281C239.375 18.3281 243.507 18.7727 246.437 20.9588C247.927 22.0709 248.98 23.5331 249.877 25.2758C250.76 26.9902 251.55 29.0969 252.447 31.5624C253.052 33.226 253.615 36.1335 254.18 39.5764C254.647 42.4251 255.137 45.7828 255.658 49.3602C255.778 50.1841 255.9 51.0196 256.024 51.8632C257.353 60.9344 258.894 70.9468 260.844 78.0972C261.133 79.1563 260.509 80.249 259.45 80.5378C258.391 80.8267 257.298 80.2023 257.009 79.1432C254.984 71.7176 253.411 61.4559 252.09 52.4395C251.965 51.5867 251.843 50.7451 251.722 49.9175C251.201 46.3423 250.718 43.0301 250.257 40.2201C249.679 36.698 249.166 34.1725 248.711 32.9209C247.8 30.4173 247.091 28.5487 246.343 27.0953C245.609 25.6702 244.9 24.772 244.059 24.145C242.327 22.8526 239.521 22.3034 233.087 22.3034C231.99 22.3034 231.1 21.4135 231.1 20.3158Z" fill="#C8B1FF"/>
<path fill-rule="evenodd" clip-rule="evenodd" d="M196.388 243.65C196.008 244.68 194.865 245.207 193.835 244.827C191.6 244.002 189.633 243.438 187.856 242.955C187.561 242.874 187.268 242.795 186.978 242.717C185.555 242.334 184.198 241.968 182.981 241.539C181.482 241.009 180.068 240.343 178.783 239.312C177.487 238.273 176.411 236.935 175.481 235.171C174.867 234.005 174.309 232.048 173.771 229.89C173.319 228.075 172.841 225.934 172.334 223.669C172.218 223.149 172.1 222.622 171.981 222.092C170.688 216.335 169.216 210.083 167.449 205.663C167.041 204.644 167.537 203.487 168.556 203.079C169.575 202.672 170.732 203.168 171.14 204.187C173.046 208.955 174.582 215.531 175.86 221.22C175.982 221.763 176.101 222.298 176.219 222.823C176.725 225.085 177.19 227.165 177.629 228.929C178.188 231.177 178.647 232.652 178.998 233.318C179.714 234.677 180.463 235.564 181.27 236.211C182.086 236.866 183.051 237.348 184.304 237.79C185.365 238.165 186.543 238.482 187.963 238.865C188.264 238.947 188.576 239.031 188.9 239.119C190.718 239.614 192.815 240.213 195.211 241.097C196.241 241.477 196.768 242.62 196.388 243.65Z" fill="#C8B1FF"/>
<path fill-rule="evenodd" clip-rule="evenodd" d="M193.435 287.098C193.925 286.116 195.119 285.718 196.101 286.209C202.274 289.295 218.216 294.537 230.957 296.426C250.851 299.374 260.841 301.439 265.921 302.772C268.602 303.476 270.341 305.145 270.866 307.359C271.358 309.435 270.68 311.574 269.491 313.182C267.798 315.471 265.34 317.301 262.95 319.079L262.928 319.096C262.047 319.751 260.802 319.568 260.147 318.688C259.492 317.807 259.674 316.562 260.555 315.906C263.065 314.038 265.013 312.552 266.295 310.819C266.968 309.908 267.157 308.947 266.998 308.276C266.871 307.743 266.44 307.019 264.912 306.617C260.046 305.34 250.227 303.3 230.374 300.358C217.272 298.416 200.919 293.061 194.324 289.765C193.342 289.274 192.944 288.08 193.435 287.098Z" fill="#E94164"/>
<path d="M225.744 336.114C228.865 328.199 222.492 321.273 218.916 318.8C227.125 316.149 238.389 315.487 245.529 325.999C257.48 343.595 253.263 393.005 232.571 393.005C217.94 393.005 213.002 380.272 212.081 374.042C210.253 361.674 221.842 346.008 225.744 336.114Z" fill="#FF2E59"/>
<path fill-rule="evenodd" clip-rule="evenodd" d="M230.441 325.425C230.441 324.693 231.035 324.1 231.767 324.1C234.72 324.1 240.719 326.291 243.613 334.248C243.863 334.935 243.508 335.696 242.82 335.946C242.132 336.196 241.372 335.841 241.122 335.153C238.618 328.268 233.631 326.75 231.767 326.75C231.035 326.75 230.441 326.157 230.441 325.425Z" fill="white"/>
</g>
<defs>
<filter id="filter0_f" x="133.205" y="2.97532" width="158.994" height="264.944" filterUnits="userSpaceOnUse" color-interpolation-filters="sRGB">
<feFlood flood-opacity="0" result="BackgroundImageFix"/>
<feBlend mode="normal" in="SourceGraphic" in2="BackgroundImageFix" result="shape"/>
<feGaussianBlur stdDeviation="7.44154" result="effect1_foregroundBlur"/>
</filter>
<linearGradient id="paint0_linear" x1="207.815" y1="16.0136" x2="217.207" y2="255.247" gradientUnits="userSpaceOnUse">
<stop stop-color="#C4B0FF"/>
<stop offset="1" stop-color="#BBA3FC" stop-opacity="0"/>
</linearGradient>
</defs>
</svg>
