<svg width="430" height="430" viewBox="0 0 430 430" fill="none" xmlns="http://www.w3.org/2000/svg">
<path d="M430 215C430 333.741 333.741 430 215 430C96.2588 430 0 333.741 0 215C0 96.2588 96.2588 0 215 0C333.741 0 430 96.2588 430 215Z" fill="#9971FF"/>
<path d="M194.693 235.211C178.447 246.769 175.447 265.685 173.626 268.588C166.189 375.109 246.103 408.636 284.204 375.069C322.306 341.502 288.883 298.962 277.312 290.445C268.055 283.631 245.962 246.343 236.072 228.551C230.617 229.362 210.94 223.653 194.693 235.211Z" fill="#FFAC30"/>
<path fill-rule="evenodd" clip-rule="evenodd" d="M173.305 274.322C183.413 287.001 201.472 299.207 227.376 291.805C248.841 285.673 264.1 285.459 273.841 287.177C263.44 275.785 245.15 244.856 236.267 228.904L178.67 255.317C176.959 259.062 175.84 262.442 175.025 264.901C174.434 266.684 174.004 267.984 173.624 268.588C173.489 270.524 173.383 272.435 173.305 274.322Z" fill="#FF9900"/>
<path d="M74.489 247.459C80.8691 277.452 118.379 284.083 133.726 278.09C140.686 275.95 147.501 269.292 151.126 266.996C158.014 272.351 176.502 284.211 197.89 281.916C220.107 279.531 239.578 262.787 243.566 257.049C249.97 261.002 266.694 267.608 282.354 262.405C298.014 257.202 302.171 244.934 302.292 239.451C308.938 241.874 325.855 242.971 340.355 227.974C358.481 209.229 367.348 179.79 348.498 144.212C334.471 117.737 282.354 58.5008 221.752 51.8822C175.403 46.8202 136.598 63.0897 103.61 112.44C70.6217 161.791 66.5138 209.968 74.489 247.459Z" fill="#6A091F"/>
<mask id="mask0" mask-type="alpha" maskUnits="userSpaceOnUse" x="71" y="51" width="288" height="232">
<path d="M74.489 247.459C80.8691 277.452 118.379 284.083 133.726 278.09C140.686 275.95 147.501 269.292 151.126 266.996C158.014 272.351 176.502 284.211 197.89 281.916C220.107 279.531 239.578 262.787 243.566 257.049C249.97 261.002 266.694 267.608 282.354 262.405C298.014 257.202 302.171 244.934 302.292 239.451C308.938 241.874 325.855 242.971 340.355 227.974C358.481 209.229 367.348 179.79 348.498 144.212C334.471 117.737 282.354 58.5008 221.752 51.8822C175.403 46.8202 136.598 63.0897 103.61 112.44C70.6217 161.791 66.5138 209.968 74.489 247.459Z" fill="#6A091F"/>
</mask>
<g mask="url(#mask0)">
<path d="M168.804 287.173C125.651 249.579 135.821 180.172 146.301 150.168C100.765 223.502 127.328 276.914 146.301 294.453L168.804 287.173Z" fill="#570014"/>
<path d="M228.946 283.925C247.501 237.5 238.501 226 228.947 206C269.001 232 262.983 258.099 252.494 281.712L228.946 283.925Z" fill="#570014"/>
<path d="M294.47 269.364C319.236 217.769 282.444 158.044 260.952 134.631C331.779 183.975 328.507 243.538 318.018 267.151L294.47 269.364Z" fill="#570014"/>
</g>
<path fill-rule="evenodd" clip-rule="evenodd" d="M248.378 135.72C249.759 135.72 250.878 136.839 250.878 138.22C250.878 164.118 240.309 183.54 225.008 192.144C209.548 200.837 190.039 198.056 173.394 181.112C172.426 180.128 172.44 178.545 173.425 177.577C174.41 176.609 175.993 176.623 176.96 177.608C192.329 193.252 209.421 195.172 222.557 187.785C235.854 180.309 245.878 162.866 245.878 138.22C245.878 136.839 246.997 135.72 248.378 135.72Z" fill="black"/>
<path d="M180.372 119.195L187.551 145.135C180.296 143.914 164.325 133.694 164.321 122.429C164.318 111.164 174.633 109.707 180.372 119.195Z" fill="white"/>
<path d="M180.372 119.195L187.551 145.135C193.039 139.97 201.278 122.257 195.538 112.767C189.798 103.278 180.368 107.932 180.372 119.195Z" fill="white"/>
<path fill-rule="evenodd" clip-rule="evenodd" d="M187.551 145.135C187.367 145.104 187.176 145.067 186.981 145.024C179.494 143.394 164.325 133.408 164.321 122.429C164.318 111.784 173.528 109.897 179.384 117.727C179.726 118.183 180.056 118.672 180.372 119.195C180.372 118.586 180.399 117.996 180.452 117.426C181.377 107.47 190.108 103.791 195.538 112.767C201.133 122.015 193.449 139.075 187.975 144.717C187.832 144.864 187.691 145.003 187.551 145.135ZM187.649 143.541C190.085 140.816 192.975 135.782 194.766 130.252C196.772 124.061 197.274 117.645 194.649 113.305C193.295 111.067 191.779 109.756 190.338 109.14C188.912 108.532 187.499 108.574 186.228 109.147C183.657 110.305 181.409 113.806 181.411 119.194L181.412 121.005L187.649 143.541ZM180.402 121.254L179.482 119.733C176.745 115.207 173.099 113.569 170.375 114.053C167.752 114.52 165.359 117.097 165.361 122.429C165.363 127.589 169.055 132.695 173.886 136.752C178.226 140.398 183.239 142.989 186.664 143.88L180.402 121.254Z" fill="white"/>
<path d="M228.442 107.335L235.621 133.274C228.366 132.054 212.396 121.834 212.392 110.569C212.388 99.3037 222.703 97.8467 228.442 107.335Z" fill="white"/>
<path d="M228.442 107.335L235.621 133.274C241.109 128.11 249.349 110.396 243.608 100.907C237.868 91.4172 228.438 96.0719 228.442 107.335Z" fill="white"/>
<path fill-rule="evenodd" clip-rule="evenodd" d="M235.621 133.274C235.437 133.243 235.247 133.206 235.051 133.164C227.564 131.533 212.395 121.547 212.392 110.569C212.388 99.9241 221.598 98.037 227.455 105.866C227.796 106.323 228.126 106.812 228.442 107.335C228.442 106.725 228.469 106.135 228.522 105.566C229.447 95.6097 238.179 91.9306 243.608 100.907C249.203 110.155 241.519 127.215 236.045 132.856C235.902 133.004 235.761 133.143 235.621 133.274ZM235.72 131.68C238.155 128.956 241.045 123.922 242.836 118.392C244.843 112.201 245.344 105.785 242.719 101.445C241.365 99.2067 239.85 97.8955 238.408 97.2801C236.983 96.6715 235.569 96.7139 234.298 97.2865C231.728 98.4446 229.48 101.945 229.482 107.334L229.482 109.145L235.72 131.68ZM228.473 109.394L227.553 107.873C224.815 103.347 221.169 101.708 218.446 102.193C215.822 102.66 213.43 105.237 213.431 110.568C213.433 115.729 217.125 120.834 221.956 124.892C226.296 128.538 231.309 131.128 234.735 132.019L228.473 109.394Z" fill="white"/>
<path d="M183.479 122.182L188.795 143.429C183.2 142.491 170.95 134.237 171.048 124.983C171.146 115.728 179.13 114.439 183.479 122.182Z" fill="#FF845E"/>
<path d="M183.479 122.182L188.795 143.429C193.082 139.137 199.607 124.511 195.256 116.766C190.905 109.021 183.577 112.929 183.479 122.182Z" fill="#FF845E"/>
<path d="M231.55 110.322L236.865 131.568C231.27 130.631 219.021 122.377 219.118 113.122C219.216 103.867 227.2 102.578 231.55 110.322Z" fill="#FF845E"/>
<path d="M231.55 110.322L236.865 131.568C241.152 127.277 247.677 112.65 243.326 104.905C238.976 97.1604 231.647 101.069 231.55 110.322Z" fill="#FF845E"/>
<path fill-rule="evenodd" clip-rule="evenodd" d="M152.567 161.341C154.663 160.822 156.261 159.206 157.096 157.066C158.833 158.569 161 159.252 163.097 158.732C165.345 158.175 167.018 156.359 167.794 153.986C169.606 155.819 172 156.704 174.308 156.132C178.185 155.171 180.354 150.463 179.154 145.617C177.953 140.77 173.836 137.62 169.959 138.581C167.711 139.138 166.037 140.954 165.261 143.327C163.449 141.494 161.056 140.609 158.748 141.181C156.651 141.701 155.054 143.316 154.219 145.457C152.481 143.954 150.314 143.271 148.218 143.791C144.34 144.751 142.171 149.459 143.372 154.306C144.573 159.152 148.689 162.302 152.567 161.341Z" fill="#FD476D"/>
<path fill-rule="evenodd" clip-rule="evenodd" d="M148.467 150.66C148.854 150.019 149.687 149.812 150.329 150.199L154.709 152.839C155.35 153.226 155.557 154.059 155.17 154.701C154.783 155.342 153.95 155.549 153.309 155.162L148.929 152.522C148.287 152.135 148.081 151.302 148.467 150.66Z" fill="black"/>
<path fill-rule="evenodd" clip-rule="evenodd" d="M158.702 148.096C159.088 147.454 159.922 147.248 160.563 147.634L164.943 150.275C165.585 150.661 165.791 151.495 165.405 152.136C165.018 152.778 164.184 152.984 163.543 152.598L159.163 149.957C158.522 149.571 158.315 148.737 158.702 148.096Z" fill="black"/>
<path fill-rule="evenodd" clip-rule="evenodd" d="M168.456 145.884C168.842 145.242 169.676 145.036 170.317 145.422L174.697 148.063C175.339 148.449 175.545 149.283 175.158 149.924C174.772 150.566 173.938 150.772 173.297 150.386L168.917 147.745C168.276 147.359 168.069 146.525 168.456 145.884Z" fill="black"/>
<path fill-rule="evenodd" clip-rule="evenodd" d="M263.396 138.674C267.273 137.713 269.442 133.005 268.241 128.159C267.04 123.312 262.924 120.162 259.047 121.123C256.95 121.643 255.353 123.257 254.518 125.397C252.781 123.895 250.615 123.213 248.518 123.732C244.641 124.693 242.472 129.401 243.673 134.247C244.874 139.093 248.99 142.243 252.867 141.283C254.964 140.763 256.561 139.149 257.396 137.009C259.133 138.511 261.299 139.193 263.396 138.674Z" fill="#FD476D"/>
<path fill-rule="evenodd" clip-rule="evenodd" d="M248.768 130.6C249.155 129.958 249.988 129.752 250.63 130.138L255.01 132.779C255.651 133.165 255.858 133.999 255.471 134.64C255.084 135.282 254.251 135.488 253.609 135.101L249.229 132.461C248.588 132.074 248.382 131.241 248.768 130.6Z" fill="black"/>
<path fill-rule="evenodd" clip-rule="evenodd" d="M257.544 128.424C257.93 127.782 258.764 127.576 259.405 127.963L263.785 130.603C264.426 130.989 264.633 131.823 264.246 132.464C263.86 133.106 263.026 133.312 262.385 132.926L258.005 130.285C257.363 129.899 257.157 129.065 257.544 128.424Z" fill="black"/>
<path d="M193.62 121.502C193.62 122.805 192.828 123.862 191.85 123.862C190.873 123.862 190.08 122.805 190.08 121.502C190.08 120.198 190.873 119.142 191.85 119.142C192.828 119.142 193.62 120.198 193.62 121.502Z" fill="white"/>
<path d="M241.985 108.52C241.985 109.824 241.193 110.88 240.215 110.88C239.238 110.88 238.445 109.824 238.445 108.52C238.445 107.217 239.238 106.16 240.215 106.16C241.193 106.16 241.985 107.217 241.985 108.52Z" fill="white"/>
<path fill-rule="evenodd" clip-rule="evenodd" d="M375.5 199C376.328 199 377 199.672 377 200.5C377 219.655 370.212 231.287 362.993 238.44C359.404 241.998 355.741 244.415 352.837 246.095C351.678 246.766 350.628 247.325 349.771 247.782C349.56 247.894 349.36 248.001 349.173 248.101C348.693 248.359 348.311 248.57 348.017 248.748C347.871 248.837 347.76 248.91 347.678 248.969C347.638 248.998 347.608 249.021 347.587 249.038C347.566 249.055 347.559 249.063 347.561 249.061C346.975 249.646 346.025 249.646 345.439 249.061C344.854 248.475 344.854 247.525 345.439 246.939C345.731 246.648 346.112 246.395 346.459 246.185C346.827 245.961 347.271 245.717 347.754 245.458C347.953 245.351 348.162 245.24 348.379 245.124C349.234 244.669 350.226 244.14 351.335 243.498C354.103 241.897 357.534 239.627 360.882 236.31C367.538 229.713 374 218.845 374 200.5C374 199.672 374.672 199 375.5 199Z" fill="black"/>
<path fill-rule="evenodd" clip-rule="evenodd" d="M385.487 199.74C386.154 199.248 387.093 199.389 387.585 200.056C391.254 205.023 396.031 218.229 386.877 232.257C386.424 232.951 385.495 233.147 384.801 232.694C384.107 232.241 383.912 231.312 384.364 230.618C392.681 217.872 388.277 206.042 385.172 201.838C384.68 201.172 384.821 200.233 385.487 199.74Z" fill="black"/>
</svg>
