<svg width="430" height="430" viewBox="0 0 430 430" fill="none" xmlns="http://www.w3.org/2000/svg">
<path d="M430 215C430 333.741 333.741 430 215 430C96.2588 430 0 333.741 0 215C0 96.2588 96.2588 0 215 0C333.741 0 430 96.2588 430 215Z" fill="#4CE6B7"/>
<mask id="mask0" mask-type="alpha" maskUnits="userSpaceOnUse" x="0" y="0" width="430" height="430">
<path d="M430 215C430 333.741 333.741 430 215 430C96.2588 430 0 333.741 0 215C0 96.2588 96.2588 0 215 0C333.741 0 430 96.2588 430 215Z" fill="#4CE6B7"/>
</mask>
<g mask="url(#mask0)">
<path d="M290.768 501.355L259.55 508.59L233.668 394.113L262.896 386.879L290.768 501.355Z" fill="#F8C377"/>
<path d="M233.668 394.114L262.682 386.894L265.669 397.843L234.663 399.091L233.668 394.114Z" fill="#EEA43A"/>
<path d="M255.57 105.434C246.611 66.6111 208.784 43.7159 170.957 52.6749C133.13 61.6339 109.239 99.4609 118.198 137.288V138.283L175.934 387.145C178.92 398.095 189.87 405.063 200.82 402.077L298.374 379.182C309.324 376.195 316.292 365.245 313.306 354.295L255.57 106.429C255.57 105.434 255.57 105.434 255.57 105.434Z" fill="#7A5746"/>
<path d="M218.502 91.8877C219.995 91.1887 219.884 87.7966 218.253 84.3111C216.622 80.8256 214.089 78.5667 212.595 79.2656C211.102 79.9646 211.213 83.3568 212.844 86.8423C214.475 90.3278 217.008 92.5867 218.502 91.8877Z" fill="#593E2F"/>
<path d="M177.929 234.103C179.435 233.429 179.38 230.035 177.807 226.522C176.234 223.01 173.739 220.709 172.233 221.383C170.728 222.057 170.783 225.451 172.356 228.963C173.929 232.476 176.424 234.777 177.929 234.103Z" fill="#593E2F"/>
<path d="M251.934 187.944C253.553 187.627 254.266 184.309 253.526 180.532C252.787 176.755 250.876 173.95 249.257 174.267C247.638 174.584 246.925 177.903 247.665 181.679C248.404 185.456 250.315 188.261 251.934 187.944Z" fill="#593E2F"/>
<path d="M185.425 338.185C187.031 337.812 187.628 334.471 186.757 330.722C185.887 326.973 183.879 324.237 182.272 324.61C180.666 324.983 180.069 328.324 180.939 332.073C181.81 335.822 183.818 338.558 185.425 338.185Z" fill="#593E2F"/>
<path d="M260.208 289.196C261.747 288.603 261.873 285.211 260.489 281.62C259.105 278.029 256.736 275.599 255.197 276.192C253.658 276.785 253.532 280.177 254.916 283.768C256.3 287.359 258.669 289.789 260.208 289.196Z" fill="#593E2F"/>
<path d="M231.251 370.338C233.243 369.406 233.347 365.421 231.483 361.437C229.619 357.453 226.493 354.979 224.501 355.911C222.509 356.843 222.406 360.828 224.269 364.812C226.133 368.796 229.259 371.27 231.251 370.338Z" fill="#593E2F"/>
<path d="M158.526 104.269C159.597 104.02 160.263 102.951 160.015 101.879C159.766 100.808 158.696 100.142 157.625 100.39C156.554 100.639 155.887 101.709 156.136 102.78C156.385 103.851 157.454 104.518 158.526 104.269Z" fill="#593E2F"/>
<path d="M240.302 159.124C241.373 158.875 241.939 157.371 241.566 155.764C241.193 154.158 240.022 153.057 238.951 153.306C237.88 153.554 237.314 155.058 237.687 156.665C238.06 158.271 239.231 159.372 240.302 159.124Z" fill="#593E2F"/>
<path d="M193.468 117.339C194.539 117.091 195.105 115.587 194.732 113.98C194.359 112.373 193.188 111.273 192.117 111.521C191.046 111.77 190.48 113.274 190.853 114.881C191.226 116.487 192.397 117.588 193.468 117.339Z" fill="#593E2F"/>
<path d="M228.326 120.348C229.397 120.099 229.962 118.595 229.589 116.989C229.216 115.382 228.046 114.281 226.974 114.53C225.903 114.779 225.338 116.283 225.711 117.889C226.084 119.496 227.254 120.597 228.326 120.348Z" fill="#593E2F"/>
<path d="M140.816 129.265C141.887 129.016 142.453 127.512 142.08 125.906C141.706 124.299 140.536 123.198 139.465 123.447C138.394 123.696 137.828 125.2 138.201 126.806C138.574 128.413 139.745 129.514 140.816 129.265Z" fill="#593E2F"/>
<path d="M188.548 78.4936C189.619 78.2449 190.185 76.7409 189.812 75.1343C189.439 73.5277 188.268 72.4269 187.197 72.6756C186.126 72.9244 185.56 74.4284 185.933 76.035C186.306 77.6416 187.477 78.7423 188.548 78.4936Z" fill="#593E2F"/>
<path d="M223.425 203.918C224.496 203.67 225.062 202.166 224.689 200.559C224.316 198.952 223.145 197.852 222.074 198.1C221.003 198.349 220.437 199.853 220.81 201.46C221.183 203.066 222.354 204.167 223.425 203.918Z" fill="#593E2F"/>
<path d="M186.605 201.874C187.676 201.626 188.242 200.122 187.869 198.515C187.496 196.909 186.325 195.808 185.254 196.056C184.183 196.305 183.617 197.809 183.99 199.416C184.363 201.022 185.534 202.123 186.605 201.874Z" fill="#593E2F"/>
<path d="M206.554 248.713C207.625 248.465 208.191 246.961 207.818 245.354C207.445 243.747 206.274 242.647 205.203 242.895C204.132 243.144 203.566 244.648 203.939 246.255C204.312 247.861 205.483 248.962 206.554 248.713Z" fill="#593E2F"/>
<path d="M220.298 295.419C221.369 295.171 221.935 293.667 221.562 292.06C221.189 290.453 220.018 289.353 218.947 289.601C217.876 289.85 217.31 291.354 217.683 292.961C218.056 294.567 219.227 295.668 220.298 295.419Z" fill="#593E2F"/>
<path d="M262.216 235.749C263.287 235.5 263.853 233.996 263.48 232.389C263.107 230.783 261.936 229.682 260.865 229.931C259.794 230.179 259.228 231.683 259.601 233.29C259.974 234.896 261.145 235.997 262.216 235.749Z" fill="#593E2F"/>
<path d="M286.361 345.179C287.967 344.806 288.866 342.767 288.369 340.625C287.872 338.483 286.166 337.049 284.559 337.422C282.953 337.795 282.054 339.834 282.551 341.976C283.049 344.118 284.754 345.553 286.361 345.179Z" fill="#593E2F"/>
<path d="M189.46 292.54C190.531 292.291 191.097 290.787 190.724 289.18C190.351 287.574 189.18 286.473 188.109 286.722C187.038 286.97 186.472 288.474 186.845 290.081C187.219 291.687 188.389 292.788 189.46 292.54Z" fill="#593E2F"/>
<path d="M252.302 325.358C253.373 325.109 253.939 323.605 253.566 321.999C253.193 320.392 252.022 319.291 250.951 319.54C249.88 319.789 249.314 321.293 249.687 322.899C250.06 324.506 251.231 325.607 252.302 325.358Z" fill="#593E2F"/>
<path fill-rule="evenodd" clip-rule="evenodd" d="M143.342 87.6779C143.801 88.3672 143.615 89.2985 142.925 89.758C135.825 94.4918 133.033 100.358 131.985 105.015C131.458 107.358 131.37 109.406 131.414 110.863C131.436 111.59 131.49 112.166 131.538 112.552C131.561 112.746 131.583 112.891 131.599 112.985C131.606 113.031 131.612 113.065 131.616 113.084L131.619 113.103C131.781 113.915 131.254 114.705 130.442 114.867C129.63 115.029 128.84 114.503 128.677 113.69L130.148 113.396C128.677 113.69 128.677 113.689 128.677 113.689L128.676 113.686L128.675 113.681L128.673 113.667L128.664 113.621C128.657 113.584 128.648 113.533 128.638 113.467C128.616 113.337 128.589 113.152 128.56 112.918C128.503 112.449 128.44 111.781 128.415 110.952C128.366 109.298 128.465 106.991 129.058 104.357C130.25 99.0591 133.43 92.4826 141.261 87.2618C141.951 86.8023 142.882 86.9886 143.342 87.6779Z" fill="white"/>
<path fill-rule="evenodd" clip-rule="evenodd" d="M223.218 47.4834C223.336 46.6633 224.095 46.0934 224.915 46.2106L224.703 47.6955C224.915 46.2106 224.916 46.2107 224.917 46.2108L224.919 46.211L224.924 46.2118L224.94 46.2141L224.994 46.2224C225.04 46.2295 225.105 46.2399 225.189 46.254C225.356 46.2822 225.597 46.3251 225.902 46.3853C226.512 46.5056 227.38 46.6957 228.435 46.9774C230.54 47.5399 233.404 48.4727 236.437 49.9567C242.482 52.9147 249.37 58.1561 252.024 67.1812C252.258 67.976 251.803 68.8097 251.008 69.0435C250.213 69.2772 249.38 68.8225 249.146 68.0277C246.823 60.1302 240.77 55.4171 235.118 52.6513C232.303 51.2734 229.63 50.4019 227.66 49.8757C226.677 49.613 225.874 49.4376 225.321 49.3285C225.045 49.274 224.831 49.2361 224.69 49.2123C224.619 49.2004 224.567 49.192 224.533 49.1868L224.497 49.1814L224.491 49.1804L224.491 49.1803L224.49 49.1803C223.671 49.0627 223.101 48.3032 223.218 47.4834Z" fill="#231F20"/>
<path fill-rule="evenodd" clip-rule="evenodd" d="M228.191 38.5514C228.294 37.7294 229.044 37.1463 229.866 37.249L229.68 38.7375C229.866 37.249 229.865 37.249 229.866 37.249L229.87 37.2496L229.877 37.2505L229.901 37.2536C229.92 37.2561 229.947 37.2598 229.981 37.2646C230.049 37.2742 230.147 37.2886 230.272 37.3084C230.523 37.3481 230.883 37.4096 231.338 37.4989C232.247 37.6775 233.535 37.9676 235.077 38.4173C238.155 39.3152 242.273 40.8574 246.402 43.4381C247.104 43.8772 247.318 44.8026 246.879 45.5051C246.44 46.2076 245.514 46.4212 244.812 45.9821C240.978 43.5857 237.131 42.1415 234.237 41.2973C232.793 40.876 231.592 40.6063 230.759 40.4426C230.343 40.3609 230.019 40.3057 229.803 40.2715C229.695 40.2544 229.614 40.2425 229.562 40.2351L229.505 40.2274L229.494 40.2259C229.494 40.2259 229.494 40.2259 229.494 40.2259M228.191 38.5514C228.089 39.3732 228.672 40.1228 229.494 40.2259L228.191 38.5514Z" fill="#231F20"/>
<path d="M165.392 174.033C160.778 174.831 156.034 169.672 154.797 162.511C153.56 155.35 156.298 148.898 160.913 148.101C165.527 147.304 170.27 152.463 171.507 159.624C172.744 166.785 170.006 173.236 165.392 174.033Z" fill="white"/>
<path d="M158.233 149.335C161.338 150.711 164.925 154.871 165.887 160.441C166.849 166.011 165.134 171.497 162.669 173.835C159.077 173.014 155.71 167.936 154.747 162.366C153.785 156.796 154.84 151.833 158.233 149.335Z" fill="#231F20"/>
<path d="M193.994 165.186C189.379 165.983 184.636 160.824 183.399 153.663C182.162 146.502 184.9 140.051 189.514 139.254C194.128 138.457 198.872 143.616 200.109 150.777C201.346 157.938 198.608 164.389 193.994 165.186Z" fill="white"/>
<path d="M186.834 140.488C189.94 141.863 193.527 146.024 194.489 151.594C195.451 157.164 193.735 162.649 191.271 164.987C187.679 164.167 184.311 159.088 183.349 153.518C182.387 147.948 183.442 142.986 186.834 140.488Z" fill="#231F20"/>
<path d="M180.984 180.399C181.924 180.199 185.26 191.274 185.46 192.214C187.598 197.652 189.936 204.029 194.293 206.049C196.372 206.589 197.511 207.329 199.391 206.93C214.824 205.614 209.831 182.124 207.833 172.728C207.833 172.728 206.835 168.03 207.035 168.969C208.174 169.709 181.924 180.199 180.984 180.399Z" fill="#FD476D"/>
<path fill-rule="evenodd" clip-rule="evenodd" d="M235.587 156.392C236.221 157.773 235.616 159.405 234.236 160.039L154.606 196.606C153.225 197.24 151.593 196.635 150.959 195.255C150.325 193.874 150.93 192.242 152.31 191.608L231.94 155.041C233.321 154.407 234.953 155.012 235.587 156.392Z" fill="#231F20"/>
<path fill-rule="evenodd" clip-rule="evenodd" d="M192.268 174.552C193.545 174.144 194.911 174.848 195.319 176.126L193.006 176.864L190.694 177.602C190.286 176.325 190.991 174.959 192.268 174.552ZM193.006 176.864C190.694 177.602 190.694 177.602 190.694 177.602L190.946 178.394C191.107 178.898 191.337 179.62 191.614 180.489C192.168 182.227 192.908 184.554 193.654 186.911C194.4 189.267 195.152 191.65 195.729 193.502C196.018 194.428 196.261 195.216 196.438 195.8C196.593 196.31 196.67 196.579 196.695 196.668C196.703 196.693 196.706 196.703 196.705 196.701C196.984 198.012 198.273 198.849 199.584 198.571C200.896 198.292 201.733 197.003 201.454 195.691C201.373 195.312 200.912 193.816 200.364 192.057C199.783 190.195 199.029 187.804 198.282 185.445C197.535 183.085 196.794 180.756 196.24 179.016C195.963 178.146 195.733 177.424 195.572 176.918L195.319 176.126C195.319 176.125 195.319 176.126 193.006 176.864Z" fill="#231F20"/>
</g>
</svg>
