<svg width="430" height="430" viewBox="0 0 430 430" fill="none" xmlns="http://www.w3.org/2000/svg">
<path d="M430 215C430 333.741 333.741 430 215 430C96.2588 430 0 333.741 0 215C0 96.2588 96.2588 0 215 0C333.741 0 430 96.2588 430 215Z" fill="#4CE6B7"/>
<path d="M244.618 210.869C250.142 184.396 254.324 161.098 266.793 136.831C269.635 131.316 272.791 125.643 273.896 119.498C278.316 95.073 252.272 98.067 238.382 106.734C228.438 113.037 221.178 122.649 215.969 133.049C204.762 155.11 201.448 180.638 199.396 205.063C199.238 208.057 198.922 210.893 198.764 213.887C192.451 180.638 192.924 148.807 191.03 115.243C190.872 111.461 190.399 107.522 188.82 103.897C180.928 87.0365 158.357 100.746 152.359 111.934C145.414 125.013 145.572 142.504 145.888 156.844C146.361 180.481 151.254 203.014 154.727 226.178C154.253 223.5 126.316 233.427 123.632 235.003C115.267 239.888 108.638 246.664 105.007 255.646C96.9574 275.973 106.27 306.071 120.476 321.356C153.78 357.126 214.462 365.579 255.5 352.5C268.127 348.561 291.101 326.398 298.519 315.683C316.671 289.525 311.028 247.758 285.774 228.376C283.248 226.643 244.618 210.869 244.618 210.869ZM153.464 303.234C144.941 306.386 123.475 272.191 153.464 270.143C153.464 270.143 162.145 300.083 153.464 303.234Z" fill="#FF7759"/>
<path fill-rule="evenodd" clip-rule="evenodd" d="M256.894 217.687C256.893 217.687 256.892 217.688 256.892 217.688L256.887 217.689C256.878 217.692 256.862 217.698 256.839 217.706C256.791 217.722 256.715 217.749 256.613 217.787C256.407 217.862 256.094 217.982 255.69 218.152C254.882 218.493 253.711 219.032 252.304 219.814C249.488 221.38 245.74 223.909 242.057 227.746C234.737 235.373 227.527 248.311 228.603 269.574C229.697 291.183 236.34 299.984 242.257 302.547C248.207 305.124 254.272 301.866 255.996 297.467L256 297.458C256.97 295.018 257.683 291.308 258.401 286.817C258.585 285.667 258.769 284.471 258.957 283.245C259.488 279.784 260.056 276.086 260.77 272.514C261.737 267.677 263.005 262.885 264.919 258.981C266.826 255.089 269.516 251.797 273.47 250.449C274.516 250.093 275.652 250.651 276.009 251.697C276.365 252.742 275.807 253.879 274.761 254.235C272.244 255.093 270.199 257.297 268.51 260.742C266.828 264.175 265.64 268.562 264.693 273.298C263.998 276.774 263.451 280.337 262.923 283.773C262.732 285.018 262.543 286.247 262.351 287.448C261.644 291.867 260.878 296.015 259.718 298.932C257.178 305.404 248.724 309.707 240.668 306.218C232.577 302.713 225.724 291.817 224.608 269.777C223.475 247.391 231.102 233.383 239.171 224.976C243.183 220.797 247.268 218.037 250.361 216.318C251.908 215.458 253.211 214.856 254.138 214.466C254.602 214.271 254.972 214.128 255.232 214.032C255.362 213.984 255.465 213.948 255.538 213.923C255.575 213.91 255.604 213.901 255.626 213.893L255.653 213.885L255.662 213.882L255.665 213.88C255.667 213.88 255.668 213.88 256.28 215.784L255.668 213.88C256.72 213.542 257.846 214.12 258.184 215.172C258.521 216.223 257.944 217.348 256.895 217.687C256.895 217.687 256.895 217.687 256.895 217.687L256.894 217.687Z" fill="black"/>
<path fill-rule="evenodd" clip-rule="evenodd" d="M241.098 216.58C241.618 217.554 241.251 218.766 240.277 219.286L240.277 219.287L240.276 219.287L240.269 219.291L240.23 219.312C240.194 219.332 240.137 219.364 240.06 219.407C239.907 219.493 239.676 219.626 239.377 219.804C238.78 220.161 237.916 220.7 236.867 221.414C234.765 222.846 231.939 224.973 229.047 227.752C223.234 233.335 217.325 241.378 216.231 251.541C216.113 252.639 215.126 253.433 214.028 253.315C212.93 253.197 212.136 252.211 212.254 251.113C213.489 239.634 220.125 230.775 226.276 224.867C229.365 221.9 232.375 219.634 234.615 218.109C235.736 217.345 236.668 216.764 237.325 216.371C237.653 216.175 237.914 216.025 238.095 215.923C238.185 215.872 238.256 215.833 238.306 215.805L238.365 215.773L238.382 215.764L238.388 215.761L238.39 215.76C238.39 215.759 238.391 215.759 239.334 217.523L238.391 215.759C239.365 215.238 240.577 215.606 241.098 216.58Z" fill="black"/>
<path fill-rule="evenodd" clip-rule="evenodd" d="M211.683 276.907C212.473 277.156 212.912 277.998 212.663 278.788L212.663 278.788L212.663 278.788L212.662 278.79L212.658 278.803L212.641 278.861C212.625 278.914 212.6 278.995 212.569 279.102C212.507 279.318 212.418 279.638 212.311 280.049C212.099 280.871 211.819 282.052 211.558 283.474C211.033 286.329 210.591 290.1 210.873 293.865C211.157 297.643 212.16 301.264 214.389 303.976C216.569 306.629 220.074 308.596 225.776 308.825C225.784 308.825 225.795 308.825 225.808 308.825C225.853 308.824 225.925 308.822 226.021 308.817C226.212 308.808 226.495 308.79 226.846 308.753C227.551 308.678 228.513 308.529 229.543 308.234C231.65 307.63 233.775 306.498 234.838 304.438C235.218 303.702 236.123 303.413 236.859 303.793C237.595 304.173 237.884 305.077 237.504 305.814C235.884 308.953 232.799 310.421 230.369 311.118C229.13 311.473 227.991 311.648 227.162 311.736C226.746 311.78 226.404 311.803 226.161 311.814C226.04 311.82 225.943 311.823 225.874 311.824C225.84 311.825 225.812 311.825 225.792 311.826L225.767 311.826L225.759 311.826L225.756 311.826L225.755 311.826C225.754 311.826 225.753 311.826 225.753 310.326L225.753 311.826H225.724L225.695 311.825C219.265 311.575 214.888 309.309 212.071 305.881C209.298 302.506 208.19 298.19 207.882 294.089C207.573 289.975 208.057 285.926 208.608 282.931C208.884 281.428 209.179 280.177 209.407 279.297C209.521 278.857 209.618 278.51 209.687 278.27C209.722 278.15 209.75 278.057 209.769 277.992L209.792 277.917L209.798 277.896L209.8 277.89L209.801 277.888C209.801 277.887 209.802 277.886 211.223 278.334L209.802 277.886C210.051 277.096 210.893 276.658 211.683 276.907Z" fill="black"/>
<path fill-rule="evenodd" clip-rule="evenodd" d="M156.928 228.598C154.731 228.282 153.399 228.196 152.949 228.233C151.848 228.325 150.882 227.507 150.79 226.406C150.699 225.305 151.517 224.339 152.617 224.247C153.588 224.166 155.358 224.331 157.497 224.638C159.718 224.957 162.549 225.464 165.763 226.156C172.187 227.541 180.205 229.683 188.011 232.6C195.791 235.508 203.489 239.232 209.176 243.831C214.846 248.414 218.846 254.149 218.389 261.04C217.559 273.54 212.156 280.37 204.989 283.357C198.047 286.25 189.903 285.341 183.766 283.463C177.801 281.636 170.268 279.024 164.245 276.875C161.23 275.799 158.585 274.836 156.694 274.143C155.749 273.796 154.992 273.517 154.47 273.324C154.21 273.227 154.008 273.152 153.871 273.102L153.663 273.024C153.663 273.024 153.662 273.024 154.362 271.15C155.061 269.276 155.061 269.276 155.061 269.276L155.266 269.352C155.401 269.403 155.6 269.477 155.859 269.573C156.377 269.764 157.13 270.042 158.071 270.388C159.954 271.078 162.587 272.036 165.589 273.107C171.602 275.252 179.064 277.84 184.937 279.638C190.638 281.383 197.725 282.051 203.45 279.665C208.95 277.373 213.648 272.069 214.397 260.775C214.729 255.768 211.883 251.163 206.662 246.941C201.458 242.735 194.22 239.191 186.611 236.347C179.027 233.513 171.202 231.42 164.92 230.066C161.781 229.39 159.043 228.901 156.928 228.598ZM152.488 270.451C152.874 269.416 154.026 268.89 155.061 269.276L154.362 271.15L153.662 273.024C152.627 272.637 152.102 271.485 152.488 270.451Z" fill="black"/>
<path d="M201.772 42.8307C193.615 48.7097 191.357 60.7242 196.831 69.1185L209.749 88.9277C213.541 94.7441 215.438 97.6523 218.387 98.1668C221.335 98.6814 224.105 96.5873 229.643 92.3993L248.506 78.1357C256.5 72.0913 258.444 60.0222 252.761 51.7282C247.296 43.7527 236.874 42.3699 229.483 48.6396C227.977 49.9166 225.704 49.5199 224.72 47.8085C219.889 39.406 209.615 37.1774 201.772 42.8307Z" fill="#9971FF"/>
<path fill-rule="evenodd" clip-rule="evenodd" d="M163.535 40.7231C164.24 40.2883 165.164 40.5074 165.599 41.2125L189.502 79.9763C189.937 80.6815 189.718 81.6056 189.012 82.0404C188.307 82.4752 187.383 82.2561 186.948 81.551L163.045 42.7872C162.61 42.082 162.829 41.1579 163.535 40.7231Z" fill="#FFCF52"/>
<path fill-rule="evenodd" clip-rule="evenodd" d="M160.723 67.5426C161.31 66.9576 162.259 66.9589 162.844 67.5455L181.689 86.4415C182.274 87.0281 182.273 87.9778 181.687 88.5628C181.1 89.1478 180.15 89.1465 179.565 88.5599L160.72 69.6639C160.135 69.0774 160.136 68.1276 160.723 67.5426Z" fill="#FFCF52"/>
</svg>
