<svg width="430" height="430" viewBox="0 0 430 430" fill="none" xmlns="http://www.w3.org/2000/svg">
<path d="M430 215C430 333.741 333.741 430 215 430C96.2588 430 0 333.741 0 215C0 96.2588 96.2588 0 215 0C333.741 0 430 96.2588 430 215Z" fill="#449AFF"/>
<path fill-rule="evenodd" clip-rule="evenodd" d="M151.027 55.4591C150.458 54.8561 149.509 54.8278 148.906 55.3958L149.935 56.4877C148.906 55.3958 148.906 55.3962 148.905 55.3965L148.901 55.4007L148.89 55.411L148.851 55.448C148.818 55.4798 148.77 55.5259 148.709 55.5858C148.586 55.7055 148.409 55.8805 148.185 56.1068C147.739 56.5594 147.106 57.2181 146.355 58.0521C144.853 59.7181 142.864 62.0939 140.92 64.9322C137.078 70.5411 133.21 78.2479 134.03 85.9467C134.118 86.7705 134.857 87.3671 135.681 87.2793C136.505 87.1915 137.101 86.4525 137.013 85.6288C136.311 79.0397 139.649 72.0965 143.395 66.6273C145.245 63.9265 147.144 61.6563 148.583 60.061C149.301 59.2643 149.902 58.6386 150.32 58.2144C150.53 58.0024 150.693 57.8408 150.803 57.7337C150.858 57.6801 150.9 57.6402 150.927 57.6143L150.956 57.5861L150.963 57.5801C150.963 57.58 150.964 57.5792 150.964 57.5791M151.027 55.4591C151.594 56.062 151.566 57.011 150.964 57.5791L151.027 55.4591Z" fill="#231F20"/>
<path fill-rule="evenodd" clip-rule="evenodd" d="M142.766 49.8274C142.31 49.1355 141.38 48.944 140.688 49.3996L141.513 50.6524C140.688 49.3996 140.688 49.3993 140.688 49.3996L140.684 49.402L140.678 49.406L140.659 49.419C140.643 49.4298 140.62 49.4449 140.592 49.4643C140.535 49.5032 140.453 49.5593 140.35 49.6324C140.143 49.7787 139.847 49.9932 139.478 50.2744C138.742 50.8365 137.714 51.6664 136.53 52.7514C134.166 54.9177 131.155 58.1213 128.592 62.2617C128.156 62.9662 128.374 63.8906 129.078 64.3266C129.782 64.7627 130.707 64.5451 131.143 63.8407C133.523 59.9959 136.334 57.0001 138.557 54.9633C139.666 53.9467 140.624 53.1742 141.298 52.6592C141.636 52.4018 141.902 52.2091 142.081 52.0828C142.17 52.0196 142.238 51.9731 142.281 51.9435L142.328 51.9116L142.338 51.9052C142.338 51.9051 142.338 51.9053 142.338 51.9052M142.766 49.8274C143.221 50.5192 143.029 51.4495 142.338 51.9052L142.766 49.8274Z" fill="#231F20"/>
<path d="M383.472 266.753L275.471 146.883C277.344 150.717 277.882 153.248 275.965 154.184C270.215 156.994 253.96 130.296 236.625 123.402C219.29 116.507 226.733 161.475 213.486 173.813C200.239 186.15 188.045 151.184 180.542 143.257C173.038 135.33 165.952 136.837 155.439 157.057C150.182 167.167 142.85 165.022 136.605 160.531L81.3204 330.977C74.5648 351.456 92.5649 371.434 113.822 366.916L368.398 312.804C389.149 308.393 397.467 282.821 383.472 266.753Z" fill="#FF9900"/>
<path d="M161.959 83.2007L81.322 330.977C74.5664 351.456 92.5664 371.434 113.823 366.916L368.4 312.804C389.657 308.286 397.975 282.714 383.473 266.753L209.028 73.1959C194.527 57.2349 168.715 62.7213 161.959 83.2007Z" fill="#FF9900"/>
<path fill-rule="evenodd" clip-rule="evenodd" d="M383.473 266.753L209.028 73.1959C194.527 57.2349 168.715 62.7213 161.959 83.2007L81.322 330.977C74.5664 351.456 92.5664 371.434 113.823 366.916L368.4 312.804C389.657 308.286 397.975 282.714 383.473 266.753ZM164.81 84.1353C164.809 84.137 164.809 84.1388 164.808 84.1405L84.171 331.917C78.1502 350.169 94.178 368.025 113.2 363.982L367.776 309.87C386.797 305.827 394.177 282.995 381.253 268.77L381.245 268.761L206.807 75.2132C206.806 75.2119 206.805 75.2106 206.804 75.2092C193.848 60.9549 170.848 65.8438 164.81 84.1353Z" fill="#FFB74B"/>
<path d="M132.589 340.71C137.062 339.759 140.205 336.722 139.611 333.927C139.017 331.132 134.91 329.637 130.438 330.587C125.965 331.538 122.821 334.575 123.416 337.37C124.01 340.165 128.117 341.66 132.589 340.71Z" fill="#FFA719"/>
<path d="M279.603 186.208C284.075 185.257 287.219 182.221 286.625 179.425C286.031 176.63 281.924 175.135 277.451 176.085C272.979 177.036 269.835 180.073 270.429 182.868C271.023 185.663 275.131 187.158 279.603 186.208Z" fill="#FFA719"/>
<path d="M195.468 118.925C199.94 117.975 203.084 114.938 202.49 112.143C201.896 109.348 197.789 107.853 193.317 108.803C188.844 109.754 185.7 112.79 186.295 115.586C186.889 118.381 190.996 119.876 195.468 118.925Z" fill="#FFA719"/>
<path d="M161.683 295.91C164.479 295.316 166.263 292.568 165.669 289.773C165.075 286.978 162.327 285.193 159.532 285.787C156.737 286.382 154.952 289.129 155.546 291.924C156.141 294.72 158.888 296.504 161.683 295.91Z" fill="#FFA719"/>
<path d="M300.207 252.922C303.002 252.327 304.786 249.58 304.192 246.785C303.598 243.989 300.851 242.205 298.055 242.799C295.26 243.393 293.476 246.141 294.07 248.936C294.664 251.731 297.412 253.516 300.207 252.922Z" fill="#FFA719"/>
<path d="M171.855 239.262C174.651 238.668 176.435 235.921 175.841 233.125C175.247 230.33 172.499 228.546 169.704 229.14C166.909 229.734 165.124 232.482 165.718 235.277C166.312 238.072 169.06 239.856 171.855 239.262Z" fill="#FFA719"/>
<path d="M124.541 287.935C127.336 287.341 129.12 284.593 128.526 281.798C127.932 279.003 125.184 277.219 122.389 277.813C119.594 278.407 117.81 281.155 118.404 283.95C118.998 286.745 121.746 288.529 124.541 287.935Z" fill="#FFA719"/>
<path d="M259.062 233.951C261.858 233.357 263.642 230.609 263.048 227.814C262.454 225.019 259.706 223.234 256.911 223.829C254.116 224.423 252.331 227.17 252.925 229.965C253.52 232.761 256.267 234.545 259.062 233.951Z" fill="#FFA719"/>
<path d="M286.603 278.879C288.28 278.523 289.351 276.874 288.994 275.197C288.638 273.52 286.989 272.449 285.312 272.806C283.635 273.162 282.564 274.811 282.921 276.488C283.277 278.165 284.926 279.236 286.603 278.879Z" fill="#FFA719"/>
<path d="M314.648 231.657C316.325 231.301 317.396 229.652 317.039 227.975C316.683 226.298 315.034 225.228 313.357 225.584C311.68 225.941 310.609 227.589 310.966 229.266C311.322 230.943 312.971 232.014 314.648 231.657Z" fill="#FFA719"/>
<path d="M250.42 307.73C255.451 306.66 259.048 303.527 258.454 300.732C257.86 297.937 253.3 296.538 248.268 297.608C243.237 298.677 239.64 301.81 240.234 304.605C240.828 307.4 245.388 308.799 250.42 307.73Z" fill="#FFA719"/>
<path d="M150.23 204.714C155.262 203.645 158.859 200.512 158.265 197.717C157.671 194.921 153.11 193.522 148.079 194.592C143.047 195.661 139.45 198.794 140.045 201.589C140.639 204.385 145.199 205.784 150.23 204.714Z" fill="#FFA719"/>
<path d="M315.322 304.514C320.354 303.445 323.951 300.312 323.356 297.516C322.762 294.721 318.202 293.322 313.171 294.392C308.139 295.461 304.542 298.594 305.136 301.389C305.73 304.184 310.291 305.583 315.322 304.514Z" fill="#FFA719"/>
<path d="M238.434 79.6402C265.715 103.464 270.263 85.0414 270.263 85.0414C270.263 85.0414 272.571 66.0364 238.434 79.6402Z" fill="#FFF04A"/>
<path opacity="0.6" d="M266.629 81.7457C266.936 80.9451 264.804 79.3847 261.869 78.2604C258.933 77.1362 256.305 76.8738 255.999 77.6744C255.692 78.475 257.823 80.0354 260.759 81.1597C263.694 82.2839 266.322 82.5463 266.629 81.7457Z" fill="white"/>
<path d="M238.019 70.2063C256.378 69.4778 251.405 61.0132 251.405 61.0132C251.405 61.0132 245.528 53.2698 238.019 70.2063Z" fill="#FFF04A"/>
<path opacity="0.6" d="M246.755 63.0325C248.331 62.3557 249.425 61.3813 249.199 60.8562C248.974 60.3311 247.514 60.4541 245.938 61.1309C244.363 61.8077 243.269 62.7821 243.494 63.3073C243.72 63.8324 245.18 63.7094 246.755 63.0325Z" fill="white"/>
<path opacity="0.4" d="M283.914 156.727C283.914 156.727 285.926 163.705 288.855 162.553C292.398 161.8 286.476 158.827 283.914 156.727Z" fill="white"/>
<path opacity="0.6" d="M160.793 88.461L226.497 121.017L255.624 161.853L264.98 205.87L303.362 225.315L310.778 266.677L329.207 286.785L333.989 309.282L322.728 322.899L368.85 313.095C390.107 308.577 398.425 283.005 383.924 267.044L209.479 73.4868C194.977 57.5257 169.165 63.0122 162.41 83.4915L160.793 88.461Z" fill="#FF7A00"/>
<path d="M289.374 155.037C284.433 149.211 279.384 142.878 274.044 137.665C270.147 134.262 265.129 130.567 261.125 126.658L210.623 70.7405C194.679 52.9701 165.325 59.2097 157.987 81.9286L143.495 125.741C140.845 133.181 131.085 156.944 129.092 160.012C126.701 163.694 129.693 167.819 129.693 167.819C136.551 172.709 144.896 174.638 151.058 163.807C162.659 141.24 170.251 139.626 178.982 148.35C187.713 157.073 200.767 196.088 215.823 182.308C230.374 168.636 222.469 119.005 241.538 126.589C249.085 129.746 255.944 134.636 261.897 140.247C263.846 141.949 266.085 142.531 268.034 144.233C271.716 146.624 277.239 150.211 278.714 154.658C279.758 157.081 280.188 159.106 281.738 161.421C283.181 163.23 285.636 164.824 287.983 165.913C291.45 167.292 295.1 167.045 295.758 162.673C295.511 159.023 291.43 157.245 289.374 155.037Z" fill="#FFF04A"/>
<path opacity="0.6" d="M141.17 153.232C144.141 146.785 145.369 141.016 143.914 140.345C142.458 139.674 138.87 144.356 135.899 150.803C132.928 157.25 131.7 163.019 133.155 163.69C134.611 164.361 138.199 159.679 141.17 153.232Z" fill="white"/>
<path opacity="0.6" d="M186.601 149.376C186.095 149.483 186.095 149.483 186.601 149.376C186.31 150.496 188.98 153.102 189.594 153.501C194.244 160.447 196.978 168.33 202.134 175.168C202.963 176.579 204.298 177.882 205.924 178.066C210.005 179.843 214.13 176.85 215.509 173.383C215.907 172.77 215.8 172.264 215.692 171.757C215.154 169.227 208.834 166.867 206.993 165.672C201.976 161.977 198.369 157.454 194.149 152.532C192.922 151.735 187.076 146.63 186.601 149.376Z" fill="white"/>
<path d="M248.422 250.03C255.627 248.498 259.537 238.17 257.155 226.962C254.772 215.754 247 207.909 239.794 209.441C232.589 210.972 228.679 221.3 231.062 232.508C233.444 243.717 241.217 251.561 248.422 250.03Z" fill="white"/>
<path d="M245.112 209.614C241.379 213.438 238.571 221.61 240.42 230.308C242.268 239.005 248.158 245.329 253.123 247.304C256.855 243.48 259.664 235.308 257.815 226.61C255.966 217.913 250.077 211.589 245.112 209.614Z" fill="#231F20"/>
<path d="M206.375 258.969C213.58 257.437 217.49 247.11 215.108 235.902C212.725 224.693 204.953 216.849 197.748 218.38C190.542 219.912 186.632 230.239 189.015 241.448C191.397 252.656 199.17 260.501 206.375 258.969Z" fill="white"/>
<path d="M203.141 218.536C199.408 222.36 196.6 230.532 198.449 239.23C200.298 247.927 206.187 254.251 211.152 256.226C214.885 252.402 217.693 244.23 215.844 235.532C213.995 226.834 208.106 220.511 203.141 218.536Z" fill="#231F20"/>
<path fill-rule="evenodd" clip-rule="evenodd" d="M171.98 225.367C171.639 223.766 172.661 222.192 174.262 221.852L200.355 216.305C201.956 215.965 203.53 216.987 203.871 218.588C204.211 220.189 203.189 221.763 201.588 222.104L175.495 227.65C173.894 227.99 172.32 226.968 171.98 225.367Z" fill="#231F20"/>
<path fill-rule="evenodd" clip-rule="evenodd" d="M213.997 216.435C213.657 214.834 214.679 213.26 216.28 212.92L242.373 207.374C243.974 207.033 245.548 208.055 245.888 209.657C246.229 211.258 245.207 212.832 243.605 213.172L217.513 218.718C215.911 219.059 214.337 218.037 213.997 216.435Z" fill="#231F20"/>
<path fill-rule="evenodd" clip-rule="evenodd" d="M180.251 285.735C179.911 284.134 180.933 282.56 182.534 282.22L259.363 265.889C260.964 265.549 262.538 266.571 262.878 268.172C263.219 269.773 262.196 271.347 260.595 271.688L183.766 288.018C182.165 288.358 180.591 287.336 180.251 285.735Z" fill="black"/>
<path fill-rule="evenodd" clip-rule="evenodd" d="M269.569 257.3C269.569 257.3 269.569 257.3 269.569 257.3L269.569 257.3C269.569 257.3 269.569 257.3 269.569 257.3ZM269.572 257.298C269.571 257.298 269.571 257.298 269.571 257.298L269.572 257.297C269.572 257.297 269.572 257.297 269.572 257.298C269.572 257.298 269.572 257.298 269.572 257.298C269.572 257.298 269.572 257.298 269.572 257.298C269.572 257.298 269.572 257.298 269.572 257.298Z" fill="black"/>
<path fill-rule="evenodd" clip-rule="evenodd" d="M170.518 84.5943C167.802 88.4061 166.477 93.2156 167.088 97.1558C167.342 98.7931 166.221 100.326 164.583 100.58C162.946 100.834 161.413 99.7126 161.159 98.0753C160.264 92.3036 162.189 85.9435 165.632 81.112C169.072 76.2855 174.46 72.4231 180.876 72.6722C182.531 72.7365 183.821 74.1308 183.757 75.7864C183.693 77.442 182.298 78.732 180.643 78.6677C176.922 78.5232 173.238 80.7776 170.518 84.5943Z" fill="white"/>
</svg>
