<svg width="430" height="430" viewBox="0 0 430 430" fill="none" xmlns="http://www.w3.org/2000/svg">
<path d="M430 215C430 333.741 333.741 430 215 430C96.2588 430 0 333.741 0 215C0 96.2588 96.2588 0 215 0C333.741 0 430 96.2588 430 215Z" fill="#FFCF52"/>
<mask id="mask0" mask-type="alpha" maskUnits="userSpaceOnUse" x="0" y="0" width="430" height="430">
<path d="M430 215C430 333.741 333.741 430 215 430C96.2588 430 0 333.741 0 215C0 96.2588 96.2588 0 215 0C333.741 0 430 96.2588 430 215Z" fill="#FFCF52"/>
</mask>
<g mask="url(#mask0)">
<path d="M298.795 323.243C315.314 319.404 321.3 309.043 319.431 300.639L442.491 274.167C463.942 283.101 511.108 287.232 519.97 300.259C531.047 316.543 541.721 317.749 557.488 306.145C573.255 294.54 584.715 289.69 588.698 292.663C592.68 295.637 594.551 318.233 573.741 321.368C552.931 324.502 535.983 323.904 524.051 342.416C512.633 360.131 509.409 343.833 494.045 348.694C478.68 353.554 475.874 340.921 463.847 342.086C442.406 344.162 438.401 373.664 408.809 378.768C358.013 387.531 350.558 354.415 360.01 348.461C369.463 342.507 355.196 337.488 347.352 338.248C339.508 339.007 323.351 341.131 313.805 351.574C304.259 362.016 292.443 360.026 286.613 354.206C282.523 350.123 278.147 328.042 298.795 323.243Z" fill="#DCCEA9"/>
<path d="M303.497 321.443C320.016 317.604 320.407 299.837 318.538 291.433L441.599 264.961C463.049 273.895 517.613 275.936 518.866 288.876C520.764 308.479 540.828 308.543 556.595 296.939C572.362 285.334 583.773 288.708 587.756 291.682C591.739 294.656 593.658 309.027 572.848 312.162C552.038 315.296 535.09 314.698 523.159 333.209C511.741 350.925 508.517 334.627 493.152 339.488C477.788 344.348 474.981 331.715 462.954 332.88C441.514 334.955 437.508 364.458 407.916 369.562C357.121 378.324 351.383 352.64 360.835 346.686C370.288 340.732 354.303 328.282 346.459 329.041C338.615 329.801 322.458 331.925 312.913 342.367C303.367 352.81 289.81 349.083 285.72 345C281.63 340.917 282.849 326.242 303.497 321.443Z" fill="#FFFDF8"/>
<path d="M509.852 221.816L360.15 169.846C359.838 169.737 359.496 169.748 359.191 169.876L41.1485 303.719C40.0252 304.192 40.0647 305.797 41.2099 306.214L190.292 360.485C190.612 360.602 190.964 360.592 191.277 360.458L509.939 224.315C511.065 223.834 511.009 222.218 509.852 221.816Z" fill="#FAF6EB"/>
<path d="M190.792 375.506V361.605C190.792 361.042 190.439 360.539 189.91 360.346L39.7988 305.7C38.9246 305.382 38 306.029 38 306.96V320.86C38 321.424 38.3524 321.927 38.8818 322.12L188.993 376.765C189.867 377.084 190.792 376.436 190.792 375.506Z" fill="#F4EDD7"/>
<path d="M513.128 238.488V224.983C513.128 224.022 512.145 223.373 511.261 223.751L191.605 360.319C191.111 360.53 190.791 361.015 190.791 361.551V375.388C190.791 376.35 191.775 376.999 192.659 376.62L512.315 239.72C512.808 239.509 513.128 239.024 513.128 238.488Z" fill="#EAE0C2"/>
<path d="M511.825 196.249L360.486 143.71C360.174 143.601 359.832 143.612 359.527 143.741L41.4845 277.584C40.3612 278.056 40.4007 279.661 41.5459 280.078L190.628 334.349C190.948 334.466 191.3 334.456 191.613 334.323L511.869 197.498C512.432 197.258 512.404 196.45 511.825 196.249Z" fill="#694C3C"/>
<path d="M191.461 349.371V335.47C191.461 334.906 191.108 334.402 190.578 334.21L40.1318 279.562C39.2578 279.245 38.334 279.892 38.334 280.822V294.723C38.334 295.287 38.6868 295.791 39.2167 295.983L189.663 350.631C190.537 350.948 191.461 350.301 191.461 349.371Z" fill="#593E2F"/>
<path d="M513.461 212.352V198.848C513.461 197.886 512.479 197.237 511.595 197.615L191.939 334.183C191.445 334.394 191.125 334.879 191.125 335.416V349.252C191.125 350.214 192.109 350.863 192.993 350.484L512.649 213.584C513.142 213.373 513.461 212.888 513.461 212.352Z" fill="#352118"/>
<path d="M509.852 168.875L360.15 116.904C359.838 116.796 359.496 116.807 359.191 116.935L41.1485 250.778C40.0252 251.251 40.0647 252.856 41.2099 253.273L190.292 307.544C190.612 307.66 190.964 307.651 191.277 307.517L509.939 171.373C511.065 170.892 511.009 169.277 509.852 168.875Z" fill="#FAF6EB"/>
<path d="M190.792 322.565V308.664C190.792 308.1 190.439 307.597 189.91 307.404L39.7988 252.759C38.9246 252.441 38 253.088 38 254.018V267.919C38 268.482 38.3524 268.986 38.8818 269.178L188.993 323.824C189.867 324.142 190.792 323.495 190.792 322.565Z" fill="#F4EDD7"/>
<path d="M513.128 185.546V172.042C513.128 171.08 512.145 170.432 511.261 170.809L191.605 307.378C191.111 307.588 190.791 308.073 190.791 308.61V322.447C190.791 323.409 191.775 324.057 192.659 323.679L512.315 186.778C512.808 186.567 513.128 186.082 513.128 185.546Z" fill="#EAE0C2"/>
<path d="M511.825 141.298L360.486 88.7587C360.174 88.6502 359.832 88.6611 359.527 88.7895L41.4845 222.632C40.3612 223.105 40.4007 224.71 41.5459 225.127L190.628 279.398C190.948 279.515 191.3 279.505 191.613 279.371L511.869 142.547C512.432 142.306 512.404 141.499 511.825 141.298Z" fill="#694C3C"/>
<path d="M191.461 294.42V280.519C191.461 279.955 191.108 279.451 190.578 279.259L40.1318 224.611C39.2578 224.294 38.334 224.941 38.334 225.871V239.772C38.334 240.336 38.6868 240.84 39.2167 241.032L189.663 295.68C190.537 295.997 191.461 295.35 191.461 294.42Z" fill="#593E2F"/>
<path d="M513.461 157.401V143.896C513.461 142.935 512.479 142.286 511.595 142.664L191.939 279.232C191.445 279.443 191.125 279.928 191.125 280.465V294.301C191.125 295.263 192.109 295.912 192.993 295.533L512.649 158.633C513.142 158.422 513.461 157.937 513.461 157.401Z" fill="#352118"/>
<path d="M509.852 113.924L360.15 61.953C359.838 61.8445 359.496 61.8555 359.191 61.9838L41.1485 195.827C40.0252 196.299 40.0647 197.905 41.2099 198.321L190.292 252.593C190.612 252.709 190.964 252.699 191.277 252.566L509.939 116.422C511.065 115.941 511.009 114.325 509.852 113.924Z" fill="#FAF6EB"/>
<path d="M190.792 267.613V253.713C190.792 253.149 190.439 252.646 189.91 252.453L39.7988 197.808C38.9246 197.489 38 198.137 38 199.067V212.968C38 213.531 38.3524 214.035 38.8818 214.227L188.993 268.873C189.867 269.191 190.792 268.544 190.792 267.613Z" fill="#F4EDD7"/>
<path d="M513.128 130.595V117.091C513.128 116.129 512.145 115.48 511.261 115.858L191.605 252.426C191.111 252.637 190.791 253.122 190.791 253.659V267.495C190.791 268.458 191.775 269.106 192.659 268.728L512.315 131.827C512.808 131.616 513.128 131.131 513.128 130.595Z" fill="#EAE0C2"/>
<path fill-rule="evenodd" clip-rule="evenodd" d="M512.069 115.467C512.214 115.808 512.056 116.202 511.716 116.347L190.81 253.495L39.1092 197.782C38.7618 197.654 38.5836 197.269 38.7112 196.922C38.8388 196.574 39.2238 196.396 39.5713 196.524L190.773 252.053L511.189 115.115C511.53 114.969 511.923 115.127 512.069 115.467Z" fill="white"/>
<path fill-rule="evenodd" clip-rule="evenodd" d="M512.069 170.754C512.214 171.094 512.056 171.488 511.716 171.633L190.81 308.781L39.1092 253.068C38.7618 252.94 38.5836 252.555 38.7112 252.208C38.8388 251.86 39.2238 251.682 39.5713 251.81L190.773 307.339L511.189 170.401C511.53 170.255 511.923 170.413 512.069 170.754Z" fill="white"/>
<path fill-rule="evenodd" clip-rule="evenodd" d="M512.069 223.694C512.214 224.034 512.056 224.428 511.716 224.574L190.81 361.721L39.1092 306.008C38.7618 305.881 38.5836 305.496 38.7112 305.148C38.8388 304.801 39.2238 304.623 39.5713 304.75L190.773 360.28L511.189 223.341C511.53 223.196 511.923 223.354 512.069 223.694Z" fill="white"/>
<path fill-rule="evenodd" clip-rule="evenodd" d="M511.733 142.607C511.879 142.947 511.722 143.341 511.382 143.487L191.613 280.971L40.4478 225.121C40.1007 224.993 39.9232 224.607 40.0515 224.26C40.1797 223.913 40.5652 223.735 40.9123 223.864L191.575 279.528L510.852 142.256C511.192 142.11 511.587 142.267 511.733 142.607Z" fill="#87604D"/>
<path fill-rule="evenodd" clip-rule="evenodd" d="M511.733 197.558C511.879 197.898 511.722 198.292 511.382 198.438L191.613 335.922L40.4478 280.072C40.1007 279.944 39.9232 279.558 40.0515 279.211C40.1797 278.864 40.5652 278.687 40.9123 278.815L191.575 334.48L510.852 197.207C511.192 197.061 511.587 197.218 511.733 197.558Z" fill="#87604D"/>
<path fill-rule="evenodd" clip-rule="evenodd" d="M190.791 252.104C191.161 252.104 191.461 252.404 191.461 252.774V268.187C191.461 268.557 191.161 268.857 190.791 268.857C190.421 268.857 190.121 268.557 190.121 268.187V252.774C190.121 252.404 190.421 252.104 190.791 252.104Z" fill="white"/>
<path fill-rule="evenodd" clip-rule="evenodd" d="M190.791 307.39C191.161 307.39 191.461 307.69 191.461 308.06V323.473C191.461 323.843 191.161 324.143 190.791 324.143C190.421 324.143 190.121 323.843 190.121 323.473V308.06C190.121 307.69 190.421 307.39 190.791 307.39Z" fill="white"/>
<path fill-rule="evenodd" clip-rule="evenodd" d="M190.791 360.331C191.161 360.331 191.461 360.631 191.461 361.001V376.414C191.461 376.784 191.161 377.085 190.791 377.085C190.421 377.085 190.121 376.784 190.121 376.414V361.001C190.121 360.631 190.421 360.331 190.791 360.331Z" fill="white"/>
<path fill-rule="evenodd" clip-rule="evenodd" d="M191.461 279.244C191.831 279.244 192.131 279.544 192.131 279.914V295.327C192.131 295.698 191.831 295.998 191.461 295.998C191.091 295.998 190.791 295.698 190.791 295.327V279.914C190.791 279.544 191.091 279.244 191.461 279.244Z" fill="#87604D"/>
<path fill-rule="evenodd" clip-rule="evenodd" d="M191.461 334.53C191.831 334.53 192.131 334.83 192.131 335.2V350.614C192.131 350.984 191.831 351.284 191.461 351.284C191.091 351.284 190.791 350.984 190.791 350.614V335.2C190.791 334.83 191.091 334.53 191.461 334.53Z" fill="#87604D"/>
<mask id="mask1" mask-type="alpha" maskUnits="userSpaceOnUse" x="40" y="61" width="471" height="192">
<path d="M509.854 113.924L360.152 61.953C359.84 61.8445 359.498 61.8555 359.193 61.9838L41.1505 195.827C40.0272 196.299 40.0667 197.905 41.2119 198.321L190.294 252.593C190.614 252.709 190.966 252.699 191.279 252.566L509.941 116.422C511.067 115.941 511.011 114.325 509.854 113.924Z" fill="#FAF6EB"/>
</mask>
<g mask="url(#mask1)">
<path fill-rule="evenodd" clip-rule="evenodd" d="M71.6801 184.146C72.2013 182.76 73.7471 182.059 75.1327 182.581L226.584 239.542C227.97 240.063 228.67 241.609 228.149 242.995C227.628 244.381 226.082 245.081 224.697 244.56L73.2455 187.598C71.8598 187.077 71.159 185.532 71.6801 184.146Z" fill="#FDE8B1"/>
<path fill-rule="evenodd" clip-rule="evenodd" d="M103.846 169.403C104.367 168.017 105.913 167.316 107.299 167.837L258.75 224.799C260.136 225.32 260.836 226.866 260.315 228.252C259.794 229.637 258.248 230.338 256.863 229.817L105.411 172.855C104.026 172.334 103.325 170.788 103.846 169.403Z" fill="#FDE8B1"/>
<path fill-rule="evenodd" clip-rule="evenodd" d="M137.354 155.329C137.875 153.944 139.421 153.243 140.807 153.764L292.258 210.726C293.643 211.247 294.344 212.793 293.823 214.178C293.302 215.564 291.756 216.265 290.371 215.744L138.919 158.782C137.534 158.261 136.833 156.715 137.354 155.329Z" fill="#FDE8B1"/>
<path fill-rule="evenodd" clip-rule="evenodd" d="M169.522 141.927C170.043 140.541 171.589 139.841 172.975 140.362L324.426 197.324C325.811 197.845 326.512 199.39 325.991 200.776C325.47 202.162 323.924 202.863 322.538 202.341L171.087 145.38C169.702 144.859 169.001 143.313 169.522 141.927Z" fill="#FDE8B1"/>
<path fill-rule="evenodd" clip-rule="evenodd" d="M201.018 128.525C201.539 127.139 203.085 126.438 204.471 126.959L355.922 183.921C357.308 184.442 358.008 185.988 357.487 187.374C356.966 188.759 355.42 189.46 354.035 188.939L202.583 131.977C201.198 131.456 200.497 129.91 201.018 128.525Z" fill="#FDE8B1"/>
<path fill-rule="evenodd" clip-rule="evenodd" d="M235.86 113.785C236.38 112.399 237.924 111.696 239.311 112.215L391.432 169.177C392.819 169.696 393.522 171.241 393.002 172.627C392.483 174.013 390.939 174.716 389.552 174.197L237.431 117.236C236.044 116.716 235.341 115.172 235.86 113.785Z" fill="#FDE8B1"/>
<path fill-rule="evenodd" clip-rule="evenodd" d="M266.005 100.426C266.5 99.031 268.032 98.3015 269.428 98.7968L424.23 153.748C425.625 154.243 426.354 155.776 425.859 157.171C425.364 158.566 423.831 159.296 422.436 158.8L267.634 103.849C266.239 103.354 265.51 101.821 266.005 100.426Z" fill="#FDE8B1"/>
<path fill-rule="evenodd" clip-rule="evenodd" d="M298.843 87.6858C299.342 86.2921 300.877 85.5668 302.27 86.0658L455.732 141.017C457.126 141.516 457.851 143.051 457.352 144.444C456.853 145.838 455.319 146.564 453.925 146.064L300.463 91.1131C299.069 90.614 298.344 89.0796 298.843 87.6858Z" fill="#FDE8B1"/>
<path fill-rule="evenodd" clip-rule="evenodd" d="M333.028 73.5895C333.54 72.2006 335.081 71.49 336.47 72.0023L487.251 127.624C488.64 128.136 489.351 129.677 488.839 131.066C488.326 132.455 486.785 133.166 485.396 132.654L334.615 77.0321C333.226 76.5198 332.515 74.9784 333.028 73.5895Z" fill="#FDE8B1"/>
<path fill-rule="evenodd" clip-rule="evenodd" d="M400.994 71.438C401.584 72.7957 400.962 74.3748 399.604 74.9648L81.9586 213.013C80.6009 213.603 79.0219 212.981 78.4318 211.623C77.8417 210.266 78.464 208.687 79.8218 208.096L397.467 70.048C398.825 69.4579 400.404 70.0803 400.994 71.438Z" fill="#FDE8B1"/>
<path fill-rule="evenodd" clip-rule="evenodd" d="M438.519 84.8335C439.113 86.1896 438.495 87.7704 437.139 88.3642L118.823 227.753C117.467 228.347 115.886 227.729 115.292 226.373C114.698 225.017 115.316 223.436 116.672 222.842L434.988 83.4533C436.344 82.8595 437.925 83.4774 438.519 84.8335Z" fill="#FDE8B1"/>
<path fill-rule="evenodd" clip-rule="evenodd" d="M482.079 99.5767C482.673 100.933 482.055 102.514 480.699 103.107L162.383 242.496C161.027 243.09 159.447 242.472 158.853 241.116C158.259 239.76 158.877 238.179 160.233 237.585L478.549 98.1965C479.905 97.6026 481.486 98.2206 482.079 99.5767Z" fill="#FDE8B1"/>
<path fill-rule="evenodd" clip-rule="evenodd" d="M65.6469 184.146C66.1681 182.76 67.7139 182.059 69.0995 182.581L220.551 239.542C221.936 240.063 222.637 241.609 222.116 242.995C221.595 244.381 220.049 245.081 218.663 244.56L67.2123 187.598C65.8266 187.077 65.1258 185.532 65.6469 184.146Z" fill="white"/>
<path fill-rule="evenodd" clip-rule="evenodd" d="M97.8129 169.403C98.3341 168.017 99.8799 167.316 101.266 167.837L252.717 224.799C254.102 225.32 254.803 226.866 254.282 228.252C253.761 229.637 252.215 230.338 250.829 229.817L99.3783 172.855C97.9926 172.334 97.2918 170.788 97.8129 169.403Z" fill="white"/>
<path fill-rule="evenodd" clip-rule="evenodd" d="M131.321 155.329C131.842 153.944 133.388 153.243 134.773 153.764L286.225 210.726C287.61 211.247 288.311 212.793 287.79 214.178C287.269 215.564 285.723 216.265 284.337 215.744L132.886 158.782C131.5 158.261 130.8 156.715 131.321 155.329Z" fill="white"/>
<path fill-rule="evenodd" clip-rule="evenodd" d="M163.489 141.927C164.01 140.541 165.556 139.841 166.941 140.362L318.393 197.324C319.778 197.845 320.479 199.39 319.958 200.776C319.437 202.162 317.891 202.863 316.505 202.341L165.054 145.38C163.668 144.859 162.968 143.313 163.489 141.927Z" fill="white"/>
<path fill-rule="evenodd" clip-rule="evenodd" d="M194.985 128.525C195.506 127.139 197.052 126.438 198.437 126.959L349.889 183.921C351.274 184.442 351.975 185.988 351.454 187.374C350.933 188.759 349.387 189.46 348.001 188.939L196.55 131.977C195.164 131.456 194.464 129.91 194.985 128.525Z" fill="white"/>
<path fill-rule="evenodd" clip-rule="evenodd" d="M229.827 113.785C230.346 112.399 231.891 111.696 233.278 112.215L385.399 169.177C386.785 169.696 387.488 171.241 386.969 172.627C386.45 174.013 384.905 174.716 383.519 174.197L231.398 117.236C230.011 116.716 229.308 115.172 229.827 113.785Z" fill="white"/>
<path fill-rule="evenodd" clip-rule="evenodd" d="M259.972 100.426C260.467 99.031 261.999 98.3015 263.394 98.7968L418.196 153.748C419.591 154.243 420.321 155.776 419.826 157.171C419.33 158.566 417.798 159.296 416.403 158.8L261.601 103.849C260.206 103.354 259.476 101.821 259.972 100.426Z" fill="white"/>
<path fill-rule="evenodd" clip-rule="evenodd" d="M292.81 87.6858C293.309 86.2921 294.844 85.5668 296.237 86.0658L449.699 141.017C451.093 141.516 451.818 143.051 451.319 144.444C450.82 145.838 449.285 146.564 447.892 146.064L294.43 91.1131C293.036 90.614 292.311 89.0796 292.81 87.6858Z" fill="white"/>
<path fill-rule="evenodd" clip-rule="evenodd" d="M326.995 73.5895C327.507 72.2006 329.048 71.49 330.437 72.0023L481.218 127.624C482.607 128.136 483.318 129.677 482.805 131.066C482.293 132.455 480.752 133.166 479.363 132.654L328.582 77.0321C327.193 76.5198 326.482 74.9784 326.995 73.5895Z" fill="white"/>
<path fill-rule="evenodd" clip-rule="evenodd" d="M394.961 71.438C395.551 72.7957 394.929 74.3748 393.571 74.9648L75.9254 213.013C74.5677 213.603 72.9887 212.981 72.3986 211.623C71.8085 210.266 72.4308 208.687 73.7886 208.096L391.434 70.048C392.792 69.4579 394.371 70.0803 394.961 71.438Z" fill="white"/>
<path fill-rule="evenodd" clip-rule="evenodd" d="M432.486 84.8335C433.079 86.1896 432.461 87.7704 431.105 88.3642L112.79 227.753C111.434 228.347 109.853 227.729 109.259 226.373C108.665 225.017 109.283 223.436 110.639 222.842L428.955 83.4533C430.311 82.8595 431.892 83.4774 432.486 84.8335Z" fill="white"/>
<path fill-rule="evenodd" clip-rule="evenodd" d="M476.046 99.5767C476.64 100.933 476.022 102.514 474.666 103.107L156.35 242.496C154.994 243.09 153.413 242.472 152.82 241.116C152.226 239.76 152.844 238.179 154.2 237.585L472.515 98.1965C473.872 97.6026 475.452 98.2206 476.046 99.5767Z" fill="white"/>
</g>
<path d="M196.464 129.289L211.902 120.884C212.071 120.792 212.246 120.713 212.426 120.646L274.066 97.7758C295.941 89.6599 316.843 79.1336 336.388 66.3914L373.521 42.1819C374.653 41.444 376.08 41.3239 377.319 41.8623L536.429 110.984C537.898 111.622 538.848 113.07 538.848 114.672V235.964C538.848 237.438 538.065 238.781 536.768 239.481C502.236 258.117 432.516 292.945 413.867 291.632C390.077 289.956 374.664 169.331 355.565 170.002C336.466 170.672 338.141 166.316 302.624 150.903C278.858 140.589 230.305 137.527 198.456 137.128C194.247 137.075 192.767 131.302 196.464 129.289Z" fill="#DCCEA9"/>
<path d="M198.164 159.96L200.845 158.62L203.86 159.96L200.845 161.301L198.164 159.96Z" fill="#F7B658"/>
<path d="M133.83 187.838L136.511 186.632L139.526 187.972L136.511 189.312L133.83 187.838Z" fill="#F7B658"/>
<path d="M100.725 202.245L103.405 201.039L106.421 202.379L103.405 203.72L100.725 202.245Z" fill="#F7B658"/>
<path d="M166.666 173.577L169.347 172.357L172.697 173.698L169.682 174.904L166.666 173.577Z" fill="#F7B658"/>
<path d="M229.66 146.222L232.341 144.882L235.356 146.222L232.341 147.562L229.66 146.222Z" fill="#F7B658"/>
<path d="M263.838 131.479L266.518 130.139L269.534 131.479L266.518 132.819L263.838 131.479Z" fill="#F7B658"/>
<path d="M326.16 104.271L328.506 103.132L331.715 104.472L329.176 105.571L326.16 104.271Z" fill="#F7B658"/>
<path d="M295.064 117.808L297.745 116.468L301.029 117.808L298.013 119.081L295.064 117.808Z" fill="#F7B658"/>
<path d="M196.882 127.289L212.32 118.884C212.489 118.792 212.664 118.713 212.844 118.646L274.484 95.7758C296.359 87.6599 317.261 77.1336 336.806 64.3914L373.939 40.1819C375.071 39.444 376.498 39.3239 377.737 39.8623L536.847 108.984C538.316 109.622 539.266 111.07 539.266 112.672V233.964C539.266 235.438 538.483 236.781 537.186 237.481C502.654 256.117 432.934 290.945 414.285 289.632C390.495 287.956 375.082 167.331 355.983 168.002C336.884 168.672 338.559 164.316 303.042 148.903C279.275 138.589 230.723 135.527 198.874 135.128C194.665 135.075 193.185 129.302 196.882 127.289Z" fill="#FFFDF8"/>
<g filter="url(#filter0_f)">
<path fill-rule="evenodd" clip-rule="evenodd" d="M530.906 111.725C533.304 111.921 535.088 114.024 534.892 116.422C533.655 131.509 533.783 147.371 534.133 162.105C534.211 165.378 534.3 168.605 534.388 171.759C534.69 182.684 534.968 192.732 534.66 200.746C534.462 205.904 534.016 210.527 533.075 214.155C532.213 217.484 530.572 221.442 526.818 223.059C522.817 224.783 518.77 222.929 515.552 220.562C512.133 218.046 508.218 213.931 503.688 208.243C484.681 184.377 472.223 171.81 464.58 165.721C459.913 162.002 453.402 163.085 445.13 166.201C432.111 171.104 416.173 176.358 402.87 179.025C396.262 180.35 389.999 181.101 384.965 180.72C380.294 180.365 374.703 178.847 372.686 173.581C371.363 170.126 369.935 168.242 368.546 167.098C367.162 165.959 365.461 165.26 363.041 164.776C361.098 164.387 359 164.185 356.428 163.937C355.613 163.859 354.75 163.776 353.83 163.68C350.143 163.299 345.887 162.748 341.129 161.491C331.781 159.022 323.815 155.244 317.071 151.55C314.064 149.903 311.271 148.256 308.734 146.759C308.435 146.583 308.14 146.409 307.848 146.237C305.042 144.584 302.612 143.172 300.42 142.077C300.04 141.887 298.805 141.483 296.378 140.965C294.104 140.48 291.156 139.967 287.665 139.438C280.692 138.382 271.751 137.293 262.101 136.245C242.811 134.152 220.86 132.246 206.536 131.131C204.137 130.944 202.344 128.849 202.531 126.45C202.718 124.052 204.813 122.259 207.212 122.446C221.592 123.565 243.636 125.478 263.041 127.584C272.738 128.637 281.819 129.742 288.97 130.825C292.541 131.366 295.68 131.908 298.197 132.445C300.561 132.95 302.82 133.536 304.316 134.285C306.816 135.534 309.495 137.096 312.27 138.731C312.564 138.904 312.86 139.079 313.158 139.254C315.705 140.757 318.378 142.333 321.256 143.91C327.664 147.42 334.943 150.846 343.354 153.068C347.476 154.157 351.22 154.652 354.726 155.015C355.462 155.091 356.206 155.162 356.953 155.234C359.628 155.49 362.33 155.749 364.75 156.233C367.984 156.88 371.204 158.003 374.082 160.372C376.955 162.736 379.129 166.045 380.822 170.465C380.861 170.567 381.419 171.714 385.624 172.033C389.465 172.324 394.805 171.757 401.158 170.483C413.779 167.953 429.207 162.889 442.06 158.048C450.001 155.057 461.127 151.83 470.009 158.907C478.422 165.61 491.362 178.782 510.503 202.816C514.886 208.32 518.232 211.718 520.714 213.544C522.254 214.677 523.074 214.934 523.394 214.99C523.59 214.755 524.115 214.005 524.642 211.97C525.342 209.27 525.763 205.402 525.955 200.412C526.25 192.714 525.984 183.075 525.684 172.218C525.596 169.016 525.505 165.708 525.424 162.312C525.073 147.528 524.933 131.282 526.209 115.71C526.406 113.313 528.509 111.528 530.906 111.725ZM523.556 215.004C523.556 215.004 523.551 215.005 523.542 215.005C523.551 215.004 523.556 215.004 523.556 215.004Z" fill="white"/>
</g>
<path d="M357.322 168.337C357.344 168.287 357.368 168.241 357.394 168.197C358.113 166.84 359.885 164.723 364.359 169.677C373.741 180.064 398.537 270.532 412.61 282.595C417.295 286.611 425.008 287.286 429.028 286.28C418.306 289.631 404.769 302.766 386.81 238.701C369.105 175.544 359.17 165.162 357.394 168.197C357.369 168.245 357.345 168.291 357.322 168.337Z" fill="#FFEBBA"/>
<path d="M139.077 180.518C131.9 180.113 126.591 170.756 127.22 159.618C127.848 148.48 134.176 139.779 141.353 140.184C148.53 140.589 153.838 149.946 153.21 161.084C152.581 172.222 146.254 180.923 139.077 180.518Z" fill="white"/>
<path d="M136.921 141.101C141.089 144.233 145.014 151.697 144.525 160.36C144.036 169.024 139.571 176.634 135.076 179.278C129.988 176.807 126.709 168.046 127.198 159.383C127.687 150.719 130.982 143.663 136.921 141.101Z" fill="#231F20"/>
<path d="M179.895 192.684C172.718 192.279 167.41 182.922 168.038 171.783C168.666 160.645 174.994 151.944 182.171 152.349C189.348 152.754 194.657 162.111 194.028 173.25C193.4 184.388 187.072 193.089 179.895 192.684Z" fill="white"/>
<path d="M177.745 153.268C181.914 156.4 185.838 163.864 185.349 172.527C184.86 181.191 180.395 188.801 175.901 191.445C170.813 188.974 167.534 180.213 168.022 171.55C168.511 162.886 171.806 155.83 177.745 153.268Z" fill="#231F20"/>
<path d="M172.116 231.191C173.274 230.77 179.478 244.243 179.898 245.401C183.579 251.928 187.681 259.612 193.574 261.403C196.31 261.72 197.888 262.457 200.204 261.616C219.57 257.203 209.057 228.258 204.851 216.68C204.851 216.68 202.749 210.891 203.169 212.049C204.747 212.786 173.274 230.77 172.116 231.191Z" fill="#FF845D"/>
<path fill-rule="evenodd" clip-rule="evenodd" d="M185.463 221.861C186.956 221.144 188.748 221.772 189.466 223.266L186.762 224.565L184.058 225.865C183.341 224.372 183.969 222.579 185.463 221.861ZM186.762 224.565C184.058 225.865 184.058 225.865 184.058 225.865L184.52 226.825C184.814 227.437 185.234 228.313 185.74 229.368C186.752 231.477 188.105 234.301 189.471 237.161C190.837 240.021 192.215 242.914 193.277 245.163C193.808 246.288 194.258 247.246 194.586 247.957C194.891 248.615 195.038 248.948 195.078 249.037C195.086 249.056 195.09 249.064 195.089 249.062C195.655 250.62 197.376 251.424 198.933 250.858C200.49 250.292 201.294 248.571 200.729 247.014C200.561 246.553 199.714 244.743 198.703 242.601C197.635 240.34 196.252 237.437 194.885 234.574C193.517 231.711 192.162 228.884 191.15 226.773C190.643 225.717 190.223 224.84 189.928 224.228L189.467 223.267C189.466 223.266 189.466 223.266 186.762 224.565Z" fill="#231F20"/>
<path fill-rule="evenodd" clip-rule="evenodd" d="M131.319 190.613C132.966 190.43 134.45 191.617 134.633 193.263C135.522 201.259 140.608 219.29 160.362 225.727C169.766 228.792 179.657 225.362 188.493 219.202C197.285 213.074 204.439 204.63 208.006 198.948C208.887 197.545 210.738 197.122 212.142 198.002C213.545 198.883 213.968 200.735 213.088 202.138C209.149 208.413 201.458 217.478 191.925 224.124C182.436 230.739 170.523 235.349 158.503 231.432C135.41 223.906 129.661 202.84 128.67 193.927C128.486 192.28 129.673 190.797 131.319 190.613Z" fill="black"/>
<path d="M352.245 120.13C352.11 118.953 350.35 118.19 348.314 118.424C346.279 118.658 344.739 119.802 344.874 120.978C345.009 122.155 346.769 122.919 348.805 122.684C350.84 122.45 352.381 121.306 352.245 120.13Z" fill="#593E2F"/>
<path d="M408.076 141.961C408.279 140.175 405.065 138.342 400.896 137.869C396.728 137.395 393.184 138.459 392.981 140.246C392.778 142.032 395.993 143.864 400.161 144.338C404.33 144.812 407.873 143.748 408.076 141.961Z" fill="#593E2F"/>
<path d="M323.802 98.5497C323.896 97.3547 323.003 96.31 321.808 96.2163C320.613 96.1226 319.568 97.0153 319.474 98.2103C319.381 99.4053 320.273 100.45 321.468 100.544C322.663 100.637 323.708 99.7447 323.802 98.5497Z" fill="#593E2F"/>
<path d="M374.296 144.574C374.389 143.379 373.012 142.296 371.22 142.156C369.427 142.015 367.898 142.87 367.804 144.065C367.711 145.26 369.088 146.342 370.88 146.483C372.673 146.624 374.202 145.769 374.296 144.574Z" fill="#593E2F"/>
<path d="M372.03 84.4108C372.124 83.2158 370.747 82.1331 368.954 81.9925C367.162 81.852 365.633 82.7067 365.539 83.9017C365.445 85.0967 366.822 86.1794 368.615 86.32C370.407 86.4606 371.936 85.6058 372.03 84.4108Z" fill="#593E2F"/>
<path d="M415.303 176.843C415.397 175.648 414.02 174.566 412.228 174.425C410.435 174.285 408.906 175.139 408.812 176.334C408.719 177.529 410.096 178.612 411.888 178.753C413.681 178.893 415.21 178.038 415.303 176.843Z" fill="#593E2F"/>
<path d="M401.071 214.441C401.165 213.246 399.788 212.163 397.995 212.023C396.203 211.882 394.674 212.737 394.58 213.932C394.486 215.127 395.863 216.21 397.656 216.35C399.448 216.491 400.977 215.636 401.071 214.441Z" fill="#593E2F"/>
<path d="M268.69 115.914C268.77 114.893 267.594 113.968 266.063 113.848C264.531 113.728 263.225 114.458 263.145 115.479C263.065 116.5 264.241 117.425 265.773 117.545C267.304 117.665 268.61 116.935 268.69 115.914Z" fill="#593E2F"/>
</g>
<defs>
<filter id="filter0_f" x="199.837" y="109.029" width="337.75" height="117.385" filterUnits="userSpaceOnUse" color-interpolation-filters="sRGB">
<feFlood flood-opacity="0" result="BackgroundImageFix"/>
<feBlend mode="normal" in="SourceGraphic" in2="BackgroundImageFix" result="shape"/>
<feGaussianBlur stdDeviation="1.34028" result="effect1_foregroundBlur"/>
</filter>
</defs>
</svg>
