<svg width="430" height="430" viewBox="0 0 430 430" fill="none" xmlns="http://www.w3.org/2000/svg">
<path d="M430 215C430 333.741 333.741 430 215 430C96.2588 430 0 333.741 0 215C0 96.2588 96.2588 0 215 0C333.741 0 430 96.2588 430 215Z" fill="#9971FF"/>
<path d="M148.464 109.69C139.993 122.475 143.246 140.836 155.582 149.865L184.691 171.171C193.238 177.427 197.511 180.555 201.997 179.7C206.482 178.845 209.305 174.364 214.951 165.403L234.182 134.883C242.331 121.95 238.601 103.679 226.021 94.9063C213.925 86.4704 198.307 90.114 191.139 103.044C189.679 105.678 186.221 106.337 183.895 104.425C172.472 95.0385 156.609 97.3955 148.464 109.69Z" fill="#FD476D"/>
<path fill-rule="evenodd" clip-rule="evenodd" d="M310.448 209.546C316.838 206.641 331.361 204.666 338.332 220.002C345.303 220.002 359.942 223.836 362.73 239.172C369.701 240.334 383.295 247.538 381.9 267.056C380.158 291.455 355.759 354.193 251.195 376.849C146.63 399.505 78.6632 352.451 75.1777 284.484C71.6922 216.517 120.489 172.948 132.688 164.234C144.887 155.521 158.829 153.778 167.542 159.006C176.256 164.234 183.227 185.147 167.542 204.318C151.858 223.488 125.717 277.513 146.629 289.712C157.732 296.189 174.73 292.841 192.145 283.059C190.652 268.469 193.517 245.167 212.854 226.968C230.674 210.196 248.954 204.852 260.879 203.973C266.302 191.449 267.795 180.546 266.879 167.716C265.485 148.197 260.197 141.331 242.48 120.662C232.024 108.462 235.509 92.7777 252.937 89.2917C284.307 83.0167 334.846 129.374 310.448 209.546Z" fill="#FF845E"/>
<path fill-rule="evenodd" clip-rule="evenodd" d="M261.893 198.871C262.973 199.102 263.661 200.166 263.429 201.246C259.134 221.289 246.357 239.333 232.318 253.68C218.261 268.045 202.769 278.877 192.74 284.481C191.775 285.02 190.557 284.675 190.018 283.711C189.479 282.747 189.824 281.528 190.788 280.99C200.51 275.557 215.69 264.953 229.459 250.882C243.246 236.793 255.448 219.402 259.518 200.408C259.75 199.327 260.813 198.64 261.893 198.871Z" fill="black"/>
<path fill-rule="evenodd" clip-rule="evenodd" d="M312.708 209.464C313.556 210.171 313.671 211.432 312.964 212.28L295.536 233.193C294.829 234.042 293.568 234.157 292.72 233.449C291.871 232.742 291.756 231.481 292.464 230.633L309.891 209.72C310.598 208.871 311.859 208.756 312.708 209.464Z" fill="black"/>
<path fill-rule="evenodd" clip-rule="evenodd" d="M340.107 220.85C341.159 221.185 341.741 222.31 341.405 223.363L333.162 249.216C332.826 250.268 331.701 250.849 330.649 250.514C329.597 250.178 329.015 249.053 329.351 248.001L337.594 222.148C337.93 221.095 339.055 220.514 340.107 220.85Z" fill="black"/>
<path fill-rule="evenodd" clip-rule="evenodd" d="M362.586 238.96C363.662 239.208 364.334 240.281 364.086 241.357L359.272 262.271C359.024 263.347 357.951 264.019 356.874 263.771C355.798 263.523 355.126 262.45 355.374 261.373L360.188 240.46C360.436 239.384 361.509 238.712 362.586 238.96Z" fill="black"/>
<path fill-rule="evenodd" clip-rule="evenodd" d="M181.644 51.3033C182.46 51.4456 183.007 52.2225 182.865 53.0386C182.193 56.8941 181.117 62.8214 180.075 68.0757C179.554 70.7016 179.039 73.17 178.585 75.1314C178.358 76.1113 178.144 76.9761 177.949 77.6761C177.764 78.346 177.572 78.9564 177.378 79.3692C177.026 80.1191 176.133 80.4418 175.383 80.0898C174.633 79.7379 174.31 78.8446 174.662 78.0947C174.737 77.9349 174.872 77.5455 175.059 76.8738C175.237 76.2324 175.44 75.4141 175.662 74.455C176.106 72.5384 176.614 70.1052 177.132 67.4917C178.169 62.2672 179.24 56.3641 179.909 52.5236C180.051 51.7074 180.828 51.1611 181.644 51.3033ZM155.176 48.7786C155.984 48.596 156.787 49.103 156.969 49.9111L164.52 83.3213C164.702 84.1293 164.195 84.9324 163.387 85.115C162.579 85.2976 161.776 84.7906 161.594 83.9826L154.043 50.5724C153.861 49.7643 154.368 48.9612 155.176 48.7786ZM143.647 90.9378C143.228 91.6524 142.309 91.892 141.594 91.473L113.242 74.8486C112.527 74.4296 112.287 73.5106 112.706 72.796C113.125 72.0813 114.044 71.8417 114.759 72.2607L143.112 88.8851C143.826 89.3041 144.066 90.2231 143.647 90.9378Z" fill="#FFCF52"/>
</svg>
