<svg width="430" height="430" viewBox="0 0 430 430" fill="none" xmlns="http://www.w3.org/2000/svg">
<path d="M430 215C430 333.741 333.741 430 215 430C96.2588 430 0 333.741 0 215C0 96.2588 96.2588 0 215 0C333.741 0 430 96.2588 430 215Z" fill="#449AFF"/>
<mask id="mask0" mask-type="alpha" maskUnits="userSpaceOnUse" x="0" y="0" width="430" height="430">
<path d="M430 215C430 333.741 333.741 430 215 430C96.2588 430 0 333.741 0 215C0 96.2588 96.2588 0 215 0C333.741 0 430 96.2588 430 215Z" fill="#449AFF"/>
</mask>
<g mask="url(#mask0)">
<path fill-rule="evenodd" clip-rule="evenodd" d="M141.306 86.8068C140.738 86.2038 139.788 86.1754 139.185 86.7435L140.214 87.8353C139.185 86.7435 139.185 86.7438 139.185 86.7442L139.18 86.7483L139.169 86.7587L139.131 86.7956C139.097 86.8275 139.05 86.8735 138.988 86.9334C138.865 87.0532 138.688 87.2281 138.465 87.4545C138.018 87.9071 137.386 88.5658 136.634 89.3998C135.132 91.0658 133.143 93.4416 131.199 96.2798C127.358 101.889 123.489 109.596 124.31 117.294C124.397 118.118 125.136 118.715 125.96 118.627C126.784 118.539 127.381 117.8 127.293 116.976C126.591 110.387 129.928 103.444 133.674 97.975C135.524 95.2742 137.424 93.0039 138.862 91.4086C139.58 90.612 140.181 89.9863 140.6 89.5621C140.809 89.35 140.973 89.1885 141.083 89.0814C141.138 89.0278 141.179 88.9878 141.206 88.962L141.236 88.9338L141.242 88.9278C141.242 88.9276 141.243 88.9269 141.243 88.9268M141.306 86.8068C141.874 87.4096 141.846 88.3587 141.243 88.9268L141.306 86.8068Z" fill="#231F20"/>
<path fill-rule="evenodd" clip-rule="evenodd" d="M133.045 81.1751C132.589 80.4832 131.659 80.2916 130.967 80.7472L131.792 82C130.967 80.7472 130.968 80.747 130.967 80.7472L130.964 80.7496L130.958 80.7537L130.938 80.7666C130.922 80.7774 130.9 80.7925 130.871 80.812C130.814 80.8508 130.733 80.907 130.629 80.9801C130.422 81.1264 130.126 81.3409 129.758 81.622C129.021 82.1841 127.994 83.0141 126.81 84.0991C124.445 86.2654 121.434 89.4689 118.871 93.6094C118.435 94.3138 118.653 95.2383 119.357 95.6743C120.062 96.1103 120.986 95.8927 121.422 95.1883C123.802 91.3436 126.614 88.3477 128.836 86.3109C129.946 85.2944 130.903 84.5218 131.578 84.0068C131.915 83.7494 132.181 83.5568 132.36 83.4304C132.449 83.3673 132.517 83.3208 132.56 83.2911L132.608 83.2592L132.617 83.2528C132.617 83.2527 132.617 83.253 132.617 83.2528M133.045 81.1751C133.501 81.8668 133.309 82.7971 132.617 83.2528L133.045 81.1751Z" fill="#231F20"/>
<path fill-rule="evenodd" clip-rule="evenodd" d="M403.449 370.553C404.125 371.907 404.623 373.318 404.935 374.785C410.517 401.046 354.263 435.254 279.289 451.19C204.315 467.126 139.011 458.756 133.429 432.495C132.798 429.527 132.957 426.457 133.844 423.324C134.974 398.203 138.044 329.188 138.342 314.604C138.473 308.203 137.729 302.473 136.978 296.692C135.629 286.298 134.257 275.74 137.913 260.824C138.683 257.679 139.467 254.532 140.246 251.405C145.216 231.452 149.973 212.351 149.702 200.273C149.376 193.584 150.858 180.088 152.381 166.22C154.021 151.287 155.709 135.921 155.238 128.154C154.777 120.55 159.253 110.431 163.574 100.665C167.766 91.1883 171.812 82.0437 171.056 75.8519C169.522 63.2793 197.385 62.2887 203.43 74.6614C206.869 81.703 218.009 97.7983 228.299 112.666C236.09 123.923 243.394 134.476 246.501 139.864C247.955 142.385 250.202 146.389 252.914 151.22C263.649 170.346 281.661 202.434 286.536 206.85C292.281 212.457 382.805 325.997 385.646 332.222C388.288 338.012 401.601 366.588 403.449 370.553Z" fill="#FFBC58"/>
<path fill-rule="evenodd" clip-rule="evenodd" d="M399.374 372.519L399.348 372.464C397.507 368.513 384.182 339.911 381.53 334.1C381.537 334.116 381.526 334.099 381.491 334.043C381.389 333.88 381.081 333.389 380.418 332.44C379.635 331.318 378.544 329.818 377.176 327.976C374.443 324.299 370.672 319.358 366.19 313.562C357.231 301.976 345.482 287.042 333.636 272.117C321.791 257.194 309.858 242.293 300.53 230.777C295.866 225.018 291.86 220.114 288.846 216.48C285.808 212.817 283.97 210.684 283.415 210.126C282.464 209.244 281.452 207.972 280.483 206.65C279.431 205.215 278.232 203.444 276.937 201.442C274.344 197.435 271.262 192.349 268.023 186.846C261.546 175.842 254.341 163.006 248.979 153.454L248.969 153.435C246.25 148.592 244.019 144.617 242.581 142.124C239.594 136.943 232.439 126.598 224.579 115.241L224.564 115.22C219.43 107.801 214.053 100.033 209.529 93.2358C205.055 86.5131 201.238 80.4827 199.364 76.6473C198.478 74.8321 196.629 73.202 193.847 72.0281C191.083 70.8621 187.748 70.3082 184.565 70.4235C181.325 70.5408 178.705 71.3302 177.134 72.3814C175.758 73.3032 175.411 74.1882 175.547 75.3039C176.055 79.4613 174.939 84.1087 173.455 88.481C171.949 92.9177 169.822 97.7257 167.763 102.379L167.711 102.496C165.533 107.421 163.421 112.203 161.895 116.679C160.351 121.213 159.577 124.97 159.754 127.88C160.248 136.035 158.536 151.619 156.939 166.158L156.878 166.714C155.33 180.81 153.917 193.822 154.221 200.053L154.224 200.112L154.225 200.172C154.372 206.739 153.163 214.944 151.374 223.784C149.577 232.662 147.125 242.506 144.652 252.435L144.636 252.499C143.857 255.627 143.075 258.766 142.307 261.9C138.863 275.954 140.127 285.806 141.465 296.109L141.48 296.229C142.222 301.942 143.003 307.956 142.865 314.696C142.565 329.353 139.491 398.453 138.364 423.527L138.34 424.051L138.198 424.556C137.487 427.066 137.394 429.386 137.855 431.555C138.858 436.276 142.669 440.823 150.13 444.728C157.557 448.616 168.006 451.525 180.912 453.179C206.681 456.482 241.224 454.656 278.348 446.764C315.473 438.873 347.772 426.492 369.97 412.994C381.088 406.233 389.45 399.326 394.654 392.753C399.881 386.151 401.513 380.447 400.51 375.726C400.28 374.644 399.911 373.595 399.401 372.573L399.374 372.519ZM286.536 206.85C292.281 212.457 382.805 325.997 385.646 332.222C388.288 338.012 401.601 366.588 403.449 370.553C404.125 371.907 404.623 373.318 404.935 374.785C410.517 401.046 354.263 435.254 279.289 451.19C204.315 467.126 139.011 458.756 133.429 432.495C132.798 429.527 132.957 426.457 133.844 423.324C134.974 398.203 138.044 329.188 138.342 314.604C138.473 308.203 137.729 302.473 136.978 296.692C135.629 286.298 134.257 275.74 137.913 260.824C138.683 257.679 139.467 254.532 140.246 251.405C145.216 231.452 149.973 212.351 149.702 200.273C149.376 193.584 150.858 180.088 152.381 166.22L152.381 166.219C154.021 151.287 155.709 135.921 155.238 128.154C154.777 120.55 159.253 110.431 163.574 100.665C167.766 91.1883 171.812 82.0437 171.056 75.8519C169.522 63.2793 197.385 62.2887 203.43 74.6614C206.869 81.703 218.009 97.7983 228.299 112.666L228.3 112.667C236.09 123.923 243.394 134.476 246.501 139.864C247.955 142.385 250.202 146.389 252.914 151.22L252.914 151.221C263.649 170.346 281.661 202.434 286.536 206.85Z" fill="#FFA71A"/>
<path d="M176.184 306.953C177.842 306.215 178.588 304.272 177.85 302.614C177.111 300.956 175.169 300.21 173.51 300.948C171.852 301.687 171.106 303.629 171.845 305.288C172.583 306.946 174.526 307.692 176.184 306.953Z" fill="#FFA719"/>
<path d="M181.598 185.544C183.256 184.806 184.002 182.863 183.264 181.205C182.525 179.547 180.583 178.801 178.924 179.539C177.266 180.277 176.52 182.22 177.259 183.878C177.997 185.537 179.94 186.282 181.598 185.544Z" fill="#FFA719"/>
<path d="M215.398 215.089C219.251 213.373 220.984 208.858 219.269 205.005C217.553 201.151 213.038 199.418 209.185 201.134C205.331 202.849 203.598 207.364 205.314 211.218C207.029 215.071 211.544 216.804 215.398 215.089Z" fill="#FFA719"/>
<path d="M185.024 120.062C186.682 119.323 187.428 117.381 186.689 115.722C185.951 114.064 184.008 113.318 182.35 114.057C180.692 114.795 179.946 116.738 180.684 118.396C181.423 120.054 183.366 120.8 185.024 120.062Z" fill="#FFA719"/>
<path d="M231.645 159.874C233.303 159.136 234.049 157.193 233.311 155.535C232.572 153.877 230.629 153.131 228.971 153.869C227.313 154.608 226.567 156.55 227.306 158.209C228.044 159.867 229.987 160.613 231.645 159.874Z" fill="#FFA719"/>
<path d="M240.533 326.809C242.192 326.071 242.937 324.128 242.199 322.47C241.461 320.811 239.518 320.066 237.86 320.804C236.202 321.542 235.456 323.485 236.194 325.143C236.933 326.801 238.875 327.547 240.533 326.809Z" fill="#FFA719"/>
<path d="M189.561 386.21C191.219 385.472 191.965 383.529 191.227 381.871C190.488 380.213 188.545 379.467 186.887 380.205C185.229 380.943 184.483 382.886 185.222 384.544C185.96 386.203 187.903 386.948 189.561 386.21Z" fill="#FFA719"/>
<path d="M268.174 437.396C271.417 435.952 272.875 432.152 271.432 428.909C269.988 425.666 266.188 424.207 262.945 425.651C259.701 427.095 258.243 430.895 259.687 434.138C261.131 437.381 264.93 438.84 268.174 437.396Z" fill="#FFA719"/>
<path d="M301.647 317.414C305.18 315.841 306.768 311.702 305.195 308.169C303.623 304.637 299.484 303.048 295.951 304.621C292.418 306.194 290.83 310.333 292.403 313.865C293.975 317.398 298.114 318.987 301.647 317.414Z" fill="#FFA719"/>
<path d="M184.988 90.2488C190.252 99.0679 201.98 113.509 209.025 124.455L218.824 145C220.337 147.8 237.5 163.638 240.324 169C251.506 190.227 262.212 230.517 262.212 230.517C262.212 230.517 342.341 335.105 345.324 342C348.234 348.726 367.388 417.182 368.231 419.061C393.165 404.683 408.015 388.545 405.084 374.753C405.084 374.753 387.908 338.57 385.068 332.345C382.227 326.12 291.703 212.58 285.958 206.972C281.083 202.557 263.071 170.469 252.336 151.344C249.624 146.512 247.377 142.508 245.923 139.987C242.816 134.599 235.512 124.046 227.721 112.789C217.431 97.921 206.292 81.8256 202.852 74.7841C196.807 62.4114 168.944 63.402 170.478 75.9747C171.117 81.2109 184.988 90.2488 184.988 90.2488Z" fill="#FF9900" fill-opacity="0.4"/>
<path d="M368.016 419.185L367.538 419.287C367.549 419.338 367.559 419.389 367.57 419.441C367.719 419.356 367.868 419.27 368.016 419.185Z" fill="#FF9900" fill-opacity="0.4"/>
<path fill-rule="evenodd" clip-rule="evenodd" d="M383.219 330.16C384.346 330.699 384.823 332.05 384.284 333.177C380.836 340.385 373.12 347.597 362.21 354.464C351.236 361.371 336.768 368.092 319.441 374.207C304.996 379.305 291.194 382.987 278.743 384.989C277.51 385.188 276.349 384.349 276.15 383.115C275.952 381.882 276.791 380.721 278.025 380.522C290.151 378.573 303.685 374.969 317.935 369.941C335.053 363.899 349.193 357.311 359.8 350.635C370.471 343.919 377.31 337.272 380.202 331.225C380.741 330.098 382.092 329.621 383.219 330.16Z" fill="#FFA71A"/>
<path fill-rule="evenodd" clip-rule="evenodd" d="M322.955 256.442C324.003 257.122 324.301 258.523 323.621 259.571C319.242 266.314 309.204 273.109 295.923 279.169C282.519 285.286 265.41 290.831 246.405 294.871C245.183 295.131 243.982 294.351 243.722 293.129C243.463 291.907 244.243 290.705 245.465 290.446C264.209 286.461 280.994 281.009 294.045 275.053C307.221 269.041 316.202 262.688 319.826 257.107C320.507 256.059 321.908 255.761 322.955 256.442Z" fill="#FFA71A"/>
<path fill-rule="evenodd" clip-rule="evenodd" d="M138.604 348.512C139.489 347.63 140.921 347.633 141.803 348.518C142.488 349.205 143.955 350.129 146.401 351.116C148.791 352.08 151.932 353.032 155.776 353.876C163.461 355.561 173.824 356.781 186.35 356.836C211.394 356.946 244.971 352.399 282.9 337.735C284.065 337.285 285.375 337.864 285.826 339.03C286.276 340.195 285.697 341.505 284.532 341.955C246.061 356.828 211.923 361.472 186.33 361.36C173.538 361.304 162.852 360.059 154.807 358.295C150.787 357.413 147.392 356.394 144.709 355.311C142.081 354.251 139.934 353.052 138.599 351.712C137.717 350.827 137.719 349.394 138.604 348.512Z" fill="#FFA71A"/>
<path fill-rule="evenodd" clip-rule="evenodd" d="M261.089 167.208C261.842 168.205 261.644 169.623 260.647 170.376C255.41 174.333 248.493 177.161 239.986 179.643C231.487 182.122 221.185 184.311 209.076 186.885L209.001 186.901C207.779 187.161 206.578 186.381 206.318 185.159C206.058 183.937 206.838 182.736 208.06 182.476C220.258 179.883 230.399 177.726 238.719 175.299C247.049 172.87 253.34 170.226 257.921 166.766C258.917 166.013 260.336 166.211 261.089 167.208Z" fill="#FFA71A"/>
<path d="M244.647 257.057C251.908 255.514 255.848 245.106 253.447 233.811C251.046 222.516 243.213 214.61 235.952 216.154C228.691 217.697 224.751 228.105 227.152 239.4C229.553 250.695 237.385 258.601 244.647 257.057Z" fill="white"/>
<path d="M241.31 216.328C237.548 220.182 234.718 228.417 236.582 237.182C238.445 245.947 244.38 252.32 249.383 254.31C253.145 250.457 255.975 242.221 254.112 233.456C252.249 224.691 246.314 218.318 241.31 216.328Z" fill="#231F20"/>
<path d="M202.273 266.067C209.535 264.523 213.475 254.116 211.074 242.821C208.673 231.525 200.84 223.62 193.579 225.163C186.318 226.707 182.378 237.115 184.779 248.41C187.18 259.705 195.012 267.61 202.273 266.067Z" fill="white"/>
<path d="M199.017 225.321C195.255 229.174 192.426 237.409 194.289 246.175C196.152 254.94 202.087 261.312 207.09 263.302C210.852 259.449 213.682 251.213 211.819 242.448C209.956 233.683 204.021 227.311 199.017 225.321Z" fill="#231F20"/>
<path fill-rule="evenodd" clip-rule="evenodd" d="M167.613 232.204C167.27 230.59 168.3 229.004 169.914 228.661L196.209 223.072C197.823 222.729 199.409 223.759 199.752 225.373C200.095 226.986 199.065 228.572 197.451 228.915L171.156 234.505C169.542 234.848 167.956 233.818 167.613 232.204Z" fill="#231F20"/>
<path fill-rule="evenodd" clip-rule="evenodd" d="M209.955 223.203C209.612 221.589 210.642 220.003 212.256 219.66L238.551 214.071C240.164 213.728 241.751 214.758 242.093 216.372C242.436 217.985 241.406 219.571 239.793 219.914L213.498 225.504C211.884 225.847 210.298 224.817 209.955 223.203Z" fill="#231F20"/>
<path fill-rule="evenodd" clip-rule="evenodd" d="M175.988 293.23C175.622 291.512 176.634 289.84 178.248 289.497L255.672 273.04C257.286 272.697 258.89 273.812 259.256 275.531C259.621 277.25 258.609 278.921 256.995 279.264L179.571 295.721C177.957 296.064 176.353 294.949 175.988 293.23Z" fill="black"/>
<path fill-rule="evenodd" clip-rule="evenodd" d="M265.96 264.385C265.96 264.385 265.96 264.385 265.96 264.385L265.96 264.384C265.96 264.384 265.96 264.384 265.96 264.385ZM265.963 264.381C265.963 264.382 265.963 264.382 265.962 264.382L265.964 264.381C265.964 264.381 265.964 264.381 265.963 264.381C265.963 264.381 265.963 264.381 265.963 264.381C265.963 264.381 265.963 264.381 265.963 264.381C265.963 264.381 265.963 264.381 265.963 264.381Z" fill="black"/>
<path fill-rule="evenodd" clip-rule="evenodd" d="M182.648 106.808C183.96 108.146 183.939 110.294 182.602 111.607C180.103 114.058 178.176 117.711 176.755 122.105C175.345 126.465 174.51 131.31 174.035 135.893C173.562 140.464 173.457 144.688 173.47 147.774C173.477 149.314 173.513 150.563 173.547 151.421C173.565 151.85 173.581 152.18 173.593 152.401C173.599 152.511 173.604 152.593 173.607 152.646L173.611 152.703L173.612 152.715C173.612 152.715 173.612 152.716 173.612 152.716C173.739 154.586 172.327 156.204 170.458 156.332C168.589 156.46 166.969 155.048 166.841 153.179L170.227 152.947C166.841 153.179 166.841 153.178 166.841 153.177L166.841 153.167L166.839 153.145L166.834 153.065C166.83 152.997 166.824 152.899 166.817 152.773C166.803 152.521 166.785 152.156 166.766 151.692C166.729 150.763 166.691 149.433 166.684 147.803C166.669 144.549 166.78 140.072 167.285 135.195C167.789 130.331 168.692 124.981 170.298 120.016C171.893 115.085 174.261 110.282 177.849 106.762C179.187 105.45 181.335 105.47 182.648 106.808Z" fill="white"/>
</g>
</svg>
