<svg width="430" height="430" viewBox="0 0 430 430" fill="none" xmlns="http://www.w3.org/2000/svg">
<path d="M430 215C430 333.741 333.741 430 215 430C96.2588 430 0 333.741 0 215C0 96.2588 96.2588 0 215 0C333.741 0 430 96.2588 430 215Z" fill="#4CE6B7"/>
<mask id="mask0" mask-type="alpha" maskUnits="userSpaceOnUse" x="0" y="0" width="430" height="430">
<path d="M430 215C430 333.741 333.741 430 215 430C96.2588 430 0 333.741 0 215C0 96.2588 96.2588 0 215 0C333.741 0 430 96.2588 430 215Z" fill="#4CE6B7"/>
</mask>
<g mask="url(#mask0)">
<path d="M383.332 174.831C373.373 144.174 343.301 123.084 309.715 125.818L276.128 128.552L241.565 131.481L190.794 135.777L171.852 137.339C166.971 137.73 162.284 138.706 157.793 140.073C145.295 143.783 134.165 150.813 125.573 159.991C119.91 166.044 115.419 172.879 112.294 180.494C108.975 188.11 107.022 196.311 106.631 204.903C106.631 204.903 106.631 204.903 106.436 204.708L107.998 223.454L109.561 243.567L106.241 205.489C102.726 201.388 98.8205 197.678 95.3056 194.554C93.3529 192.796 91.5955 191.039 90.0333 189.672C78.5122 178.932 62.8905 171.121 47.0734 172.098C41.8011 172.488 36.3334 173.855 31.0611 176.394C27.3509 178.151 25.0077 180.885 23.2502 184.009C21.2975 187.915 20.7117 192.601 22.0786 197.483C23.836 203.927 30.6705 219.549 38.872 219.744C32.2327 219.549 26.3746 224.04 22.4691 229.898C16.8062 238.685 15.6346 250.792 24.2266 256.846C31.6469 262.118 45.1207 261.532 53.9079 260.556C49.8072 260.947 43.9491 271.296 41.02 276.959C40.4342 278.13 39.8483 279.107 39.4578 279.693C34.3807 288.675 27.1556 302.93 38.0909 310.741C48.245 317.966 63.281 313.67 76.5595 306.64C84.9562 302.149 92.3766 296.681 97.4537 292.385C97.8442 291.995 98.2347 291.604 98.6253 291.409C99.7969 290.433 102.14 288.285 105.069 285.746L101.164 249.035V248.644L104.874 285.746C107.217 283.598 109.951 280.864 112.685 278.326C117.957 315.232 151.154 342.18 188.841 339.055L206.416 337.493L240.979 334.564L291.75 330.268L326.313 327.339H326.703C340.958 326.167 354.041 320.7 364.391 312.498C370.835 307.421 376.302 301.368 380.794 294.338C387.823 283.403 391.729 270.515 391.924 256.846C391.924 254.698 391.924 252.55 391.729 250.402L391.534 247.277L391.338 246.301C393.877 249.035 396.806 252.159 399.345 254.503L393.291 165.068C390.362 167.802 386.652 171.121 383.332 174.831Z" fill="#32ACFF"/>
<path d="M477.061 217.792C480.966 209.591 480.771 199.632 473.351 194.36C466.126 189.283 453.238 189.673 444.646 190.65L444.45 190.454C449.332 188.892 456.362 175.028 458.315 171.513C460.267 168.193 462.415 164.093 463.782 159.797C466.126 152.767 466.516 145.346 459.682 140.465C453.628 136.169 445.817 135.973 437.616 137.926C425.118 141.05 412.035 149.447 403.443 156.282C401.881 157.649 400.319 158.82 399.147 159.992C398.171 160.968 396.023 162.726 393.484 165.069L394.461 180.691L397.78 230.29L399.343 254.699C402.272 257.433 405.005 259.971 406.958 261.729C420.237 273.836 438.202 282.232 455.776 278.717C459.291 277.936 462.806 276.96 466.321 275.202C474.522 271.102 477.842 262.9 475.303 254.113C474.718 251.965 473.546 248.841 471.984 245.521C468.859 238.882 464.173 231.852 458.705 231.657C466.516 231.852 473.351 225.603 477.061 217.792Z" fill="#00F5B9"/>
<path d="M383.33 174.832L391.141 246.106C393.68 249.035 396.804 251.965 399.342 254.503L393.289 165.068C390.36 167.802 386.65 171.122 383.33 174.832Z" fill="white"/>
<path d="M95.6992 194.75L104.877 285.747C107.22 283.404 110.149 280.865 112.688 278.131L106.634 205.685C102.924 201.585 99.2141 197.874 95.6992 194.75Z" fill="white"/>
<path d="M36.726 254.501C31.6489 254.501 28.134 252.939 26.3766 249.815C23.6428 244.933 26.5718 237.903 27.9387 236.731C28.9151 235.95 30.282 235.95 31.2584 236.927C32.0395 237.903 32.0395 239.27 31.2584 240.051C30.6726 241.027 28.9151 245.519 30.6726 247.862C31.6489 249.229 35.3591 251.767 49.0281 247.471C50.1998 247.081 51.5667 247.862 51.9572 249.034C52.3478 250.205 51.5667 251.572 50.395 251.963C44.9274 253.72 40.4362 254.501 36.726 254.501Z" fill="white"/>
<path d="M46.688 212.521C36.9244 212.521 29.504 202.757 28.3324 192.993C27.7466 187.721 30.0899 183.425 34.9717 180.691C36.1433 180.105 37.5102 180.496 38.096 181.472C38.6818 182.644 38.2913 184.011 37.3149 184.597C33.9953 186.549 32.6284 188.893 33.0189 192.408C33.8 199.047 39.4629 208.42 47.6644 207.639C49.0313 207.639 50.0076 208.42 50.2029 209.787C50.3982 211.154 49.4218 212.13 48.0549 212.325C47.6644 212.521 47.0785 212.521 46.688 212.521Z" fill="white"/>
<path d="M112.486 277.349C117.368 314.842 150.955 342.18 188.837 338.86L206.412 337.298L110.924 257.432L112.486 277.349Z" fill="#32ACFF"/>
<path d="M383.724 175.614C373.96 144.37 343.693 122.891 309.911 125.82L276.324 128.553L388.801 222.479L383.724 175.614Z" fill="#32ACFF"/>
<path d="M125.766 159.991L326.31 327.339H326.701C340.956 326.168 354.039 320.7 364.388 312.499L157.986 140.073C145.488 143.588 134.358 150.618 125.766 159.991Z" fill="#32ACFF"/>
<path d="M106.83 204.905L108.197 223.651L240.982 334.566L291.753 330.27L112.493 180.496C109.173 188.112 107.221 196.313 106.83 204.905Z" fill="#32ACFF"/>
<path d="M241.757 131.482L190.986 135.778L380.986 294.535C388.016 283.599 391.921 270.712 392.117 257.042L241.757 131.482Z" fill="#32ACFF"/>
<path d="M110.927 257.629L206.415 337.3L240.978 334.566L108.193 223.651L110.927 257.629Z" fill="#009CF9"/>
<path d="M112.49 180.498L291.75 330.272L326.313 327.342L125.769 159.994C120.301 165.852 115.81 172.882 112.49 180.498Z" fill="#009CF9"/>
<path d="M172.046 137.341C167.164 137.732 162.478 138.708 157.986 140.075L364.584 312.501C371.028 307.424 376.496 301.37 380.987 294.34L190.792 135.779L172.046 137.341Z" fill="#009CF9"/>
<path d="M95.697 194.749C93.7443 192.991 91.9868 191.234 90.4246 189.867C78.513 178.932 62.8913 171.121 47.0742 172.097L97.6497 214.471L95.697 194.749Z" fill="#32ACFF"/>
<path d="M22.0752 197.483C23.8326 203.927 30.6671 219.548 38.8686 219.744C32.2293 219.548 26.3711 224.04 22.4657 229.898L97.255 292.385C97.6455 291.994 98.036 291.604 98.4266 291.409C99.5982 290.432 101.941 288.284 104.871 285.746L101.16 249.034L23.4421 184.009C21.2941 187.914 20.7083 192.601 22.0752 197.483Z" fill="#32ACFF"/>
<path d="M39.4635 279.888C34.3864 288.871 27.1614 303.125 38.0966 310.936C48.2508 318.161 63.2867 313.865 76.5652 306.836L41.0257 277.154C40.2446 278.131 39.8541 279.107 39.4635 279.888Z" fill="#32ACFF"/>
<path d="M24.2263 257.041C31.6466 262.314 45.1204 261.728 53.9077 260.751C49.8069 261.142 43.9488 271.491 41.0197 277.154L76.5592 306.836C84.9559 302.344 92.3763 296.877 97.4534 292.581L22.6641 230.094C16.8059 238.686 15.6343 250.988 24.2263 257.041Z" fill="#009CF9"/>
<path d="M47.0791 172.099C41.8067 172.489 36.3391 173.856 31.0667 176.395C27.3566 178.152 25.0133 180.886 23.2559 184.01L101.169 249.036L97.6546 214.473L47.0791 172.099Z" fill="#009CF9"/>
<path d="M391.727 250.404L391.532 247.279L388.798 222.675L276.321 128.749L241.758 131.678L391.922 257.043C391.922 254.895 391.922 252.552 391.727 250.404Z" fill="#009CF9"/>
<path d="M403.25 156.279L444.257 190.452C449.139 188.89 456.169 175.026 458.121 171.511C460.074 168.191 462.222 164.09 463.589 159.794L437.423 137.924C424.925 141.243 411.842 149.445 403.25 156.279Z" fill="#32ACFF"/>
<path d="M397.779 230.095L455.774 278.523C459.289 277.742 462.804 276.765 466.319 275.008C474.521 270.907 477.84 262.706 475.302 253.918C474.716 251.77 473.544 248.646 471.982 245.326L394.459 180.496L397.779 230.095Z" fill="#32ACFF"/>
<path d="M399.345 254.503C402.274 257.237 405.008 259.775 406.961 261.533C420.24 273.639 438.205 282.036 455.779 278.521L397.783 230.094L399.345 254.503Z" fill="#009CF9"/>
<path d="M398.954 159.99C397.978 160.967 395.83 162.724 393.291 165.068L394.267 180.689L471.79 245.52C468.666 238.88 463.98 231.851 458.512 231.655C466.323 231.851 473.353 225.602 476.868 217.986L444.257 190.843C444.062 190.843 443.671 190.843 443.476 190.843C443.671 190.843 443.867 190.648 444.062 190.648L403.055 156.476C401.688 157.647 400.126 158.819 398.954 159.99Z" fill="#009CF9"/>
<path d="M39.2666 251.377C32.8227 251.377 29.6983 248.643 28.1361 245.714C25.7929 241.614 26.3787 235.56 27.9408 233.998C28.9172 233.217 30.2841 233.217 31.2605 234.193C32.0416 234.974 32.0416 236.146 31.4557 236.927C31.0652 237.903 30.8699 242.004 33.0179 244.347C35.5565 247.081 40.6335 247.277 47.8586 244.933C49.0303 244.543 50.3972 245.324 50.7877 246.495C51.1782 247.667 50.3972 249.034 49.2255 249.425C45.3201 250.987 42.0004 251.377 39.2666 251.377Z" fill="white"/>
<path d="M50.389 214.277C40.6253 214.277 33.205 204.514 32.0334 194.75C31.4475 189.478 33.5955 185.182 38.6726 182.448C39.8443 181.862 41.2112 182.253 41.797 183.424C42.3828 184.596 41.9922 185.963 40.8206 186.549C37.501 188.501 36.1341 190.845 36.5246 194.359C37.3057 201.194 42.9686 210.567 51.17 209.591C52.5369 209.591 53.5133 210.372 53.7086 211.739C53.9039 213.106 52.9275 214.082 51.5606 214.277C51.17 214.277 50.7795 214.277 50.389 214.277Z" fill="white"/>
<path d="M53.7124 305.468C48.4401 305.468 45.3157 302.149 43.9488 299.806C43.363 298.634 43.5582 297.267 44.7299 296.681C45.9015 296.095 47.2684 296.291 47.8542 297.462C49.4164 299.806 52.1502 302.735 59.18 299.61C60.3517 299.024 61.7186 299.61 62.3044 300.782C62.8902 301.954 62.3044 303.32 61.1327 303.906C58.3989 304.883 55.8604 305.468 53.7124 305.468Z" fill="white"/>
<path d="M288 105C344.362 95.6804 326.216 72.1074 326.216 72.1074C326.216 72.1074 305.596 50.8642 288 105Z" fill="white"/>
<path d="M277.968 86C289.666 63.4035 277.303 63 277.303 63C277.303 63 264.94 64.076 277.968 86Z" fill="white"/>
<path d="M205.848 226.331C201.168 226.151 197.601 220.119 197.88 212.857C198.159 205.595 202.178 199.854 206.858 200.034C211.537 200.214 215.104 206.246 214.825 213.508C214.546 220.769 210.527 226.51 205.848 226.331Z" fill="white"/>
<path d="M203.981 200.683C206.732 202.675 209.376 207.49 209.159 213.138C208.942 218.787 206.123 223.796 203.226 225.57C199.884 224.021 197.645 218.353 197.862 212.704C198.079 207.056 200.143 202.422 203.981 200.683Z" fill="#231F20"/>
<path d="M235.662 223.623C230.983 223.443 227.416 217.411 227.695 210.149C227.974 202.887 231.993 197.146 236.672 197.326C241.351 197.506 244.918 203.538 244.639 210.8C244.361 218.061 240.341 223.802 235.662 223.623Z" fill="white"/>
<path d="M233.795 197.975C236.547 199.967 239.19 204.782 238.973 210.43C238.756 216.079 235.937 221.088 233.041 222.862C229.698 221.313 227.46 215.645 227.677 209.996C227.894 204.348 229.957 199.714 233.795 197.975Z" fill="#231F20"/>
<path d="M219.775 235.799C220.736 235.799 221.697 247.326 221.697 248.286C222.657 254.05 223.618 260.774 227.46 263.656C229.381 264.617 230.342 265.577 232.263 265.577C247.633 267.498 247.633 243.484 247.633 233.878C247.633 233.878 247.633 229.075 247.633 230.035C248.593 230.996 220.736 235.799 219.775 235.799Z" fill="#4CE6B7"/>
<path fill-rule="evenodd" clip-rule="evenodd" d="M278.176 223.669C278.509 225.151 277.578 226.622 276.096 226.955L190.604 246.167C189.122 246.5 187.651 245.569 187.318 244.087C186.985 242.605 187.916 241.134 189.398 240.801L274.89 221.589C276.372 221.256 277.843 222.187 278.176 223.669Z" fill="#231F20"/>
<path fill-rule="evenodd" clip-rule="evenodd" d="M231.996 232.104C233.507 231.953 234.855 233.055 235.006 234.566L232.27 234.84L229.533 235.114C229.382 233.602 230.485 232.255 231.996 232.104ZM232.27 234.84C229.533 235.114 229.533 235.114 229.533 235.114L229.616 235.94C229.668 236.467 229.743 237.221 229.833 238.128C230.013 239.944 230.253 242.374 230.493 244.833C230.733 247.293 230.973 249.78 231.153 251.71C231.242 252.676 231.317 253.497 231.368 254.103C231.407 254.561 231.426 254.825 231.435 254.942C231.439 255.001 231.441 255.022 231.441 255.012C231.441 256.531 232.672 257.762 234.191 257.762C235.71 257.762 236.941 256.531 236.941 255.012C236.941 254.605 236.798 253.022 236.629 251.201C236.448 249.258 236.208 246.762 235.967 244.299C235.727 241.836 235.487 239.402 235.306 237.586C235.216 236.677 235.141 235.922 235.089 235.395L235.006 234.566C235.006 234.566 235.006 234.566 232.27 234.84Z" fill="#231F20"/>
<path fill-rule="evenodd" clip-rule="evenodd" d="M135.523 122.025C135.653 122.843 135.096 123.612 134.277 123.742C107.483 128.014 96.5949 149.462 94.5104 159.564C94.3429 160.375 93.5495 160.897 92.7382 160.73C91.9268 160.563 91.4048 159.769 91.5723 158.958C93.8211 148.06 105.399 125.308 133.805 120.78C134.623 120.649 135.392 121.207 135.523 122.025Z" fill="#231F20"/>
<path fill-rule="evenodd" clip-rule="evenodd" d="M122.581 113.042C122.548 113.87 121.85 114.514 121.022 114.481C104.814 113.84 95.8239 125.349 93.3804 131.123C93.0576 131.886 92.1773 132.242 91.4144 131.92C90.6515 131.597 90.2948 130.716 90.6177 129.954C93.3653 123.461 103.275 110.777 121.141 111.484C121.969 111.516 122.613 112.214 122.581 113.042Z" fill="#231F20"/>
</g>
</svg>
