<svg width="430" height="430" viewBox="0 0 430 430" fill="none" xmlns="http://www.w3.org/2000/svg">
<path d="M430 215C430 333.741 333.741 430 215 430C96.2588 430 0 333.741 0 215C0 96.2588 96.2588 0 215 0C333.741 0 430 96.2588 430 215Z" fill="#FFCF52"/>
<mask id="mask0" mask-type="alpha" maskUnits="userSpaceOnUse" x="0" y="0" width="430" height="430">
<path d="M430 215C430 333.741 333.741 430 215 430C96.2588 430 0 333.741 0 215C0 96.2588 96.2588 0 215 0C333.741 0 430 96.2588 430 215Z" fill="#FFCF52"/>
</mask>
<g mask="url(#mask0)">
<path d="M121.795 445.44C118.594 456.066 124.614 467.274 135.24 470.474C145.866 473.675 157.074 467.655 160.275 457.029L189.248 360.83C192.448 350.204 186.429 338.995 175.803 335.795C165.177 332.595 153.969 338.614 150.768 349.24L121.795 445.44Z" fill="white"/>
<path d="M178.14 397.707L188.281 364.037L148.016 358.377L141.506 379.992L178.14 397.707Z" fill="#E9ECEF"/>
<path d="M207.707 62.5673C216.041 34.8975 245.228 19.2226 272.897 27.5562C300.567 35.8899 316.242 65.0764 307.909 92.7462L234.77 335.583C226.437 363.252 197.25 378.927 169.58 370.594C141.911 362.26 126.236 333.074 134.569 305.404L207.707 62.5673Z" fill="#449AFF"/>
<path d="M146.852 264.621C172.975 291.019 210.696 302.379 247.053 294.8L234.685 335.865C226.351 363.534 197.165 379.209 169.495 370.876C141.825 362.542 126.15 333.355 134.484 305.686L146.852 264.621Z" fill="#B6FBFF"/>
<path fill-rule="evenodd" clip-rule="evenodd" d="M146.142 264.123C146.538 263.738 147.171 263.747 147.556 264.143C173.212 290.545 210.681 301.83 246.65 293.988C247.19 293.871 247.723 294.213 247.84 294.752C247.958 295.292 247.616 295.825 247.076 295.942C210.432 303.932 172.259 292.435 146.122 265.537C145.737 265.141 145.746 264.508 146.142 264.123Z" fill="#5FF6FF"/>
<path fill-rule="evenodd" clip-rule="evenodd" d="M224.605 74.2609C225.821 74.6272 226.51 75.9102 226.144 77.1264L202.266 156.406C201.899 157.623 200.617 158.312 199.4 157.945C198.184 157.579 197.495 156.296 197.861 155.08L221.739 75.7999C222.105 74.5836 223.388 73.8946 224.605 74.2609Z" fill="white"/>
<path fill-rule="evenodd" clip-rule="evenodd" d="M160.265 287.877C161.481 288.243 162.17 289.526 161.804 290.743L151.523 324.877C151.157 326.093 149.874 326.782 148.657 326.416C147.441 326.05 146.752 324.767 147.119 323.551L157.399 289.416C157.766 288.2 159.048 287.511 160.265 287.877Z" fill="white"/>
<g filter="url(#filter0_f)">
<path fill-rule="evenodd" clip-rule="evenodd" d="M267.95 46.1633C270.909 42.2174 276.506 41.4173 280.452 44.3764C285.153 47.9016 291.31 54.3412 295.579 62.865C299.922 71.5361 302.49 82.7777 298.997 95.2527C293.436 115.115 260.02 225.251 244.049 277.699C242.612 282.418 237.623 285.078 232.904 283.641C228.186 282.204 225.526 277.215 226.963 272.497C242.982 219.889 276.308 110.046 281.798 90.4374C283.83 83.1769 282.448 76.5323 279.609 70.8632C276.696 65.0468 272.439 60.6922 269.737 58.6659C265.791 55.7069 264.991 50.1093 267.95 46.1633Z" fill="#0B7BFF"/>
</g>
<g filter="url(#filter1_f)">
<path fill-rule="evenodd" clip-rule="evenodd" d="M231.095 298.253C235.817 299.675 238.493 304.657 237.07 309.379L235.56 314.394C229.204 335.497 216.496 354.127 199.168 367.746L198.373 368.371C194.495 371.419 188.881 370.746 185.833 366.868C182.785 362.99 183.458 357.376 187.336 354.328L188.131 353.703C202.571 342.354 213.161 326.829 218.458 309.243L219.968 304.228C221.39 299.506 226.372 296.83 231.095 298.253Z" fill="#5FF6FF"/>
</g>
<path d="M193.223 206.993C187.522 206.771 183.18 199.418 183.524 190.57C183.869 181.723 188.771 174.73 194.472 174.952C200.173 175.174 204.515 182.527 204.171 191.375C203.826 200.223 198.925 207.215 193.223 206.993Z" fill="white"/>
<path d="M190.966 175.742C194.317 178.17 197.535 184.039 197.267 190.921C196.998 197.803 193.56 203.905 190.03 206.065C185.958 204.174 183.234 197.267 183.503 190.385C183.771 183.503 186.288 177.857 190.966 175.742Z" fill="#231F20"/>
<path d="M225.788 216.083C220.086 215.861 215.744 208.508 216.089 199.66C216.434 190.812 221.335 183.819 227.036 184.041C232.738 184.263 237.08 191.616 236.735 200.464C236.39 209.312 231.489 216.305 225.788 216.083Z" fill="white"/>
<path d="M223.536 184.831C226.888 187.26 230.105 193.129 229.837 200.011C229.569 206.893 226.131 212.994 222.6 215.154C218.528 213.264 215.805 206.356 216.073 199.474C216.341 192.592 218.858 186.947 223.536 184.831Z" fill="#231F20"/>
<path d="M220.145 246.75C221.058 246.401 226.168 257.007 226.517 257.92C229.529 263.049 232.89 269.09 237.591 270.43C239.767 270.644 241.03 271.207 242.856 270.508C258.164 266.738 249.421 243.912 245.923 234.782C245.923 234.782 244.174 230.217 244.524 231.13C245.787 231.693 221.058 246.401 220.145 246.75Z" fill="#FFF36C"/>
<path fill-rule="evenodd" clip-rule="evenodd" d="M230.552 239.055C231.786 238.435 233.289 238.933 233.908 240.167L231.674 241.289L229.44 242.411C228.821 241.177 229.318 239.675 230.552 239.055ZM231.674 241.289C229.44 242.411 229.44 242.411 229.44 242.411L229.82 243.167C230.061 243.648 230.407 244.338 230.823 245.168C231.655 246.827 232.768 249.05 233.892 251.3C235.016 253.552 236.149 255.828 237.023 257.598C237.46 258.484 237.83 259.238 238.1 259.796C238.333 260.276 238.452 260.534 238.494 260.622C238.506 260.649 238.512 260.66 238.51 260.657C239.004 261.947 240.45 262.592 241.739 262.098C243.029 261.604 243.674 260.158 243.18 258.869C243.038 258.498 242.336 257.066 241.506 255.385C240.628 253.605 239.49 251.32 238.365 249.067C237.24 246.813 236.126 244.588 235.293 242.927C234.877 242.096 234.531 241.406 234.289 240.924L233.908 240.167C233.908 240.167 233.908 240.167 231.674 241.289Z" fill="#231F20"/>
<path fill-rule="evenodd" clip-rule="evenodd" d="M187.193 214.994C188.562 214.818 189.815 215.785 189.992 217.154C190.806 223.469 195.077 237.648 210.777 242.464C218.23 244.75 225.992 241.915 232.907 236.914C239.785 231.939 245.335 225.152 248.08 220.605C248.794 219.423 250.331 219.043 251.513 219.757C252.695 220.471 253.074 222.007 252.361 223.189C249.314 228.235 243.326 235.548 235.837 240.965C228.386 246.355 218.956 250.202 209.31 247.244C190.813 241.57 185.945 224.871 185.033 217.793C184.856 216.424 185.823 215.171 187.193 214.994Z" fill="black"/>
</g>
<path fill-rule="evenodd" clip-rule="evenodd" d="M287.453 259.614C288.219 259.931 288.582 260.809 288.265 261.574L253.996 344.296C253.679 345.061 252.802 345.425 252.037 345.108C251.271 344.791 250.908 343.913 251.225 343.148L285.494 260.426C285.811 259.661 286.688 259.297 287.453 259.614Z" fill="black"/>
<path fill-rule="evenodd" clip-rule="evenodd" d="M279.306 319.043C280.026 319.453 280.278 320.369 279.869 321.089L257.788 359.931C257.379 360.651 256.463 360.903 255.743 360.493C255.023 360.084 254.771 359.168 255.18 358.448L277.261 319.606C277.67 318.886 278.586 318.634 279.306 319.043Z" fill="black"/>
<defs>
<filter id="filter0_f" x="208.711" y="24.7289" width="109.778" height="277.163" filterUnits="userSpaceOnUse" color-interpolation-filters="sRGB">
<feFlood flood-opacity="0" result="BackgroundImageFix"/>
<feBlend mode="normal" in="SourceGraphic" in2="BackgroundImageFix" result="shape"/>
<feGaussianBlur stdDeviation="8.93048" result="effect1_foregroundBlur"/>
</filter>
<filter id="filter1_f" x="166.063" y="280.01" width="89.2502" height="108.131" filterUnits="userSpaceOnUse" color-interpolation-filters="sRGB">
<feFlood flood-opacity="0" result="BackgroundImageFix"/>
<feBlend mode="normal" in="SourceGraphic" in2="BackgroundImageFix" result="shape"/>
<feGaussianBlur stdDeviation="8.93048" result="effect1_foregroundBlur"/>
</filter>
</defs>
</svg>
