<svg width="430" height="430" viewBox="0 0 430 430" fill="none" xmlns="http://www.w3.org/2000/svg">
<path d="M430 215C430 333.741 333.741 430 215 430C96.2588 430 0 333.741 0 215C0 96.2588 96.2588 0 215 0C333.741 0 430 96.2588 430 215Z" fill="#FF845E"/>
<mask id="mask0" mask-type="alpha" maskUnits="userSpaceOnUse" x="0" y="0" width="430" height="430">
<path d="M430 215C430 333.741 333.741 430 215 430C96.2588 430 0 333.741 0 215C0 96.2588 96.2588 0 215 0C333.741 0 430 96.2588 430 215Z" fill="#FF845D"/>
</mask>
<g mask="url(#mask0)">
<path fill-rule="evenodd" clip-rule="evenodd" d="M282.505 106.548C282.435 105.722 283.048 104.996 283.873 104.926L284 106.421C283.873 104.926 283.874 104.926 283.875 104.926L283.876 104.926L283.882 104.926L283.898 104.924L283.952 104.92C283.998 104.917 284.064 104.913 284.149 104.907C284.318 104.897 284.563 104.885 284.873 104.875C285.495 104.856 286.384 104.846 287.475 104.884C289.653 104.959 292.653 105.226 295.942 105.991C302.496 107.517 310.385 111.079 314.997 119.278C315.403 120 315.147 120.914 314.425 121.32C313.703 121.727 312.788 121.471 312.382 120.749C308.346 113.574 301.39 110.34 295.261 108.913C292.208 108.202 289.408 107.953 287.371 107.882C286.354 107.847 285.531 107.856 284.968 107.874C284.687 107.883 284.47 107.894 284.327 107.902C284.256 107.906 284.203 107.91 284.169 107.913L284.133 107.915L284.126 107.916L284.126 107.916L284.125 107.916C283.3 107.985 282.575 107.373 282.505 106.548Z" fill="#231F20"/>
<path fill-rule="evenodd" clip-rule="evenodd" d="M285.345 96.7272C285.261 95.903 285.861 95.1666 286.685 95.0822L286.838 96.5744C286.685 95.0822 286.684 95.0822 286.685 95.0822L286.689 95.0818L286.696 95.081L286.72 95.0788C286.739 95.077 286.766 95.0745 286.8 95.0715C286.869 95.0656 286.968 95.0577 287.094 95.0489C287.347 95.0313 287.712 95.0104 288.175 94.9953C289.101 94.9653 290.422 94.9589 292.025 95.0511C295.227 95.2351 299.585 95.8138 304.188 97.4019C304.971 97.6721 305.387 98.526 305.117 99.3092C304.847 100.092 303.993 100.508 303.21 100.238C298.935 98.7632 294.863 98.2191 291.853 98.0461C290.351 97.9598 289.121 97.9663 288.272 97.9938C287.848 98.0075 287.52 98.0265 287.302 98.0417C287.193 98.0492 287.111 98.0559 287.059 98.0604L287.002 98.0655L286.99 98.0666C286.99 98.0666 286.991 98.0666 286.99 98.0666M285.345 96.7272C285.43 97.5511 286.167 98.1506 286.99 98.0666L285.345 96.7272Z" fill="#231F20"/>
<path d="M486.425 144.395V131.542L367.941 171.635V185.997L481.552 150.996C484.449 150.103 486.425 147.426 486.425 144.395Z" fill="#B1B1B1"/>
<path d="M436.51 117.615L330.838 150.093L368.537 175.226L480.129 140.809C486.921 138.715 488.414 129.768 482.67 125.582L482.24 125.268C469.053 115.657 452.108 112.822 436.51 117.615Z" fill="#F1F3F5"/>
<path d="M335 149L371 174.5L389 169L335 149Z" fill="#231F20"/>
<path d="M146.867 314.824C168.672 310.464 168.935 328.246 209.364 318.842C268.606 309.268 359.598 275.758 379.311 265.584C405.351 252.145 396.664 214.72 383.464 190.783C364.655 156.675 329.699 147.296 304.51 131.542C256.673 101.622 119.569 160.863 84.263 177.618C48.9572 194.374 42.9731 225.491 47.162 269.773C50.513 305.198 75.2869 318.044 87.255 320.038C95.0342 321.235 102.585 317.218 107.373 314.824C112.16 312.43 143.548 315.488 146.867 314.824Z" fill="#FFF36C"/>
<path d="M213.981 282.902C212.186 277.516 213.981 259.564 207.997 244.604C207.263 242.769 206.314 241.079 205.176 239.517C258.035 227.15 361.459 200.178 375.122 191.98C384.098 186.595 376.918 180.611 373.327 176.422L373.539 176.598C377.036 179.51 379.992 181.972 384.098 190.185C397.474 216.936 404.444 255.688 375.122 269.174C354.167 278.813 265.615 309.866 206.373 319.44C215.288 317.366 215.776 288.287 213.981 282.902Z" fill="#FFE600"/>
<path d="M63.0929 271.141C61.3017 289.644 67.0812 303.654 70.2727 308.242C73.6636 311.832 82.0013 319.252 88.2247 320.21C96.004 321.406 102.586 317.218 107.374 314.824C112.161 312.43 143.549 315.488 146.868 314.824C168.673 310.464 168.075 328.416 208.504 319.013C217.42 316.939 216.283 289.093 214.488 283.707C212.693 278.321 214.488 260.369 208.504 245.409C202.52 230.449 182.176 225.063 162.429 220.875C146.631 217.524 136.496 225.861 134.302 231.646C124.129 223.867 119.344 222.072 105.58 223.867C95.126 225.23 89.0226 233.641 87.6263 239.425C73.863 238.827 64.8887 252.59 63.0929 271.141Z" fill="white"/>
<path d="M216.802 169.698C211.63 176.659 203.571 179.207 198.8 175.388C194.029 171.57 194.354 162.832 199.525 155.871C204.696 148.91 212.756 146.363 217.527 150.181C222.298 154 221.973 162.738 216.802 169.698Z" fill="white"/>
<mask id="mask1" mask-type="alpha" maskUnits="userSpaceOnUse" x="195" y="148" width="26" height="30">
<path d="M216.802 169.698C211.63 176.659 203.571 179.207 198.8 175.388C194.029 171.57 194.354 162.832 199.525 155.871C204.696 148.91 212.756 146.363 217.527 150.181C222.298 154 221.973 162.738 216.802 169.698Z" fill="white"/>
</mask>
<g mask="url(#mask1)">
<path d="M210.442 165.288C205.271 172.248 198.565 175.879 195.464 173.397C192.363 170.916 194.041 163.261 199.213 156.3C204.384 149.339 211.09 145.708 214.191 148.19C217.292 150.672 215.614 158.327 210.442 165.288Z" fill="#231F20"/>
</g>
<path fill-rule="evenodd" clip-rule="evenodd" d="M233.608 162.925C232.6 164.228 230.693 164.485 229.349 163.5L209.8 149.169C208.456 148.184 208.185 146.329 209.193 145.026C210.201 143.723 212.108 143.466 213.451 144.451L233.001 158.782C234.344 159.767 234.616 161.622 233.608 162.925Z" fill="#231F20"/>
<path fill-rule="evenodd" clip-rule="evenodd" d="M245.453 223.406C251.038 227.17 259.266 224.731 263.832 217.958C268.398 211.185 267.572 202.643 261.987 198.878C258.966 196.842 255.172 196.621 251.602 197.919C251.466 194.124 249.837 190.691 246.817 188.655C241.233 184.891 233.004 187.33 228.439 194.103C223.873 200.876 224.699 209.418 230.283 213.183C233.304 215.219 237.098 215.44 240.668 214.142C240.805 217.937 242.433 221.37 245.453 223.406Z" fill="#FFB1C2"/>
<path fill-rule="evenodd" clip-rule="evenodd" d="M238.276 195.887C239.371 195.744 240.375 196.516 240.518 197.611L241.685 206.564C241.828 207.659 241.056 208.663 239.961 208.806C238.865 208.949 237.862 208.176 237.719 207.081L236.551 198.129C236.408 197.033 237.18 196.03 238.276 195.887Z" fill="#231F20"/>
<path fill-rule="evenodd" clip-rule="evenodd" d="M250.389 203.634C251.484 203.491 252.488 204.263 252.631 205.358L253.798 214.311C253.941 215.406 253.169 216.41 252.074 216.553C250.979 216.696 249.975 215.924 249.832 214.828L248.664 205.876C248.522 204.78 249.294 203.777 250.389 203.634Z" fill="#231F20"/>
<path fill-rule="evenodd" clip-rule="evenodd" d="M174.331 179.939C179.031 183.107 185.956 181.055 189.798 175.355C193.641 169.655 192.946 162.466 188.246 159.298C185.703 157.584 182.51 157.398 179.506 158.49C179.39 155.297 178.02 152.408 175.479 150.695C170.779 147.527 163.854 149.58 160.012 155.28C156.169 160.98 156.864 168.169 161.564 171.337C164.106 173.051 167.3 173.237 170.304 172.144C170.42 175.337 171.79 178.226 174.331 179.939Z" fill="#FFB1C2"/>
<path fill-rule="evenodd" clip-rule="evenodd" d="M168.252 156.466C169.348 156.323 170.351 157.095 170.494 158.19L171.477 165.725C171.62 166.82 170.847 167.824 169.752 167.966C168.657 168.109 167.653 167.337 167.51 166.242L166.528 158.708C166.385 157.612 167.157 156.609 168.252 156.466Z" fill="#231F20"/>
<path fill-rule="evenodd" clip-rule="evenodd" d="M178.444 162.985C179.539 162.843 180.543 163.615 180.685 164.71L181.668 172.244C181.811 173.339 181.039 174.343 179.944 174.486C178.848 174.629 177.845 173.857 177.702 172.761L176.719 165.227C176.576 164.132 177.348 163.128 178.444 162.985Z" fill="#231F20"/>
<path fill-rule="evenodd" clip-rule="evenodd" d="M238.668 181.763L260.594 189.477C262.157 190.027 262.978 191.739 262.428 193.302C261.879 194.865 260.166 195.687 258.603 195.137L228.007 184.372C223.997 182.962 224.711 177.087 228.942 176.677L266.537 173.034C268.186 172.874 269.652 174.081 269.812 175.731C269.972 177.38 268.765 178.846 267.115 179.006L238.668 181.763Z" fill="#231F20"/>
<path fill-rule="evenodd" clip-rule="evenodd" d="M188.804 172.82C190.084 173.871 190.269 175.762 189.217 177.042C187.065 179.661 183.802 184.214 181.561 189.307C179.281 194.486 178.306 199.651 179.848 203.859C180.403 205.371 181.533 206.324 183.518 206.828C185.631 207.365 188.494 207.305 191.836 206.713C198.483 205.536 205.948 202.454 210.585 199.967C212.045 199.183 213.863 199.732 214.646 201.192C215.43 202.652 214.881 204.47 213.421 205.254C208.415 207.939 200.338 211.3 192.882 212.621C189.173 213.278 185.343 213.482 182.042 212.644C178.612 211.773 175.604 209.714 174.215 205.924C171.87 199.528 173.572 192.563 176.069 186.89C178.604 181.13 182.219 176.108 184.581 173.233C185.633 171.953 187.524 171.768 188.804 172.82Z" fill="#231F20"/>
<path fill-rule="evenodd" clip-rule="evenodd" d="M146.228 237.57C142.553 240.62 140.581 245.03 139.935 248.114L134.063 246.885C134.917 242.802 137.446 237.062 142.396 232.953C147.503 228.714 154.894 226.466 164.772 229.101L163.226 234.898C155.104 232.732 149.745 234.651 146.228 237.57ZM78.595 265.665C77.5398 273.208 78.7128 282.691 79.9419 288.918L74.0554 290.08C72.7845 283.641 71.458 273.374 72.6529 264.834C73.2472 260.585 74.5163 256.365 77.094 253.302C79.8366 250.043 83.7985 248.408 88.8592 249.021L88.1371 254.978C84.9485 254.591 83.0358 255.56 81.6849 257.165C80.1691 258.967 79.1257 261.872 78.595 265.665Z" fill="#FFF36C"/>
<path fill-rule="evenodd" clip-rule="evenodd" d="M87.8466 188.051C88.3708 189.622 87.5216 191.322 85.9499 191.846C81.5284 193.32 77.0491 197.434 73.1266 202.467C69.2707 207.415 66.2807 212.824 64.7332 216.238C64.0492 217.747 62.2713 218.416 60.7623 217.732C59.2532 217.048 58.5843 215.27 59.2683 213.761C60.9832 209.978 64.2081 204.15 68.394 198.779C72.5134 193.493 77.9028 188.205 84.0516 186.154C85.6233 185.63 87.3224 186.479 87.8466 188.051Z" fill="white"/>
<path fill-rule="evenodd" clip-rule="evenodd" d="M273.635 137.093C263.698 136.601 253.783 138.146 247.754 139.711C246.151 140.127 244.513 139.164 244.097 137.561C243.681 135.957 244.643 134.319 246.247 133.903C252.754 132.214 263.283 130.573 273.932 131.1C284.48 131.622 295.8 134.305 303.158 141.915C304.309 143.106 304.277 145.005 303.086 146.157C301.895 147.308 299.996 147.276 298.844 146.085C293.087 140.131 283.675 137.59 273.635 137.093Z" fill="white"/>
</g>
</svg>
