<svg width="430" height="430" viewBox="0 0 430 430" fill="none" xmlns="http://www.w3.org/2000/svg">
<path d="M430 215C430 333.741 333.741 430 215 430C96.2588 430 0 333.741 0 215C0 96.2588 96.2588 0 215 0C333.741 0 430 96.2588 430 215Z" fill="#FF845D"/>
<path d="M147.705 215.753C114.138 188.257 114.329 139.294 159.55 124.906C208.15 109.442 224.4 158.6 224.752 169.244C226.721 160.695 238.592 127.778 280.005 141.399C318.098 153.928 309.518 190.754 295.861 206.079C302.504 211.619 319.797 199.901 332.971 218.65C345.36 236.281 329.415 256.54 319.797 257.087C310.178 257.635 330.067 260.319 328.02 284.744C325.762 311.688 304.994 325.449 278.532 315.686C279.927 329.831 271.884 357.703 245.571 365.089C228.477 369.887 199.087 363.852 186.606 328.679C169.325 341.823 134.547 353.507 110.547 325.759C94.0346 306.67 104.249 279.704 116.193 274.498C97.8612 268.429 77.7818 250.134 89.2371 223.337C102.261 192.87 134.77 206.522 147.705 215.753Z" fill="#FFF36C"/>
<path fill-rule="evenodd" clip-rule="evenodd" d="M267.297 281.913C269.599 282.808 270.741 285.399 269.846 287.701C269.452 288.715 269.26 290.53 269.716 293.02C270.158 295.438 271.156 298.162 272.718 300.783C275.853 306.044 280.953 310.425 287.675 311.496C298.101 313.157 305.398 309.347 310.507 303.495C315.792 297.442 318.746 289.125 319.652 282.343C319.98 279.895 322.229 278.175 324.678 278.503C327.126 278.83 328.845 281.08 328.518 283.528C327.442 291.583 323.961 301.686 317.245 309.378C310.354 317.271 300.085 322.531 286.267 320.329C276.309 318.742 269.171 312.303 265.034 305.362C262.96 301.881 261.563 298.157 260.917 294.63C260.285 291.174 260.312 287.544 261.509 284.463C262.403 282.16 264.995 281.019 267.297 281.913Z" fill="#FFE600"/>
<path fill-rule="evenodd" clip-rule="evenodd" d="M275.695 308.016C278.156 307.804 280.323 309.626 280.536 312.087C281.23 320.129 279.306 331.616 273.825 342.144C268.294 352.766 258.948 362.754 244.602 367.038C225.691 372.684 194.381 365.832 181.653 327.899C180.867 325.557 182.128 323.022 184.47 322.236C186.811 321.45 189.347 322.711 190.133 325.053C201.202 358.042 227.369 362.848 242.043 358.467C253.547 355.032 261.197 347.028 265.891 338.013C270.634 328.904 272.164 319.109 271.624 312.856C271.412 310.396 273.234 308.228 275.695 308.016Z" fill="#FFE600"/>
<path fill-rule="evenodd" clip-rule="evenodd" d="M190.33 295.721C192.715 295.078 195.17 296.49 195.813 298.875C197.544 305.296 196.651 314.11 191.674 321.811C186.585 329.685 177.437 336.101 163.218 337.995C160.77 338.321 158.52 336.601 158.194 334.153C157.868 331.704 159.588 329.455 162.037 329.129C173.972 327.539 180.656 322.379 184.161 316.956C187.778 311.36 188.242 305.155 187.176 301.204C186.533 298.819 187.945 296.364 190.33 295.721Z" fill="#FFE600"/>
<path fill-rule="evenodd" clip-rule="evenodd" d="M159.453 133.372C159.089 132.52 159.485 131.535 160.337 131.171C166.614 128.491 176.144 127.846 185.374 131.504C194.677 135.191 203.6 143.218 208.641 157.736C208.945 158.611 208.482 159.567 207.607 159.871C206.732 160.175 205.776 159.712 205.472 158.837C200.736 145.195 192.491 137.933 184.138 134.622C175.712 131.282 167.1 131.931 161.654 134.256C160.802 134.62 159.817 134.224 159.453 133.372Z" fill="white"/>
<path fill-rule="evenodd" clip-rule="evenodd" d="M270.756 150.623C270.872 149.704 271.711 149.053 272.63 149.169C279.521 150.039 288.546 154.959 293.789 164.196C297.548 170.818 298.869 179.578 295.058 190.36C294.749 191.233 293.791 191.691 292.918 191.382C292.044 191.074 291.587 190.115 291.895 189.242C295.406 179.31 294.117 171.569 290.872 165.852C286.166 157.561 278.082 153.238 272.21 152.497C271.291 152.381 270.64 151.542 270.756 150.623Z" fill="white"/>
<path fill-rule="evenodd" clip-rule="evenodd" d="M104.13 218.931C103.689 218.117 103.992 217.099 104.806 216.658C112.047 212.736 119.607 213.175 126.462 215.637C133.287 218.088 139.52 222.573 144.334 226.951C145.019 227.575 145.069 228.635 144.446 229.321C143.822 230.006 142.762 230.056 142.076 229.433C137.446 225.221 131.588 221.042 125.328 218.794C119.099 216.557 112.58 216.262 106.404 219.607C105.589 220.048 104.571 219.746 104.13 218.931Z" fill="white"/>
<path d="M190.801 276.772C187.522 278.489 185.652 281.307 184.673 284.149C183.614 287.222 180.173 289.561 177.318 291.115C177.16 291.201 177 291.294 176.836 291.394C175.875 291.984 174.709 293.197 173.941 294.856C173.315 296.21 172.461 297.576 171.001 297.887C165.897 298.973 159.11 296.46 158.979 289.829C158.837 282.626 162.353 279.399 155.275 274.716C152.043 272.578 151.169 271.158 151.609 268.885C152.146 266.113 154.74 262.781 158.687 264.212C163.631 266.005 167.036 262.444 168.599 259.61C168.926 259.018 169.753 258.854 170.277 259.282C175.606 263.63 182.055 261.967 185.975 259.848C186.718 259.446 187.728 260.082 187.67 260.925C187.297 266.367 189.129 269.98 191.406 272.226C192.168 272.978 191.75 276.275 190.801 276.772Z" fill="#231F20"/>
<path fill-rule="evenodd" clip-rule="evenodd" d="M186.96 244.217C185.731 247.156 183.547 249.256 180.789 249.739C175.689 250.631 170.557 245.655 169.327 238.625C168.097 231.595 171.234 225.172 176.334 224.28C179.092 223.797 181.859 225.031 184.014 227.378C185.243 224.439 187.427 222.339 190.185 221.856C195.285 220.964 200.416 225.939 201.647 232.97C202.877 240 199.74 246.423 194.64 247.315C191.882 247.798 189.115 246.564 186.96 244.217Z" fill="#FD476D"/>
<path fill-rule="evenodd" clip-rule="evenodd" d="M203.31 210.516L188.137 220.898C186.997 221.678 186.706 223.234 187.485 224.373C188.265 225.513 189.821 225.804 190.96 225.025L211.423 211.024C214.591 208.856 212.596 203.9 208.81 204.531L180.107 209.315C178.745 209.542 177.825 210.83 178.052 212.192C178.279 213.553 179.567 214.473 180.929 214.247L203.31 210.516Z" fill="#231F20"/>
<path fill-rule="evenodd" clip-rule="evenodd" d="M177.942 230.5C178.825 229.859 180.06 230.055 180.701 230.938L184.779 236.554C185.42 237.437 185.224 238.672 184.341 239.313C183.458 239.954 182.223 239.758 181.582 238.875L177.504 233.259C176.863 232.376 177.059 231.141 177.942 230.5Z" fill="#231F20"/>
<path fill-rule="evenodd" clip-rule="evenodd" d="M265.663 214.066C270.763 213.174 274.02 207.436 272.937 201.251C271.855 195.066 266.843 190.775 261.744 191.667C258.985 192.15 256.766 194.05 255.481 196.671C253.382 194.643 250.65 193.61 247.892 194.092C242.793 194.985 239.536 200.722 240.618 206.907C241.7 213.093 246.712 217.383 251.812 216.491C254.57 216.008 256.789 214.108 258.074 211.487C260.173 213.516 262.905 214.549 265.663 214.066Z" fill="#FD476D"/>
<path fill-rule="evenodd" clip-rule="evenodd" d="M246.677 202.379C247.359 201.527 248.602 201.389 249.454 202.071L254.874 206.406C255.726 207.088 255.864 208.331 255.182 209.183C254.5 210.035 253.257 210.173 252.405 209.492L246.986 205.156C246.134 204.474 245.996 203.231 246.677 202.379Z" fill="#231F20"/>
<path fill-rule="evenodd" clip-rule="evenodd" d="M257.513 200.212C258.195 199.36 259.438 199.222 260.29 199.904L265.709 204.239C266.561 204.921 266.7 206.164 266.018 207.016C265.336 207.868 264.093 208.006 263.241 207.325L257.822 202.989C256.97 202.308 256.831 201.064 257.513 200.212Z" fill="#231F20"/>
<path fill-rule="evenodd" clip-rule="evenodd" d="M188.965 231.279C189.848 230.638 191.084 230.834 191.725 231.717L195.803 237.333C196.444 238.216 196.248 239.451 195.365 240.092C194.482 240.733 193.246 240.537 192.605 239.654L188.527 234.038C187.886 233.155 188.082 231.92 188.965 231.279Z" fill="#231F20"/>
<path d="M238.106 211.703C243.408 210.068 245.645 202.056 243.101 193.807C240.558 185.558 234.197 180.197 228.894 181.832C223.592 183.467 221.355 191.48 223.899 199.729C226.442 207.977 232.803 213.338 238.106 211.703Z" fill="white"/>
<path d="M232.424 181.913C229.882 185.033 228.326 191.354 230.3 197.755C232.274 204.156 237.032 209.031 240.89 210.177C244.244 207.382 245.076 200.209 243.102 193.808C241.128 187.407 237.35 182.731 232.424 181.913Z" fill="#231F20"/>
<path fill-rule="evenodd" clip-rule="evenodd" d="M292.09 107.235C292.316 108.032 291.852 108.861 291.055 109.086L280.051 112.195C271.822 114.52 264.128 118.431 257.401 123.709L252.996 127.165L250.884 125.067C251.875 123.787 252.638 121.95 253.182 119.703C253.722 117.473 254.023 114.937 254.152 112.341C254.411 107.146 253.975 101.857 253.495 98.5945C253.374 97.7749 253.941 97.0127 254.76 96.8921C255.58 96.7716 256.342 97.3382 256.463 98.1578C256.966 101.576 257.418 107.064 257.148 112.49C257.013 115.204 256.696 117.939 256.098 120.409C256.046 120.624 255.991 120.837 255.935 121.048C262.878 115.681 270.787 111.695 279.235 109.308L290.239 106.199C291.036 105.974 291.865 106.438 292.09 107.235Z" fill="#231F20"/>
<path fill-rule="evenodd" clip-rule="evenodd" d="M208.867 227.272C207.676 227.97 207.277 229.502 207.975 230.693L208.028 230.783C210.834 235.567 215.912 244.225 222.177 250.313C225.33 253.378 228.988 255.998 233.016 257.018C237.155 258.066 241.456 257.361 245.583 254.241C246.884 253.446 247.691 252.497 248.329 251.517C248.609 251.087 248.867 250.633 249.097 250.228C249.117 250.191 249.138 250.156 249.158 250.12C249.414 249.669 249.663 249.237 249.959 248.781L250.082 248.592L250.17 248.384C251.559 245.068 251.205 241.313 250.384 237.886C249.63 234.735 248.377 231.475 247.262 228.571C247.153 228.287 247.045 228.006 246.939 227.729C246.446 226.439 245.001 225.793 243.711 226.287C242.421 226.78 241.776 228.225 242.269 229.515C242.372 229.784 242.475 230.053 242.578 230.322C243.716 233.287 244.848 236.239 245.521 239.05C246.239 242.046 246.321 244.455 245.632 246.267C245.309 246.776 245.041 247.245 244.811 247.649L244.769 247.724C244.518 248.165 244.332 248.492 244.137 248.791C243.776 249.346 243.456 249.694 242.914 250.012L242.78 250.091L242.656 250.185C239.68 252.47 236.905 252.845 234.243 252.171C231.432 251.459 228.529 249.514 225.662 246.728C219.924 241.151 215.142 233.028 212.288 228.163C211.589 226.972 210.058 226.573 208.867 227.272Z" fill="#231F20"/>
<path fill-rule="evenodd" clip-rule="evenodd" d="M232.925 182.099C233.613 183.296 233.199 184.824 232.002 185.512L216.421 194.456C215.224 195.144 213.696 194.73 213.008 193.533C212.321 192.335 212.734 190.808 213.932 190.12L229.513 181.175C230.71 180.488 232.238 180.901 232.925 182.099Z" fill="#231F20"/>
<path fill-rule="evenodd" clip-rule="evenodd" d="M88.4594 288.257C89.1793 288.667 89.4304 289.583 89.0203 290.303C86.9949 293.859 84.5421 299.951 83.8295 306.544C83.1177 313.129 84.1555 320.029 88.853 325.478C89.394 326.105 89.3239 327.053 88.6965 327.594C88.069 328.134 87.1219 328.064 86.5809 327.437C81.1537 321.142 80.0822 313.297 80.8469 306.221C81.6109 299.153 84.2204 292.669 86.4136 288.818C86.8237 288.099 87.7396 287.847 88.4594 288.257Z" fill="#231F20"/>
<path fill-rule="evenodd" clip-rule="evenodd" d="M81.0974 278.067C81.4725 278.805 81.1778 279.708 80.4391 280.083C78.7539 280.939 76.2251 282.682 74.2411 285.057C72.2603 287.429 70.9381 290.282 71.2995 293.442C71.3937 294.265 70.8028 295.008 69.9797 295.102C69.1567 295.197 68.4131 294.606 68.319 293.783C67.8316 289.522 69.6494 285.875 71.9386 283.134C74.2245 280.397 77.0955 278.416 79.0808 277.408C79.8195 277.033 80.7223 277.328 81.0974 278.067Z" fill="#231F20"/>
<path fill-rule="evenodd" clip-rule="evenodd" d="M335.406 106.147C335.911 104.797 336.186 103.336 336.186 101.81C336.186 94.9697 330.642 89.4248 323.802 89.4248C316.962 89.4248 311.417 94.9697 311.417 101.81C304.577 101.81 299.033 107.355 299.033 114.195C299.033 121.035 304.578 126.579 311.418 126.579C314.451 126.579 317.23 125.489 319.383 123.679C321.551 127.272 325.493 129.676 329.996 129.676C336.836 129.676 342.381 124.131 342.381 117.291C342.381 112.39 339.535 108.155 335.406 106.147Z" fill="#FFF36C"/>
<path fill-rule="evenodd" clip-rule="evenodd" d="M335.928 116.259C337.163 116.259 338.164 117.26 338.164 118.495C338.164 122.817 334.66 126.322 330.338 126.322C329.103 126.322 328.102 125.32 328.102 124.085C328.102 122.85 329.103 121.849 330.338 121.849C332.19 121.849 333.692 120.347 333.692 118.495C333.692 117.26 334.693 116.259 335.928 116.259Z" fill="#FFE600"/>
<path fill-rule="evenodd" clip-rule="evenodd" d="M316.922 114.022C318.157 114.022 319.158 115.024 319.158 116.259C319.158 120.581 315.654 124.085 311.332 124.085C310.097 124.085 309.096 123.084 309.096 121.849C309.096 120.614 310.097 119.613 311.332 119.613C313.184 119.613 314.686 118.111 314.686 116.259C314.686 115.024 315.687 114.022 316.922 114.022Z" fill="#FFE600"/>
<path fill-rule="evenodd" clip-rule="evenodd" d="M331.457 100.605C332.692 100.605 333.694 101.607 333.694 102.842C333.694 107.164 330.19 110.668 325.867 110.668C324.632 110.668 323.631 109.667 323.631 108.432C323.631 107.197 324.632 106.196 325.867 106.196C327.72 106.196 329.221 104.694 329.221 102.842C329.221 101.607 330.222 100.605 331.457 100.605Z" fill="#FFE600"/>
<path fill-rule="evenodd" clip-rule="evenodd" d="M243.072 86.9304C244.144 86.8172 245.214 86.5138 246.235 86.0043C250.812 83.7196 252.672 78.1563 250.387 73.5784C248.102 69.0004 242.539 67.1413 237.961 69.426L237.961 69.426L237.961 69.426C235.676 64.848 230.113 62.9889 225.535 65.2736C220.957 67.5583 219.098 73.1216 221.383 77.6996C222.396 79.7302 224.054 81.2259 225.986 82.0623C224.305 84.7135 224.013 88.154 225.517 91.1675C227.802 95.7455 233.365 97.6046 237.943 95.3199C241.223 93.6833 243.107 90.3644 243.072 86.9304Z" fill="#FFF36C"/>
<path fill-rule="evenodd" clip-rule="evenodd" d="M238.71 88.3442C239.598 88.5967 240.114 89.5218 239.861 90.4104C238.978 93.5206 235.74 95.3255 232.63 94.4418C231.741 94.1893 231.226 93.2643 231.478 92.3756C231.731 91.487 232.656 90.9713 233.544 91.2238C234.877 91.6025 236.265 90.829 236.643 89.4961C236.896 88.6074 237.821 88.0917 238.71 88.3442Z" fill="#FFE600"/>
<path fill-rule="evenodd" clip-rule="evenodd" d="M233.87 73.7219C234.793 73.6967 235.562 74.4248 235.588 75.3483C235.676 78.5804 233.127 81.2721 229.895 81.3604C228.972 81.3857 228.203 80.6575 228.177 79.734C228.152 78.8106 228.88 78.0415 229.804 78.0163C231.189 77.9784 232.281 76.8249 232.243 75.4397C232.218 74.5162 232.946 73.7472 233.87 73.7219Z" fill="#FFE600"/>
<path fill-rule="evenodd" clip-rule="evenodd" d="M244.892 77.0849C245.811 76.9848 246.636 77.6482 246.736 78.5666C247.086 81.7809 244.764 84.6704 241.55 85.0205C240.632 85.1205 239.806 84.4571 239.706 83.5387C239.606 82.6204 240.27 81.7948 241.188 81.6948C242.565 81.5447 243.561 80.3064 243.411 78.9288C243.31 78.0105 243.974 77.1849 244.892 77.0849Z" fill="#FFE600"/>
</svg>
