<svg width="427" height="430" viewBox="0 0 427 430" fill="none" xmlns="http://www.w3.org/2000/svg">
<path d="M427 215C427 333.741 331.413 430 213.5 430C95.5872 430 0 333.741 0 215C0 96.2588 95.5872 0 213.5 0C331.413 0 427 96.2588 427 215Z" fill="#FF845D"/>
<path fill-rule="evenodd" clip-rule="evenodd" d="M378.774 257.997C379.591 257.863 380.363 258.417 380.497 259.235L379.016 259.478C380.497 259.235 380.497 259.236 380.497 259.236L380.497 259.238L380.498 259.244L380.501 259.262L380.511 259.327C380.519 259.382 380.531 259.462 380.545 259.564C380.573 259.768 380.612 260.064 380.653 260.443C380.736 261.199 380.833 262.284 380.891 263.622C381.007 266.293 380.968 269.988 380.347 274.081C379.107 282.244 375.511 292.184 365.978 298.573C365.29 299.034 364.358 298.85 363.897 298.162C363.436 297.474 363.62 296.542 364.308 296.081C372.865 290.346 376.206 281.361 377.381 273.631C377.966 269.776 378.004 266.283 377.894 263.752C377.839 262.488 377.748 261.469 377.671 260.771C377.633 260.422 377.598 260.153 377.573 259.975C377.561 259.886 377.551 259.819 377.545 259.776L377.538 259.73L377.536 259.72L377.536 259.72C377.536 259.72 377.536 259.72 377.536 259.719M378.774 257.997C377.957 258.131 377.403 258.902 377.536 259.719L378.774 257.997Z" fill="#231F20"/>
<path fill-rule="evenodd" clip-rule="evenodd" d="M391.14 260.548C391.955 260.399 392.736 260.94 392.885 261.755L391.409 262.023C392.885 261.755 392.885 261.754 392.885 261.755L392.886 261.759L392.887 261.768L392.892 261.795C392.896 261.817 392.901 261.849 392.908 261.89C392.922 261.973 392.941 262.091 392.963 262.244C393.009 262.549 393.069 262.992 393.131 263.556C393.256 264.684 393.391 266.299 393.431 268.269C393.512 272.204 393.22 277.591 391.719 283.369C391.51 284.171 390.692 284.652 389.89 284.444C389.088 284.235 388.607 283.417 388.815 282.615C390.229 277.173 390.509 272.074 390.432 268.331C390.393 266.462 390.266 264.938 390.15 263.887C390.092 263.362 390.036 262.956 389.996 262.684C389.976 262.549 389.959 262.447 389.948 262.381C389.943 262.348 389.939 262.324 389.936 262.309L389.933 262.292C389.933 262.292 389.933 262.292 389.933 262.292M391.14 260.548C390.326 260.696 389.785 261.477 389.933 262.292L391.14 260.548Z" fill="#231F20"/>
<path fill-rule="evenodd" clip-rule="evenodd" d="M91.4334 149.688C103.397 102.546 151.317 67.3047 208.611 67.3047C266.763 67.3047 315.258 103.609 326.302 151.813C348.793 176.482 362.335 208.281 362.335 242.989C362.335 321.419 293.183 385 207.879 385C122.576 385 53.4238 321.419 53.4238 242.989C53.4238 207.276 67.7616 174.642 91.4334 149.688Z" fill="#FFDB1E"/>
<path d="M109.495 165.787C113.904 136.74 133.938 127.639 144.18 125.263C226.447 106.181 270.076 142.491 292.741 179.446C311.112 209.401 335.36 283.453 268.306 335.573C249.31 349.928 223.718 354.255 189.312 354.255C165.43 354.255 144.856 349.189 116.38 335.573C64.9429 306.527 62.8292 233.595 72.753 206.634C82.3114 180.666 97.8598 167.905 109.495 165.787Z" fill="#FFF04A"/>
<path d="M116.988 175.581C120.948 149.172 138.989 140.369 147.515 139.269C220.118 118.636 261.223 154.401 281.581 188C298.082 215.235 319.861 282.562 259.634 329.949C242.571 343.001 219.584 346.934 188.68 346.934C167.229 346.934 148.75 342.329 123.173 329.949C76.9716 303.54 75.073 237.232 83.9866 212.719C92.572 189.109 106.538 177.507 116.988 175.581Z" fill="#FCF4E6"/>
<path d="M123.162 180.477C126.844 155.578 143.618 147.279 151.545 146.241C219.053 126.789 257.274 160.508 276.202 192.185C291.545 217.861 311.492 284.776 250.888 329.126C235.023 341.431 218.28 371.823 189.546 371.823C169.6 371.823 152.694 337.685 128.912 326.014C85.9535 301.115 84.1882 238.6 92.4762 215.49C100.459 193.23 113.445 182.292 123.162 180.477Z" fill="#652F17"/>
<path fill-rule="evenodd" clip-rule="evenodd" d="M235.7 299.69C236.727 300.096 237.23 301.259 236.824 302.286C232.296 313.721 225.662 323.677 218.942 331.115C212.293 338.473 205.324 343.624 200.03 345.057C189.858 347.81 182.198 343.958 179.435 341.394C178.625 340.643 178.578 339.378 179.329 338.568C180.08 337.758 181.345 337.711 182.155 338.462C183.988 340.163 190.248 343.56 198.986 341.196C203.147 340.07 209.474 335.626 215.974 328.433C222.402 321.318 228.768 311.765 233.105 300.813C233.511 299.786 234.673 299.283 235.7 299.69Z" fill="white"/>
<path fill-rule="evenodd" clip-rule="evenodd" d="M243.659 178.141C244.216 177.187 245.44 176.865 246.394 177.422C251.405 180.345 256.987 186.805 261.744 193.616C266.546 200.49 270.74 208.061 272.888 213.517C273.293 214.545 272.788 215.706 271.76 216.111C270.733 216.515 269.571 216.01 269.167 214.983C267.163 209.896 263.142 202.603 258.465 195.906C253.742 189.145 248.579 183.327 244.379 180.877C243.425 180.32 243.102 179.095 243.659 178.141Z" fill="white"/>
<path d="M165.834 294.634C147.393 298.485 135.1 272.814 127.724 258.694C122.579 248.847 124.038 231.739 165.83 229.172C191.126 226.771 192.45 225.597 215.946 226.408C218.832 226.507 221.112 228.942 220.808 231.814C216.682 270.818 179.969 291.683 165.834 294.634Z" fill="#57250F"/>
<path d="M168.823 279.259C157.673 281.37 150.24 267.293 145.78 259.55C142.669 254.149 143.551 244.768 168.821 243.36C183.324 242.112 184.795 241.468 197.021 241.784C199.922 241.859 202.244 244.317 201.702 247.168C197.926 267.04 177.05 277.701 168.823 279.259Z" fill="#4B210E"/>
<path fill-rule="evenodd" clip-rule="evenodd" d="M305.172 141.519C301.872 135.21 297.3 129.453 293.736 126.551L296.262 123.449C300.352 126.78 305.237 133.014 308.716 139.666C310.465 143.009 311.897 146.531 312.691 149.923C313.279 152.438 313.536 154.965 313.252 157.328C313.949 157.453 314.707 157.651 315.516 157.97C317.333 158.687 319.281 159.962 321.44 162.171C325.706 166.536 330.97 174.734 337.827 190.189L334.171 191.811C327.362 176.465 322.331 168.805 318.579 164.967C316.729 163.073 315.237 162.16 314.048 161.691C312.863 161.224 311.848 161.142 310.772 161.098L308.19 160.994L308.938 158.521C309.564 156.452 309.497 153.832 308.796 150.835C308.1 147.858 306.813 144.657 305.172 141.519Z" fill="#FFF04A"/>
<path d="M180.143 220.227C179.043 229.996 172.596 237.086 165.745 236.064C158.893 235.041 154.231 226.292 155.331 216.523C156.432 206.754 162.879 199.664 169.73 200.687C176.582 201.71 181.244 210.458 180.143 220.227Z" fill="white"/>
<mask id="mask0" mask-type="alpha" maskUnits="userSpaceOnUse" x="155" y="200" width="26" height="37">
<path d="M180.143 220.227C179.043 229.996 172.596 237.086 165.745 236.064C158.893 235.041 154.231 226.292 155.331 216.523C156.432 206.754 162.879 199.664 169.73 200.687C176.582 201.71 181.244 210.458 180.143 220.227Z" fill="white"/>
</mask>
<g mask="url(#mask0)">
<path d="M171.397 219.53C170.296 229.298 165.793 236.679 161.34 236.014C156.886 235.349 154.168 226.891 155.269 217.122C156.37 207.353 160.872 199.973 165.326 200.637C169.779 201.302 172.497 209.761 171.397 219.53Z" fill="#231F20"/>
</g>
<path fill-rule="evenodd" clip-rule="evenodd" d="M192.352 203.968C192.135 205.601 190.616 206.782 188.96 206.606L161.633 203.704C159.977 203.528 158.809 202.061 159.025 200.428C159.242 198.795 160.761 197.613 162.417 197.789L189.744 200.692C191.401 200.868 192.568 202.335 192.352 203.968Z" fill="#231F20"/>
<path fill-rule="evenodd" clip-rule="evenodd" d="M238.832 256.531C246.451 257.037 253.124 249.957 253.738 240.718C254.353 231.478 248.674 223.577 241.056 223.071C236.935 222.797 233.091 224.742 230.332 228.049C228.035 224.408 224.483 221.971 220.363 221.697C212.744 221.191 206.07 228.271 205.456 237.511C204.842 246.751 210.52 254.652 218.139 255.158C222.26 255.432 226.104 253.486 228.863 250.18C231.16 253.821 234.712 256.257 238.832 256.531Z" fill="#FFB1C2"/>
<path fill-rule="evenodd" clip-rule="evenodd" d="M216.461 234.102C217.205 233.529 218.272 233.667 218.846 234.411L225.092 242.519C225.665 243.263 225.527 244.331 224.783 244.904C224.039 245.477 222.971 245.339 222.398 244.595L216.151 236.487C215.578 235.743 215.717 234.675 216.461 234.102Z" fill="#231F20"/>
<path fill-rule="evenodd" clip-rule="evenodd" d="M232.748 234.791C233.492 234.217 234.559 234.356 235.133 235.1L241.379 243.208C241.953 243.952 241.814 245.02 241.07 245.593C240.326 246.166 239.258 246.027 238.685 245.283L232.438 237.175C231.865 236.431 232.004 235.364 232.748 234.791Z" fill="#231F20"/>
<path fill-rule="evenodd" clip-rule="evenodd" d="M144.361 254.469C150.772 254.895 156.389 248.937 156.905 241.161C157.422 233.385 152.644 226.736 146.232 226.31C142.764 226.079 139.528 227.717 137.207 230.5C135.274 227.436 132.285 225.386 128.818 225.156C122.406 224.73 116.79 230.688 116.273 238.464C115.756 246.24 120.535 252.889 126.946 253.315C130.414 253.546 133.65 251.908 135.972 249.125C137.904 252.189 140.894 254.239 144.361 254.469Z" fill="#FFB1C2"/>
<path fill-rule="evenodd" clip-rule="evenodd" d="M125.539 235.592C126.165 235.11 127.063 235.226 127.546 235.853L132.803 242.676C133.285 243.302 133.169 244.201 132.542 244.683C131.916 245.166 131.018 245.049 130.535 244.423L125.278 237.599C124.796 236.973 124.912 236.075 125.539 235.592Z" fill="#231F20"/>
<path fill-rule="evenodd" clip-rule="evenodd" d="M139.238 236.174C139.864 235.692 140.762 235.809 141.245 236.435L146.502 243.258C146.984 243.884 146.868 244.783 146.242 245.265C145.616 245.748 144.717 245.631 144.235 245.005L138.978 238.181C138.495 237.555 138.612 236.657 139.238 236.174Z" fill="#231F20"/>
<path fill-rule="evenodd" clip-rule="evenodd" d="M206.742 220.322L234.409 215.045C236.037 214.735 237.608 215.802 237.918 217.43C238.229 219.057 237.161 220.628 235.534 220.939L199.414 227.828C195.103 228.65 192.69 223.036 196.254 220.473L231.021 195.476C232.366 194.508 234.24 194.815 235.208 196.16C236.175 197.505 235.868 199.38 234.523 200.347L206.742 220.322Z" fill="#231F20"/>
<path fill-rule="evenodd" clip-rule="evenodd" d="M154.421 239.64C156.057 239.905 157.167 241.447 156.901 243.082C156.282 246.897 155.674 253.257 156.386 259.575C157.107 265.986 159.114 271.732 163.144 275.075C164.674 276.345 166.47 276.636 168.799 275.971C171.255 275.27 174.077 273.539 177.034 271.038C182.919 266.06 188.504 258.749 191.645 253.644C192.513 252.233 194.361 251.793 195.772 252.661C197.183 253.53 197.623 255.378 196.755 256.789C193.394 262.25 187.42 270.11 180.909 275.619C177.667 278.361 174.081 280.702 170.446 281.74C166.685 282.814 162.709 282.511 159.312 279.693C153.489 274.86 151.205 267.193 150.423 260.246C149.631 253.205 150.306 246.262 150.979 242.12C151.245 240.485 152.786 239.374 154.421 239.64Z" fill="#231F20"/>
</svg>
