<svg width="430" height="430" viewBox="0 0 430 430" fill="none" xmlns="http://www.w3.org/2000/svg">
<path d="M430 215C430 333.741 333.741 430 215 430C96.2588 430 0 333.741 0 215C0 96.2588 96.2588 0 215 0C333.741 0 430 96.2588 430 215Z" fill="#449AFF"/>
<path d="M303.504 265.32C281.675 234.716 331.849 153.563 304.803 112.831C299.408 104.273 292.267 97.1074 284.74 90.5347C229.508 44.5564 143.985 62.7349 112.229 127.203C108.026 136.269 104.417 145.719 102.969 155.732C94.8288 203.943 174.161 257.568 166.179 294.509C162.099 313.764 82.6083 377.142 129.738 385.001C135.53 385.813 141.602 385.544 146.874 383.913C170.124 377.949 190.245 364.478 208.589 349.853C210.825 348.356 224.624 338.783 234.129 330.633C240.244 325.758 248.552 323.992 256.121 325.958C268.119 329.538 284.619 332.671 287.27 333.129C310.466 338.925 333.735 342.662 357.504 339.142C363.472 338.384 368.64 336.264 373.6 333.167C413.459 306.817 315.063 281.251 303.504 265.32Z" fill="#FF9900"/>
<path fill-rule="evenodd" clip-rule="evenodd" d="M301.156 267.008L301.149 266.999C295.055 258.454 294.197 246.73 295.423 234.032C296.512 222.746 299.322 210.102 302.167 197.302C302.54 195.62 302.915 193.936 303.286 192.251C306.506 177.632 309.503 162.946 310.051 149.42C310.599 135.892 308.675 123.891 302.394 114.431L302.375 114.402L302.356 114.373C297.186 106.17 290.295 99.2267 282.864 92.7352C229.077 47.9894 145.774 65.696 114.838 128.45C110.69 137.403 107.219 146.549 105.831 156.146L105.827 156.18L105.821 156.213C103.931 167.406 107.082 179.142 113.123 191.271C119.162 203.397 127.918 215.585 136.838 227.625C137.797 228.92 138.759 230.213 139.719 231.505C147.619 242.133 155.427 252.637 161.044 262.6C167.309 273.712 171.235 284.795 169.006 295.116C168.366 298.128 166.378 301.629 163.891 305.243C161.341 308.947 158.016 313.116 154.36 317.515C152.185 320.132 149.893 322.832 147.558 325.583C141.971 332.164 136.136 339.037 131.065 345.769C127.484 350.521 124.352 355.116 122.018 359.381C119.666 363.677 118.227 367.454 117.846 370.601C117.477 373.658 118.114 375.934 119.73 377.684C121.439 379.535 124.616 381.21 130.177 382.142C135.626 382.902 141.243 382.628 146.019 381.15L146.086 381.129L146.155 381.112C168.801 375.303 188.535 362.144 206.786 347.591L206.881 347.517L206.981 347.45C209.186 345.973 222.873 336.475 232.247 328.438L232.286 328.404L232.326 328.372C239.153 322.929 248.398 320.964 256.848 323.16L256.898 323.173L256.948 323.187C268.78 326.717 285.148 329.827 287.763 330.279L287.868 330.297L287.971 330.323C311.038 336.087 333.87 339.718 357.08 336.281L357.11 336.277L357.14 336.273C362.601 335.58 367.366 333.646 372.037 330.733C376.737 327.62 378.959 324.798 379.767 322.412C380.531 320.155 380.188 317.817 378.607 315.175C376.979 312.454 374.128 309.589 370.232 306.621C366.366 303.675 361.636 300.751 356.431 297.866C349.06 293.779 340.935 289.873 333.154 286.134C329.902 284.57 326.709 283.036 323.658 281.529C318.529 278.998 313.796 276.542 309.96 274.195C306.214 271.903 302.972 269.511 301.163 267.018L301.156 267.008ZM129.738 385.001C97.8394 379.682 123.945 348.93 145.415 323.639C155.666 311.563 164.86 300.732 166.179 294.509C169.955 277.034 154.192 255.826 137.392 233.223C118.679 208.045 98.6797 181.137 102.969 155.732C104.417 145.719 108.026 136.269 112.229 127.203C143.985 62.7349 229.508 44.5564 284.74 90.5347C292.267 97.1074 299.408 104.273 304.803 112.831C319.109 134.376 311.81 167.229 304.99 197.93C298.916 225.27 293.221 250.903 303.504 265.32C307.239 270.468 320.044 276.623 334.321 283.485C364.221 297.857 400.578 315.333 373.6 333.167C368.64 336.264 363.472 338.384 357.504 339.142C333.735 342.662 310.466 338.925 287.27 333.129C284.619 332.671 268.119 329.538 256.121 325.958C248.552 323.992 240.244 325.758 234.129 330.633C224.624 338.783 210.825 348.356 208.589 349.853C190.245 364.478 170.124 377.949 146.874 383.913C141.602 385.544 135.53 385.813 129.738 385.001Z" fill="#FFB74B"/>
<path d="M200.453 270.007C202.04 269.669 203.053 268.109 202.715 266.522C202.378 264.935 200.818 263.922 199.231 264.259C197.644 264.597 196.631 266.157 196.968 267.744C197.306 269.331 198.866 270.344 200.453 270.007Z" fill="#FFA719"/>
<path d="M229.603 285.991C231.19 285.654 232.203 284.094 231.866 282.506C231.528 280.919 229.968 279.906 228.381 280.244C226.794 280.581 225.781 282.141 226.119 283.728C226.456 285.315 228.016 286.328 229.603 285.991Z" fill="#FFA719"/>
<path d="M193.338 302.283C194.006 302.141 194.433 301.484 194.291 300.816C194.149 300.147 193.492 299.721 192.823 299.863C192.155 300.005 191.728 300.662 191.871 301.33C192.013 301.999 192.67 302.425 193.338 302.283Z" fill="#FFA719"/>
<path d="M223.497 227.923C226.634 227.256 228.636 224.173 227.969 221.036C227.302 217.899 224.219 215.896 221.082 216.563C217.945 217.23 215.943 220.313 216.61 223.45C217.276 226.587 220.36 228.59 223.497 227.923Z" fill="#FFA719"/>
<path opacity="0.6" d="M271.578 205.031C265.504 232.372 259.81 258.005 270.092 272.421C273.828 277.569 286.633 283.724 300.909 290.587C330.81 304.959 367.166 322.434 340.189 340.268C340.063 340.346 339.937 340.424 339.811 340.502C345.682 340.446 351.577 340.019 357.503 339.142C363.471 338.384 368.639 336.264 373.599 333.166C400.577 315.332 364.22 297.857 334.32 283.485C320.043 276.623 307.238 270.468 303.503 265.319C293.22 250.903 298.915 225.27 304.989 197.929C311.809 167.229 319.107 134.375 304.802 112.831C299.407 104.272 292.265 97.1071 284.739 90.5344C252.34 63.5635 209.517 58.669 173.239 72.2445C200.486 70.5856 228.496 78.6286 251.329 97.6359C258.855 104.209 265.997 111.374 271.391 119.932C285.697 141.477 278.399 174.331 271.578 205.031Z" fill="#FF7A00"/>
<path opacity="0.6" d="M225.324 334.654C229.778 326.823 233.573 305.215 234.485 298.711C239.154 302.646 256.884 322.195 263.861 324.826C264.174 324.911 264.482 324.997 264.786 325.084C264.504 325.039 264.194 324.952 263.861 324.826C253.459 321.991 237.796 319.974 225.324 334.654Z" fill="#FF7A00"/>
<path d="M277.446 309.094C279.784 308.597 281.277 306.299 280.78 303.96C280.283 301.622 277.984 300.129 275.646 300.626C273.308 301.123 271.815 303.422 272.312 305.76C272.809 308.098 275.108 309.591 277.446 309.094Z" fill="#FFA719"/>
<g filter="url(#filter0_f)">
<path d="M267.431 157.623C275.291 194.605 251.684 230.956 214.703 238.817C177.722 246.677 141.371 223.07 133.51 186.089C125.65 149.108 149.256 112.757 186.238 104.896C223.219 97.0355 259.57 120.642 267.431 157.623Z" fill="#FF7A00"/>
</g>
<path fill-rule="evenodd" clip-rule="evenodd" d="M220.451 301.666C221.566 301.977 222.218 303.134 221.906 304.249C214.714 329.998 185.218 360.848 139.831 367.585C138.686 367.755 137.62 366.965 137.45 365.819C137.28 364.674 138.071 363.608 139.216 363.438C183.112 356.922 211.16 327.139 217.868 303.121C218.18 302.006 219.336 301.355 220.451 301.666Z" fill="#FF7A00"/>
<path fill-rule="evenodd" clip-rule="evenodd" d="M144.584 120.146C145.385 120.822 145.486 122.019 144.81 122.82C142.017 126.129 138.347 132.985 135.655 140.481C132.944 148.031 131.417 155.71 132.446 160.743C132.656 161.77 131.994 162.772 130.967 162.982C129.94 163.192 128.938 162.53 128.728 161.503C127.476 155.379 129.337 146.846 132.084 139.199C134.849 131.497 138.706 124.169 141.91 120.372C142.586 119.571 143.783 119.47 144.584 120.146Z" fill="white"/>
<path d="M229.053 173.386C236.314 171.843 240.254 161.435 237.853 150.14C235.452 138.845 227.62 130.939 220.359 132.483C213.097 134.026 209.157 144.434 211.558 155.729C213.959 167.024 221.792 174.93 229.053 173.386Z" fill="white"/>
<path d="M225.716 132.657C221.955 136.511 219.125 144.746 220.988 153.511C222.851 162.276 228.786 168.649 233.79 170.639C237.551 166.786 240.381 158.55 238.518 149.785C236.655 141.02 230.72 134.648 225.716 132.657Z" fill="#231F20"/>
<path d="M186.68 182.396C193.941 180.853 197.881 170.445 195.48 159.15C193.079 147.854 185.247 139.949 177.985 141.493C170.724 143.036 166.784 153.444 169.185 164.739C171.586 176.034 179.419 183.939 186.68 182.396Z" fill="white"/>
<path d="M183.423 141.65C179.662 145.503 176.832 153.739 178.695 162.504C180.558 171.269 186.493 177.641 191.497 179.631C195.258 175.778 198.088 167.543 196.225 158.777C194.362 150.012 188.427 143.64 183.423 141.65Z" fill="#231F20"/>
<path fill-rule="evenodd" clip-rule="evenodd" d="M152.019 148.533C151.676 146.919 152.707 145.333 154.32 144.99L180.615 139.401C182.229 139.058 183.815 140.088 184.158 141.702C184.501 143.315 183.471 144.901 181.857 145.244L155.562 150.834C153.949 151.177 152.362 150.147 152.019 148.533Z" fill="#231F20"/>
<path fill-rule="evenodd" clip-rule="evenodd" d="M194.361 139.532C194.018 137.918 195.048 136.332 196.662 135.989L222.957 130.4C224.571 130.057 226.157 131.087 226.5 132.701C226.843 134.314 225.813 135.901 224.199 136.243L197.904 141.833C196.29 142.176 194.704 141.146 194.361 139.532Z" fill="#231F20"/>
<path fill-rule="evenodd" clip-rule="evenodd" d="M160.353 209.369C160.01 207.755 161.041 206.169 162.654 205.826L240.079 189.369C241.692 189.026 243.278 190.056 243.621 191.67C243.964 193.283 242.934 194.87 241.321 195.213L163.896 211.67C162.283 212.013 160.696 210.983 160.353 209.369Z" fill="black"/>
<path fill-rule="evenodd" clip-rule="evenodd" d="M250.366 180.714C250.366 180.714 250.366 180.714 250.366 180.714L250.366 180.713C250.366 180.713 250.366 180.714 250.366 180.714ZM250.37 180.711C250.369 180.711 250.369 180.711 250.368 180.712L250.37 180.71C250.371 180.71 250.37 180.71 250.37 180.71C250.37 180.711 250.37 180.711 250.37 180.711C250.37 180.711 250.37 180.711 250.37 180.711C250.37 180.711 250.37 180.711 250.37 180.711Z" fill="black"/>
<path d="M312.648 317.414C314.235 317.076 315.248 315.516 314.911 313.929C314.573 312.342 313.013 311.329 311.426 311.667C309.839 312.004 308.826 313.564 309.164 315.151C309.501 316.738 311.061 317.751 312.648 317.414Z" fill="#FFA719"/>
<path d="M165.638 231.002C167.225 230.664 168.238 229.104 167.901 227.517C167.564 225.93 166.004 224.917 164.417 225.254C162.83 225.592 161.816 227.152 162.154 228.739C162.491 230.326 164.051 231.339 165.638 231.002Z" fill="#FFA719"/>
<path d="M162.271 95.2116C163.858 94.8742 164.871 93.3142 164.534 91.7272C164.196 90.1401 162.636 89.1271 161.049 89.4644C159.462 89.8017 158.449 91.3617 158.787 92.9488C159.124 94.5358 160.684 95.5489 162.271 95.2116Z" fill="#FFA719"/>
<path d="M201.548 100.823C203.135 100.486 204.148 98.9256 203.811 97.3385C203.474 95.7515 201.914 94.7384 200.327 95.0757C198.74 95.4131 197.727 96.9731 198.064 98.5601C198.401 100.147 199.961 101.16 201.548 100.823Z" fill="#FFA719"/>
<path d="M263.521 149.128C265.755 148.653 267.181 146.457 266.707 144.223C266.232 141.989 264.035 140.563 261.801 141.038C259.567 141.512 258.141 143.709 258.616 145.943C259.091 148.177 261.287 149.603 263.521 149.128Z" fill="#FFA719"/>
<path d="M244.474 253.655C246.796 253.161 248.278 250.879 247.784 248.558C247.291 246.237 245.009 244.755 242.688 245.248C240.366 245.742 238.884 248.023 239.378 250.345C239.871 252.666 242.153 254.148 244.474 253.655Z" fill="#FFA719"/>
<path d="M163.956 332.839C165.734 332.461 166.869 330.713 166.491 328.935C166.113 327.157 164.365 326.022 162.587 326.4C160.809 326.778 159.674 328.526 160.052 330.304C160.43 332.082 162.178 333.217 163.956 332.839Z" fill="#FFA719"/>
<path fill-rule="evenodd" clip-rule="evenodd" d="M277.515 56.7461C277.632 55.926 278.392 55.3561 279.212 55.4733L279 56.9582C279.212 55.4733 279.213 55.4734 279.214 55.4735L279.215 55.4737L279.221 55.4745L279.236 55.4768L279.291 55.4851C279.336 55.4922 279.402 55.5026 279.485 55.5167C279.653 55.5449 279.893 55.5877 280.199 55.6479C280.808 55.7683 281.677 55.9583 282.731 56.2401C284.837 56.8026 287.701 57.7354 290.734 59.2194C296.779 62.1774 303.666 67.4188 306.321 76.4439C306.555 77.2387 306.1 78.0724 305.305 78.3062C304.51 78.5399 303.677 78.0852 303.443 77.2904C301.12 69.3929 295.067 64.6798 289.415 61.914C286.599 60.5361 283.927 59.6646 281.957 59.1384C280.974 58.8757 280.17 58.7003 279.618 58.5912C279.342 58.5367 279.128 58.4988 278.987 58.475C278.916 58.4631 278.864 58.4547 278.83 58.4495L278.794 58.444L278.788 58.4431L278.787 58.443L278.787 58.443C277.968 58.3254 277.398 57.5659 277.515 56.7461Z" fill="#231F20"/>
<path fill-rule="evenodd" clip-rule="evenodd" d="M282.488 47.8141C282.591 46.9921 283.341 46.409 284.163 46.5117L283.977 48.0002C284.163 46.5117 284.162 46.5117 284.163 46.5117L284.167 46.5123L284.174 46.5132L284.197 46.5162C284.217 46.5188 284.244 46.5224 284.278 46.5273C284.346 46.5369 284.444 46.5513 284.569 46.5711C284.819 46.6108 285.18 46.6723 285.635 46.7616C286.544 46.9402 287.832 47.2303 289.374 47.68C292.452 48.5779 296.57 50.1201 300.699 52.7008C301.401 53.1399 301.615 54.0653 301.176 54.7678C300.737 55.4703 299.811 55.6839 299.109 55.2448C295.275 52.8484 291.428 51.4042 288.534 50.56C287.089 50.1387 285.889 49.869 285.056 49.7053C284.64 49.6236 284.316 49.5684 284.1 49.5342C283.992 49.5171 283.911 49.5052 283.858 49.4978L283.802 49.4901L283.791 49.4886C283.79 49.4886 283.791 49.4886 283.791 49.4886M282.488 47.8141C282.386 48.6359 282.969 49.3855 283.791 49.4886L282.488 47.8141Z" fill="#231F20"/>
<defs>
<filter id="filter0_f" x="96.0886" y="67.4743" width="208.763" height="208.763" filterUnits="userSpaceOnUse" color-interpolation-filters="sRGB">
<feFlood flood-opacity="0" result="BackgroundImageFix"/>
<feBlend mode="normal" in="SourceGraphic" in2="BackgroundImageFix" result="shape"/>
<feGaussianBlur stdDeviation="17.9557" result="effect1_foregroundBlur"/>
</filter>
</defs>
</svg>
