<svg width="430" height="430" viewBox="0 0 430 430" fill="none" xmlns="http://www.w3.org/2000/svg">
<path d="M430 215C430 333.741 333.741 430 215 430C96.2588 430 0 333.741 0 215C0 96.2588 96.2588 0 215 0C333.741 0 430 96.2588 430 215Z" fill="#FFCF52"/>
<mask id="mask0" mask-type="alpha" maskUnits="userSpaceOnUse" x="0" y="0" width="430" height="430">
<path d="M430 215C430 333.741 333.741 430 215 430C96.2588 430 0 333.741 0 215C0 96.2588 96.2588 0 215 0C333.741 0 430 96.2588 430 215Z" fill="#FFCF52"/>
</mask>
<g mask="url(#mask0)">
<path d="M332.021 151.543C323.015 148.855 310.741 149.647 300.511 154.227C290.281 158.807 285.13 165.812 286.302 172.011C277.296 169.323 265.022 170.115 254.792 174.695C244.562 179.275 239.41 186.28 240.582 192.479C231.576 189.79 219.302 190.582 209.073 195.162C198.843 199.742 193.691 206.747 194.863 212.947C185.857 210.258 173.583 211.05 163.353 215.63C153.123 220.21 147.971 227.215 149.144 233.414C140.138 230.726 127.864 231.518 117.634 236.098C107.404 240.678 102.252 247.683 103.424 253.882C94.4183 251.194 82.1444 251.986 71.9145 256.566C57.9778 262.806 53.3664 273.437 61.5011 280.539C67.4832 285.754 78.6665 287.469 89.6643 285.571C83.245 291.468 82.24 298.641 88.2133 303.857C94.1954 309.071 105.379 310.786 116.376 308.888C109.957 314.786 108.952 321.959 114.926 327.175C120.908 332.389 132.091 334.104 143.089 332.206C136.669 338.104 135.664 345.277 141.638 350.492C147.62 355.707 158.803 357.422 169.801 355.524C163.382 361.422 162.377 368.594 168.35 373.81C176.493 380.911 194.082 381.609 208.019 375.368C218.249 370.788 223.401 363.783 222.229 357.584C231.235 360.272 243.509 359.48 253.738 354.9C263.968 350.32 269.12 343.315 267.948 337.116C276.954 339.804 289.228 339.012 299.458 334.432C309.688 329.852 314.84 322.847 313.667 316.648C322.673 319.337 334.947 318.545 345.177 313.965C355.407 309.385 360.559 302.38 359.387 296.18C368.393 298.869 380.667 298.077 390.897 293.497C401.126 288.917 406.278 281.912 405.106 275.713C414.112 278.401 426.386 277.609 436.616 273.029C446.846 268.449 451.998 261.444 450.825 255.245C459.831 257.933 472.105 257.141 482.335 252.561C492.565 247.981 497.717 240.976 496.545 234.777C505.551 237.466 517.825 236.673 528.055 232.094C541.991 225.853 546.603 215.223 538.468 208.12C532.486 202.906 521.303 201.19 510.305 203.089C516.724 197.191 517.729 190.018 511.756 184.802C505.774 179.588 494.59 177.873 483.593 179.771C490.012 173.873 491.017 166.7 485.044 161.485C479.061 156.27 467.878 154.555 456.88 156.453C463.3 150.555 464.305 143.382 458.331 138.167C452.349 132.952 441.166 131.237 430.168 133.135C436.587 127.237 437.592 120.065 431.619 114.849C423.476 107.748 405.887 107.051 391.95 113.291C381.72 117.871 376.568 124.876 377.74 131.076C368.734 128.387 356.46 129.179 346.231 133.759C335.992 138.34 330.849 145.344 332.021 151.543Z" fill="#FFEF36"/>
<path fill-rule="evenodd" clip-rule="evenodd" d="M223.526 350.73C224.612 350.847 225.398 351.821 225.282 352.907C223.776 366.964 213.312 374.496 202.081 377.342C196.46 378.766 190.551 379.056 185.246 378.419C179.973 377.785 175.125 376.214 171.742 373.759C170.859 373.118 170.662 371.881 171.303 370.998C171.945 370.114 173.181 369.918 174.065 370.559C176.716 372.483 180.84 373.907 185.717 374.492C190.562 375.074 195.982 374.807 201.109 373.508C211.373 370.908 220.081 364.33 221.35 352.486C221.466 351.4 222.441 350.614 223.526 350.73Z" fill="#FFD600"/>
<path fill-rule="evenodd" clip-rule="evenodd" d="M268.609 329.197C269.701 329.187 270.594 330.064 270.604 331.156C270.732 344.991 259.786 353.582 248.016 357.541C242.073 359.541 235.732 360.443 230.063 360.274C224.453 360.107 219.236 358.881 215.757 356.356C214.873 355.714 214.677 354.478 215.318 353.594C215.96 352.71 217.196 352.514 218.08 353.155C220.635 355.01 224.927 356.165 230.18 356.321C235.375 356.476 241.25 355.645 246.755 353.793C257.88 350.051 266.754 342.472 266.65 331.192C266.64 330.1 267.517 329.207 268.609 329.197Z" fill="#FFD600"/>
<path fill-rule="evenodd" clip-rule="evenodd" d="M314.494 308.494C315.586 308.508 316.46 309.404 316.447 310.496C316.262 325.617 305.472 333.901 293.691 337.207C287.793 338.863 281.53 339.323 275.942 338.801C270.398 338.283 265.302 336.776 261.886 334.297C261.002 333.655 260.806 332.419 261.447 331.535C262.089 330.651 263.325 330.455 264.209 331.097C266.827 332.997 271.133 334.38 276.309 334.864C281.441 335.343 287.215 334.917 292.622 333.4C303.449 330.361 312.337 323.153 312.492 310.447C312.506 309.355 313.402 308.481 314.494 308.494Z" fill="#FFD600"/>
<path fill-rule="evenodd" clip-rule="evenodd" d="M360.909 288.179C361.999 288.238 362.835 289.17 362.776 290.26C362.005 304.541 351 312.794 339.216 316.315C333.292 318.085 327.027 318.72 321.436 318.341C315.894 317.965 310.785 316.576 307.345 314.079C306.461 313.438 306.265 312.201 306.906 311.317C307.548 310.434 308.784 310.237 309.668 310.879C312.262 312.762 316.53 314.045 321.704 314.395C326.828 314.743 332.618 314.159 338.083 312.526C349.076 309.241 358.185 301.952 358.828 290.047C358.886 288.956 359.818 288.12 360.909 288.179Z" fill="#FFD600"/>
<path fill-rule="evenodd" clip-rule="evenodd" d="M407.19 267.427C408.28 267.486 409.117 268.418 409.058 269.508C408.287 283.778 397.308 292.142 385.539 295.775C379.623 297.602 373.364 298.294 367.775 297.957C362.235 297.623 357.122 296.263 353.677 293.762C352.793 293.121 352.596 291.885 353.238 291.001C353.879 290.117 355.116 289.921 355.999 290.562C358.587 292.441 362.845 293.699 368.012 294.01C373.13 294.318 378.913 293.682 384.372 291.997C395.355 288.606 404.465 281.211 405.109 269.295C405.168 268.204 406.099 267.368 407.19 267.427Z" fill="#FFD600"/>
<path fill-rule="evenodd" clip-rule="evenodd" d="M452.213 247.26C453.303 247.319 454.14 248.251 454.081 249.341C453.311 263.599 442.553 271.839 430.963 275.344C425.144 277.103 418.984 277.726 413.472 277.337C408.005 276.95 402.956 275.551 399.523 273.06C398.639 272.418 398.443 271.182 399.084 270.298C399.726 269.414 400.962 269.218 401.846 269.859C404.446 271.747 408.666 273.033 413.75 273.392C418.79 273.748 424.467 273.177 429.818 271.559C440.569 268.307 449.488 261.055 450.132 249.128C450.191 248.037 451.123 247.201 452.213 247.26Z" fill="#FFD600"/>
<path d="M404.838 109.795C401.495 107.122 396.983 106.424 392.988 107.964L78.9182 229.056C70.8087 232.182 68.5834 242.61 74.71 248.774L168.791 343.443C177.848 352.557 191.594 355.128 203.333 349.905L507.634 214.507C515.877 210.839 517.305 199.741 510.259 194.106L404.838 109.795Z" fill="#4CE5B7"/>
<g filter="url(#filter0_f)">
<path fill-rule="evenodd" clip-rule="evenodd" d="M391.234 120.863L94.0226 235.745C92.8629 236.193 92.5474 237.686 93.4266 238.565L181.574 326.709C187.618 332.753 196.763 334.445 204.57 330.965L491.808 202.907C492.987 202.381 493.188 200.792 492.177 199.989L392.924 121.121C392.446 120.741 391.803 120.643 391.234 120.863ZM387.514 111.238C391.498 109.698 395.999 110.385 399.344 113.042L498.597 191.911C505.671 197.532 504.262 208.652 496.01 212.331L208.772 340.389C197.061 345.61 183.344 343.072 174.277 334.006L86.1303 245.862C79.976 239.708 82.1844 229.258 90.3023 226.12L387.514 111.238Z" fill="#6DFFD3"/>
</g>
<path d="M327.983 114.08C319.292 111.042 307.249 111.269 297.037 115.3C286.825 119.331 281.473 125.966 282.344 132.095C273.653 129.057 261.61 129.283 251.398 133.314C241.186 137.345 235.834 143.981 236.705 150.109C228.014 147.071 215.971 147.298 205.759 151.329C195.547 155.36 190.195 161.995 191.066 168.124C182.375 165.086 170.332 165.313 160.12 169.344C149.908 173.375 144.556 180.01 145.427 186.139C136.736 183.1 124.693 183.327 114.481 187.358C104.269 191.389 98.9167 198.025 99.7874 204.153C91.0964 201.115 79.0535 201.342 68.8415 205.373C54.9292 210.866 49.9444 221.079 57.5863 228.404C63.2063 233.783 74.0706 235.965 84.9143 234.597C78.3716 240.09 77.0689 247.075 82.6804 252.455C88.3004 257.834 99.1647 260.015 110.008 258.647C103.466 264.141 102.163 271.126 107.774 276.506C113.395 281.885 124.259 284.066 135.103 282.698C128.56 288.192 127.257 295.177 132.869 300.556C138.489 305.935 149.353 308.117 160.197 306.749C153.654 312.242 152.351 319.228 157.963 324.607C165.613 331.932 182.79 333.403 196.702 327.91C206.914 323.879 212.266 317.244 211.395 311.115C220.086 314.153 232.129 313.926 242.341 309.895C252.553 305.864 257.905 299.229 257.034 293.1C265.725 296.139 277.768 295.912 287.98 291.881C298.192 287.85 303.544 281.215 302.674 275.086C311.365 278.124 323.407 277.897 333.619 273.866C343.831 269.835 349.184 263.2 348.313 257.071C357.004 260.109 369.047 259.883 379.259 255.852C389.471 251.821 394.823 245.185 393.952 239.057C402.643 242.095 414.686 241.868 424.898 237.837C435.11 233.806 440.462 227.171 439.591 221.042C448.282 224.08 460.325 223.853 470.537 219.822C480.749 215.791 486.101 209.156 485.23 203.027C493.921 206.066 505.964 205.839 516.176 201.808C530.089 196.315 535.073 186.102 527.431 178.777C521.811 173.398 510.947 171.216 500.103 172.584C506.646 167.091 507.949 160.105 502.337 154.726C496.717 149.347 485.853 147.165 475.009 148.533C481.552 143.04 482.855 136.055 477.243 130.675C471.623 125.296 460.759 123.114 449.915 124.482C456.458 118.989 457.76 112.004 452.149 106.624C446.529 101.245 435.665 99.0635 424.821 100.432C431.364 94.9382 432.666 87.9529 427.055 82.5733C419.404 75.2484 402.228 73.7777 388.316 79.2706C378.104 83.3016 372.752 89.9369 373.622 96.0656C364.931 93.0273 352.888 93.2541 342.677 97.2852C332.456 101.317 327.112 107.951 327.983 114.08Z" fill="#FFF04A"/>
<path d="M402.069 69.5952C398.725 66.9213 394.213 66.2242 390.219 67.7643L76.1487 188.856C68.0391 191.982 65.8138 202.409 71.9405 208.574L166.022 303.243C175.079 312.357 188.824 314.928 200.564 309.705L504.864 174.307C513.108 170.639 514.536 159.541 507.489 153.906L402.069 69.5952Z" fill="#FF9900"/>
<g filter="url(#filter1_f)">
<path fill-rule="evenodd" clip-rule="evenodd" d="M389.009 82.9055L90.3397 198.135C89.1817 198.581 88.8638 200.07 89.7384 200.951L178.265 290.1C184.305 296.181 193.474 297.897 201.304 294.411L490.008 165.865C491.185 165.341 491.389 163.756 490.383 162.951L390.703 83.1673C390.225 82.7849 389.58 82.6852 389.009 82.9055ZM385.295 73.2783C389.291 71.7364 393.806 72.4344 397.151 75.1112L496.832 154.895C503.873 160.531 502.445 171.623 494.206 175.292L205.501 303.838C193.756 309.067 180.002 306.493 170.943 297.371L82.4164 208.222C76.2944 202.057 78.5195 191.635 86.6255 188.507L385.295 73.2783Z" fill="#FFB038"/>
</g>
<path d="M324.968 70.3282C316.277 67.2899 304.234 67.5168 294.022 71.5478C283.81 75.5789 278.458 82.2141 279.328 88.3428C270.637 85.3046 258.595 85.5314 248.383 89.5624C238.171 93.5935 232.819 100.229 233.689 106.357C224.998 103.319 212.955 103.546 202.743 107.577C192.531 111.608 187.179 118.243 188.05 124.372C179.359 121.334 167.316 121.561 157.104 125.592C146.892 129.623 141.54 136.258 142.411 142.387C133.72 139.348 121.677 139.575 111.465 143.606C101.253 147.637 95.901 154.273 96.7717 160.401C88.0808 157.363 76.0379 157.59 65.8259 161.621C51.9136 167.114 46.9288 177.327 54.5706 184.652C60.1907 190.031 71.055 192.213 81.8987 190.845C75.356 196.338 74.0533 203.323 79.6648 208.703C85.2848 214.082 96.1491 216.264 106.993 214.895C100.45 220.389 99.1474 227.374 104.759 232.754C110.379 238.133 121.243 240.314 132.087 238.946C125.544 244.44 124.242 251.425 129.853 256.805C135.473 262.183 146.337 264.365 157.181 262.997C150.638 268.49 149.336 275.476 154.947 280.855C162.598 288.18 179.774 289.651 193.686 284.158C203.898 280.127 209.25 273.492 208.38 267.363C217.071 270.401 229.114 270.175 239.326 266.143C249.537 262.112 254.89 255.477 254.019 249.348C262.71 252.387 274.753 252.16 284.965 248.129C295.177 244.098 300.529 237.463 299.658 231.334C308.349 234.372 320.392 234.145 330.604 230.114C340.816 226.083 346.168 219.448 345.297 213.319C353.988 216.358 366.031 216.131 376.243 212.1C386.455 208.069 391.807 201.433 390.936 195.305C399.627 198.343 411.67 198.116 421.882 194.085C432.094 190.054 437.446 183.419 436.576 177.29C445.266 180.328 457.309 180.102 467.521 176.07C477.733 172.039 483.085 165.404 482.215 159.275C490.906 162.314 502.949 162.087 513.161 158.056C527.073 152.563 532.058 142.35 524.416 135.025C518.796 129.646 507.931 127.464 497.088 128.832C503.63 123.339 504.933 116.353 499.322 110.974C493.702 105.595 482.837 103.413 471.994 104.781C478.536 99.2879 479.839 92.3026 474.228 86.923C468.608 81.544 457.743 79.3624 446.899 80.7305C453.442 75.2371 454.745 68.2518 449.133 62.8722C443.513 57.4932 432.649 55.3115 421.805 56.6797C428.348 51.1863 429.651 44.2009 424.039 38.8214C416.389 31.4965 399.212 30.0257 385.3 35.5186C375.088 39.5496 369.736 46.1849 370.607 52.3136C361.916 49.2753 349.873 49.5022 339.661 53.5332C329.44 57.5648 324.097 64.1995 324.968 70.3282Z" fill="#FFF04A"/>
<path fill-rule="evenodd" clip-rule="evenodd" d="M190.09 128.689C191.401 127.314 193.578 127.263 194.953 128.575L195.551 129.145C196.925 130.457 196.976 132.634 195.665 134.008C194.353 135.383 192.176 135.434 190.802 134.122L190.204 133.552C188.829 132.24 188.778 130.063 190.09 128.689ZM200.256 138.39C201.567 137.015 203.745 136.964 205.119 138.276L206.315 139.417C207.689 140.728 207.74 142.906 206.429 144.28C205.117 145.654 202.94 145.705 201.566 144.394L200.37 143.253C198.995 141.941 198.944 139.764 200.256 138.39ZM211.02 148.661C212.331 147.287 214.509 147.236 215.883 148.547L217.079 149.689C218.453 151 218.504 153.177 217.193 154.552C215.881 155.926 213.704 155.977 212.33 154.666L211.134 153.524C209.759 152.213 209.708 150.036 211.02 148.661ZM221.784 158.933C223.095 157.559 225.273 157.508 226.647 158.819L227.843 159.96C229.217 161.272 229.268 163.449 227.957 164.823C226.645 166.198 224.468 166.249 223.094 164.937L221.898 163.796C220.523 162.484 220.472 160.307 221.784 158.933ZM232.548 169.205C233.859 167.83 236.037 167.779 237.411 169.091L238.607 170.232C239.981 171.543 240.032 173.721 238.721 175.095C237.409 176.469 235.232 176.52 233.858 175.209L232.662 174.068C231.288 172.756 231.237 170.579 232.548 169.205ZM243.312 179.476C244.624 178.102 246.801 178.051 248.175 179.362L249.371 180.504C250.745 181.815 250.796 183.992 249.485 185.367C248.173 186.741 245.996 186.792 244.622 185.481L243.426 184.339C242.052 183.028 242.001 180.851 243.312 179.476ZM254.076 189.748C255.388 188.374 257.565 188.323 258.939 189.634L260.135 190.775C261.509 192.087 261.56 194.264 260.249 195.638C258.937 197.013 256.76 197.064 255.386 195.752L254.19 194.611C252.816 193.299 252.765 191.122 254.076 189.748ZM264.84 200.02C266.152 198.645 268.329 198.594 269.703 199.906L270.899 201.047C272.273 202.359 272.324 204.536 271.013 205.91C269.702 207.284 267.524 207.335 266.15 206.024L264.954 204.883C263.58 203.571 263.529 201.394 264.84 200.02ZM275.604 210.291C276.916 208.917 279.093 208.866 280.467 210.177L281.663 211.319C283.038 212.63 283.089 214.807 281.777 216.182C280.466 217.556 278.288 217.607 276.914 216.296L275.718 215.154C274.344 213.843 274.293 211.666 275.604 210.291ZM286.368 220.563C287.68 219.189 289.857 219.138 291.231 220.449L291.829 221.02C293.204 222.331 293.255 224.509 291.943 225.883C290.632 227.257 288.454 227.308 287.08 225.997L286.482 225.426C285.108 224.115 285.057 221.937 286.368 220.563Z" fill="#FED500"/>
<path fill-rule="evenodd" clip-rule="evenodd" d="M325.993 75.4148C327.273 74.0109 329.449 73.9103 330.852 75.1901L331.466 75.7491C332.869 77.0289 332.97 79.2044 331.69 80.6082C330.41 82.0121 328.235 82.1127 326.831 80.8329L326.218 80.2739C324.814 78.9942 324.714 76.8187 325.993 75.4148ZM336.417 84.9172C337.697 83.5133 339.872 83.4127 341.276 84.6925L342.502 85.8104C343.906 87.0902 344.007 89.2657 342.727 90.6696C341.447 92.0734 339.272 92.174 337.868 90.8942L336.642 89.7763C335.238 88.4965 335.137 86.321 336.417 84.9172ZM347.454 94.9785C348.734 93.5746 350.909 93.474 352.313 94.7538L353.539 95.8717C354.943 97.1515 355.044 99.327 353.764 100.731C352.484 102.135 350.309 102.235 348.905 100.956L347.679 99.8376C346.275 98.5579 346.174 96.3824 347.454 94.9785ZM358.491 105.04C359.771 103.636 361.946 103.535 363.35 104.815L364.576 105.933C365.98 107.213 366.081 109.388 364.801 110.792C363.521 112.196 361.346 112.297 359.942 111.017L358.715 109.899C357.312 108.619 357.211 106.444 358.491 105.04ZM369.528 115.101C370.807 113.697 372.983 113.597 374.387 114.876L375.613 115.994C377.017 117.274 377.118 119.45 375.838 120.854C374.558 122.257 372.382 122.358 370.979 121.078L369.752 119.96C368.348 118.681 368.248 116.505 369.528 115.101ZM380.564 125.162C381.844 123.759 384.02 123.658 385.424 124.938L386.65 126.056C388.054 127.336 388.154 129.511 386.875 130.915C385.595 132.319 383.419 132.419 382.015 131.14L380.789 130.022C379.385 128.742 379.285 126.566 380.564 125.162ZM391.601 135.224C392.881 133.82 395.057 133.719 396.46 134.999L397.687 136.117C399.091 137.397 399.191 139.572 397.911 140.976C396.632 142.38 394.456 142.481 393.052 141.201L391.826 140.083C390.422 138.803 390.322 136.628 391.601 135.224ZM402.638 145.285C403.918 143.881 406.093 143.781 407.497 145.06L408.724 146.178C410.128 147.458 410.228 149.634 408.948 151.038C407.669 152.441 405.493 152.542 404.089 151.262L402.863 150.144C401.459 148.865 401.358 146.689 402.638 145.285ZM413.675 155.346C414.955 153.943 417.13 153.842 418.534 155.122L419.761 156.24C421.164 157.519 421.265 159.695 419.985 161.099C418.705 162.503 416.53 162.603 415.126 161.324L413.9 160.206C412.496 158.926 412.395 156.75 413.675 155.346ZM424.712 165.408C425.992 164.004 428.167 163.903 429.571 165.183L430.184 165.742C431.588 167.022 431.689 169.197 430.409 170.601C429.129 172.005 426.954 172.106 425.55 170.826L424.937 170.267C423.533 168.987 423.432 166.812 424.712 165.408Z" fill="#FED500"/>
<path d="M114.424 172.652C114.554 174.547 113.124 176.189 111.229 176.32C109.334 176.45 107.691 175.02 107.561 173.125C107.43 171.23 108.861 169.587 110.756 169.457C112.651 169.326 114.293 170.757 114.424 172.652Z" fill="#FFDB1E"/>
<path d="M252.87 119.735C253.108 121.62 251.773 123.341 249.889 123.579C248.004 123.817 246.283 122.483 246.045 120.598C245.806 118.713 247.141 116.992 249.026 116.754C250.91 116.516 252.631 117.85 252.87 119.735Z" fill="#FFDB1E"/>
<path d="M381.7 68.0034C382.078 69.865 380.875 71.6807 379.014 72.0588C377.152 72.437 375.336 71.2343 374.958 69.3727C374.58 67.5111 375.783 65.6954 377.644 65.3173C379.506 64.9391 381.322 66.1418 381.7 68.0034Z" fill="#FFDB1E"/>
<path d="M137.586 196.052C137.716 197.947 136.286 199.589 134.391 199.72C132.496 199.851 130.854 198.42 130.723 196.525C130.592 194.63 132.023 192.988 133.918 192.857C135.813 192.727 137.455 194.157 137.586 196.052Z" fill="#FFDB1E"/>
<path d="M277.327 141.778C277.565 143.663 276.23 145.384 274.346 145.622C272.461 145.86 270.74 144.526 270.502 142.641C270.264 140.756 271.598 139.035 273.483 138.797C275.367 138.559 277.088 139.893 277.327 141.778Z" fill="#FFDB1E"/>
<path d="M407.731 88.1626C408.109 90.0242 406.906 91.8399 405.045 92.218C403.183 92.5961 401.367 91.3935 400.989 89.5319C400.611 87.6703 401.814 85.8546 403.675 85.4765C405.537 85.0983 407.353 86.3009 407.731 88.1626Z" fill="#FFDB1E"/>
<path d="M174.178 164.223C174.308 166.118 172.878 167.76 170.983 167.891C169.088 168.022 167.445 166.591 167.315 164.696C167.184 162.801 168.614 161.159 170.51 161.028C172.405 160.897 174.047 162.328 174.178 164.223Z" fill="#FFDB1E"/>
<path d="M305.098 108.776C305.273 110.668 303.882 112.343 301.99 112.518C300.098 112.693 298.423 111.301 298.248 109.409C298.073 107.518 299.465 105.843 301.357 105.668C303.248 105.493 304.923 106.884 305.098 108.776Z" fill="#FFDB1E"/>
<path d="M159.148 221.286C159.279 223.181 157.849 224.823 155.953 224.954C154.058 225.084 152.416 223.654 152.285 221.759C152.155 219.863 153.585 218.221 155.48 218.091C157.375 217.96 159.018 219.39 159.148 221.286Z" fill="#FFDB1E"/>
<path d="M300.29 165.743C300.528 167.627 299.193 169.348 297.309 169.587C295.424 169.825 293.703 168.49 293.465 166.606C293.226 164.721 294.561 163 296.446 162.762C298.33 162.524 300.051 163.858 300.29 165.743Z" fill="#FFDB1E"/>
<path d="M432.418 110.348C432.797 112.21 431.594 114.025 429.732 114.404C427.871 114.782 426.055 113.579 425.677 111.717C425.299 109.856 426.501 108.04 428.363 107.662C430.225 107.284 432.04 108.486 432.418 110.348Z" fill="#FFDB1E"/>
<path d="M197.457 189.338C197.588 191.233 196.157 192.876 194.262 193.006C192.367 193.137 190.725 191.706 190.594 189.811C190.463 187.916 191.894 186.274 193.789 186.143C195.684 186.013 197.326 187.443 197.457 189.338Z" fill="#FFDB1E"/>
<path d="M328.958 133.34C329.133 135.232 327.741 136.907 325.849 137.082C323.958 137.257 322.283 135.865 322.108 133.974C321.933 132.082 323.324 130.407 325.216 130.232C327.108 130.057 328.783 131.449 328.958 133.34Z" fill="#FFDB1E"/>
<path d="M186.215 251.312C186.345 253.207 184.915 254.849 183.02 254.98C181.125 255.111 179.482 253.68 179.352 251.785C179.221 249.89 180.652 248.248 182.547 248.117C184.442 247.986 186.084 249.417 186.215 251.312Z" fill="#FFDB1E"/>
<path d="M329.024 194.179C329.262 196.064 327.928 197.785 326.043 198.023C324.158 198.262 322.437 196.927 322.199 195.042C321.961 193.158 323.295 191.437 325.18 191.198C327.065 190.96 328.786 192.295 329.024 194.179Z" fill="#FFDB1E"/>
<path d="M226.24 219.246C226.371 221.142 224.94 222.784 223.045 222.914C221.15 223.045 219.508 221.615 219.377 219.72C219.247 217.824 220.677 216.182 222.572 216.052C224.467 215.921 226.109 217.351 226.24 219.246Z" fill="#FFDB1E"/>
<path d="M358.43 162.567C358.605 164.459 357.214 166.134 355.322 166.309C353.431 166.484 351.755 165.092 351.58 163.2C351.405 161.309 352.797 159.634 354.689 159.459C356.58 159.284 358.255 160.675 358.43 162.567Z" fill="#FFDB1E"/>
<path fill-rule="evenodd" clip-rule="evenodd" d="M210.134 260.657C211.213 260.822 211.955 261.831 211.79 262.91C209.691 276.639 199.115 283.563 187.999 285.852C182.437 286.996 176.644 287.016 171.483 286.152C166.353 285.294 161.677 283.535 158.473 280.971C157.621 280.288 157.483 279.044 158.165 278.191C158.847 277.339 160.092 277.201 160.944 277.883C163.442 279.882 167.4 281.46 172.135 282.252C176.838 283.039 182.14 283.02 187.202 281.978C197.333 279.893 206.118 273.846 207.881 262.313C208.046 261.233 209.054 260.492 210.134 260.657Z" fill="#FFDB1E"/>
<path fill-rule="evenodd" clip-rule="evenodd" d="M255.138 241.572C256.229 241.611 257.082 242.527 257.042 243.619C256.552 257.206 245.455 265.147 233.767 268.502C227.866 270.197 221.623 270.798 216.086 270.377C210.606 269.962 205.552 268.524 202.255 265.885C201.402 265.203 201.264 263.959 201.947 263.106C202.629 262.254 203.873 262.116 204.726 262.798C207.131 264.723 211.263 266.046 216.385 266.434C221.448 266.819 227.22 266.268 232.676 264.701C243.703 261.535 252.692 254.515 253.091 243.476C253.13 242.385 254.046 241.532 255.138 241.572Z" fill="#FFDB1E"/>
<path fill-rule="evenodd" clip-rule="evenodd" d="M300.898 223.338C301.988 223.4 302.821 224.335 302.758 225.425C301.905 240.257 290.976 247.905 279.302 250.621C273.459 251.98 267.312 252.151 261.87 251.388C256.471 250.63 251.549 248.923 248.313 246.333C247.46 245.651 247.322 244.406 248.005 243.554C248.687 242.701 249.931 242.563 250.784 243.246C253.25 245.219 257.387 246.766 262.419 247.471C267.406 248.171 273.062 248.013 278.406 246.769C289.107 244.28 298.095 237.625 298.81 225.198C298.873 224.108 299.807 223.275 300.898 223.338Z" fill="#FFDB1E"/>
<path fill-rule="evenodd" clip-rule="evenodd" d="M347.158 205.509C348.244 205.617 349.038 206.585 348.93 207.672C347.54 221.654 336.401 229.26 324.718 232.186C318.845 233.657 312.689 233.998 307.237 233.375C301.833 232.758 296.892 231.165 293.633 228.557C292.781 227.875 292.643 226.63 293.325 225.778C294.007 224.925 295.252 224.787 296.104 225.469C298.547 227.424 302.651 228.871 307.686 229.446C312.672 230.016 318.35 229.704 323.757 228.35C334.633 225.626 343.84 218.9 344.995 207.281C345.103 206.194 346.071 205.401 347.158 205.509Z" fill="#FFDB1E"/>
<path fill-rule="evenodd" clip-rule="evenodd" d="M393.304 187.243C394.391 187.351 395.184 188.319 395.076 189.406C393.688 203.378 382.57 211.094 370.896 214.13C365.028 215.657 358.875 216.055 353.423 215.473C348.02 214.897 343.074 213.333 339.809 210.72C338.957 210.038 338.819 208.794 339.501 207.941C340.183 207.088 341.428 206.95 342.28 207.633C344.717 209.583 348.812 211.005 353.842 211.541C358.823 212.072 364.497 211.709 369.901 210.303C380.772 207.476 389.985 200.646 391.141 189.015C391.249 187.928 392.218 187.135 393.304 187.243Z" fill="#FFDB1E"/>
<path fill-rule="evenodd" clip-rule="evenodd" d="M438.196 169.495C439.283 169.603 440.076 170.572 439.968 171.659C438.581 185.619 427.685 193.223 416.192 196.142C410.421 197.607 404.369 197.941 398.994 197.312C393.663 196.687 388.783 195.088 385.53 192.485C384.677 191.802 384.539 190.558 385.221 189.705C385.904 188.853 387.148 188.715 388.001 189.397C390.449 191.357 394.506 192.805 399.454 193.384C404.357 193.958 409.923 193.653 415.218 192.309C425.855 189.608 434.876 182.91 436.033 171.267C436.141 170.181 437.11 169.387 438.196 169.495Z" fill="#FFDB1E"/>
<path fill-rule="evenodd" clip-rule="evenodd" d="M483.183 153.035C484.269 153.147 485.058 154.119 484.946 155.205C483.508 169.127 472.57 176.244 461.069 178.706C455.297 179.941 449.247 180.052 443.872 179.264C438.536 178.481 433.668 176.784 430.401 174.23C429.541 173.558 429.389 172.315 430.061 171.455C430.734 170.594 431.976 170.442 432.837 171.114C435.359 173.086 439.477 174.622 444.446 175.351C449.376 176.074 454.95 175.971 460.242 174.839C470.869 172.564 479.823 166.321 481.013 154.799C481.125 153.713 482.096 152.923 483.183 153.035Z" fill="#FFDB1E"/>
<path fill-rule="evenodd" clip-rule="evenodd" d="M213.151 304.409C214.231 304.574 214.972 305.583 214.807 306.662C212.709 320.391 202.133 327.315 191.017 329.604C185.455 330.748 179.661 330.768 174.5 329.904C169.371 329.046 164.695 327.287 161.491 324.723C160.638 324.04 160.5 322.796 161.183 321.943C161.865 321.091 163.109 320.953 163.962 321.635C166.46 323.634 170.418 325.212 175.153 326.004C179.856 326.791 185.157 326.772 190.219 325.73C200.35 323.645 209.135 317.598 210.898 306.065C211.063 304.985 212.072 304.244 213.151 304.409Z" fill="#FFDB1E"/>
<path fill-rule="evenodd" clip-rule="evenodd" d="M258.155 285.323C259.247 285.363 260.099 286.279 260.06 287.371C259.57 300.958 248.473 308.898 236.785 312.254C230.884 313.949 224.641 314.55 219.103 314.129C213.624 313.714 208.57 312.276 205.273 309.637C204.42 308.955 204.282 307.711 204.964 306.858C205.647 306.006 206.891 305.868 207.744 306.55C210.148 308.475 214.281 309.798 219.402 310.186C224.465 310.57 230.237 310.02 235.694 308.453C246.721 305.287 255.71 298.267 256.108 287.228C256.147 286.137 257.064 285.284 258.155 285.323Z" fill="#FFDB1E"/>
<path fill-rule="evenodd" clip-rule="evenodd" d="M303.915 267.089C305.005 267.152 305.838 268.087 305.776 269.177C304.922 284.009 293.994 291.657 282.32 294.373C276.477 295.732 270.33 295.903 264.887 295.139C259.488 294.382 254.566 292.675 251.33 290.085C250.478 289.403 250.34 288.158 251.022 287.306C251.704 286.453 252.949 286.315 253.801 286.998C256.267 288.971 260.405 290.518 265.436 291.223C270.424 291.923 276.08 291.764 281.424 290.521C292.125 288.031 301.112 281.377 301.828 268.95C301.89 267.86 302.825 267.027 303.915 267.089Z" fill="#FFDB1E"/>
<path fill-rule="evenodd" clip-rule="evenodd" d="M350.175 249.26C351.262 249.368 352.055 250.336 351.947 251.423C350.558 265.405 339.419 273.011 327.735 275.937C321.862 277.408 315.707 277.749 310.254 277.126C304.85 276.509 299.91 274.916 296.651 272.308C295.798 271.625 295.66 270.381 296.342 269.529C297.025 268.676 298.269 268.538 299.122 269.22C301.564 271.175 305.668 272.622 310.703 273.197C315.69 273.767 321.368 273.455 326.775 272.101C337.651 269.377 346.857 262.651 348.012 251.032C348.12 249.945 349.089 249.152 350.175 249.26Z" fill="#FFDB1E"/>
<path fill-rule="evenodd" clip-rule="evenodd" d="M396.322 230.995C397.409 231.103 398.202 232.071 398.094 233.158C396.705 247.13 385.588 254.846 373.914 257.882C368.046 259.409 361.893 259.807 356.441 259.225C351.037 258.649 346.092 257.085 342.827 254.472C341.974 253.79 341.836 252.545 342.519 251.693C343.201 250.84 344.445 250.702 345.298 251.385C347.734 253.335 351.83 254.757 356.86 255.293C361.841 255.824 367.514 255.461 372.919 254.055C383.79 251.228 393.003 244.398 394.159 232.767C394.267 231.68 395.235 230.887 396.322 230.995Z" fill="#FFDB1E"/>
<path fill-rule="evenodd" clip-rule="evenodd" d="M441.214 213.247C442.301 213.355 443.094 214.324 442.986 215.411C441.598 229.371 430.703 236.975 419.209 239.894C413.439 241.359 407.386 241.693 402.011 241.064C396.681 240.439 391.8 238.84 388.547 236.237C387.695 235.554 387.557 234.31 388.239 233.457C388.921 232.605 390.166 232.467 391.018 233.149C393.467 235.109 397.524 236.557 402.471 237.136C407.374 237.71 412.941 237.405 418.236 236.061C428.873 233.36 437.894 226.662 439.051 215.019C439.159 213.933 440.127 213.139 441.214 213.247Z" fill="#FFDB1E"/>
<path fill-rule="evenodd" clip-rule="evenodd" d="M160.799 264.512C161.647 264.94 161.986 265.975 161.557 266.822C161.141 267.645 160.842 268.576 160.783 269.424C160.725 270.262 160.906 270.885 161.277 271.327C161.647 271.766 162.429 272.288 164.118 272.469C165.819 272.651 168.297 272.466 171.809 271.613C172.732 271.389 173.662 271.955 173.886 272.878C174.11 273.801 173.544 274.731 172.621 274.955C168.904 275.858 165.998 276.129 163.752 275.889C161.493 275.647 159.762 274.867 158.647 273.543C157.533 272.22 157.253 270.618 157.352 269.187C157.45 267.766 157.924 266.385 158.488 265.27C158.917 264.422 159.951 264.083 160.799 264.512Z" fill="white"/>
<path fill-rule="evenodd" clip-rule="evenodd" d="M137.279 285.957C138.127 286.386 138.467 287.42 138.038 288.268C137.622 289.09 137.322 290.022 137.264 290.869C137.206 291.707 137.386 292.331 137.758 292.772C138.128 293.211 138.91 293.733 140.598 293.914C142.3 294.096 144.777 293.911 148.29 293.058C149.213 292.834 150.142 293.401 150.367 294.324C150.591 295.247 150.024 296.177 149.101 296.401C145.385 297.303 142.478 297.575 140.232 297.334C137.973 297.092 136.243 296.312 135.127 294.988C134.013 293.665 133.734 292.063 133.832 290.632C133.931 289.211 134.405 287.83 134.969 286.715C135.397 285.868 136.432 285.528 137.279 285.957Z" fill="#FFF8B4"/>
<path fill-rule="evenodd" clip-rule="evenodd" d="M147.514 334.383C148.361 334.811 148.701 335.846 148.272 336.694C147.856 337.516 147.557 338.447 147.498 339.295C147.44 340.133 147.621 340.756 147.992 341.198C148.362 341.637 149.144 342.159 150.833 342.34C152.534 342.522 155.011 342.337 158.524 341.484C159.447 341.26 160.377 341.826 160.601 342.749C160.825 343.673 160.258 344.602 159.335 344.826C155.619 345.729 152.713 346 150.467 345.76C148.208 345.518 146.477 344.738 145.362 343.414C144.247 342.091 143.968 340.489 144.067 339.058C144.165 337.637 144.639 336.256 145.203 335.141C145.632 334.293 146.666 333.954 147.514 334.383Z" fill="#FFF8B4"/>
<path fill-rule="evenodd" clip-rule="evenodd" d="M135.803 239.514C136.65 239.943 136.99 240.978 136.561 241.825C136.145 242.648 135.846 243.579 135.787 244.427C135.729 245.265 135.91 245.888 136.281 246.33C136.651 246.769 137.433 247.291 139.122 247.472C140.823 247.654 143.301 247.469 146.813 246.616C147.736 246.392 148.666 246.958 148.89 247.881C149.114 248.804 148.547 249.734 147.624 249.958C143.908 250.861 141.002 251.132 138.756 250.892C136.497 250.65 134.766 249.87 133.651 248.545C132.536 247.223 132.257 245.621 132.356 244.19C132.454 242.769 132.928 241.388 133.492 240.273C133.921 239.425 134.955 239.086 135.803 239.514Z" fill="#FFFCD9"/>
<path fill-rule="evenodd" clip-rule="evenodd" d="M112.285 260.96C113.133 261.388 113.472 262.423 113.044 263.271C112.628 264.093 112.328 265.024 112.27 265.872C112.212 266.71 112.392 267.334 112.764 267.775C113.134 268.214 113.915 268.736 115.604 268.917C117.306 269.099 119.783 268.914 123.295 268.061C124.218 267.837 125.148 268.404 125.372 269.327C125.597 270.25 125.03 271.18 124.107 271.404C120.39 272.306 117.484 272.578 115.238 272.337C112.979 272.095 111.249 271.315 110.133 269.991C109.019 268.668 108.739 267.066 108.838 265.635C108.937 264.214 109.41 262.833 109.974 261.718C110.403 260.871 111.438 260.531 112.285 260.96Z" fill="#FFF8B4"/>
<path fill-rule="evenodd" clip-rule="evenodd" d="M122.518 309.386C123.365 309.814 123.705 310.849 123.276 311.696C122.86 312.519 122.561 313.45 122.502 314.298C122.444 315.136 122.624 315.759 122.996 316.201C123.366 316.64 124.148 317.162 125.837 317.343C127.538 317.525 130.015 317.34 133.528 316.487C134.451 316.263 135.381 316.829 135.605 317.752C135.829 318.675 135.262 319.605 134.339 319.829C130.623 320.732 127.716 321.003 125.47 320.763C123.211 320.521 121.481 319.741 120.365 318.417C119.251 317.094 118.972 315.492 119.071 314.061C119.169 312.64 119.643 311.259 120.207 310.144C120.636 309.296 121.67 308.957 122.518 309.386Z" fill="#FFF8B4"/>
<path fill-rule="evenodd" clip-rule="evenodd" d="M109.27 217.21C110.117 217.638 110.457 218.673 110.028 219.521C109.612 220.343 109.313 221.274 109.254 222.122C109.196 222.96 109.376 223.584 109.748 224.025C110.118 224.464 110.9 224.986 112.588 225.167C114.29 225.349 116.767 225.164 120.28 224.311C121.203 224.087 122.133 224.654 122.357 225.577C122.581 226.5 122.014 227.43 121.091 227.654C117.375 228.556 114.468 228.828 112.222 228.587C109.963 228.345 108.233 227.565 107.117 226.241C106.003 224.918 105.724 223.316 105.823 221.885C105.921 220.464 106.395 219.083 106.959 217.968C107.388 217.121 108.422 216.781 109.27 217.21Z" fill="#FFFCD9"/>
<path fill-rule="evenodd" clip-rule="evenodd" d="M85.7522 238.655C86.5997 239.084 86.9393 240.118 86.5105 240.966C86.0945 241.788 85.7951 242.72 85.7365 243.568C85.6786 244.406 85.8588 245.029 86.2305 245.47C86.6006 245.909 87.3822 246.432 89.0709 246.612C90.7726 246.795 93.2498 246.609 96.7622 245.756C97.6852 245.532 98.6151 246.099 98.8392 247.022C99.0633 247.945 98.4967 248.875 97.5737 249.099C93.8572 250.001 90.9509 250.273 88.7048 250.032C86.4458 249.791 84.7155 249.011 83.5998 247.686C82.4857 246.363 82.2062 244.761 82.3051 243.33C82.4033 241.909 82.8772 240.529 83.4412 239.413C83.87 238.566 84.9046 238.226 85.7522 238.655Z" fill="#FFF8B4"/>
<path fill-rule="evenodd" clip-rule="evenodd" d="M95.9846 287.08C96.8321 287.509 97.1717 288.543 96.743 289.391C96.327 290.213 96.0275 291.145 95.969 291.992C95.911 292.83 96.0912 293.454 96.4629 293.895C96.833 294.334 97.6146 294.856 99.3033 295.037C101.005 295.219 103.482 295.034 106.995 294.181C107.918 293.957 108.848 294.524 109.072 295.447C109.296 296.37 108.729 297.3 107.806 297.524C104.09 298.426 101.183 298.698 98.9372 298.457C96.6782 298.215 94.9479 297.435 93.8322 296.111C92.7181 294.788 92.4387 293.186 92.5375 291.755C92.6357 290.334 93.1096 288.953 93.6737 287.838C94.1024 286.991 95.137 286.651 95.9846 287.08Z" fill="#FFF8B4"/>
<path fill-rule="evenodd" clip-rule="evenodd" d="M86.8459 192.035C87.6935 192.464 88.033 193.498 87.6043 194.346C87.1883 195.168 86.8889 196.1 86.8303 196.948C86.7724 197.786 86.9526 198.409 87.3242 198.85C87.6943 199.289 88.4759 199.812 90.1646 199.992C91.8663 200.174 94.3435 199.989 97.856 199.136C98.779 198.912 99.7089 199.479 99.933 200.402C100.157 201.325 99.5905 202.255 98.6674 202.479C94.9509 203.381 92.0446 203.653 89.7986 203.412C87.5396 203.171 85.8093 202.39 84.6936 201.066C83.5794 199.743 83.3 198.141 83.3989 196.71C83.4971 195.289 83.9709 193.908 84.535 192.793C84.9637 191.946 85.9983 191.606 86.8459 192.035Z" fill="#FFFCD9"/>
<path fill-rule="evenodd" clip-rule="evenodd" d="M63.3283 213.48C64.1759 213.909 64.5154 214.944 64.0867 215.791C63.6707 216.614 63.3713 217.545 63.3127 218.393C63.2548 219.231 63.435 219.854 63.8066 220.295C64.1767 220.735 64.9584 221.257 66.6471 221.438C68.3487 221.62 70.8259 221.434 74.3384 220.582C75.2614 220.358 76.1913 220.924 76.4154 221.847C76.6395 222.77 76.0729 223.7 75.1499 223.924C71.4334 224.826 68.527 225.098 66.281 224.858C64.022 224.616 62.2917 223.836 61.176 222.511C60.0619 221.189 59.7824 219.586 59.8813 218.156C59.9795 216.735 60.4534 215.354 61.0174 214.239C61.4461 213.391 62.4808 213.052 63.3283 213.48Z" fill="#FFF8B4"/>
<path fill-rule="evenodd" clip-rule="evenodd" d="M73.5627 261.906C74.4103 262.335 74.7498 263.369 74.3211 264.217C73.9051 265.039 73.6057 265.971 73.5471 266.819C73.4892 267.657 73.6694 268.28 74.041 268.721C74.4111 269.16 75.1927 269.683 76.8814 269.863C78.5831 270.046 81.0603 269.86 84.5728 269.007C85.4958 268.783 86.4257 269.35 86.6498 270.273C86.8738 271.196 86.3072 272.126 85.3842 272.35C81.6677 273.252 78.7614 273.524 76.5154 273.283C74.2563 273.042 72.526 272.262 71.4104 270.937C70.2962 269.614 70.0168 268.012 70.1157 266.581C70.2139 265.16 70.6877 263.78 71.2518 262.664C71.6805 261.817 72.7151 261.477 73.5627 261.906Z" fill="#FFF8B4"/>
<path fill-rule="evenodd" clip-rule="evenodd" d="M210.526 248.155C211.373 248.584 211.713 249.618 211.284 250.466C210.868 251.288 210.569 252.22 210.51 253.068C210.452 253.906 210.632 254.529 211.004 254.97C211.374 255.409 212.156 255.932 213.844 256.112C215.546 256.295 218.023 256.109 221.536 255.256C222.459 255.032 223.389 255.599 223.613 256.522C223.837 257.445 223.27 258.375 222.347 258.599C218.631 259.501 215.724 259.773 213.478 259.532C211.219 259.291 209.489 258.511 208.373 257.186C207.259 255.863 206.98 254.261 207.079 252.83C207.177 251.409 207.651 250.029 208.215 248.913C208.643 248.066 209.678 247.726 210.526 248.155Z" fill="white"/>
<path fill-rule="evenodd" clip-rule="evenodd" d="M256.643 229.461C257.49 229.889 257.83 230.924 257.401 231.772C256.985 232.594 256.686 233.525 256.627 234.373C256.569 235.211 256.749 235.835 257.121 236.276C257.491 236.715 258.273 237.237 259.962 237.418C261.663 237.6 264.14 237.415 267.653 236.562C268.576 236.338 269.506 236.905 269.73 237.828C269.954 238.751 269.387 239.681 268.464 239.905C264.748 240.807 261.841 241.079 259.595 240.838C257.336 240.596 255.606 239.816 254.49 238.492C253.376 237.169 253.097 235.567 253.196 234.136C253.294 232.715 253.768 231.334 254.332 230.219C254.761 229.372 255.795 229.032 256.643 229.461Z" fill="white"/>
<path fill-rule="evenodd" clip-rule="evenodd" d="M303.737 212.423C304.584 212.851 304.924 213.886 304.495 214.734C304.079 215.556 303.78 216.487 303.721 217.335C303.663 218.173 303.843 218.796 304.215 219.238C304.585 219.677 305.367 220.199 307.055 220.38C308.757 220.562 311.234 220.377 314.747 219.524C315.67 219.3 316.6 219.867 316.824 220.79C317.048 221.713 316.481 222.642 315.558 222.867C311.842 223.769 308.935 224.04 306.689 223.8C304.43 223.558 302.7 222.778 301.584 221.454C300.47 220.131 300.191 218.529 300.289 217.098C300.388 215.677 300.862 214.296 301.426 213.181C301.854 212.333 302.889 211.994 303.737 212.423Z" fill="white"/>
<path fill-rule="evenodd" clip-rule="evenodd" d="M351.69 195.326C352.537 195.755 352.877 196.789 352.448 197.637C352.032 198.459 351.733 199.391 351.674 200.239C351.616 201.077 351.796 201.7 352.168 202.141C352.538 202.58 353.32 203.103 355.008 203.283C356.71 203.465 359.187 203.28 362.7 202.427C363.623 202.203 364.553 202.77 364.777 203.693C365.001 204.616 364.434 205.546 363.511 205.77C359.795 206.672 356.888 206.944 354.642 206.703C352.383 206.462 350.653 205.681 349.537 204.357C348.423 203.034 348.144 201.432 348.243 200.001C348.341 198.58 348.815 197.199 349.379 196.084C349.807 195.237 350.842 194.897 351.69 195.326Z" fill="white"/>
<path fill-rule="evenodd" clip-rule="evenodd" d="M397.867 177.49C398.715 177.919 399.054 178.953 398.626 179.801C398.21 180.623 397.91 181.555 397.852 182.403C397.794 183.241 397.974 183.864 398.346 184.305C398.716 184.744 399.497 185.267 401.186 185.447C402.888 185.63 405.365 185.444 408.877 184.591C409.8 184.367 410.73 184.934 410.954 185.857C411.179 186.78 410.612 187.71 409.689 187.934C405.972 188.836 403.066 189.108 400.82 188.867C398.561 188.626 396.831 187.846 395.715 186.521C394.601 185.198 394.321 183.596 394.42 182.165C394.519 180.744 394.992 179.364 395.556 178.248C395.985 177.401 397.02 177.061 397.867 177.49Z" fill="white"/>
<path d="M155.349 191.672C149.591 192.638 143.708 186.178 142.209 177.242C140.709 168.307 144.161 160.28 149.919 159.314C155.676 158.348 161.559 164.808 163.059 173.743C164.558 182.679 161.107 190.705 155.349 191.672Z" fill="white"/>
<path d="M146.571 160.835C150.435 162.569 154.882 167.777 156.049 174.728C157.215 181.678 155.043 188.507 151.957 191.407C147.483 190.362 143.315 184.01 142.148 177.06C140.982 170.11 142.327 163.93 146.571 160.835Z" fill="#231F20"/>
<path d="M189.867 193.987C184.109 194.953 178.226 188.493 176.726 179.557C175.227 170.622 178.678 162.595 184.436 161.628C190.194 160.662 196.077 167.123 197.577 176.058C199.076 184.994 195.624 193.021 189.867 193.987Z" fill="white"/>
<path d="M181.095 163.15C184.959 164.883 189.406 170.092 190.572 177.042C191.738 183.992 189.566 190.821 186.48 193.721C182.007 192.677 177.838 186.325 176.672 179.375C175.506 172.425 176.85 166.244 181.095 163.15Z" fill="#231F20"/>
<path d="M190.609 225.885C191.451 225.344 198.781 234.904 199.322 235.746C203.408 240.256 208.035 245.607 213.024 245.969C215.248 245.729 216.631 246.03 218.314 244.949C232.863 237.98 219.345 216.937 213.937 208.52C213.937 208.52 211.233 204.312 211.774 205.153C213.157 205.454 191.451 225.344 190.609 225.885Z" fill="#FF845E"/>
<path fill-rule="evenodd" clip-rule="evenodd" d="M199.312 215.857C200.502 214.913 202.231 215.112 203.175 216.302L201.021 218.011L198.867 219.72C197.923 218.53 198.122 216.801 199.312 215.857ZM201.021 218.011C198.867 219.72 198.867 219.72 198.867 219.72L199.404 220.398C199.747 220.83 200.237 221.448 200.827 222.193C202.006 223.682 203.584 225.676 205.179 227.697C206.775 229.717 208.385 231.762 209.628 233.352C210.251 234.148 210.778 234.825 211.165 235.328C211.47 235.724 211.638 235.948 211.708 236.042C211.739 236.082 211.75 236.098 211.746 236.092C212.567 237.37 214.269 237.74 215.546 236.919C216.824 236.098 217.195 234.397 216.374 233.119C216.148 232.768 215.138 231.468 213.961 229.963C212.709 228.363 211.093 226.311 209.496 224.289C207.899 222.265 206.319 220.269 205.138 218.778C204.548 218.033 204.057 217.414 203.714 216.981L203.175 216.302C203.175 216.302 203.175 216.302 201.021 218.011Z" fill="#231F20"/>
<path fill-rule="evenodd" clip-rule="evenodd" d="M150.914 200.763C152.349 200.266 153.916 201.026 154.413 202.462C156.535 208.59 163.729 221.813 180.348 223.353C188.203 224.081 195.334 219.674 201.201 213.241C207.033 206.845 211.167 198.911 212.961 193.806C213.464 192.373 215.034 191.619 216.467 192.123C217.9 192.626 218.653 194.196 218.15 195.629C216.143 201.34 211.656 209.938 205.264 216.947C198.907 223.919 190.207 229.79 179.84 228.83C160.016 226.993 151.615 211.19 149.216 204.261C148.718 202.826 149.479 201.26 150.914 200.763Z" fill="black"/>
</g>
<path fill-rule="evenodd" clip-rule="evenodd" d="M176.594 108.891C177.087 108.225 176.947 107.286 176.281 106.793L175.388 107.999C176.281 106.793 176.28 106.793 176.28 106.792L176.278 106.791L176.274 106.788L176.26 106.778L176.212 106.743C176.172 106.714 176.113 106.672 176.038 106.619C175.887 106.513 175.668 106.363 175.386 106.176C174.822 105.803 174.004 105.286 172.972 104.697C170.91 103.522 167.976 102.053 164.492 100.883C157.544 98.5489 148.214 97.3458 139.274 102.295C138.549 102.697 138.287 103.609 138.688 104.334C139.089 105.059 140.002 105.321 140.727 104.92C148.639 100.54 157.004 101.532 163.537 103.726C166.792 104.82 169.546 106.198 171.486 107.304C172.454 107.856 173.216 108.338 173.731 108.678C173.989 108.849 174.185 108.984 174.314 109.074C174.378 109.12 174.426 109.154 174.457 109.176L174.49 109.2L174.496 109.204L174.496 109.204C174.496 109.204 174.496 109.205 174.496 109.205M174.497 109.205C174.497 109.205 174.497 109.205 174.496 109.205L174.497 109.205ZM176.594 108.891C176.101 109.557 175.162 109.697 174.496 109.205L176.594 108.891Z" fill="black"/>
<path fill-rule="evenodd" clip-rule="evenodd" d="M179.586 98.1357C180.09 97.4787 179.967 96.537 179.31 96.0325L178.396 97.2222C179.31 96.0325 179.31 96.0327 179.31 96.0325L179.306 96.0298L179.3 96.0251L179.28 96.01C179.263 95.9975 179.24 95.9799 179.21 95.9577C179.15 95.9132 179.064 95.8498 178.952 95.7696C178.728 95.6091 178.402 95.3813 177.982 95.1028C177.142 94.5459 175.921 93.7849 174.382 92.9534C171.309 91.293 166.939 89.3374 161.765 88.1776C160.957 87.9963 160.155 88.5047 159.973 89.3131C159.792 90.1214 160.301 90.9237 161.109 91.1049C165.943 92.1886 170.052 94.0235 172.956 95.5928C174.406 96.3761 175.549 97.0896 176.325 97.6036C176.713 97.8605 177.008 98.0672 177.204 98.2075C177.301 98.2776 177.374 98.3311 177.421 98.3659C177.444 98.3832 177.461 98.3959 177.472 98.4037L177.482 98.4117C177.482 98.4118 177.483 98.4123 177.483 98.4124M179.586 98.1357C179.081 98.7927 178.14 98.9165 177.483 98.4124L179.586 98.1357Z" fill="black"/>
<defs>
<filter id="filter0_f" x="74.0006" y="101.83" width="437.746" height="249.843" filterUnits="userSpaceOnUse" color-interpolation-filters="sRGB">
<feFlood flood-opacity="0" result="BackgroundImageFix"/>
<feBlend mode="normal" in="SourceGraphic" in2="BackgroundImageFix" result="shape"/>
<feGaussianBlur stdDeviation="4.2995" result="effect1_foregroundBlur"/>
</filter>
<filter id="filter1_f" x="70.317" y="63.8727" width="439.631" height="251.242" filterUnits="userSpaceOnUse" color-interpolation-filters="sRGB">
<feFlood flood-opacity="0" result="BackgroundImageFix"/>
<feBlend mode="normal" in="SourceGraphic" in2="BackgroundImageFix" result="shape"/>
<feGaussianBlur stdDeviation="4.2995" result="effect1_foregroundBlur"/>
</filter>
</defs>
</svg>
