<svg width="430" height="430" viewBox="0 0 430 430" fill="none" xmlns="http://www.w3.org/2000/svg">
<path d="M430 215C430 333.741 333.741 430 215 430C96.2588 430 0 333.741 0 215C0 96.2588 96.2588 0 215 0C333.741 0 430 96.2588 430 215Z" fill="#FFCF52"/>
<mask id="mask0" mask-type="alpha" maskUnits="userSpaceOnUse" x="0" y="0" width="430" height="430">
<path d="M430 215C430 333.741 333.741 430 215 430C96.2588 430 0 333.741 0 215C0 96.2588 96.2588 0 215 0C333.741 0 430 96.2588 430 215Z" fill="#FFCF52"/>
</mask>
<g mask="url(#mask0)">
<path d="M123.2 418.566C139.223 418.566 152.212 405.578 152.212 389.556C152.212 373.534 139.223 360.546 123.2 360.546C107.177 360.546 94.1875 373.534 94.1875 389.556C94.1875 405.578 107.177 418.566 123.2 418.566Z" fill="#FFB648"/>
<path d="M160.137 439.061C176.161 439.061 189.15 426.073 189.15 410.051C189.15 394.029 176.161 381.041 160.137 381.041C144.114 381.041 131.125 394.029 131.125 410.051C131.125 426.073 144.114 439.061 160.137 439.061Z" fill="#FFB648"/>
<path d="M201.261 448.074C217.284 448.074 230.273 435.086 230.273 419.064C230.273 403.042 217.284 390.054 201.261 390.054C185.237 390.054 172.248 403.042 172.248 419.064C172.248 435.086 185.237 448.074 201.261 448.074Z" fill="#FFB648"/>
<path d="M243.618 446.102C259.641 446.102 272.63 433.114 272.63 417.092C272.63 401.07 259.641 388.082 243.618 388.082C227.595 388.082 214.605 401.07 214.605 417.092C214.605 433.114 227.595 446.102 243.618 446.102Z" fill="#FFB648"/>
<path d="M283.762 433.569C299.786 433.569 312.775 420.581 312.775 404.559C312.775 388.537 299.786 375.549 283.762 375.549C267.739 375.549 254.75 388.537 254.75 404.559C254.75 420.581 267.739 433.569 283.762 433.569Z" fill="#FFB648"/>
<path d="M318.702 411.148C334.725 411.148 347.714 398.16 347.714 382.138C347.714 366.116 334.725 353.128 318.702 353.128C302.679 353.128 289.689 366.116 289.689 382.138C289.689 398.16 302.679 411.148 318.702 411.148Z" fill="#FFB648"/>
<path d="M347.397 381.548C363.42 381.548 376.41 368.559 376.41 352.538C376.41 336.516 363.42 323.527 347.397 323.527C331.374 323.527 318.385 336.516 318.385 352.538C318.385 368.559 331.374 381.548 347.397 381.548Z" fill="#FFB648"/>
<path d="M367.235 346.161C383.258 346.161 396.248 333.173 396.248 317.151C396.248 301.129 383.258 288.141 367.235 288.141C351.212 288.141 338.223 301.129 338.223 317.151C338.223 333.173 351.212 346.161 367.235 346.161Z" fill="#FFB648"/>
<path d="M376.356 306.968C392.379 306.968 405.369 293.979 405.369 277.957C405.369 261.936 392.379 248.947 376.356 248.947C360.333 248.947 347.344 261.936 347.344 277.957C347.344 293.979 360.333 306.968 376.356 306.968Z" fill="#FFB648"/>
<path d="M375.897 266.623C391.92 266.623 404.91 253.635 404.91 237.613C404.91 221.591 391.92 208.603 375.897 208.603C359.874 208.603 346.885 221.591 346.885 237.613C346.885 253.635 359.874 266.623 375.897 266.623Z" fill="#FFB648"/>
<path d="M364.466 228.148C380.489 228.148 393.478 215.16 393.478 199.138C393.478 183.116 380.489 170.128 364.466 170.128C348.442 170.128 335.453 183.116 335.453 199.138C335.453 215.16 348.442 228.148 364.466 228.148Z" fill="#FFB648"/>
<path d="M344.747 192.282C360.77 192.282 373.759 179.294 373.759 163.272C373.759 147.25 360.77 134.262 344.747 134.262C328.724 134.262 315.734 147.25 315.734 163.272C315.734 179.294 328.724 192.282 344.747 192.282Z" fill="#FFB648"/>
<path d="M317.079 163.244C333.102 163.244 346.091 150.256 346.091 134.234C346.091 118.212 333.102 105.224 317.079 105.224C301.056 105.224 288.066 118.212 288.066 134.234C288.066 150.256 301.056 163.244 317.079 163.244Z" fill="#FFB648"/>
<path d="M282.794 142.066C298.817 142.066 311.806 129.078 311.806 113.056C311.806 97.0342 298.817 84.0459 282.794 84.0459C266.771 84.0459 253.781 97.0342 253.781 113.056C253.781 129.078 266.771 142.066 282.794 142.066Z" fill="#FFB648"/>
<path d="M244.124 129.893C260.147 129.893 273.136 116.905 273.136 100.883C273.136 84.8613 260.147 71.873 244.124 71.873C228.101 71.873 215.111 84.8613 215.111 100.883C215.111 116.905 228.101 129.893 244.124 129.893Z" fill="#FFB648"/>
<path d="M202.743 128.253C218.766 128.253 231.755 115.264 231.755 99.2426C231.755 83.2207 218.766 70.2324 202.743 70.2324C186.72 70.2324 173.73 83.2207 173.73 99.2426C173.73 115.264 186.72 128.253 202.743 128.253Z" fill="#FFB648"/>
<path d="M162.218 136.501C178.241 136.501 191.23 123.513 191.23 107.491C191.23 91.4688 178.241 78.4805 162.218 78.4805C146.194 78.4805 133.205 91.4688 133.205 107.491C133.205 123.513 146.194 136.501 162.218 136.501Z" fill="#FFB648"/>
<path d="M125.218 154.959C141.241 154.959 154.23 141.971 154.23 125.949C154.23 109.927 141.241 96.9385 125.218 96.9385C109.194 96.9385 96.2051 109.927 96.2051 125.949C96.2051 141.971 109.194 154.959 125.218 154.959Z" fill="#FFB648"/>
<path d="M94.2488 182.356C110.272 182.356 123.261 169.368 123.261 153.346C123.261 137.324 110.272 124.336 94.2488 124.336C78.2257 124.336 65.2363 137.324 65.2363 153.346C65.2363 169.368 78.2257 182.356 94.2488 182.356Z" fill="#FFB648"/>
<path d="M71.4422 216.831C87.4653 216.831 100.455 203.843 100.455 187.821C100.455 171.799 87.4653 158.811 71.4422 158.811C55.419 158.811 42.4297 171.799 42.4297 187.821C42.4297 203.843 55.419 216.831 71.4422 216.831Z" fill="#FFB648"/>
<path d="M57.7156 253.73C73.7387 253.73 86.7281 240.742 86.7281 224.72C86.7281 208.698 73.7387 195.71 57.7156 195.71C41.6925 195.71 28.7031 208.698 28.7031 224.72C28.7031 240.742 41.6925 253.73 57.7156 253.73Z" fill="#FFB648"/>
<path d="M54.0125 292.914C70.0356 292.914 83.0249 279.926 83.0249 263.904C83.0249 247.882 70.0356 234.894 54.0125 234.894C37.9893 234.894 25 247.882 25 263.904C25 279.926 37.9893 292.914 54.0125 292.914Z" fill="#FFB648"/>
<path d="M60.5828 331.729C76.6059 331.729 89.5953 318.741 89.5953 302.719C89.5953 286.697 76.6059 273.709 60.5828 273.709C44.5596 273.709 31.5703 286.697 31.5703 302.719C31.5703 318.741 44.5596 331.729 60.5828 331.729Z" fill="#FFB648"/>
<path d="M76.9676 367.514C92.9907 367.514 105.98 354.525 105.98 338.503C105.98 322.481 92.9907 309.493 76.9676 309.493C60.9444 309.493 47.9551 322.481 47.9551 338.503C47.9551 354.525 60.9444 367.514 76.9676 367.514Z" fill="#FFB648"/>
<path d="M100.915 396.532C116.938 396.532 129.927 383.544 129.927 367.522C129.927 351.5 116.938 338.512 100.915 338.512C84.8917 338.512 71.9023 351.5 71.9023 367.522C71.9023 383.544 84.8917 396.532 100.915 396.532Z" fill="#FFB648"/>
<path d="M352.752 258.547C352.752 333.506 291.711 394.273 216.414 394.273C141.117 394.273 80.0762 333.506 80.0762 258.547C80.0762 183.587 141.117 122.82 216.414 122.82C291.711 122.82 352.752 183.587 352.752 258.547Z" fill="#FFFCDE"/>
<path d="M338.077 257.935C338.077 325.129 283.333 379.6 215.801 379.6C148.27 379.6 93.5254 325.129 93.5254 257.935C93.5254 190.742 148.27 136.271 215.801 136.271C283.333 136.271 338.077 190.742 338.077 257.935Z" fill="#FF7759"/>
<path d="M126.182 413.401C141.685 413.401 154.254 400.833 154.254 385.331C154.254 369.828 141.685 357.261 126.182 357.261C110.678 357.261 98.1094 369.828 98.1094 385.331C98.1094 400.833 110.678 413.401 126.182 413.401Z" fill="#FFF36C"/>
<path d="M161.922 433.231C177.426 433.231 189.994 420.663 189.994 405.161C189.994 389.658 177.426 377.091 161.922 377.091C146.418 377.091 133.85 389.658 133.85 405.161C133.85 420.663 146.418 433.231 161.922 433.231Z" fill="#FFF36C"/>
<path d="M201.711 441.951C217.215 441.951 229.783 429.384 229.783 413.882C229.783 398.379 217.215 385.812 201.711 385.812C186.207 385.812 173.639 398.379 173.639 413.882C173.639 429.384 186.207 441.951 201.711 441.951Z" fill="#FFF36C"/>
<path d="M242.695 440.043C258.199 440.043 270.767 427.476 270.767 411.973C270.767 396.471 258.199 383.903 242.695 383.903C227.191 383.903 214.623 396.471 214.623 411.973C214.623 427.476 227.191 440.043 242.695 440.043Z" fill="#FFF36C"/>
<path d="M281.539 427.916C297.043 427.916 309.611 415.349 309.611 399.846C309.611 384.344 297.043 371.776 281.539 371.776C266.035 371.776 253.467 384.344 253.467 399.846C253.467 415.349 266.035 427.916 281.539 427.916Z" fill="#FFF36C"/>
<path d="M315.346 406.222C330.849 406.222 343.418 393.655 343.418 378.152C343.418 362.649 330.849 350.082 315.346 350.082C299.842 350.082 287.273 362.649 287.273 378.152C287.273 393.655 299.842 406.222 315.346 406.222Z" fill="#FFF36C"/>
<path d="M343.115 377.581C358.619 377.581 371.187 365.014 371.187 349.511C371.187 334.009 358.619 321.441 343.115 321.441C327.611 321.441 315.043 334.009 315.043 349.511C315.043 365.014 327.611 377.581 343.115 377.581Z" fill="#FFF36C"/>
<path d="M362.307 343.341C377.81 343.341 390.379 330.774 390.379 315.271C390.379 299.769 377.81 287.201 362.307 287.201C346.803 287.201 334.234 299.769 334.234 315.271C334.234 330.774 346.803 343.341 362.307 343.341Z" fill="#FFF36C"/>
<path d="M371.131 305.418C386.635 305.418 399.203 292.851 399.203 277.348C399.203 261.846 386.635 249.278 371.131 249.278C355.627 249.278 343.059 261.846 343.059 277.348C343.059 292.851 355.627 305.418 371.131 305.418Z" fill="#FFF36C"/>
<path d="M370.689 266.381C386.193 266.381 398.762 253.814 398.762 238.311C398.762 222.809 386.193 210.241 370.689 210.241C355.186 210.241 342.617 222.809 342.617 238.311C342.617 253.814 355.186 266.381 370.689 266.381Z" fill="#FFF36C"/>
<path d="M359.631 229.154C375.135 229.154 387.703 216.586 387.703 201.084C387.703 185.581 375.135 173.014 359.631 173.014C344.127 173.014 331.559 185.581 331.559 201.084C331.559 216.586 344.127 229.154 359.631 229.154Z" fill="#FFF36C"/>
<path d="M340.547 194.449C356.051 194.449 368.619 181.881 368.619 166.379C368.619 150.876 356.051 138.309 340.547 138.309C325.043 138.309 312.475 150.876 312.475 166.379C312.475 181.881 325.043 194.449 340.547 194.449Z" fill="#FFF36C"/>
<path d="M313.775 166.353C329.279 166.353 341.848 153.785 341.848 138.283C341.848 122.78 329.279 110.213 313.775 110.213C298.271 110.213 285.703 122.78 285.703 138.283C285.703 153.785 298.271 166.353 313.775 166.353Z" fill="#FFF36C"/>
<path d="M280.603 145.862C296.107 145.862 308.676 133.294 308.676 117.792C308.676 102.289 296.107 89.7217 280.603 89.7217C265.1 89.7217 252.531 102.289 252.531 117.792C252.531 133.294 265.1 145.862 280.603 145.862Z" fill="#FFF36C"/>
<path d="M243.184 134.082C258.687 134.082 271.256 121.515 271.256 106.012C271.256 90.5097 258.687 77.9424 243.184 77.9424C227.68 77.9424 215.111 90.5097 215.111 106.012C215.111 121.515 227.68 134.082 243.184 134.082Z" fill="#FFF36C"/>
<path d="M203.146 132.495C218.65 132.495 231.219 119.928 231.219 104.425C231.219 88.9228 218.65 76.3555 203.146 76.3555C187.643 76.3555 175.074 88.9228 175.074 104.425C175.074 119.928 187.643 132.495 203.146 132.495Z" fill="#FFF36C"/>
<path d="M163.935 140.476C179.439 140.476 192.008 127.909 192.008 112.406C192.008 96.9033 179.439 84.3359 163.935 84.3359C148.432 84.3359 135.863 96.9033 135.863 112.406C135.863 127.909 148.432 140.476 163.935 140.476Z" fill="#FFF36C"/>
<path d="M128.135 158.336C143.639 158.336 156.207 145.769 156.207 130.266C156.207 114.764 143.639 102.196 128.135 102.196C112.631 102.196 100.062 114.764 100.062 130.266C100.062 145.769 112.631 158.336 128.135 158.336Z" fill="#FFF36C"/>
<path d="M98.1679 184.846C113.672 184.846 126.24 172.279 126.24 156.776C126.24 141.273 113.672 128.706 98.1679 128.706C82.6641 128.706 70.0957 141.273 70.0957 156.776C70.0957 172.279 82.6641 184.846 98.1679 184.846Z" fill="#FFF36C"/>
<path d="M76.0995 218.203C91.6034 218.203 104.172 205.636 104.172 190.133C104.172 174.631 91.6034 162.063 76.0995 162.063C60.5957 162.063 48.0273 174.631 48.0273 190.133C48.0273 205.636 60.5957 218.203 76.0995 218.203Z" fill="#FFF36C"/>
<path d="M62.8202 253.907C78.3241 253.907 90.8924 241.339 90.8924 225.837C90.8924 210.334 78.3241 197.767 62.8202 197.767C47.3164 197.767 34.748 210.334 34.748 225.837C34.748 241.339 47.3164 253.907 62.8202 253.907Z" fill="#FFF36C"/>
<path d="M59.2362 291.821C74.7401 291.821 87.3084 279.253 87.3084 263.751C87.3084 248.248 74.7401 235.681 59.2362 235.681C43.7324 235.681 31.1641 248.248 31.1641 263.751C31.1641 279.253 43.7324 291.821 59.2362 291.821Z" fill="#FFF36C"/>
<path d="M65.5917 329.377C81.0956 329.377 93.6639 316.81 93.6639 301.307C93.6639 285.805 81.0956 273.237 65.5917 273.237C50.0879 273.237 37.5195 285.805 37.5195 301.307C37.5195 316.81 50.0879 329.377 65.5917 329.377Z" fill="#FFF36C"/>
<path d="M81.4491 364.001C96.953 364.001 109.521 351.434 109.521 335.931C109.521 320.429 96.953 307.861 81.4491 307.861C65.9453 307.861 53.377 320.429 53.377 335.931C53.377 351.434 65.9453 364.001 81.4491 364.001Z" fill="#FFF36C"/>
<path d="M104.619 392.08C120.123 392.08 132.691 379.513 132.691 364.01C132.691 348.508 120.123 335.94 104.619 335.94C89.1152 335.94 76.5469 348.508 76.5469 364.01C76.5469 379.513 89.1152 392.08 104.619 392.08Z" fill="#FFF36C"/>
<path d="M191.461 112.112C191.175 102.145 186.093 93.4721 178.547 88.3457C187.664 91.8066 191.455 95.5221 193.782 102.332C196.717 110.924 194.677 121.114 187.679 127.614C190.229 123.059 191.623 117.748 191.461 112.112Z" fill="#FFB648"/>
<path d="M230.275 110.722C232.377 101.155 229.516 91.659 223.418 84.9473C231.438 90.4518 234.229 94.9103 234.861 101.964C235.658 110.863 231.246 120.08 222.905 124.581C226.467 120.857 229.086 116.133 230.275 110.722Z" fill="#FFB648"/>
<path d="M266.896 119.105C271.659 110.561 271.651 100.655 267.742 92.4766C273.838 100.054 275.229 105.124 273.805 112.051C272.01 120.792 265.136 128.335 255.855 130.234C260.336 127.7 264.203 123.937 266.896 119.105Z" fill="#FFB648"/>
<path d="M300.157 136.198C306.947 128.813 309.394 119.014 307.586 110.052C311.688 118.909 311.796 124.233 308.682 130.766C304.755 139.009 296.142 144.932 286.568 144.735C291.591 143.231 296.317 140.374 300.157 136.198Z" fill="#FFB648"/>
<path d="M327.179 161.17C335.848 156.072 341.063 147.4 341.957 138.294C343.292 147.966 341.835 153.096 336.938 158.447C330.761 165.198 320.774 168.367 311.659 165.396C316.913 165.416 322.277 164.053 327.179 161.17Z" fill="#FFB648"/>
<path d="M348.77 193.069C358.012 190.159 364.732 182.978 367.461 174.364C366.719 184.048 364.282 188.677 358.55 192.715C351.318 197.81 341.231 198.542 333.238 193.529C338.196 194.778 343.543 194.714 348.77 193.069Z" fill="#FFB648"/>
<path d="M362.688 227.509C372.341 226.673 380.459 221.121 384.992 213.305C382.167 222.597 378.784 226.587 372.312 229.285C364.148 232.689 354.142 231.216 347.427 224.589C351.995 226.883 357.229 227.981 362.688 227.509Z" fill="#FFB648"/>
<path d="M365.785 264.869C375.295 266.722 384.628 263.619 391.137 257.352C385.864 265.508 381.513 268.412 374.548 269.225C365.762 270.251 356.549 266.081 351.916 257.862C355.677 261.325 360.407 263.821 365.785 264.869Z" fill="#FFB648"/>
<path d="M359.915 302.352C368.972 306.318 378.918 305.4 386.736 300.75C379.74 307.527 374.79 309.379 367.691 308.596C358.735 307.607 350.471 301.443 347.632 292.36C350.627 296.597 354.793 300.108 359.915 302.352Z" fill="#FFB648"/>
<path d="M345.302 334.162C352.213 341.057 361.735 343.733 370.66 342.189C361.715 345.998 356.464 345.962 350.195 342.717C342.286 338.622 336.914 329.969 337.622 320.531C338.834 325.527 341.394 330.264 345.302 334.162Z" fill="#FFB648"/>
<path d="M319.571 366.057C325.441 373.856 334.491 377.847 343.545 377.577C334.152 380.087 328.959 379.311 323.21 375.215C315.957 370.047 311.857 360.724 313.888 351.48C314.384 356.596 316.252 361.646 319.571 366.057Z" fill="#FFB648"/>
<path d="M288.833 388.531C292.611 397.532 300.406 403.62 309.25 405.578C299.528 405.708 294.684 403.683 290.115 398.302C284.35 391.514 282.662 381.47 286.897 373.006C286.124 378.087 286.696 383.442 288.833 388.531Z" fill="#FFB648"/>
<path d="M253.926 401.978C254.857 411.695 261.74 420.953 269.602 425.453C260.281 422.686 255.007 418.184 252.244 411.688C248.76 403.492 250.135 393.4 256.696 386.579C254.446 391.2 253.4 396.483 253.926 401.978Z" fill="#FFB648"/>
<path d="M215.569 407.36C214.212 417.026 218.75 427.633 225.348 433.84C216.928 428.979 212.846 423.372 211.673 416.411C210.192 407.629 213.879 398.135 221.848 393.029C218.584 397 216.337 401.893 215.569 407.36Z" fill="#FFB648"/>
<path d="M175.84 402.39C172.228 411.459 174.121 422.84 179.059 430.434C172.032 423.714 169.397 417.299 169.908 410.259C170.552 401.376 176.386 393.028 185.338 389.957C181.226 393.04 177.882 397.261 175.84 402.39Z" fill="#FFB648"/>
<path d="M141.416 387.631C135.132 395.101 133.344 406.499 135.639 415.262C131.086 406.671 130.605 399.753 133.308 393.232C136.717 385.004 144.883 378.918 154.347 378.823C149.473 380.454 144.97 383.407 141.416 387.631Z" fill="#FFB648"/>
<path d="M106.236 369.122C99.9525 376.591 98.1648 387.989 100.459 396.752C95.906 388.162 95.4256 381.243 98.1278 374.722C101.537 366.494 109.703 360.408 119.167 360.313C114.293 361.944 109.79 364.897 106.236 369.122Z" fill="#FFB648"/>
<path d="M88.1161 342.251C80.4056 348.237 76.2679 359.007 76.6738 368.056C74.0232 358.702 75.004 351.836 79.0135 346.026C84.0721 338.696 93.333 334.458 102.606 336.349C97.4983 336.922 92.4763 338.865 88.1161 342.251Z" fill="#FFB648"/>
<path d="M71.488 309.223C62.4392 312.885 55.8557 321.872 53.7832 330.689C53.7789 320.967 56.2618 314.878 61.7014 310.379C68.5642 304.703 78.6292 303.145 87.0375 307.489C81.9664 306.65 76.6051 307.153 71.488 309.223Z" fill="#FFB648"/>
<path d="M60.7815 273.487C51.1829 275.264 42.934 282.751 39.1387 290.976C41.0803 281.449 44.7317 275.98 50.9617 272.661C58.8216 268.473 68.9948 268.961 76.3634 274.9C71.5629 273.063 66.2094 272.483 60.7815 273.487Z" fill="#FFB648"/>
<path d="M63.7278 237.226C54.1256 235.469 43.7517 239.53 37.2773 245.864C42.4829 237.653 47.842 233.842 54.8455 232.958C63.6814 231.842 73.0145 235.919 77.7861 244.093C73.954 240.667 69.1578 238.219 63.7278 237.226Z" fill="#FFB648"/>
<path d="M76.0622 201.211C67.3902 196.73 56.283 197.587 48.2422 201.758C55.6168 195.422 61.8545 193.34 68.8114 194.538C77.5883 196.048 85.326 202.671 87.5056 211.881C84.8395 207.486 80.9662 203.746 76.0622 201.211Z" fill="#FFB648"/>
<path d="M94.7737 170.337C87.6417 163.672 76.718 161.486 67.8477 163.32C76.6638 159.222 83.2324 158.909 89.604 161.948C97.6426 165.781 103.295 174.254 102.896 183.71C101.521 178.757 98.8068 174.106 94.7737 170.337Z" fill="#FFB648"/>
<path d="M120.424 139.552C114.375 131.89 103.905 128.086 94.8594 128.565C104.192 125.839 110.733 126.518 116.575 130.48C123.945 135.479 128.259 144.705 126.443 153.994C125.828 148.89 123.845 143.884 120.424 139.552Z" fill="#FFB648"/>
<path d="M153.106 124.286C151.097 114.734 143.412 106.669 135.098 103.074C144.668 104.784 150.225 108.302 153.694 114.449C158.072 122.205 157.831 132.387 152.072 139.898C153.792 135.054 154.242 129.688 153.106 124.286Z" fill="#FFB648"/>
<g filter="url(#filter0_f)">
<path d="M304.797 325.713C340.961 281.136 334.566 216.028 290.514 180.289L159.553 341.717C203.605 377.455 268.633 370.29 304.797 325.713Z" fill="#FF5C37"/>
</g>
<g filter="url(#filter1_f)">
<path d="M133.409 184.23C161.514 154.366 199.286 144.262 217.775 161.662L115.998 269.809C97.5091 252.409 105.304 214.094 133.409 184.23Z" fill="#FF5C37"/>
</g>
<path d="M148.819 252.424C141.848 252.152 136.539 243.162 136.96 232.343C137.382 221.524 143.375 212.974 150.346 213.245C157.317 213.517 162.627 222.508 162.205 233.326C161.784 244.145 155.791 252.695 148.819 252.424Z" fill="white"/>
<path d="M146.06 214.211C150.158 217.18 154.092 224.357 153.764 232.772C153.436 241.187 149.232 248.648 144.915 251.289C139.936 248.978 136.606 240.531 136.934 232.116C137.262 223.701 140.34 216.798 146.06 214.211Z" fill="#231F20"/>
<path d="M188.636 263.539C181.665 263.268 176.355 254.277 176.776 243.458C177.198 232.639 183.191 224.088 190.162 224.36C197.134 224.631 202.443 233.622 202.022 244.441C201.6 255.261 195.607 263.811 188.636 263.539Z" fill="white"/>
<path d="M185.884 225.326C189.982 228.295 193.916 235.472 193.588 243.887C193.26 252.302 189.056 259.763 184.739 262.404C179.76 260.093 176.43 251.646 176.758 243.231C177.086 234.816 180.164 227.913 185.884 225.326Z" fill="#231F20"/>
<path d="M181.738 301.038C182.854 300.61 189.102 313.579 189.53 314.696C193.212 320.967 197.322 328.354 203.071 329.992C205.731 330.254 207.275 330.942 209.508 330.087C228.226 325.477 217.535 297.567 213.259 286.403C213.259 286.403 211.12 280.821 211.548 281.937C213.092 282.626 182.854 300.61 181.738 301.038Z" fill="#4CE6B7"/>
<path fill-rule="evenodd" clip-rule="evenodd" d="M194.489 291.679C195.97 290.935 197.773 291.532 198.517 293.013L195.836 294.359L193.155 295.706C192.411 294.225 193.009 292.422 194.489 291.679ZM195.836 294.359C193.155 295.706 193.155 295.706 193.155 295.706L193.619 296.63C193.914 297.219 194.337 298.062 194.846 299.076C195.863 301.106 197.224 303.824 198.598 306.576C199.973 309.328 201.359 312.112 202.427 314.276C202.961 315.359 203.414 316.281 203.744 316.964C204.036 317.567 204.184 317.885 204.231 317.986C204.243 318.013 204.249 318.025 204.248 318.022C204.841 319.569 206.575 320.343 208.122 319.75C209.67 319.158 210.444 317.423 209.851 315.876C209.678 315.426 208.823 313.678 207.807 311.62C206.733 309.444 205.342 306.65 203.966 303.895C202.59 301.14 201.228 298.419 200.21 296.388C199.701 295.372 199.277 294.528 198.981 293.939L198.517 293.014C198.517 293.014 198.517 293.013 195.836 294.359Z" fill="#231F20"/>
<path fill-rule="evenodd" clip-rule="evenodd" d="M141.45 262.264C143.093 262.052 144.597 263.212 144.808 264.855C145.805 272.586 151.035 289.952 170.263 295.85C179.401 298.653 188.912 295.176 197.373 289.055C205.79 282.968 212.582 274.662 215.942 269.097C216.798 267.679 218.642 267.223 220.061 268.08C221.479 268.936 221.935 270.78 221.078 272.198C217.357 278.363 210.04 287.299 200.89 293.917C191.785 300.503 180.273 305.196 168.504 301.586C145.918 294.658 139.972 274.269 138.858 265.622C138.646 263.979 139.806 262.475 141.45 262.264Z" fill="black"/>
<path fill-rule="evenodd" clip-rule="evenodd" d="M205.917 82.7381C206.175 81.7584 207.178 81.1733 208.158 81.4311C214.396 83.0728 226.262 90.874 226.227 108.811C226.225 109.824 225.402 110.644 224.389 110.642C223.376 110.64 222.557 109.817 222.559 108.804C222.59 92.8268 212.148 86.2744 207.224 84.9786C206.244 84.7208 205.659 83.7177 205.917 82.7381Z" fill="white"/>
<path fill-rule="evenodd" clip-rule="evenodd" d="M165.116 89.697C165.374 88.7174 166.377 88.1323 167.357 88.3901C173.595 90.0318 185.462 97.833 185.426 115.77C185.424 116.783 184.602 117.603 183.589 117.601C182.576 117.599 181.756 116.776 181.758 115.763C181.79 99.7858 171.347 93.2334 166.423 91.9376C165.444 91.6798 164.858 90.6767 165.116 89.697Z" fill="white"/>
<path fill-rule="evenodd" clip-rule="evenodd" d="M247.085 84.2988C247.422 83.3437 248.47 82.843 249.425 83.1805C255.508 85.3297 266.692 94.0804 265.182 111.954C265.096 112.963 264.209 113.712 263.2 113.627C262.19 113.542 261.441 112.654 261.527 111.645C262.872 95.7246 253.004 88.3356 248.203 86.6392C247.248 86.3017 246.747 85.2539 247.085 84.2988Z" fill="white"/>
<path fill-rule="evenodd" clip-rule="evenodd" d="M290.111 97.2162C290.694 96.3879 291.839 96.1892 292.667 96.7723C297.942 100.486 306.344 111.934 300.058 128.734C299.703 129.683 298.647 130.164 297.698 129.809C296.749 129.454 296.268 128.397 296.623 127.448C302.222 112.484 294.719 102.703 290.555 99.7718C289.727 99.1887 289.528 98.0445 290.111 97.2162Z" fill="white"/>
<path fill-rule="evenodd" clip-rule="evenodd" d="M328.35 121.368C329.152 120.749 330.304 120.898 330.922 121.7C334.862 126.808 339.5 140.23 328.524 154.417C327.904 155.218 326.752 155.365 325.951 154.746C325.15 154.126 325.003 152.974 325.622 152.173C335.399 139.536 331.127 127.972 328.018 123.94C327.399 123.138 327.548 121.986 328.35 121.368Z" fill="white"/>
<path fill-rule="evenodd" clip-rule="evenodd" d="M355.25 150.714C356.052 150.096 357.204 150.244 357.823 151.047C361.178 155.397 365.065 165.798 359.288 177.609C358.843 178.519 357.745 178.896 356.835 178.451C355.925 178.006 355.548 176.907 355.993 175.997C361.053 165.652 357.575 156.732 354.918 153.287C354.299 152.485 354.448 151.333 355.25 150.714Z" fill="white"/>
<path fill-rule="evenodd" clip-rule="evenodd" d="M373.592 186.174C374.394 185.556 375.546 185.704 376.164 186.507C378.742 189.849 381.608 196.709 380.231 205.044C380.066 206.044 379.122 206.72 378.122 206.555C377.123 206.39 376.446 205.446 376.612 204.446C377.806 197.217 375.281 191.368 373.26 188.747C372.641 187.945 372.79 186.793 373.592 186.174Z" fill="white"/>
<path fill-rule="evenodd" clip-rule="evenodd" d="M387.301 225.295C388.108 224.682 389.258 224.838 389.872 225.644C392.428 229.002 395.25 235.881 393.819 244.207C393.647 245.206 392.699 245.876 391.7 245.704C390.702 245.533 390.032 244.584 390.204 243.586C391.445 236.365 388.958 230.5 386.953 227.865C386.339 227.059 386.495 225.908 387.301 225.295Z" fill="white"/>
<path fill-rule="evenodd" clip-rule="evenodd" d="M390.905 266.459C391.83 266.047 392.914 266.463 393.326 267.388C394.641 270.34 395.617 275.287 394.565 280.895C394.378 281.89 393.42 282.546 392.424 282.359C391.429 282.172 390.773 281.214 390.96 280.218C391.872 275.357 390.992 271.164 389.975 268.88C389.563 267.955 389.979 266.871 390.905 266.459Z" fill="white"/>
<path fill-rule="evenodd" clip-rule="evenodd" d="M275.454 173.097C276.05 172.278 277.197 172.097 278.016 172.693C290.445 181.729 300.691 193.19 307.892 206.308C308.379 207.196 308.055 208.311 307.167 208.798C306.279 209.286 305.164 208.961 304.676 208.073C297.748 195.452 287.872 184.394 275.859 175.66C275.04 175.064 274.859 173.917 275.454 173.097Z" fill="white"/>
</g>
<defs>
<filter id="filter0_f" x="128.984" y="149.72" width="229.82" height="245.306" filterUnits="userSpaceOnUse" color-interpolation-filters="sRGB">
<feFlood flood-opacity="0" result="BackgroundImageFix"/>
<feBlend mode="normal" in="SourceGraphic" in2="BackgroundImageFix" result="shape"/>
<feGaussianBlur stdDeviation="15.2845" result="effect1_foregroundBlur"/>
</filter>
<filter id="filter1_f" x="75.3978" y="122.575" width="172.946" height="177.803" filterUnits="userSpaceOnUse" color-interpolation-filters="sRGB">
<feFlood flood-opacity="0" result="BackgroundImageFix"/>
<feBlend mode="normal" in="SourceGraphic" in2="BackgroundImageFix" result="shape"/>
<feGaussianBlur stdDeviation="15.2845" result="effect1_foregroundBlur"/>
</filter>
</defs>
</svg>
