<svg width="430" height="430" viewBox="0 0 430 430" fill="none" xmlns="http://www.w3.org/2000/svg">
<path d="M430 215C430 333.741 333.741 430 215 430C96.2588 430 0 333.741 0 215C0 96.2588 96.2588 0 215 0C333.741 0 430 96.2588 430 215Z" fill="#4CE6B7"/>
<mask id="mask0" mask-type="alpha" maskUnits="userSpaceOnUse" x="0" y="0" width="430" height="430">
<path d="M430 215C430 333.741 333.741 430 215 430C96.2588 430 0 333.741 0 215C0 96.2588 96.2588 0 215 0C333.741 0 430 96.2588 430 215Z" fill="#4CE6B7"/>
</mask>
<g mask="url(#mask0)">
<path d="M452.824 331.84L452.599 330.557C452.346 329.36 451.974 328.173 451.487 326.998L388.2 124.48H157.8L94.5132 326.998C94.0264 328.173 93.6545 329.36 93.4012 330.557L93.1757 331.84C93.059 332.676 93 333.516 93 334.36C93 365.576 173.589 406.72 273 406.72C372.411 406.72 453 365.576 453 334.36C453 333.516 452.941 332.676 452.824 331.84Z" fill="#FFF8AE"/>
<g filter="url(#filter0_f)">
<path fill-rule="evenodd" clip-rule="evenodd" d="M312.336 170.7C329.458 168.228 344.686 164.191 356.921 159.024L411.888 334.919C412.374 336.094 412.746 337.28 413 338.477L413.225 339.761C413.342 340.596 413.401 341.436 413.401 342.281C413.401 356.803 395.959 373.474 367.295 387.151C367.267 386.516 367.217 385.884 367.145 385.253L366.92 383.688C366.666 382.228 366.294 380.782 365.808 379.349L312.336 170.7Z" fill="#FFD978"/>
</g>
<path d="M273.001 173.44C336.624 173.44 388.201 152.97 388.201 127.72C388.201 102.47 336.624 82 273.001 82C209.378 82 157.801 102.47 157.801 127.72C157.801 152.97 209.378 173.44 273.001 173.44Z" fill="#8F4F32"/>
<g filter="url(#filter1_f)">
<path d="M272.999 154C309.98 154 339.959 142.234 339.959 127.72C339.959 113.206 309.98 101.44 272.999 101.44C236.018 101.44 206.039 113.206 206.039 127.72C206.039 142.234 236.018 154 272.999 154Z" fill="#562610"/>
</g>
<path fill-rule="evenodd" clip-rule="evenodd" d="M176.692 118.018C177.677 117.517 178.881 117.908 179.382 118.893C185.553 131.009 211.876 155.706 267.106 152.005C268.208 151.931 269.162 152.764 269.236 153.867C269.309 154.969 268.476 155.922 267.374 155.996C210.86 159.783 182.847 134.511 175.818 120.708C175.317 119.724 175.708 118.519 176.692 118.018Z" fill="white"/>
<path d="M204.851 253.597C198.694 253.361 193.999 245.422 194.366 235.866C194.734 226.31 200.023 218.755 206.181 218.992C212.338 219.228 217.033 227.167 216.665 236.723C216.298 246.279 211.009 253.834 204.851 253.597Z" fill="white"/>
<path d="M202.393 219.846C206.015 222.467 209.493 228.804 209.208 236.237C208.922 243.67 205.212 250.262 201.401 252.597C197.002 250.558 194.056 243.099 194.342 235.666C194.627 228.233 197.343 222.134 202.393 219.846Z" fill="#231F20"/>
<path d="M244.092 250.035C237.934 249.798 233.24 241.86 233.607 232.304C233.974 222.748 239.263 215.193 245.421 215.429C251.578 215.666 256.273 223.604 255.906 233.16C255.539 242.716 250.249 250.271 244.092 250.035Z" fill="white"/>
<path d="M241.635 216.283C245.257 218.903 248.735 225.24 248.45 232.673C248.164 240.106 244.455 246.698 240.643 249.033C236.244 246.994 233.298 239.535 233.584 232.102C233.869 224.669 236.585 218.57 241.635 216.283Z" fill="#231F20"/>
<path d="M223.184 266.058C224.448 266.058 225.712 281.228 225.712 282.492C226.976 290.077 228.24 298.925 233.297 302.718C235.825 303.982 237.089 305.246 239.617 305.246C259.843 307.774 259.843 276.171 259.843 263.53C259.843 263.53 259.843 257.21 259.843 258.474C261.107 259.738 224.448 266.058 223.184 266.058Z" fill="#FD476D"/>
<path fill-rule="evenodd" clip-rule="evenodd" d="M299.434 250.233C299.797 251.849 298.781 253.454 297.165 253.817L184.658 279.1C183.042 279.463 181.437 278.447 181.074 276.83C180.71 275.214 181.726 273.609 183.343 273.246L295.849 247.963C297.466 247.6 299.071 248.616 299.434 250.233Z" fill="#231F20"/>
<path fill-rule="evenodd" clip-rule="evenodd" d="M239.327 261.812C240.975 261.647 242.445 262.85 242.61 264.499L239.625 264.797L236.64 265.096C236.475 263.447 237.678 261.977 239.327 261.812ZM239.625 264.797C236.64 265.096 236.64 265.095 236.64 265.096L236.749 266.183C236.818 266.877 236.916 267.869 237.035 269.063C237.272 271.452 237.588 274.65 237.904 277.888C238.219 281.126 238.535 284.399 238.771 286.94C238.89 288.212 238.987 289.294 239.056 290.094C239.122 290.876 239.147 291.251 239.152 291.328C239.153 291.339 239.153 291.344 239.153 291.344C239.153 293 240.497 294.344 242.153 294.344C243.81 294.344 245.153 293 245.153 291.344C245.153 290.844 244.971 288.808 244.746 286.384C244.508 283.83 244.191 280.545 243.875 277.305C243.559 274.064 243.243 270.862 243.006 268.471C242.887 267.276 242.788 266.283 242.719 265.588L242.61 264.5C242.61 264.5 242.61 264.499 239.625 264.797Z" fill="#231F20"/>
<path fill-rule="evenodd" clip-rule="evenodd" d="M177.482 80.7641C177.612 81.5822 177.055 82.3511 176.236 82.4815C149.442 86.7531 138.554 108.202 136.469 118.303C136.302 119.115 135.508 119.637 134.697 119.469C133.886 119.302 133.364 118.508 133.531 117.697C135.78 106.799 147.358 84.0474 175.764 79.5189C176.582 79.3885 177.351 79.946 177.482 80.7641Z" fill="#231F20"/>
<path fill-rule="evenodd" clip-rule="evenodd" d="M164.539 71.781C164.507 72.6088 163.809 73.2533 162.981 73.2206C146.773 72.5793 137.783 84.0886 135.339 89.862C135.017 90.625 134.136 90.9817 133.373 90.6588C132.61 90.3359 132.254 89.4557 132.577 88.6928C135.324 82.2007 145.234 69.5161 163.1 70.2229C163.928 70.2557 164.572 70.9532 164.539 71.781Z" fill="#231F20"/>
</g>
<defs>
<filter id="filter0_f" x="269.136" y="115.824" width="187.465" height="314.527" filterUnits="userSpaceOnUse" color-interpolation-filters="sRGB">
<feFlood flood-opacity="0" result="BackgroundImageFix"/>
<feBlend mode="normal" in="SourceGraphic" in2="BackgroundImageFix" result="shape"/>
<feGaussianBlur stdDeviation="21.6" result="effect1_foregroundBlur"/>
</filter>
<filter id="filter1_f" x="177.239" y="72.6404" width="191.52" height="110.16" filterUnits="userSpaceOnUse" color-interpolation-filters="sRGB">
<feFlood flood-opacity="0" result="BackgroundImageFix"/>
<feBlend mode="normal" in="SourceGraphic" in2="BackgroundImageFix" result="shape"/>
<feGaussianBlur stdDeviation="14.4" result="effect1_foregroundBlur"/>
</filter>
</defs>
</svg>
