<svg width="430" height="430" viewBox="0 0 430 430" fill="none" xmlns="http://www.w3.org/2000/svg">
<path d="M430 215C430 333.741 333.741 430 215 430C96.2588 430 0 333.741 0 215C0 96.2588 96.2588 0 215 0C333.741 0 430 96.2588 430 215Z" fill="#FF845E"/>
<mask id="mask0" mask-type="alpha" maskUnits="userSpaceOnUse" x="0" y="0" width="430" height="430">
<path d="M430 215C430 333.741 333.741 430 215 430C96.2588 430 0 333.741 0 215C0 96.2588 96.2588 0 215 0C333.741 0 430 96.2588 430 215Z" fill="#FF845D"/>
</mask>
<g mask="url(#mask0)">
<path d="M179.784 -143.605C181.809 -164.434 200.335 -179.677 221.164 -177.652C242.259 -175.601 257.57 -156.646 255.138 -135.59L253.185 -118.682L253.815 -62.7638L240.423 -8.20857L234.042 47.0282L225.774 152.884L227.381 209.15L217.505 258.739L141.389 251.339L151.904 143.175L157.162 89.0926L154.241 46.3472L167.677 -19.0718L176.698 -70.2608L178.193 -127.236L179.784 -143.605Z" fill="#593E2F"/>
<path d="M183.77 7.88507C185.996 1.6311 186.942 -3.93843 183.84 -3.22915L181.642 -1.42083L180.153 3.48952C177.566 9.30394 181.545 14.139 183.77 7.88507Z" fill="#2E1A10"/>
<path d="M204.692 42.2708C206.918 36.0168 207.864 30.4473 204.762 31.1566L202.564 32.9649L201.075 37.8753C198.488 43.6897 202.466 48.5248 204.692 42.2708Z" fill="#2E1A10"/>
<path d="M217.469 129.827C217.84 123.199 217.177 117.589 214.401 119.144L212.802 121.499L212.759 126.63C211.917 132.938 217.098 136.455 217.469 129.827Z" fill="#2E1A10"/>
<path d="M165.426 194.703C167.771 188.493 168.824 182.942 165.709 183.592L163.477 185.358L161.895 190.239C159.196 196.002 163.081 200.913 165.426 194.703Z" fill="#2E1A10"/>
<path d="M202.278 230.106C200.984 223.958 198.954 219.031 196.684 221.237L195.74 223.837L196.976 228.527C197.739 234.517 203.571 236.254 202.278 230.106Z" fill="#2E1A10"/>
<path d="M138.185 466.142C117.756 462.136 133.533 306.793 145.56 249.722L215.697 256.541C205.478 311.232 196.339 467.756 175.321 469.752C161.374 470.416 150.639 468.584 138.185 466.142Z" fill="#FFF36C"/>
<path d="M168.503 312.275C166.9 318.651 169.274 324.603 173.804 325.57C178.335 326.537 183.306 322.152 184.909 315.776C186.511 309.401 184.138 303.449 179.607 302.482C175.077 301.515 170.105 305.9 168.503 312.275Z" fill="white"/>
<mask id="mask1" mask-type="alpha" maskUnits="userSpaceOnUse" x="168" y="302" width="18" height="24">
<path d="M168.503 312.275C166.9 318.651 169.274 324.603 173.804 325.57C178.335 326.537 183.306 322.152 184.909 315.776C186.511 309.401 184.138 303.449 179.607 302.482C175.077 301.515 170.105 305.9 168.503 312.275Z" fill="white"/>
</mask>
<g mask="url(#mask1)">
<path d="M174.245 313.501C172.642 319.876 173.731 325.554 176.675 326.183C179.62 326.811 183.306 322.152 184.909 315.776C186.511 309.401 185.423 303.723 182.479 303.095C179.534 302.466 175.847 307.125 174.245 313.501Z" fill="#231F20"/>
</g>
<path d="M193.884 317.685C192.281 324.061 194.655 330.013 199.185 330.98C203.716 331.947 208.687 327.562 210.29 321.187C211.892 314.811 209.519 308.859 204.988 307.892C200.458 306.925 195.486 311.31 193.884 317.685Z" fill="white"/>
<mask id="mask2" mask-type="alpha" maskUnits="userSpaceOnUse" x="193" y="307" width="18" height="24">
<path d="M193.884 317.478C192.281 323.854 194.655 329.806 199.185 330.773C203.716 331.74 208.687 327.355 210.29 320.98C211.892 314.604 209.519 308.652 204.988 307.685C200.458 306.718 195.486 311.103 193.884 317.478Z" fill="white"/>
</mask>
<g mask="url(#mask2)">
<path d="M199.52 319.298C197.918 325.673 199.006 331.351 201.951 331.979C204.896 332.608 208.582 327.949 210.184 321.573C211.787 315.198 210.699 309.52 207.754 308.891C204.809 308.263 201.123 312.922 199.52 319.298Z" fill="#231F20"/>
</g>
<path fill-rule="evenodd" clip-rule="evenodd" d="M189.57 304.516C189.261 305.854 190.101 307.22 191.445 307.567L209.238 312.16C210.583 312.507 211.922 311.704 212.231 310.366C212.539 309.028 211.7 307.662 210.355 307.315L192.563 302.722C191.218 302.375 189.878 303.178 189.57 304.516Z" fill="#231F20"/>
<path fill-rule="evenodd" clip-rule="evenodd" d="M161.96 297.895C161.652 299.233 162.492 300.599 163.836 300.946L181.629 305.539C182.973 305.886 184.313 305.083 184.622 303.745C184.93 302.407 184.09 301.041 182.746 300.694L164.953 296.101C163.609 295.754 162.269 296.557 161.96 297.895Z" fill="#231F20"/>
<path fill-rule="evenodd" clip-rule="evenodd" d="M174.058 340.697C175.377 340.288 176.777 341.025 177.186 342.344C177.883 344.591 179.212 348.218 181.047 351.482C182.965 354.895 185.085 357.266 187.101 357.945C187.334 358.023 187.415 357.991 187.449 357.978C187.45 357.978 187.451 357.977 187.452 357.977C187.531 357.947 187.746 357.833 188.059 357.442C188.724 356.613 189.388 355.1 189.946 352.983C191.042 348.829 191.457 343.45 191.445 339.865C191.44 338.484 192.555 337.361 193.936 337.356C195.316 337.351 196.44 338.467 196.444 339.847C196.458 343.691 196.025 349.541 194.781 354.258C194.169 356.577 193.29 358.911 191.96 360.569C191.277 361.422 190.382 362.212 189.229 362.651C188.029 363.107 186.754 363.103 185.507 362.684C181.579 361.363 178.673 357.463 176.688 353.932C174.62 350.253 173.168 346.266 172.411 343.825C172.002 342.506 172.739 341.106 174.058 340.697Z" fill="#231F20"/>
<path fill-rule="evenodd" clip-rule="evenodd" d="M144.937 360.86C152.46 364.793 162.426 360.584 167.196 351.46C171.966 342.336 169.734 331.75 162.211 327.817C158.142 325.69 153.357 325.944 149.068 328.071C148.365 323.336 145.844 319.263 141.775 317.137C134.252 313.203 124.286 317.412 119.516 326.536C114.746 335.66 116.978 346.246 124.501 350.179C128.57 352.306 133.354 352.052 137.644 349.925C138.347 354.66 140.868 358.733 144.937 360.86Z" fill="#FF5500"/>
<path fill-rule="evenodd" clip-rule="evenodd" d="M132.091 327.414C133.432 327.084 134.786 327.904 135.116 329.245L137.833 340.296C138.163 341.636 137.343 342.99 136.003 343.32C134.662 343.65 133.308 342.83 132.978 341.489L130.261 330.439C129.931 329.098 130.751 327.744 132.091 327.414Z" fill="#231F20"/>
<path fill-rule="evenodd" clip-rule="evenodd" d="M148.349 335.421C149.69 335.091 151.044 335.911 151.374 337.251L154.091 348.302C154.421 349.643 153.601 350.997 152.26 351.327C150.92 351.657 149.566 350.837 149.236 349.496L146.519 338.445C146.189 337.105 147.009 335.75 148.349 335.421Z" fill="#231F20"/>
<path d="M153.83 122.923L157.325 84.4834L222.847 198.056L153.83 122.923Z" fill="#231F20"/>
<path d="M104.57 -104.434C98.2546 -124.385 109.309 -145.678 129.26 -151.993C149.467 -158.389 170.991 -146.967 177.02 -126.647L181.862 -110.33L204.395 -59.1481L213.497 -3.71565L229.314 49.5913L263.267 150.194L286.835 201.311L297.221 250.796L224.312 273.874L191.517 170.266L175.12 118.461L155.652 80.2949L142.326 14.8532L130.526 -35.7672L109.532 -88.755L104.57 -104.434Z" fill="#826050"/>
<path d="M167.713 33.3276C167.305 26.702 165.989 21.2082 163.414 23.0784L162.103 25.6044L162.661 30.7049C162.565 37.0682 168.122 39.9532 167.713 33.3276Z" fill="#593E2F"/>
<path d="M200.45 56.7387C200.041 50.1132 198.725 44.6193 196.15 46.4895L194.839 49.0155L195.398 54.116C195.301 60.4793 200.858 63.3643 200.45 56.7387Z" fill="#593E2F"/>
<path d="M246.581 132.248C244.32 126.007 241.508 121.107 239.565 123.628L239.019 126.421L240.994 131.157C242.696 137.289 248.841 138.489 246.581 132.248Z" fill="#593E2F"/>
<path d="M224.182 212.348C223.901 205.716 222.69 200.198 220.08 202.018L218.72 204.518L219.181 209.629C218.962 215.989 224.463 218.98 224.182 212.348Z" fill="#593E2F"/>
<path d="M271.976 230.441C268.372 225.295 264.571 221.56 263.349 224.48L263.502 227.242L266.479 231.07C269.533 236.28 275.579 235.588 271.976 230.441Z" fill="#593E2F"/>
<path d="M305.699 472.689C285.336 477.025 238.86 327.96 227.515 270.75L294.698 249.485C306.772 303.797 359.817 451.342 341.27 461.429C328.703 467.516 318.111 470.045 305.699 472.689Z" fill="#FFF36C"/>
<path d="M285.927 310.528C287.529 316.904 285.156 322.856 280.625 323.823C276.095 324.79 271.123 320.405 269.521 314.029C267.918 307.654 270.292 301.702 274.822 300.735C279.353 299.768 284.325 304.153 285.927 310.528Z" fill="white"/>
<mask id="mask3" mask-type="alpha" maskUnits="userSpaceOnUse" x="269" y="300" width="18" height="24">
<path d="M285.927 310.528C287.529 316.904 285.156 322.856 280.625 323.823C276.095 324.79 271.123 320.405 269.521 314.029C267.918 307.654 270.292 301.702 274.822 300.735C279.353 299.768 284.325 304.153 285.927 310.528Z" fill="white"/>
</mask>
<g mask="url(#mask3)">
<path d="M280.185 311.754C281.787 318.129 280.699 323.807 277.754 324.435C274.81 325.064 271.123 320.405 269.521 314.029C267.918 307.654 269.006 301.976 271.951 301.347C274.896 300.719 278.582 305.378 280.185 311.754Z" fill="#231F20"/>
</g>
<path d="M260.546 315.938C262.149 322.314 259.775 328.266 255.245 329.233C250.714 330.2 245.742 325.815 244.14 319.44C242.537 313.064 244.911 307.112 249.441 306.145C253.972 305.178 258.944 309.563 260.546 315.938Z" fill="white"/>
<mask id="mask4" mask-type="alpha" maskUnits="userSpaceOnUse" x="243" y="305" width="19" height="25">
<path d="M260.546 315.731C262.149 322.107 259.775 328.059 255.245 329.026C250.714 329.993 245.742 325.608 244.14 319.232C242.537 312.857 244.911 306.905 249.441 305.938C253.972 304.971 258.944 309.356 260.546 315.731Z" fill="white"/>
</mask>
<g mask="url(#mask4)">
<path d="M254.909 317.55C256.512 323.926 255.424 329.604 252.479 330.232C249.534 330.861 245.848 326.202 244.245 319.826C242.643 313.451 243.731 307.773 246.676 307.144C249.621 306.516 253.307 311.175 254.909 317.55Z" fill="#231F20"/>
</g>
<path fill-rule="evenodd" clip-rule="evenodd" d="M264.862 302.769C265.17 304.107 264.331 305.473 262.986 305.82L245.193 310.413C243.849 310.76 242.509 309.957 242.201 308.619C241.892 307.281 242.732 305.915 244.076 305.568L261.869 300.975C263.213 300.628 264.553 301.431 264.862 302.769Z" fill="#231F20"/>
<path fill-rule="evenodd" clip-rule="evenodd" d="M292.469 296.148C292.778 297.486 291.938 298.852 290.594 299.199L272.801 303.792C271.456 304.139 270.117 303.336 269.808 301.998C269.5 300.66 270.339 299.294 271.684 298.947L289.477 294.354C290.821 294.007 292.161 294.81 292.469 296.148Z" fill="#231F20"/>
<path fill-rule="evenodd" clip-rule="evenodd" d="M266.661 337.202C267.98 336.792 269.381 337.53 269.79 338.849C270.487 341.095 271.815 344.723 273.65 347.987C275.569 351.4 277.688 353.771 279.705 354.45C279.937 354.528 280.019 354.496 280.053 354.483C280.054 354.483 280.055 354.482 280.056 354.482C280.134 354.452 280.349 354.338 280.663 353.947C281.327 353.118 281.991 351.605 282.55 349.488C283.645 345.334 284.061 339.955 284.048 336.37C284.043 334.989 285.159 333.866 286.539 333.861C287.92 333.856 289.043 334.971 289.048 336.352C289.061 340.196 288.629 346.045 287.384 350.763C286.773 353.082 285.893 355.416 284.564 357.074C283.88 357.927 282.986 358.717 281.832 359.156C280.632 359.612 279.357 359.608 278.111 359.189C274.183 357.868 271.276 353.968 269.292 350.437C267.223 346.758 265.771 342.77 265.014 340.33C264.605 339.011 265.343 337.611 266.661 337.202Z" fill="#231F20"/>
<path fill-rule="evenodd" clip-rule="evenodd" d="M335.007 318.588C339.49 311.379 336.038 301.127 327.295 295.689C318.553 290.251 307.831 291.686 303.347 298.894C300.921 302.793 300.818 307.583 302.618 312.019C297.844 312.367 293.595 314.577 291.17 318.475C286.686 325.683 290.139 335.936 298.881 341.374C307.624 346.812 318.346 345.377 322.83 338.169C325.256 334.269 325.359 329.48 323.559 325.043C328.333 324.696 332.582 322.486 335.007 318.588Z" fill="#FF5500"/>
<path fill-rule="evenodd" clip-rule="evenodd" d="M300.698 328.898C300.469 327.536 301.387 326.247 302.749 326.018L313.972 324.134C315.334 323.905 316.623 324.824 316.851 326.185C317.08 327.547 316.162 328.836 314.8 329.065L303.577 330.949C302.215 331.178 300.926 330.259 300.698 328.898Z" fill="#231F20"/>
<path fill-rule="evenodd" clip-rule="evenodd" d="M309.895 313.281C309.666 311.919 310.585 310.63 311.946 310.401L323.169 308.517C324.531 308.288 325.82 309.207 326.049 310.568C326.277 311.93 325.359 313.219 323.997 313.448L312.774 315.332C311.413 315.561 310.123 314.642 309.895 313.281Z" fill="#231F20"/>
<path fill-rule="evenodd" clip-rule="evenodd" d="M282.472 59.5763C283.258 59.8366 283.685 60.6851 283.424 61.4716C282.892 63.0806 280.173 69.4544 276.811 77.3356C276.294 78.5486 275.761 79.7974 275.219 81.0699C271.123 90.6798 266.427 101.768 263.398 109.545C263.097 110.317 262.228 110.699 261.456 110.398C260.684 110.097 260.302 109.228 260.603 108.456C263.652 100.627 268.368 89.4938 272.459 79.8938C272.994 78.6379 273.518 77.4102 274.025 76.2208C277.423 68.2535 280.087 62.0074 280.576 60.5292C280.837 59.7427 281.685 59.3161 282.472 59.5763Z" fill="#231F20"/>
<path fill-rule="evenodd" clip-rule="evenodd" d="M97.284 74.8749C96.556 75.2702 96.2863 76.1809 96.6816 76.9089C97.8593 79.0777 103.46 87.5957 110.418 98.1799C111.485 99.8019 112.583 101.472 113.702 103.176C122.166 116.06 131.897 130.946 138.338 141.459C138.771 142.165 139.694 142.387 140.4 141.954C141.107 141.521 141.329 140.598 140.896 139.891C134.426 129.331 124.667 114.404 116.209 101.529C115.1 99.8404 114.015 98.189 112.962 96.5886C105.953 85.9257 100.43 77.5244 99.318 75.4773C98.9226 74.7493 98.012 74.4796 97.284 74.8749Z" fill="#231F20"/>
<path fill-rule="evenodd" clip-rule="evenodd" d="M278.915 110.811C279.571 111.316 279.694 112.258 279.189 112.915L269.189 125.915C268.684 126.571 267.742 126.694 267.086 126.189C266.429 125.684 266.306 124.742 266.811 124.086L276.811 111.086C277.316 110.429 278.258 110.306 278.915 110.811Z" fill="#231F20"/>
<path fill-rule="evenodd" clip-rule="evenodd" d="M116.936 147.906C116.361 148.503 116.379 149.453 116.976 150.027L134.099 166.508C134.696 167.082 135.646 167.064 136.22 166.467C136.795 165.87 136.776 164.921 136.18 164.346L119.057 147.866C118.46 147.291 117.51 147.31 116.936 147.906Z" fill="#231F20"/>
</g>
</svg>
