<svg width="430" height="430" viewBox="0 0 430 430" fill="none" xmlns="http://www.w3.org/2000/svg">
<path d="M430 215C430 333.741 333.741 430 215 430C96.2588 430 0 333.741 0 215C0 96.2588 96.2588 0 215 0C333.741 0 430 96.2588 430 215Z" fill="#449AFF"/>
<mask id="mask0" mask-type="alpha" maskUnits="userSpaceOnUse" x="0" y="0" width="430" height="430">
<path d="M430 215C430 333.741 333.741 430 215 430C96.2588 430 0 333.741 0 215C0 96.2588 96.2588 0 215 0C333.741 0 430 96.2588 430 215Z" fill="#449AFF"/>
</mask>
<g mask="url(#mask0)">
<path d="M367.264 297.016L334.579 254.21L325.576 242.488L284.248 188.497L279.315 182.052C275.723 177.288 277.882 170.686 284.392 167.214L286.055 166.369L290.995 163.599C298.253 159.6 300.045 151.848 294.639 147.223L278.565 133.441L259.323 116.893L227.77 89.8164L214.863 78.8008L188.071 55.6265C180.402 49.0257 168.531 51.549 164.211 60.6982L148.95 92.934L141.757 108.222L122.867 148.231L113.763 167.242L104.111 187.721C101.054 194.145 105.844 200.497 114.101 201.199L118.112 201.575L121.628 201.933C129.012 202.575 133.645 207.61 132.301 213.424L131.313 217.442L114.504 287.476L111.14 301.704L98.5062 354.388C96.1486 364.103 100.983 374.132 110.015 378.477C149.152 397.308 248.852 445.033 248.852 445.033C251.05 445.549 253.173 445.712 255.406 445.237C255.406 445.237 255.406 445.237 255.524 445.212C257.639 444.762 259.513 443.75 261.336 442.503C261.336 442.503 336.951 357.267 366.456 323.846C373.082 316.295 373.394 305.05 367.264 297.016Z" fill="#FFA6A6"/>
<path d="M118.565 323.343C116.685 323.743 115.364 325.621 115.789 327.619L120.76 351.009C121.16 352.889 123.038 354.21 125.036 353.785C126.916 353.386 128.237 351.508 127.812 349.51L122.841 326.12C122.299 324.147 120.446 322.944 118.565 323.343Z" fill="#FF9494"/>
<path fill-rule="evenodd" clip-rule="evenodd" d="M114.564 327.88C113.99 325.179 115.775 322.658 118.305 322.12C120.898 321.569 123.347 323.243 124.047 325.789L124.057 325.825L129.036 349.25C129.61 351.951 127.825 354.472 125.296 355.01C122.595 355.584 120.074 353.8 119.536 351.27L114.564 327.88ZM118.825 324.568C117.593 324.83 116.736 326.064 117.012 327.36L121.984 350.749C122.245 351.981 123.479 352.838 124.775 352.562C126.007 352.301 126.864 351.067 126.588 349.771L121.625 326.42C121.23 325.041 119.984 324.322 118.825 324.568Z" fill="#FF8A8A"/>
<path d="M114.144 302.539C116.024 302.139 117.345 300.261 116.92 298.263L114.622 287.45L111.258 301.678C111.903 302.401 112.968 302.789 114.144 302.539Z" fill="#FF9494"/>
<path d="M112.501 301.168C112.904 301.328 113.306 301.488 113.894 301.363C115.187 301.088 116.02 299.806 115.745 298.513L114.546 292.871L112.501 301.168Z" fill="#FF8A8A"/>
<path d="M240.477 322.983L225.08 326.256C222.611 326.78 221.038 329.203 221.563 331.671L226.135 353.181C226.659 355.649 229.082 357.223 231.55 356.698L246.948 353.425C249.416 352.9 250.989 350.478 250.465 348.009L245.893 326.5C245.251 324.057 242.828 322.483 240.477 322.983Z" fill="#FF9494"/>
<path fill-rule="evenodd" clip-rule="evenodd" d="M220.338 331.931C219.67 328.787 221.675 325.7 224.819 325.032L240.217 321.759C243.273 321.109 246.305 323.146 247.102 326.182L247.11 326.211L251.688 347.749C252.356 350.893 250.352 353.98 247.207 354.649L231.81 357.922C228.666 358.59 225.579 356.585 224.91 353.441L220.338 331.931ZM225.339 327.479C223.547 327.86 222.405 329.619 222.786 331.411L227.358 352.921C227.739 354.713 229.497 355.855 231.29 355.474L246.687 352.201C248.48 351.82 249.622 350.062 249.241 348.269L244.675 326.791C244.178 324.956 242.373 323.859 240.737 324.207L225.339 327.479Z" fill="#FF8A8A"/>
<path d="M250.795 371.526L235.398 374.799C232.93 375.323 231.356 377.746 231.881 380.214L236.453 401.724C236.978 404.192 239.4 405.765 241.869 405.241L257.266 401.968C259.734 401.443 261.308 399.021 260.783 396.552L256.211 375.043C255.569 372.6 253.146 371.026 250.795 371.526Z" fill="#FF9494"/>
<path fill-rule="evenodd" clip-rule="evenodd" d="M230.657 380.474C229.988 377.33 231.993 374.243 235.137 373.575L250.535 370.302C253.592 369.652 256.623 371.689 257.421 374.725L257.428 374.753L262.007 396.292C262.675 399.436 260.67 402.523 257.526 403.192L242.128 406.464C238.984 407.133 235.897 405.128 235.229 401.984L230.657 380.474ZM235.658 376.022C233.865 376.403 232.723 378.162 233.104 379.954L237.676 401.463C238.057 403.256 239.816 404.398 241.608 404.017L257.006 400.744C258.798 400.363 259.94 398.605 259.559 396.812L254.994 375.334C254.497 373.499 252.692 372.402 251.055 372.749L235.658 376.022Z" fill="#FF8A8A"/>
<path d="M229.585 271.737L214.187 275.01C211.719 275.534 210.145 277.957 210.67 280.425L215.242 301.935C215.767 304.403 218.19 305.976 220.658 305.452L236.055 302.179C238.523 301.654 240.097 299.231 239.572 296.763L235 275.254C234.358 272.811 231.935 271.237 229.585 271.737Z" fill="#FF9494"/>
<path fill-rule="evenodd" clip-rule="evenodd" d="M209.446 280.685C208.778 277.541 210.782 274.454 213.927 273.786L229.324 270.513C232.381 269.863 235.412 271.9 236.21 274.936L236.217 274.964L240.796 296.503C241.464 299.647 239.459 302.734 236.315 303.403L220.917 306.675C217.773 307.344 214.686 305.339 214.018 302.195L209.446 280.685ZM214.447 276.233C212.654 276.614 211.512 278.373 211.893 280.165L216.465 301.674C216.846 303.467 218.605 304.609 220.397 304.228L235.795 300.955C237.587 300.574 238.729 298.816 238.348 297.023L233.783 275.545C233.286 273.71 231.481 272.613 229.844 272.96L214.447 276.233Z" fill="#FF8A8A"/>
<path d="M218.715 220.608L203.318 223.881C200.85 224.405 199.276 226.828 199.801 229.296L204.373 250.806C204.898 253.274 207.32 254.848 209.789 254.323L225.186 251.05C227.654 250.525 229.228 248.103 228.703 245.634L224.131 224.125C223.489 221.682 221.066 220.108 218.715 220.608Z" fill="#FF9494"/>
<path fill-rule="evenodd" clip-rule="evenodd" d="M198.579 229.556C197.91 226.412 199.915 223.325 203.059 222.657L218.457 219.384C221.514 218.734 224.545 220.771 225.343 223.807L225.35 223.835L229.928 245.374C230.597 248.518 228.592 251.605 225.448 252.274L210.05 255.546C206.906 256.215 203.819 254.21 203.151 251.066L198.579 229.556ZM203.58 225.104C201.787 225.485 200.645 227.244 201.026 229.036L205.598 250.545C205.979 252.338 207.738 253.48 209.53 253.099L224.927 249.826C226.72 249.445 227.862 247.687 227.481 245.894L222.915 224.416C222.419 222.581 220.614 221.484 218.977 221.832L203.58 225.104Z" fill="#FF8A8A"/>
<path d="M207.823 169.362L192.425 172.635C189.957 173.159 188.384 175.582 188.908 178.05L193.48 199.56C194.005 202.028 196.428 203.601 198.896 203.077L214.293 199.804C216.762 199.279 218.335 196.856 217.811 194.388L213.239 172.879C212.596 170.436 210.174 168.862 207.823 169.362Z" fill="#FF9494"/>
<path fill-rule="evenodd" clip-rule="evenodd" d="M187.684 178.31C187.016 175.166 189.021 172.079 192.165 171.411L207.562 168.138C210.619 167.488 213.65 169.525 214.448 172.561L214.456 172.589L219.034 194.128C219.702 197.272 217.697 200.359 214.553 201.028L199.156 204.3C196.012 204.969 192.924 202.964 192.256 199.82L187.684 178.31ZM192.685 173.858C190.893 174.239 189.751 175.998 190.132 177.79L194.704 199.299C195.085 201.092 196.843 202.234 198.636 201.853L214.033 198.58C215.825 198.199 216.967 196.441 216.586 194.648L212.021 173.17C211.524 171.335 209.719 170.238 208.082 170.585L192.685 173.858Z" fill="#FF8A8A"/>
<path d="M196.956 118.233L181.558 121.506C179.09 122.03 177.517 124.453 178.041 126.921L182.613 148.431C183.138 150.899 185.561 152.473 188.029 151.948L203.426 148.675C205.895 148.15 207.468 145.728 206.943 143.259L202.346 121.632C201.729 119.307 199.306 117.733 196.956 118.233Z" fill="#FF9494"/>
<path fill-rule="evenodd" clip-rule="evenodd" d="M176.817 127.181C176.149 124.037 178.153 120.95 181.298 120.282L196.695 117.009C199.733 116.363 202.776 118.377 203.555 121.311L203.563 121.342L208.167 142.999C208.835 146.143 206.83 149.23 203.686 149.899L188.289 153.172C185.144 153.84 182.057 151.835 181.389 148.691L176.817 127.181ZM181.818 122.729C180.026 123.11 178.884 124.869 179.265 126.661L183.836 148.171C184.217 149.963 185.976 151.105 187.768 150.724L203.166 147.451C204.958 147.07 206.1 145.312 205.719 143.519L201.129 121.925C200.662 120.224 198.87 119.105 197.215 119.457L181.818 122.729Z" fill="#FF8A8A"/>
<path d="M186.063 66.9868L170.666 70.2596C168.197 70.7843 166.624 73.2071 167.149 75.6754L171.721 97.1847C172.245 99.653 174.668 101.226 177.136 100.702L192.534 97.429C195.002 96.9043 196.575 94.4815 196.051 92.0132L191.479 70.5039C190.837 68.0606 188.414 66.4871 186.063 66.9868Z" fill="#FF9494"/>
<path fill-rule="evenodd" clip-rule="evenodd" d="M165.924 75.9353C165.256 72.7912 167.261 69.7039 170.405 69.0356L185.802 65.7628C188.859 65.113 191.891 67.1501 192.688 70.1856L192.696 70.2144L197.274 91.7529C197.942 94.897 195.938 97.9843 192.793 98.6526L177.396 101.925C174.252 102.594 171.165 100.589 170.496 97.4447L165.924 75.9353ZM170.925 71.4832C169.133 71.8642 167.991 73.6227 168.372 75.4151L172.944 96.9244C173.325 98.7168 175.083 99.8588 176.876 99.4778L192.273 96.205C194.066 95.824 195.207 94.0655 194.827 92.2731L190.261 70.795C189.764 68.96 187.959 67.8625 186.323 68.2104L170.925 71.4832Z" fill="#FF8A8A"/>
<path d="M195.343 332.576L188.761 333.975C186.293 334.5 184.72 336.923 185.244 339.391L189.816 360.901C190.341 363.369 192.764 364.942 195.232 364.418L201.814 363.019C204.282 362.494 205.856 360.071 205.331 357.603L200.759 336.093C200.117 333.65 197.812 332.052 195.343 332.576Z" fill="#FF9494"/>
<path fill-rule="evenodd" clip-rule="evenodd" d="M184.02 339.651C183.352 336.507 185.357 333.42 188.501 332.751L195.083 331.352C198.277 330.673 201.177 332.761 201.969 335.775L201.976 335.804L206.555 357.342C207.223 360.487 205.218 363.574 202.074 364.242L195.492 365.641C192.348 366.31 189.26 364.305 188.592 361.16L184.02 339.651ZM189.021 335.199C187.229 335.58 186.087 337.339 186.468 339.131L191.04 360.64C191.421 362.433 193.179 363.575 194.971 363.194L201.554 361.795C203.346 361.414 204.488 359.655 204.107 357.863L199.542 336.384C199.04 334.529 197.337 333.431 195.603 333.8L189.021 335.199Z" fill="#FF8A8A"/>
<path d="M204.935 377.711L198.353 379.11C195.885 379.635 194.311 382.058 194.836 384.526L199.408 406.035C199.933 408.504 202.356 410.077 204.824 409.552L211.406 408.153C213.874 407.629 215.448 405.206 214.923 402.738L210.351 381.228C209.709 378.785 207.404 377.186 204.935 377.711Z" fill="#FF9494"/>
<path fill-rule="evenodd" clip-rule="evenodd" d="M193.614 384.786C192.945 381.642 194.95 378.555 198.095 377.886L204.677 376.487C207.871 375.808 210.77 377.895 211.563 380.91L211.57 380.939L216.148 402.477C216.817 405.621 214.812 408.709 211.668 409.377L205.085 410.776C201.941 411.444 198.854 409.439 198.186 406.295L193.614 384.786ZM198.615 380.334C196.822 380.715 195.68 382.473 196.061 384.266L200.633 405.775C201.014 407.567 202.773 408.709 204.565 408.328L211.147 406.929C212.94 406.548 214.082 404.79 213.701 402.997L209.135 381.519C208.634 379.663 206.931 378.566 205.197 378.935L198.615 380.334Z" fill="#FF8A8A"/>
<path d="M184.449 281.33L177.867 282.729C175.399 283.254 173.825 285.677 174.35 288.145L178.922 309.654C179.446 312.123 181.869 313.696 184.337 313.172L190.92 311.772C193.388 311.248 194.961 308.825 194.437 306.357L189.865 284.847C189.222 282.404 186.917 280.806 184.449 281.33Z" fill="#FF9494"/>
<path fill-rule="evenodd" clip-rule="evenodd" d="M173.127 288.405C172.459 285.261 174.464 282.174 177.608 281.505L184.19 280.106C187.385 279.427 190.284 281.515 191.076 284.529L191.084 284.558L195.662 306.096C196.33 309.241 194.325 312.328 191.181 312.996L184.599 314.395C181.455 315.063 178.368 313.059 177.699 309.914L173.127 288.405ZM178.128 283.953C176.336 284.334 175.194 286.092 175.575 287.885L180.147 309.394C180.528 311.187 182.286 312.328 184.079 311.948L190.661 310.548C192.453 310.167 193.595 308.409 193.214 306.617L188.649 285.138C188.148 283.282 186.444 282.185 184.711 282.554L178.128 283.953Z" fill="#FF8A8A"/>
<path d="M173.582 230.201L167 231.6C164.531 232.125 162.958 234.548 163.483 237.016L168.055 258.526C168.579 260.994 171.002 262.567 173.47 262.043L180.052 260.644C182.521 260.119 184.094 257.696 183.569 255.228L178.997 233.718C178.355 231.275 176.05 229.677 173.582 230.201Z" fill="#FF9494"/>
<path fill-rule="evenodd" clip-rule="evenodd" d="M162.258 237.276C161.59 234.132 163.595 231.045 166.739 230.376L173.321 228.977C176.516 228.298 179.415 230.386 180.207 233.4L180.215 233.429L184.793 254.967C185.461 258.112 183.456 261.199 180.312 261.867L173.73 263.266C170.586 263.935 167.499 261.93 166.83 258.785L162.258 237.276ZM167.259 232.824C165.467 233.205 164.325 234.964 164.706 236.756L169.278 258.265C169.659 260.058 171.417 261.2 173.21 260.819L179.792 259.42C181.584 259.039 182.726 257.28 182.345 255.488L177.78 234.009C177.279 232.154 175.575 231.056 173.841 231.425L167.259 232.824Z" fill="#FF8A8A"/>
<path d="M162.689 178.955L156.107 180.354C153.639 180.879 152.065 183.302 152.59 185.77L157.162 207.279C157.687 209.748 160.109 211.321 162.578 210.797L169.16 209.397C171.628 208.873 173.202 206.45 172.677 203.982L168.105 182.472C167.463 180.029 165.157 178.431 162.689 178.955Z" fill="#FF9494"/>
<path fill-rule="evenodd" clip-rule="evenodd" d="M151.366 186.03C150.697 182.886 152.702 179.799 155.846 179.13L162.429 177.731C165.623 177.052 168.522 179.14 169.315 182.154L169.322 182.183L173.9 203.721C174.569 206.866 172.564 209.953 169.42 210.621L162.837 212.02C159.693 212.688 156.606 210.684 155.938 207.539L151.366 186.03ZM156.367 181.578C154.574 181.959 153.432 183.717 153.813 185.51L158.385 207.019C158.766 208.812 160.525 209.954 162.317 209.573L168.899 208.173C170.692 207.792 171.834 206.034 171.453 204.242L166.887 182.763C166.386 180.907 164.682 179.81 162.949 180.179L156.367 181.578Z" fill="#FF8A8A"/>
<path d="M151.822 127.826L145.24 129.225C142.772 129.75 141.198 132.173 141.723 134.641L146.295 156.151C146.819 158.619 149.242 160.192 151.711 159.668L158.293 158.269C160.761 157.744 162.334 155.321 161.81 152.853L157.213 131.226C156.596 128.9 154.29 127.302 151.822 127.826Z" fill="#FF9494"/>
<path fill-rule="evenodd" clip-rule="evenodd" d="M140.499 134.901C139.83 131.757 141.835 128.67 144.979 128.001L151.561 126.602C154.737 125.927 157.648 127.991 158.422 130.905L158.43 130.935L163.033 152.592C163.701 155.737 161.696 158.824 158.552 159.492L151.97 160.891C148.826 161.56 145.739 159.555 145.071 156.41L140.499 134.901ZM145.5 130.449C143.707 130.83 142.565 132.589 142.946 134.381L147.518 155.89C147.899 157.683 149.658 158.825 151.45 158.444L158.032 157.045C159.824 156.664 160.966 154.905 160.585 153.113L155.995 131.519C155.524 129.797 153.833 128.678 152.082 129.05L145.5 130.449Z" fill="#FF8A8A"/>
<path d="M147.375 106.905C149.843 106.38 151.417 103.958 150.892 101.489L149.043 92.7915L141.851 108.079L147.375 106.905Z" fill="#FF9494"/>
<path d="M143.834 106.429L147.007 105.755C148.771 105.38 149.999 103.645 149.599 101.764L148.5 96.5927L143.834 106.429Z" fill="#FF8A8A"/>
<path d="M276.677 315.288L270.095 316.687C267.627 317.212 266.054 319.635 266.578 322.103L271.15 343.612C271.675 346.081 274.098 347.654 276.566 347.13L283.148 345.73C285.616 345.206 287.19 342.783 286.665 340.315L282.093 318.805C281.569 316.337 279.146 314.764 276.677 315.288Z" fill="#FF9494"/>
<path fill-rule="evenodd" clip-rule="evenodd" d="M265.356 322.363C264.688 319.219 266.693 316.132 269.837 315.463L276.419 314.064C279.563 313.396 282.65 315.401 283.319 318.545L287.89 340.054C288.559 343.199 286.554 346.286 283.41 346.954L276.828 348.353C273.683 349.021 270.596 347.017 269.928 343.872L265.356 322.363ZM270.357 317.911C268.565 318.292 267.423 320.05 267.804 321.843L272.376 343.352C272.757 345.145 274.515 346.287 276.307 345.906L282.889 344.506C284.682 344.125 285.824 342.367 285.443 340.575L280.871 319.065C280.49 317.273 278.731 316.131 276.939 316.512L270.357 317.911Z" fill="#FF8A8A"/>
<path d="M286.271 360.423L279.689 361.822C277.221 362.347 275.647 364.77 276.172 367.238L280.744 388.747C281.269 391.216 283.691 392.789 286.16 392.264L292.742 390.865C295.21 390.341 296.784 387.918 296.259 385.449L291.687 363.94C291.162 361.472 288.739 359.898 286.271 360.423Z" fill="#FF9494"/>
<path fill-rule="evenodd" clip-rule="evenodd" d="M274.948 367.498C274.279 364.354 276.284 361.266 279.428 360.598L286.011 359.199C289.155 358.531 292.242 360.536 292.91 363.68L297.482 385.189C298.151 388.333 296.146 391.421 293.002 392.089L286.419 393.488C283.275 394.156 280.188 392.151 279.52 389.007L274.948 367.498ZM279.949 363.046C278.156 363.427 277.014 365.185 277.395 366.978L281.967 388.487C282.348 390.279 284.107 391.421 285.899 391.04L292.481 389.641C294.274 389.26 295.416 387.502 295.035 385.709L290.463 364.2C290.082 362.408 288.323 361.266 286.531 361.647L279.949 363.046Z" fill="#FF8A8A"/>
<path d="M265.785 264.042L259.203 265.441C256.734 265.966 255.161 268.389 255.686 270.857L260.258 292.366C260.782 294.835 263.205 296.408 265.673 295.883L272.256 294.484C274.724 293.96 276.297 291.537 275.773 289.069L271.201 267.559C270.676 265.091 268.253 263.518 265.785 264.042Z" fill="#FF9494"/>
<path fill-rule="evenodd" clip-rule="evenodd" d="M254.463 271.117C253.795 267.973 255.8 264.886 258.944 264.217L265.526 262.818C268.67 262.15 271.758 264.155 272.426 267.299L276.998 288.808C277.666 291.952 275.661 295.04 272.517 295.708L265.935 297.107C262.791 297.775 259.704 295.77 259.035 292.626L254.463 271.117ZM259.464 266.665C257.672 267.046 256.53 268.804 256.911 270.597L261.483 292.106C261.864 293.898 263.622 295.04 265.415 294.659L271.997 293.26C273.789 292.879 274.931 291.121 274.55 289.329L269.978 267.819C269.597 266.027 267.839 264.885 266.046 265.266L259.464 266.665Z" fill="#FF8A8A"/>
<path d="M254.918 212.913L248.336 214.312C245.867 214.837 244.294 217.26 244.819 219.728L249.39 241.237C249.915 243.706 252.338 245.279 254.806 244.755L261.388 243.355C263.857 242.831 265.43 240.408 264.905 237.94L260.333 216.43C259.809 213.962 257.386 212.389 254.918 212.913Z" fill="#FF9494"/>
<path fill-rule="evenodd" clip-rule="evenodd" d="M243.594 219.988C242.926 216.844 244.931 213.757 248.075 213.088L254.657 211.689C257.801 211.021 260.888 213.026 261.557 216.17L266.129 237.679C266.797 240.824 264.792 243.911 261.648 244.579L255.066 245.978C251.922 246.646 248.835 244.642 248.166 241.497L243.594 219.988ZM248.595 215.536C246.803 215.917 245.661 217.675 246.042 219.468L250.614 240.977C250.995 242.77 252.753 243.912 254.546 243.531L261.128 242.131C262.92 241.75 264.062 239.992 263.681 238.2L259.109 216.69C258.728 214.898 256.97 213.756 255.177 214.137L248.595 215.536Z" fill="#FF8A8A"/>
<path d="M244.025 161.667L237.443 163.066C234.975 163.591 233.401 166.014 233.926 168.482L238.498 189.991C239.023 192.46 241.445 194.033 243.914 193.508L250.496 192.109C252.964 191.585 254.537 189.162 254.013 186.694L249.441 165.184C248.916 162.716 246.493 161.143 244.025 161.667Z" fill="#FF9494"/>
<path fill-rule="evenodd" clip-rule="evenodd" d="M232.702 168.742C232.033 165.598 234.038 162.511 237.182 161.842L243.764 160.443C246.909 159.775 249.996 161.78 250.664 164.924L255.236 186.433C255.904 189.577 253.9 192.665 250.755 193.333L244.173 194.732C241.029 195.4 237.942 193.395 237.274 190.251L232.702 168.742ZM237.703 164.29C235.91 164.671 234.768 166.429 235.149 168.222L239.721 189.731C240.102 191.523 241.861 192.665 243.653 192.284L250.235 190.885C252.028 190.504 253.17 188.746 252.789 186.954L248.217 165.444C247.836 163.652 246.077 162.51 244.285 162.891L237.703 164.29Z" fill="#FF8A8A"/>
<path d="M233.156 110.538L226.574 111.937C224.106 112.462 222.532 114.885 223.057 117.353L227.629 138.862C228.153 141.331 230.576 142.904 233.045 142.38L239.627 140.98C242.095 140.456 243.668 138.033 243.144 135.565L238.547 113.938C238.047 111.587 235.624 110.014 233.156 110.538Z" fill="#FF9494"/>
<path fill-rule="evenodd" clip-rule="evenodd" d="M221.834 117.613C221.166 114.469 223.171 111.382 226.315 110.713L232.897 109.314C236.02 108.65 239.124 110.63 239.772 113.677L244.369 135.304C245.037 138.449 243.032 141.536 239.888 142.204L233.306 143.603C230.162 144.271 227.075 142.267 226.406 139.122L221.834 117.613ZM226.835 113.161C225.043 113.542 223.901 115.3 224.282 117.093L228.854 138.602C229.235 140.395 230.994 141.537 232.786 141.156L239.368 139.756C241.16 139.375 242.302 137.617 241.921 135.825L237.324 114.198C236.973 112.544 235.231 111.376 233.418 111.762L226.835 113.161Z" fill="#FF8A8A"/>
<path d="M222.128 91.0156L227.77 89.8164L214.863 78.8008L216.737 87.6161C217.379 90.0594 219.66 91.5402 222.128 91.0156Z" fill="#FF9494"/>
<path d="M216.906 82.0527L218.03 87.3419C218.405 89.105 220.14 90.3332 222.021 89.9334L225.312 89.2339L216.906 82.0527Z" fill="#FF8A8A"/>
<path d="M159.023 340.297L152.441 341.696C149.973 342.221 148.399 344.644 148.924 347.112L153.496 368.621C154.021 371.09 156.443 372.663 158.912 372.138L165.494 370.739C167.962 370.215 169.536 367.792 169.011 365.323L164.439 343.814C163.914 341.346 161.491 339.772 159.023 340.297Z" fill="#FF9494"/>
<path fill-rule="evenodd" clip-rule="evenodd" d="M147.7 347.372C147.031 344.228 149.036 341.14 152.18 340.472L158.763 339.073C161.907 338.405 164.994 340.41 165.662 343.554L170.234 365.063C170.903 368.207 168.898 371.295 165.753 371.963L159.171 373.362C156.027 374.03 152.94 372.025 152.272 368.881L147.7 347.372ZM152.701 342.92C150.908 343.301 149.766 345.059 150.147 346.852L154.719 368.361C155.1 370.153 156.859 371.295 158.651 370.914L165.233 369.515C167.026 369.134 168.168 367.376 167.787 365.583L163.215 344.074C162.834 342.282 161.075 341.14 159.283 341.521L152.701 342.92Z" fill="#FF8A8A"/>
<path d="M148.131 289.05L141.548 290.449C139.08 290.974 137.507 293.397 138.031 295.865L142.603 317.374C143.128 319.842 145.551 321.416 148.019 320.891L154.601 319.492C157.07 318.968 158.643 316.545 158.118 314.076L153.546 292.567C153.022 290.099 150.599 288.525 148.131 289.05Z" fill="#FF9494"/>
<path fill-rule="evenodd" clip-rule="evenodd" d="M136.807 296.126C136.139 292.982 138.144 289.894 141.288 289.226L147.87 287.827C151.014 287.159 154.101 289.164 154.77 292.308L159.342 313.817C160.01 316.961 158.005 320.048 154.861 320.717L148.279 322.116C145.135 322.784 142.047 320.779 141.379 317.635L136.807 296.126ZM141.808 291.674C140.016 292.055 138.874 293.813 139.255 295.606L143.827 317.115C144.208 318.907 145.966 320.049 147.759 319.668L154.341 318.269C156.133 317.888 157.275 316.13 156.894 314.337L152.322 292.828C151.941 291.036 150.183 289.894 148.39 290.275L141.808 291.674Z" fill="#FF8A8A"/>
<path d="M137.263 237.921L130.681 239.32C128.213 239.845 126.64 242.268 127.164 244.736L131.736 266.245C132.261 268.714 134.684 270.287 137.152 269.762L143.734 268.363C146.202 267.839 147.776 265.416 147.251 262.947L142.679 241.438C142.154 238.97 139.732 237.396 137.263 237.921Z" fill="#FF9494"/>
<path fill-rule="evenodd" clip-rule="evenodd" d="M125.94 244.996C125.272 241.852 127.277 238.764 130.421 238.096L137.003 236.697C140.147 236.029 143.234 238.034 143.902 241.178L148.474 262.687C149.143 265.831 147.138 268.919 143.994 269.587L137.412 270.986C134.267 271.654 131.18 269.649 130.512 266.505L125.94 244.996ZM130.941 240.544C129.149 240.925 128.007 242.683 128.388 244.476L132.96 265.985C133.341 267.777 135.099 268.919 136.891 268.538L143.473 267.139C145.266 266.758 146.408 265 146.027 263.207L141.455 241.698C141.074 239.906 139.315 238.764 137.523 239.145L130.941 240.544Z" fill="#FF8A8A"/>
<path d="M126.369 186.675L119.787 188.074C117.318 188.599 115.745 191.022 116.27 193.49L117.969 201.482L121.484 201.841C128.869 202.482 133.502 207.517 132.158 213.331L131.169 217.349L132.697 217.025C135.165 216.5 136.739 214.077 136.214 211.609L131.642 190.099C131.26 187.724 128.837 186.15 126.369 186.675Z" fill="#FF9494"/>
<path d="M118.968 200.41L121.586 200.59C125.974 201.009 129.673 202.803 131.783 205.794C133.483 208.012 133.965 210.858 133.314 213.576L132.798 215.774C134.419 215.307 135.412 213.622 135.037 211.859L130.465 190.349C130.091 188.586 128.355 187.358 126.475 187.758L119.893 189.157C118.13 189.532 116.901 191.267 117.301 193.147L118.85 200.435L118.968 200.41Z" fill="#FF8A8A"/>
<path d="M115.365 167.27L121.947 165.871C124.415 165.346 125.988 162.923 125.464 160.455L122.866 148.231L113.762 167.242C114.282 167.377 114.777 167.395 115.365 167.27Z" fill="#FF9494"/>
<path d="M115.702 165.97L121.697 164.695C123.46 164.321 124.688 162.585 124.288 160.705L122.414 151.89L115.702 165.97Z" fill="#FF8A8A"/>
<path d="M336.596 277C334.716 277.399 333.395 279.277 333.82 281.275L338.791 304.665C339.191 306.546 341.069 307.866 343.067 307.442C344.948 307.042 346.268 305.164 345.844 303.166L340.872 279.776C340.33 277.803 338.477 276.6 336.596 277Z" fill="#FF9494"/>
<path fill-rule="evenodd" clip-rule="evenodd" d="M332.598 281.535C332.024 278.835 333.808 276.313 336.338 275.776C338.931 275.224 341.38 276.898 342.08 279.444L342.09 279.48L347.069 302.906C347.643 305.606 345.859 308.128 343.329 308.665C340.628 309.239 338.107 307.455 337.569 304.925L332.598 281.535ZM336.858 278.223C335.627 278.485 334.77 279.719 335.045 281.015L340.017 304.405C340.279 305.636 341.513 306.493 342.809 306.218C344.04 305.956 344.897 304.722 344.621 303.426L339.658 280.075C339.263 278.696 338.017 277.977 336.858 278.223Z" fill="#FF8A8A"/>
<path d="M332.175 256.196C333.351 255.946 334.166 255.158 334.579 254.211L325.576 242.488L327.9 253.419C328.324 255.417 330.177 256.621 332.175 256.196Z" fill="#FF9494"/>
<path d="M327.875 247.527L329.099 253.287C329.374 254.58 330.657 255.413 331.95 255.138C332.537 255.013 332.84 254.703 333.143 254.393L327.875 247.527Z" fill="#FF8A8A"/>
<path d="M312.193 311.302L305.611 312.701C303.143 313.226 301.569 315.649 302.094 318.117L306.666 339.626C307.19 342.094 309.613 343.668 312.082 343.143L318.664 341.744C321.132 341.219 322.705 338.797 322.181 336.328L317.609 314.819C316.967 312.376 314.544 310.802 312.193 311.302Z" fill="#FF9494"/>
<path fill-rule="evenodd" clip-rule="evenodd" d="M300.87 318.377C300.201 315.233 302.206 312.145 305.35 311.477L311.932 310.078C314.989 309.428 318.021 311.465 318.818 314.501L318.826 314.53L323.404 336.068C324.072 339.212 322.068 342.299 318.923 342.968L312.341 344.367C309.197 345.035 306.11 343.03 305.442 339.886L300.87 318.377ZM305.871 313.925C304.078 314.306 302.936 316.064 303.317 317.856L307.889 339.366C308.27 341.158 310.029 342.3 311.821 341.919L318.403 340.52C320.196 340.139 321.338 338.381 320.957 336.588L316.391 315.11C315.894 313.275 314.089 312.178 312.453 312.526L305.871 313.925Z" fill="#FF8A8A"/>
<path d="M301.326 260.173L294.744 261.572C292.275 262.097 290.702 264.52 291.227 266.988L295.799 288.497C296.323 290.966 298.746 292.539 301.214 292.014L307.797 290.615C310.265 290.091 311.838 287.668 311.314 285.199L306.742 263.69C306.099 261.247 303.677 259.673 301.326 260.173Z" fill="#FF9494"/>
<path fill-rule="evenodd" clip-rule="evenodd" d="M290.002 267.248C289.334 264.104 291.339 261.016 294.483 260.348L301.065 258.949C304.122 258.299 307.153 260.336 307.951 263.372L307.959 263.401L312.537 284.939C313.205 288.083 311.2 291.171 308.056 291.839L301.474 293.238C298.33 293.906 295.243 291.901 294.574 288.757L290.002 267.248ZM295.003 262.796C293.211 263.177 292.069 264.935 292.45 266.728L297.022 288.237C297.403 290.029 299.161 291.171 300.954 290.79L307.536 289.391C309.328 289.01 310.47 287.252 310.089 285.459L305.524 263.981C305.027 262.146 303.222 261.049 301.586 261.397L295.003 262.796Z" fill="#FF8A8A"/>
<path d="M290.433 208.927L283.851 210.326C281.383 210.851 279.809 213.274 280.334 215.742L284.906 237.251C285.431 239.719 287.854 241.293 290.322 240.768L296.904 239.369C299.372 238.844 300.946 236.422 300.421 233.953L295.849 212.444C295.207 210.001 292.784 208.427 290.433 208.927Z" fill="#FF9494"/>
<path fill-rule="evenodd" clip-rule="evenodd" d="M279.11 216.002C278.442 212.858 280.446 209.77 283.591 209.102L290.173 207.703C293.23 207.053 296.261 209.09 297.059 212.126L297.066 212.155L301.644 233.693C302.313 236.837 300.308 239.924 297.164 240.593L290.582 241.992C287.437 242.66 284.35 240.655 283.682 237.511L279.11 216.002ZM284.111 211.55C282.318 211.931 281.177 213.689 281.557 215.481L286.129 236.991C286.51 238.783 288.269 239.925 290.061 239.544L296.643 238.145C298.436 237.764 299.578 236.006 299.197 234.213L294.631 212.735C294.135 210.9 292.33 209.803 290.693 210.151L284.111 211.55Z" fill="#FF8A8A"/>
<path d="M268.561 138.392L275.143 136.993C276.906 136.619 278.209 135.236 278.59 133.558L259.348 117.01L263.145 134.875C263.67 137.344 266.093 138.917 268.561 138.392Z" fill="#FF9494"/>
<path d="M261.248 120.168L264.321 134.625C264.696 136.388 266.431 137.616 268.312 137.217L274.894 135.818C275.952 135.593 276.792 134.923 277.205 133.975L261.248 120.168Z" fill="#FF8A8A"/>
<path opacity="0.4" d="M110.041 378.595C122.225 384.481 140.406 393.147 159.559 402.344C161.48 403.287 163.4 404.23 165.32 405.173C167.241 406.116 169.161 407.059 171.081 408.002C182.721 413.636 194.336 419.153 205.002 424.256C205.833 424.694 206.78 425.107 207.61 425.545C231.125 436.762 248.785 445.293 248.785 445.293C250.983 445.809 253.106 445.972 255.34 445.497C255.34 445.497 255.34 445.497 255.457 445.472C256.515 445.247 257.548 444.905 258.438 444.47C259.328 444.035 260.311 443.458 261.152 442.788C261.152 442.788 270.964 431.734 284.846 416.13C286.032 414.772 287.335 413.39 288.495 411.915C291.657 408.294 295.054 404.624 298.4 400.718C299.796 399.193 301.167 397.551 302.562 396.026C305.446 392.833 308.305 389.522 311.189 386.33C312.678 384.662 314.048 383.019 315.536 381.352C318.513 378.016 321.372 374.706 324.348 371.371C325.837 369.703 327.207 368.06 328.696 366.393C329.393 365.63 330.184 364.725 330.882 363.962C332.37 362.295 333.766 360.77 335.136 359.127C336.507 357.484 337.903 355.959 339.416 354.409C344.276 348.953 348.926 343.665 353.18 338.83C354.366 337.472 355.552 336.115 356.737 334.757C360.201 330.827 363.363 327.206 366.154 324.156C369.526 320.368 371.33 315.562 371.438 310.871C371.597 306.415 370.295 302.023 367.75 298.142C277.947 391.184 165.458 377.503 98.1342 356.679C96.9695 365.648 101.697 374.594 110.041 378.595Z" fill="#FF7575"/>
<path opacity="0.4" d="M254.593 172.721C252.972 173.188 252.692 175.336 254.117 176.262L285.612 190.295L284.247 188.497L279.315 182.052C278.812 181.421 278.452 180.884 278.185 180.203C277.725 179.196 277.525 178.255 277.56 177.265C277.521 175.922 277.833 174.504 278.431 173.272C278.777 172.584 279.147 172.014 279.61 171.301C280.77 169.826 282.308 168.394 284.274 167.239L284.039 167.289L254.593 172.721Z" fill="#FF2B2B"/>
<path fill-rule="evenodd" clip-rule="evenodd" d="M260.91 443.233C260.91 443.233 336.444 357.88 365.916 324.414C372.535 316.853 372.841 305.587 366.71 297.535L334.019 254.634L325.014 242.885L278.746 182.315C275.152 177.54 277.307 170.927 283.812 167.452L285.474 166.607L290.41 163.834C297.662 159.831 299.449 152.066 294.044 147.43L277.97 133.614L258.729 117.026L227.178 89.8834L214.272 78.8409L187.481 55.6104C179.813 48.9934 167.949 51.5152 163.635 60.6789L148.399 92.9658L141.218 108.278L122.357 148.351L113.268 167.392L103.632 187.903C100.579 194.337 105.37 200.704 113.624 201.411L117.633 201.79L121.147 202.151C128.528 202.797 133.161 207.844 131.821 213.668L130.835 217.693L114.071 287.846L110.716 302.098L98.1159 354.873C95.7645 364.604 100.602 374.654 109.631 379.012C148.758 397.897 248.434 445.762 248.434 445.762C250.631 446.28 252.753 446.444 254.985 445.97L255.102 445.945C257.217 445.495 259.088 444.482 260.91 443.233ZM249.748 441.951L245.799 440.055C242.997 438.709 238.951 436.766 233.973 434.375C224.017 429.592 210.335 423.019 195.431 415.856C165.62 401.529 130.923 384.843 111.363 375.402C104.005 371.851 100.102 363.684 102.002 355.82L114.605 303.035L117.959 288.783L117.962 288.77L134.718 218.652L134.723 218.63L135.71 214.6L135.717 214.572C136.699 210.304 135.456 206.243 132.686 203.246C129.983 200.321 125.997 198.56 121.522 198.161L118.02 197.802L113.977 197.42L113.96 197.419C110.749 197.143 108.632 195.809 107.592 194.412C106.632 193.12 106.352 191.505 107.242 189.627L107.246 189.62L116.875 169.125L116.885 169.102L125.969 150.074L144.834 109.991L152.013 94.6824L152.017 94.6737L167.251 62.3919C170.437 55.6237 179.205 53.7586 184.87 58.6423C184.871 58.6436 184.873 58.6448 184.874 58.6461L211.668 81.8791L224.576 92.9232L224.584 92.9302L256.124 120.063L275.365 136.651L275.37 136.655L291.443 150.471L291.446 150.474C293.024 151.827 293.425 153.416 293.072 154.987C292.691 156.686 291.3 158.766 288.478 160.324L288.465 160.331L283.588 163.07L281.964 163.897L281.929 163.915C277.929 166.052 274.982 169.309 273.703 173.113C272.402 176.983 272.92 181.225 275.555 184.726L275.563 184.737L280.505 191.208L321.841 245.32L330.849 257.073L363.533 299.965C363.533 299.965 363.533 299.965 363.534 299.966C368.528 306.525 368.252 315.664 362.912 321.767C348.178 338.498 321.933 368.195 299.368 393.714C288.084 406.474 277.722 418.189 270.18 426.713C266.409 430.976 263.344 434.44 261.221 436.84L258.256 440.19C256.803 441.148 255.542 441.754 254.269 442.024L254.152 442.049C252.766 442.344 251.376 442.296 249.748 441.951Z" fill="#FFC6C6"/>
<path d="M232.424 213.03C239.629 211.498 243.539 201.17 241.157 189.962C238.774 178.754 231.002 170.909 223.796 172.441C216.591 173.972 212.681 184.3 215.064 195.508C217.446 206.717 225.219 214.561 232.424 213.03Z" fill="white"/>
<path d="M229.114 172.614C225.381 176.438 222.573 184.61 224.422 193.308C226.27 202.005 232.16 208.329 237.125 210.304C240.857 206.48 243.666 198.308 241.817 189.61C239.968 180.913 234.079 174.589 229.114 172.614Z" fill="#231F20"/>
<path d="M190.377 221.969C197.582 220.437 201.492 210.11 199.11 198.902C196.727 187.693 188.955 179.849 181.75 181.38C174.544 182.912 170.634 193.239 173.017 204.448C175.399 215.656 183.172 223.501 190.377 221.969Z" fill="white"/>
<path d="M187.143 181.536C183.41 185.36 180.602 193.532 182.451 202.23C184.3 210.927 190.189 217.251 195.154 219.226C198.887 215.402 201.695 207.23 199.846 198.532C197.997 189.834 192.108 183.511 187.143 181.536Z" fill="#231F20"/>
<path fill-rule="evenodd" clip-rule="evenodd" d="M155.981 188.367C155.641 186.766 156.663 185.192 158.264 184.852L184.357 179.305C185.958 178.965 187.532 179.987 187.873 181.588C188.213 183.189 187.191 184.763 185.59 185.104L159.497 190.65C157.896 190.99 156.322 189.968 155.981 188.367Z" fill="#231F20"/>
<path fill-rule="evenodd" clip-rule="evenodd" d="M197.999 179.435C197.659 177.834 198.681 176.26 200.282 175.92L226.375 170.374C227.976 170.033 229.55 171.055 229.89 172.657C230.231 174.258 229.209 175.832 227.607 176.172L201.515 181.718C199.913 182.059 198.339 181.037 197.999 179.435Z" fill="#231F20"/>
<path fill-rule="evenodd" clip-rule="evenodd" d="M164.253 248.735C163.913 247.134 164.935 245.56 166.536 245.22L243.365 228.889C244.966 228.549 246.54 229.571 246.88 231.172C247.221 232.773 246.198 234.347 244.597 234.688L167.768 251.018C166.167 251.358 164.593 250.336 164.253 248.735Z" fill="black"/>
<path fill-rule="evenodd" clip-rule="evenodd" d="M253.571 220.3C253.571 220.3 253.571 220.3 253.571 220.3L253.571 220.3C253.571 220.3 253.571 220.3 253.571 220.3ZM253.574 220.298C253.573 220.298 253.573 220.298 253.573 220.298L253.574 220.297C253.574 220.297 253.574 220.297 253.574 220.298C253.574 220.298 253.574 220.298 253.574 220.298C253.574 220.298 253.574 220.298 253.574 220.298C253.574 220.298 253.574 220.298 253.574 220.298Z" fill="black"/>
<path fill-rule="evenodd" clip-rule="evenodd" d="M180.156 75.5357C181.02 77.1984 180.373 79.2471 178.71 80.1115C175.604 81.7261 172.695 84.6574 170.053 88.4448C167.431 92.2032 165.217 96.5927 163.425 100.838C161.638 105.072 160.303 109.081 159.415 112.036C158.972 113.51 158.642 114.715 158.424 115.546C158.315 115.961 158.234 116.283 158.182 116.497C158.155 116.604 158.136 116.684 158.124 116.735L158.11 116.791L158.108 116.803C158.108 116.803 158.107 116.804 158.107 116.804C157.683 118.629 155.86 119.765 154.035 119.342C152.21 118.918 151.073 117.095 151.497 115.269L154.802 116.036C151.497 115.269 151.497 115.268 151.497 115.267L151.499 115.258L151.505 115.236L151.523 115.158C151.539 115.092 151.562 114.997 151.592 114.874C151.652 114.629 151.741 114.275 151.859 113.825C152.095 112.926 152.447 111.643 152.916 110.082C153.852 106.966 155.266 102.716 157.173 98.1989C159.075 93.694 161.502 88.8413 164.487 84.5618C167.453 80.3114 171.12 76.409 175.58 74.0902C177.243 73.2258 179.291 73.8729 180.156 75.5357Z" fill="white"/>
</g>
<path fill-rule="evenodd" clip-rule="evenodd" d="M190.515 42.7461C190.632 41.926 191.392 41.3561 192.212 41.4733L192 42.9582C192.212 41.4733 192.213 41.4734 192.214 41.4735L192.215 41.4737L192.221 41.4745L192.236 41.4768L192.291 41.4851C192.336 41.4922 192.402 41.5026 192.485 41.5167C192.653 41.5449 192.893 41.5877 193.199 41.6479C193.808 41.7683 194.677 41.9583 195.731 42.2401C197.837 42.8026 200.701 43.7354 203.734 45.2194C209.779 48.1774 216.666 53.4188 219.321 62.4439C219.555 63.2387 219.1 64.0724 218.305 64.3062C217.51 64.5399 216.677 64.0852 216.443 63.2904C214.12 55.3929 208.067 50.6798 202.415 47.914C199.599 46.5361 196.927 45.6646 194.957 45.1384C193.974 44.8757 193.17 44.7003 192.618 44.5912C192.342 44.5367 192.128 44.4988 191.987 44.475C191.916 44.4631 191.864 44.4547 191.83 44.4495L191.794 44.444L191.788 44.4431L191.787 44.443L191.787 44.443C190.968 44.3254 190.398 43.5659 190.515 42.7461Z" fill="#231F20"/>
<path fill-rule="evenodd" clip-rule="evenodd" d="M195.488 33.8141C195.591 32.9921 196.341 32.409 197.163 32.5117L196.977 34.0002C197.163 32.5117 197.162 32.5117 197.163 32.5117L197.167 32.5123L197.174 32.5132L197.197 32.5162C197.217 32.5188 197.244 32.5224 197.278 32.5273C197.346 32.5369 197.444 32.5513 197.569 32.5711C197.819 32.6108 198.18 32.6723 198.635 32.7616C199.544 32.9402 200.832 33.2303 202.374 33.68C205.452 34.5779 209.57 36.1201 213.699 38.7008C214.401 39.1399 214.615 40.0653 214.176 40.7678C213.737 41.4703 212.811 41.6839 212.109 41.2448C208.275 38.8484 204.428 37.4042 201.534 36.56C200.089 36.1387 198.889 35.869 198.056 35.7053C197.64 35.6236 197.316 35.5684 197.1 35.5342C196.992 35.5171 196.911 35.5052 196.858 35.4978L196.802 35.4901L196.791 35.4886C196.79 35.4886 196.791 35.4886 196.791 35.4886M195.488 33.8141C195.386 34.6359 195.969 35.3855 196.791 35.4886L195.488 33.8141Z" fill="#231F20"/>
</svg>
