<svg width="430" height="430" viewBox="0 0 430 430" fill="none" xmlns="http://www.w3.org/2000/svg">
<path d="M430 215C430 333.741 333.741 430 215 430C96.2588 430 0 333.741 0 215C0 96.2588 96.2588 0 215 0C333.741 0 430 96.2588 430 215Z" fill="#FF845E"/>
<path fill-rule="evenodd" clip-rule="evenodd" d="M241.967 87.9914C241.284 88.4606 240.35 88.2876 239.881 87.6049L241.117 86.7552C239.881 87.6049 239.88 87.6043 239.88 87.6038L239.879 87.6022L239.876 87.598L239.867 87.5848L239.836 87.5394C239.811 87.5008 239.774 87.4456 239.728 87.3745C239.635 87.2323 239.504 87.0262 239.341 86.761C239.017 86.2307 238.568 85.463 238.061 84.4964C237.049 82.5664 235.796 79.8272 234.833 76.5911C232.916 70.1405 232.107 61.523 236.949 53.4575C237.375 52.7472 238.297 52.5171 239.007 52.9435C239.717 53.3699 239.947 54.2914 239.521 55.0016C235.284 62.0595 235.916 69.7048 237.709 75.7362C238.602 78.741 239.771 81.2976 240.718 83.1032C241.191 84.0044 241.606 84.7143 241.9 85.1949C242.047 85.435 242.164 85.6175 242.242 85.7377C242.281 85.7977 242.31 85.8421 242.329 85.8703L242.35 85.9004L242.353 85.9056L242.353 85.9061L242.354 85.9063C242.822 86.5889 242.649 87.5223 241.967 87.9914Z" fill="#231F20"/>
<path fill-rule="evenodd" clip-rule="evenodd" d="M232.027 90.3806C231.353 90.8618 230.416 90.7052 229.935 90.0308L231.156 89.1596C229.935 90.0308 229.935 90.0311 229.935 90.0308L229.932 90.0272L229.928 90.0213L229.915 90.0022C229.904 89.9863 229.888 89.9641 229.869 89.9357C229.829 89.8789 229.774 89.7972 229.703 89.6917C229.563 89.4806 229.364 89.1738 229.122 88.7787C228.638 87.989 227.978 86.8445 227.265 85.4055C225.841 82.5326 224.187 78.459 223.289 73.6731C223.136 72.8588 223.672 72.0749 224.486 71.9222C225.301 71.7694 226.084 72.3056 226.237 73.1198C227.071 77.5639 228.614 81.3718 229.953 84.073C230.621 85.4211 231.236 86.4867 231.679 87.2104C231.901 87.572 232.08 87.8477 232.201 88.03C232.262 88.1211 232.308 88.1888 232.338 88.2322L232.37 88.2789L232.377 88.2883C232.377 88.2885 232.377 88.2882 232.377 88.2883M232.027 90.3806C232.701 89.8996 232.858 88.9627 232.377 88.2883L232.027 90.3806Z" fill="#231F20"/>
<path d="M259.943 36.2561C267.644 35.5624 274.449 41.2427 275.143 48.9435C275.836 56.6443 270.156 63.4494 262.455 64.1432C254.754 64.837 247.949 59.1567 247.256 51.4559C246.562 43.7551 252.242 36.9499 259.943 36.2561Z" fill="#9B76FF"/>
<path d="M259.99 36.7827C267.4 36.115 273.949 41.581 274.616 48.9912C275.284 56.4014 269.818 62.9498 262.408 63.6174C254.997 64.285 248.449 58.819 247.781 51.4088C247.114 43.9986 252.58 37.4503 259.99 36.7827Z" fill="#8E5AFE"/>
<g filter="url(#filter0_f)">
<path d="M256.579 41.5983C260.429 41.2514 263.832 44.0915 264.179 47.9419C264.526 51.7923 261.685 55.1949 257.835 55.5418C253.985 55.8887 250.582 53.0486 250.235 49.1982C249.888 45.3478 252.728 41.9452 256.579 41.5983Z" fill="#AD8DFF"/>
</g>
<g filter="url(#filter1_f)">
<path fill-rule="evenodd" clip-rule="evenodd" d="M260.16 39.4583C264.661 40.1629 268.281 43.851 268.708 48.5944C269.212 54.1884 265.086 59.1318 259.492 59.6358C257.299 59.8333 255.206 59.3193 253.441 58.2842C255.778 60.9889 259.34 62.5668 263.173 62.2216C269.493 61.6521 274.155 56.0668 273.586 49.7463C273.016 43.4258 267.431 38.7637 261.11 39.3331C260.789 39.3621 260.472 39.404 260.16 39.4583Z" fill="#6D31FF"/>
</g>
<path fill-rule="evenodd" clip-rule="evenodd" d="M253.481 46.803C253.06 47.7849 253.067 48.848 253.202 49.5034C253.291 49.932 253.015 50.3511 252.586 50.4395C252.158 50.5279 251.739 50.252 251.65 49.8233C251.463 48.9164 251.452 47.5145 252.024 46.1792C252.613 44.8043 253.804 43.5452 255.909 42.9952C256.333 42.8846 256.765 43.1382 256.876 43.5616C256.987 43.9851 256.733 44.418 256.31 44.5286C254.696 44.9502 253.884 45.8607 253.481 46.803Z" fill="white"/>
<mask id="mask0" mask-type="alpha" maskUnits="userSpaceOnUse" x="0" y="0" width="430" height="430">
<path d="M430 215C430 333.741 333.741 430 215 430C96.2588 430 0 333.741 0 215C0 96.2588 96.2588 0 215 0C333.741 0 430 96.2588 430 215Z" fill="#FF845E"/>
</mask>
<g mask="url(#mask0)">
<path fill-rule="evenodd" clip-rule="evenodd" d="M314.211 134.163C310.137 110.169 289.251 91.8994 264.097 91.8994C236.022 91.8994 213.263 114.658 213.263 142.733C213.263 143.191 213.27 143.648 213.28 144.104L213.309 144.907C204.174 140.003 193.734 137.221 182.64 137.221C176.442 137.221 170.444 138.09 164.767 139.712C157.575 120.374 138.95 106.598 117.107 106.598C89.0324 106.598 66.2734 129.357 66.2734 157.432C66.2734 185.507 89.0324 208.266 117.107 208.266L118.005 208.258C120.186 231.625 134.754 251.394 155.077 260.938C133.005 271.303 117.72 293.734 117.72 319.733C117.72 355.588 146.785 384.654 182.64 384.654C186.186 384.654 189.664 384.37 193.054 383.823C197.423 415.433 224.548 439.775 257.36 439.775C293.215 439.775 322.28 410.709 322.28 374.854C322.28 359.8 317.156 345.943 308.558 334.931C324.328 323.087 334.53 304.228 334.53 282.986C334.53 269.92 330.668 257.755 324.027 247.57C341.439 235.926 352.903 216.086 352.903 193.567C352.903 167.047 337.001 144.24 314.211 134.163Z" fill="#8E5AFE"/>
<path d="M328.403 373.018C328.403 410.564 297.966 441.001 260.42 441.001C222.874 441.001 192.438 410.564 192.438 373.018C192.438 335.472 222.874 305.035 260.42 305.035C297.966 305.035 328.403 335.472 328.403 373.018Z" fill="#9B76FF"/>
<path d="M325.841 373.018C325.841 409.147 296.552 438.435 260.423 438.435C224.294 438.435 195.006 409.147 195.006 373.018C195.006 336.889 224.294 307.601 260.423 307.601C296.552 307.601 325.841 336.889 325.841 373.018Z" fill="#8E5AFE"/>
<g filter="url(#filter2_f)">
<path d="M304.03 354.419C304.03 373.192 288.811 388.41 270.038 388.41C251.265 388.41 236.047 373.192 236.047 354.419C236.047 335.646 251.265 320.428 270.038 320.428C288.811 320.428 304.03 335.646 304.03 354.419Z" fill="#7D4AFF"/>
</g>
<g filter="url(#filter3_f)">
<path fill-rule="evenodd" clip-rule="evenodd" d="M312.819 372.677C307.449 394.138 288.036 410.033 264.911 410.033C237.637 410.033 215.527 387.923 215.527 360.649C215.527 349.957 218.925 340.058 224.701 331.974C210.6 342.1 201.416 358.64 201.416 377.325C201.416 408.141 226.397 433.122 257.213 433.122C288.029 433.122 313.01 408.141 313.01 377.325C313.01 375.76 312.946 374.21 312.819 372.677Z" fill="#6D31FF"/>
</g>
<path d="M236.536 325.859C236.536 359.007 209.663 385.879 176.515 385.879C143.366 385.879 116.494 359.007 116.494 325.859C116.494 292.71 143.366 265.838 176.515 265.838C209.663 265.838 236.536 292.71 236.536 325.859Z" fill="#9B76FF"/>
<path d="M234.271 325.858C234.271 357.756 208.413 383.614 176.516 383.614C144.618 383.614 118.76 357.756 118.76 325.858C118.76 293.961 144.618 268.103 176.516 268.103C208.413 268.103 234.271 293.961 234.271 325.858Z" fill="#8E5AFE"/>
<g filter="url(#filter4_f)">
<path d="M215.019 309.438C215.019 326.012 201.583 339.449 185.008 339.449C168.434 339.449 154.998 326.012 154.998 309.438C154.998 292.864 168.434 279.428 185.008 279.428C201.583 279.428 215.019 292.864 215.019 309.438Z" fill="#AD8DFF"/>
</g>
<g filter="url(#filter5_f)">
<path fill-rule="evenodd" clip-rule="evenodd" d="M222.773 325.547C218.036 344.5 200.894 358.539 180.473 358.539C156.393 358.539 136.873 339.019 136.873 314.939C136.873 305.5 139.872 296.762 144.97 289.625C132.524 298.566 124.418 313.167 124.418 329.661C124.418 356.868 146.473 378.923 173.68 378.923C200.887 378.923 222.943 356.868 222.943 329.661C222.943 328.275 222.885 326.903 222.773 325.547Z" fill="#6D31FF"/>
</g>
<path fill-rule="evenodd" clip-rule="evenodd" d="M193.774 294.603C189.838 292.481 185.391 292.11 182.612 292.426C180.504 292.666 178.601 291.152 178.361 289.045C178.121 286.937 179.635 285.034 181.742 284.794C185.758 284.336 191.843 284.835 197.419 287.842C203.18 290.947 208.185 296.631 209.747 305.973C210.097 308.065 208.685 310.045 206.592 310.395C204.5 310.744 202.521 309.332 202.171 307.24C201.015 300.327 197.527 296.626 193.774 294.603Z" fill="white"/>
<path d="M270.834 255.426C270.834 290.266 242.591 318.509 207.751 318.509C172.911 318.509 144.668 290.266 144.668 255.426C144.668 220.586 172.911 192.343 207.751 192.343C242.591 192.343 270.834 220.586 270.834 255.426Z" fill="#9B76FF"/>
<path d="M268.454 255.426C268.454 288.951 241.276 316.129 207.751 316.129C174.226 316.129 147.049 288.951 147.049 255.426C147.049 221.901 174.226 194.724 207.751 194.724C241.276 194.724 268.454 221.901 268.454 255.426Z" fill="#8E5AFE"/>
<g filter="url(#filter6_f)">
<path d="M248.22 238.168C248.22 255.587 234.098 269.709 216.678 269.709C199.258 269.709 185.137 255.587 185.137 238.168C185.137 220.748 199.258 206.626 216.678 206.626C234.098 206.626 248.22 220.748 248.22 238.168Z" fill="#AD8DFF"/>
</g>
<g filter="url(#filter7_f)">
<path fill-rule="evenodd" clip-rule="evenodd" d="M256.37 255.1C251.389 275.019 233.374 289.773 211.912 289.773C186.604 289.773 166.087 269.257 166.087 243.949C166.087 234.028 169.239 224.844 174.597 217.344C161.516 226.741 152.996 242.087 152.996 259.422C152.996 288.017 176.177 311.198 204.772 311.198C233.367 311.198 256.548 288.017 256.548 259.422C256.548 257.967 256.487 256.525 256.37 255.1Z" fill="#6D31FF"/>
</g>
<path fill-rule="evenodd" clip-rule="evenodd" d="M225.984 222.404C221.806 220.151 217.089 219.757 214.137 220.094C212.03 220.334 210.126 218.82 209.886 216.712C209.646 214.605 211.16 212.701 213.268 212.461C217.457 211.984 223.81 212.505 229.629 215.642C235.632 218.878 240.854 224.802 242.486 234.559C242.836 236.651 241.423 238.63 239.331 238.98C237.239 239.33 235.259 237.918 234.909 235.825C233.684 228.498 229.98 224.558 225.984 222.404Z" fill="#C8B1FF"/>
<path d="M167.94 258.488C167.94 294.342 138.875 323.408 103.02 323.408C67.1655 323.408 38.0996 294.342 38.0996 258.488C38.0996 222.633 67.1655 193.567 103.02 193.567C138.875 193.567 167.94 222.633 167.94 258.488Z" fill="#9B76FF"/>
<path d="M165.49 258.488C165.49 292.99 137.521 320.959 103.019 320.959C68.5179 320.959 40.5488 292.99 40.5488 258.488C40.5488 223.987 68.5179 196.018 103.019 196.018C137.521 196.018 165.49 223.987 165.49 258.488Z" fill="#8E5AFE"/>
<g filter="url(#filter8_f)">
<path d="M144.668 240.727C144.668 258.654 130.136 273.187 112.208 273.187C94.281 273.187 79.748 258.654 79.748 240.727C79.748 222.8 94.281 208.267 112.208 208.267C130.136 208.267 144.668 222.8 144.668 240.727Z" fill="#AD8DFF"/>
</g>
<g filter="url(#filter9_f)">
<path fill-rule="evenodd" clip-rule="evenodd" d="M153.057 258.161C147.929 278.657 129.39 293.837 107.306 293.837C81.2606 293.837 60.1467 272.723 60.1467 246.678C60.1467 236.466 63.3922 227.013 68.9079 219.293C55.4425 228.963 46.6719 244.758 46.6719 262.601C46.6719 292.029 70.5278 315.885 99.9556 315.885C129.383 315.885 153.239 292.029 153.239 262.601C153.239 261.106 153.178 259.625 153.057 258.161Z" fill="#6D31FF"/>
</g>
<path fill-rule="evenodd" clip-rule="evenodd" d="M121.837 224.406C117.512 222.075 112.635 221.667 109.579 222.015C107.471 222.255 105.568 220.742 105.328 218.634C105.088 216.526 106.602 214.623 108.709 214.383C113.002 213.894 119.517 214.429 125.482 217.644C131.63 220.958 136.982 227.025 138.655 237.031C139.005 239.123 137.593 241.103 135.501 241.453C133.408 241.803 131.429 240.39 131.079 238.298C129.812 230.722 125.977 226.638 121.837 224.406Z" fill="#C8B1FF"/>
<path d="M323.503 143.958C323.503 175.416 298.002 200.917 266.544 200.917C235.087 200.917 209.586 175.416 209.586 143.958C209.586 112.501 235.087 87 266.544 87C298.002 87 323.503 112.501 323.503 143.958Z" fill="#9B76FF"/>
<path d="M321.355 143.959C321.355 174.229 296.816 198.768 266.545 198.768C236.275 198.768 211.736 174.229 211.736 143.959C211.736 113.688 236.275 89.1494 266.545 89.1494C296.816 89.1494 321.355 113.688 321.355 143.959Z" fill="#8E5AFE"/>
<g filter="url(#filter10_f)">
<path d="M303.087 128.376C303.087 144.104 290.337 156.855 274.608 156.855C258.879 156.855 246.129 144.104 246.129 128.376C246.129 112.647 258.879 99.8965 274.608 99.8965C290.337 99.8965 303.087 112.647 303.087 128.376Z" fill="#AD8DFF"/>
</g>
<g filter="url(#filter11_f)">
<path fill-rule="evenodd" clip-rule="evenodd" d="M310.447 143.666C305.95 161.65 289.683 174.972 270.305 174.972C247.454 174.972 228.93 156.447 228.93 133.596C228.93 124.639 231.776 116.346 236.614 109.573C224.802 118.058 217.109 131.914 217.109 147.567C217.109 173.386 238.04 194.316 263.858 194.316C289.677 194.316 310.607 173.386 310.607 147.567C310.607 146.253 310.553 144.952 310.447 143.666Z" fill="#6D31FF"/>
</g>
<path fill-rule="evenodd" clip-rule="evenodd" d="M282.834 114.471C279.14 112.48 274.961 112.13 272.356 112.427C270.248 112.667 268.345 111.153 268.105 109.045C267.865 106.938 269.379 105.035 271.487 104.794C275.329 104.357 281.145 104.833 286.479 107.709C291.996 110.683 296.785 116.128 298.278 125.055C298.628 127.148 297.215 129.127 295.123 129.477C293.031 129.827 291.051 128.414 290.701 126.322C289.615 119.824 286.344 116.363 282.834 114.471Z" fill="white"/>
<path d="M360.254 194.18C360.254 229.02 332.011 257.263 297.171 257.263C262.331 257.263 234.088 229.02 234.088 194.18C234.088 159.34 262.331 131.097 297.171 131.097C332.011 131.097 360.254 159.34 360.254 194.18Z" fill="#9B76FF"/>
<path d="M357.874 194.18C357.874 227.705 330.696 254.883 297.171 254.883C263.646 254.883 236.469 227.705 236.469 194.18C236.469 160.655 263.646 133.478 297.171 133.478C330.696 133.478 357.874 160.655 357.874 194.18Z" fill="#8E5AFE"/>
<g filter="url(#filter12_f)">
<path d="M337.64 176.921C337.64 194.341 323.518 208.463 306.098 208.463C288.678 208.463 274.557 194.341 274.557 176.921C274.557 159.502 288.678 145.38 306.098 145.38C323.518 145.38 337.64 159.502 337.64 176.921Z" fill="#AD8DFF"/>
</g>
<g filter="url(#filter13_f)">
<path fill-rule="evenodd" clip-rule="evenodd" d="M345.794 193.854C340.813 213.773 322.797 228.527 301.336 228.527C276.027 228.527 255.511 208.011 255.511 182.702C255.511 172.782 258.663 163.598 264.021 156.098C250.94 165.495 242.42 180.841 242.42 198.176C242.42 226.771 265.601 249.952 294.196 249.952C322.791 249.952 345.971 226.771 345.971 198.176C345.971 196.721 345.911 195.279 345.794 193.854Z" fill="#6D31FF"/>
</g>
<path fill-rule="evenodd" clip-rule="evenodd" d="M315.404 161.158C311.225 158.905 306.509 158.511 303.557 158.848C301.45 159.088 299.546 157.574 299.306 155.466C299.066 153.358 300.58 151.455 302.688 151.215C306.877 150.738 313.23 151.259 319.049 154.396C325.052 157.632 330.274 163.555 331.906 173.313C332.256 175.405 330.843 177.384 328.751 177.734C326.659 178.084 324.679 176.672 324.329 174.579C323.104 167.252 319.399 163.312 315.404 161.158Z" fill="white"/>
<path d="M167.94 155.595C167.94 184.685 144.359 208.266 115.269 208.266C86.1794 208.266 62.5977 184.685 62.5977 155.595C62.5977 126.506 86.1794 102.924 115.269 102.924C144.359 102.924 167.94 126.506 167.94 155.595Z" fill="#9B76FF"/>
<path d="M165.951 155.595C165.951 183.587 143.26 206.279 115.268 206.279C87.2758 206.279 64.584 183.587 64.584 155.595C64.584 127.603 87.2758 104.911 115.268 104.911C143.26 104.911 165.951 127.603 165.951 155.595Z" fill="#8E5AFE"/>
<g filter="url(#filter14_f)">
<path d="M149.06 141.185C149.06 155.73 137.269 167.521 122.724 167.521C108.18 167.521 96.3887 155.73 96.3887 141.185C96.3887 126.64 108.18 114.85 122.724 114.85C137.269 114.85 149.06 126.64 149.06 141.185Z" fill="#AD8DFF"/>
</g>
<g filter="url(#filter15_f)">
<path fill-rule="evenodd" clip-rule="evenodd" d="M155.863 155.326C151.704 171.956 136.662 184.274 118.743 184.274C97.6123 184.274 80.4822 167.143 80.4822 146.012C80.4822 137.729 83.1147 130.06 87.5886 123.797C76.6654 131.643 69.5508 144.457 69.5508 158.932C69.5508 182.807 88.9056 202.162 112.781 202.162C136.656 202.162 156.011 182.807 156.011 158.932C156.011 157.718 155.961 156.515 155.863 155.326Z" fill="#6D31FF"/>
</g>
<path fill-rule="evenodd" clip-rule="evenodd" d="M130.194 128.582C126.84 126.774 123.037 126.455 120.674 126.725C118.567 126.965 116.664 125.451 116.423 123.343C116.183 121.236 117.697 119.332 119.805 119.092C123.405 118.682 128.845 119.128 133.839 121.82C139.016 124.611 143.502 129.721 144.898 138.068C145.247 140.16 143.835 142.14 141.743 142.489C139.651 142.839 137.671 141.427 137.321 139.335C136.332 133.417 133.364 130.291 130.194 128.582Z" fill="white"/>
<path d="M236.534 184.993C236.534 214.082 212.952 237.664 183.863 237.664C154.773 237.664 131.191 214.082 131.191 184.993C131.191 155.903 154.773 132.321 183.863 132.321C212.952 132.321 236.534 155.903 236.534 184.993Z" fill="#9B76FF"/>
<path d="M234.547 184.992C234.547 212.984 211.855 235.676 183.863 235.676C155.872 235.676 133.18 212.984 133.18 184.992C133.18 157 155.872 134.309 183.863 134.309C211.855 134.309 234.547 157 234.547 184.992Z" fill="#8E5AFE"/>
<g filter="url(#filter16_f)">
<path d="M217.654 170.583C217.654 185.127 205.863 196.918 191.318 196.918C176.773 196.918 164.982 185.127 164.982 170.583C164.982 156.038 176.773 144.247 191.318 144.247C205.863 144.247 217.654 156.038 217.654 170.583Z" fill="#AD8DFF"/>
</g>
<g filter="url(#filter17_f)">
<path fill-rule="evenodd" clip-rule="evenodd" d="M224.457 184.724C220.297 201.354 205.256 213.671 187.337 213.671C166.206 213.671 149.076 196.541 149.076 175.41C149.076 167.126 151.708 159.457 156.182 153.194C145.259 161.04 138.145 173.854 138.145 188.329C138.145 212.205 157.499 231.56 181.375 231.56C205.25 231.56 224.605 212.205 224.605 188.329C224.605 187.115 224.555 185.913 224.457 184.724Z" fill="#6D31FF"/>
</g>
<path fill-rule="evenodd" clip-rule="evenodd" d="M198.787 157.978C195.434 156.17 191.631 155.852 189.268 156.121C187.16 156.361 185.257 154.847 185.017 152.74C184.777 150.632 186.291 148.729 188.399 148.489C191.999 148.079 197.438 148.524 202.432 151.217C207.61 154.008 212.096 159.117 213.491 167.464C213.841 169.556 212.429 171.536 210.337 171.886C208.244 172.236 206.265 170.823 205.915 168.731C204.925 162.814 201.957 159.687 198.787 157.978Z" fill="white"/>
<path d="M341.879 286.661C341.879 319.133 315.555 345.457 283.083 345.457C250.611 345.457 224.287 319.133 224.287 286.661C224.287 254.189 250.611 227.865 283.083 227.865C315.555 227.865 341.879 254.189 341.879 286.661Z" fill="#9B76FF"/>
<path d="M339.66 286.661C339.66 317.908 314.33 343.238 283.083 343.238C251.836 343.238 226.506 317.908 226.506 286.661C226.506 255.414 251.836 230.084 283.083 230.084C314.33 230.084 339.66 255.414 339.66 286.661Z" fill="#8E5AFE"/>
<g filter="url(#filter18_f)">
<path d="M320.802 270.576C320.802 286.812 307.64 299.974 291.404 299.974C275.168 299.974 262.006 286.812 262.006 270.576C262.006 254.34 275.168 241.178 291.404 241.178C307.64 241.178 320.802 254.34 320.802 270.576Z" fill="#AD8DFF"/>
</g>
<g filter="url(#filter19_f)">
<path fill-rule="evenodd" clip-rule="evenodd" d="M328.399 286.36C323.757 304.924 306.966 318.674 286.963 318.674C263.375 318.674 244.253 299.552 244.253 275.964C244.253 266.717 247.192 258.156 252.186 251.165C239.993 259.923 232.051 274.227 232.051 290.386C232.051 317.037 253.656 338.643 280.308 338.643C306.959 338.643 328.565 317.037 328.565 290.386C328.565 289.03 328.509 287.687 328.399 286.36Z" fill="#6D31FF"/>
</g>
<path fill-rule="evenodd" clip-rule="evenodd" d="M299.954 256.113C296.114 254.043 291.774 253.68 289.065 253.989C286.957 254.229 285.054 252.715 284.814 250.608C284.574 248.5 286.088 246.597 288.196 246.357C292.142 245.907 298.119 246.397 303.599 249.351C309.262 252.404 314.181 257.992 315.715 267.169C316.065 269.261 314.652 271.24 312.56 271.59C310.468 271.94 308.488 270.528 308.138 268.435C307.01 261.689 303.609 258.083 299.954 256.113Z" fill="white"/>
<path fill-rule="evenodd" clip-rule="evenodd" d="M204.006 231.698C202.582 235.102 200.052 237.535 196.858 238.094C190.95 239.127 185.005 233.364 183.58 225.22C182.155 217.076 185.789 209.636 191.697 208.602C194.892 208.043 198.097 209.472 200.593 212.19C202.017 208.786 204.547 206.353 207.742 205.794C213.65 204.761 219.594 210.525 221.019 218.669C222.444 226.812 218.81 234.253 212.903 235.286C209.708 235.845 206.502 234.416 204.006 231.698Z" fill="#FD476D"/>
<path fill-rule="evenodd" clip-rule="evenodd" d="M222.499 192.838L205.311 204.599C203.943 205.534 203.593 207.401 204.529 208.769C205.464 210.136 207.331 210.486 208.699 209.551L232.403 193.332C236.164 190.758 233.796 184.873 229.3 185.622L196.05 191.164C194.416 191.436 193.312 192.982 193.584 194.616C193.857 196.25 195.402 197.354 197.037 197.082L222.499 192.838Z" fill="#231F20"/>
<path fill-rule="evenodd" clip-rule="evenodd" d="M193.559 215.807C194.582 215.064 196.013 215.291 196.755 216.314L201.479 222.82C202.222 223.843 201.995 225.274 200.972 226.016C199.949 226.759 198.518 226.532 197.775 225.509L193.052 219.003C192.309 217.981 192.536 216.549 193.559 215.807Z" fill="#231F20"/>
<path fill-rule="evenodd" clip-rule="evenodd" d="M295.175 196.771C301.083 195.737 304.855 189.091 303.602 181.926C302.348 174.761 296.542 169.791 290.635 170.824C287.44 171.383 284.869 173.584 283.38 176.621C280.949 174.271 277.784 173.074 274.59 173.633C268.682 174.667 264.909 181.313 266.163 188.478C267.417 195.643 273.222 200.613 279.13 199.58C282.325 199.021 284.896 196.82 286.384 193.783C288.816 196.133 291.98 197.33 295.175 196.771Z" fill="#FD476D"/>
<path fill-rule="evenodd" clip-rule="evenodd" d="M273.181 183.232C273.971 182.245 275.411 182.085 276.398 182.875L282.676 187.897C283.663 188.687 283.823 190.127 283.033 191.114C282.244 192.101 280.804 192.261 279.817 191.471L273.539 186.449C272.552 185.659 272.392 184.219 273.181 183.232Z" fill="#231F20"/>
<path fill-rule="evenodd" clip-rule="evenodd" d="M285.736 180.721C286.526 179.734 287.966 179.574 288.953 180.364L295.231 185.386C296.218 186.176 296.378 187.616 295.588 188.603C294.798 189.59 293.358 189.75 292.371 188.96L286.093 183.938C285.106 183.148 284.946 181.708 285.736 180.721Z" fill="#231F20"/>
<path fill-rule="evenodd" clip-rule="evenodd" d="M206.328 216.71C207.351 215.968 208.782 216.195 209.525 217.217L214.249 223.723C214.991 224.746 214.764 226.177 213.741 226.92C212.719 227.662 211.288 227.435 210.545 226.412L205.821 219.907C205.079 218.884 205.306 217.453 206.328 216.71Z" fill="#231F20"/>
<path d="M263.251 194.032C269.394 192.138 271.985 182.857 269.039 173.301C266.092 163.746 258.724 157.536 252.581 159.43C246.439 161.324 243.848 170.605 246.794 180.161C249.741 189.716 257.109 195.927 263.251 194.032Z" fill="white"/>
<path d="M256.669 159.523C253.723 163.138 251.921 170.46 254.208 177.875C256.494 185.29 262.006 190.936 266.476 192.265C270.361 189.027 271.324 180.717 269.038 173.302C266.751 165.887 262.374 160.47 256.669 159.523Z" fill="#231F20"/>
<path fill-rule="evenodd" clip-rule="evenodd" d="M229.329 211.978C227.9 212.817 227.421 214.655 228.259 216.084L228.322 216.192C231.572 221.732 237.46 231.771 244.727 238.834C248.386 242.39 252.639 245.439 257.331 246.627C262.155 247.848 267.168 247.026 271.972 243.396C273.494 242.465 274.438 241.355 275.181 240.211C275.507 239.71 275.808 239.181 276.074 238.712C276.098 238.67 276.122 238.628 276.145 238.587C276.442 238.065 276.729 237.567 277.07 237.042L277.218 236.815L277.322 236.565C278.945 232.693 278.528 228.316 277.576 224.339C276.7 220.682 275.247 216.899 273.956 213.537C273.83 213.207 273.704 212.882 273.582 212.56C272.99 211.013 271.255 210.238 269.708 210.83C268.16 211.422 267.386 213.156 267.978 214.704C268.097 215.015 268.216 215.327 268.335 215.638C269.654 219.075 270.963 222.487 271.741 225.736C272.569 229.195 272.659 231.958 271.876 234.026C271.504 234.614 271.194 235.156 270.929 235.621L270.88 235.707C270.589 236.22 270.375 236.596 270.152 236.94C269.74 237.573 269.379 237.963 268.769 238.321L268.608 238.415L268.46 238.529C265.037 241.157 261.855 241.583 258.803 240.811C255.572 239.993 252.224 237.754 248.909 234.531C242.274 228.083 236.741 218.686 233.434 213.048C232.596 211.619 230.758 211.14 229.329 211.978Z" fill="#231F20"/>
<path fill-rule="evenodd" clip-rule="evenodd" d="M257.342 159.688C258.167 161.125 257.671 162.958 256.234 163.783L238.185 174.145C236.749 174.97 234.915 174.474 234.09 173.037C233.265 171.6 233.761 169.766 235.198 168.941L253.247 158.58C254.684 157.755 256.517 158.251 257.342 159.688Z" fill="#231F20"/>
</g>
<defs>
<filter id="filter0_f" x="246.245" y="37.6071" width="21.9254" height="21.9254" filterUnits="userSpaceOnUse" color-interpolation-filters="sRGB">
<feFlood flood-opacity="0" result="BackgroundImageFix"/>
<feBlend mode="normal" in="SourceGraphic" in2="BackgroundImageFix" result="shape"/>
<feGaussianBlur stdDeviation="1.98113" result="effect1_foregroundBlur"/>
</filter>
<filter id="filter1_f" x="250.272" y="36.1163" width="26.5316" height="29.3222" filterUnits="userSpaceOnUse" color-interpolation-filters="sRGB">
<feFlood flood-opacity="0" result="BackgroundImageFix"/>
<feBlend mode="normal" in="SourceGraphic" in2="BackgroundImageFix" result="shape"/>
<feGaussianBlur stdDeviation="1.58491" result="effect1_foregroundBlur"/>
</filter>
<filter id="filter2_f" x="216.843" y="301.224" width="106.391" height="106.391" filterUnits="userSpaceOnUse" color-interpolation-filters="sRGB">
<feFlood flood-opacity="0" result="BackgroundImageFix"/>
<feBlend mode="normal" in="SourceGraphic" in2="BackgroundImageFix" result="shape"/>
<feGaussianBlur stdDeviation="9.60208" result="effect1_foregroundBlur"/>
</filter>
<filter id="filter3_f" x="186.053" y="316.61" width="142.321" height="131.875" filterUnits="userSpaceOnUse" color-interpolation-filters="sRGB">
<feFlood flood-opacity="0" result="BackgroundImageFix"/>
<feBlend mode="normal" in="SourceGraphic" in2="BackgroundImageFix" result="shape"/>
<feGaussianBlur stdDeviation="7.68166" result="effect1_foregroundBlur"/>
</filter>
<filter id="filter4_f" x="135.794" y="260.224" width="98.4291" height="98.4291" filterUnits="userSpaceOnUse" color-interpolation-filters="sRGB">
<feFlood flood-opacity="0" result="BackgroundImageFix"/>
<feBlend mode="normal" in="SourceGraphic" in2="BackgroundImageFix" result="shape"/>
<feGaussianBlur stdDeviation="9.60208" result="effect1_foregroundBlur"/>
</filter>
<filter id="filter5_f" x="109.055" y="274.262" width="129.251" height="120.025" filterUnits="userSpaceOnUse" color-interpolation-filters="sRGB">
<feFlood flood-opacity="0" result="BackgroundImageFix"/>
<feBlend mode="normal" in="SourceGraphic" in2="BackgroundImageFix" result="shape"/>
<feGaussianBlur stdDeviation="7.68166" result="effect1_foregroundBlur"/>
</filter>
<filter id="filter6_f" x="165.933" y="187.422" width="101.491" height="101.491" filterUnits="userSpaceOnUse" color-interpolation-filters="sRGB">
<feFlood flood-opacity="0" result="BackgroundImageFix"/>
<feBlend mode="normal" in="SourceGraphic" in2="BackgroundImageFix" result="shape"/>
<feGaussianBlur stdDeviation="9.60208" result="effect1_foregroundBlur"/>
</filter>
<filter id="filter7_f" x="137.633" y="201.98" width="134.278" height="124.581" filterUnits="userSpaceOnUse" color-interpolation-filters="sRGB">
<feFlood flood-opacity="0" result="BackgroundImageFix"/>
<feBlend mode="normal" in="SourceGraphic" in2="BackgroundImageFix" result="shape"/>
<feGaussianBlur stdDeviation="7.68166" result="effect1_foregroundBlur"/>
</filter>
<filter id="filter8_f" x="60.5439" y="189.062" width="103.329" height="103.329" filterUnits="userSpaceOnUse" color-interpolation-filters="sRGB">
<feFlood flood-opacity="0" result="BackgroundImageFix"/>
<feBlend mode="normal" in="SourceGraphic" in2="BackgroundImageFix" result="shape"/>
<feGaussianBlur stdDeviation="9.60208" result="effect1_foregroundBlur"/>
</filter>
<filter id="filter9_f" x="31.3086" y="203.93" width="137.294" height="127.319" filterUnits="userSpaceOnUse" color-interpolation-filters="sRGB">
<feFlood flood-opacity="0" result="BackgroundImageFix"/>
<feBlend mode="normal" in="SourceGraphic" in2="BackgroundImageFix" result="shape"/>
<feGaussianBlur stdDeviation="7.68166" result="effect1_foregroundBlur"/>
</filter>
<filter id="filter10_f" x="226.925" y="80.6923" width="95.3668" height="95.3668" filterUnits="userSpaceOnUse" color-interpolation-filters="sRGB">
<feFlood flood-opacity="0" result="BackgroundImageFix"/>
<feBlend mode="normal" in="SourceGraphic" in2="BackgroundImageFix" result="shape"/>
<feGaussianBlur stdDeviation="9.60208" result="effect1_foregroundBlur"/>
</filter>
<filter id="filter11_f" x="201.746" y="94.2099" width="124.225" height="115.47" filterUnits="userSpaceOnUse" color-interpolation-filters="sRGB">
<feFlood flood-opacity="0" result="BackgroundImageFix"/>
<feBlend mode="normal" in="SourceGraphic" in2="BackgroundImageFix" result="shape"/>
<feGaussianBlur stdDeviation="7.68166" result="effect1_foregroundBlur"/>
</filter>
<filter id="filter12_f" x="255.352" y="126.176" width="101.491" height="101.491" filterUnits="userSpaceOnUse" color-interpolation-filters="sRGB">
<feFlood flood-opacity="0" result="BackgroundImageFix"/>
<feBlend mode="normal" in="SourceGraphic" in2="BackgroundImageFix" result="shape"/>
<feGaussianBlur stdDeviation="9.60208" result="effect1_foregroundBlur"/>
</filter>
<filter id="filter13_f" x="227.057" y="140.734" width="134.278" height="124.581" filterUnits="userSpaceOnUse" color-interpolation-filters="sRGB">
<feFlood flood-opacity="0" result="BackgroundImageFix"/>
<feBlend mode="normal" in="SourceGraphic" in2="BackgroundImageFix" result="shape"/>
<feGaussianBlur stdDeviation="7.68166" result="effect1_foregroundBlur"/>
</filter>
<filter id="filter14_f" x="77.1845" y="95.6455" width="91.0796" height="91.0796" filterUnits="userSpaceOnUse" color-interpolation-filters="sRGB">
<feFlood flood-opacity="0" result="BackgroundImageFix"/>
<feBlend mode="normal" in="SourceGraphic" in2="BackgroundImageFix" result="shape"/>
<feGaussianBlur stdDeviation="9.60208" result="effect1_foregroundBlur"/>
</filter>
<filter id="filter15_f" x="54.1875" y="108.434" width="117.187" height="109.092" filterUnits="userSpaceOnUse" color-interpolation-filters="sRGB">
<feFlood flood-opacity="0" result="BackgroundImageFix"/>
<feBlend mode="normal" in="SourceGraphic" in2="BackgroundImageFix" result="shape"/>
<feGaussianBlur stdDeviation="7.68166" result="effect1_foregroundBlur"/>
</filter>
<filter id="filter16_f" x="145.778" y="125.043" width="91.0796" height="91.0796" filterUnits="userSpaceOnUse" color-interpolation-filters="sRGB">
<feFlood flood-opacity="0" result="BackgroundImageFix"/>
<feBlend mode="normal" in="SourceGraphic" in2="BackgroundImageFix" result="shape"/>
<feGaussianBlur stdDeviation="9.60208" result="effect1_foregroundBlur"/>
</filter>
<filter id="filter17_f" x="122.781" y="137.831" width="117.187" height="109.092" filterUnits="userSpaceOnUse" color-interpolation-filters="sRGB">
<feFlood flood-opacity="0" result="BackgroundImageFix"/>
<feBlend mode="normal" in="SourceGraphic" in2="BackgroundImageFix" result="shape"/>
<feGaussianBlur stdDeviation="7.68166" result="effect1_foregroundBlur"/>
</filter>
<filter id="filter18_f" x="242.802" y="221.974" width="97.2042" height="97.2042" filterUnits="userSpaceOnUse" color-interpolation-filters="sRGB">
<feFlood flood-opacity="0" result="BackgroundImageFix"/>
<feBlend mode="normal" in="SourceGraphic" in2="BackgroundImageFix" result="shape"/>
<feGaussianBlur stdDeviation="9.60208" result="effect1_foregroundBlur"/>
</filter>
<filter id="filter19_f" x="216.687" y="235.802" width="127.241" height="118.204" filterUnits="userSpaceOnUse" color-interpolation-filters="sRGB">
<feFlood flood-opacity="0" result="BackgroundImageFix"/>
<feBlend mode="normal" in="SourceGraphic" in2="BackgroundImageFix" result="shape"/>
<feGaussianBlur stdDeviation="7.68166" result="effect1_foregroundBlur"/>
</filter>
</defs>
</svg>
