<svg width="430" height="430" viewBox="0 0 430 430" fill="none" xmlns="http://www.w3.org/2000/svg">
<path d="M430 215C430 333.741 333.741 430 215 430C96.2588 430 0 333.741 0 215C0 96.2588 96.2588 0 215 0C333.741 0 430 96.2588 430 215Z" fill="#FF845D"/>
<path d="M196.032 104.237C191.438 112.419 194.247 123.478 202.18 128.434L220.9 140.128C226.396 143.562 229.144 145.279 231.843 144.556C234.542 143.833 236.063 140.972 239.107 135.25L249.471 115.762C253.863 107.504 250.767 96.522 242.697 91.7334C234.936 87.1288 225.569 90.0534 221.775 98.2658C221.003 99.9384 218.922 100.496 217.417 99.4336C210.025 94.2185 200.451 96.369 196.032 104.237Z" fill="#9971FF"/>
<path fill-rule="evenodd" clip-rule="evenodd" d="M86.9653 280.706C87.1278 281.518 86.6009 282.309 85.7886 282.471L65.7886 286.471C64.9763 286.634 64.186 286.107 64.0236 285.294C63.8611 284.482 64.3879 283.692 65.2003 283.529L85.2003 279.529C86.0126 279.367 86.8028 279.894 86.9653 280.706Z" fill="#4CE6B7"/>
<path fill-rule="evenodd" clip-rule="evenodd" d="M85.9897 252.439C85.813 253.237 84.9959 253.787 84.1647 253.668L63.6793 250.729C62.848 250.61 62.3174 249.866 62.4941 249.069C62.6707 248.271 63.4878 247.721 64.3191 247.84L84.8045 250.779C85.6357 250.899 86.1664 251.642 85.9897 252.439Z" fill="#4CE6B7"/>
<path fill-rule="evenodd" clip-rule="evenodd" d="M94.9701 206.808C94.7764 207.601 93.947 208.135 93.1174 208.001L72.7038 204.695C71.8743 204.56 71.3588 203.809 71.5525 203.016C71.7462 202.223 72.5757 201.689 73.4052 201.823L93.8188 205.129C94.6483 205.263 95.1638 206.015 94.9701 206.808Z" fill="#4CE6B7"/>
<path fill-rule="evenodd" clip-rule="evenodd" d="M105.643 179.915C104.952 180.345 103.986 180.142 103.487 179.464L92.1746 164.09C91.6751 163.411 91.8306 162.513 92.522 162.083C93.2134 161.654 94.1788 161.856 94.6782 162.535L105.991 177.909C106.49 178.588 106.334 179.486 105.643 179.915Z" fill="#4CE6B7"/>
<path fill-rule="evenodd" clip-rule="evenodd" d="M319.334 109.078C319.842 109.707 320.834 109.85 321.55 109.396L338.416 98.7104C339.131 98.2568 339.3 97.3788 338.792 96.7493C338.284 96.1197 337.292 95.9771 336.576 96.4306L319.71 107.117C318.994 107.57 318.826 108.448 319.334 109.078Z" fill="#DCCFFF"/>
<path fill-rule="evenodd" clip-rule="evenodd" d="M146.693 147.663C145.872 147.772 145.118 147.195 145.008 146.374L142.587 128.198C142.477 127.376 143.054 126.622 143.875 126.513C144.697 126.403 145.451 126.98 145.56 127.801L147.982 145.978C148.091 146.799 147.514 147.554 146.693 147.663Z" fill="#9971FF"/>
<path fill-rule="evenodd" clip-rule="evenodd" d="M307.82 98.4181C308.539 98.8039 309.483 98.5389 309.929 97.8261L319.963 81.7748C320.409 81.0619 320.187 80.1712 319.468 79.7853C318.749 79.3995 317.805 79.6645 317.36 80.3773L307.325 96.4286C306.879 97.1415 307.101 98.0322 307.82 98.4181Z" fill="#DCCFFF"/>
<path d="M133.053 70.282C103.442 72.4563 124.299 154.68 140.218 200.933C122.015 207.809 108.368 223.924 112.576 253.381C120.691 310.189 207.17 388.261 263.724 388.261C321.794 384.204 299.736 236.098 299.229 226.968C298.722 217.838 325.84 123.028 291.857 109.333C264.67 98.377 261.436 155.62 263.465 184.869C253.209 171.538 239.346 175.774 232.018 181.188C230.525 178.133 228.825 175.435 226.93 173.219C213.111 157.052 193.566 163.816 184.678 169.653C175.366 124.257 157.66 68.4752 133.053 70.282Z" fill="#FFF176"/>
<path fill-rule="evenodd" clip-rule="evenodd" d="M184.276 167.694C185.358 167.472 186.415 168.169 186.637 169.251C189.045 180.988 190.894 192.036 192.159 201.233C192.31 202.327 191.545 203.337 190.45 203.487C189.356 203.638 188.347 202.873 188.197 201.778C186.943 192.668 185.109 181.706 182.719 170.055C182.497 168.973 183.194 167.915 184.276 167.694Z" fill="#231F20"/>
<path fill-rule="evenodd" clip-rule="evenodd" d="M231.472 180.017C232.471 179.546 233.663 179.973 234.135 180.972C240.448 194.349 242.966 213.801 240.916 230.095C239.89 238.25 237.699 245.792 234.119 251.44C230.51 257.133 225.391 261.027 218.634 261.412C212.771 261.747 207.266 260.539 203.025 258.219C198.809 255.913 195.633 252.368 194.986 247.976C194.826 246.883 195.581 245.867 196.674 245.706C197.767 245.545 198.783 246.3 198.944 247.393C199.348 250.142 201.415 252.779 204.945 254.71C208.452 256.629 213.198 257.716 218.406 257.419C223.536 257.126 227.617 254.226 230.74 249.299C233.891 244.328 235.962 237.424 236.947 229.596C238.919 213.923 236.453 195.258 230.517 182.679C230.046 181.68 230.473 180.488 231.472 180.017Z" fill="#231F20"/>
<path fill-rule="evenodd" clip-rule="evenodd" d="M261.708 182.504C262.57 181.813 263.828 181.952 264.519 182.814C269.333 188.818 273.314 198.172 275.766 212.067C280.649 239.745 275.26 253.946 266.893 260.59C262.755 263.876 258.082 265.137 254.05 265.356C250.076 265.573 246.522 264.787 244.53 263.733C240.012 261.341 237.071 258.82 235.024 256.495C233.37 254.615 232.308 252.858 231.552 251.607C231.385 251.331 231.233 251.08 231.093 250.857C230.504 249.923 230.785 248.688 231.72 248.099C232.655 247.511 233.889 247.792 234.478 248.726C234.66 249.016 234.841 249.314 235.028 249.623C235.781 250.864 236.631 252.266 238.027 253.852C239.743 255.801 242.297 258.024 246.402 260.197C247.595 260.83 250.385 261.55 253.832 261.362C257.221 261.178 261.047 260.125 264.405 257.458C271.03 252.197 276.621 239.936 271.827 212.762C269.44 199.234 265.638 190.604 261.398 185.315C260.707 184.454 260.846 183.195 261.708 182.504Z" fill="#231F20"/>
<path fill-rule="evenodd" clip-rule="evenodd" d="M180.431 200.668C168.03 197.857 153.331 198.128 140.92 202.816C139.887 203.207 138.733 202.685 138.342 201.652C137.952 200.619 138.473 199.465 139.507 199.074C152.773 194.063 168.289 193.814 181.315 196.767C187.839 198.246 193.814 200.544 198.618 203.515C203.403 206.474 207.164 210.19 209.013 214.561C212.082 221.818 212.493 228.303 210.75 233.903C209.011 239.489 205.201 243.958 200.259 247.334C190.437 254.045 175.844 256.67 162.345 255.372C161.246 255.266 160.44 254.289 160.546 253.19C160.651 252.09 161.628 251.284 162.728 251.39C175.605 252.628 189.177 250.061 198.003 244.031C202.384 241.038 205.519 237.249 206.931 232.714C208.339 228.192 208.108 222.69 205.329 216.119C203.914 212.774 200.883 209.619 196.514 206.917C192.163 204.226 186.622 202.071 180.431 200.668Z" fill="#231F20"/>
</svg>
