<svg width="430" height="430" viewBox="0 0 430 430" fill="none" xmlns="http://www.w3.org/2000/svg">
<path d="M430 215C430 333.741 333.741 430 215 430C96.2588 430 0 333.741 0 215C0 96.2588 96.2588 0 215 0C333.741 0 430 96.2588 430 215Z" fill="#4CE6B7"/>
<mask id="mask0" mask-type="alpha" maskUnits="userSpaceOnUse" x="0" y="0" width="430" height="430">
<path d="M430 215C430 333.741 333.741 430 215 430C96.2588 430 0 333.741 0 215C0 96.2588 96.2588 0 215 0C333.741 0 430 96.2588 430 215Z" fill="#4CE6B7"/>
</mask>
<g mask="url(#mask0)">
<path d="M110.167 150.898C109.363 147.112 110.777 143.198 113.816 140.801L231.319 48.1272C237.235 43.4613 245.994 46.6264 247.56 53.9962L352.765 548.945C353.569 552.731 352.155 556.645 349.116 559.042L231.613 651.716C225.697 656.382 216.939 653.217 215.372 645.847L110.167 150.898Z" fill="#FFF04A"/>
<path d="M115.051 147.897C113.489 149.129 114.783 151.146 116.759 150.917L169.871 144.775C170.411 144.713 170.934 144.542 171.407 144.274L217.163 118.364C217.966 117.91 218.59 117.196 218.933 116.341L242.532 57.5733C243.279 55.7116 242.558 53.4773 240.586 53.1127C237.91 52.6182 235.038 53.2631 232.554 55.2225L115.051 147.897Z" fill="#FFDB1E"/>
<path fill-rule="evenodd" clip-rule="evenodd" d="M214.823 100.715C216.066 100.451 217.287 101.244 217.551 102.486L244.579 229.646C244.843 230.888 244.05 232.109 242.808 232.373C241.566 232.637 240.345 231.844 240.081 230.602L213.052 103.443C212.788 102.2 213.581 100.979 214.823 100.715Z" fill="#FFDB1E"/>
<path fill-rule="evenodd" clip-rule="evenodd" d="M170.612 142.827C171.855 142.563 173.076 143.356 173.34 144.598L186.854 208.177C187.118 209.419 186.325 210.641 185.083 210.905C183.841 211.169 182.62 210.376 182.356 209.133L168.841 145.554C168.577 144.312 169.37 143.091 170.612 142.827Z" fill="#FFDB1E"/>
<path fill-rule="evenodd" clip-rule="evenodd" d="M269.259 337.573C270.501 337.309 271.722 338.102 271.986 339.344L306.707 502.694C306.971 503.937 306.179 505.158 304.936 505.422C303.694 505.686 302.473 504.893 302.209 503.651L267.488 340.3C267.224 339.058 268.017 337.837 269.259 337.573Z" fill="#FFDB1E"/>
<path fill-rule="evenodd" clip-rule="evenodd" d="M140.463 160.166C140.927 160.167 141.394 160.169 141.864 160.169C142.969 160.169 143.864 161.064 143.864 162.169C143.864 163.273 142.969 164.169 141.864 164.169C141.37 164.169 140.889 164.168 140.423 164.166C137.398 164.159 134.95 164.153 132.951 164.472C130.715 164.83 129.518 165.525 128.827 166.685C128.053 167.984 127.623 170.327 128.165 174.678C128.699 178.967 130.13 184.86 132.657 192.96C132.986 194.015 132.398 195.136 131.344 195.465C130.29 195.794 129.168 195.206 128.839 194.152C126.29 185.983 124.775 179.819 124.196 175.173C123.624 170.588 123.913 167.118 125.391 164.637C126.951 162.017 129.539 160.967 132.321 160.523C134.666 160.148 137.488 160.157 140.463 160.166Z" fill="white"/>
<path d="M180.71 276.214C174.969 277.208 169.065 270.79 167.523 261.881C165.981 252.971 169.385 244.943 175.126 243.95C180.867 242.956 186.772 249.373 188.314 258.283C189.856 267.192 186.452 275.22 180.71 276.214Z" fill="white"/>
<path d="M171.795 245.485C175.659 247.195 180.124 252.37 181.323 259.3C182.523 266.23 180.39 273.057 177.325 275.967C172.855 274.947 168.663 268.629 167.463 261.699C166.264 254.769 167.574 248.594 171.795 245.485Z" fill="#231F20"/>
<path d="M216.294 265.192C210.553 266.186 204.649 259.769 203.107 250.859C201.565 241.95 204.969 233.922 210.71 232.928C216.451 231.934 222.356 238.352 223.898 247.261C225.44 256.171 222.036 264.199 216.294 265.192Z" fill="white"/>
<path d="M207.379 234.464C211.243 236.174 215.708 241.35 216.907 248.28C218.107 255.21 215.974 262.036 212.909 264.946C208.439 263.927 204.247 257.609 203.047 250.679C201.848 243.749 203.158 237.574 207.379 234.464Z" fill="#231F20"/>
<path d="M200.116 284.127C201.285 283.878 205.441 297.657 205.69 298.826C208.352 305.592 211.263 313.526 216.686 316.037C219.273 316.709 220.691 317.629 223.029 317.131C242.231 315.487 236.009 286.261 233.52 274.571C233.52 274.571 232.276 268.726 232.524 269.895C233.942 270.815 201.285 283.878 200.116 284.127Z" fill="#FD476D"/>
<path fill-rule="evenodd" clip-rule="evenodd" d="M267.436 254.515C268.07 255.895 267.466 257.528 266.086 258.162L167.02 303.693C165.64 304.327 164.007 303.723 163.373 302.343C162.739 300.963 163.343 299.33 164.723 298.696L263.789 253.164C265.169 252.53 266.802 253.135 267.436 254.515Z" fill="#231F20"/>
<path fill-rule="evenodd" clip-rule="evenodd" d="M214.334 277.41C215.611 277.002 216.977 277.706 217.385 278.983L215.073 279.722L212.761 280.462C212.353 279.185 213.057 277.819 214.334 277.41ZM215.073 279.722C212.761 280.462 212.761 280.461 212.761 280.462L213.076 281.446C213.276 282.074 213.563 282.972 213.907 284.053C214.597 286.216 215.519 289.112 216.448 292.044C217.378 294.976 218.315 297.942 219.034 300.246C219.394 301.399 219.698 302.382 219.919 303.11C220.029 303.475 220.117 303.77 220.181 303.988C220.225 304.142 220.249 304.228 220.259 304.265C220.265 304.288 220.266 304.292 220.264 304.28C220.543 305.591 221.832 306.428 223.143 306.148C224.455 305.869 225.291 304.58 225.012 303.269C224.919 302.832 224.359 301.012 223.668 298.8C222.946 296.485 222.006 293.511 221.076 290.576C220.146 287.641 219.223 284.743 218.533 282.579C218.188 281.497 217.901 280.598 217.7 279.97L217.386 278.984C217.386 278.984 217.385 278.983 215.073 279.722Z" fill="#231F20"/>
</g>
<path fill-rule="evenodd" clip-rule="evenodd" d="M283.682 136.034C284.492 135.859 285.29 136.372 285.466 137.182L304.466 224.682C304.642 225.492 304.128 226.29 303.319 226.466C302.509 226.642 301.71 226.128 301.534 225.319L282.534 137.819C282.359 137.009 282.872 136.21 283.682 136.034Z" fill="#231F20"/>
<path fill-rule="evenodd" clip-rule="evenodd" d="M310.866 189.506C311.691 189.432 312.42 190.041 312.494 190.866L316.494 235.366C316.568 236.191 315.959 236.92 315.134 236.994C314.309 237.068 313.58 236.459 313.506 235.634L309.506 191.134C309.432 190.309 310.041 189.58 310.866 189.506Z" fill="#231F20"/>
</svg>
