<svg width="430" height="430" viewBox="0 0 430 430" fill="none" xmlns="http://www.w3.org/2000/svg">
<path d="M430 215C430 333.741 333.741 430 215 430C96.2588 430 0 333.741 0 215C0 96.2588 96.2588 0 215 0C333.741 0 430 96.2588 430 215Z" fill="#FF845E"/>
<mask id="mask0" mask-type="alpha" maskUnits="userSpaceOnUse" x="0" y="0" width="430" height="430">
<path d="M430 215C430 333.741 333.741 430 215 430C96.2588 430 0 333.741 0 215C0 96.2588 96.2588 0 215 0C333.741 0 430 96.2588 430 215Z" fill="#FF845D"/>
</mask>
<g mask="url(#mask0)">
<path d="M289.968 473.887C288.507 485.187 273.792 488.595 267.511 479.088L179.173 345.362L310.524 314.941L289.968 473.887Z" fill="#FFF36C"/>
<path d="M251.814 360.222C281.925 353.248 305.123 336.075 312.022 317.015L315.921 268.227C306.354 287.638 277.736 306.333 241.287 314.775C204.839 323.216 170.915 319.006 153.789 305.776L178.742 347.882C193.318 361.969 221.703 367.196 251.814 360.222Z" fill="#593E2F"/>
<path d="M314.719 262.99C320.739 288.986 289.326 318.466 244.554 328.835C199.783 339.204 158.608 326.536 152.587 300.539C146.566 274.543 177.98 245.063 222.751 234.694C267.523 224.325 308.698 236.993 314.719 262.99Z" fill="#593E2F"/>
<mask id="mask1" mask-type="alpha" maskUnits="userSpaceOnUse" x="153" y="268" width="163" height="96">
<path d="M251.798 360.216C281.909 353.242 305.108 336.069 312.006 317.009L315.905 268.221C306.338 287.632 277.72 306.328 241.272 314.769C204.823 323.211 170.9 319 153.773 305.771L178.726 347.877C193.302 361.963 221.687 367.19 251.798 360.216Z" fill="#FFF36C"/>
</mask>
<g mask="url(#mask1)">
<path fill-rule="evenodd" clip-rule="evenodd" d="M152.854 308.779C154.077 307.602 156.023 307.639 157.201 308.862C174.309 326.631 207.83 334.174 243.837 325.835C279.844 317.495 306.637 295.984 314.191 272.503C314.711 270.887 316.443 269.998 318.059 270.518C319.676 271.038 320.565 272.77 320.045 274.386C311.595 300.649 282.476 323.198 245.224 331.825C207.973 340.452 171.906 333.001 152.771 313.127C151.594 311.903 151.631 309.957 152.854 308.779Z" fill="#826050"/>
<path fill-rule="evenodd" clip-rule="evenodd" d="M162.837 328.575C164.013 327.35 165.959 327.31 167.184 328.486C182.686 343.371 213.715 349.342 247.464 341.526C281.212 333.71 306.458 314.705 313.839 294.521C314.422 292.926 316.187 292.106 317.782 292.69C319.377 293.273 320.197 295.038 319.613 296.633C311.23 319.56 283.634 339.46 248.851 347.516C214.068 355.572 180.535 349.829 162.925 332.922C161.7 331.746 161.661 329.8 162.837 328.575Z" fill="#826050"/>
<path fill-rule="evenodd" clip-rule="evenodd" d="M280.264 254.096C281.962 254.081 283.351 255.445 283.366 257.143L284.249 356.129C284.264 357.827 282.9 359.216 281.202 359.231C279.504 359.246 278.115 357.882 278.1 356.184L277.217 257.198C277.202 255.5 278.566 254.112 280.264 254.096Z" fill="#826050"/>
<path fill-rule="evenodd" clip-rule="evenodd" d="M305.251 247.936C306.94 248.109 308.169 249.619 307.996 251.308L297.891 349.781C297.717 351.47 296.208 352.699 294.518 352.525C292.829 352.352 291.601 350.842 291.774 349.153L301.879 250.68C302.052 248.991 303.562 247.762 305.251 247.936Z" fill="#826050"/>
<path fill-rule="evenodd" clip-rule="evenodd" d="M232.619 381.513C234.151 380.78 234.799 378.944 234.066 377.413L191.343 288.117C190.61 286.585 188.774 285.938 187.242 286.671C185.711 287.403 185.063 289.239 185.796 290.771L228.519 380.067C229.252 381.598 231.088 382.246 232.619 381.513Z" fill="#826050"/>
<path fill-rule="evenodd" clip-rule="evenodd" d="M216.811 383.555C218.252 382.657 218.692 380.761 217.794 379.32L165.429 295.314C164.531 293.873 162.635 293.433 161.194 294.331C159.753 295.229 159.313 297.126 160.211 298.566L212.576 382.572C213.474 384.013 215.37 384.453 216.811 383.555Z" fill="#826050"/>
<path fill-rule="evenodd" clip-rule="evenodd" d="M248.139 378.747C249.73 378.152 250.537 376.381 249.942 374.79L215.262 282.074C214.667 280.483 212.896 279.676 211.306 280.271C209.715 280.866 208.908 282.638 209.503 284.228L244.183 376.944C244.778 378.535 246.549 379.342 248.139 378.747Z" fill="#826050"/>
<path fill-rule="evenodd" clip-rule="evenodd" d="M255.995 269.917C257.685 269.752 259.188 270.988 259.353 272.678L268.965 371.2C269.129 372.89 267.893 374.394 266.203 374.559C264.513 374.723 263.01 373.487 262.845 371.797L253.234 273.275C253.069 271.585 254.305 270.081 255.995 269.917Z" fill="#826050"/>
</g>
<path d="M194.168 226.832C203.189 256.628 186.348 288.096 156.553 297.118C126.757 306.14 95.2887 289.299 86.2669 259.503C77.2452 229.707 94.086 198.239 123.882 189.217C153.678 180.196 185.146 197.037 194.168 226.832Z" fill="#FFB1C2"/>
<path d="M207.386 270.506C215.119 296.046 200.684 323.018 175.145 330.751C149.606 338.484 122.633 324.049 114.9 298.51C107.167 272.97 121.602 245.998 147.142 238.265C172.681 230.532 199.653 244.967 207.386 270.506Z" fill="#FFB1C2"/>
<path d="M257.052 286.321C263.497 307.604 251.467 330.081 230.185 336.525C208.902 342.969 186.425 330.94 179.981 309.657C173.536 288.374 185.566 265.897 206.848 259.453C228.131 253.009 250.608 265.038 257.052 286.321Z" fill="#FFB1C2"/>
<path d="M302.523 269.744C310.256 295.283 295.821 322.256 270.282 329.988C244.742 337.721 217.77 323.286 210.037 297.747C202.304 272.208 216.739 245.235 242.278 237.502C267.818 229.769 294.79 244.204 302.523 269.744Z" fill="#FFB1C2"/>
<path d="M349.406 202.267C358.428 232.063 341.587 263.531 311.791 272.553C281.995 281.574 250.527 264.734 241.505 234.938C232.483 205.142 249.324 173.674 279.12 164.652C308.916 155.63 340.384 172.471 349.406 202.267Z" fill="#FFB1C2"/>
<path d="M340.058 171.439C349.08 201.235 332.239 232.703 302.443 241.724C272.647 250.746 241.179 233.905 232.158 204.109C223.136 174.314 239.977 142.846 269.773 133.824C299.569 124.802 331.036 141.643 340.058 171.439Z" fill="#FFB1C2"/>
<path d="M302.538 177.187C318.434 229.685 288.762 285.128 236.264 301.024C183.767 316.919 128.323 287.247 112.428 234.75C96.5323 182.252 126.204 126.809 178.702 110.913C231.199 95.0176 286.643 124.69 302.538 177.187Z" fill="#FF4168"/>
<path d="M301.466 155.079C317.362 207.576 287.69 263.02 235.192 278.915C182.694 294.811 127.251 265.139 111.355 212.641C95.46 160.144 125.132 104.7 177.63 88.8047C230.127 72.9092 285.571 102.581 301.466 155.079Z" fill="#FFB1C2"/>
<path fill-rule="evenodd" clip-rule="evenodd" d="M161.964 109.584C145.265 118.961 163.815 138.411 182.901 140.01C229.62 143.924 264.202 186.379 260.143 234.837C259.67 240.481 266.385 244.236 269.718 239.657C279.056 226.825 285.144 211.217 286.582 194.061C290.641 145.604 256.059 103.149 209.339 99.2347C192.298 97.8071 175.996 101.705 161.964 109.584Z" fill="#FFEDF1"/>
<path fill-rule="evenodd" clip-rule="evenodd" d="M206.25 249.882C208.628 247.47 205.206 244.136 202.009 245.257C181.001 252.622 157.778 240.929 150.139 219.14C147.549 211.753 137.749 207.888 137.153 215.692C136.715 221.432 137.437 227.385 139.478 233.206C147.117 254.995 170.34 266.688 191.348 259.323C197.149 257.29 202.175 254.015 206.25 249.882Z" fill="#FF7E99"/>
<path fill-rule="evenodd" clip-rule="evenodd" d="M140.798 128.88C141.495 129.929 141.21 131.344 140.161 132.041C135.857 134.899 131.987 141.36 128.972 148.76C126.005 156.042 124.071 163.712 123.376 168.401C123.192 169.647 122.032 170.507 120.786 170.322C119.541 170.138 118.681 168.978 118.865 167.733C119.616 162.671 121.649 154.648 124.749 147.039C127.801 139.549 132.097 131.922 137.638 128.242C138.687 127.545 140.102 127.831 140.798 128.88Z" fill="white"/>
<path d="M105.122 236.85C105.46 238.31 103.958 239.905 101.768 240.412C99.5781 240.919 97.5286 240.147 97.1904 238.687C96.8523 237.227 98.3536 235.632 100.544 235.125C102.734 234.617 104.783 235.39 105.122 236.85Z" fill="#FD476D"/>
<path d="M149.823 309.313C150.216 311.009 148.472 312.862 145.928 313.451C143.384 314.041 141.003 313.143 140.61 311.447C140.217 309.751 141.961 307.898 144.505 307.309C147.049 306.72 149.43 307.617 149.823 309.313Z" fill="#FD476D"/>
<path d="M227.453 313.671C228.046 316.233 225.848 318.931 222.543 319.697C219.238 320.462 216.078 319.005 215.485 316.443C214.891 313.881 217.089 311.183 220.394 310.418C223.699 309.652 226.86 311.109 227.453 313.671Z" fill="#FD476D"/>
<path d="M317.539 160.78C317.91 162.383 316.261 164.135 313.856 164.692C311.451 165.249 309.2 164.4 308.829 162.797C308.457 161.193 310.106 159.442 312.511 158.885C314.916 158.328 317.167 159.176 317.539 160.78Z" fill="#FD476D"/>
<path d="M127.541 284.52C126.119 285.36 124.383 285.053 123.662 283.834C122.942 282.614 123.51 280.945 124.931 280.105C126.352 279.265 128.088 279.572 128.809 280.792C129.53 282.011 128.962 283.68 127.541 284.52Z" fill="#FD476D"/>
<path d="M317.39 228.567C315.892 229.453 314.061 229.128 313.302 227.843C312.542 226.557 313.141 224.798 314.639 223.912C316.137 223.026 317.967 223.351 318.727 224.636C319.487 225.922 318.888 227.682 317.39 228.567Z" fill="#FD476D"/>
<path d="M335.149 190.348C333.686 191.213 331.897 190.896 331.155 189.641C330.413 188.385 330.998 186.666 332.461 185.801C333.925 184.936 335.713 185.252 336.455 186.508C337.197 187.764 336.613 189.483 335.149 190.348Z" fill="#FD476D"/>
<path d="M310.607 258.66C308.527 259.89 305.959 259.395 304.871 257.554C303.783 255.714 304.588 253.226 306.669 251.996C308.749 250.766 311.317 251.261 312.405 253.102C313.493 254.942 312.688 257.43 310.607 258.66Z" fill="#FD476D"/>
</g>
<path fill-rule="evenodd" clip-rule="evenodd" d="M185.561 169.251L173 172.322C171.33 172.73 170.308 174.415 170.716 176.084C171.124 177.754 172.809 178.777 174.478 178.368L194.895 173.377C199.809 172.175 199.497 165.085 194.496 164.32L168.358 160.323C166.659 160.063 165.071 161.23 164.811 162.929C164.551 164.628 165.718 166.216 167.417 166.476L185.561 169.251Z" fill="#231F20"/>
<path d="M223.216 177.11C229.021 176.61 233.096 168.883 232.317 159.853C231.539 150.822 226.201 143.908 220.396 144.408C214.591 144.909 210.516 152.635 211.295 161.665C212.073 170.696 217.411 177.611 223.216 177.11Z" fill="white"/>
<path d="M224.023 145.286C220.721 147.924 217.721 154.066 218.325 161.074C218.929 168.081 222.73 174.14 226.435 176.174C230.498 174.05 232.944 166.873 232.34 159.865C231.736 152.858 228.896 147.219 224.023 145.286Z" fill="#231F20"/>
<path fill-rule="evenodd" clip-rule="evenodd" d="M225.751 143.132C226.272 144.77 225.367 146.52 223.729 147.041L202.925 153.661C201.287 154.182 199.537 153.277 199.015 151.639C198.494 150.001 199.4 148.25 201.038 147.729L221.841 141.11C223.479 140.589 225.23 141.494 225.751 143.132Z" fill="#231F20"/>
<path fill-rule="evenodd" clip-rule="evenodd" d="M196.003 193.015C197.362 192.372 198.986 192.952 199.629 194.311C201.057 197.325 203.739 202.139 207.334 206.276C210.985 210.477 215.204 213.552 219.663 213.951C221.323 214.1 222.706 213.452 224.017 211.861C225.404 210.178 226.558 207.582 227.434 204.358C229.177 197.944 229.566 190.014 229.299 184.848C229.221 183.346 230.376 182.066 231.878 181.988C233.38 181.91 234.66 183.065 234.738 184.567C235.025 190.112 234.628 198.653 232.69 205.786C231.725 209.337 230.315 212.783 228.22 215.325C226.049 217.96 223.03 219.721 219.177 219.376C212.611 218.788 207.195 214.419 203.223 209.848C199.194 205.213 196.263 199.927 194.707 196.642C194.063 195.283 194.643 193.659 196.003 193.015Z" fill="#231F20"/>
<path fill-rule="evenodd" clip-rule="evenodd" d="M177.034 218.874C175.859 222.406 173.381 225.186 169.98 226.268C163.689 228.27 156.622 223.708 154.194 216.079C151.767 208.449 154.898 200.642 161.189 198.641C164.593 197.557 168.224 198.396 171.225 200.603C172.399 197.071 174.877 194.291 178.279 193.209C184.569 191.208 191.636 195.77 194.064 203.399C196.492 211.028 193.36 218.835 187.07 220.837C183.666 221.92 180.034 221.081 177.034 218.874Z" fill="#FD476D"/>
<path fill-rule="evenodd" clip-rule="evenodd" d="M161.22 209.42C161.883 208.314 163.317 207.955 164.423 208.617L172.013 213.166C173.119 213.829 173.478 215.263 172.815 216.368C172.152 217.474 170.719 217.833 169.613 217.171L162.023 212.622C160.917 211.959 160.558 210.525 161.22 209.42Z" fill="#231F20"/>
<path fill-rule="evenodd" clip-rule="evenodd" d="M174.564 204.833C175.227 203.727 176.661 203.368 177.766 204.03L185.357 208.579C186.462 209.242 186.822 210.676 186.159 211.781C185.496 212.887 184.063 213.246 182.957 212.584L175.366 208.035C174.261 207.372 173.901 205.938 174.564 204.833Z" fill="#231F20"/>
<path fill-rule="evenodd" clip-rule="evenodd" d="M259.625 187.178C258.45 190.709 255.972 193.488 252.571 194.57C246.281 196.572 239.214 192.01 236.786 184.38C234.359 176.751 237.49 168.944 243.781 166.942C247.184 165.859 250.815 166.698 253.815 168.904C254.99 165.373 257.468 162.594 260.869 161.512C267.159 159.51 274.226 164.073 276.654 171.702C279.081 179.331 275.95 187.138 269.659 189.14C266.256 190.223 262.625 189.384 259.625 187.178Z" fill="#FD476D"/>
<path fill-rule="evenodd" clip-rule="evenodd" d="M243.812 177.739C244.475 176.633 245.909 176.274 247.014 176.937L254.605 181.486C255.71 182.148 256.07 183.582 255.407 184.688C254.744 185.794 253.311 186.153 252.205 185.49L244.614 180.941C243.509 180.278 243.15 178.845 243.812 177.739Z" fill="#231F20"/>
<path fill-rule="evenodd" clip-rule="evenodd" d="M257.148 173.141C257.811 172.035 259.244 171.676 260.35 172.339L267.941 176.888C269.046 177.551 269.406 178.984 268.743 180.09C268.08 181.196 266.647 181.555 265.541 180.892L257.95 176.343C256.845 175.681 256.485 174.247 257.148 173.141Z" fill="#231F20"/>
</svg>
