<svg width="431" height="431" viewBox="0 0 431 431" fill="none" xmlns="http://www.w3.org/2000/svg">
<path d="M430.551 215.55C430.551 334.291 334.292 430.55 215.551 430.55C96.8096 430.55 0.550781 334.291 0.550781 215.55C0.550781 96.8086 96.8096 0.549805 215.551 0.549805C334.292 0.549805 430.551 96.8086 430.551 215.55Z" fill="#9971FF"/>
<mask id="mask0" mask-type="alpha" maskUnits="userSpaceOnUse" x="0" y="0" width="431" height="431">
<path d="M430.55 215.549C430.549 334.289 334.29 430.547 215.549 430.547C96.8076 430.547 0.549288 334.289 0.549819 215.549C0.550351 96.8081 96.8096 0.549805 215.551 0.549805C334.292 0.549805 430.55 96.8081 430.55 215.549Z" fill="#9971FF"/>
</mask>
<g mask="url(#mask0)">
<path d="M308.759 329.308C306.842 321.23 298.748 316.239 290.683 318.161L284.287 319.685C276.221 321.608 271.237 329.715 273.155 337.793L294.428 427.406C296.346 435.485 304.439 440.475 312.505 438.553L318.9 437.029C326.966 435.107 331.95 427 330.032 418.921L308.759 329.308Z" fill="#F8C377"/>
<path d="M204.914 353.892C202.996 345.814 194.903 340.823 186.837 342.745L180.441 344.269C172.376 346.192 167.391 354.299 169.309 362.377L190.582 451.99C192.5 460.069 200.593 465.059 208.659 463.137L215.055 461.613C223.12 459.691 228.104 451.584 226.187 443.505L204.914 353.892Z" fill="#F8C377"/>
<path d="M317.176 364.581L308.695 328.95L273.618 339.786L279.303 363.67L317.176 364.581Z" fill="#EEA43A"/>
<path d="M213.331 389.165L204.85 353.534L169.772 364.37L175.457 388.254L213.331 389.165Z" fill="#EEA43A"/>
<path d="M148.994 82.1924L97.5751 94.4593L165.044 379.449L216.463 367.182L148.994 82.1924Z" fill="#652017"/>
<path fill-rule="evenodd" clip-rule="evenodd" d="M148.996 82.0998L216.624 367.563C230.789 360.797 238.828 344.841 235.058 328.928L182.793 108.311C179.023 92.3981 164.684 81.7643 148.996 82.0998Z" fill="#570014"/>
<path fill-rule="evenodd" clip-rule="evenodd" d="M97.4195 94.2794L165.048 379.742C149.359 380.077 135.021 369.444 131.252 353.531L78.9859 132.914C75.2162 117.002 83.2546 101.046 97.4195 94.2794Z" fill="#72311C"/>
<path d="M201.408 69.8379L252.827 57.571L320.329 342.7L268.91 354.967L201.408 69.8379Z" fill="#652017"/>
<path fill-rule="evenodd" clip-rule="evenodd" d="M201.271 69.6964L268.899 355.159C253.211 355.494 238.873 344.861 235.103 328.948L182.837 108.331C179.068 92.4187 187.106 76.4626 201.271 69.6964Z" fill="#570014"/>
<path fill-rule="evenodd" clip-rule="evenodd" d="M252.839 57.5167L320.468 342.98C334.633 336.214 342.672 320.258 338.902 304.345L286.636 83.7278C282.867 67.8151 268.528 57.1813 252.839 57.5167Z" fill="#72311C"/>
<path fill-rule="evenodd" clip-rule="evenodd" d="M305.825 228.463C305.018 228.655 304.52 229.466 304.712 230.274L322.841 306.669C323.264 310.17 322.919 315.667 320.52 320.731C318.133 325.77 313.704 330.412 305.805 332.294C304.999 332.487 304.5 333.297 304.692 334.105C304.884 334.913 305.693 335.412 306.5 335.22C315.373 333.105 320.496 327.796 323.232 322.02C325.939 316.308 326.305 310.17 325.81 306.215L325.8 306.133L307.632 229.578C307.441 228.77 306.631 228.271 305.825 228.463Z" fill="white"/>
<path fill-rule="evenodd" clip-rule="evenodd" d="M271.758 80.8287C270.951 81.0205 270.452 81.831 270.643 82.6391L281.719 129.408C281.91 130.216 282.72 130.716 283.527 130.524C284.334 130.332 284.833 129.522 284.641 128.714L273.565 81.9446C273.374 81.1365 272.565 80.6369 271.758 80.8287Z" fill="white"/>
</g>
<path fill-rule="evenodd" clip-rule="evenodd" d="M241.364 192.445C242.748 192.445 243.87 193.567 243.87 194.952C243.87 217.81 234.539 235.016 220.957 242.653C207.214 250.381 189.905 247.881 175.185 232.897C174.215 231.91 174.229 230.323 175.216 229.353C176.203 228.383 177.79 228.397 178.76 229.385C192.2 243.065 207.087 244.702 218.5 238.284C230.073 231.777 238.857 216.555 238.857 194.952C238.857 193.567 239.979 192.445 241.364 192.445Z" fill="black"/>
<path d="M181.542 178.217L187.857 201.034C181.475 199.961 167.426 190.971 167.423 181.061C167.42 171.152 176.494 169.871 181.542 178.217Z" fill="white"/>
<path d="M181.542 178.217L187.857 201.034C192.684 196.492 199.932 180.91 194.883 172.562C189.833 164.215 181.538 168.309 181.542 178.217Z" fill="white"/>
<path fill-rule="evenodd" clip-rule="evenodd" d="M187.857 201.034C187.673 201.004 187.483 200.966 187.287 200.922C180.678 199.443 167.426 190.686 167.423 181.061C167.42 171.766 175.405 170.062 180.561 176.777C180.901 177.22 181.229 177.7 181.542 178.217C181.541 177.614 181.572 177.033 181.63 176.475C182.535 167.857 190.14 164.722 194.883 172.562C199.787 180.67 193.091 195.601 188.279 200.615C188.137 200.764 187.996 200.904 187.857 201.034ZM187.953 199.435C190.058 197.031 192.538 192.683 194.086 187.905C195.848 182.467 196.275 176.869 193.994 173.1C192.813 171.147 191.498 170.014 190.26 169.486C189.037 168.964 187.83 169.001 186.744 169.49C184.542 170.482 182.578 173.505 182.58 178.216L182.58 180.024L187.953 199.435ZM181.572 180.273L180.653 178.754C178.261 174.799 175.097 173.401 172.77 173.815C170.542 174.212 168.459 176.407 168.461 181.061C168.462 185.544 171.674 190.004 175.916 193.567C179.667 196.717 183.985 198.964 186.969 199.774L181.572 180.273Z" fill="white"/>
<path d="M223.825 167.784L230.14 190.602C223.758 189.528 209.709 180.538 209.706 170.629C209.703 160.72 218.777 159.438 223.825 167.784Z" fill="white"/>
<path d="M223.825 167.784L230.14 190.602C234.968 186.059 242.215 170.477 237.166 162.13C232.116 153.782 223.821 157.877 223.825 167.784Z" fill="white"/>
<path fill-rule="evenodd" clip-rule="evenodd" d="M230.14 190.602C229.956 190.571 229.766 190.534 229.57 190.49C222.961 189.01 209.709 180.253 209.706 170.629C209.703 161.333 217.688 159.63 222.844 166.344C223.184 166.787 223.512 167.267 223.825 167.784C223.825 167.181 223.855 166.601 223.914 166.043C224.818 157.425 232.423 154.29 237.166 162.13C242.07 170.237 235.375 185.168 230.563 190.183C230.42 190.331 230.279 190.471 230.14 190.602ZM230.236 189.003C232.341 186.598 234.821 182.25 236.369 177.473C238.131 172.035 238.558 166.437 236.278 162.667C235.096 160.714 233.781 159.582 232.543 159.053C231.321 158.531 230.113 158.568 229.027 159.058C226.826 160.05 224.861 163.072 224.863 167.784L224.864 169.591L230.236 189.003ZM223.855 169.84L222.937 168.321C220.545 164.366 217.381 162.969 215.053 163.383C212.825 163.779 210.743 165.975 210.744 170.629C210.746 175.112 213.957 179.572 218.199 183.134C221.95 186.285 226.268 188.531 229.253 189.342L223.855 169.84Z" fill="white"/>
<path d="M184.276 180.845L188.951 199.535C184.03 198.71 173.254 191.449 173.341 183.308C173.427 175.167 180.45 174.033 184.276 180.845Z" fill="#449AFF"/>
<path d="M184.276 180.845L188.951 199.535C192.722 195.759 198.462 182.893 194.635 176.08C190.808 169.268 184.361 172.706 184.276 180.845Z" fill="#449AFF"/>
<path d="M226.559 170.412L231.235 189.102C226.313 188.277 215.538 181.017 215.624 172.876C215.71 164.735 222.733 163.601 226.559 170.412Z" fill="#449AFF"/>
<path d="M226.559 170.412L231.235 189.102C235.006 185.327 240.745 172.461 236.918 165.648C233.091 158.835 226.645 162.273 226.559 170.412Z" fill="#449AFF"/>
<path fill-rule="evenodd" clip-rule="evenodd" d="M170.478 208.816C169.796 210.904 168.324 212.502 166.347 212.992C164.503 213.45 162.598 212.851 161.069 211.531C160.335 213.413 158.931 214.833 157.087 215.29C153.677 216.136 150.056 213.368 148.998 209.107C147.94 204.846 149.847 200.706 153.256 199.86C155.1 199.403 157.005 200.002 158.534 201.322C159.268 199.44 160.672 198.02 162.516 197.562C164.546 197.059 166.652 197.836 168.247 199.448C168.928 197.361 170.4 195.762 172.378 195.272C175.788 194.426 179.41 197.194 180.467 201.455C181.525 205.716 179.619 209.856 176.209 210.702C174.178 211.206 172.072 210.428 170.478 208.816Z" fill="#FD476D"/>
<path fill-rule="evenodd" clip-rule="evenodd" d="M153.476 205.897C153.815 205.332 154.548 205.15 155.112 205.49L158.965 207.811C159.529 208.151 159.711 208.884 159.372 209.448C159.032 210.012 158.3 210.194 157.736 209.854L153.883 207.534C153.319 207.194 153.136 206.461 153.476 205.897Z" fill="black"/>
<path fill-rule="evenodd" clip-rule="evenodd" d="M162.478 203.641C162.817 203.076 163.55 202.895 164.114 203.234L167.967 205.555C168.531 205.895 168.713 206.628 168.374 207.192C168.034 207.756 167.302 207.938 166.738 207.598L162.885 205.278C162.321 204.938 162.138 204.205 162.478 203.641Z" fill="black"/>
<path fill-rule="evenodd" clip-rule="evenodd" d="M171.058 201.695C171.397 201.131 172.13 200.949 172.694 201.289L176.547 203.61C177.111 203.95 177.293 204.683 176.954 205.247C176.614 205.811 175.882 205.993 175.318 205.653L171.465 203.332C170.901 202.992 170.718 202.26 171.058 201.695Z" fill="black"/>
<path fill-rule="evenodd" clip-rule="evenodd" d="M249.299 193.883C248.566 195.766 247.162 197.187 245.318 197.645C241.908 198.491 238.286 195.723 237.228 191.462C236.17 187.2 238.077 183.06 241.486 182.214C243.33 181.756 245.236 182.356 246.765 183.677C247.499 181.794 248.903 180.373 250.747 179.915C254.156 179.069 257.778 181.837 258.836 186.098C259.894 190.36 257.988 194.5 254.578 195.346C252.734 195.804 250.828 195.204 249.299 193.883Z" fill="#FD476D"/>
<path fill-rule="evenodd" clip-rule="evenodd" d="M241.704 188.251C242.044 187.687 242.777 187.505 243.341 187.844L247.194 190.164C247.758 190.504 247.94 191.237 247.6 191.801C247.261 192.365 246.528 192.547 245.964 192.207L242.111 189.888C241.547 189.548 241.365 188.815 241.704 188.251Z" fill="black"/>
<path fill-rule="evenodd" clip-rule="evenodd" d="M249.425 186.339C249.765 185.775 250.497 185.593 251.061 185.932L254.914 188.252C255.478 188.592 255.661 189.325 255.321 189.889C254.982 190.453 254.249 190.635 253.685 190.295L249.832 187.976C249.268 187.636 249.086 186.903 249.425 186.339Z" fill="black"/>
<path d="M193.196 180.246C193.196 181.393 192.499 182.322 191.639 182.322C190.779 182.322 190.082 181.393 190.082 180.246C190.082 179.099 190.779 178.17 191.639 178.17C192.499 178.17 193.196 179.099 193.196 180.246Z" fill="white"/>
<path d="M235.741 168.827C235.741 169.974 235.044 170.903 234.184 170.903C233.324 170.903 232.627 169.974 232.627 168.827C232.627 167.68 233.324 166.751 234.184 166.751C235.044 166.751 235.741 167.68 235.741 168.827Z" fill="white"/>
<path fill-rule="evenodd" clip-rule="evenodd" d="M339.384 156.826C340.209 156.733 340.953 157.326 341.047 158.151L350.617 242.798C350.71 243.623 350.117 244.368 349.292 244.461C348.467 244.554 347.722 243.961 347.629 243.136L338.058 158.489C337.965 157.664 338.558 156.919 339.384 156.826Z" fill="black"/>
<path fill-rule="evenodd" clip-rule="evenodd" d="M77.9989 274.229C77.3252 274.718 77.1593 275.668 77.6284 276.351L107.7 320.1C108.169 320.782 109.095 320.939 109.769 320.45C110.443 319.96 110.609 319.01 110.14 318.328L80.0683 274.579C79.5992 273.896 78.6727 273.74 77.9989 274.229Z" fill="black"/>
<path fill-rule="evenodd" clip-rule="evenodd" d="M362.56 199.982C363.39 200.015 364.036 200.715 364.003 201.545L362.59 236.773C362.557 237.603 361.857 238.249 361.027 238.216C360.197 238.182 359.552 237.483 359.585 236.653L360.998 201.424C361.031 200.594 361.731 199.949 362.56 199.982Z" fill="black"/>
<path fill-rule="evenodd" clip-rule="evenodd" d="M79.829 306.781C79.2324 307.366 79.206 308.329 79.77 308.931L94.7125 324.888C95.2765 325.49 96.2173 325.504 96.8139 324.918C97.4106 324.333 97.437 323.37 96.873 322.768L81.9305 306.812C81.3665 306.209 80.4256 306.196 79.829 306.781Z" fill="black"/>
</svg>
