<svg width="430" height="430" viewBox="0 0 430 430" fill="none" xmlns="http://www.w3.org/2000/svg">
<path d="M430 215C430 333.741 333.741 430 215 430C96.2588 430 0 333.741 0 215C0 96.2588 96.2588 0 215 0C333.741 0 430 96.2588 430 215Z" fill="#449AFF"/>
<path d="M322.636 143.773C320.453 133.505 312.478 126.066 302.903 123.99C310.806 118.2 315.066 108.16 312.884 97.8917C309.911 83.9088 296.4 75.1346 282.417 78.1067C272.149 80.2894 264.71 88.2646 262.634 97.8398C256.844 89.9364 246.805 85.6765 236.536 87.8592C226.267 90.0418 218.828 98.017 216.753 107.592C210.963 99.6888 200.923 95.4289 190.654 97.6116C180.386 99.7943 172.947 107.769 170.871 117.345C165.081 109.441 155.041 105.181 144.773 107.364C134.504 109.547 127.065 117.522 124.99 127.097C119.2 119.194 109.16 114.934 98.8912 117.116C84.9083 120.089 76.1341 133.6 79.1062 147.583C81.2889 157.851 89.2641 165.29 98.8393 167.365C90.9359 173.156 86.676 183.195 88.8587 193.464C91.0413 203.733 99.0165 211.172 108.592 213.247C100.688 219.037 96.4284 229.077 98.6111 239.346C100.794 249.614 108.769 257.053 118.344 259.129C110.441 264.919 106.181 274.958 108.363 285.227C110.546 295.496 118.521 302.935 128.097 305.01C120.193 310.8 115.933 320.84 118.116 331.109C121.088 345.092 134.599 353.866 148.582 350.894C158.851 348.711 166.29 340.736 168.365 331.161C174.155 339.064 184.195 343.324 194.464 341.141C204.732 338.959 212.171 330.983 214.246 321.408C220.037 329.312 230.076 333.572 240.345 331.389C250.614 329.206 258.053 321.231 260.128 311.656C265.918 319.559 275.958 323.819 286.227 321.636C296.495 319.454 303.934 311.479 306.01 301.903C311.8 309.807 321.839 314.067 332.108 311.884C346.091 308.912 354.865 295.401 351.893 281.418C349.711 271.149 341.735 263.71 332.16 261.635C340.064 255.845 344.323 245.805 342.141 235.536C339.958 225.268 331.983 217.829 322.408 215.753C330.311 209.963 334.571 199.924 332.388 189.655C330.206 179.386 322.231 171.947 312.655 169.872C320.559 164.082 324.819 154.042 322.636 143.773Z" fill="#FFF1A8"/>
<path d="M148.725 180.74C152.465 179.945 154.853 176.268 154.058 172.527C153.263 168.787 149.586 166.399 145.845 167.194C142.105 167.989 139.717 171.666 140.512 175.407C141.307 179.147 144.984 181.535 148.725 180.74Z" fill="white"/>
<path fill-rule="evenodd" clip-rule="evenodd" d="M146.062 168.213C142.884 168.889 140.855 172.012 141.531 175.19C142.206 178.368 145.33 180.396 148.507 179.721C151.685 179.045 153.714 175.922 153.038 172.744C152.363 169.566 149.239 167.538 146.062 168.213ZM139.492 175.623C138.577 171.32 141.325 167.09 145.628 166.175C149.932 165.26 154.162 168.007 155.077 172.311C155.992 176.614 153.244 180.845 148.941 181.759C144.637 182.674 140.407 179.927 139.492 175.623Z" fill="#FFFADE"/>
<path d="M205.748 168.619C209.489 167.824 211.876 164.147 211.081 160.406C210.286 156.666 206.609 154.278 202.869 155.073C199.128 155.868 196.74 159.545 197.535 163.286C198.33 167.026 202.007 169.414 205.748 168.619Z" fill="white"/>
<path fill-rule="evenodd" clip-rule="evenodd" d="M203.085 156.092C199.907 156.768 197.879 159.891 198.554 163.069C199.23 166.247 202.353 168.275 205.531 167.6C208.709 166.924 210.737 163.801 210.062 160.623C209.386 157.445 206.263 155.417 203.085 156.092ZM196.516 163.502C195.601 159.199 198.348 154.968 202.652 154.054C206.955 153.139 211.185 155.886 212.1 160.19C213.015 164.493 210.268 168.723 205.964 169.638C201.661 170.553 197.43 167.806 196.516 163.502Z" fill="#FFFADE"/>
<path d="M262.771 156.499C266.512 155.704 268.9 152.027 268.105 148.286C267.31 144.546 263.633 142.158 259.892 142.953C256.152 143.748 253.764 147.425 254.559 151.166C255.354 154.906 259.031 157.294 262.771 156.499Z" fill="white"/>
<path fill-rule="evenodd" clip-rule="evenodd" d="M260.108 143.972C256.931 144.648 254.902 147.771 255.578 150.949C256.253 154.126 259.377 156.155 262.554 155.48C265.732 154.804 267.761 151.681 267.085 148.503C266.41 145.325 263.286 143.297 260.108 143.972ZM253.539 151.382C252.624 147.079 255.372 142.848 259.675 141.934C263.979 141.019 268.209 143.766 269.124 148.07C270.038 152.373 267.291 156.603 262.988 157.518C258.684 158.433 254.454 155.686 253.539 151.382Z" fill="#FFFADE"/>
<path d="M171.109 286.049C174.85 285.254 177.238 281.577 176.443 277.836C175.648 274.095 171.971 271.708 168.23 272.503C164.489 273.298 162.102 276.975 162.897 280.715C163.692 284.456 167.369 286.844 171.109 286.049Z" fill="white"/>
<path fill-rule="evenodd" clip-rule="evenodd" d="M168.446 273.522C165.269 274.197 163.24 277.321 163.916 280.499C164.591 283.676 167.715 285.705 170.892 285.029C174.07 284.354 176.098 281.23 175.423 278.053C174.748 274.875 171.624 272.846 168.446 273.522ZM161.877 280.932C160.962 276.628 163.709 272.398 168.013 271.483C172.317 270.569 176.547 273.316 177.462 277.619C178.376 281.923 175.629 286.153 171.326 287.068C167.022 287.983 162.792 285.235 161.877 280.932Z" fill="#FFFADE"/>
<path d="M228.133 273.929C231.873 273.133 234.261 269.457 233.466 265.716C232.671 261.975 228.994 259.588 225.253 260.383C221.513 261.178 219.125 264.855 219.92 268.595C220.715 272.336 224.392 274.724 228.133 273.929Z" fill="white"/>
<path fill-rule="evenodd" clip-rule="evenodd" d="M225.47 261.402C222.292 262.077 220.264 265.201 220.939 268.378C221.614 271.556 224.738 273.585 227.916 272.909C231.093 272.234 233.122 269.11 232.446 265.933C231.771 262.755 228.647 260.726 225.47 261.402ZM218.9 268.812C217.986 264.508 220.733 260.278 225.036 259.363C229.34 258.448 233.57 261.196 234.485 265.499C235.4 269.803 232.653 274.033 228.349 274.948C224.045 275.863 219.815 273.115 218.9 268.812Z" fill="#FFFADE"/>
<path d="M285.156 261.807C288.897 261.012 291.285 257.335 290.49 253.595C289.694 249.854 286.018 247.466 282.277 248.262C278.536 249.057 276.148 252.734 276.944 256.474C277.739 260.215 281.416 262.603 285.156 261.807Z" fill="white"/>
<path fill-rule="evenodd" clip-rule="evenodd" d="M282.493 249.281C279.315 249.956 277.287 253.08 277.962 256.257C278.638 259.435 281.761 261.464 284.939 260.788C288.117 260.113 290.145 256.989 289.47 253.811C288.794 250.634 285.671 248.605 282.493 249.281ZM275.924 256.691C275.009 252.387 277.756 248.157 282.06 247.242C286.363 246.327 290.594 249.075 291.508 253.378C292.423 257.682 289.676 261.912 285.372 262.827C281.069 263.741 276.839 260.994 275.924 256.691Z" fill="#FFFADE"/>
<path fill-rule="evenodd" clip-rule="evenodd" d="M104.489 129.475C96.0019 131.28 90.5271 139.71 92.3311 148.197C92.5704 149.323 91.8517 150.43 90.7259 150.669C89.6 150.909 88.4933 150.19 88.254 149.064C85.9713 138.325 92.8836 127.681 103.623 125.398C104.749 125.159 105.855 125.878 106.095 127.004C106.334 128.129 105.615 129.236 104.489 129.475Z" fill="white"/>
<path fill-rule="evenodd" clip-rule="evenodd" d="M114.239 175.357C105.752 177.161 100.277 185.592 102.081 194.079C102.32 195.205 101.602 196.312 100.476 196.551C99.35 196.791 98.2433 196.072 98.004 194.946C95.7213 184.207 102.634 173.563 113.373 171.28C114.499 171.041 115.605 171.76 115.845 172.885C116.084 174.011 115.365 175.118 114.239 175.357Z" fill="white"/>
<path fill-rule="evenodd" clip-rule="evenodd" d="M123.991 221.238C115.504 223.042 110.029 231.473 111.833 239.96C112.072 241.086 111.354 242.193 110.228 242.432C109.102 242.671 107.995 241.953 107.756 240.827C105.473 230.088 112.386 219.444 123.125 217.161C124.251 216.922 125.357 217.64 125.597 218.766C125.836 219.892 125.117 220.999 123.991 221.238Z" fill="white"/>
<path fill-rule="evenodd" clip-rule="evenodd" d="M133.745 267.12C125.258 268.924 119.783 277.355 121.587 285.842C121.826 286.968 121.108 288.075 119.982 288.314C118.856 288.553 117.749 287.835 117.51 286.709C115.227 275.97 122.139 265.326 132.879 263.043C134.004 262.804 135.111 263.522 135.35 264.648C135.59 265.774 134.871 266.881 133.745 267.12Z" fill="white"/>
<path fill-rule="evenodd" clip-rule="evenodd" d="M143.497 313.002C135.01 314.806 129.535 323.236 131.339 331.724C131.578 332.85 130.86 333.956 129.734 334.196C128.608 334.435 127.501 333.716 127.262 332.59C124.979 321.851 131.891 311.207 142.631 308.925C143.756 308.685 144.863 309.404 145.102 310.53C145.342 311.656 144.623 312.763 143.497 313.002Z" fill="white"/>
<path fill-rule="evenodd" clip-rule="evenodd" d="M150.368 119.724C141.881 121.528 136.406 129.958 138.21 138.446C138.449 139.571 137.731 140.678 136.605 140.917C135.479 141.157 134.372 140.438 134.133 139.312C131.85 128.573 138.762 117.929 149.502 115.646C150.627 115.407 151.734 116.126 151.974 117.252C152.213 118.378 151.494 119.484 150.368 119.724Z" fill="white"/>
<path fill-rule="evenodd" clip-rule="evenodd" d="M196.251 109.971C187.764 111.775 182.289 120.205 184.093 128.693C184.332 129.818 183.613 130.925 182.488 131.164C181.362 131.404 180.255 130.685 180.016 129.559C177.733 118.82 184.645 108.176 195.384 105.893C196.51 105.654 197.617 106.373 197.856 107.499C198.096 108.625 197.377 109.731 196.251 109.971Z" fill="white"/>
<path fill-rule="evenodd" clip-rule="evenodd" d="M242.132 100.219C233.645 102.023 228.17 110.453 229.974 118.941C230.213 120.067 229.494 121.173 228.368 121.413C227.243 121.652 226.136 120.933 225.897 119.807C223.614 109.068 230.526 98.4242 241.265 96.1415C242.391 95.9022 243.498 96.6209 243.737 97.7468C243.976 98.8726 243.258 99.9793 242.132 100.219Z" fill="white"/>
<path fill-rule="evenodd" clip-rule="evenodd" d="M288.013 90.4657C279.525 92.2698 274.051 100.7 275.855 109.188C276.094 110.314 275.375 111.42 274.249 111.66C273.123 111.899 272.017 111.18 271.777 110.054C269.495 99.3152 276.407 88.6713 287.146 86.3886C288.272 86.1493 289.379 86.868 289.618 87.9938C289.857 89.1197 289.139 90.2264 288.013 90.4657Z" fill="white"/>
<path d="M239.045 209.779C245.36 208.437 248.786 199.385 246.698 189.562C244.61 179.738 237.798 172.863 231.483 174.205C225.168 175.548 221.742 184.599 223.83 194.423C225.918 204.246 232.73 211.121 239.045 209.779Z" fill="white"/>
<path d="M236.144 174.357C232.873 177.708 230.412 184.871 232.032 192.494C233.652 200.117 238.814 205.659 243.166 207.39C246.437 204.039 248.898 196.876 247.278 189.253C245.658 181.63 240.496 176.088 236.144 174.357Z" fill="#231F20"/>
<path d="M202.191 217.614C208.506 216.272 211.933 207.22 209.845 197.397C207.757 187.573 200.945 180.698 194.63 182.04C188.315 183.383 184.888 192.434 186.976 202.258C189.064 212.081 195.876 218.956 202.191 217.614Z" fill="white"/>
<path d="M199.357 182.177C196.086 185.528 193.625 192.69 195.245 200.313C196.865 207.936 202.027 213.478 206.379 215.209C209.65 211.858 212.111 204.696 210.491 197.073C208.871 189.45 203.709 183.907 199.357 182.177Z" fill="#231F20"/>
<path fill-rule="evenodd" clip-rule="evenodd" d="M172.046 188.163C171.748 186.76 172.643 185.38 174.047 185.082L196.916 180.221C198.319 179.923 199.698 180.819 199.997 182.222C200.295 183.625 199.399 185.005 197.996 185.303L175.127 190.164C173.724 190.462 172.344 189.566 172.046 188.163Z" fill="#231F20"/>
<path fill-rule="evenodd" clip-rule="evenodd" d="M208.872 180.335C208.574 178.932 209.47 177.552 210.873 177.254L233.742 172.393C235.145 172.095 236.525 172.99 236.823 174.394C237.121 175.797 236.225 177.177 234.822 177.475L211.953 182.336C210.55 182.634 209.17 181.738 208.872 180.335Z" fill="#231F20"/>
<path fill-rule="evenodd" clip-rule="evenodd" d="M178.722 241.597C178.378 239.981 179.28 238.42 180.735 238.111L250.579 223.265C252.035 222.955 253.493 224.015 253.837 225.631C254.18 227.247 253.279 228.808 251.823 229.118L181.979 243.964C180.524 244.273 179.065 243.214 178.722 241.597Z" fill="black"/>
<path fill-rule="evenodd" clip-rule="evenodd" d="M257.578 216.15C257.578 216.15 257.578 216.15 257.578 216.15L257.579 216.15C257.579 216.15 257.579 216.15 257.578 216.15ZM257.58 216.148C257.58 216.148 257.58 216.149 257.58 216.149L257.581 216.148C257.581 216.148 257.581 216.148 257.58 216.148C257.58 216.148 257.58 216.148 257.58 216.148C257.58 216.148 257.58 216.148 257.58 216.148C257.58 216.148 257.58 216.148 257.58 216.148Z" fill="black"/>
<path fill-rule="evenodd" clip-rule="evenodd" d="M295.515 63.7461C295.632 62.926 296.392 62.3561 297.212 62.4733L297 63.9582C297.212 62.4733 297.213 62.4734 297.214 62.4735L297.215 62.4737L297.221 62.4745L297.236 62.4768L297.291 62.4851C297.336 62.4922 297.402 62.5026 297.485 62.5167C297.653 62.5449 297.893 62.5877 298.199 62.6479C298.808 62.7683 299.677 62.9583 300.731 63.2401C302.837 63.8026 305.701 64.7354 308.734 66.2194C314.779 69.1774 321.666 74.4188 324.321 83.4439C324.555 84.2387 324.1 85.0724 323.305 85.3062C322.51 85.5399 321.677 85.0852 321.443 84.2904C319.12 76.3929 313.067 71.6798 307.415 68.914C304.599 67.5361 301.927 66.6646 299.957 66.1384C298.974 65.8757 298.17 65.7003 297.618 65.5912C297.342 65.5367 297.128 65.4988 296.987 65.475C296.916 65.4631 296.864 65.4547 296.83 65.4495L296.794 65.444L296.788 65.4431L296.787 65.443L296.787 65.443C295.968 65.3254 295.398 64.5659 295.515 63.7461Z" fill="#231F20"/>
<path fill-rule="evenodd" clip-rule="evenodd" d="M300.488 54.8141C300.591 53.9921 301.341 53.409 302.163 53.5117L301.977 55.0002C302.163 53.5117 302.162 53.5117 302.163 53.5117L302.167 53.5123L302.174 53.5132L302.197 53.5162C302.217 53.5188 302.244 53.5224 302.278 53.5273C302.346 53.5369 302.444 53.5513 302.569 53.5711C302.819 53.6108 303.18 53.6723 303.635 53.7616C304.544 53.9402 305.832 54.2303 307.374 54.68C310.452 55.5779 314.57 57.1201 318.699 59.7008C319.401 60.1399 319.615 61.0653 319.176 61.7678C318.737 62.4703 317.811 62.6839 317.109 62.2448C313.275 59.8484 309.428 58.4042 306.534 57.56C305.089 57.1387 303.889 56.869 303.056 56.7053C302.64 56.6236 302.316 56.5684 302.1 56.5342C301.992 56.5171 301.911 56.5052 301.858 56.4978L301.802 56.4901L301.791 56.4886C301.79 56.4886 301.791 56.4886 301.791 56.4886M300.488 54.8141C300.386 55.6359 300.969 56.3855 301.791 56.4886L300.488 54.8141Z" fill="#231F20"/>
</svg>
