<svg width="430" height="430" viewBox="0 0 430 430" fill="none" xmlns="http://www.w3.org/2000/svg">
<path d="M430 215C430 333.741 333.741 430 215 430C96.2588 430 0 333.741 0 215C0 96.2588 96.2588 0 215 0C333.741 0 430 96.2588 430 215Z" fill="#9971FF"/>
<path d="M385.086 208.203C393.932 296.757 329.315 375.715 240.761 384.561C152.207 393.406 73.2484 328.79 64.4029 240.235C55.5574 151.681 120.174 72.7229 208.728 63.8774C297.283 55.0318 376.241 119.649 385.086 208.203Z" fill="#6A091F"/>
<path fill-rule="evenodd" clip-rule="evenodd" d="M127.294 352.556C122.558 348.958 118.022 345.101 113.708 341.003L115.754 337.731L141.553 318.194L349.743 234.096C360.227 237.72 373.264 242.748 384.166 247.93C382.949 256.158 381.102 264.206 378.673 272.018C363.798 273.875 355.704 275.526 349.412 279.817C342.489 284.539 337.746 292.457 328.55 307.364C316.222 327.346 308.024 324.565 296.956 320.81C290.102 318.484 282.147 315.785 271.429 317.888C243.403 323.387 230.084 329.771 218.493 350.739C209.944 366.205 201.628 362.282 194.048 358.706C191.352 357.435 188.749 356.207 186.262 355.911C183.113 355.536 179.315 353.631 175.121 351.528C166.69 347.3 156.661 342.271 147.101 347.265C139.084 351.452 131.984 352.569 127.294 352.556Z" fill="#570014"/>
<path d="M108.642 340.974C89.8604 329.81 75.6927 305.883 64.2952 276L158.53 198.235C236.53 207.094 392.831 229.933 392.788 237.93C392.735 247.925 390.547 257.607 378.781 266.144C367.015 274.68 347.026 264.058 332.448 276.03C317.871 288.002 327.655 312.262 301.26 321.734C274.865 331.205 262.897 311.393 240.144 320.477C206.773 333.801 219.003 361.497 199.742 363.421C183.083 365.085 180.274 342.231 159.92 338.481C139.565 334.73 132.119 354.928 108.642 340.974Z" fill="#FFE600"/>
<path d="M255.978 221.099C257.701 238.35 245.113 253.731 227.862 255.454C210.611 257.177 195.23 244.59 193.507 227.339C191.784 210.088 204.371 194.707 221.622 192.983C238.873 191.26 254.254 203.848 255.978 221.099Z" fill="#8E61FA"/>
<path fill-rule="evenodd" clip-rule="evenodd" d="M392.422 243.223C393.45 232.473 393.453 221.466 392.339 210.313C383.109 117.908 300.718 50.4822 208.313 59.7122C115.909 68.9423 48.4825 151.333 57.7126 243.738C58.8266 254.891 61.0065 265.68 64.1411 276.014L392.422 243.223Z" fill="#FFE600"/>
<path d="M238.086 356.102C238.018 356.676 236.567 356.974 234.845 356.769C233.124 356.563 231.784 355.931 231.852 355.357C231.921 354.784 233.372 354.485 235.093 354.691C236.815 354.896 238.155 355.528 238.086 356.102Z" fill="#570014"/>
<path d="M260.3 361.795C260.551 362.315 259.489 363.348 257.928 364.102C256.367 364.856 254.898 365.045 254.646 364.524C254.395 364.004 255.457 362.971 257.018 362.217C258.58 361.464 260.049 361.275 260.3 361.795Z" fill="#570014"/>
<path d="M173.663 363C173.669 363.578 172.268 364.061 170.535 364.078C168.801 364.095 167.391 363.641 167.385 363.063C167.38 362.485 168.78 362.003 170.514 361.985C172.248 361.968 173.658 362.422 173.663 363Z" fill="#570014"/>
<path d="M312.462 352.002C312.527 352.576 311.183 353.201 309.461 353.396C307.738 353.592 306.289 353.286 306.224 352.712C306.158 352.137 307.502 351.513 309.224 351.317C310.947 351.121 312.396 351.428 312.462 352.002Z" fill="#570014"/>
<path d="M325.874 330.449C326.126 330.97 325.064 332.003 323.502 332.756C321.941 333.51 320.472 333.699 320.221 333.179C319.969 332.658 321.031 331.625 322.593 330.872C324.154 330.118 325.623 329.929 325.874 330.449Z" fill="#570014"/>
<path d="M343.273 299.259C343.524 299.779 342.462 300.812 340.901 301.566C339.339 302.32 337.87 302.509 337.619 301.988C337.368 301.468 338.43 300.435 339.991 299.681C341.552 298.928 343.022 298.738 343.273 299.259Z" fill="#570014"/>
<path d="M350.801 300.831C351.268 301.172 350.819 302.583 349.798 303.985C348.777 305.386 347.571 306.246 347.103 305.905C346.636 305.565 347.085 304.153 348.106 302.752C349.127 301.351 350.334 300.491 350.801 300.831Z" fill="#570014"/>
<path d="M227.39 374.856C227.641 375.376 226.579 376.409 225.018 377.163C223.457 377.916 221.987 378.105 221.736 377.585C221.485 377.064 222.547 376.032 224.108 375.278C225.669 374.524 227.139 374.335 227.39 374.856Z" fill="#570014"/>
<path d="M268.85 338.699C269.406 338.856 269.474 340.336 269.002 342.004C268.529 343.672 267.696 344.897 267.14 344.739C266.584 344.582 266.516 343.102 266.988 341.434C267.461 339.766 268.294 338.541 268.85 338.699Z" fill="#570014"/>
<path d="M254.83 330.506C255.288 330.858 254.803 332.258 253.748 333.633C252.692 335.008 251.464 335.837 251.006 335.485C250.547 335.133 251.032 333.733 252.088 332.358C253.144 330.983 254.371 330.154 254.83 330.506Z" fill="#570014"/>
<path d="M249.523 201.441C251.533 221.567 236.847 239.512 216.721 241.523C196.595 243.533 178.65 228.848 176.64 208.722C174.63 188.596 189.315 170.651 209.441 168.64C229.567 166.63 247.512 181.316 249.523 201.441Z" fill="#FFF36C"/>
<path d="M251.402 206.834C253.183 224.66 240.176 240.554 222.35 242.335C204.524 244.116 188.63 231.108 186.849 213.282C185.068 195.457 198.076 179.562 215.902 177.782C233.727 176.001 249.622 189.008 251.402 206.834Z" fill="#8E61FA"/>
<path d="M199.998 301.524C198.583 301.358 197.464 300.265 197.205 298.864C196.769 296.5 198.902 294.491 201.289 294.784C205.783 295.335 209.28 294.794 213.271 292.69C215.413 291.56 218.18 292.65 218.619 295.032C218.867 296.373 218.268 297.741 217.076 298.404C211.266 301.632 206.906 302.334 199.998 301.524Z" fill="#C85521"/>
<path fill-rule="evenodd" clip-rule="evenodd" d="M201.409 293.791C205.72 294.32 209.009 293.806 212.804 291.805C215.438 290.416 219.019 291.694 219.602 294.85C219.922 296.588 219.152 298.394 217.561 299.278C214.587 300.931 211.939 301.961 209.124 302.463C206.314 302.964 203.391 302.929 199.881 302.517C198.01 302.298 196.556 300.859 196.221 299.046C195.646 295.93 198.445 293.427 201.409 293.791ZM197.205 298.865C197.463 300.265 198.582 301.358 199.997 301.524C206.906 302.334 211.266 301.633 217.075 298.404C218.268 297.741 218.866 296.373 218.618 295.032C218.179 292.651 215.412 291.561 213.27 292.69C209.279 294.794 205.782 295.335 201.288 294.784C198.902 294.491 196.768 296.501 197.205 298.865Z" fill="#F4CF0A"/>
<path d="M145.677 230.252C146.095 228.89 147.371 227.986 148.796 227.984C151.2 227.981 152.792 230.442 152.074 232.736C150.722 237.057 150.623 240.595 151.973 244.9C152.698 247.21 151.127 249.735 148.706 249.738C147.342 249.74 146.104 248.905 145.668 247.613C143.539 241.316 143.635 236.901 145.677 230.252Z" fill="#FF9FB3"/>
<path fill-rule="evenodd" clip-rule="evenodd" d="M153.027 233.036C151.731 237.18 151.643 240.508 152.927 244.601C153.818 247.443 151.916 250.735 148.707 250.739C146.94 250.741 145.302 249.658 144.719 247.934C143.63 244.71 143.093 241.92 143.107 239.06C143.121 236.206 143.682 233.337 144.72 229.959C145.273 228.159 146.951 226.987 148.794 226.985C151.963 226.981 153.919 230.185 153.027 233.036ZM148.795 227.985C147.371 227.987 146.094 228.891 145.676 230.253C143.634 236.902 143.538 241.317 145.667 247.613C146.104 248.906 147.341 249.741 148.705 249.739C151.127 249.736 152.698 247.211 151.973 244.901C150.622 240.596 150.721 237.058 152.073 232.737C152.791 230.443 151.199 227.982 148.795 227.985Z" fill="#FF9FB3"/>
<path d="M320.985 203.918C319.592 203.621 318.579 202.429 318.452 201.01C318.238 198.616 320.55 196.814 322.898 197.327C327.321 198.295 330.854 198.083 335.024 196.359C337.261 195.434 339.915 196.778 340.13 199.189C340.252 200.548 339.529 201.854 338.28 202.403C332.194 205.076 327.788 205.368 320.985 203.918Z" fill="#FF9FB3"/>
<path fill-rule="evenodd" clip-rule="evenodd" d="M323.112 196.35C327.355 197.278 330.678 197.074 334.642 195.435C337.394 194.298 340.841 195.903 341.127 199.1C341.284 200.86 340.349 202.586 338.683 203.318C335.567 204.687 332.835 205.466 329.985 205.703C327.141 205.94 324.234 205.633 320.777 204.896C318.936 204.503 317.621 202.935 317.457 201.099C317.175 197.943 320.195 195.712 323.112 196.35ZM318.453 201.01C318.58 202.429 319.593 203.621 320.986 203.918C327.789 205.368 332.195 205.076 338.28 202.403C339.529 201.854 340.252 200.548 340.131 199.189C339.915 196.777 337.262 195.434 335.024 196.359C330.855 198.083 327.322 198.295 322.899 197.327C320.55 196.814 318.239 198.616 318.453 201.01Z" fill="#FF9FB3"/>
<path d="M108.324 272.092C109.063 270.875 110.522 270.312 111.903 270.659C114.235 271.246 115.175 274.022 113.916 276.07C111.545 279.927 110.582 283.333 110.836 287.837C110.972 290.255 108.83 292.318 106.482 291.727C105.159 291.394 104.164 290.281 104.057 288.921C103.538 282.295 104.713 278.038 108.324 272.092Z" fill="#FD476D"/>
<path fill-rule="evenodd" clip-rule="evenodd" d="M114.767 276.593C112.494 280.293 111.592 283.498 111.834 287.781C112.001 290.754 109.349 293.48 106.237 292.696C104.524 292.265 103.202 290.813 103.06 288.999C102.793 285.607 102.958 282.77 103.673 280.001C104.386 277.238 105.634 274.594 107.468 271.573C108.445 269.964 110.359 269.24 112.147 269.689C115.22 270.463 116.331 274.049 114.767 276.593ZM111.903 270.659C110.521 270.311 109.062 270.875 108.323 272.092C104.713 278.038 103.537 282.295 104.056 288.921C104.163 290.281 105.158 291.394 106.481 291.727C108.829 292.318 110.971 290.255 110.835 287.837C110.581 283.333 111.545 279.927 113.915 276.07C115.174 274.022 114.234 271.246 111.903 270.659Z" fill="#FD476D"/>
<path d="M331.157 235.835C332.474 235.293 333.983 235.705 334.889 236.804C336.419 238.658 335.53 241.451 333.302 242.354C329.105 244.054 326.31 246.225 323.843 250.002C322.519 252.03 319.571 252.42 318.031 250.552C317.163 249.499 317.022 248.013 317.742 246.855C321.253 241.211 324.724 238.481 331.157 235.835Z" fill="#C85521"/>
<path fill-rule="evenodd" clip-rule="evenodd" d="M333.676 243.281C329.652 244.912 327.025 246.958 324.68 250.55C323.051 253.043 319.3 253.665 317.258 251.189C316.135 249.826 315.931 247.872 316.893 246.327C318.69 243.438 320.504 241.252 322.722 239.446C324.935 237.644 327.508 236.255 330.776 234.91C332.517 234.194 334.488 234.746 335.66 236.168C337.676 238.613 336.445 242.16 333.676 243.281ZM334.889 236.804C333.983 235.705 332.474 235.293 331.156 235.835C324.724 238.482 321.253 241.212 317.742 246.856C317.021 248.014 317.162 249.5 318.03 250.553C319.57 252.421 322.518 252.03 323.842 250.003C326.309 246.225 329.104 244.055 333.301 242.354C335.529 241.452 336.418 238.659 334.889 236.804Z" fill="#F4CF0A"/>
<path d="M136.741 156.713C137.898 155.883 139.462 155.937 140.596 156.799C142.511 158.253 142.287 161.175 140.326 162.565C136.632 165.184 134.411 167.939 132.877 172.182C132.054 174.46 129.275 175.517 127.347 174.053C126.26 173.228 125.782 171.814 126.217 170.521C128.337 164.221 131.088 160.767 136.741 156.713Z" fill="#FF845E"/>
<path fill-rule="evenodd" clip-rule="evenodd" d="M140.904 163.382C137.362 165.893 135.276 168.488 133.818 172.523C132.806 175.324 129.298 176.791 126.742 174.85C125.335 173.781 124.689 171.927 125.269 170.202C126.355 166.977 127.618 164.433 129.362 162.166C131.102 159.903 133.286 157.961 136.158 155.901C137.688 154.804 139.733 154.888 141.201 156.003C143.725 157.92 143.341 161.654 140.904 163.382ZM140.596 156.799C139.462 155.938 137.899 155.884 136.741 156.714C131.088 160.768 128.337 164.222 126.217 170.521C125.782 171.814 126.26 173.228 127.347 174.053C129.275 175.518 132.055 174.46 132.877 172.183C134.411 167.94 136.632 165.185 140.326 162.566C142.287 161.176 142.511 158.253 140.596 156.799Z" fill="#FF845E"/>
<path d="M274.431 274.61C274.162 273.211 274.865 271.814 276.122 271.144C278.244 270.014 280.804 271.44 281.247 273.803C282.08 278.253 283.652 281.424 286.865 284.592C288.589 286.292 288.386 289.259 286.249 290.398C285.045 291.039 283.561 290.882 282.568 289.946C277.734 285.384 275.748 281.44 274.431 274.61Z" fill="#4CE6B7"/>
<path fill-rule="evenodd" clip-rule="evenodd" d="M282.229 273.619C283.028 277.887 284.512 280.868 287.566 283.88C289.686 285.971 289.551 289.771 286.719 291.28C285.159 292.111 283.205 291.922 281.881 290.674C279.406 288.338 277.624 286.126 276.295 283.594C274.968 281.067 274.118 278.27 273.449 274.8C273.093 272.951 274.025 271.129 275.651 270.262C278.448 268.772 281.679 270.683 282.229 273.619ZM276.121 271.145C274.864 271.814 274.161 273.212 274.431 274.61C275.747 281.44 277.734 285.385 282.568 289.946C283.56 290.883 285.044 291.039 286.248 290.398C288.385 289.259 288.588 286.292 286.864 284.592C283.651 281.424 282.079 278.254 281.246 273.803C280.804 271.44 278.243 270.014 276.121 271.145Z" fill="#4CE6B7"/>
<path d="M90.6463 197.3C90.3768 195.901 91.08 194.504 92.3371 193.834C94.4586 192.703 97.0191 194.129 97.4614 196.492C98.2945 200.943 99.8671 204.113 103.079 207.281C104.803 208.982 104.601 211.949 102.464 213.087C101.26 213.729 99.7754 213.572 98.7832 212.636C93.9492 208.074 91.9626 204.13 90.6463 197.3Z" fill="#4CE6B7"/>
<path fill-rule="evenodd" clip-rule="evenodd" d="M98.4436 196.309C99.2426 200.577 100.726 203.557 103.781 206.57C105.901 208.661 105.766 212.461 102.933 213.97C101.374 214.801 99.4196 214.612 98.0962 213.363C95.6213 211.028 93.839 208.815 92.5095 206.283C91.1826 203.756 90.3324 200.959 89.6637 197.489C89.3073 195.64 90.2395 193.818 91.8661 192.951C94.6629 191.461 97.8941 193.373 98.4436 196.309ZM92.3363 193.834C91.0792 194.504 90.376 195.901 90.6456 197.3C91.9619 204.13 93.9485 208.074 98.7825 212.636C99.7747 213.572 101.259 213.729 102.463 213.087C104.6 211.949 104.803 208.982 103.079 207.282C99.8663 204.114 98.2937 200.943 97.4607 196.493C97.0184 194.13 94.4579 192.704 92.3363 193.834Z" fill="#4CE6B7"/>
<path d="M295.114 158.308C296.538 158.27 297.802 159.192 298.257 160.542C299.025 162.82 297.2 165.113 294.796 165.163C290.27 165.257 286.885 166.29 283.234 168.941C281.275 170.364 278.381 169.679 277.607 167.385C277.171 166.092 277.568 164.654 278.654 163.828C283.945 159.805 288.161 158.49 295.114 158.308Z" fill="#FD476D"/>
<path fill-rule="evenodd" clip-rule="evenodd" d="M294.816 166.162C290.475 166.253 287.292 167.229 283.821 169.75C281.411 171.5 277.684 170.745 276.659 167.704C276.094 166.03 276.6 164.133 278.048 163.031C280.757 160.972 283.231 159.575 285.946 158.677C288.656 157.781 291.554 157.4 295.087 157.307C296.969 157.258 298.614 158.476 299.203 160.222C300.216 163.225 297.802 166.1 294.816 166.162ZM298.256 160.542C297.801 159.192 296.537 158.27 295.113 158.307C288.16 158.489 283.944 159.804 278.653 163.827C277.567 164.653 277.17 166.092 277.606 167.385C278.38 169.679 281.274 170.364 283.233 168.941C286.884 166.29 290.269 165.257 294.795 165.163C297.199 165.112 299.024 162.82 298.256 160.542Z" fill="#FD476D"/>
<path d="M351.314 170.064C350.303 171.068 348.751 171.265 347.494 170.595C345.372 169.466 345.127 166.545 346.841 164.859C350.069 161.685 351.822 158.61 352.658 154.177C353.107 151.797 355.682 150.31 357.82 151.448C359.024 152.089 359.722 153.408 359.499 154.754C358.411 161.311 356.247 165.16 351.314 170.064Z" fill="#4CE6B7"/>
<path fill-rule="evenodd" clip-rule="evenodd" d="M346.139 164.146C349.235 161.101 350.88 158.207 351.675 153.991C352.227 151.065 355.456 149.057 358.289 150.565C359.848 151.395 360.782 153.122 360.485 154.918C359.928 158.274 359.086 160.988 357.727 163.504C356.371 166.016 354.524 168.282 352.018 170.773C350.682 172.101 348.65 172.344 347.024 171.478C344.226 169.989 344.009 166.241 346.139 164.146ZM347.493 170.595C348.751 171.264 350.303 171.068 351.313 170.064C356.246 165.16 358.41 161.311 359.498 154.754C359.721 153.408 359.023 152.089 357.819 151.448C355.682 150.31 353.106 151.797 352.658 154.177C351.821 158.61 350.068 161.684 346.84 164.859C345.126 166.545 345.371 169.465 347.493 170.595Z" fill="#4CE6B7"/>
<path d="M88.6296 250.501C88.7069 252.156 87.4279 253.56 85.7728 253.638C84.1178 253.715 82.7134 252.436 82.6361 250.781C82.5588 249.126 83.8378 247.722 85.4928 247.644C87.1479 247.567 88.5522 248.846 88.6296 250.501Z" fill="#FFD600"/>
<path d="M141.38 200.986C141.457 202.641 140.178 204.046 138.523 204.123C136.868 204.2 135.463 202.921 135.386 201.266C135.309 199.611 136.588 198.207 138.243 198.13C139.898 198.052 141.302 199.331 141.38 200.986Z" fill="#FFD600"/>
<path d="M154.132 287.997C154.21 289.652 152.707 291.067 150.776 291.157C148.845 291.247 147.217 289.979 147.14 288.324C147.063 286.669 148.565 285.254 150.496 285.164C152.427 285.074 154.055 286.342 154.132 287.997Z" fill="#FFD600"/>
<path d="M306.449 284.374C306.526 286.029 305.023 287.444 303.093 287.534C301.162 287.624 299.534 286.356 299.456 284.701C299.379 283.046 300.882 281.631 302.813 281.541C304.743 281.451 306.371 282.719 306.449 284.374Z" fill="#FFD600"/>
<path d="M368.133 246.997C368.211 248.652 366.932 250.056 365.277 250.134C363.622 250.211 362.217 248.932 362.14 247.277C362.063 245.622 363.342 244.218 364.997 244.14C366.652 244.063 368.056 245.342 368.133 246.997Z" fill="#FFD600"/>
<path d="M323.133 173.997C323.211 175.652 321.932 177.056 320.277 177.134C318.622 177.211 317.217 175.932 317.14 174.277C317.063 172.622 318.342 171.218 319.997 171.14C321.652 171.063 323.056 172.342 323.133 173.997Z" fill="#FFD600"/>
<path d="M380.133 194.997C380.211 196.652 378.932 198.056 377.277 198.134C375.622 198.211 374.217 196.932 374.14 195.277C374.063 193.622 375.342 192.218 376.997 192.14C378.652 192.063 380.056 193.342 380.133 194.997Z" fill="#FFD600"/>
<path d="M196.133 325.997C196.211 327.652 194.932 329.056 193.277 329.134C191.622 329.211 190.217 327.932 190.14 326.277C190.063 324.622 191.342 323.218 192.997 323.14C194.652 323.063 196.056 324.342 196.133 325.997Z" fill="#FFD600"/>
<path d="M127.906 319.744C127.983 321.399 126.481 322.814 124.55 322.904C122.619 322.995 120.991 321.726 120.913 320.071C120.836 318.416 122.339 317.001 124.27 316.911C126.201 316.821 127.828 318.089 127.906 319.744Z" fill="#FFD600"/>
<path fill-rule="evenodd" clip-rule="evenodd" d="M263.65 215.031C265.263 215.412 266.261 217.028 265.879 218.641C261.534 237.02 252.164 247.315 241.918 252.499C231.807 257.614 221.164 257.592 214.339 255.969C212.727 255.585 211.731 253.968 212.114 252.356C212.498 250.744 214.115 249.748 215.727 250.131C221.408 251.482 230.565 251.519 239.209 247.145C247.719 242.84 256.059 234.098 260.04 217.26C260.422 215.648 262.038 214.65 263.65 215.031Z" fill="white"/>
<path d="M64.4777 325C75.2777 307 68.9777 284.833 64.4777 276C90.9774 302 86.4791 345 71.9783 354.5C61.0961 361.629 50.9777 347.5 64.4777 325Z" fill="#FFF36C"/>
<path fill-rule="evenodd" clip-rule="evenodd" d="M66.2588 330.149C67.2807 330.568 67.7693 331.737 67.35 332.759C66.0598 335.904 64.6518 340.583 64.4981 344.466C64.4208 346.421 64.6732 347.936 65.2036 348.935C65.6621 349.798 66.3672 350.376 67.6987 350.509C68.7978 350.619 69.5997 351.599 69.4898 352.699C69.3798 353.798 68.3998 354.6 67.3007 354.49C64.6322 354.223 62.7539 352.851 61.6708 350.811C60.6595 348.907 60.4119 346.565 60.5012 344.308C60.6809 339.766 62.2729 334.596 63.6493 331.24C64.0686 330.219 65.2369 329.73 66.2588 330.149Z" fill="white"/>
<path fill-rule="evenodd" clip-rule="evenodd" d="M243.979 107.448C245.36 107.448 246.479 108.567 246.479 109.948C246.479 133.511 236.862 151.229 222.882 159.09C208.743 167.041 190.926 164.477 175.76 149.039C174.792 148.054 174.806 146.471 175.791 145.504C176.776 144.536 178.359 144.55 179.326 145.535C193.215 159.672 208.616 161.376 220.431 154.732C232.406 147.998 241.479 132.259 241.479 109.948C241.479 108.567 242.598 107.448 243.979 107.448Z" fill="black"/>
<path d="M182.257 92.682L188.773 116.225C182.188 115.117 167.693 105.841 167.69 95.6173C167.686 85.3934 177.048 84.071 182.257 92.682Z" fill="white"/>
<path d="M182.257 92.682L188.773 116.225C193.753 111.538 201.231 95.4609 196.021 86.8483C190.812 78.2357 182.253 82.4602 182.257 92.682Z" fill="white"/>
<path fill-rule="evenodd" clip-rule="evenodd" d="M188.773 116.225C188.583 116.193 188.387 116.154 188.185 116.109C181.366 114.582 167.693 105.547 167.69 95.6173C167.686 86.0265 175.925 84.2689 181.245 91.1963C181.596 91.6536 181.934 92.1488 182.257 92.682C182.257 92.0604 182.288 91.4611 182.348 90.8854C183.281 81.9939 191.128 78.7594 196.021 86.8483C201.081 95.213 194.173 110.618 189.208 115.792C189.061 115.945 188.916 116.09 188.773 116.225ZM188.871 114.574C191.044 112.094 193.603 107.607 195.2 102.678C197.018 97.0677 197.458 91.2918 195.105 87.4027C193.886 85.3878 192.529 84.2195 191.252 83.6739C189.991 83.1355 188.745 83.1738 187.624 83.6787C185.353 84.702 183.326 87.8207 183.328 92.6816L183.328 94.5467L188.871 114.574ZM182.288 94.8035L181.34 93.2363C178.872 89.1559 175.608 87.7137 173.206 88.141C170.908 88.55 168.759 90.8152 168.761 95.6169C168.762 100.242 172.076 104.844 176.452 108.519C180.322 111.77 184.777 114.088 187.857 114.924L182.288 94.8035Z" fill="white"/>
<path d="M225.884 81.9174L232.399 105.46C225.815 104.352 211.32 95.0766 211.317 84.8527C211.313 74.6287 220.675 73.3064 225.884 81.9174Z" fill="white"/>
<path d="M225.884 81.9174L232.399 105.46C237.38 100.773 244.858 84.6963 239.648 76.0837C234.439 67.4711 225.88 71.6956 225.884 81.9174Z" fill="white"/>
<path fill-rule="evenodd" clip-rule="evenodd" d="M232.399 105.46C232.21 105.428 232.014 105.389 231.812 105.344C224.993 103.818 211.32 94.7823 211.317 84.8527C211.313 75.2618 219.552 73.5043 224.872 80.4317C225.223 80.889 225.561 81.3841 225.884 81.9174C225.883 81.2958 225.915 80.6964 225.975 80.1207C226.908 71.2293 234.755 67.9948 239.648 76.0837C244.708 84.4484 237.8 99.8536 232.835 105.027C232.688 105.181 232.543 105.325 232.399 105.46ZM232.498 103.81C234.671 101.329 237.23 96.8428 238.827 91.9138C240.645 86.303 241.085 80.5272 238.732 76.638C237.513 74.6231 236.156 73.4548 234.879 72.9093C233.618 72.3709 232.372 72.4092 231.251 72.9141C228.98 73.9374 226.953 77.056 226.955 81.9169L226.955 83.782L232.498 103.81ZM225.915 84.0389L224.967 82.4716C222.499 78.3912 219.235 76.9491 216.833 77.3763C214.535 77.7853 212.386 80.0505 212.388 84.8523C212.389 89.4777 215.703 94.0793 220.079 97.7548C223.949 101.006 228.404 103.323 231.484 104.16L225.915 84.0389Z" fill="white"/>
<path d="M185.076 95.3937L189.901 114.677C184.822 113.826 173.705 106.335 173.794 97.9354C173.883 89.5359 181.129 88.3659 185.076 95.3937Z" fill="#9971FF"/>
<path d="M185.076 95.3937L189.901 114.677C193.791 110.782 199.713 97.5071 195.765 90.4779C191.816 83.4488 185.165 86.996 185.076 95.3937Z" fill="#9971FF"/>
<path d="M228.703 84.629L233.527 103.912C228.449 103.061 217.332 95.5703 217.421 87.1708C217.51 78.7713 224.756 77.6012 228.703 84.629Z" fill="#9971FF"/>
<path d="M228.703 84.629L233.527 103.912C237.418 100.017 243.34 86.7424 239.391 79.7133C235.443 72.6841 228.792 76.2313 228.703 84.629Z" fill="#9971FF"/>
<path fill-rule="evenodd" clip-rule="evenodd" d="M170.841 124.256C170.137 126.41 168.617 128.059 166.577 128.565C164.674 129.037 162.708 128.418 161.132 127.054C160.374 128.996 158.924 130.462 157.022 130.933C153.503 131.805 149.767 128.946 148.677 124.548C147.587 120.149 149.556 115.876 153.075 115.004C154.977 114.533 156.943 115.152 158.52 116.515C159.278 114.573 160.727 113.108 162.63 112.636C164.725 112.117 166.897 112.921 168.542 114.585C169.246 112.431 170.766 110.782 172.806 110.276C176.325 109.404 180.061 112.263 181.151 116.661C182.241 121.06 180.272 125.333 176.753 126.205C174.658 126.724 172.485 125.92 170.841 124.256Z" fill="#FD476D"/>
<path fill-rule="evenodd" clip-rule="evenodd" d="M153.3 121.237C153.651 120.655 154.407 120.467 154.989 120.818L158.965 123.214C159.547 123.565 159.734 124.322 159.383 124.904C159.032 125.486 158.276 125.674 157.694 125.323L153.719 122.926C153.136 122.575 152.949 121.819 153.3 121.237Z" fill="black"/>
<path fill-rule="evenodd" clip-rule="evenodd" d="M162.587 118.911C162.938 118.329 163.694 118.141 164.276 118.492L168.252 120.888C168.834 121.239 169.021 121.996 168.67 122.578C168.319 123.16 167.563 123.347 166.981 122.996L163.006 120.6C162.424 120.249 162.236 119.493 162.587 118.911Z" fill="black"/>
<path fill-rule="evenodd" clip-rule="evenodd" d="M171.439 116.904C171.789 116.322 172.546 116.134 173.128 116.485L177.103 118.881C177.685 119.232 177.873 119.989 177.522 120.571C177.171 121.153 176.415 121.341 175.832 120.99L171.857 118.593C171.275 118.242 171.088 117.486 171.439 116.904Z" fill="black"/>
<path fill-rule="evenodd" clip-rule="evenodd" d="M252.163 108.849C251.405 110.791 249.956 112.257 248.053 112.729C244.534 113.601 240.798 110.742 239.708 106.343C238.618 101.945 240.587 97.672 244.106 96.8001C246.009 96.3285 247.975 96.9481 249.553 98.3123C250.311 96.3699 251.76 94.904 253.663 94.4325C257.182 93.5605 260.918 96.4194 262.008 100.818C263.098 105.217 261.129 109.489 257.61 110.361C255.707 110.833 253.74 110.213 252.163 108.849Z" fill="#FD476D"/>
<path fill-rule="evenodd" clip-rule="evenodd" d="M244.331 103.033C244.682 102.451 245.438 102.263 246.021 102.614L249.996 105.01C250.578 105.361 250.765 106.118 250.414 106.7C250.064 107.282 249.307 107.469 248.725 107.119L244.75 104.722C244.168 104.371 243.98 103.615 244.331 103.033Z" fill="black"/>
<path fill-rule="evenodd" clip-rule="evenodd" d="M252.294 101.059C252.645 100.477 253.401 100.29 253.984 100.64L257.959 103.037C258.541 103.388 258.728 104.144 258.377 104.726C258.026 105.308 257.27 105.496 256.688 105.145L252.713 102.749C252.131 102.398 251.943 101.641 252.294 101.059Z" fill="black"/>
<path d="M194.279 94.7748C194.279 95.9578 193.56 96.9168 192.673 96.9168C191.786 96.9168 191.066 95.9578 191.066 94.7748C191.066 93.5918 191.786 92.6328 192.673 92.6328C193.56 92.6328 194.279 93.5918 194.279 94.7748Z" fill="white"/>
<path d="M238.176 82.9945C238.176 84.1775 237.457 85.1366 236.569 85.1366C235.682 85.1366 234.963 84.1775 234.963 82.9945C234.963 81.8115 235.682 80.8525 236.569 80.8525C237.457 80.8525 238.176 81.8115 238.176 82.9945Z" fill="white"/>
</svg>
