<svg width="430" height="430" viewBox="0 0 430 430" fill="none" xmlns="http://www.w3.org/2000/svg">
<path d="M430 215C430 333.741 333.741 430 215 430C96.2588 430 0 333.741 0 215C0 96.2588 96.2588 0 215 0C333.741 0 430 96.2588 430 215Z" fill="#4CE6B7"/>
<mask id="mask0" mask-type="alpha" maskUnits="userSpaceOnUse" x="0" y="0" width="430" height="430">
<path d="M430 215C430 333.741 333.741 430 215 430C96.2588 430 0 333.741 0 215C0 96.2588 96.2588 0 215 0C333.741 0 430 96.2588 430 215Z" fill="#4CE6B7"/>
</mask>
<g mask="url(#mask0)">
<path fill-rule="evenodd" clip-rule="evenodd" d="M368.798 242.972C369.286 242.303 370.224 242.156 370.893 242.644L370.009 243.856C370.893 242.644 370.894 242.645 370.895 242.645L370.896 242.646L370.9 242.649L370.912 242.658L370.954 242.689C370.989 242.716 371.039 242.753 371.103 242.802C371.229 242.9 371.411 243.042 371.638 243.227C372.092 243.596 372.729 244.138 373.481 244.838C374.981 246.235 376.949 248.274 378.813 250.847C382.527 255.973 385.942 263.379 384.158 272.064C383.991 272.876 383.198 273.398 382.387 273.232C381.575 273.065 381.053 272.272 381.219 271.461C382.767 263.926 379.842 257.379 376.384 252.607C374.661 250.23 372.834 248.334 371.437 247.033C370.739 246.384 370.152 245.886 369.743 245.553C369.539 245.387 369.38 245.262 369.274 245.18C369.221 245.14 369.181 245.11 369.156 245.091L369.129 245.071L369.125 245.068L369.124 245.067C369.124 245.067 369.124 245.067 369.124 245.067L369.124 245.067C368.456 244.578 368.309 243.641 368.798 242.972Z" fill="#231F20"/>
<path fill-rule="evenodd" clip-rule="evenodd" d="M376.856 237.762C377.333 237.084 378.269 236.921 378.946 237.398L378.083 238.624C378.946 237.398 378.946 237.397 378.946 237.398L378.95 237.4L378.955 237.404L378.974 237.417C378.989 237.428 379.009 237.443 379.036 237.462C379.089 237.5 379.164 237.556 379.259 237.628C379.45 237.771 379.723 237.982 380.061 238.257C380.738 238.807 381.68 239.617 382.762 240.672C384.922 242.776 387.661 245.875 389.952 249.843C390.366 250.561 390.12 251.478 389.403 251.892C388.685 252.307 387.768 252.061 387.354 251.343C385.237 247.677 382.691 244.791 380.668 242.82C379.659 241.837 378.785 241.086 378.169 240.585C377.861 240.334 377.617 240.147 377.454 240.024C377.372 239.962 377.311 239.917 377.271 239.888L377.229 239.857L377.22 239.851C376.543 239.375 376.38 238.439 376.856 237.762Z" fill="#231F20"/>
<path d="M204.99 304.068L248.252 294.873L266.249 379.542C268.788 391.489 261.162 403.232 249.216 405.771C237.27 408.31 225.527 400.684 222.987 388.738L204.99 304.068Z" fill="#F8C377"/>
<path d="M206 308.359L249.5 299L252 313L211.892 336.228L206 308.359Z" fill="#EEA43A"/>
<path d="M165.499 63.7443C168.164 55.0336 179.368 52.6521 185.345 59.5258L358.749 258.944C364.55 265.615 361.054 276.064 352.407 277.902L227.055 304.547L101.702 331.191C93.0548 333.029 85.6119 324.905 88.1979 316.451L165.499 63.7443Z" fill="#9971FF"/>
<path fill-rule="evenodd" clip-rule="evenodd" d="M178.635 76.2978C178.962 77.353 178.371 78.4731 177.316 78.7997C176.209 79.1423 175.073 80.0111 173.918 81.6084C172.763 83.2046 171.69 85.3903 170.676 88.1058C168.647 93.5431 166.996 100.702 165.301 108.575C165.069 109.655 164.005 110.342 162.925 110.11C161.845 109.877 161.158 108.814 161.391 107.734C163.076 99.9024 164.781 92.4603 166.929 86.7068C168.004 83.8268 169.226 81.2697 170.677 79.264C172.127 77.2594 173.907 75.6673 176.134 74.9784C177.189 74.6519 178.309 75.2426 178.635 76.2978Z" fill="white"/>
<path d="M133.86 285.326L162.091 147.825L150.285 287.697C149.976 291.348 147.314 294.366 143.73 295.128C137.869 296.374 132.655 291.196 133.86 285.326Z" fill="#8F63FF"/>
<path d="M309.381 248.013L224.431 128.114L295.265 256.857C297.038 260.079 300.711 261.76 304.308 260.995C310.173 259.749 312.847 252.906 309.381 248.013Z" fill="#8F63FF"/>
<path d="M192.21 133.671L226.36 271.785C227.102 274.788 225.211 277.808 222.186 278.451C219.137 279.099 216.164 277.074 215.651 274L192.21 133.671Z" fill="#8F63FF"/>
<path d="M169.644 194.331C164.965 194.151 161.398 188.119 161.677 180.857C161.956 173.595 165.975 167.854 170.655 168.034C175.334 168.214 178.901 174.246 178.622 181.508C178.343 188.769 174.324 194.51 169.644 194.331Z" fill="white"/>
<path d="M167.778 168.683C170.529 170.675 173.173 175.49 172.956 181.138C172.739 186.787 169.92 191.796 167.023 193.57C163.68 192.021 161.442 186.353 161.659 180.704C161.876 175.056 163.94 170.422 167.778 168.683Z" fill="#231F20"/>
<path d="M199.459 191.623C194.78 191.443 191.213 185.411 191.492 178.149C191.77 170.887 195.79 165.146 200.469 165.326C205.148 165.506 208.715 171.538 208.436 178.8C208.157 186.061 204.138 191.802 199.459 191.623Z" fill="white"/>
<path d="M197.592 165.975C200.344 167.967 202.987 172.782 202.77 178.43C202.553 184.079 199.734 189.088 196.838 190.862C193.495 189.313 191.257 183.645 191.474 177.996C191.691 172.348 193.754 167.714 197.592 165.975Z" fill="#231F20"/>
<path d="M183.572 203.799C184.533 203.799 185.493 215.326 185.493 216.286C186.454 222.05 187.415 228.774 191.257 231.656C193.178 232.617 194.139 233.577 196.06 233.577C211.429 235.498 211.429 211.484 211.429 201.878C211.429 201.878 211.429 197.075 211.429 198.035C212.39 198.996 184.533 203.799 183.572 203.799Z" fill="#FD476D"/>
<path fill-rule="evenodd" clip-rule="evenodd" d="M241.973 191.669C242.306 193.151 241.375 194.622 239.893 194.955L154.4 214.167C152.919 214.5 151.447 213.569 151.114 212.087C150.781 210.605 151.713 209.134 153.195 208.801L238.687 189.589C240.169 189.256 241.64 190.187 241.973 191.669Z" fill="#231F20"/>
<path fill-rule="evenodd" clip-rule="evenodd" d="M195.827 200.424C197.161 200.291 198.35 201.264 198.484 202.598L196.068 202.84L193.653 203.081C193.519 201.747 194.493 200.558 195.827 200.424ZM196.068 202.84C193.653 203.081 193.653 203.081 193.653 203.081L193.735 203.908C193.788 204.435 193.863 205.189 193.953 206.096C194.133 207.912 194.373 210.342 194.613 212.801C194.853 215.262 195.093 217.749 195.272 219.68C195.362 220.646 195.436 221.468 195.488 222.075C195.533 222.606 195.553 222.886 195.559 222.978C195.561 223.004 195.562 223.015 195.562 223.012C195.562 224.353 196.649 225.44 197.989 225.44C199.33 225.44 200.417 224.353 200.417 223.012C200.417 222.624 200.277 221.065 200.106 219.23C199.926 217.288 199.685 214.793 199.445 212.33C199.204 209.867 198.964 207.434 198.784 205.617C198.694 204.709 198.619 203.954 198.566 203.426L198.484 202.598C198.484 202.598 198.484 202.598 196.068 202.84Z" fill="#231F20"/>
</g>
</svg>
