<svg width="430" height="430" viewBox="0 0 430 430" fill="none" xmlns="http://www.w3.org/2000/svg">
<path d="M430 215C430 333.741 333.741 430 215 430C96.2588 430 0 333.741 0 215C0 96.2588 96.2588 0 215 0C333.741 0 430 96.2588 430 215Z" fill="#449AFF"/>
<path d="M80.794 132.446C78.9805 133.962 77.318 136.085 75.9579 138.966C63.7163 165.046 100.29 200.527 100.29 227.821C100.29 244.197 58.4267 316.524 108.451 347.911C158.475 379.45 199.13 335.023 230.565 315.311C241.9 308.184 254.292 302.726 266.534 297.419C282.1 290.444 297.818 283.924 313.536 277.252C326.986 271.49 340.739 265.728 353.736 258.905C357.817 256.782 361.898 254.659 365.525 251.93C369.454 248.897 370.512 245.106 371.268 240.103C371.872 235.857 369.303 233.583 366.431 231.005C366.431 231.005 406.33 198.708 328.951 187.639C328.498 187.639 326.835 184.758 326.533 184.303C324.568 181.877 322.301 179.603 319.732 177.935C314.442 174.75 308.548 175.054 302.654 175.66C274.846 178.541 248.308 184.151 220.5 185.971C209.316 186.729 198.133 187.639 186.949 187.942C176.068 188.245 165.035 189.913 154.154 191.126C152.038 191.278 148.501 187.639 147.141 185.971C146.536 185.213 146.083 184 145.478 183.242C144.118 181.119 142.758 179.148 141.398 177.025C137.619 171.566 133.539 166.259 129.307 161.104C120.39 150.49 110.416 139.118 98.1741 132.901C92.7334 130.02 85.9325 128.352 80.794 132.446Z" fill="#FFF176"/>
<path fill-rule="evenodd" clip-rule="evenodd" d="M163.479 128.861C163.134 129.614 162.244 129.946 161.491 129.602L144.811 121.984C144.058 121.639 143.726 120.75 144.07 119.996C144.414 119.242 145.304 118.911 146.058 119.255L162.737 126.873C163.491 127.217 163.823 128.107 163.479 128.861Z" fill="#4CE6B7"/>
<path fill-rule="evenodd" clip-rule="evenodd" d="M169.991 111.361C169.357 111.894 168.411 111.811 167.878 111.177L156.088 97.1319C155.556 96.4974 155.638 95.5512 156.273 95.0186C156.907 94.486 157.854 94.5686 158.386 95.2031L170.176 109.248C170.708 109.882 170.626 110.829 169.991 111.361Z" fill="#4CE6B7"/>
<path d="M185.661 107.354C180.114 115.726 182.244 127.75 190.322 133.662L209.384 147.614C214.981 151.711 217.779 153.759 220.716 153.199C223.653 152.639 225.502 149.705 229.2 143.837L241.792 123.851C247.129 115.382 244.686 103.418 236.449 97.6729C228.527 92.1488 218.3 94.5347 213.606 103.002C212.65 104.727 210.386 105.158 208.862 103.906C201.382 97.7595 190.995 99.3029 185.661 107.354Z" fill="#4CE6B7"/>
<path fill-rule="evenodd" clip-rule="evenodd" d="M159.65 217.272C159.698 216.168 160.631 215.313 161.735 215.36L161.648 217.358C161.735 215.36 161.736 215.36 161.737 215.36L161.74 215.361L161.751 215.361L161.789 215.363C161.821 215.364 161.867 215.367 161.927 215.37C162.047 215.376 162.222 215.387 162.447 215.401C162.898 215.431 163.554 215.479 164.383 215.554C166.041 215.705 168.4 215.965 171.218 216.401C176.845 217.271 184.357 218.854 191.815 221.707C199.257 224.554 206.779 228.717 212.291 234.825C217.853 240.988 221.3 249.064 220.621 259.49C220.549 260.592 219.597 261.427 218.495 261.356C217.393 261.284 216.557 260.332 216.629 259.23C217.234 249.943 214.202 242.913 209.321 237.505C204.391 232.042 197.509 228.168 190.385 225.443C183.278 222.724 176.064 221.198 170.606 220.354C167.883 219.932 165.609 219.682 164.021 219.538C163.227 219.466 162.606 219.42 162.186 219.393C161.976 219.379 161.817 219.37 161.711 219.364C161.659 219.361 161.62 219.359 161.595 219.358L161.568 219.357L161.562 219.357L161.562 219.357L161.561 219.357C160.458 219.308 159.603 218.375 159.65 217.272Z" fill="black"/>
<path fill-rule="evenodd" clip-rule="evenodd" d="M223.832 196.248C224.186 195.202 225.32 194.64 226.367 194.993L225.727 196.888C226.367 194.993 226.368 194.994 226.369 194.994L226.382 194.998L226.418 195.011C226.45 195.022 226.496 195.037 226.555 195.058C226.675 195.1 226.849 195.161 227.075 195.242C227.528 195.403 228.187 195.643 229.024 195.96C230.699 196.595 233.087 197.539 235.956 198.782C241.69 201.267 249.373 204.96 257.14 209.784C264.898 214.601 272.811 220.591 278.948 227.693C285.088 234.798 289.537 243.12 290.14 252.56C290.21 253.663 289.374 254.613 288.271 254.684C287.169 254.754 286.218 253.918 286.148 252.815C285.618 244.515 281.697 236.992 275.922 230.308C270.143 223.621 262.594 217.879 255.03 213.182C247.477 208.491 239.981 204.886 234.365 202.452C231.56 201.237 229.231 200.316 227.607 199.701C226.795 199.393 226.16 199.162 225.73 199.009C225.516 198.932 225.352 198.875 225.244 198.837C225.189 198.818 225.149 198.804 225.123 198.795L225.094 198.785L225.088 198.783" fill="black"/>
<path fill-rule="evenodd" clip-rule="evenodd" d="M287.911 244.914C287.911 244.914 287.911 244.914 287.389 242.983C286.868 241.052 286.868 241.052 286.869 241.052L287.042 241.006C287.155 240.975 287.324 240.93 287.544 240.872C287.983 240.755 288.63 240.585 289.459 240.37C291.117 239.941 293.505 239.331 296.433 238.612C302.288 237.175 310.306 235.297 318.954 233.537C327.597 231.778 336.897 230.131 345.308 229.162C353.658 228.2 361.344 227.879 366.653 228.888C367.738 229.094 368.45 230.141 368.244 231.226C368.038 232.311 366.991 233.024 365.906 232.818C361.24 231.931 354.078 232.178 345.766 233.136C337.514 234.086 328.338 235.709 319.752 237.456C311.171 239.203 303.207 241.068 297.387 242.497C294.478 243.211 292.106 243.816 290.463 244.242C289.641 244.455 289.002 244.624 288.568 244.739C288.352 244.796 288.186 244.84 288.076 244.87L287.911 244.914ZM285.458 243.505C285.17 242.438 285.802 241.34 286.869 241.052L287.389 242.983L287.911 244.914C286.845 245.202 285.746 244.571 285.458 243.505Z" fill="black"/>
<path fill-rule="evenodd" clip-rule="evenodd" d="M276.206 225.09L275.383 223.268C274.376 223.722 273.928 224.906 274.383 225.913C274.837 226.92 276.022 227.368 277.028 226.913C277.028 226.913 277.028 226.913 277.028 226.913L277.035 226.91L277.062 226.898L277.171 226.85C277.268 226.806 277.415 226.741 277.61 226.656C278 226.486 278.58 226.235 279.335 225.915C280.846 225.277 283.057 224.365 285.848 223.28C291.43 221.108 299.323 218.24 308.557 215.463C327.069 209.895 350.787 204.745 372.041 206.161C373.143 206.235 374.096 205.401 374.169 204.299C374.243 203.196 373.409 202.243 372.307 202.17C350.336 200.706 326.071 206.018 307.405 211.632C298.05 214.446 290.055 217.35 284.397 219.552C281.567 220.653 279.32 221.579 277.778 222.231C277.006 222.557 276.411 222.815 276.007 222.992C275.805 223.08 275.65 223.148 275.546 223.195L275.426 223.248L275.395 223.262L275.384 223.267C275.383 223.267 275.383 223.268 276.206 225.09Z" fill="black"/>
<path fill-rule="evenodd" clip-rule="evenodd" d="M247.96 208.286C247.96 208.286 247.96 208.286 247.845 208.011L247.96 208.286C246.941 208.712 245.77 208.232 245.343 207.213C244.917 206.194 245.397 205.023 246.416 204.596L247.152 206.354C246.416 204.596 246.416 204.596 246.417 204.596L246.457 204.579L246.571 204.532C246.671 204.49 246.819 204.429 247.012 204.35C247.399 204.192 247.969 203.961 248.703 203.669C250.171 203.085 252.3 202.255 254.948 201.267C260.242 199.292 267.622 196.686 275.966 194.159C292.565 189.133 313.289 184.322 328.967 185.646C330.068 185.739 330.885 186.707 330.792 187.807C330.699 188.908 329.731 189.725 328.63 189.632C313.779 188.378 293.698 192.969 277.125 197.988C268.881 200.484 261.583 203.061 256.346 205.015C253.728 205.991 251.627 206.811 250.182 207.386C249.46 207.673 248.902 207.899 248.526 208.053C248.338 208.13 248.195 208.189 248.1 208.228L247.994 208.272L247.96 208.286Z" fill="black"/>
</svg>
