<svg width="430" height="430" viewBox="0 0 430 430" fill="none" xmlns="http://www.w3.org/2000/svg">
<path d="M430 215C430 333.741 333.741 430 215 430C96.2588 430 0 333.741 0 215C0 96.2588 96.2588 0 215 0C333.741 0 430 96.2588 430 215Z" fill="#FFCF52"/>
<path fill-rule="evenodd" clip-rule="evenodd" d="M316.781 65.9261C317.608 66.1452 318.217 66.9408 318.142 67.7031L314.058 109.048C313.982 109.81 313.251 110.251 312.425 110.031C311.598 109.812 310.989 109.017 311.064 108.254L315.148 66.9097C315.224 66.1474 315.955 65.707 316.781 65.9261Z" fill="black"/>
<path fill-rule="evenodd" clip-rule="evenodd" d="M330.947 80.2218C331.76 80.5254 332.283 81.3655 332.115 82.0984L326.288 107.529C326.12 108.261 325.325 108.609 324.512 108.306C323.7 108.002 323.177 107.162 323.345 106.429L329.171 80.9991C329.339 80.2663 330.134 79.9183 330.947 80.2218Z" fill="black"/>
<path d="M166.37 378.846C244.999 407.097 338.347 354.166 374.869 260.621L90.1276 158.312C53.606 251.858 87.7407 350.594 166.37 378.846Z" fill="#00DF9C"/>
<path d="M192.128 312.878C113.498 284.626 68.2712 214.302 91.1096 155.804C113.948 97.3063 196.204 72.7872 274.833 101.039C353.462 129.291 398.689 199.615 375.851 258.113C353.012 316.61 270.757 341.13 192.128 312.878Z" fill="#F8F9FA"/>
<g filter="url(#filter0_f)">
<path d="M91.1087 155.805C68.2703 214.302 113.498 284.626 192.127 312.878C270.756 341.13 353.011 316.611 375.85 258.113L91.1087 155.805Z" fill="#C8FFDB"/>
</g>
<path fill-rule="evenodd" clip-rule="evenodd" d="M82.5275 214.582C96.1734 258.157 135.121 298.551 189.121 318.98C243.111 339.407 298.734 334.802 337.36 311.016C307.285 355.165 241.213 371.971 178.294 348.166C115.367 324.359 76.4779 267.833 82.5275 214.582Z" fill="url(#paint0_linear)"/>
<path d="M209.538 268.28C159.793 250.407 131.16 205.967 145.584 169.021C160.008 132.075 212.028 116.614 261.773 134.488C311.518 152.361 340.151 196.801 325.726 233.747C311.302 270.693 259.283 286.154 209.538 268.28Z" fill="#22ECB0"/>
<path d="M302.26 236.839C302.876 237.625 301.528 239.955 299.25 242.044C296.972 244.133 294.626 245.19 294.011 244.404C293.395 243.618 294.743 241.288 297.021 239.199C299.299 237.11 301.645 236.053 302.26 236.839Z" fill="#C3F7E7"/>
<path fill-rule="evenodd" clip-rule="evenodd" d="M301.551 237.341C301.552 237.341 301.552 237.344 301.552 237.349C301.551 237.344 301.551 237.341 301.551 237.341ZM301.534 237.505C301.327 237.518 301.007 237.601 300.581 237.793C299.738 238.173 298.658 238.899 297.569 239.898C296.48 240.897 295.641 241.93 295.156 242.768C294.911 243.191 294.783 243.519 294.737 243.738C294.944 243.725 295.264 243.642 295.69 243.45C296.533 243.07 297.613 242.344 298.702 241.345C299.791 240.346 300.63 239.313 301.115 238.474C301.36 238.052 301.488 237.724 301.534 237.505ZM294.585 243.73C294.585 243.73 294.588 243.73 294.592 243.732C294.587 243.731 294.585 243.73 294.585 243.73ZM294.72 243.902C294.719 243.902 294.719 243.899 294.719 243.894C294.72 243.899 294.72 243.901 294.72 243.902ZM301.679 237.511C301.684 237.512 301.686 237.513 301.686 237.513C301.686 237.513 301.683 237.513 301.679 237.511ZM299.25 242.044C301.528 239.955 302.876 237.625 302.26 236.839C301.645 236.053 299.299 237.11 297.021 239.199C294.743 241.288 293.395 243.618 294.011 244.404C294.626 245.19 296.972 244.133 299.25 242.044Z" fill="#4CFCC7"/>
<path d="M246.781 210.011C247.263 210.878 245.558 212.983 242.973 214.711C240.387 216.44 237.9 217.138 237.418 216.271C236.936 215.404 238.641 213.3 241.226 211.571C243.812 209.843 246.299 209.144 246.781 210.011Z" fill="#C3F7E7"/>
<path fill-rule="evenodd" clip-rule="evenodd" d="M246 210.403C246 210.403 246.001 210.406 246 210.411C246 210.406 246 210.404 246 210.403ZM245.956 210.563C245.75 210.545 245.421 210.58 244.97 210.706C244.075 210.958 242.892 211.516 241.656 212.343C240.419 213.17 239.425 214.067 238.811 214.824C238.502 215.205 238.323 215.51 238.243 215.72C238.449 215.737 238.779 215.703 239.23 215.576C240.125 215.325 241.307 214.766 242.544 213.94C243.78 213.113 244.775 212.216 245.388 211.459C245.697 211.077 245.876 210.772 245.956 210.563ZM238.094 215.69C238.094 215.689 238.096 215.69 238.1 215.693C238.095 215.691 238.093 215.69 238.094 215.69ZM238.199 215.879C238.199 215.879 238.199 215.877 238.199 215.872C238.199 215.876 238.199 215.879 238.199 215.879ZM246.099 210.59C246.104 210.592 246.106 210.593 246.106 210.593C246.105 210.593 246.103 210.592 246.099 210.59ZM242.973 214.711C245.558 212.983 247.263 210.878 246.781 210.011C246.299 209.144 243.812 209.843 241.226 211.571C238.641 213.3 236.936 215.404 237.418 216.271C237.9 217.138 240.387 216.44 242.973 214.711Z" fill="#4CFCC7"/>
<path d="M218.28 250.45C218.888 251.241 217.927 253.193 216.133 254.81C214.339 256.427 212.392 257.098 211.783 256.307C211.175 255.516 212.136 253.564 213.93 251.946C215.724 250.329 217.671 249.659 218.28 250.45Z" fill="#C3F7E7"/>
<path fill-rule="evenodd" clip-rule="evenodd" d="M217.599 251.02C217.599 251.02 217.6 251.021 217.6 251.025C217.599 251.022 217.599 251.02 217.599 251.02ZM217.605 251.058C217.585 251.053 217.557 251.048 217.516 251.044C217.365 251.033 217.123 251.062 216.794 251.175C216.139 251.4 215.303 251.901 214.471 252.65C213.64 253.4 213.034 254.2 212.711 254.856C212.548 255.186 212.478 255.438 212.462 255.601C212.457 255.645 212.457 255.677 212.458 255.698C212.478 255.703 212.506 255.709 212.547 255.712C212.698 255.724 212.94 255.695 213.269 255.582C213.924 255.356 214.76 254.856 215.592 254.106C216.423 253.357 217.029 252.557 217.352 251.9C217.515 251.57 217.585 251.319 217.601 251.156C217.606 251.111 217.606 251.08 217.605 251.058ZM212.424 255.685C212.424 255.685 212.426 255.686 212.428 255.688C212.425 255.686 212.424 255.685 212.424 255.685ZM212.464 255.737C212.464 255.737 212.463 255.735 212.462 255.732C212.464 255.735 212.464 255.737 212.464 255.737ZM217.635 251.069C217.638 251.071 217.639 251.071 217.639 251.072C217.639 251.072 217.637 251.071 217.635 251.069ZM216.133 254.81C217.927 253.193 218.888 251.241 218.28 250.45C217.671 249.659 215.724 250.329 213.93 251.946C212.136 253.564 211.175 255.516 211.783 256.307C212.392 257.098 214.339 256.427 216.133 254.81Z" fill="#4CFCC7"/>
<path d="M280.039 228.53C280.2 229.5 277.872 230.956 274.841 231.781C271.809 232.607 269.22 232.489 269.059 231.518C268.898 230.548 271.225 229.092 274.257 228.267C277.289 227.441 279.877 227.559 280.039 228.53Z" fill="#C3F7E7"/>
<path fill-rule="evenodd" clip-rule="evenodd" d="M279.167 228.656C279.167 228.656 279.166 228.658 279.164 228.663C279.166 228.659 279.167 228.656 279.167 228.656ZM279.071 228.793C278.882 228.712 278.559 228.642 278.09 228.62C277.158 228.578 275.85 228.736 274.401 229.13C272.951 229.525 271.706 230.062 270.868 230.586C270.446 230.85 270.174 231.082 270.026 231.255C270.216 231.336 270.539 231.406 271.008 231.428C271.939 231.47 273.248 231.312 274.697 230.917C276.147 230.523 277.392 229.986 278.229 229.462C278.652 229.198 278.924 228.966 279.071 228.793ZM269.896 231.18C269.896 231.18 269.898 231.181 269.9 231.185C269.897 231.181 269.895 231.18 269.896 231.18ZM269.931 231.392C269.931 231.392 269.931 231.39 269.934 231.385C269.932 231.389 269.931 231.392 269.931 231.392ZM279.197 228.863C279.201 228.866 279.202 228.868 279.202 228.868C279.202 228.868 279.2 228.867 279.197 228.863ZM274.841 231.781C277.872 230.956 280.2 229.5 280.039 228.53C279.877 227.559 277.289 227.441 274.257 228.267C271.225 229.092 268.898 230.548 269.059 231.518C269.22 232.489 271.809 232.607 274.841 231.781Z" fill="#4CFCC7"/>
<path d="M301.801 202.037C302.471 202.781 301.292 205.194 299.168 207.428C297.044 209.661 294.779 210.869 294.109 210.126C293.44 209.382 294.618 206.969 296.742 204.735C298.866 202.501 301.131 201.293 301.801 202.037Z" fill="#C3F7E7"/>
<path fill-rule="evenodd" clip-rule="evenodd" d="M301.129 202.585C301.13 202.585 301.13 202.587 301.131 202.592C301.13 202.588 301.129 202.585 301.129 202.585ZM301.123 202.75C300.918 202.776 300.605 202.88 300.194 203.099C299.379 203.533 298.354 204.329 297.338 205.397C296.323 206.465 295.559 207.55 295.135 208.419C294.921 208.857 294.817 209.192 294.787 209.413C294.992 209.386 295.306 209.283 295.716 209.064C296.531 208.629 297.556 207.834 298.572 206.766C299.587 205.698 300.351 204.612 300.775 203.744C300.989 203.306 301.093 202.971 301.123 202.75ZM294.634 209.415C294.635 209.415 294.637 209.416 294.641 209.417C294.636 209.416 294.634 209.415 294.634 209.415ZM294.781 209.578C294.781 209.578 294.78 209.576 294.779 209.57C294.781 209.575 294.781 209.578 294.781 209.578ZM301.269 202.746C301.274 202.747 301.276 202.747 301.276 202.747C301.276 202.748 301.273 202.747 301.269 202.746ZM299.168 207.428C301.292 205.194 302.471 202.781 301.801 202.037C301.131 201.293 298.866 202.501 296.742 204.735C294.618 206.969 293.44 209.382 294.109 210.126C294.779 210.869 297.044 209.661 299.168 207.428Z" fill="#4CFCC7"/>
<path d="M285.998 182.097C286.62 182.786 286.141 184.378 284.93 185.652C283.719 186.926 282.233 187.4 281.611 186.71C280.99 186.02 281.468 184.428 282.68 183.154C283.891 181.88 285.377 181.407 285.998 182.097Z" fill="#C3F7E7"/>
<path fill-rule="evenodd" clip-rule="evenodd" d="M285.386 182.746C285.385 182.744 285.384 182.743 285.384 182.743C285.383 182.742 285.382 182.741 285.381 182.74C285.379 182.739 285.376 182.737 285.369 182.733C285.356 182.727 285.328 182.716 285.28 182.71C285.181 182.697 285.02 182.706 284.8 182.776C284.358 182.917 283.802 183.263 283.276 183.816C282.75 184.369 282.415 184.961 282.273 185.434C282.202 185.67 282.189 185.843 282.198 185.951C282.203 186.003 282.212 186.033 282.218 186.047C282.22 186.055 282.223 186.059 282.224 186.06C282.225 186.062 282.225 186.063 282.226 186.064C282.227 186.064 282.227 186.065 282.229 186.066C282.23 186.067 282.234 186.07 282.241 186.073C282.254 186.08 282.281 186.09 282.329 186.097C282.429 186.11 282.59 186.1 282.81 186.03C283.251 185.889 283.808 185.543 284.334 184.99C284.86 184.437 285.195 183.845 285.337 183.372C285.408 183.136 285.421 182.963 285.411 182.855C285.407 182.803 285.398 182.773 285.392 182.759C285.389 182.752 285.387 182.748 285.386 182.746ZM284.93 185.652C286.141 184.378 286.62 182.786 285.998 182.097C285.377 181.407 283.891 181.88 282.68 183.154C281.468 184.428 280.99 186.02 281.611 186.71C282.233 187.4 283.719 186.926 284.93 185.652Z" fill="#4CFCC7"/>
<path d="M322.195 205.908C322.817 206.598 322.339 208.19 321.127 209.464C319.916 210.737 318.43 211.211 317.809 210.521C317.187 209.832 317.666 208.24 318.877 206.966C320.088 205.692 321.574 205.218 322.195 205.908Z" fill="#C3F7E7"/>
<path fill-rule="evenodd" clip-rule="evenodd" d="M321.583 206.557C321.582 206.556 321.581 206.555 321.581 206.554C321.58 206.554 321.58 206.553 321.578 206.552C321.576 206.551 321.573 206.548 321.566 206.545C321.553 206.538 321.525 206.528 321.478 206.521C321.378 206.508 321.217 206.518 320.997 206.588C320.556 206.729 319.999 207.074 319.473 207.628C318.947 208.181 318.612 208.772 318.47 209.246C318.399 209.481 318.386 209.655 318.396 209.763C318.4 209.814 318.409 209.845 318.415 209.859C318.418 209.866 318.42 209.87 318.421 209.872C318.422 209.874 318.423 209.874 318.423 209.875C318.424 209.876 318.425 209.876 318.426 209.878C318.428 209.879 318.431 209.881 318.438 209.885C318.451 209.891 318.479 209.902 318.526 209.908C318.626 209.921 318.787 209.912 319.007 209.842C319.449 209.701 320.005 209.355 320.531 208.802C321.057 208.249 321.392 207.657 321.534 207.184C321.605 206.948 321.618 206.775 321.609 206.667C321.604 206.615 321.595 206.585 321.589 206.57C321.586 206.563 321.584 206.559 321.583 206.557ZM321.127 209.464C322.339 208.19 322.817 206.598 322.195 205.908C321.574 205.218 320.088 205.692 318.877 206.966C317.666 208.24 317.187 209.832 317.809 210.521C318.43 211.211 319.916 210.737 321.127 209.464Z" fill="#4CFCC7"/>
<path d="M159.824 205.908C160.446 206.598 159.967 208.19 158.756 209.464C157.545 210.737 156.059 211.211 155.438 210.521C154.816 209.832 155.294 208.24 156.506 206.966C157.717 205.692 159.203 205.218 159.824 205.908Z" fill="#C3F7E7"/>
<path fill-rule="evenodd" clip-rule="evenodd" d="M159.212 206.557C159.211 206.556 159.21 206.555 159.21 206.554C159.209 206.554 159.209 206.553 159.207 206.552C159.205 206.551 159.202 206.548 159.195 206.545C159.182 206.538 159.154 206.528 159.107 206.521C159.007 206.508 158.846 206.518 158.626 206.588C158.185 206.729 157.628 207.074 157.102 207.628C156.576 208.181 156.241 208.772 156.099 209.246C156.028 209.481 156.015 209.655 156.024 209.763C156.029 209.814 156.038 209.845 156.044 209.859C156.047 209.866 156.049 209.87 156.05 209.872C156.051 209.874 156.052 209.874 156.052 209.875C156.053 209.876 156.053 209.876 156.055 209.878C156.057 209.879 156.06 209.881 156.067 209.885C156.08 209.891 156.108 209.902 156.155 209.908C156.255 209.921 156.416 209.912 156.636 209.842C157.077 209.701 157.634 209.355 158.16 208.802C158.686 208.249 159.021 207.657 159.163 207.184C159.234 206.948 159.247 206.775 159.238 206.667C159.233 206.615 159.224 206.585 159.218 206.57C159.215 206.563 159.213 206.559 159.212 206.557ZM158.756 209.464C159.967 208.19 160.446 206.598 159.824 205.908C159.203 205.218 157.717 205.692 156.506 206.966C155.294 208.24 154.816 209.832 155.438 210.521C156.059 211.211 157.545 210.737 158.756 209.464Z" fill="#4CFCC7"/>
<path d="M164.67 176.811C163.848 176.225 161.426 177.533 159.263 179.731C157.099 181.929 156.012 184.185 156.834 184.771C157.657 185.356 160.078 184.049 162.242 181.851C164.406 179.653 165.493 177.397 164.67 176.811Z" fill="#C3F7E7"/>
<path fill-rule="evenodd" clip-rule="evenodd" d="M164.151 177.494C164.151 177.494 164.148 177.493 164.143 177.493C164.148 177.494 164.151 177.494 164.151 177.494ZM163.98 177.512C163.968 177.711 163.883 178.018 163.686 178.427C163.295 179.239 162.544 180.279 161.51 181.33C160.475 182.381 159.404 183.192 158.532 183.663C158.093 183.9 157.752 184.024 157.525 184.07C157.537 183.871 157.621 183.564 157.819 183.154C158.21 182.343 158.96 181.303 159.995 180.252C161.03 179.201 162.101 178.39 162.972 177.919C163.412 177.682 163.752 177.558 163.98 177.512ZM157.534 184.216C157.534 184.216 157.533 184.213 157.531 184.209C157.533 184.214 157.534 184.216 157.534 184.216ZM157.354 184.088C157.354 184.088 157.356 184.088 157.362 184.089C157.357 184.088 157.354 184.088 157.354 184.088ZM163.973 177.372C163.972 177.368 163.971 177.366 163.971 177.366C163.971 177.366 163.971 177.368 163.973 177.372ZM159.263 179.731C161.426 177.533 163.848 176.225 164.67 176.811C165.493 177.397 164.406 179.653 162.242 181.851C160.078 184.049 157.657 185.356 156.834 184.771C156.012 184.185 157.099 181.929 159.263 179.731Z" fill="#4CFCC7"/>
<path d="M189.763 144.207C188.941 143.621 187.385 144.049 186.289 145.163C185.192 146.277 184.971 147.654 185.793 148.24C186.616 148.825 188.172 148.397 189.268 147.283C190.365 146.17 190.586 144.792 189.763 144.207Z" fill="#C3F7E7"/>
<path fill-rule="evenodd" clip-rule="evenodd" d="M188.407 144.83C188.846 144.709 189.06 144.788 189.137 144.843C189.214 144.898 189.344 145.063 189.281 145.452C189.22 145.83 188.982 146.309 188.536 146.762C188.089 147.216 187.577 147.499 187.15 147.617C186.711 147.737 186.497 147.658 186.42 147.604C186.342 147.549 186.213 147.383 186.276 146.994C186.337 146.616 186.575 146.138 187.021 145.684C187.467 145.231 187.98 144.947 188.407 144.83ZM186.289 145.163C187.385 144.049 188.941 143.621 189.763 144.207C190.586 144.792 190.365 146.17 189.268 147.283C188.172 148.397 186.616 148.825 185.793 148.24C184.971 147.654 185.192 146.277 186.289 145.163Z" fill="#4CFCC7"/>
<path d="M231.905 143.214C231.082 142.629 229.122 143.468 227.526 145.089C225.931 146.709 225.305 148.498 226.127 149.083C226.95 149.669 228.911 148.83 230.506 147.209C232.101 145.588 232.728 143.8 231.905 143.214Z" fill="#C3F7E7"/>
<path fill-rule="evenodd" clip-rule="evenodd" d="M231.296 143.86C231.296 143.86 231.295 143.859 231.291 143.858C231.294 143.859 231.296 143.86 231.296 143.86ZM231.275 143.854C231.283 143.871 231.293 143.903 231.299 143.956C231.315 144.091 231.293 144.307 231.19 144.603C230.983 145.192 230.505 145.945 229.774 146.688C229.042 147.431 228.255 147.964 227.609 148.24C227.285 148.379 227.039 148.435 226.879 148.446C226.817 148.45 226.778 148.447 226.757 148.443C226.75 148.426 226.74 148.395 226.733 148.342C226.718 148.206 226.739 147.99 226.843 147.694C227.049 147.105 227.527 146.353 228.259 145.61C228.99 144.867 229.777 144.334 230.423 144.058C230.747 143.919 230.994 143.863 231.153 143.852C231.216 143.848 231.254 143.851 231.275 143.854ZM226.767 148.46C226.767 148.46 226.767 148.459 226.764 148.456C226.766 148.459 226.767 148.46 226.767 148.46ZM226.736 148.438C226.736 148.438 226.738 148.439 226.741 148.44C226.738 148.438 226.737 148.438 226.736 148.438ZM231.268 143.841C231.266 143.839 231.265 143.838 231.265 143.838C231.265 143.838 231.266 143.839 231.268 143.841ZM227.526 145.089C229.122 143.468 231.082 142.629 231.905 143.214C232.728 143.8 232.101 145.588 230.506 147.209C228.911 148.83 226.95 149.669 226.127 149.083C225.305 148.498 225.931 146.709 227.526 145.089Z" fill="#4CFCC7"/>
<path d="M176.059 220.602C175.236 220.016 173.276 220.856 171.681 222.476C170.085 224.097 169.459 225.885 170.282 226.471C171.104 227.057 173.065 226.217 174.66 224.597C176.256 222.976 176.882 221.188 176.059 220.602Z" fill="#C3F7E7"/>
<path fill-rule="evenodd" clip-rule="evenodd" d="M175.45 221.247C175.45 221.247 175.449 221.247 175.446 221.246C175.448 221.247 175.45 221.247 175.45 221.247ZM175.429 221.242C175.437 221.259 175.447 221.29 175.453 221.343C175.469 221.479 175.447 221.695 175.344 221.991C175.138 222.58 174.66 223.332 173.928 224.076C173.196 224.819 172.409 225.351 171.764 225.628C171.44 225.766 171.193 225.823 171.033 225.833C170.971 225.837 170.933 225.834 170.912 225.831C170.904 225.814 170.894 225.783 170.888 225.73C170.872 225.594 170.893 225.378 170.997 225.082C171.203 224.493 171.681 223.741 172.413 222.997C173.145 222.254 173.932 221.722 174.577 221.445C174.901 221.307 175.148 221.25 175.308 221.24C175.37 221.236 175.408 221.239 175.429 221.242ZM170.922 225.848C170.922 225.848 170.921 225.846 170.919 225.844C170.92 225.847 170.921 225.848 170.922 225.848ZM170.891 225.826C170.891 225.826 170.892 225.826 170.895 225.827C170.892 225.826 170.891 225.826 170.891 225.826ZM175.422 221.229C175.421 221.226 175.42 221.225 175.419 221.225C175.419 221.225 175.42 221.227 175.422 221.229ZM171.681 222.476C173.276 220.856 175.236 220.016 176.059 220.602C176.882 221.188 176.256 222.976 174.66 224.597C173.065 226.217 171.104 227.057 170.282 226.471C169.459 225.885 170.085 224.097 171.681 222.476Z" fill="#4CFCC7"/>
<path d="M283.616 155.121C282.793 154.535 280.833 155.374 279.237 156.995C277.642 158.615 277.016 160.404 277.838 160.99C278.661 161.575 280.621 160.736 282.217 159.115C283.812 157.495 284.439 155.706 283.616 155.121Z" fill="#C3F7E7"/>
<path fill-rule="evenodd" clip-rule="evenodd" d="M283.007 155.766C283.007 155.766 283.006 155.765 283.002 155.764C283.005 155.766 283.007 155.766 283.007 155.766ZM282.986 155.761C282.994 155.777 283.004 155.809 283.01 155.862C283.026 155.998 283.004 156.214 282.901 156.509C282.694 157.099 282.216 157.851 281.485 158.594C280.753 159.337 279.966 159.87 279.32 160.146C278.996 160.285 278.75 160.341 278.59 160.352C278.527 160.356 278.489 160.353 278.468 160.35C278.461 160.333 278.45 160.301 278.444 160.248C278.428 160.113 278.45 159.896 278.554 159.601C278.76 159.012 279.238 158.259 279.97 157.516C280.701 156.773 281.488 156.24 282.134 155.964C282.458 155.825 282.705 155.769 282.864 155.758C282.927 155.754 282.965 155.757 282.986 155.761ZM278.478 160.366C278.478 160.366 278.477 160.365 278.475 160.363C278.477 160.365 278.478 160.366 278.478 160.366ZM278.447 160.344C278.447 160.344 278.449 160.345 278.452 160.346C278.449 160.345 278.447 160.344 278.447 160.344ZM282.979 155.748C282.977 155.745 282.976 155.744 282.976 155.744C282.976 155.744 282.977 155.745 282.979 155.748ZM279.237 156.995C280.833 155.374 282.793 154.535 283.616 155.121C284.439 155.706 283.812 157.495 282.217 159.115C280.621 160.736 278.661 161.575 277.838 160.99C277.016 160.404 277.642 158.615 279.237 156.995Z" fill="#4CFCC7"/>
<path fill-rule="evenodd" clip-rule="evenodd" d="M264.909 115.622C241.876 108.282 219.862 106.381 206.791 106.86C204.584 106.941 202.726 105.29 202.642 103.172C202.557 101.055 204.278 99.2722 206.486 99.1912C220.478 98.6783 243.452 100.697 267.431 108.338C291.421 115.983 316.718 129.354 334.932 151.762C336.291 153.433 335.98 155.844 334.238 157.147C332.496 158.451 329.982 158.152 328.624 156.481C311.675 135.631 287.933 122.958 264.909 115.622Z" fill="white"/>
<path d="M116.034 268.678C131.594 266.645 139.779 260.469 145.25 256.884C149.054 266.534 136.868 301.728 118.743 316.522C100.619 331.316 65.8536 338.435 47.7033 310.991C32.1485 287.471 55.4511 267.737 73.5912 267.515C98.4402 267.212 105.384 270.069 116.034 268.678Z" fill="#4CFCC7"/>
<path fill-rule="evenodd" clip-rule="evenodd" d="M107.455 307.021C106.058 306.167 104.204 306.562 103.314 307.903C101.441 310.723 96.2403 314.657 89.4759 315.845C82.9626 316.989 74.9006 315.598 66.9943 307.697C65.8468 306.551 63.9477 306.513 62.7525 307.614C61.5573 308.715 61.5186 310.537 62.6661 311.683C71.9525 320.963 82.0399 323.003 90.5565 321.507C98.822 320.055 105.532 315.277 108.374 310.995C109.264 309.654 108.853 307.875 107.455 307.021Z" fill="white"/>
<path d="M213.324 194.047C206.111 195.296 198.533 187.505 196.399 176.645C194.264 165.785 198.381 155.968 205.594 154.718C212.807 153.469 220.385 161.26 222.519 172.12C224.653 182.98 220.536 192.797 213.324 194.047Z" fill="white"/>
<path d="M201.4 156.649C206.295 158.709 212.018 164.989 213.674 173.429C215.33 181.869 212.796 190.205 209.005 193.772C203.365 192.558 197.959 184.883 196.303 176.443C194.647 168.003 196.162 160.467 201.4 156.649Z" fill="#231F20"/>
<path d="M257.08 196.209C249.867 197.459 242.289 189.667 240.155 178.807C238.02 167.946 242.137 158.129 249.35 156.88C256.563 155.63 264.141 163.421 266.275 174.282C268.409 185.143 264.293 194.96 257.08 196.209Z" fill="white"/>
<path d="M245.164 158.81C250.059 160.87 255.782 167.15 257.438 175.59C259.094 184.03 256.559 192.366 252.769 195.933C247.128 194.719 241.723 187.044 240.067 178.604C238.411 170.164 239.926 162.628 245.164 158.81Z" fill="#231F20"/>
<path d="M258.618 234.543C259.657 233.885 269.266 245.507 269.98 246.53C275.304 252.012 281.342 258.518 287.64 258.953C290.432 258.659 292.185 259.024 294.262 257.707C312.312 249.215 294.457 223.63 287.315 213.395C287.315 213.395 283.744 208.278 284.459 209.302C286.212 209.667 259.657 233.885 258.618 234.543Z" fill="#FF845D"/>
<path fill-rule="evenodd" clip-rule="evenodd" d="M269.616 222.813C270.864 221.829 272.731 222.035 273.786 223.273L271.527 225.055L269.268 226.836C268.212 225.598 268.369 223.797 269.616 222.813ZM271.527 225.055C269.268 226.836 269.268 226.836 269.268 226.836L269.965 227.656C270.41 228.178 271.046 228.925 271.812 229.825C273.343 231.624 275.391 234.034 277.462 236.475C279.533 238.917 281.623 241.387 283.239 243.31C284.047 244.271 284.733 245.091 285.237 245.7C285.732 246.298 285.962 246.587 286.008 246.644C286.014 246.652 286.017 246.656 286.017 246.655C286.943 247.985 288.785 248.369 290.131 247.513C291.478 246.657 291.819 244.885 290.893 243.555C290.614 243.154 289.325 241.61 287.784 239.777C286.159 237.844 284.062 235.366 281.99 232.922C279.916 230.478 277.866 228.066 276.333 226.265C275.567 225.364 274.931 224.616 274.485 224.093L273.787 223.274C273.787 223.274 273.786 223.273 271.527 225.055Z" fill="#231F20"/>
<path fill-rule="evenodd" clip-rule="evenodd" d="M207.928 204.803C209.472 204.269 211.198 205.073 211.783 206.6C214.707 214.239 224.371 230.783 245.677 232.644C255.834 233.531 264.806 227.927 272.019 219.901C279.197 211.915 284.156 202.03 286.253 195.657C286.756 194.129 288.439 193.321 290.011 193.852C291.584 194.384 292.452 196.053 291.949 197.581C289.639 204.6 284.316 215.193 276.551 223.834C268.821 232.435 258.189 239.605 245.295 238.479C220.496 236.312 209.441 217.025 206.19 208.536C205.606 207.009 206.384 205.338 207.928 204.803Z" fill="black"/>
<path fill-rule="evenodd" clip-rule="evenodd" d="M234.614 320.508C235.665 320.834 236.243 321.915 235.903 322.923C234.067 328.382 230.41 337.312 225.374 346.485C220.35 355.632 213.872 365.174 206.343 371.722C205.525 372.434 204.26 372.374 203.518 371.589C202.776 370.804 202.838 369.591 203.657 368.879C210.677 362.773 216.897 353.689 221.835 344.696C226.76 335.728 230.328 327.002 232.097 321.745C232.436 320.737 233.563 320.183 234.614 320.508Z" fill="#2EFFC1"/>
<path fill-rule="evenodd" clip-rule="evenodd" d="M151.397 290.099C150.321 289.862 149.248 290.508 149.001 291.541C147.694 297.016 146.209 306.393 145.951 316.879C145.694 327.349 146.656 339.071 150.347 349.157C150.713 350.157 151.855 350.683 152.897 350.332C153.939 349.981 154.487 348.885 154.122 347.886C150.655 338.414 149.698 327.211 149.95 316.969C150.201 306.744 151.653 297.623 152.9 292.397C153.147 291.364 152.474 290.335 151.397 290.099Z" fill="#2EFFC1"/>
<defs>
<filter id="filter0_f" x="54.1855" y="124.805" width="352.663" height="230.807" filterUnits="userSpaceOnUse" color-interpolation-filters="sRGB">
<feFlood flood-opacity="0" result="BackgroundImageFix"/>
<feBlend mode="normal" in="SourceGraphic" in2="BackgroundImageFix" result="shape"/>
<feGaussianBlur stdDeviation="15.5" result="effect1_foregroundBlur"/>
</filter>
<linearGradient id="paint0_linear" x1="214.806" y1="256.749" x2="146.497" y2="390.364" gradientUnits="userSpaceOnUse">
<stop stop-color="#00C288"/>
<stop offset="1" stop-color="#00DA98" stop-opacity="0"/>
</linearGradient>
</defs>
</svg>
