<svg width="430" height="430" viewBox="0 0 430 430" fill="none" xmlns="http://www.w3.org/2000/svg">
<path d="M430 215C430 333.741 333.741 430 215 430C96.2588 430 0 333.741 0 215C0 96.2588 96.2588 0 215 0C333.741 0 430 96.2588 430 215Z" fill="#449AFF"/>
<mask id="mask0" mask-type="alpha" maskUnits="userSpaceOnUse" x="0" y="0" width="430" height="430">
<path d="M430 215C430 333.741 333.741 430 215 430C96.2588 430 0 333.741 0 215C0 96.2588 96.2588 0 215 0C333.741 0 430 96.2588 430 215Z" fill="#449AFF"/>
</mask>
<g mask="url(#mask0)">
<path d="M343.841 164.19C302.809 108.341 223.026 96.9436 168.317 139.115C139.823 160.77 120.447 194.963 118.167 231.436C117.028 249.672 119.307 267.908 126.146 283.865C129.565 291.843 132.984 300.962 138.683 307.8C143.242 314.639 150.081 319.198 153.5 327.176C156.919 334.015 154.64 343.133 150.081 348.832C143.242 356.81 93.0925 351.111 87.3937 361.369C82.8346 369.348 119.307 371.627 122.726 371.627C147.801 372.767 172.876 370.487 197.951 368.208C201.37 368.208 241.262 364.788 241.262 364.788C268.616 364.788 294.831 356.81 318.766 339.714C374.615 298.682 386.012 220.038 343.841 164.19Z" fill="#23F5BB"/>
<path d="M509.104 -55.7874L231.001 104.92C225.302 108.339 224.162 116.317 228.721 120.876L360.934 253.089C365.493 257.648 373.472 256.508 376.891 250.81L522.781 -42.1102C527.34 -51.2283 517.082 -60.3464 509.104 -55.7874Z" fill="#FFF36C"/>
<g filter="url(#filter0_f)">
<path d="M485.686 -22.8988L348.022 171.76C348.022 171.76 342.736 180.541 346.26 184.053L371.147 215.062C374.671 218.574 380.838 217.696 383.482 213.305L496.259 -12.3618C499.783 -19.3864 491.853 -26.4111 485.686 -22.8988Z" fill="#FFE600"/>
</g>
<path d="M229.867 259.934C235.533 259.934 240.125 252.79 240.125 243.977C240.125 235.165 235.533 228.021 229.867 228.021C224.202 228.021 219.609 235.165 219.609 243.977C219.609 252.79 224.202 259.934 229.867 259.934Z" fill="white"/>
<path d="M233.839 229.001C230.419 231.281 227 236.979 227 243.818C227 250.657 230.419 256.355 233.839 258.635C237.258 256.355 240.677 250.657 240.677 243.818C240.677 236.979 237.258 231.281 233.839 229.001Z" fill="#231F20"/>
<path d="M196.807 259.935C202.472 259.935 207.065 252.791 207.065 243.978C207.065 235.166 202.472 228.021 196.807 228.021C191.141 228.021 186.549 235.166 186.549 243.978C186.549 252.791 191.141 259.935 196.807 259.935Z" fill="white"/>
<path d="M200.839 229.001C197.419 231.281 194 236.979 194 243.818C194 250.657 197.419 256.355 200.839 258.635C204.258 256.355 207.677 250.657 207.677 243.818C207.677 236.979 204.258 231.281 200.839 229.001Z" fill="#231F20"/>
<path fill-rule="evenodd" clip-rule="evenodd" d="M176.303 229.156C176.303 227.898 177.323 226.877 178.582 226.877H199.098C200.357 226.877 201.378 227.898 201.378 229.156C201.378 230.415 200.357 231.436 199.098 231.436H178.582C177.323 231.436 176.303 230.415 176.303 229.156Z" fill="#231F20"/>
<path fill-rule="evenodd" clip-rule="evenodd" d="M209.34 229.156C209.34 227.898 210.36 226.877 211.619 226.877H232.135C233.394 226.877 234.415 227.898 234.415 229.156C234.415 230.415 233.394 231.436 232.135 231.436H211.619C210.36 231.436 209.34 230.415 209.34 229.156Z" fill="#231F20"/>
<path fill-rule="evenodd" clip-rule="evenodd" d="M173 276.5C173 275.119 174.037 274 175.316 274H236.684C237.963 274 239 275.119 239 276.5C239 277.881 237.963 279 236.684 279H175.316C174.037 279 173 277.881 173 276.5Z" fill="black"/>
<path fill-rule="evenodd" clip-rule="evenodd" d="M244.611 268.784C244.611 268.784 244.611 268.784 244.611 268.784L244.612 268.784C244.611 268.784 244.611 268.784 244.611 268.784ZM244.614 268.783C244.613 268.783 244.613 268.783 244.613 268.783L244.614 268.782C244.614 268.782 244.614 268.782 244.614 268.782C244.614 268.782 244.614 268.782 244.614 268.782C244.614 268.782 244.614 268.782 244.614 268.783C244.614 268.783 244.614 268.783 244.614 268.783Z" fill="black"/>
<path d="M224.155 101.497L379.163 256.505C380.303 257.645 380.303 258.785 379.163 259.925L371.185 267.903C370.045 269.043 368.905 269.043 367.765 267.903L212.757 112.895C211.617 111.755 211.617 110.616 212.757 109.476L220.736 101.497C221.875 100.358 223.015 100.358 224.155 101.497Z" fill="#FFE600"/>
<path d="M193.39 169.885C193.39 169.885 192.25 171.025 192.25 172.164C192.25 174.444 192.25 175.584 194.53 176.723C195.669 177.863 200.228 181.282 200.228 177.863C200.228 175.584 197.949 173.304 195.669 172.164C194.53 169.885 193.39 169.885 193.39 169.885Z" fill="#0EE5A3"/>
<path d="M262.906 218.892V220.032C262.906 221.172 264.046 221.172 266.326 221.172C267.465 221.172 272.024 220.032 270.885 217.753C269.745 216.613 267.465 217.753 265.186 217.753C264.046 218.892 262.906 218.892 262.906 218.892Z" fill="#0EE5A3"/>
<path d="M281.158 258.782V259.922C281.158 261.062 282.298 261.062 284.578 261.062C285.717 261.062 290.276 259.922 289.137 257.642C287.997 256.503 285.717 257.642 283.438 257.642C282.298 257.642 282.298 257.642 281.158 258.782Z" fill="#0EE5A3"/>
<path d="M146.656 259.93V261.069C146.656 262.209 147.796 262.209 150.076 262.209C151.215 262.209 155.774 261.069 154.635 258.79C153.495 257.65 151.215 258.79 148.936 258.79C147.796 259.93 146.656 259.93 146.656 259.93Z" fill="#0EE5A3"/>
<path d="M244.674 316.918V318.058C244.674 319.197 245.814 319.197 248.093 319.197C249.233 319.197 253.792 318.058 252.652 315.778C251.512 314.638 249.233 315.778 246.953 315.778C245.814 316.918 245.814 316.918 244.674 316.918Z" fill="#0EE5A3"/>
<path d="M270.9 286.141V287.281C270.9 288.421 272.04 288.421 274.32 288.421C275.459 288.421 280.019 287.281 278.879 285.002C277.739 283.862 275.459 285.002 273.18 285.002C272.04 286.141 270.9 286.141 270.9 286.141Z" fill="#0EE5A3"/>
<path d="M240.111 180.146V181.286C240.111 182.426 241.251 182.426 243.531 182.426C244.67 182.426 249.229 181.286 248.09 179.007C246.95 177.867 244.67 179.007 242.391 179.007C241.251 179.007 240.111 179.007 240.111 180.146Z" fill="#0EE5A3"/>
<path d="M172.885 199.524V200.664C172.885 201.804 174.025 201.804 176.304 201.804C177.444 201.804 182.003 200.664 180.863 198.384C179.723 197.245 177.444 198.384 175.164 198.384C174.025 198.384 172.885 199.524 172.885 199.524Z" fill="#0EE5A3"/>
<path d="M145.523 189.262V190.401C145.523 191.541 146.663 191.541 148.943 191.541C150.082 191.541 154.642 190.401 153.502 188.122C152.362 186.982 150.082 188.122 147.803 188.122C146.663 189.262 146.663 189.262 145.523 189.262Z" fill="#0EE5A3"/>
<path d="M294.82 315.776C296.708 315.776 298.239 314.245 298.239 312.357C298.239 310.468 296.708 308.938 294.82 308.938C292.931 308.938 291.4 310.468 291.4 312.357C291.4 314.245 292.931 315.776 294.82 315.776Z" fill="#0EE5A3"/>
<path d="M171.738 305.514C173.626 305.514 175.157 303.983 175.157 302.095C175.157 300.207 173.626 298.676 171.738 298.676C169.849 298.676 168.318 300.207 168.318 302.095C168.318 303.983 169.849 305.514 171.738 305.514Z" fill="#0EE5A3"/>
<path d="M203.638 328.309C205.526 328.309 207.057 326.778 207.057 324.89C207.057 323.002 205.526 321.471 203.638 321.471C201.75 321.471 200.219 323.002 200.219 324.89C200.219 326.778 201.75 328.309 203.638 328.309Z" fill="#0EE5A3"/>
<path d="M192.24 359.087C194.128 359.087 195.659 357.556 195.659 355.667C195.659 353.779 194.128 352.248 192.24 352.248C190.351 352.248 188.82 353.779 188.82 355.667C188.82 357.556 190.351 359.087 192.24 359.087Z" fill="#0EE5A3"/>
<path d="M330.169 263.351C332.058 263.351 333.589 261.82 333.589 259.932C333.589 258.044 332.058 256.513 330.169 256.513C328.281 256.513 326.75 258.044 326.75 259.932C326.75 261.82 328.281 263.351 330.169 263.351Z" fill="#0EE5A3"/>
<path d="M217.322 152.795C218.581 152.795 219.602 151.775 219.602 150.516C219.602 149.257 218.581 148.236 217.322 148.236C216.064 148.236 215.043 149.257 215.043 150.516C215.043 151.775 216.064 152.795 217.322 152.795Z" fill="#0EE5A3"/>
<path fill-rule="evenodd" clip-rule="evenodd" d="M164.894 168.446C164.894 168.446 164.894 168.446 164.894 168.446L164.892 168.447L164.886 168.45L164.846 168.473C164.809 168.495 164.75 168.531 164.67 168.579C164.511 168.675 164.271 168.822 163.961 169.02C163.342 169.416 162.446 170.013 161.366 170.802C159.202 172.381 156.319 174.716 153.443 177.729C147.658 183.79 142.106 192.371 142.106 202.94C142.106 204.199 141.085 205.219 139.826 205.219C138.567 205.219 137.547 204.199 137.547 202.94C137.547 190.714 143.962 181.059 150.145 174.581C153.252 171.326 156.353 168.817 158.677 167.12C159.841 166.27 160.816 165.62 161.505 165.179C161.85 164.959 162.124 164.79 162.315 164.675C162.411 164.617 162.486 164.572 162.539 164.541L162.602 164.505L162.621 164.494L162.627 164.49L162.629 164.489C162.63 164.489 162.63 164.488 163.705 166.368L162.631 164.488C163.724 163.864 165.116 164.243 165.741 165.336C166.365 166.429 165.986 167.821 164.894 168.446Z" fill="white"/>
<path fill-rule="evenodd" clip-rule="evenodd" d="M98.7975 362.511L97.6246 360.557C96.5451 361.204 96.195 362.605 96.8428 363.684C97.4892 364.762 98.8853 365.112 99.964 364.47C99.964 364.47 99.964 364.47 99.964 364.47M99.965 364.469L99.9919 364.454C100.021 364.437 100.07 364.409 100.141 364.371C100.282 364.296 100.505 364.18 100.806 364.037C101.409 363.752 102.321 363.36 103.507 362.964C105.882 362.173 109.341 361.372 113.614 361.372C114.873 361.372 115.894 360.351 115.894 359.092C115.894 357.833 114.873 356.812 113.614 356.812C108.77 356.812 104.821 357.721 102.066 358.639C100.688 359.098 99.6054 359.561 98.8545 359.917C98.4789 360.095 98.1857 360.246 97.9794 360.357C97.8762 360.413 97.7947 360.458 97.7354 360.492C97.7058 360.509 97.6817 360.523 97.6632 360.534L97.6397 360.548L97.6311 360.553L97.6276 360.555L97.6261 360.556C97.6253 360.556 97.6246 360.557 98.7975 362.511" fill="white"/>
<path fill-rule="evenodd" clip-rule="evenodd" d="M401.57 26.5783C402.664 28.2501 402.196 30.4924 400.525 31.5866L275.15 113.65C273.479 114.744 271.236 114.276 270.142 112.604C269.048 110.932 269.516 108.69 271.188 107.596L396.562 25.5326C398.234 24.4383 400.476 24.9065 401.57 26.5783Z" fill="#FFE600"/>
<g filter="url(#filter1_f)">
<path d="M277.098 317.941C327.252 309.204 285.323 232.599 258.088 195.388L309.86 224.914L343.026 281.539L302.984 340.591L139.984 364.05C164.792 352.321 226.945 326.677 277.098 317.941Z" fill="#22ECB0"/>
</g>
</g>
<defs>
<filter id="filter0_f" x="328.87" y="-40.0117" width="184.437" height="273.419" filterUnits="userSpaceOnUse" color-interpolation-filters="sRGB">
<feFlood flood-opacity="0" result="BackgroundImageFix"/>
<feBlend mode="normal" in="SourceGraphic" in2="BackgroundImageFix" result="shape"/>
<feGaussianBlur stdDeviation="8.08932" result="effect1_foregroundBlur"/>
</filter>
<filter id="filter1_f" x="123.806" y="179.209" width="235.399" height="201.02" filterUnits="userSpaceOnUse" color-interpolation-filters="sRGB">
<feFlood flood-opacity="0" result="BackgroundImageFix"/>
<feBlend mode="normal" in="SourceGraphic" in2="BackgroundImageFix" result="shape"/>
<feGaussianBlur stdDeviation="8.08932" result="effect1_foregroundBlur"/>
</filter>
</defs>
</svg>
