<svg width="430" height="430" viewBox="0 0 430 430" fill="none" xmlns="http://www.w3.org/2000/svg">
<path d="M430 215C430 333.741 333.741 430 215 430C96.2588 430 0 333.741 0 215C0 96.2588 96.2588 0 215 0C333.741 0 430 96.2588 430 215Z" fill="#449AFF"/>
<mask id="mask0" mask-type="alpha" maskUnits="userSpaceOnUse" x="0" y="0" width="430" height="430">
<path d="M430 215C430 333.741 333.741 430 215 430C96.2588 430 0 333.741 0 215C0 96.2588 96.2588 0 215 0C333.741 0 430 96.2588 430 215Z" fill="#449AFF"/>
</mask>
<g mask="url(#mask0)">
<path fill-rule="evenodd" clip-rule="evenodd" d="M118.641 88.5711C121.763 90.4491 124.354 93.4697 126.012 96.2914C126.379 96.917 126.17 97.7221 125.545 98.0896C124.919 98.4571 124.114 98.248 123.747 97.6224C122.248 95.0713 119.939 92.418 117.287 90.8227C114.667 89.2469 111.835 88.7584 109.024 90.2067C108.379 90.539 107.587 90.2855 107.255 89.6405C106.922 88.9955 107.176 88.2033 107.821 87.871C111.667 85.8895 115.486 86.6736 118.641 88.5711Z" fill="white"/>
<path fill-rule="evenodd" clip-rule="evenodd" d="M155.252 72.3709C155.101 71.6613 155.554 70.9636 156.264 70.8128C164.331 69.0979 174.433 71.1326 181.955 74.3245C181.981 74.3355 182.007 74.3473 182.032 74.3598C184.136 75.4165 186.957 77.86 188.953 80.6109C189.959 81.9968 190.808 83.5323 191.234 85.0835C191.663 86.642 191.686 88.3133 190.885 89.8317C190.547 90.4735 189.752 90.7194 189.11 90.381C188.469 90.0425 188.223 89.2479 188.561 88.6061C188.957 87.8557 189.014 86.9178 188.701 85.7797C188.386 84.6344 187.72 83.3861 186.826 82.1539C185.036 79.6866 182.543 77.5694 180.889 76.7262C173.654 73.6646 164.148 71.823 156.81 73.3828C156.1 73.5337 155.403 73.0806 155.252 72.3709Z" fill="white"/>
<path fill-rule="evenodd" clip-rule="evenodd" d="M141.993 309.559C142.714 309.477 143.365 309.995 143.447 310.716C144.577 320.677 148.664 332.111 155.975 340.423C163.237 348.679 173.685 353.877 187.779 351.53C188.495 351.411 189.172 351.894 189.291 352.61C189.41 353.326 188.926 354.002 188.211 354.122C173.119 356.635 161.793 351.016 154.002 342.158C146.259 333.356 142.012 321.379 140.836 311.012C140.754 310.291 141.272 309.641 141.993 309.559Z" fill="#FFF36C"/>
<path fill-rule="evenodd" clip-rule="evenodd" d="M81.3032 139.086C81.3032 139.086 81.3031 139.086 81.303 139.087L81.3027 139.088L81.2991 139.101L81.2827 139.16C81.2679 139.214 81.2456 139.298 81.2175 139.408C81.1611 139.629 81.0812 139.958 80.9901 140.378C80.8076 141.218 80.5811 142.42 80.4084 143.853C80.0613 146.734 79.9408 150.475 80.7834 154.066C81.622 157.64 83.394 160.992 86.7876 163.267C90.1926 165.549 95.4216 166.874 103.43 165.991C104.151 165.912 104.801 166.432 104.88 167.153C104.959 167.875 104.439 168.524 103.718 168.603C95.3227 169.528 89.4081 168.186 85.3248 165.449C81.2301 162.705 79.1692 158.688 78.2255 154.666C77.2856 150.661 77.4333 146.581 77.7999 143.539C77.9841 142.01 78.2258 140.726 78.4224 139.82C78.5208 139.367 78.6081 139.008 78.6716 138.759C78.7033 138.634 78.7292 138.537 78.7475 138.47C78.7566 138.436 78.7639 138.41 78.7691 138.392L78.7753 138.37L78.7772 138.363L78.7779 138.361C78.7781 138.36 78.7783 138.359 80.0407 138.723L78.7783 138.359C78.9792 137.662 79.7072 137.26 80.4044 137.461C81.1014 137.661 81.5037 138.389 81.3032 139.086Z" fill="white"/>
<path fill-rule="evenodd" clip-rule="evenodd" d="M330.651 175.304C331.478 175.354 332.108 176.065 332.058 176.892L328.19 240.838C328.14 241.665 327.429 242.295 326.603 242.245C325.776 242.195 325.146 241.484 325.196 240.657L329.064 176.711C329.114 175.884 329.824 175.254 330.651 175.304Z" fill="black"/>
<path fill-rule="evenodd" clip-rule="evenodd" d="M346.518 210.967C347.326 211.153 347.83 211.958 347.644 212.765L340.667 243.124C340.481 243.932 339.676 244.436 338.869 244.25C338.061 244.064 337.557 243.26 337.743 242.452L344.72 212.093C344.906 211.286 345.711 210.782 346.518 210.967Z" fill="black"/>
<path fill-rule="evenodd" clip-rule="evenodd" d="M68.2424 255.94C68.9659 255.537 69.8795 255.796 70.283 256.52L101.753 312.955C102.157 313.678 101.897 314.592 101.173 314.995C100.45 315.399 99.5363 315.139 99.1329 314.416L67.6628 257.981C67.2594 257.257 67.5188 256.344 68.2424 255.94Z" fill="black"/>
<path fill-rule="evenodd" clip-rule="evenodd" d="M69.6578 295.36C70.3007 294.837 71.2454 294.935 71.7678 295.578L91.7753 320.201C92.2978 320.844 92.2001 321.789 91.5571 322.311C90.9142 322.833 89.9695 322.736 89.4471 322.093L69.4395 297.47C68.9171 296.827 69.0148 295.882 69.6578 295.36Z" fill="black"/>
<path d="M262.592 475.342C252.152 477.561 243.1 473.478 241.471 465.815L219.21 361.085C217.581 353.422 224.19 346.01 234.63 343.791C245.071 341.572 254.123 345.655 255.752 353.318L277.877 457.409C279.506 465.072 273.033 473.123 262.592 475.342Z" fill="white"/>
<path d="M287.933 349.044L179.35 372.124C158.148 376.631 137.113 362.971 132.606 341.768L95.7324 168.292L281.416 128.824L318.289 302.3C322.796 323.502 309.136 344.537 287.933 349.044Z" fill="#FF9900"/>
<path fill-rule="evenodd" clip-rule="evenodd" d="M178.573 368.47L287.157 345.39C306.341 341.312 318.713 322.261 314.635 303.076L278.539 133.255L100.163 171.169L136.26 340.991C140.338 360.176 159.389 372.548 178.573 368.47ZM179.35 372.124L287.933 349.044C309.136 344.537 322.796 323.502 318.289 302.3L281.416 128.824L95.7324 168.292L132.606 341.768C137.113 362.971 158.148 376.631 179.35 372.124Z" fill="#FFB74B"/>
<path d="M284.007 109.471C284.007 109.471 283.42 103.551 282.874 100.981C280.062 81.4332 269.17 64.9454 250.786 57.437C236.803 51.6793 221.383 54.9569 212.646 67.5586C207.586 75.3494 204.727 84.0154 202.005 93.3239C205.001 85.3004 201.025 76.0725 194.382 70.0975C179.676 57.7782 155.453 57.5546 137.873 63.306C132.227 65.1777 126.718 67.6918 123.819 73.0087C120.783 77.6832 120.358 85.1604 125.169 88.8385C120.181 81.1688 107.154 79.9086 100.536 86.6874C96.7217 90.8559 95.8867 96.4057 96.9793 101.546C97.389 103.473 98.4815 108.613 98.4815 108.613C98.4815 108.613 93.984 109.569 92.0565 109.979C87.559 110.935 83.198 112.533 80.9011 114.365C66.5736 122.782 62.9203 140.347 65.5554 155.904C69.1062 172.609 77.5797 180.881 93.5864 183.522C98.3571 183.851 102.991 183.538 107.489 182.582C138.056 174.742 169.265 166.765 200.475 158.788C204.972 157.832 217.726 157.807 219.967 162.031C225.638 172.914 228.313 191.819 237.759 195.184C249.268 198.782 251.378 170.8 250.63 151.485C250.59 148.135 252.614 145.019 255.826 144.336C265.327 141.645 274.322 139.733 284.466 136.906C285.108 136.769 284.343 122.633 284.576 120.569C284.576 120.569 284.047 112.82 284.007 109.471Z" fill="#FFF04A"/>
<path d="M219.467 362.291L256.009 354.524L259.374 370.359L220.869 368.889L219.467 362.291Z" fill="#E9ECEF"/>
<path fill-rule="evenodd" clip-rule="evenodd" d="M122.294 196.223C119.633 196.789 117.934 199.405 118.5 202.066C119.065 204.728 121.681 206.426 124.343 205.861C127.004 205.295 128.703 202.679 128.137 200.018C127.572 197.356 124.956 195.658 122.294 196.223ZM115.287 202.749C114.344 198.314 117.176 193.953 121.611 193.011C126.047 192.068 130.407 194.899 131.35 199.335C132.293 203.77 129.461 208.13 125.026 209.073C120.59 210.016 116.23 207.185 115.287 202.749Z" fill="#FFB342"/>
<path fill-rule="evenodd" clip-rule="evenodd" d="M289.693 265.737C287.031 266.303 285.332 268.919 285.898 271.58C286.464 274.241 289.08 275.94 291.741 275.374C294.403 274.809 296.101 272.193 295.536 269.531C294.97 266.87 292.354 265.171 289.693 265.737ZM282.686 272.263C281.743 267.827 284.574 263.467 289.01 262.524C293.445 261.582 297.805 264.413 298.748 268.849C299.691 273.284 296.86 277.644 292.424 278.587C287.988 279.53 283.628 276.698 282.686 272.263Z" fill="#FFB74B"/>
<path fill-rule="evenodd" clip-rule="evenodd" d="M295.841 294.649C294.245 294.988 293.225 296.558 293.565 298.154C293.904 299.751 295.474 300.77 297.07 300.431C298.667 300.092 299.687 298.522 299.347 296.925C299.008 295.328 297.438 294.309 295.841 294.649ZM290.352 298.837C289.636 295.466 291.787 292.153 295.158 291.436C298.53 290.719 301.843 292.871 302.56 296.242C303.276 299.613 301.124 302.927 297.753 303.644C294.382 304.36 291.069 302.208 290.352 298.837Z" fill="#FFB74B"/>
<path fill-rule="evenodd" clip-rule="evenodd" d="M142.275 306.936C143.305 306.88 144.186 307.669 144.242 308.7C144.803 318.991 148.673 331.003 156.037 339.843C163.335 348.605 174.058 354.267 188.642 352.127C189.663 351.977 190.612 352.683 190.761 353.704C190.911 354.725 190.205 355.674 189.184 355.823C173.161 358.175 161.194 351.871 153.166 342.234C145.203 332.675 141.109 319.854 140.512 308.903C140.456 307.873 141.245 306.992 142.275 306.936Z" fill="#FFB74B"/>
<path d="M232.422 242.031C239.627 240.499 243.537 230.171 241.155 218.963C238.772 207.755 231 199.91 223.794 201.442C216.589 202.973 212.679 213.301 215.062 224.509C217.444 235.718 225.217 243.562 232.422 242.031Z" fill="white"/>
<path d="M229.112 201.615C225.379 205.439 222.571 213.611 224.42 222.309C226.268 231.006 232.158 237.33 237.123 239.305C240.855 235.481 243.664 227.309 241.815 218.611C239.966 209.914 234.077 203.59 229.112 201.615Z" fill="#231F20"/>
<path d="M190.375 250.97C197.58 249.438 201.49 239.111 199.108 227.903C196.725 216.694 188.953 208.85 181.748 210.381C174.542 211.913 170.632 222.24 173.015 233.449C175.397 244.657 183.17 252.502 190.375 250.97Z" fill="white"/>
<path d="M187.141 210.537C183.408 214.361 180.6 222.533 182.449 231.231C184.298 239.928 190.187 246.252 195.152 248.227C198.885 244.403 201.693 236.231 199.844 227.533C197.995 218.835 192.106 212.512 187.141 210.537Z" fill="#231F20"/>
<path fill-rule="evenodd" clip-rule="evenodd" d="M155.98 217.368C155.639 215.767 156.661 214.193 158.262 213.853L184.355 208.306C185.956 207.966 187.53 208.988 187.871 210.589C188.211 212.19 187.189 213.764 185.588 214.105L159.495 219.651C157.894 219.991 156.32 218.969 155.98 217.368Z" fill="#231F20"/>
<path fill-rule="evenodd" clip-rule="evenodd" d="M197.997 208.436C197.657 206.835 198.679 205.261 200.28 204.921L226.373 199.375C227.974 199.034 229.548 200.056 229.888 201.658C230.229 203.259 229.207 204.833 227.605 205.173L201.513 210.719C199.911 211.06 198.337 210.037 197.997 208.436Z" fill="#231F20"/>
<path fill-rule="evenodd" clip-rule="evenodd" d="M164.251 277.736C163.911 276.135 164.933 274.561 166.534 274.221L243.363 257.89C244.964 257.55 246.538 258.572 246.878 260.173C247.219 261.774 246.196 263.348 244.595 263.689L167.766 280.019C166.165 280.359 164.591 279.337 164.251 277.736Z" fill="black"/>
<path fill-rule="evenodd" clip-rule="evenodd" d="M253.569 249.301C253.569 249.301 253.569 249.301 253.569 249.301L253.569 249.301C253.569 249.301 253.569 249.301 253.569 249.301ZM253.572 249.299C253.571 249.299 253.571 249.299 253.571 249.299L253.572 249.298C253.572 249.298 253.572 249.298 253.572 249.298C253.572 249.299 253.572 249.299 253.572 249.299C253.572 249.299 253.572 249.299 253.572 249.299C253.572 249.299 253.572 249.299 253.572 249.299Z" fill="black"/>
<path fill-rule="evenodd" clip-rule="evenodd" d="M107.924 97.5721C107.116 100.402 107.586 103.853 108.361 106.19C108.882 107.763 108.03 109.461 106.457 109.982C104.884 110.503 103.187 109.651 102.665 108.078C101.666 105.064 100.902 100.311 102.155 95.9236C102.798 93.6733 103.995 91.4512 106.024 89.6828C108.059 87.9089 110.745 86.7547 114.09 86.3421C115.734 86.1393 117.232 87.308 117.435 88.9524C117.637 90.5968 116.469 92.0942 114.824 92.297C112.463 92.5882 110.956 93.3437 109.966 94.2058C108.971 95.0735 108.313 96.2137 107.924 97.5721Z" fill="white"/>
<path fill-rule="evenodd" clip-rule="evenodd" d="M91.2126 122.664C92.567 123.619 92.8911 125.491 91.9366 126.845C88.8134 131.276 85.58 138.39 85.697 145.319C85.7544 148.72 86.6153 152.032 88.649 155.023C90.6842 158.016 94.0233 160.878 99.3431 163.166C100.865 163.82 101.568 165.585 100.914 167.107C100.259 168.629 98.4945 169.332 96.9725 168.678C90.8025 166.024 86.4771 162.5 83.6874 158.397C80.8963 154.292 79.7718 149.798 79.6979 145.42C79.5521 136.788 83.4718 128.44 87.0322 123.388C87.9867 122.034 89.8583 121.71 91.2126 122.664Z" fill="white"/>
<path fill-rule="evenodd" clip-rule="evenodd" d="M227.975 159.972C228.978 159.732 229.986 160.351 230.226 161.354C231.178 165.344 232.852 171.29 234.765 176.166C235.727 178.616 236.713 180.702 237.653 182.123C238.126 182.838 238.53 183.296 238.843 183.551C238.982 183.664 239.069 183.71 239.109 183.728C240.108 183.68 240.973 184.43 241.059 185.435C241.147 186.463 240.384 187.367 239.356 187.455C238.188 187.554 237.206 187.034 236.486 186.449C235.76 185.859 235.113 185.054 234.537 184.184C233.381 182.436 232.282 180.064 231.287 177.53C229.289 172.437 227.568 166.31 226.592 162.222C226.352 161.219 226.972 160.211 227.975 159.972ZM239.135 183.737C239.135 183.737 239.133 183.737 239.129 183.735C239.133 183.736 239.135 183.737 239.135 183.737Z" fill="white"/>
</g>
</svg>
