<svg width="430" height="430" viewBox="0 0 430 430" fill="none" xmlns="http://www.w3.org/2000/svg">
<path d="M430 215C430 333.741 333.741 430 215 430C96.2588 430 0 333.741 0 215C0 96.2588 96.2588 0 215 0C333.741 0 430 96.2588 430 215Z" fill="#449AFF"/>
<path fill-rule="evenodd" clip-rule="evenodd" d="M196.515 37.7461C196.632 36.926 197.392 36.3561 198.212 36.4733L198 37.9582C198.212 36.4733 198.213 36.4734 198.214 36.4735L198.215 36.4737L198.221 36.4745L198.236 36.4768L198.291 36.4851C198.336 36.4922 198.402 36.5026 198.485 36.5167C198.653 36.5449 198.893 36.5877 199.199 36.6479C199.808 36.7683 200.677 36.9583 201.731 37.2401C203.837 37.8026 206.701 38.7354 209.734 40.2194C215.779 43.1774 222.666 48.4188 225.321 57.4439C225.555 58.2387 225.1 59.0724 224.305 59.3062C223.51 59.5399 222.677 59.0852 222.443 58.2904C220.12 50.3929 214.067 45.6798 208.415 42.914C205.599 41.5361 202.927 40.6646 200.957 40.1384C199.974 39.8757 199.17 39.7003 198.618 39.5912C198.342 39.5367 198.128 39.4988 197.987 39.475C197.916 39.4631 197.864 39.4547 197.83 39.4495L197.794 39.444L197.788 39.4431L197.787 39.443L197.787 39.443C196.968 39.3254 196.398 38.5659 196.515 37.7461Z" fill="#231F20"/>
<path fill-rule="evenodd" clip-rule="evenodd" d="M201.488 28.8141C201.591 27.9921 202.341 27.409 203.163 27.5117L202.977 29.0002C203.163 27.5117 203.162 27.5117 203.163 27.5117L203.167 27.5123L203.174 27.5132L203.197 27.5162C203.217 27.5188 203.244 27.5224 203.278 27.5273C203.346 27.5369 203.444 27.5513 203.569 27.5711C203.819 27.6108 204.18 27.6723 204.635 27.7616C205.544 27.9402 206.832 28.2303 208.374 28.68C211.452 29.5779 215.57 31.1201 219.699 33.7008C220.401 34.1399 220.615 35.0653 220.176 35.7678C219.737 36.4703 218.811 36.6839 218.109 36.2448C214.275 33.8484 210.428 32.4042 207.534 31.56C206.089 31.1387 204.889 30.869 204.056 30.7053C203.64 30.6236 203.316 30.5684 203.1 30.5342C202.992 30.5171 202.911 30.5052 202.858 30.4978L202.802 30.4901L202.791 30.4886C202.79 30.4886 202.791 30.4886 202.791 30.4886M201.488 28.8141C201.386 29.6359 201.969 30.3855 202.791 30.4886L201.488 28.8141Z" fill="#231F20"/>
<path d="M222.544 256.069C297.201 240.2 351.684 199.905 344.511 166.16C344.321 165.264 344.194 164.667 344.003 163.771C341.793 159.247 339.049 155.148 336.305 151.05C315.254 128.37 258.932 120.366 196.52 133.632C129.926 147.787 79.0784 181.692 74.4215 212.645C74.2498 213.306 74.1416 214.265 74.2686 214.863C73.944 217.741 74.2166 220.492 74.8514 223.478C81.7254 257.286 148.186 271.874 222.544 256.069Z" fill="#FFCF88"/>
<path fill-rule="evenodd" clip-rule="evenodd" d="M76.7847 213.129L76.7529 213.251C76.7031 213.442 76.6555 213.711 76.6337 213.975C76.6232 214.103 76.6205 214.211 76.6227 214.291C76.624 214.341 76.6269 214.368 76.6278 214.376L76.706 214.744L76.6622 215.132C76.3755 217.674 76.6072 220.153 77.2075 222.977L77.2097 222.988L77.2119 222.998C80.3409 238.387 97.3036 250.165 123.91 256.026C150.273 261.834 185.122 261.561 222.043 253.713C259.115 245.833 291.062 231.908 312.783 215.88C334.698 199.708 345.424 182.039 342.155 166.661L341.71 164.566C339.633 160.372 337.075 156.53 334.412 152.551C324.422 141.895 305.811 134.387 281.614 131.25C257.409 128.112 228.002 129.403 197.02 135.988C163.964 143.015 134.891 154.93 113.561 168.856C92.1032 182.866 78.9739 198.577 76.8035 213.004L76.7847 213.129ZM336.306 151.05C339.049 155.149 341.793 159.247 344.003 163.771L344.511 166.16C351.684 199.905 297.201 240.2 222.544 256.069C148.186 271.874 81.7254 257.286 74.8514 223.478C74.2166 220.492 73.944 217.741 74.2686 214.863C74.1416 214.265 74.2498 213.306 74.4215 212.645C79.0784 181.692 129.926 147.787 196.52 133.632C258.932 120.366 315.255 128.37 336.306 151.05Z" fill="#FFE3B9"/>
<path d="M344.003 163.771C344.194 164.667 344.321 165.264 344.511 166.16C351.684 199.905 297.201 240.2 222.544 256.069C147.888 271.938 81.7254 257.286 74.5528 223.541C73.9815 220.854 73.944 217.74 73.97 214.926C72.4739 229.913 73.1952 245.054 76.4959 260.582C92.9994 338.225 169.339 387.544 246.684 371.104C324.326 354.6 373.645 278.26 357.205 200.916C354.348 187.478 349.891 175.316 344.003 163.771Z" fill="#FFBC58"/>
<path d="M219.181 240.241C245.161 234.719 272.235 225.531 293.84 209.702C315.509 194.172 328.177 167.134 298.07 153.246C268.688 139.828 230.598 144.179 200.138 150.653C175.95 155.795 151.5 164.113 130.645 177.597C110.089 191.018 87.3121 218.956 117.691 235.596C146.685 251.593 188.124 246.843 219.181 240.241Z" fill="#76381C"/>
<path d="M269.718 160.833C269.718 160.833 255.089 84.6647 196.978 62.3714C186.451 58.3666 173.312 61.1595 165.025 69.1632C121.304 113.102 138.92 188.635 138.92 188.635C138.984 188.934 139.11 189.531 139.174 189.83C142.729 206.553 177.008 223.924 213.142 216.243C249.276 208.563 273.527 178.751 269.972 162.028C269.909 161.729 269.845 161.43 269.718 160.833Z" fill="#FF9900"/>
<path fill-rule="evenodd" clip-rule="evenodd" d="M267.353 161.288L267.351 161.28L267.345 161.245C267.338 161.213 267.328 161.162 267.314 161.094C267.287 160.958 267.244 160.752 267.185 160.48C267.068 159.935 266.887 159.125 266.635 158.082C266.131 155.996 265.345 152.98 264.22 149.285C261.97 141.891 258.372 131.805 252.986 121.04C242.187 99.4571 224.365 75.4595 196.119 64.6217C186.497 60.9628 174.35 63.5186 166.715 70.8795C145.478 92.2345 139.033 121.382 137.984 145.481C137.46 157.503 138.285 168.179 139.241 175.849C139.719 179.681 140.229 182.757 140.617 184.867C140.812 185.923 140.976 186.736 141.09 187.282C141.148 187.554 141.192 187.76 141.222 187.896C141.238 187.963 141.249 188.014 141.256 188.046L141.264 188.081L141.266 188.088L141.271 188.111L141.53 189.329C142.277 192.843 144.709 196.645 148.763 200.304C152.795 203.941 158.287 207.303 164.844 209.955C177.959 215.26 195.074 217.621 212.641 213.887C230.209 210.153 244.884 201.034 254.707 190.854C259.618 185.764 263.269 180.459 265.472 175.496C267.688 170.505 268.363 166.043 267.616 162.529L267.357 161.311L267.353 161.288ZM269.718 160.833L269.972 162.028C273.527 178.751 249.276 208.563 213.142 216.243C177.008 223.924 142.729 206.553 139.174 189.83L138.92 188.635C138.92 188.635 121.304 113.102 165.025 69.1632C173.312 61.1595 186.451 58.3666 196.978 62.3714C255.089 84.6647 269.718 160.833 269.718 160.833Z" fill="#FFB74B"/>
<path fill-rule="evenodd" clip-rule="evenodd" d="M178.505 62.4579C179.17 62.4829 179.689 63.042 179.664 63.7067C179.337 72.3928 180.452 90.2723 185.16 113.968C185.29 114.621 184.866 115.255 184.214 115.384C183.561 115.514 182.927 115.09 182.798 114.438C178.064 90.6169 176.921 72.5422 177.257 63.6162C177.282 62.9515 177.841 62.4329 178.505 62.4579Z" fill="#FFB74B"/>
<path fill-rule="evenodd" clip-rule="evenodd" d="M166.131 87.8015C166.849 88.3981 166.948 89.4641 166.351 90.1824C163.886 93.1501 160.663 99.2848 158.316 105.983C155.953 112.729 154.646 119.582 155.598 124.06C155.792 124.974 155.209 125.871 154.295 126.066C153.382 126.26 152.484 125.677 152.29 124.763C151.132 119.315 152.731 111.699 155.125 104.865C157.536 97.9837 160.921 91.4267 163.75 88.0216C164.347 87.3033 165.413 87.2048 166.131 87.8015Z" fill="white"/>
<path opacity="0.6" fill-rule="evenodd" clip-rule="evenodd" d="M284.73 259.351C285.054 260.641 284.27 261.949 282.98 262.273C206.573 281.446 170.001 323.616 161.37 341.747C160.798 342.948 159.361 343.458 158.159 342.886C156.958 342.314 156.448 340.877 157.02 339.676C166.359 320.057 204.225 277.069 281.808 257.6C283.098 257.277 284.406 258.06 284.73 259.351Z" fill="#DC890C"/>
<path opacity="0.6" fill-rule="evenodd" clip-rule="evenodd" d="M257.824 346.729C257.104 347.847 255.614 348.171 254.495 347.451C188.252 304.819 132.474 306.976 113.344 313.078C112.076 313.483 110.721 312.783 110.317 311.516C109.913 310.248 110.612 308.893 111.88 308.489C132.58 301.885 189.84 300.111 257.102 343.4C258.221 344.12 258.544 345.61 257.824 346.729Z" fill="#DC890C"/>
<path fill-rule="evenodd" clip-rule="evenodd" d="M197.704 172.048C198.362 171.948 198.976 172.4 199.076 173.058C201.515 189.122 208.711 207.523 212.005 214.706C212.282 215.31 212.017 216.025 211.412 216.302C210.808 216.58 210.093 216.314 209.815 215.71C206.478 208.432 199.182 189.8 196.694 173.42C196.595 172.762 197.047 172.148 197.704 172.048Z" fill="#FFB74B"/>
<path d="M184.488 237.651C150.74 244.168 131.046 219.87 128.174 210.22C150.084 230.268 158.231 228.046 171.239 229.386C184.247 230.725 226.673 229.506 184.488 237.651Z" fill="#652F17"/>
<path d="M270.552 198.427C288.506 193.297 286.798 174.452 282.773 167.099C285.237 169.038 290.25 170.1 291.825 186.517C293.176 200.595 277.287 206.298 267.735 206.413C261.193 205.889 252.598 203.556 270.552 198.427Z" fill="#652F17"/>
<path fill-rule="evenodd" clip-rule="evenodd" d="M228.506 374.021C234.556 373.524 240.64 372.637 246.731 371.342C324.374 354.839 373.692 278.499 357.252 201.155C354.396 187.717 349.938 175.555 344.05 164.01L344.558 166.399C347.828 181.78 338.287 198.523 319.864 213.693C332.491 282.761 293.134 350.198 228.506 374.021Z" fill="#FFA825"/>
<path d="M209.756 132.259C214.336 131.285 216.821 124.72 215.307 117.596C213.792 110.471 208.852 105.484 204.272 106.458C199.691 107.431 197.206 113.996 198.721 121.121C200.235 128.246 205.176 133.232 209.756 132.259Z" fill="white"/>
<path d="M207.652 106.569C205.279 108.999 203.494 114.194 204.669 119.723C205.844 125.252 209.588 129.271 212.744 130.527C215.117 128.096 216.902 122.901 215.727 117.373C214.552 111.844 210.808 107.824 207.652 106.569Z" fill="#231F20"/>
<path d="M183.029 137.941C187.609 136.968 190.095 130.403 188.58 123.278C187.066 116.154 182.125 111.167 177.545 112.141C172.965 113.114 170.48 119.679 171.994 126.804C173.508 133.928 178.449 138.915 183.029 137.941Z" fill="white"/>
<path d="M180.972 112.24C178.599 114.67 176.814 119.865 177.99 125.394C179.165 130.923 182.908 134.942 186.064 136.198C188.437 133.767 190.222 128.572 189.047 123.044C187.872 117.515 184.128 113.495 180.972 112.24Z" fill="#231F20"/>
<path fill-rule="evenodd" clip-rule="evenodd" d="M161.165 116.582C160.949 115.564 161.599 114.564 162.616 114.348L179.202 110.822C180.22 110.606 181.221 111.255 181.437 112.273C181.653 113.291 181.004 114.292 179.986 114.508L163.4 118.033C162.382 118.25 161.382 117.6 161.165 116.582Z" fill="#231F20"/>
<path fill-rule="evenodd" clip-rule="evenodd" d="M187.874 110.904C187.658 109.887 188.308 108.886 189.325 108.67L205.911 105.144C206.929 104.928 207.93 105.578 208.146 106.595C208.362 107.613 207.713 108.614 206.695 108.83L190.109 112.356C189.091 112.572 188.09 111.922 187.874 110.904Z" fill="#231F20"/>
<path fill-rule="evenodd" clip-rule="evenodd" d="M165.764 155.359C165.518 154.202 166.155 153.086 167.186 152.867L216.686 142.345C217.718 142.126 218.753 142.886 218.999 144.043C219.245 145.201 218.608 146.316 217.577 146.536L168.077 157.057C167.045 157.277 166.01 156.516 165.764 155.359Z" fill="black"/>
<path fill-rule="evenodd" clip-rule="evenodd" d="M223.2 136.88C223.2 136.88 223.2 136.88 223.2 136.88L223.2 136.88C223.2 136.88 223.2 136.88 223.2 136.88ZM223.201 136.879C223.201 136.879 223.201 136.879 223.201 136.879L223.202 136.879C223.202 136.878 223.202 136.878 223.201 136.879C223.201 136.879 223.201 136.879 223.201 136.879C223.201 136.879 223.201 136.879 223.201 136.879C223.201 136.879 223.201 136.879 223.201 136.879Z" fill="black"/>
</svg>
