<svg width="430" height="430" viewBox="0 0 430 430" fill="none" xmlns="http://www.w3.org/2000/svg">
<path d="M430 215C430 333.741 333.741 430 215 430C96.2588 430 0 333.741 0 215C0 96.2588 96.2588 0 215 0C333.741 0 430 96.2588 430 215Z" fill="#9971FF"/>
<path d="M377.261 162.84C381.095 196.718 369.076 213.491 362.588 217.643V228.319C364.684 228.794 370.074 233.017 374.866 246.113C380.855 262.482 377.261 285.97 368.876 302.34C362.168 315.436 354.642 316.218 348.813 316.218C332.742 315.744 292.934 315.791 262.269 319.777C223.939 324.759 195.49 342.553 185.308 350.738C177.163 357.286 170.136 358.211 167.64 357.855C154.265 356.431 121.703 349.741 98.4655 334.368C69.418 315.151 64.0277 282.767 64.0277 261.415C64.0277 244.333 73.8101 232.708 78.7012 229.031V217.999C74.0097 214.915 59.4791 199.352 59 178C58.4839 155 66.9969 139.445 78.7012 126C93.5 109 122.5 90.0001 173.929 84.5486C242.839 77.2441 292.215 88.1073 308.685 94.5129C325.156 100.919 372.47 120.491 377.261 162.84Z" fill="#652F17"/>
<path d="M363.625 284.388C363.625 272.495 354.348 262.72 342.455 262.625C321.562 262.459 288.562 263.249 259.114 268.532C237.478 272.413 214.029 281.664 197.707 288.986C184.623 294.855 176.763 308.078 176.763 322.419V325.888C176.763 334.607 186.46 339.903 194.105 335.713C231.384 315.283 269.139 307.739 341.009 306.992C353.452 306.863 363.625 296.832 363.625 284.388Z" fill="#FFE600"/>
<path d="M363.625 190.671C363.625 178.778 354.348 169.003 342.455 168.908C321.562 168.742 288.562 169.533 259.114 174.815C237.478 178.696 214.029 187.947 197.707 195.269C184.623 201.139 176.763 214.361 176.763 228.702V232.172C176.763 240.89 186.46 246.187 194.105 241.997C231.384 221.566 269.139 214.022 341.009 213.275C353.452 213.146 363.625 203.115 363.625 190.671Z" fill="#FFE600"/>
<path d="M354.041 238.035C354.041 228.311 346.476 220.313 336.752 220.183C317.173 219.921 284.18 220.52 254.89 226.043C233.575 230.061 210.407 239.854 194.88 247.271C183.516 252.699 176.762 264.346 176.762 276.939C176.762 284.858 185.667 289.591 192.514 285.613C228.614 264.642 264.963 257.104 335.513 256.539C345.711 256.457 354.041 248.233 354.041 238.035Z" fill="#F8F9FA"/>
<path fill-rule="evenodd" clip-rule="evenodd" d="M364.46 309.195C367.889 303.318 371.469 293.478 370.215 281.343C368.538 265.116 358.836 255.365 354.943 255.365C356.241 254.772 362.429 249.315 363.927 241.13C365.763 231.094 362.429 228.319 362.429 228.319V217.643C362.574 217.577 362.718 217.518 362.859 217.464C362.768 217.526 362.677 217.586 362.588 217.643V228.319C364.684 228.793 370.074 233.016 374.866 246.112C380.855 262.482 377.261 285.969 368.876 302.339C367.434 305.156 365.953 307.403 364.46 309.195ZM180.931 83.6031C245.882 75.5051 292.781 88.3272 308.685 94.5127C325.156 100.918 372.47 120.491 377.261 162.839C379.125 179.311 377.242 191.739 374.068 200.639C374.278 199.719 374.49 198.745 374.707 197.714C377.599 183.97 372.311 173.871 364.825 166.398C357.339 158.925 346.858 157.501 334.58 157.501C316.512 134.963 266.782 90.3135 212.401 92.0216C195.105 92.5649 185.469 89.139 180.931 83.6031Z" fill="#57250F"/>
<path d="M263.608 161.415C289.721 156.576 328.191 157.026 344.163 157.857C347.157 152.4 351.35 138.569 344.163 126.896C335.179 112.306 309.425 99.8503 293.255 95.224C277.084 90.5977 251.33 85.2597 206.112 87.3949C160.894 89.5301 111.184 101.274 97.4087 126.896C86.3887 147.394 100.603 167.465 109.088 174.938C114.777 179.327 130.529 189.031 148.017 192.732C169.878 197.358 178.562 195.223 189.342 188.105C200.123 180.988 230.967 167.465 263.608 161.415Z" fill="#76381D"/>
<path fill-rule="evenodd" clip-rule="evenodd" d="M71.2977 209.45C78.2673 218.415 89.6476 228.09 107.588 236.351C145.918 254.002 163.886 255.331 168.078 253.789V290.799C155.401 291.629 124.776 287.81 103.695 265.888C89.4829 251.111 81.3678 238.521 77.221 230.105C77.7476 229.629 78.2439 229.219 78.698 228.877V217.846C76.7355 216.555 73.9312 213.792 71.2977 209.45Z" fill="#57250F"/>
<path d="M324.698 185.615C324.698 187.777 327.514 189.529 330.987 189.529C334.46 189.529 337.275 187.777 337.275 185.615C337.275 183.453 334.46 181.7 330.987 181.7C327.514 181.7 324.698 183.453 324.698 185.615Z" fill="#FFD600"/>
<path d="M279.001 276.915C279.001 279.076 281.816 280.829 285.289 280.829C288.763 280.829 291.578 279.076 291.578 276.915C291.578 274.753 288.763 273 285.289 273C281.816 273 279.001 274.753 279.001 276.915Z" fill="#FFD600"/>
<path d="M280.001 295.915C280.001 298.076 282.816 299.829 286.289 299.829C289.763 299.829 292.578 298.076 292.578 295.915C292.578 293.753 289.763 292 286.289 292C282.816 292 280.001 293.753 280.001 295.915Z" fill="#FFD600"/>
<path d="M239.001 287.915C239.001 290.076 241.816 291.829 245.289 291.829C248.763 291.829 251.578 290.076 251.578 287.915C251.578 285.753 248.763 284 245.289 284C241.816 284 239.001 285.753 239.001 287.915Z" fill="#FFD600"/>
<path d="M182.755 322.268C182.755 324.43 185.57 326.183 189.043 326.183C192.517 326.183 195.332 324.43 195.332 322.268C195.332 320.106 192.517 318.354 189.043 318.354C185.57 318.354 182.755 320.106 182.755 322.268Z" fill="#FFD600"/>
<path d="M273.19 189.885C273.19 192.047 276.006 193.8 279.479 193.8C282.952 193.8 285.768 192.047 285.768 189.885C285.768 187.723 282.952 185.971 279.479 185.971C276.006 185.971 273.19 187.723 273.19 189.885Z" fill="#FFD600"/>
<path d="M327.095 294.511C327.095 296.673 329.91 298.426 333.383 298.426C336.856 298.426 339.672 296.673 339.672 294.511C339.672 292.349 336.856 290.597 333.383 290.597C329.91 290.597 327.095 292.349 327.095 294.511Z" fill="#FFD600"/>
<path d="M239.05 205.543C239.05 207.705 241.865 209.458 245.338 209.458C248.811 209.458 251.627 207.705 251.627 205.543C251.627 203.382 248.811 201.629 245.338 201.629C241.865 201.629 239.05 203.382 239.05 205.543Z" fill="#FFD600"/>
<path d="M302.534 200.563C302.534 203.511 304.545 205.901 307.026 205.901C309.506 205.901 311.518 203.511 311.518 200.563C311.518 197.615 309.506 195.225 307.026 195.225C304.545 195.225 302.534 197.615 302.534 200.563Z" fill="#FFD600"/>
<path d="M217.001 307.338C217.001 310.286 219.012 312.676 221.492 312.676C223.973 312.676 225.984 310.286 225.984 307.338C225.984 304.39 223.973 302 221.492 302C219.012 302 217.001 304.39 217.001 307.338Z" fill="#FFD600"/>
<path d="M195.329 210.526C195.329 213.474 197.34 215.864 199.821 215.864C202.301 215.864 204.312 213.474 204.312 210.526C204.312 207.577 202.301 205.188 199.821 205.188C197.34 205.188 195.329 207.577 195.329 210.526Z" fill="#FFD600"/>
<path d="M323.001 277.338C323.001 280.286 325.012 282.676 327.492 282.676C329.973 282.676 331.984 280.286 331.984 277.338C331.984 274.39 329.973 272 327.492 272C325.012 272 323.001 274.39 323.001 277.338Z" fill="#FFD600"/>
<path fill-rule="evenodd" clip-rule="evenodd" d="M83.8967 156.232C83.105 156.476 82.6613 157.316 82.9056 158.108C89.6906 180.098 104.755 192.531 120.749 199.105C136.694 205.66 153.606 206.417 164.356 205.099C165.178 204.998 165.763 204.25 165.663 203.428C165.562 202.606 164.813 202.021 163.991 202.122C153.653 203.389 137.275 202.655 121.889 196.331C106.552 190.026 92.2427 178.194 85.7722 157.223C85.528 156.432 84.6883 155.988 83.8967 156.232Z" fill="white"/>
<path fill-rule="evenodd" clip-rule="evenodd" d="M116.167 207.654C115.764 208.378 116.024 209.291 116.748 209.694C124.871 214.219 132.064 217.133 139.629 218.44C147.198 219.747 155.045 219.428 164.457 217.614C165.271 217.457 165.803 216.671 165.646 215.857C165.49 215.044 164.703 214.511 163.89 214.668C154.725 216.434 147.257 216.712 140.139 215.483C133.018 214.254 126.152 211.499 118.208 207.074C117.484 206.671 116.57 206.93 116.167 207.654Z" fill="white"/>
<path fill-rule="evenodd" clip-rule="evenodd" d="M271.277 101.871C272.658 101.871 273.777 102.99 273.777 104.371C273.777 127.619 264.289 145.106 250.488 152.867C236.527 160.717 218.939 158.182 203.972 142.948C203.004 141.963 203.019 140.38 204.003 139.413C204.988 138.445 206.571 138.459 207.539 139.444C221.228 153.378 236.4 155.052 248.037 148.509C259.833 141.875 268.777 126.366 268.777 104.371C268.777 102.99 269.897 101.871 271.277 101.871Z" fill="black"/>
<path d="M210.405 87.3421L216.831 110.561C210.337 109.468 196.042 100.32 196.038 90.237C196.035 80.1537 205.268 78.8496 210.405 87.3421Z" fill="white"/>
<path d="M210.405 87.3421L216.831 110.561C221.743 105.938 229.118 90.0828 223.98 81.5887C218.842 73.0946 210.401 77.261 210.405 87.3421Z" fill="white"/>
<path fill-rule="evenodd" clip-rule="evenodd" d="M216.831 110.561C216.644 110.529 216.451 110.491 216.251 110.447C209.526 108.941 196.041 100.03 196.038 90.237C196.035 80.7781 204.16 79.0448 209.407 85.8769C209.753 86.3279 210.087 86.8162 210.405 87.3421C210.405 86.7291 210.436 86.1379 210.495 85.5702C211.415 76.8011 219.154 73.6111 223.98 81.5887C228.97 89.8383 222.157 105.032 217.261 110.134C217.116 110.285 216.972 110.428 216.831 110.561ZM216.928 108.933C219.071 106.487 221.595 102.062 223.17 97.201C224.962 91.6674 225.397 85.971 223.076 82.1354C221.874 80.1482 220.536 78.996 219.276 78.458C218.032 77.9269 216.803 77.9647 215.698 78.4627C213.458 79.4719 211.459 82.5477 211.461 87.3417L211.462 89.1811L216.928 108.933ZM210.436 89.4344L209.501 87.8887C207.067 83.8645 203.847 82.4421 201.479 82.8636C199.212 83.2669 197.093 85.501 197.094 90.2366C197.096 94.7984 200.364 99.3367 204.68 102.962C208.497 106.168 212.891 108.454 215.928 109.278L210.436 89.4344Z" fill="white"/>
<path d="M253.432 76.7259L259.858 99.9445C253.364 98.8522 239.069 89.7041 239.065 79.6208C239.062 69.5375 248.295 68.2334 253.432 76.7259Z" fill="white"/>
<path d="M253.432 76.7259L259.858 99.9445C264.771 95.322 272.146 79.4666 267.007 70.9725C261.869 62.4784 253.428 66.6448 253.432 76.7259Z" fill="white"/>
<path fill-rule="evenodd" clip-rule="evenodd" d="M259.858 99.9445C259.671 99.9131 259.478 99.875 259.279 99.8304C252.553 98.3248 239.069 89.4139 239.065 79.6208C239.062 70.1619 247.187 68.4285 252.434 75.2607C252.78 75.7117 253.114 76.2 253.432 76.7259C253.432 76.1129 253.463 75.5217 253.522 74.954C254.443 66.1849 262.182 62.9949 267.007 70.9725C271.998 79.2221 265.185 94.4154 260.288 99.5179C260.143 99.6691 260 99.8115 259.858 99.9445ZM259.956 98.3172C262.098 95.8708 264.622 91.446 266.197 86.5848C267.99 81.0512 268.424 75.3548 266.104 71.5192C264.902 69.532 263.563 68.3798 262.303 67.8417C261.06 67.3107 259.831 67.3485 258.725 67.8465C256.486 68.8557 254.487 71.9314 254.488 76.7255L254.489 78.5649L259.956 98.3172ZM253.463 78.8182L252.528 77.2725C250.094 73.2482 246.875 71.8259 244.506 72.2473C242.239 72.6507 240.12 74.8848 240.122 79.6204C240.123 84.1822 243.391 88.7205 247.707 92.3454C251.524 95.5515 255.918 97.8375 258.955 98.6621L253.463 78.8182Z" fill="white"/>
<path d="M213.187 90.0161L217.945 109.034C212.936 108.195 201.972 100.807 202.06 92.5229C202.147 84.239 209.293 83.085 213.187 90.0161Z" fill="#FF845E"/>
<path d="M213.187 90.0161L217.945 109.034C221.782 105.193 227.622 92.1005 223.728 85.168C219.834 78.2356 213.274 81.734 213.187 90.0161Z" fill="#FF845E"/>
<path d="M256.212 79.3999L260.97 98.4179C255.962 97.5785 244.997 90.1907 245.085 81.9067C245.172 73.6228 252.319 72.4688 256.212 79.3999Z" fill="#FF845E"/>
<path d="M256.212 79.3999L260.97 98.4179C264.807 94.5763 270.648 81.4842 266.753 74.5518C262.859 67.6194 256.299 71.1178 256.212 79.3999Z" fill="#FF845E"/>
<path fill-rule="evenodd" clip-rule="evenodd" d="M199.145 118.482C198.451 120.606 196.953 122.233 194.94 122.731C193.064 123.196 191.125 122.586 189.57 121.241C188.822 123.157 187.393 124.602 185.517 125.067C182.046 125.927 178.361 123.107 177.286 118.769C176.211 114.431 178.153 110.217 181.624 109.357C183.5 108.893 185.439 109.503 186.994 110.847C187.741 108.932 189.171 107.487 191.047 107.022C193.114 106.51 195.256 107.302 196.879 108.943C197.573 106.819 199.071 105.192 201.084 104.694C204.554 103.834 208.239 106.653 209.314 110.991C210.389 115.329 208.447 119.543 204.977 120.403C202.91 120.915 200.768 120.123 199.145 118.482Z" fill="#FD476D"/>
<path fill-rule="evenodd" clip-rule="evenodd" d="M181.847 115.504C182.193 114.93 182.939 114.745 183.513 115.091L187.433 117.454C188.007 117.8 188.192 118.546 187.846 119.12C187.5 119.695 186.754 119.879 186.18 119.533L182.26 117.17C181.685 116.824 181.501 116.078 181.847 115.504Z" fill="black"/>
<path fill-rule="evenodd" clip-rule="evenodd" d="M191.007 113.209C191.353 112.635 192.099 112.45 192.673 112.796L196.593 115.159C197.168 115.505 197.352 116.251 197.006 116.825C196.66 117.4 195.914 117.584 195.34 117.238L191.42 114.875C190.846 114.529 190.661 113.783 191.007 113.209Z" fill="black"/>
<path fill-rule="evenodd" clip-rule="evenodd" d="M199.735 111.229C200.081 110.655 200.827 110.47 201.402 110.816L205.322 113.18C205.896 113.526 206.081 114.272 205.735 114.846C205.389 115.42 204.643 115.605 204.069 115.259L200.148 112.896C199.574 112.549 199.389 111.803 199.735 111.229Z" fill="black"/>
<path fill-rule="evenodd" clip-rule="evenodd" d="M279.349 103.286C278.602 105.202 277.172 106.647 275.296 107.112C271.825 107.972 268.141 105.153 267.066 100.815C265.991 96.4767 267.932 92.2628 271.403 91.4028C273.28 90.9378 275.219 91.5488 276.775 92.894C277.522 90.9784 278.952 89.5328 280.828 89.0678C284.299 88.2079 287.983 91.0274 289.058 95.3655C290.133 99.7035 288.191 103.917 284.721 104.777C282.844 105.242 280.905 104.631 279.349 103.286Z" fill="#FD476D"/>
<path fill-rule="evenodd" clip-rule="evenodd" d="M271.626 97.5506C271.972 96.9765 272.718 96.7916 273.292 97.1377L277.213 99.501C277.787 99.8471 277.972 100.593 277.626 101.167C277.279 101.741 276.533 101.926 275.959 101.58L272.039 99.2168C271.465 98.8707 271.28 98.1247 271.626 97.5506Z" fill="black"/>
<path fill-rule="evenodd" clip-rule="evenodd" d="M279.481 95.6033C279.827 95.0292 280.573 94.8443 281.148 95.1904L285.068 97.5538C285.642 97.8999 285.827 98.6459 285.481 99.22C285.135 99.7942 284.389 99.979 283.815 99.6329L279.894 97.2696C279.32 96.9235 279.135 96.1775 279.481 95.6033Z" fill="black"/>
<path d="M222.263 89.4065C222.263 90.5732 221.553 91.519 220.678 91.519C219.803 91.519 219.094 90.5732 219.094 89.4065C219.094 88.2398 219.803 87.2939 220.678 87.2939C221.553 87.2939 222.263 88.2398 222.263 89.4065Z" fill="white"/>
<path d="M265.556 77.7873C265.556 78.9541 264.846 79.8999 263.971 79.8999C263.096 79.8999 262.387 78.9541 262.387 77.7873C262.387 76.6206 263.096 75.6748 263.971 75.6748C264.846 75.6748 265.556 76.6206 265.556 77.7873Z" fill="white"/>
</svg>
