<svg width="430" height="430" viewBox="0 0 430 430" fill="none" xmlns="http://www.w3.org/2000/svg">
<path d="M430 215C430 333.741 333.741 430 215 430C96.2588 430 0 333.741 0 215C0 96.2588 96.2588 0 215 0C333.741 0 430 96.2588 430 215Z" fill="#FF845E"/>
<mask id="mask0" mask-type="alpha" maskUnits="userSpaceOnUse" x="0" y="0" width="430" height="430">
<path d="M430 215C430 333.741 333.741 430 215 430C96.2588 430 0 333.741 0 215C0 96.2588 96.2588 0 215 0C333.741 0 430 96.2588 430 215Z" fill="#FF845D"/>
</mask>
<g mask="url(#mask0)">
<path d="M372.856 314.743C372.856 392.252 306.414 455.086 224.452 455.086C142.491 455.086 76.0488 392.252 76.0488 314.743C76.0488 237.233 142.491 174.399 224.452 174.399C306.414 174.399 372.856 237.233 372.856 314.743Z" fill="#593E2F"/>
<g filter="url(#filter0_f)">
<path d="M366.889 346.51C366.889 390.764 328.954 426.639 282.158 426.639C235.363 426.639 197.428 390.764 197.428 346.51C197.428 302.257 235.363 266.382 282.158 266.382C328.954 266.382 366.889 302.257 366.889 346.51Z" fill="#352117"/>
</g>
<path d="M90.2221 163.53L229.246 97.4465C235.691 94.383 243.269 94.9154 249.222 98.8498L354.085 168.154C356.561 169.79 358.503 172.117 359.67 174.847L389.922 245.602C393.586 254.171 390.967 264.134 383.563 269.793L236.703 382.043C221.369 393.762 199.916 393.115 185.317 380.491L57.5286 269.993C51.0212 264.366 48.7505 255.257 51.855 247.234L79.97 174.576C81.8496 169.719 85.5183 165.766 90.2221 163.53Z" fill="#FAF6EB"/>
<g filter="url(#filter1_f)">
<path d="M229.7 270.629L351.19 191.395C353.907 189.623 357.565 190.808 358.727 193.836L380.567 250.778C381.375 252.884 380.701 255.27 378.912 256.643L257.045 350.111C254.219 352.279 250.099 350.95 249.071 347.541L227.607 276.365C226.954 274.2 227.807 271.864 229.7 270.629Z" fill="url(#paint0_linear)"/>
</g>
<g filter="url(#filter2_f)">
<path d="M100.408 177.389C91.7913 168.059 95.9416 163.979 99.0939 163.106C93.4785 164.462 85.2571 168.119 86.4954 177.044C88.2527 189.709 165.321 252.668 181.41 264.053C197.499 275.438 200.459 271.031 205.777 270.753C211.095 270.476 348.715 183.018 352.119 176.993C355.523 170.968 346.666 165.052 347.401 168.735C347.989 171.681 343.997 174.76 341.928 175.931C299.948 201.513 214.097 253.202 206.532 255.299C198.966 257.395 191.467 252.896 188.663 250.385C162.835 229.941 109.025 186.72 100.408 177.389Z" fill="white"/>
</g>
<g filter="url(#filter3_f)">
<path d="M180.564 372.943L170.412 364.151L191.837 268.827C192.995 263.677 197.558 260.01 202.837 259.988C207.839 259.967 212.262 263.23 213.717 268.016L246.047 374.33C226.639 389.667 199.204 389.086 180.564 372.943Z" fill="white"/>
</g>
<path d="M323.626 177.595C325.398 177.292 326.262 173.694 325.555 169.559C324.848 165.424 322.838 162.317 321.066 162.62C319.294 162.923 318.43 166.521 319.137 170.656C319.844 174.791 321.854 177.898 323.626 177.595Z" fill="#593E2F"/>
<path d="M330.272 238.34C332.049 238.067 332.973 234.484 332.335 230.337C331.697 226.191 329.739 223.051 327.962 223.324C326.185 223.598 325.261 227.181 325.899 231.327C326.537 235.474 328.495 238.614 330.272 238.34Z" fill="#593E2F"/>
<path d="M308.303 287.449C310.096 287.583 311.804 284.301 312.119 280.118C312.433 275.934 311.235 272.434 309.442 272.299C307.649 272.164 305.94 275.446 305.626 279.63C305.311 283.813 306.51 287.314 308.303 287.449Z" fill="#593E2F"/>
<path d="M99.6427 236.822C101.439 236.894 103.032 233.554 103.201 229.362C103.369 225.17 102.049 221.714 100.253 221.641C98.4564 221.569 96.8634 224.909 96.6949 229.101C96.5264 233.293 97.8462 236.75 99.6427 236.822Z" fill="#593E2F"/>
<path d="M138.518 283.863C140.881 283.459 142.142 279.301 141.335 274.574C140.527 269.848 137.956 266.344 135.593 266.748C133.23 267.152 131.969 271.311 132.777 276.037C133.585 280.763 136.155 284.267 138.518 283.863Z" fill="#593E2F"/>
<path d="M348.473 201.583C349.67 201.631 350.68 200.699 350.729 199.501C350.777 198.303 349.845 197.294 348.647 197.245C347.449 197.197 346.439 198.129 346.391 199.327C346.343 200.525 347.275 201.534 348.473 201.583Z" fill="#593E2F"/>
<path d="M304.407 253.792C305.605 253.84 306.634 252.423 306.706 250.626C306.779 248.83 305.866 247.335 304.669 247.286C303.471 247.238 302.441 248.656 302.369 250.452C302.297 252.249 303.209 253.744 304.407 253.792Z" fill="#593E2F"/>
<path d="M267.255 196.336C268.452 196.384 269.482 194.967 269.554 193.17C269.626 191.374 268.714 189.878 267.516 189.83C266.319 189.782 265.289 191.2 265.217 192.996C265.145 194.793 266.057 196.288 267.255 196.336Z" fill="#593E2F"/>
<path d="M364.438 249.237C365.636 249.285 366.666 247.867 366.738 246.071C366.81 244.274 365.898 242.779 364.7 242.731C363.502 242.683 362.473 244.1 362.4 245.896C362.328 247.693 363.241 249.188 364.438 249.237Z" fill="#593E2F"/>
<path d="M227.11 127.811C228.308 127.859 229.337 126.442 229.41 124.645C229.482 122.848 228.569 121.353 227.372 121.305C226.174 121.257 225.145 122.674 225.072 124.471C225 126.267 225.913 127.763 227.11 127.811Z" fill="#593E2F"/>
<path d="M69.6825 249.268C70.8802 249.316 71.9096 247.899 71.9819 246.102C72.0541 244.306 71.1417 242.81 69.944 242.762C68.7463 242.714 67.7168 244.131 67.6446 245.928C67.5724 247.724 68.4848 249.22 69.6825 249.268Z" fill="#593E2F"/>
<path d="M273.722 295.999C274.919 296.047 275.949 294.63 276.021 292.834C276.093 291.037 275.181 289.542 273.983 289.493C272.785 289.445 271.756 290.863 271.684 292.659C271.611 294.456 272.524 295.951 273.722 295.999Z" fill="#593E2F"/>
<path d="M235.608 283.209C236.806 283.257 237.835 281.84 237.908 280.043C237.98 278.247 237.067 276.752 235.87 276.703C234.672 276.655 233.643 278.073 233.57 279.869C233.498 281.666 234.411 283.161 235.608 283.209Z" fill="#593E2F"/>
<path d="M243.04 338.207C244.238 338.255 245.267 336.838 245.339 335.042C245.411 333.245 244.499 331.75 243.301 331.701C242.104 331.653 241.074 333.071 241.002 334.867C240.93 336.664 241.842 338.159 243.04 338.207Z" fill="#593E2F"/>
<path d="M104.768 171.51C105.966 171.558 106.996 170.141 107.068 168.344C107.14 166.548 106.228 165.052 105.03 165.004C103.832 164.956 102.803 166.373 102.731 168.17C102.658 169.966 103.571 171.462 104.768 171.51Z" fill="#593E2F"/>
<path d="M174.059 349.516C175.257 349.564 176.287 348.147 176.359 346.35C176.431 344.554 175.519 343.058 174.321 343.01C173.123 342.962 172.094 344.379 172.022 346.176C171.949 347.972 172.862 349.468 174.059 349.516Z" fill="#593E2F"/>
<path d="M177.682 310.454C179.478 310.526 181.013 308.643 181.109 306.247C181.205 303.852 179.827 301.851 178.03 301.779C176.234 301.707 174.699 303.59 174.603 305.986C174.507 308.381 175.885 310.381 177.682 310.454Z" fill="#593E2F"/>
<path d="M117.079 190.009C118.277 190.057 119.306 188.64 119.378 186.843C119.451 185.047 118.538 183.551 117.34 183.503C116.143 183.455 115.113 184.872 115.041 186.669C114.969 188.465 115.881 189.961 117.079 190.009Z" fill="#593E2F"/>
<path d="M96.2333 276.768C97.431 276.816 98.4604 275.399 98.5326 273.602C98.6049 271.806 97.6925 270.31 96.4948 270.262C95.2971 270.214 94.2676 271.631 94.1954 273.428C94.1232 275.224 95.0356 276.72 96.2333 276.768Z" fill="#593E2F"/>
<path d="M211.315 175.96C210.215 185.729 203.768 192.819 196.916 191.796C190.065 190.773 185.403 182.025 186.503 172.256C187.604 162.487 194.05 155.397 200.902 156.419C207.754 157.442 212.416 166.191 211.315 175.96Z" fill="white"/>
<mask id="mask1" mask-type="alpha" maskUnits="userSpaceOnUse" x="186" y="156" width="26" height="36">
<path d="M211.315 175.96C210.215 185.729 203.768 192.819 196.916 191.796C190.065 190.773 185.403 182.025 186.503 172.256C187.604 162.487 194.05 155.397 200.902 156.419C207.754 157.442 212.416 166.191 211.315 175.96Z" fill="white"/>
</mask>
<g mask="url(#mask1)">
<path d="M202.569 175.262C201.468 185.031 196.965 192.411 192.512 191.746C188.058 191.082 185.34 182.623 186.441 172.854C187.541 163.085 192.044 155.705 196.497 156.37C200.951 157.035 203.669 165.493 202.569 175.262Z" fill="#231F20"/>
</g>
<path fill-rule="evenodd" clip-rule="evenodd" d="M223.523 159.7C223.307 161.334 221.788 162.515 220.131 162.339L192.805 159.436C191.148 159.26 189.981 157.794 190.197 156.16C190.414 154.527 191.933 153.346 193.589 153.522L220.916 156.424C222.572 156.6 223.74 158.067 223.523 159.7Z" fill="#231F20"/>
<path fill-rule="evenodd" clip-rule="evenodd" d="M270.004 212.263C277.622 212.77 284.296 205.69 284.91 196.45C285.524 187.21 279.846 179.309 272.228 178.803C268.107 178.529 264.262 180.475 261.504 183.781C259.207 180.14 255.655 177.704 251.535 177.43C243.916 176.923 237.242 184.003 236.628 193.243C236.014 202.483 241.692 210.384 249.311 210.89C253.431 211.164 257.276 209.219 260.035 205.912C262.331 209.553 265.884 211.99 270.004 212.263Z" fill="#FFB1C2"/>
<path fill-rule="evenodd" clip-rule="evenodd" d="M247.632 189.834C248.376 189.261 249.444 189.4 250.017 190.144L256.264 198.252C256.837 198.996 256.699 200.063 255.955 200.637C255.211 201.21 254.143 201.071 253.57 200.327L247.323 192.219C246.75 191.475 246.888 190.408 247.632 189.834Z" fill="#231F20"/>
<path fill-rule="evenodd" clip-rule="evenodd" d="M263.92 190.523C264.664 189.95 265.731 190.088 266.305 190.832L272.551 198.94C273.124 199.684 272.986 200.752 272.242 201.325C271.498 201.898 270.43 201.76 269.857 201.016L263.61 192.908C263.037 192.164 263.176 191.096 263.92 190.523Z" fill="#231F20"/>
<path fill-rule="evenodd" clip-rule="evenodd" d="M175.532 210.202C181.944 210.628 187.56 204.67 188.077 196.894C188.594 189.118 183.816 182.468 177.404 182.042C173.936 181.812 170.7 183.449 168.379 186.232C166.446 183.169 163.456 181.119 159.99 180.888C153.578 180.462 147.962 186.421 147.445 194.197C146.928 201.973 151.707 208.622 158.118 209.048C161.586 209.278 164.822 207.641 167.143 204.858C169.076 207.921 172.066 209.971 175.532 210.202Z" fill="#FFB1C2"/>
<path fill-rule="evenodd" clip-rule="evenodd" d="M156.71 191.325C157.337 190.842 158.235 190.959 158.718 191.585L163.975 198.408C164.457 199.035 164.34 199.933 163.714 200.416C163.088 200.898 162.19 200.781 161.707 200.155L156.45 193.332C155.968 192.706 156.084 191.807 156.71 191.325Z" fill="#231F20"/>
<path fill-rule="evenodd" clip-rule="evenodd" d="M170.41 191.907C171.036 191.424 171.934 191.541 172.417 192.167L177.674 198.99C178.156 199.617 178.04 200.515 177.414 200.998C176.787 201.48 175.889 201.363 175.406 200.737L170.149 193.914C169.667 193.288 169.784 192.389 170.41 191.907Z" fill="#231F20"/>
<path fill-rule="evenodd" clip-rule="evenodd" d="M237.914 176.054L265.581 170.777C267.209 170.467 268.78 171.535 269.09 173.162C269.401 174.79 268.333 176.361 266.705 176.671L230.586 183.56C226.274 184.382 223.862 178.768 227.425 176.206L262.192 151.208C263.538 150.241 265.412 150.547 266.38 151.892C267.347 153.238 267.04 155.112 265.695 156.079L237.914 176.054Z" fill="#231F20"/>
<path fill-rule="evenodd" clip-rule="evenodd" d="M185.593 195.372C187.228 195.638 188.339 197.179 188.073 198.814C187.453 202.63 186.846 208.99 187.557 215.307C188.279 221.718 190.286 227.464 194.316 230.808C195.846 232.077 197.642 232.368 199.971 231.703C202.426 231.002 205.249 229.272 208.205 226.77C214.091 221.792 219.676 214.481 222.817 209.377C223.685 207.966 225.533 207.526 226.944 208.394C228.355 209.262 228.795 211.11 227.927 212.521C224.566 217.982 218.592 225.843 212.08 231.351C208.839 234.093 205.253 236.435 201.618 237.473C197.857 238.547 193.881 238.244 190.484 235.425C184.661 230.593 182.377 222.925 181.595 215.978C180.802 208.937 181.478 201.994 182.151 197.852C182.416 196.217 183.958 195.107 185.593 195.372Z" fill="#231F20"/>
<path fill-rule="evenodd" clip-rule="evenodd" d="M99.7263 366.099C98.8804 366.717 97.6939 366.532 97.0762 365.686C88.8248 354.387 84.4513 340.978 86.4653 330.505C86.6631 329.476 87.6572 328.803 88.6858 329.001C89.7144 329.199 90.3879 330.193 90.1901 331.221C88.4493 340.274 92.2303 352.619 100.139 363.449C100.757 364.295 100.572 365.481 99.7263 366.099Z" fill="white"/>
</g>
<path fill-rule="evenodd" clip-rule="evenodd" d="M348.515 144.746C348.632 143.926 349.392 143.356 350.212 143.473L350 144.958C350.212 143.473 350.213 143.473 350.214 143.473L350.215 143.474L350.221 143.474L350.236 143.477L350.291 143.485C350.336 143.492 350.402 143.503 350.485 143.517C350.653 143.545 350.893 143.588 351.199 143.648C351.808 143.768 352.677 143.958 353.731 144.24C355.837 144.803 358.701 145.735 361.734 147.219C367.779 150.177 374.666 155.419 377.321 164.444C377.555 165.239 377.1 166.072 376.305 166.306C375.51 166.54 374.677 166.085 374.443 165.29C372.12 157.393 366.067 152.68 360.415 149.914C357.599 148.536 354.927 147.665 352.957 147.138C351.974 146.876 351.17 146.7 350.618 146.591C350.342 146.537 350.128 146.499 349.987 146.475C349.916 146.463 349.864 146.455 349.83 146.45L349.794 146.444L349.788 146.443L349.787 146.443L349.787 146.443C348.968 146.325 348.398 145.566 348.515 144.746Z" fill="#231F20"/>
<path fill-rule="evenodd" clip-rule="evenodd" d="M353.488 135.814C353.591 134.992 354.341 134.409 355.163 134.512L354.977 136C355.163 134.512 355.162 134.512 355.163 134.512L355.167 134.512L355.174 134.513L355.197 134.516C355.217 134.519 355.244 134.522 355.278 134.527C355.346 134.537 355.444 134.551 355.569 134.571C355.819 134.611 356.18 134.672 356.635 134.762C357.544 134.94 358.832 135.23 360.374 135.68C363.452 136.578 367.57 138.12 371.699 140.701C372.401 141.14 372.615 142.065 372.176 142.768C371.737 143.47 370.811 143.684 370.109 143.245C366.275 140.848 362.428 139.404 359.534 138.56C358.089 138.139 356.889 137.869 356.056 137.705C355.64 137.624 355.316 137.568 355.1 137.534C354.992 137.517 354.911 137.505 354.858 137.498L354.802 137.49L354.791 137.489C354.79 137.489 354.791 137.489 354.791 137.489M353.488 135.814C353.386 136.636 353.969 137.386 354.791 137.489L353.488 135.814Z" fill="#231F20"/>
<defs>
<filter id="filter0_f" x="156.652" y="225.606" width="251.012" height="241.808" filterUnits="userSpaceOnUse" color-interpolation-filters="sRGB">
<feFlood flood-opacity="0" result="BackgroundImageFix"/>
<feBlend mode="normal" in="SourceGraphic" in2="BackgroundImageFix" result="shape"/>
<feGaussianBlur stdDeviation="20.3877" result="effect1_foregroundBlur"/>
</filter>
<filter id="filter1_f" x="212.112" y="175.288" width="184.07" height="191.154" filterUnits="userSpaceOnUse" color-interpolation-filters="sRGB">
<feFlood flood-opacity="0" result="BackgroundImageFix"/>
<feBlend mode="normal" in="SourceGraphic" in2="BackgroundImageFix" result="shape"/>
<feGaussianBlur stdDeviation="7.63852" result="effect1_foregroundBlur"/>
</filter>
<filter id="filter2_f" x="81.2955" y="158.03" width="276.682" height="118.868" filterUnits="userSpaceOnUse" color-interpolation-filters="sRGB">
<feFlood flood-opacity="0" result="BackgroundImageFix"/>
<feBlend mode="normal" in="SourceGraphic" in2="BackgroundImageFix" result="shape"/>
<feGaussianBlur stdDeviation="2.53782" result="effect1_foregroundBlur"/>
</filter>
<filter id="filter3_f" x="165.32" y="254.895" width="85.82" height="135.65" filterUnits="userSpaceOnUse" color-interpolation-filters="sRGB">
<feFlood flood-opacity="0" result="BackgroundImageFix"/>
<feBlend mode="normal" in="SourceGraphic" in2="BackgroundImageFix" result="shape"/>
<feGaussianBlur stdDeviation="2.54617" result="effect1_foregroundBlur"/>
</filter>
<linearGradient id="paint0_linear" x1="245.543" y1="209.84" x2="374.789" y2="311.878" gradientUnits="userSpaceOnUse">
<stop offset="0.114583" stop-color="#E8E1D0"/>
<stop offset="1" stop-color="#F4EFE0" stop-opacity="0"/>
</linearGradient>
</defs>
</svg>
