<svg width="430" height="430" viewBox="0 0 430 430" fill="none" xmlns="http://www.w3.org/2000/svg">
<path d="M430 215C430 333.741 333.741 430 215 430C96.2588 430 0 333.741 0 215C0 96.2588 96.2588 0 215 0C333.741 0 430 96.2588 430 215Z" fill="#FF845E"/>
<path d="M366.41 282.675C336.135 363.472 246.094 404.428 165.297 374.154C84.5004 343.88 43.5438 253.839 73.8182 173.042C104.093 92.2449 194.134 51.2883 274.93 81.5627C355.727 111.837 396.684 201.878 366.41 282.675Z" fill="#FFF584"/>
<path d="M360.345 280.402C331.325 357.85 245.016 397.109 167.569 368.09C90.1208 339.07 50.8619 252.761 79.8814 175.314C108.901 97.8659 195.21 58.607 272.657 87.6264C350.105 116.646 389.364 202.955 360.345 280.402Z" fill="#FFE600"/>
<path d="M345.185 274.722C319.303 343.797 242.325 378.812 173.25 352.93C104.175 327.047 69.1601 250.069 95.0423 180.994C120.925 111.919 197.903 76.9045 266.978 102.787C336.053 128.669 371.067 205.647 345.185 274.722Z" fill="#FFF36C"/>
<path fill-rule="evenodd" clip-rule="evenodd" d="M339.776 275.249C340.068 274.509 340.355 273.766 340.635 273.018C365.576 206.455 331.835 132.276 265.271 107.335C198.708 82.3935 124.529 116.135 99.5883 182.698C74.6472 249.261 108.389 323.44 174.952 348.381C175.69 348.658 176.43 348.927 177.17 349.19C114.463 324.373 82.9481 253.782 106.71 190.365C130.745 126.222 202.226 93.7077 266.369 117.742C329.795 141.507 362.296 211.667 339.776 275.249Z" fill="#FFDB1E"/>
<path fill-rule="evenodd" clip-rule="evenodd" d="M207.558 125.637C207.729 127.489 206.366 129.129 204.514 129.299C180.838 131.481 164.645 142.404 154.333 152.801C149.168 158.008 145.486 163.078 143.103 166.832C141.913 168.708 141.05 170.25 140.491 171.309C140.211 171.839 140.008 172.247 139.878 172.515C139.813 172.649 139.766 172.749 139.737 172.81C139.723 172.841 139.713 172.863 139.708 172.875L139.705 172.881C139.705 172.882 139.704 172.883 139.704 172.884C139.704 172.884 139.703 172.885 139.703 172.885L139.703 172.885C138.944 174.581 136.954 175.342 135.257 174.584C133.558 173.826 132.796 171.835 133.554 170.136L136.629 171.509C133.554 170.136 133.555 170.135 133.555 170.133L133.557 170.128L133.562 170.117L133.578 170.083C133.59 170.055 133.608 170.018 133.629 169.971C133.673 169.877 133.735 169.746 133.816 169.578C133.978 169.244 134.217 168.766 134.534 168.165C135.168 166.963 136.121 165.264 137.416 163.223C140.005 159.144 143.98 153.674 149.55 148.058C160.709 136.808 178.303 124.95 203.896 122.592C205.748 122.421 207.388 123.784 207.558 125.637Z" fill="white"/>
<path fill-rule="evenodd" clip-rule="evenodd" d="M165.999 95.6777C166.67 97.4121 165.809 99.3628 164.075 100.035C156.581 102.937 150.207 106.73 144.85 110.808C143.37 111.935 141.257 111.649 140.131 110.169C139.004 108.689 139.29 106.576 140.77 105.449C146.577 101.029 153.499 96.9075 161.642 93.7535C163.376 93.0817 165.327 93.9432 165.999 95.6777Z" fill="white"/>
<path d="M311.645 267.342C293.292 316.322 238.708 341.151 189.727 322.798C140.747 304.445 115.918 249.861 134.271 200.88C152.624 151.9 207.208 127.071 256.189 145.424C305.169 163.777 329.998 218.361 311.645 267.342Z" fill="#FFF04A"/>
<path fill-rule="evenodd" clip-rule="evenodd" d="M301.993 265.376C302.182 264.898 302.368 264.417 302.549 263.933C319.019 219.976 296.737 170.99 252.78 154.52C208.824 138.049 159.837 160.331 143.367 204.288C126.896 248.245 149.179 297.231 193.135 313.702C193.623 313.884 194.11 314.062 194.599 314.235C153.19 297.846 132.38 251.23 148.071 209.352C163.943 166.993 211.148 145.521 253.506 161.393C295.381 177.083 316.844 223.396 301.993 265.376Z" fill="#FFDB1E"/>
<path d="M168.328 368.374C245.357 397.237 331.199 358.19 360.062 281.161L220.588 228.9L168.328 368.374Z" fill="#FFB1C2"/>
<path d="M170.032 363.826C244.549 391.747 327.592 353.974 355.513 279.457L220.588 228.9L170.032 363.826Z" fill="#FFA0B5"/>
<path d="M220.588 228.9L170.032 363.826C175.678 365.942 181.374 367.68 187.09 369.054L220.588 228.9Z" fill="#FF7E99"/>
<path fill-rule="evenodd" clip-rule="evenodd" d="M199.36 191.115L212.909 187.582C214.71 187.112 216.551 188.191 217.02 189.992C217.49 191.793 216.411 193.634 214.61 194.104L192.587 199.846C187.286 201.228 183.938 194.312 188.31 191.011L211.162 173.76C212.647 172.639 214.76 172.934 215.882 174.42C217.003 175.905 216.708 178.018 215.222 179.14L199.36 191.115Z" fill="#231F20"/>
<path d="M167.52 217.967C161.731 220.476 153.875 215.209 149.973 206.203C146.071 197.197 147.601 187.864 153.391 185.355C159.18 182.847 167.036 188.114 170.938 197.119C174.84 206.125 173.31 215.459 167.52 217.967Z" fill="white"/>
<path d="M150.385 188.057C154.888 188.873 160.906 193.182 163.933 200.171C166.961 207.159 166.455 214.887 163.971 218.73C159.007 218.796 152.985 213.215 149.957 206.226C146.929 199.238 146.735 192.405 150.385 188.057Z" fill="#231F20"/>
<path fill-rule="evenodd" clip-rule="evenodd" d="M147.632 186.892C147.978 188.721 149.74 189.923 151.569 189.577L174.797 185.187C176.626 184.841 177.829 183.078 177.483 181.249C177.137 179.421 175.374 178.218 173.546 178.564L150.317 182.955C148.489 183.3 147.286 185.063 147.632 186.892Z" fill="#231F20"/>
<path fill-rule="evenodd" clip-rule="evenodd" d="M201.63 219.13C200.004 219.216 198.755 220.604 198.84 222.23C199.03 225.836 198.95 231.803 197.651 237.593C196.333 243.474 193.894 248.574 189.85 251.248C188.344 252.243 186.694 252.337 184.626 251.495C182.439 250.604 180.004 248.724 177.512 246.103C172.552 240.887 168.103 233.53 165.702 228.47C165.004 226.999 163.245 226.372 161.774 227.071C160.302 227.769 159.676 229.528 160.374 230.999C162.952 236.431 167.722 244.366 173.238 250.166C175.982 253.053 179.099 255.612 182.402 256.957C185.826 258.351 189.608 258.477 193.102 256.167C199.058 252.23 201.971 245.282 203.406 238.884C204.861 232.395 204.936 225.851 204.73 221.92C204.644 220.294 203.256 219.045 201.63 219.13Z" fill="#231F20"/>
<path fill-rule="evenodd" clip-rule="evenodd" d="M233.003 234.017C235.939 236.778 239.729 238.153 243.527 237.435C250.551 236.107 254.939 228.126 253.329 219.607C251.719 211.089 244.72 205.26 237.697 206.587C233.896 207.306 230.867 209.972 229.143 213.618C226.207 210.857 222.417 209.482 218.619 210.2C211.595 211.528 207.206 219.509 208.817 228.028C210.427 236.546 217.426 242.375 224.449 241.048C228.25 240.329 231.279 237.663 233.003 234.017Z" fill="#FD476D"/>
<path fill-rule="evenodd" clip-rule="evenodd" d="M243.21 216.876C242.01 216.163 240.459 216.558 239.746 217.758L234.853 225.996C234.14 227.196 234.535 228.747 235.735 229.46C236.935 230.173 238.486 229.778 239.199 228.578L244.093 220.34C244.805 219.14 244.41 217.589 243.21 216.876Z" fill="#231F20"/>
<path fill-rule="evenodd" clip-rule="evenodd" d="M228.134 219.366C226.934 218.653 225.383 219.048 224.67 220.248L219.777 228.487C219.064 229.687 219.459 231.237 220.659 231.95C221.859 232.663 223.41 232.268 224.123 231.068L229.016 222.83C229.729 221.63 229.334 220.079 228.134 219.366Z" fill="#231F20"/>
<path fill-rule="evenodd" clip-rule="evenodd" d="M138.001 246.286C140.936 249.046 144.726 250.42 148.523 249.702C155.547 248.375 159.935 240.393 158.325 231.875C156.715 223.357 149.716 217.527 142.693 218.855C138.893 219.573 135.864 222.239 134.14 225.884C131.204 223.124 127.414 221.75 123.617 222.468C116.594 223.795 112.205 231.777 113.815 240.295C115.425 248.814 122.424 254.643 129.448 253.315C133.248 252.597 136.276 249.931 138.001 246.286Z" fill="#FD476D"/>
<path fill-rule="evenodd" clip-rule="evenodd" d="M148.216 229.159C147.016 228.446 145.465 228.841 144.752 230.041L139.859 238.279C139.146 239.48 139.541 241.03 140.741 241.743C141.941 242.456 143.492 242.061 144.205 240.861L149.098 232.623C149.811 231.423 149.416 229.872 148.216 229.159Z" fill="#231F20"/>
<path fill-rule="evenodd" clip-rule="evenodd" d="M133.144 231.636C131.944 230.923 130.393 231.318 129.68 232.518L124.786 240.756C124.074 241.956 124.468 243.507 125.669 244.22C126.869 244.933 128.42 244.538 129.133 243.338L134.026 235.1C134.739 233.9 134.344 232.349 133.144 231.636Z" fill="#231F20"/>
<path fill-rule="evenodd" clip-rule="evenodd" d="M299.515 70.7461C299.632 69.926 300.392 69.3561 301.212 69.4733L301 70.9582C301.212 69.4733 301.213 69.4734 301.214 69.4735L301.215 69.4737L301.221 69.4745L301.236 69.4768L301.291 69.4851C301.336 69.4922 301.402 69.5026 301.485 69.5167C301.653 69.5449 301.893 69.5877 302.199 69.6479C302.808 69.7683 303.677 69.9583 304.731 70.2401C306.837 70.8026 309.701 71.7354 312.734 73.2194C318.779 76.1774 325.666 81.4188 328.321 90.4439C328.555 91.2387 328.1 92.0724 327.305 92.3062C326.51 92.5399 325.677 92.0852 325.443 91.2904C323.12 83.3929 317.067 78.6798 311.415 75.914C308.599 74.5361 305.927 73.6646 303.957 73.1384C302.974 72.8757 302.17 72.7003 301.618 72.5912C301.342 72.5367 301.128 72.4988 300.987 72.475C300.916 72.4631 300.864 72.4547 300.83 72.4495L300.794 72.444L300.788 72.4431L300.787 72.443L300.787 72.443C299.968 72.3254 299.398 71.5659 299.515 70.7461Z" fill="#231F20"/>
<path fill-rule="evenodd" clip-rule="evenodd" d="M304.488 61.8141C304.591 60.9921 305.341 60.409 306.163 60.5117L305.977 62.0002C306.163 60.5117 306.162 60.5117 306.163 60.5117L306.167 60.5123L306.174 60.5132L306.197 60.5162C306.217 60.5188 306.244 60.5224 306.278 60.5273C306.346 60.5369 306.444 60.5513 306.569 60.5711C306.819 60.6108 307.18 60.6723 307.635 60.7616C308.544 60.9402 309.832 61.2303 311.374 61.68C314.452 62.5779 318.57 64.1201 322.699 66.7008C323.401 67.1399 323.615 68.0653 323.176 68.7678C322.737 69.4703 321.811 69.6839 321.109 69.2448C317.275 66.8484 313.428 65.4042 310.534 64.56C309.089 64.1387 307.889 63.869 307.056 63.7053C306.64 63.6236 306.316 63.5684 306.1 63.5342C305.992 63.5171 305.911 63.5052 305.858 63.4978L305.802 63.4901L305.791 63.4886C305.79 63.4886 305.791 63.4886 305.791 63.4886M304.488 61.8141C304.386 62.6359 304.969 63.3855 305.791 63.4886L304.488 61.8141Z" fill="#231F20"/>
</svg>
