<svg width="430" height="430" viewBox="0 0 430 430" fill="none" xmlns="http://www.w3.org/2000/svg">
<path d="M430 215C430 333.741 333.741 430 215 430C96.2588 430 0 333.741 0 215C0 96.2588 96.2588 0 215 0C333.741 0 430 96.2588 430 215Z" fill="#4CE6B7"/>
<path d="M47.8187 209.286C47.8187 209.286 32.274 281.18 61.4203 306.44C90.5665 331.701 191.603 360.917 191.603 360.917L179.948 290.896L47.8187 209.286Z" fill="#FF9900"/>
<path d="M382.032 222.888C382.032 222.888 388.146 225.35 384.115 212.391C381.572 204.215 371.309 181.648 364.544 174.505C349.194 158.766 362.99 137.586 364.933 123.985C367.07 110.383 357.355 96.7817 335.981 98.5304C318.104 100.085 289.152 133.895 280.02 145.164C278.077 144.776 275.939 144.193 273.608 143.804C260.589 134.089 238.244 119.127 205.017 102.417C151.193 75.4077 132.734 127.482 130.402 135.255C87.0715 149.051 31.8879 186.747 52.4846 228.911C64.3374 253.006 100.479 266.024 123.602 275.351C136.62 280.598 149.833 285.261 163.24 289.536C164.795 289.924 178.979 295.754 180.145 294.588L185.975 288.758L318.687 236.684C318.299 245.816 317.521 251.646 317.521 251.646L382.032 222.888Z" fill="#FFBC58"/>
<path d="M225.417 203.068L225.029 201.513C224.834 200.931 224.64 200.542 224.446 199.959C222.697 195.684 219.394 192.77 216.09 190.632C212.787 188.495 209.095 187.135 205.403 185.969C201.712 184.803 198.02 184.026 194.328 183.443C188.304 182.471 182.281 181.888 176.063 181.694L176.84 179.751C177.423 177.808 178.2 175.865 178.783 173.727C179.949 169.647 180.532 165.372 180.338 160.903C180.143 156.434 178.395 151.965 175.48 148.662C172.371 145.358 168.485 143.221 164.404 141.861C156.243 139.335 148.082 139.14 139.921 139.723C131.76 140.306 123.794 141.666 116.021 143.804C123.988 142.444 131.955 141.861 139.921 141.861C143.808 141.861 147.888 142.055 151.774 142.638C155.66 143.027 159.547 143.998 163.044 145.358C166.542 146.718 169.845 148.662 171.982 151.576C174.314 154.296 175.286 157.794 175.48 161.486C175.48 168.87 172.954 176.253 169.456 183.248L167.513 186.94L171.788 187.135C178.783 187.329 186.167 188.106 192.968 189.272C199.963 190.632 206.958 192.381 212.593 195.879C215.313 197.627 217.645 199.765 218.616 202.485C219.782 205.011 219.394 208.12 218.422 211.229C217.256 214.144 215.507 217.252 213.37 219.973C212.787 220.75 212.399 221.333 211.816 222.11L210.067 224.053C208.901 225.413 207.735 226.774 206.375 227.939C203.849 230.465 201.323 233.186 198.797 235.712C196.271 238.238 193.745 240.764 191.025 243.095L186.944 246.787L182.864 250.285C180.143 252.617 177.229 254.754 174.508 257.086C163.044 265.83 150.803 273.991 137.395 279.431C144.391 277.488 151.191 274.379 157.798 271.076C164.21 267.773 170.622 263.887 176.646 259.806C182.669 255.531 188.499 251.256 194.134 246.399C199.768 241.735 205.209 236.683 210.455 231.437C211.816 230.077 213.176 228.911 214.342 227.357L216.285 225.219C216.868 224.442 217.451 223.665 218.033 223.082C220.365 220.167 222.503 216.864 224.057 212.978C224.834 211.035 225.223 209.091 225.417 206.76C225.417 205.205 225.612 204.234 225.417 203.068Z" fill="#FFA71A"/>
<path fill-rule="evenodd" clip-rule="evenodd" d="M139.84 138.584C148.068 137.996 156.389 138.184 164.742 140.769L164.766 140.777C168.978 142.181 173.043 144.405 176.312 147.878C176.32 147.887 176.329 147.896 176.337 147.906C179.431 151.413 181.274 156.134 181.479 160.853C181.679 165.453 181.079 169.849 179.884 174.035C179.583 175.138 179.233 176.185 178.893 177.181C178.842 177.329 178.792 177.476 178.742 177.621C178.453 178.467 178.176 179.273 177.935 180.079C177.925 180.112 177.914 180.144 177.901 180.175L177.726 180.612C183.419 180.853 188.963 181.42 194.507 182.314C198.237 182.903 201.987 183.692 205.748 184.879C209.463 186.053 213.275 187.45 216.711 189.673C220.108 191.871 223.629 194.945 225.503 199.526C225.513 199.55 225.522 199.574 225.53 199.598C225.615 199.853 225.7 200.068 225.798 200.312L225.801 200.32C225.897 200.56 226.005 200.829 226.113 201.152C226.122 201.18 226.13 201.208 226.137 201.236L226.526 202.791C226.533 202.82 226.539 202.85 226.544 202.88C226.661 203.579 226.657 204.205 226.632 204.816C226.624 204.999 226.615 205.178 226.605 205.357C226.583 205.792 226.56 206.231 226.56 206.76C226.56 206.791 226.559 206.823 226.556 206.855C226.355 209.265 225.948 211.326 225.118 213.402C223.512 217.418 221.308 220.818 218.926 223.795C218.899 223.828 218.871 223.86 218.841 223.89C218.328 224.403 217.796 225.109 217.199 225.905C217.177 225.933 217.154 225.961 217.13 225.988L215.223 228.086C214.298 229.309 213.238 230.331 212.226 231.306C211.898 231.622 211.575 231.933 211.263 232.245C206 237.508 200.536 242.583 194.871 247.271C189.197 252.162 183.334 256.46 177.307 260.738L177.287 260.752C171.232 264.854 164.78 268.764 158.321 272.092L158.309 272.098C151.687 275.409 144.806 278.558 137.701 280.532C137.118 280.694 136.509 280.373 136.314 279.799C136.119 279.226 136.405 278.6 136.966 278.372C150.226 272.992 162.365 264.909 173.79 256.197C175.159 255.024 176.573 253.903 177.968 252.797L177.976 252.79C179.388 251.671 180.779 250.567 182.12 249.417L186.189 245.93L190.258 242.248C190.266 242.241 190.273 242.235 190.281 242.228C192.963 239.93 195.458 237.435 197.989 234.904C199.243 233.65 200.499 232.346 201.763 231.033L201.768 231.028C203.028 229.719 204.297 228.402 205.567 227.132C205.588 227.111 205.609 227.091 205.632 227.072C206.914 225.973 208.024 224.681 209.199 223.31C209.205 223.303 209.212 223.296 209.218 223.289L210.932 221.384C211.201 221.024 211.429 220.706 211.663 220.377L211.666 220.374C211.907 220.036 212.157 219.687 212.456 219.287L212.472 219.267C214.53 216.648 216.218 213.651 217.345 210.846C218.285 207.821 218.556 205.079 217.579 202.964C217.565 202.933 217.552 202.901 217.541 202.869C216.697 200.509 214.627 198.546 211.983 196.844C206.544 193.471 199.739 191.753 192.762 190.396C186.014 189.24 178.689 188.469 171.756 188.277L171.736 188.276L167.462 188.082C167.071 188.064 166.717 187.848 166.522 187.508C166.328 187.169 166.32 186.754 166.502 186.408L168.44 182.727C171.892 175.82 174.331 168.635 174.338 161.516C174.147 157.985 173.22 154.776 171.115 152.32C171.096 152.298 171.078 152.275 171.061 152.252C169.108 149.588 166.035 147.747 162.63 146.423C159.224 145.098 155.438 144.153 151.661 143.775C151.642 143.773 151.623 143.771 151.605 143.768C147.793 143.196 143.774 143.003 139.922 143.003C132.011 143.003 124.109 143.582 116.214 144.93C115.614 145.032 115.038 144.646 114.906 144.052C114.774 143.457 115.132 142.864 115.719 142.702C123.565 140.545 131.605 139.172 139.84 138.584ZM141.993 140.737C145.273 140.799 148.655 141.016 151.916 141.504C155.901 141.905 159.878 142.901 163.458 144.293C167.036 145.685 170.557 147.72 172.878 150.866C175.409 153.838 176.42 157.599 176.621 161.426C176.622 161.446 176.623 161.466 176.623 161.486C176.623 169.121 174.014 176.689 170.478 183.759L170.467 183.781L169.362 185.881L171.83 185.993C178.88 186.189 186.314 186.972 193.161 188.146L193.186 188.15C200.191 189.513 207.368 191.291 213.195 194.908L213.211 194.917C215.989 196.703 218.566 198.999 219.675 202.053C220.999 204.97 220.5 208.411 219.513 211.57C219.504 211.598 219.494 211.626 219.483 211.653C218.28 214.662 216.48 217.862 214.277 220.668C213.998 221.041 213.764 221.368 213.523 221.706L213.52 221.709C213.279 222.047 213.029 222.396 212.73 222.796C212.709 222.823 212.688 222.849 212.665 222.874L210.925 224.807L210.908 224.828C209.769 226.157 208.565 227.561 207.153 228.778C205.909 230.022 204.663 231.316 203.409 232.618L203.406 232.621C202.145 233.93 200.876 235.249 199.605 236.52L199.59 236.535C197.077 239.047 194.529 241.596 191.78 243.953L187.711 247.635C187.703 247.641 187.696 247.648 187.688 247.655L183.607 251.152C182.231 252.332 180.808 253.461 179.405 254.574L179.396 254.58C177.984 255.7 176.593 256.804 175.252 257.953C175.242 257.962 175.231 257.971 175.221 257.979C175.214 257.984 175.208 257.989 175.201 257.994C170.693 261.433 166.056 264.789 161.267 267.929C166.286 265.159 171.259 262.075 175.995 258.867C182.008 254.6 187.798 250.352 193.388 245.533L193.405 245.519C199.007 240.883 204.421 235.856 209.648 230.629C210.025 230.252 210.388 229.902 210.739 229.563C211.726 228.611 212.616 227.754 213.428 226.671C213.449 226.642 213.472 226.615 213.496 226.588L215.403 224.49C215.95 223.761 216.556 222.954 217.179 222.321C219.446 219.481 221.502 216.289 222.996 212.553C223.715 210.756 224.086 208.943 224.275 206.711C224.276 206.138 224.303 205.624 224.326 205.183C224.335 205.018 224.343 204.864 224.349 204.721C224.371 204.182 224.368 203.75 224.297 203.298L223.931 201.835C223.851 201.596 223.769 201.392 223.676 201.161L223.673 201.152C223.581 200.922 223.478 200.665 223.375 200.358C221.747 196.408 218.67 193.662 215.47 191.591C212.3 189.54 208.728 188.217 205.06 187.058C201.437 185.914 197.804 185.148 194.15 184.571L194.146 184.571C188.171 183.607 182.196 183.029 176.027 182.836C175.655 182.824 175.311 182.632 175.107 182.32C174.903 182.008 174.864 181.616 175.002 181.27L175.761 179.373C176.013 178.537 176.3 177.701 176.583 176.874C176.632 176.73 176.682 176.586 176.731 176.443C177.07 175.45 177.4 174.458 177.681 173.427L177.685 173.413L177.685 173.413C178.82 169.441 179.385 165.289 179.196 160.953C179.013 156.74 177.363 152.529 174.635 149.431C171.692 146.309 167.994 144.263 164.055 142.948C156.744 140.688 149.405 140.333 141.993 140.737Z" fill="#FFA71A"/>
<path d="M341.227 217.059C341.227 217.059 343.364 170.813 280.214 145.359L273.607 143.805C273.607 143.61 343.17 176.254 341.227 217.059Z" fill="#FFA71A"/>
<path d="M130.48 135.271C142.139 131.968 154.885 127.287 166.932 126.121C169.846 125.733 172.955 125.538 176.064 125.344L180.533 125.15L185.002 124.955C191.026 124.761 197.05 124.955 203.267 125.15C209.291 125.538 215.315 125.927 221.338 126.899C224.447 127.287 227.362 127.676 230.276 128.259C233.191 128.842 236.3 129.425 239.214 130.008C251.067 132.922 262.531 137.197 273.024 143.22C261.56 139.529 249.901 136.614 238.243 134.477C232.414 133.699 226.584 132.534 220.561 132.145C214.732 131.368 208.708 131.173 202.684 130.785C196.661 130.59 190.832 130.396 184.808 130.396H180.339H175.87C172.955 130.396 169.846 130.396 166.932 130.59C155.273 130.979 142.528 134.3 130.48 135.271Z" fill="#FFA71A"/>
<path d="M179.947 302.943V344.331C179.947 355.795 191.8 363.179 202.098 358.321L375.033 277.683C380.474 275.157 383.971 269.716 383.971 263.693V225.414C383.971 214.144 380.668 204.623 370.37 209.286L189.274 288.564C183.639 291.09 179.947 296.725 179.947 302.943Z" fill="white"/>
<path d="M179.671 323.851C179.671 323.851 201.045 302.477 216.589 310.249C232.134 318.022 245.736 308.306 251.565 298.591C257.394 288.876 272.939 269.445 294.313 273.331C315.687 277.217 329.288 267.502 337.061 259.729C344.833 251.957 368.15 242.241 375.923 246.128C383.695 250.014 382.723 245.35 382.723 245.35L383.695 217.176L377.891 207.236L350.857 218.536L185.889 291.207L179.477 298.591V319.965L179.671 323.851Z" fill="#76381C"/>
<path d="M211.039 298.668C212.112 298.668 212.982 297.363 212.982 295.753C212.982 294.144 212.112 292.839 211.039 292.839C209.966 292.839 209.096 294.144 209.096 295.753C209.096 297.363 209.966 298.668 211.039 298.668Z" fill="#652F17"/>
<path d="M247.957 277.294C249.03 277.294 249.9 275.989 249.9 274.379C249.9 272.77 249.03 271.465 247.957 271.465C246.884 271.465 246.014 272.77 246.014 274.379C246.014 275.989 246.884 277.294 247.957 277.294Z" fill="#652F17"/>
<path d="M280.988 263.693C282.061 263.693 282.931 262.388 282.931 260.778C282.931 259.168 282.061 257.863 280.988 257.863C279.915 257.863 279.045 259.168 279.045 260.778C279.045 262.388 279.915 263.693 280.988 263.693Z" fill="#652F17"/>
<path d="M343.168 236.488C344.241 236.488 345.111 235.184 345.111 233.574C345.111 231.964 344.241 230.659 343.168 230.659C342.095 230.659 341.225 231.964 341.225 233.574C341.225 235.184 342.095 236.488 343.168 236.488Z" fill="#652F17"/>
<path d="M356.767 246.204C357.84 246.204 358.71 244.899 358.71 243.29C358.71 241.68 357.84 240.375 356.767 240.375C355.694 240.375 354.824 241.68 354.824 243.29C354.824 244.899 355.694 246.204 356.767 246.204Z" fill="#652F17"/>
<path d="M261.556 269.522C262.63 269.522 263.499 268.652 263.499 267.579C263.499 266.506 262.63 265.636 261.556 265.636C260.483 265.636 259.613 266.506 259.613 267.579C259.613 268.652 260.483 269.522 261.556 269.522Z" fill="#652F17"/>
<path d="M308.189 269.522C309.262 269.522 310.132 268.652 310.132 267.579C310.132 266.506 309.262 265.636 308.189 265.636C307.116 265.636 306.246 266.506 306.246 267.579C306.246 268.652 307.116 269.522 308.189 269.522Z" fill="#652F17"/>
<path d="M333.453 246.205C334.526 246.205 335.396 245.335 335.396 244.261C335.396 243.188 334.526 242.318 333.453 242.318C332.38 242.318 331.51 243.188 331.51 244.261C331.51 245.335 332.38 246.205 333.453 246.205Z" fill="#652F17"/>
<path d="M234.353 304.497C235.426 304.497 236.296 303.192 236.296 301.583C236.296 299.973 235.426 298.668 234.353 298.668C233.28 298.668 232.41 299.973 232.41 301.583C232.41 303.192 233.28 304.497 234.353 304.497Z" fill="#652F17"/>
<path d="M195.951 361.307C192.647 361.307 189.344 360.336 186.624 358.587C181.572 355.284 178.463 349.843 178.463 343.82V302.432C178.463 295.631 182.543 289.219 188.761 286.499L370.051 207.026C374.132 205.278 377.435 205.278 380.349 207.026C385.401 210.33 386.373 218.685 386.373 225.097V263.182C386.373 269.982 382.487 276.2 376.269 279.115L203.334 359.753C201.003 360.725 198.477 361.307 195.951 361.307ZM375.686 209.747C374.52 209.747 373.16 210.135 371.606 210.718L190.316 290.19C185.458 292.328 182.349 297.186 182.349 302.626V344.014C182.349 348.677 184.681 352.952 188.567 355.478C192.453 358.004 197.311 358.393 201.586 356.255L374.52 275.617C379.378 273.48 382.293 268.622 382.293 263.376V225.097C382.293 217.519 380.738 212.078 378.018 210.33C377.435 209.941 376.658 209.747 375.686 209.747Z" fill="#FFCC7E"/>
<path d="M228.996 288.827C230.307 288.254 231.075 286.112 230.711 284.044C230.348 281.976 228.991 280.764 227.68 281.338C226.369 281.911 225.601 284.053 225.965 286.121C226.328 288.189 227.685 289.401 228.996 288.827Z" fill="white"/>
<path d="M229.565 287.399C229.442 287.399 229.442 287.399 229.319 287.205C229.196 287.01 229.196 286.622 229.319 286.427C230.304 284.873 229.442 283.318 229.319 283.318C229.196 283.124 229.196 282.736 229.319 282.541C229.442 282.347 229.688 282.347 229.812 282.541C230.304 283.318 230.92 285.262 229.812 287.205C229.812 287.399 229.688 287.399 229.565 287.399Z" fill="#E2E2E2"/>
<path d="M372.354 228.781C373.18 226.937 372.727 224.552 371.34 223.453C369.954 222.353 368.16 222.956 367.333 224.8C366.506 226.643 366.96 229.029 368.346 230.128C369.733 231.228 371.527 230.624 372.354 228.781Z" fill="white"/>
<path d="M369.48 229.882C369.48 229.882 369.334 229.688 369.334 229.494C369.334 229.299 369.48 229.105 369.772 229.105C371.38 229.105 371.526 227.162 371.526 226.968C371.526 226.773 371.672 226.579 371.964 226.579C372.111 226.579 372.257 226.773 372.257 227.162C372.257 228.328 371.672 230.465 369.772 230.271C369.626 229.882 369.626 229.882 369.48 229.882Z" fill="#E2E2E2"/>
<path d="M319.398 263.428C322.789 262.281 324.776 257.999 323.836 253.862C322.895 249.726 319.384 247.303 315.992 248.45C312.601 249.597 310.614 253.879 311.554 258.016C312.495 262.152 316.006 264.575 319.398 263.428Z" fill="white"/>
<path d="M320.882 260.777C320.723 260.777 320.404 260.777 320.245 260.583C319.926 260.195 319.926 259.612 320.245 259.223C322.794 256.114 320.563 253.199 320.245 252.811C319.926 252.422 319.926 251.839 320.245 251.451C320.563 251.062 321.041 251.062 321.36 251.451C322.635 253.005 324.387 256.891 321.36 260.583C321.36 260.583 321.201 260.777 320.882 260.777Z" fill="#E2E2E2"/>
<path d="M259.613 168.481C261.168 167.315 262.917 166.732 264.665 166.732C266.608 166.538 268.551 166.927 270.3 168.092C270.689 168.481 271.077 168.87 271.66 169.064C272.049 169.453 272.438 169.841 272.632 170.424C273.215 171.396 273.409 172.756 273.215 173.922C272.632 176.253 271.077 177.614 269.329 178.196C269.912 176.448 270.3 174.893 270.106 173.727C269.912 172.562 269.329 171.979 268.357 171.201C267.386 170.618 266.025 170.036 264.471 169.647C263.111 169.258 261.556 168.87 259.613 168.481Z" fill="#FFA71A"/>
<path fill-rule="evenodd" clip-rule="evenodd" d="M258.499 168.734C258.399 168.294 258.567 167.837 258.928 167.567C260.652 166.274 262.618 165.602 264.608 165.59C266.767 165.385 268.959 165.825 270.934 167.142C270.997 167.183 271.055 167.231 271.108 167.284C271.517 167.693 271.73 167.883 272.022 167.98C272.19 168.036 272.343 168.131 272.468 168.256C272.482 168.27 272.496 168.283 272.51 168.297C272.861 168.648 273.381 169.167 273.672 169.94C274.369 171.17 274.566 172.762 274.342 174.109C274.337 174.139 274.331 174.169 274.323 174.199C273.637 176.944 271.774 178.585 269.69 179.28C269.279 179.417 268.827 179.31 268.521 179.004C268.215 178.698 268.108 178.246 268.245 177.835C268.837 176.057 269.12 174.762 268.979 173.915C268.91 173.504 268.785 173.239 268.609 173.004C268.42 172.752 268.147 172.499 267.704 172.142C266.84 171.634 265.612 171.11 264.194 170.755C264.182 170.752 264.169 170.749 264.157 170.745C262.827 170.365 261.302 169.984 259.389 169.601C258.947 169.513 258.599 169.173 258.499 168.734ZM268.357 171.201C269.329 171.978 269.912 172.561 270.106 173.727C270.245 174.564 270.084 175.602 269.767 176.768C269.642 177.226 269.493 177.703 269.329 178.196C269.821 178.032 270.298 177.806 270.743 177.514C271.876 176.77 272.796 175.597 273.215 173.922C273.409 172.756 273.215 171.396 272.632 170.424C272.438 169.841 272.049 169.452 271.66 169.064C271.077 168.87 270.689 168.481 270.3 168.092C268.551 166.926 266.608 166.538 264.665 166.732C263.428 166.732 262.191 167.024 261.022 167.608C260.539 167.849 260.068 168.14 259.613 168.481C260.168 168.592 260.691 168.703 261.187 168.814C262.428 169.091 263.499 169.369 264.471 169.647C266.025 170.035 267.386 170.618 268.357 171.201Z" fill="#FFA71A"/>
<path d="M205.6 156.046C208.126 154.88 210.846 154.103 213.566 154.103C216.481 154.103 219.396 154.685 221.922 156.434C222.504 156.823 223.087 157.406 223.67 157.989C224.059 158.572 224.836 159.155 225.03 159.932L225.613 161.098C225.808 161.486 225.808 161.875 225.808 162.263C226.002 163.041 225.808 164.012 225.808 164.79C225.225 168.093 223.087 170.23 220.561 171.59C221.727 169.064 222.893 166.733 222.699 164.595C222.504 162.458 221.339 160.903 219.59 159.737C217.841 158.572 215.509 157.794 212.983 157.211C211.04 156.434 208.32 156.24 205.6 156.046Z" fill="#FFA71A"/>
<path fill-rule="evenodd" clip-rule="evenodd" d="M204.476 156.251C204.382 155.738 204.647 155.227 205.121 155.008C207.747 153.796 210.633 152.96 213.566 152.96C216.625 152.96 219.789 153.571 222.564 155.489C223.239 155.941 223.886 156.589 224.434 157.137L224.478 157.181C224.531 157.234 224.579 157.292 224.621 157.355C224.71 157.489 224.805 157.594 224.945 157.75C225.038 157.853 225.151 157.979 225.295 158.149C225.564 158.467 225.92 158.928 226.101 159.518L226.635 160.587C226.931 161.179 226.95 161.763 226.95 162.138C227.055 162.653 227.044 163.173 227.021 163.59C227.01 163.799 226.996 163.975 226.984 164.132C226.965 164.375 226.95 164.575 226.95 164.789C226.95 164.856 226.944 164.922 226.933 164.988C226.271 168.736 223.834 171.126 221.103 172.596C220.67 172.829 220.137 172.759 219.779 172.423C219.421 172.086 219.318 171.558 219.524 171.111C219.603 170.94 219.681 170.772 219.758 170.605C220.264 169.516 220.724 168.522 221.063 167.566C221.452 166.468 221.637 165.531 221.561 164.699C221.405 162.987 220.493 161.713 218.956 160.688C217.381 159.638 215.21 158.898 212.726 158.325C212.669 158.311 212.613 158.294 212.559 158.272C210.818 157.576 208.304 157.384 205.518 157.185C204.998 157.148 204.569 156.764 204.476 156.251ZM225.808 162.263C225.808 161.875 225.808 161.486 225.613 161.098L225.03 159.932C224.902 159.418 224.519 158.99 224.162 158.59C223.979 158.384 223.802 158.186 223.67 157.989C223.087 157.406 222.504 156.823 221.922 156.434C219.396 154.685 216.481 154.102 213.566 154.102C211.689 154.102 209.811 154.473 207.998 155.085C207.183 155.36 206.382 155.684 205.6 156.046C206.453 156.106 207.306 156.167 208.135 156.246C209.95 156.419 211.65 156.678 212.983 157.211C215.509 157.794 217.841 158.572 219.59 159.737C221.339 160.903 222.504 162.458 222.699 164.595C222.843 166.187 222.234 167.887 221.431 169.694C221.228 170.153 221.012 170.618 220.793 171.091C220.716 171.256 220.639 171.423 220.561 171.59C221.19 171.252 221.794 170.866 222.356 170.425C224.054 169.095 225.37 167.271 225.808 164.789C225.808 164.537 225.828 164.264 225.849 163.985C225.893 163.402 225.939 162.788 225.808 162.263Z" fill="#FFA71A"/>
<path d="M240.574 218.613C243.489 217.253 246.792 216.476 250.29 216.476C253.593 216.476 257.09 217.253 260.199 219.196C260.977 219.779 261.56 220.362 262.337 220.945L263.308 222.111C263.697 222.499 263.891 222.888 264.086 223.276L264.668 224.637C264.863 225.025 264.863 225.608 265.057 225.997C265.251 226.968 265.251 227.94 265.057 228.911C264.474 232.603 261.948 235.324 259.228 237.072C260.782 234.158 262.142 231.437 262.142 228.717C261.948 226.191 260.588 223.859 258.256 222.499C255.925 220.945 253.204 220.167 250.095 219.585C246.986 219.002 243.877 218.807 240.574 218.613Z" fill="#FFA71A"/>
<path fill-rule="evenodd" clip-rule="evenodd" d="M239.452 218.827C239.354 218.314 239.617 217.799 240.091 217.578C243.154 216.148 246.622 215.333 250.29 215.333C253.767 215.333 257.483 216.151 260.805 218.227C260.832 218.244 260.859 218.262 260.885 218.282C261.303 218.596 261.667 218.908 262.001 219.194L262.012 219.203C262.355 219.497 262.668 219.765 263.022 220.031C263.093 220.084 263.158 220.145 263.214 220.213L264.155 221.342C264.65 221.85 264.906 222.361 265.094 222.738L265.107 222.765C265.117 222.785 265.127 222.806 265.136 222.826L265.708 224.162C265.864 224.488 265.935 224.848 265.975 225.053C265.978 225.067 265.981 225.08 265.983 225.092C266.009 225.22 266.027 225.308 266.047 225.384C266.066 225.459 266.079 225.486 266.079 225.486C266.124 225.577 266.158 225.673 266.177 225.773C266.4 226.884 266.401 228 266.182 229.112C265.523 233.23 262.718 236.187 259.846 238.033C259.408 238.315 258.836 238.265 258.454 237.912C258.071 237.56 257.975 236.993 258.22 236.535C259.79 233.591 260.985 231.135 261 228.761C260.821 226.61 259.661 224.641 257.681 223.486C257.661 223.474 257.642 223.462 257.623 223.45C255.485 222.024 252.947 221.282 249.885 220.707C246.858 220.14 243.819 219.948 240.507 219.753C239.985 219.723 239.55 219.341 239.452 218.827ZM262.142 228.717C262.142 230.701 261.419 232.684 260.425 234.743C260.055 235.508 259.649 236.283 259.228 237.072C259.963 236.599 260.685 236.056 261.357 235.441C263.172 233.781 264.632 231.605 265.057 228.911C265.251 227.94 265.251 226.968 265.057 225.997C264.96 225.802 264.911 225.559 264.863 225.317C264.814 225.074 264.766 224.831 264.668 224.636L264.086 223.276C263.891 222.888 263.697 222.499 263.308 222.11L262.337 220.945C261.948 220.653 261.608 220.362 261.268 220.07C260.928 219.779 260.588 219.487 260.199 219.196C257.09 217.253 253.593 216.476 250.29 216.476C247.758 216.476 245.329 216.883 243.074 217.623C242.214 217.906 241.379 218.237 240.574 218.613C241.47 218.666 242.351 218.718 243.222 218.779C245.563 218.941 247.829 219.16 250.095 219.584C253.204 220.167 255.925 220.945 258.256 222.499C260.588 223.859 261.948 226.191 262.142 228.717Z" fill="#FFA71A"/>
<path d="M277.49 197.239C280.405 195.879 283.708 195.102 287.206 195.102C290.509 195.102 294.006 195.879 297.115 197.822C297.893 198.405 298.476 198.988 299.253 199.571L300.224 200.737C300.613 201.125 300.807 201.514 301.002 201.902L301.584 203.263C301.779 203.651 301.779 204.234 301.973 204.623C302.167 205.594 302.167 206.566 301.973 207.537C301.39 211.229 298.864 213.949 296.144 215.698C297.698 212.784 299.058 210.063 299.058 207.343C298.864 204.817 297.504 202.485 295.172 201.125C292.841 199.571 290.12 198.793 287.011 198.21C283.902 197.628 280.793 197.433 277.49 197.239Z" fill="#FFA71A"/>
<path fill-rule="evenodd" clip-rule="evenodd" d="M276.368 197.453C276.27 196.94 276.533 196.425 277.007 196.204C280.07 194.774 283.538 193.959 287.206 193.959C290.683 193.959 294.399 194.777 297.721 196.853C297.748 196.87 297.775 196.888 297.801 196.908C298.219 197.222 298.583 197.534 298.917 197.82L298.928 197.829C299.271 198.123 299.584 198.391 299.938 198.657C300.009 198.71 300.074 198.771 300.131 198.839L301.071 199.968C301.566 200.476 301.821 200.987 302.01 201.364L302.023 201.391C302.033 201.411 302.043 201.432 302.052 201.452L302.624 202.788C302.78 203.114 302.851 203.474 302.891 203.679C302.894 203.693 302.897 203.706 302.899 203.718C302.925 203.846 302.943 203.934 302.963 204.01C302.982 204.085 302.995 204.112 302.995 204.112C303.04 204.202 303.074 204.299 303.093 204.399C303.316 205.51 303.317 206.626 303.098 207.738C302.439 211.856 299.634 214.813 296.762 216.659C296.324 216.94 295.752 216.891 295.37 216.538C294.987 216.186 294.891 215.619 295.136 215.161C296.706 212.217 297.901 209.761 297.916 207.387C297.737 205.236 296.577 203.267 294.597 202.112C294.577 202.1 294.558 202.088 294.539 202.076C292.401 200.65 289.863 199.907 286.801 199.333C283.774 198.766 280.735 198.574 277.423 198.379C276.901 198.349 276.466 197.967 276.368 197.453ZM299.058 207.343C299.058 209.327 298.335 211.31 297.341 213.369C296.971 214.134 296.565 214.909 296.144 215.698C296.879 215.225 297.601 214.681 298.273 214.067C300.088 212.407 301.548 210.231 301.973 207.537C302.167 206.566 302.167 205.594 301.973 204.623C301.876 204.428 301.827 204.185 301.779 203.943C301.73 203.7 301.682 203.457 301.585 203.262L301.002 201.902L301.002 201.902C300.807 201.514 300.613 201.125 300.224 200.736L299.253 199.571C298.864 199.279 298.524 198.988 298.184 198.696C297.844 198.405 297.504 198.113 297.115 197.822C294.006 195.879 290.509 195.101 287.206 195.101C284.674 195.101 282.245 195.509 279.99 196.249C279.13 196.532 278.295 196.863 277.49 197.239C278.386 197.292 279.267 197.344 280.138 197.405C282.479 197.567 284.745 197.786 287.011 198.21C290.12 198.793 292.841 199.571 295.172 201.125C297.504 202.485 298.864 204.817 299.058 207.343Z" fill="#FFA71A"/>
<path d="M242.516 185.191C245.042 184.025 247.762 183.248 250.482 183.248C253.397 183.248 256.312 183.831 258.838 185.58C259.42 185.968 260.003 186.551 260.586 187.134C260.975 187.717 261.752 188.3 261.946 189.077L262.529 190.243C262.724 190.632 262.724 191.02 262.724 191.409C262.918 192.186 262.724 193.158 262.724 193.935C262.141 197.238 260.003 199.376 257.477 200.736C258.643 198.21 259.809 195.878 259.615 193.741C259.42 191.603 258.255 190.049 256.506 188.883C254.757 187.717 252.425 186.94 249.899 186.357C247.956 185.58 245.236 185.385 242.516 185.191Z" fill="#FFA71A"/>
<path fill-rule="evenodd" clip-rule="evenodd" d="M241.392 185.396C241.298 184.883 241.564 184.372 242.037 184.154C244.663 182.942 247.549 182.105 250.482 182.105C253.541 182.105 256.705 182.717 259.48 184.635C260.155 185.087 260.802 185.734 261.35 186.282C261.365 186.297 261.38 186.312 261.394 186.326C261.447 186.379 261.495 186.438 261.537 186.5C261.626 186.634 261.721 186.74 261.861 186.895C261.954 186.999 262.067 187.124 262.211 187.295C262.48 187.613 262.836 188.073 263.017 188.663L263.551 189.732C263.847 190.324 263.866 190.909 263.866 191.283C263.971 191.799 263.961 192.318 263.937 192.735C263.926 192.945 263.912 193.12 263.9 193.278C263.882 193.521 263.866 193.72 263.866 193.935C263.866 194.002 263.86 194.068 263.849 194.133C263.187 197.881 260.75 200.271 258.019 201.742C257.586 201.975 257.053 201.905 256.695 201.568C256.337 201.231 256.234 200.703 256.44 200.257C256.519 200.086 256.597 199.917 256.674 199.751C257.18 198.661 257.64 197.668 257.979 196.711C258.368 195.614 258.553 194.677 258.477 193.844C258.321 192.132 257.409 190.858 255.872 189.834C254.297 188.783 252.126 188.043 249.642 187.47C249.585 187.457 249.529 187.439 249.475 187.418C247.734 186.721 245.22 186.53 242.434 186.331C241.914 186.294 241.485 185.909 241.392 185.396ZM262.724 191.409C262.724 191.02 262.724 190.632 262.529 190.243L261.946 189.077C261.818 188.564 261.435 188.135 261.078 187.735C260.895 187.53 260.718 187.332 260.586 187.134C260.003 186.551 259.42 185.968 258.838 185.58C256.312 183.831 253.397 183.248 250.482 183.248C248.605 183.248 246.727 183.618 244.914 184.231C244.099 184.506 243.298 184.83 242.516 185.191C243.369 185.252 244.222 185.313 245.051 185.392C246.866 185.565 248.566 185.823 249.899 186.357C252.425 186.94 254.757 187.717 256.506 188.883C258.255 190.049 259.42 191.603 259.615 193.741C259.759 195.332 259.15 197.032 258.347 198.839C258.144 199.298 257.928 199.764 257.709 200.236C257.632 200.402 257.555 200.568 257.477 200.736C258.106 200.397 258.71 200.011 259.272 199.571C260.97 198.24 262.286 196.417 262.724 193.935C262.724 193.683 262.744 193.41 262.765 193.13C262.809 192.548 262.855 191.934 262.724 191.409Z" fill="#FFA71A"/>
<path d="M306.639 158.183C307.999 153.52 310.136 149.439 312.662 145.359C315.188 141.278 318.103 137.587 321.212 134.089C324.515 130.591 328.013 127.483 332.287 124.957C336.368 122.625 341.226 120.487 346.083 120.876C341.809 123.013 338.311 125.734 335.008 128.648C331.704 131.563 328.596 134.866 325.487 137.975C322.378 141.278 319.269 144.582 316.354 147.885C313.245 151.382 310.136 154.88 306.639 158.183Z" fill="#FFA71A"/>
<path fill-rule="evenodd" clip-rule="evenodd" d="M306.043 159.158C305.603 158.889 305.397 158.358 305.542 157.863C306.943 153.061 309.138 148.881 311.691 144.757C314.261 140.605 317.22 136.86 320.358 133.33C320.366 133.321 320.373 133.313 320.381 133.304C323.729 129.759 327.309 126.571 331.706 123.973L331.721 123.964C335.836 121.613 340.952 119.319 346.174 119.737C346.686 119.778 347.107 120.155 347.205 120.658C347.303 121.161 347.053 121.668 346.594 121.898C342.445 123.972 339.032 126.621 335.764 129.505C333.316 131.665 330.985 134.032 328.649 136.404C327.87 137.195 327.091 137.986 326.307 138.771C323.199 142.072 320.108 145.358 317.211 148.641L317.208 148.644L317.193 148.661C314.094 152.148 310.957 155.676 307.423 159.014C307.048 159.368 306.483 159.427 306.043 159.158ZM343.988 122.003C340.637 123.934 337.755 126.224 335.008 128.648C332.527 130.837 330.156 133.245 327.812 135.625C327.035 136.415 326.261 137.201 325.487 137.975C322.378 141.278 319.269 144.582 316.354 147.885L316.354 147.885C313.772 150.79 311.189 153.696 308.384 156.489C307.812 157.059 307.231 157.624 306.639 158.183C306.869 157.394 307.122 156.621 307.395 155.862C308.734 152.138 310.564 148.748 312.662 145.359C315.188 141.278 318.103 137.586 321.212 134.089C324.515 130.591 328.013 127.482 332.287 124.956C335.684 123.015 339.62 121.209 343.646 120.882C344.456 120.817 345.27 120.811 346.083 120.876C345.364 121.236 344.667 121.612 343.988 122.003Z" fill="#FFA71A"/>
<path d="M322.184 173.727C323.155 170.813 324.904 168.287 326.847 165.761C328.79 163.429 330.927 161.291 333.453 159.543C335.98 157.794 338.7 156.239 341.614 155.268C344.529 154.296 347.832 153.908 350.941 154.685C348.221 156.434 345.889 157.794 343.558 159.348C341.226 160.903 339.088 162.652 336.757 164.206C334.425 165.761 332.288 167.509 329.762 169.064C327.624 170.813 325.098 172.367 322.184 173.727Z" fill="#FFA71A"/>
<path fill-rule="evenodd" clip-rule="evenodd" d="M321.423 174.58C321.083 174.276 320.955 173.799 321.1 173.366C322.136 170.258 323.987 167.605 325.941 165.064C325.95 165.052 325.96 165.041 325.969 165.029C327.955 162.646 330.167 160.428 332.803 158.603C335.379 156.82 338.199 155.202 341.253 154.184C344.312 153.164 347.843 152.733 351.218 153.577C351.66 153.687 351.995 154.05 352.069 154.499C352.143 154.949 351.942 155.4 351.559 155.646C350.342 156.428 349.231 157.116 348.171 157.772C346.799 158.622 345.512 159.418 344.191 160.299C343.052 161.058 341.957 161.868 340.836 162.696L340.826 162.704C339.715 163.524 338.579 164.364 337.39 165.157C336.448 165.785 335.54 166.444 334.603 167.125C334.404 167.269 334.204 167.414 334.002 167.561C332.875 168.375 331.702 169.208 330.426 169.997C328.217 171.794 325.627 173.381 322.667 174.763C322.253 174.956 321.764 174.884 321.423 174.58ZM329.762 169.064C331.244 168.151 332.593 167.172 333.925 166.205C334.863 165.524 335.793 164.848 336.757 164.206C337.923 163.429 339.04 162.603 340.157 161.777C341.274 160.951 342.392 160.126 343.558 159.348C344.881 158.466 346.205 157.646 347.6 156.782C348.233 156.39 348.88 155.989 349.549 155.569C350.002 155.284 350.466 154.991 350.941 154.685C350.396 154.549 349.846 154.448 349.292 154.381C346.686 154.062 344.018 154.467 341.614 155.268C338.7 156.239 335.979 157.794 333.453 159.543C330.927 161.291 328.79 163.429 326.847 165.761C325.259 167.824 323.801 169.888 322.791 172.164C322.565 172.674 322.361 173.194 322.184 173.727C322.693 173.489 323.191 173.245 323.677 172.996C325.97 171.817 327.998 170.507 329.762 169.064Z" fill="#FFA71A"/>
<path d="M283.903 299.639C278.074 302.748 272.439 305.662 267.193 308.965C265.833 309.743 264.473 310.714 263.307 311.491C262.724 311.88 262.141 312.463 261.558 312.852C260.975 313.24 260.392 313.823 259.809 314.406C257.478 316.544 255.34 318.681 253.008 321.013L249.511 324.316C248.928 324.704 248.151 325.482 247.373 326.065C246.596 326.648 245.819 327.036 244.847 327.425C241.544 328.979 238.241 329.562 234.938 330.145C231.634 330.728 228.526 330.922 225.222 331.117C222.113 331.311 218.81 331.7 215.701 332.477C218.421 330.534 221.53 329.368 224.639 328.396C227.748 327.425 230.857 326.648 233.966 325.676C236.881 324.704 239.99 323.927 242.321 322.567C242.904 322.178 243.487 321.79 244.07 321.596C244.653 321.207 244.847 320.818 245.625 320.235L249.122 316.932C251.454 314.6 253.98 312.463 256.506 310.52L258.449 308.965C259.226 308.383 260.004 307.994 260.586 307.605C262.141 306.828 263.501 306.051 265.056 305.274C271.273 302.553 277.491 300.61 283.903 299.639Z" fill="#FFFBD3"/>
<path d="M349.968 264.664C347.831 269.133 344.722 272.825 341.225 276.323C339.476 278.071 337.533 279.626 335.395 280.986C334.229 281.569 333.064 282.346 331.898 282.735C330.732 283.318 329.372 283.706 328.012 283.901C322.96 285.066 317.908 284.678 313.244 284.289C310.912 284.095 308.581 283.706 306.249 283.512C303.917 283.318 301.78 283.123 299.254 283.901C301.003 282.152 303.529 281.375 305.86 280.792C308.192 280.209 310.718 280.014 313.05 279.82C317.713 279.432 322.377 279.237 326.457 278.266C330.343 277.488 334.229 275.157 338.116 272.631C342.196 270.105 346.082 267.384 349.968 264.664Z" fill="#FFFBD3"/>
<path fill-rule="evenodd" clip-rule="evenodd" d="M156.043 213.654C160.632 210.531 161.282 203.487 157.494 197.921C153.706 192.356 146.915 190.376 142.326 193.499C139.844 195.188 138.514 198.025 138.416 201.154C135.47 200.098 132.345 200.295 129.863 201.984C125.274 205.107 124.625 212.15 128.413 217.716C132.2 223.282 138.991 225.262 143.58 222.139C146.063 220.449 147.392 217.613 147.49 214.484C150.436 215.539 153.562 215.343 156.043 213.654Z" fill="#FD476D"/>
<path fill-rule="evenodd" clip-rule="evenodd" d="M132.72 210.717C132.955 209.8 133.888 209.247 134.805 209.481L142.015 211.325C142.931 211.56 143.485 212.493 143.25 213.41C143.016 214.327 142.082 214.88 141.165 214.646L133.956 212.802C133.039 212.567 132.486 211.634 132.72 210.717Z" fill="black"/>
<path fill-rule="evenodd" clip-rule="evenodd" d="M142.351 203.814C142.586 202.897 143.519 202.344 144.436 202.579L151.645 204.423C152.562 204.657 153.116 205.591 152.881 206.508C152.647 207.425 151.713 207.978 150.796 207.743L143.587 205.899C142.67 205.665 142.117 204.731 142.351 203.814Z" fill="black"/>
<path fill-rule="evenodd" clip-rule="evenodd" d="M97.274 205.533L113.604 192.264C114.782 191.306 116.514 191.485 117.472 192.664C118.43 193.842 118.251 195.574 117.072 196.532L94.9734 214.49C91.7673 217.095 87.2631 213.519 89.073 209.806L103.676 179.846C104.341 178.481 105.987 177.913 107.353 178.579C108.718 179.244 109.285 180.89 108.62 182.256L97.274 205.533Z" fill="black"/>
<path fill-rule="evenodd" clip-rule="evenodd" d="M79.357 175.541C79.8321 176.333 79.5753 177.36 78.7835 177.835C68.8934 183.769 63.6682 192.068 61.4665 199.836C59.2389 207.696 60.148 214.821 62.2321 218.405C62.6962 219.204 62.4253 220.227 61.6271 220.691C60.8288 221.155 59.8054 220.884 59.3413 220.086C56.665 215.483 55.8598 207.355 58.2494 198.924C60.6648 190.402 66.3882 181.373 77.0631 174.968C77.8549 174.493 78.8819 174.75 79.357 175.541Z" fill="white"/>
<path fill-rule="evenodd" clip-rule="evenodd" d="M138.435 91.5114C137.795 90.9853 137.702 90.0401 138.228 89.4001L139.387 90.3525C138.228 89.4001 138.229 89.3996 138.229 89.399L138.231 89.3974L138.234 89.3929L138.247 89.3783L138.289 89.3273C138.326 89.2838 138.379 89.2216 138.448 89.1421C138.585 88.9831 138.786 88.7547 139.048 88.4686C139.571 87.8966 140.338 87.0924 141.323 86.1486C143.292 84.2634 146.15 81.8082 149.703 79.5323C156.792 74.9927 166.821 71.0652 178.122 74.0716C178.922 74.2846 179.399 75.1062 179.186 75.9068C178.973 76.7074 178.151 77.1837 177.35 76.9707C167.186 74.2666 158.041 77.7548 151.321 82.0586C147.971 84.2043 145.266 86.5276 143.398 88.3156C142.466 89.2084 141.745 89.9644 141.261 90.4935C141.02 90.7579 140.837 90.9653 140.717 91.1044C140.657 91.1739 140.612 91.2264 140.583 91.2603L140.553 91.2971L140.546 91.3047L140.546 91.305C140.546 91.3052 140.546 91.3054 140.546 91.3056M138.435 91.5114C139.075 92.0372 140.019 91.945 140.546 91.3056L138.435 91.5114Z" fill="#231F20"/>
</svg>
