<svg width="430" height="430" viewBox="0 0 430 430" fill="none" xmlns="http://www.w3.org/2000/svg">
<path d="M430 215C430 333.741 333.741 430 215 430C96.2588 430 0 333.741 0 215C0 96.2588 96.2588 0 215 0C333.741 0 430 96.2588 430 215Z" fill="#9971FF"/>
<mask id="mask0" mask-type="alpha" maskUnits="userSpaceOnUse" x="0" y="0" width="430" height="430">
<path d="M430 215C430 333.741 333.741 430 215 430C96.2588 430 0 333.741 0 215C0 96.2588 96.2588 0 215 0C333.741 0 430 96.2588 430 215Z" fill="#9971FF"/>
</mask>
<g mask="url(#mask0)">
<path d="M158.85 114.429L170.321 108.113L332.753 415.777L321.281 422.093L158.85 114.429Z" fill="#652F17"/>
<path d="M162.83 112.357L177.255 104.415L339.687 412.079L325.262 420.022L162.83 112.357Z" fill="#834B32"/>
</g>
<path d="M165.639 287.159C155.48 264.861 150.4 253.712 153.733 243.075C154.405 240.932 155.315 238.844 156.447 236.846C162.069 226.93 174.468 221.28 199.267 209.981L249.468 187.108C274.267 175.809 286.666 170.159 297.839 172.424C300.089 172.88 302.262 173.564 304.319 174.463C314.533 178.927 319.613 190.076 329.773 212.375C339.933 234.673 345.013 245.823 341.679 256.459C341.008 258.602 340.098 260.69 338.965 262.688C333.344 272.605 320.944 278.254 296.145 289.553L245.945 312.426C221.146 323.725 208.746 329.375 197.574 327.11C195.323 326.654 193.151 325.97 191.093 325.071C180.879 320.607 175.799 309.458 165.639 287.159Z" fill="#FFFCDE"/>
<path fill-rule="evenodd" clip-rule="evenodd" d="M248.752 185.236C261.056 179.63 270.434 175.357 278.129 172.782C285.877 170.19 292.158 169.231 298.237 170.463C300.623 170.947 302.931 171.673 305.121 172.63C310.738 175.085 314.832 179.354 318.765 185.674C322.651 191.917 326.505 200.375 331.532 211.408L331.656 211.682C336.684 222.715 340.537 231.174 342.699 238.202C344.887 245.317 345.422 251.208 343.589 257.057C342.874 259.338 341.907 261.556 340.706 263.674C337.648 269.069 332.802 273.18 325.762 277.325C318.769 281.443 309.392 285.715 297.087 291.322L246.663 314.297C234.358 319.903 224.98 324.176 217.285 326.751C209.537 329.343 203.256 330.302 197.178 329.07C194.791 328.586 192.483 327.86 190.293 326.903C184.677 324.448 180.582 320.179 176.649 313.859C172.764 307.617 168.91 299.158 163.883 288.125L163.758 287.851C158.731 276.818 154.877 268.359 152.715 261.331C150.527 254.216 149.992 248.325 151.826 242.476C152.54 240.195 153.507 237.977 154.708 235.859C157.767 230.464 162.612 226.353 169.652 222.208C176.645 218.09 186.022 213.818 198.327 208.211L248.752 185.236ZM153.734 243.074C150.4 253.711 155.48 264.86 165.64 287.159C175.8 309.457 180.88 320.606 191.094 325.07C193.152 325.97 195.324 326.653 197.575 327.11C208.747 329.374 221.147 323.725 245.945 312.426L296.146 289.553C320.945 278.254 333.344 272.604 338.966 262.687C340.099 260.69 341.009 258.602 341.68 256.459C345.014 245.822 339.934 234.673 329.774 212.375C319.614 190.076 314.534 178.927 304.32 174.463C302.263 173.563 300.09 172.88 297.839 172.424C286.667 170.159 274.268 175.808 249.469 187.107L199.268 209.98C174.469 221.279 162.07 226.929 156.448 236.846C155.315 238.844 154.406 240.932 153.734 243.074Z" fill="white"/>
<mask id="mask1" mask-type="alpha" maskUnits="userSpaceOnUse" x="152" y="171" width="191" height="157">
<path d="M165.639 287.159C155.48 264.861 150.4 253.712 153.733 243.075C154.405 240.932 155.315 238.844 156.447 236.846C162.069 226.93 174.468 221.28 199.267 209.981L249.468 187.108C274.267 175.809 286.666 170.159 297.839 172.424C300.089 172.88 302.262 173.564 304.319 174.463C314.533 178.927 319.613 190.076 329.773 212.375C339.933 234.673 345.013 245.823 341.679 256.459C341.008 258.602 340.098 260.69 338.965 262.688C333.344 272.605 320.944 278.254 296.145 289.553L245.945 312.426C221.146 323.725 208.746 329.375 197.574 327.11C195.323 326.654 193.151 325.97 191.093 325.071C180.879 320.607 175.799 309.458 165.639 287.159Z" fill="#FFFCDE"/>
</mask>
<g mask="url(#mask1)">
<g filter="url(#filter0_f)">
<path d="M169.87 285.23C160.312 264.253 155.533 253.765 158.686 243.75C159.322 241.733 160.181 239.767 161.251 237.886C166.561 228.547 178.258 223.217 201.651 212.559L249.005 190.983C272.398 180.325 284.094 174.995 294.626 177.116C296.747 177.543 298.795 178.185 300.734 179.029C310.36 183.221 315.139 193.709 324.697 214.686C334.255 235.663 339.034 246.152 335.88 256.166C335.245 258.184 334.385 260.15 333.315 262.031C328.005 271.37 316.309 276.699 292.916 287.358L245.562 308.934C222.169 319.592 210.473 324.921 199.941 322.8C197.819 322.373 195.772 321.732 193.832 320.887C184.206 316.696 179.427 306.207 169.87 285.23Z" fill="#FFFCDE"/>
<path d="M169.87 285.23C160.312 264.253 155.533 253.765 158.686 243.75C159.322 241.733 160.181 239.767 161.251 237.886C166.561 228.547 178.258 223.217 201.651 212.559L249.005 190.983C272.398 180.325 284.094 174.995 294.626 177.116C296.747 177.543 298.795 178.185 300.734 179.029C310.36 183.221 315.139 193.709 324.697 214.686C334.255 235.663 339.034 246.152 335.88 256.166C335.245 258.184 334.385 260.15 333.315 262.031C328.005 271.37 316.309 276.699 292.916 287.358L245.562 308.934C222.169 319.592 210.473 324.921 199.941 322.8C197.819 322.373 195.772 321.732 193.832 320.887C184.206 316.696 179.427 306.207 169.87 285.23Z" fill="url(#paint0_linear)"/>
</g>
<g filter="url(#filter1_f)">
<path d="M171.252 288.266C161.695 267.289 156.916 256.801 160.069 246.787C160.704 244.769 161.564 242.803 162.634 240.922C167.944 231.583 179.641 226.254 203.033 215.595L250.388 194.019C273.78 183.361 285.477 178.031 296.008 180.152C298.13 180.58 300.178 181.221 302.117 182.065C311.743 186.257 316.522 196.745 326.08 217.722C335.637 238.7 340.416 249.188 337.263 259.202C336.628 261.22 335.768 263.186 334.698 265.067C329.388 274.406 317.692 279.735 294.299 290.394L246.945 311.97C223.552 322.628 211.855 327.957 201.324 325.837C199.202 325.409 197.154 324.768 195.215 323.924C185.589 319.732 180.81 309.243 171.252 288.266Z" fill="url(#paint1_linear)"/>
</g>
</g>
<path d="M100.606 207.652C85.4322 182.583 77.8454 170.049 80.1441 157.059C80.6072 154.443 81.3562 151.86 82.3784 149.357C87.4522 136.93 101.065 128.69 128.29 112.212L183.402 78.8543C210.627 62.3757 224.239 54.1364 237.603 55.4043C240.295 55.6597 242.93 56.1935 245.463 56.9968C258.037 60.9842 265.624 73.5187 280.797 98.5877C295.971 123.657 303.558 136.191 301.259 149.181C300.796 151.798 300.047 154.38 299.025 156.883C293.951 169.31 280.338 177.55 253.113 194.028L198.001 227.386C170.776 243.865 157.164 252.104 143.801 250.836C141.109 250.581 138.474 250.047 135.94 249.243C123.366 245.256 115.779 232.721 100.606 207.652Z" fill="#FFFCDE"/>
<path fill-rule="evenodd" clip-rule="evenodd" d="M182.475 77.0773C195.996 68.8934 206.28 62.6686 214.854 58.662C223.481 54.6309 230.604 52.7308 237.792 53.4128C240.623 53.6814 243.397 54.2431 246.068 55.09C252.88 57.2501 258.226 61.7113 263.723 68.6435C269.167 75.5084 274.91 84.9978 282.433 97.4254L282.585 97.678C290.108 110.106 295.851 119.595 299.409 127.602C303.001 135.687 304.474 142.492 303.229 149.529C302.741 152.288 301.952 155.006 300.877 157.639C298.148 164.323 293.161 169.753 285.589 175.527C278.063 181.265 267.779 187.489 254.258 195.673L198.929 229.162C185.408 237.346 175.124 243.571 166.55 247.577C157.924 251.608 150.8 253.509 143.612 252.827C140.781 252.558 138.007 251.996 135.336 251.149C128.524 248.989 123.178 244.528 117.681 237.596C112.237 230.731 106.494 221.242 98.9718 208.814L98.8187 208.561C91.2967 196.134 85.5531 186.644 81.9957 178.638C78.4033 170.553 76.9299 163.748 78.1752 156.71C78.6635 153.952 79.4525 151.233 80.5273 148.601C83.2565 141.916 88.2435 136.486 95.8153 130.713C103.341 124.975 113.625 118.75 127.146 110.566L182.475 77.0773ZM80.1446 157.059C77.846 170.049 85.4327 182.583 100.606 207.652C115.78 232.721 123.367 245.256 135.941 249.243C138.474 250.046 141.109 250.58 143.801 250.836C157.164 252.103 170.777 243.864 198.002 227.386L253.114 194.028C280.339 177.549 293.952 169.31 299.025 156.883C300.048 154.379 300.797 151.797 301.26 149.18C303.558 136.191 295.972 123.656 280.798 98.5873C265.624 73.5183 258.038 60.9838 245.463 56.9964C242.93 56.1931 240.295 55.6593 237.603 55.4039C224.24 54.136 210.627 62.3753 183.402 78.8538L128.29 112.211C101.065 128.69 87.4528 136.929 82.3789 149.357C81.3567 151.86 80.6077 154.442 80.1446 157.059Z" fill="white"/>
<mask id="mask2" mask-type="alpha" maskUnits="userSpaceOnUse" x="79" y="55" width="223" height="196">
<path d="M100.606 207.652C85.4322 182.583 77.8454 170.049 80.1441 157.059C80.6072 154.443 81.3562 151.86 82.3784 149.357C87.4522 136.93 101.065 128.69 128.29 112.212L183.402 78.8543C210.627 62.3757 224.239 54.1364 237.603 55.4043C240.295 55.6597 242.93 56.1935 245.463 56.9968C258.037 60.9842 265.624 73.5187 280.797 98.5877C295.971 123.657 303.558 136.191 301.259 149.181C300.796 151.798 300.047 154.38 299.025 156.883C293.951 169.31 280.338 177.55 253.113 194.028L198.001 227.386C170.776 243.864 157.164 252.104 143.801 250.836C141.108 250.58 138.474 250.047 135.94 249.243C123.366 245.256 115.779 232.721 100.606 207.652Z" fill="#FFFCDE"/>
</mask>
<g mask="url(#mask2)">
<g filter="url(#filter2_f)">
<path d="M105.251 204.841C90.9768 181.258 83.8396 169.466 86.0211 157.235C86.4606 154.771 87.1695 152.339 88.1358 149.981C92.9326 138.276 105.773 130.504 131.455 114.96L183.442 83.4936C209.123 67.9493 221.964 60.1772 234.559 61.3557C237.096 61.5931 239.579 62.0927 241.966 62.8461C253.814 66.5856 260.951 78.3773 275.226 101.961C289.5 125.544 296.637 137.336 294.456 149.567C294.016 152.031 293.307 154.463 292.341 156.821C287.544 168.526 274.704 176.298 249.022 191.842L197.035 223.309C171.354 238.853 158.513 246.625 145.918 245.447C143.381 245.209 140.898 244.709 138.511 243.956C126.663 240.217 119.526 228.425 105.251 204.841Z" fill="#FFFCDE"/>
<path d="M105.251 204.841C90.9768 181.258 83.8396 169.466 86.0211 157.235C86.4606 154.771 87.1695 152.339 88.1358 149.981C92.9326 138.276 105.773 130.504 131.455 114.96L183.442 83.4936C209.123 67.9493 221.964 60.1772 234.559 61.3557C237.096 61.5931 239.579 62.0927 241.966 62.8461C253.814 66.5856 260.951 78.3773 275.226 101.961C289.5 125.544 296.637 137.336 294.456 149.567C294.016 152.031 293.307 154.463 292.341 156.821C287.544 168.526 274.704 176.298 249.022 191.842L197.035 223.309C171.354 238.853 158.513 246.625 145.918 245.447C143.381 245.209 140.898 244.709 138.511 243.956C126.663 240.217 119.526 228.425 105.251 204.841Z" fill="url(#paint2_linear)"/>
</g>
<g filter="url(#filter3_f)">
<path d="M107.318 208.254C93.0432 184.67 85.906 172.878 88.0875 160.647C88.527 158.183 89.2359 155.751 90.2023 153.393C94.999 141.688 107.84 133.916 133.521 118.372L185.508 86.9057C211.19 71.3614 224.03 63.5893 236.625 64.7678C239.162 65.0052 241.646 65.5048 244.033 66.2582C255.881 69.9977 263.018 81.7894 277.292 105.373C291.567 128.956 298.704 140.748 296.522 152.979C296.083 155.443 295.374 157.875 294.408 160.233C289.611 171.938 276.77 179.71 251.089 195.255L199.102 226.721C173.42 242.265 160.579 250.037 147.985 248.859C145.447 248.621 142.964 248.122 140.577 247.368C128.729 243.629 121.592 231.837 107.318 208.254Z" fill="url(#paint3_linear)"/>
</g>
</g>
<path fill-rule="evenodd" clip-rule="evenodd" d="M178.54 76L109.086 118.307L109.079 118.334C88.7416 130.796 78.0126 138.399 73.6362 149.118C72.614 151.622 71.865 154.204 71.4019 156.821C69.1032 169.81 76.69 182.345 91.8636 207.414C92.5576 208.56 93.2358 209.681 93.8994 210.776C95.3187 228.275 89.198 248.837 65.9976 258.5C26.9298 274.772 37.0319 307.946 52.4963 309C73.4178 310.426 79.4212 297.84 94.5684 266.083C95.352 264.44 96.16 262.746 96.9957 261C108.765 236.412 118.379 235.402 128.474 234.341C131.736 233.999 135.048 233.651 138.5 232.5C152.102 227.966 155.219 219.821 163.37 198.524C164.207 196.335 165.098 194.008 166.059 191.531C176.368 164.954 209.5 180.5 185 195.5C163.576 208.617 153.405 238.158 166.059 242.5C179.065 246.963 185.498 230.916 191.652 215.565C194.46 208.56 197.21 201.7 200.5 197C211 182 224.66 157.36 211.638 140.003C206.514 133.174 200.298 127.94 194.642 123.178C185.925 115.838 178.54 109.619 178.54 100.408C178.54 94.1474 180.015 89.9145 181.141 86.6836C182.747 82.0768 183.643 79.5069 178.54 76Z" fill="#6A091F"/>
<path fill-rule="evenodd" clip-rule="evenodd" d="M39.7127 283.691C44.4475 283.413 49.9699 284.021 55.5 286.5C70 293 82.5 278 87 265.5C91.5 253 101 231 118 227C119.682 226.604 121.364 226.233 123.039 225.863C138.286 222.497 152.891 219.274 161 199C164.258 190.856 167.911 185.885 171.275 182.975C169.253 185.131 167.448 187.949 166.059 191.531C165.098 194.008 164.207 196.335 163.37 198.524C155.219 219.821 152.102 227.966 138.5 232.5C135.048 233.651 131.736 233.999 128.474 234.341C118.379 235.402 108.765 236.412 96.9957 261C96.1614 262.743 95.3548 264.434 94.5725 266.074L94.5684 266.083C79.4212 297.84 73.4178 310.426 52.4963 309C43.3796 308.379 36.1266 296.594 39.7127 283.691ZM169.605 81.4422C165.66 96.954 173.134 105.912 177.5 108.5C179.314 109.741 181.837 111.658 184.73 114.129C180.988 110.024 178.54 105.712 178.54 100.408C178.54 94.1474 180.015 89.9145 181.141 86.6836C182.747 82.0768 183.643 79.5069 178.54 76L169.605 81.4422ZM192.616 121.468C198.019 126.936 203.653 133.629 208 141C219.5 160.5 201 186 192.5 197C184 208 175.5 225 173 232.5C171.44 237.179 165.319 236.08 160.565 234.184C160.859 238.265 162.612 241.317 166.059 242.5C179.065 246.963 185.498 230.916 191.652 215.565C194.46 208.56 197.21 201.7 200.5 197C211 182 224.66 157.36 211.638 140.003C206.514 133.174 200.298 127.94 194.642 123.178C193.958 122.602 193.282 122.032 192.616 121.468Z" fill="#570014"/>
<path d="M54 284.5C54 285.881 52.8807 287 51.5 287C50.1193 287 49 285.881 49 284.5C49 283.119 50.1193 282 51.5 282C52.8807 282 54 283.119 54 284.5Z" fill="white"/>
<path d="M60.7562 284.379C60.5123 280.258 65.4947 281.499 73.5058 279.998C81.5168 278.498 81.2998 274.578 81.3711 276.192C81.4424 277.806 78.3066 282.436 74.9008 284.968C71.4951 287.499 61 288.5 60.7562 284.379Z" fill="white"/>
<path fill-rule="evenodd" clip-rule="evenodd" d="M118.325 125.798C118.712 126.531 118.433 127.438 117.701 127.826C104.214 134.966 95.9548 141.698 91.1075 147.147C86.2021 152.662 84.9356 156.692 84.9982 158.447C85.0278 159.275 84.3806 159.97 83.5527 159.999C82.7248 160.029 82.0297 159.382 82.0002 158.554C81.8962 155.642 83.7797 150.872 88.8659 145.153C94.0103 139.37 102.584 132.435 116.297 125.175C117.03 124.787 117.937 125.066 118.325 125.798Z" fill="white"/>
<path fill-rule="evenodd" clip-rule="evenodd" d="M275.377 219.344C276.72 219.027 278.067 219.858 278.385 221.202C283.46 242.652 278.527 260.886 267.459 271.086C256.256 281.409 239.432 282.9 222.281 272.101C221.113 271.365 220.762 269.822 221.498 268.653C222.234 267.485 223.777 267.134 224.946 267.87C240.553 277.698 254.829 275.925 264.071 267.409C273.448 258.768 278.306 242.584 273.519 222.353C273.202 221.009 274.033 219.662 275.377 219.344Z" fill="black"/>
<path d="M216.159 219.357L227.14 239.348C220.919 239.757 205.755 234.445 203.554 225.156C201.353 215.867 209.576 212.653 216.159 219.357Z" fill="white"/>
<path d="M216.159 219.357L227.14 239.348C230.659 234.018 233.997 217.803 227.412 211.098C220.827 204.392 213.958 210.07 216.159 219.357Z" fill="white"/>
<path fill-rule="evenodd" clip-rule="evenodd" d="M227.14 239.348C226.961 239.36 226.775 239.367 226.582 239.369C220.057 239.448 205.692 234.177 203.554 225.156C201.49 216.442 208.597 213.074 214.92 218.225C215.338 218.565 215.752 218.942 216.159 219.357C216.025 218.792 215.925 218.241 215.856 217.705C214.793 209.425 221.227 204.8 227.412 211.098C233.808 217.61 230.842 233.093 227.444 238.861C227.343 239.032 227.242 239.194 227.14 239.348ZM226.876 237.827C228.316 235.106 229.677 230.48 230.068 225.658C230.514 220.169 229.672 214.826 226.699 211.798C225.158 210.23 223.674 209.46 222.396 209.239C221.134 209.02 220.01 209.323 219.101 210.023C217.257 211.441 216.086 214.71 217.132 219.127L217.534 220.821L226.876 237.827ZM216.644 221.278L215.446 220.058C212.326 216.881 209.05 216.272 206.96 217.177C204.959 218.042 203.494 220.562 204.527 224.925C205.523 229.127 209.523 232.596 214.289 234.995C218.505 237.117 223.051 238.265 226.029 238.363L216.644 221.278Z" fill="white"/>
<path d="M253.483 200.198L264.465 220.189C258.244 220.598 243.079 215.285 240.879 205.996C238.678 196.707 246.9 193.493 253.483 200.198Z" fill="white"/>
<path d="M253.483 200.198L264.465 220.189C267.983 214.859 271.322 198.644 264.736 191.938C258.151 185.233 251.283 190.911 253.483 200.198Z" fill="white"/>
<path fill-rule="evenodd" clip-rule="evenodd" d="M264.465 220.189C264.286 220.2 264.099 220.207 263.906 220.21C257.382 220.288 243.016 215.018 240.879 205.996C238.814 197.283 245.922 193.915 252.244 199.066C252.662 199.406 253.076 199.783 253.483 200.198C253.35 199.633 253.249 199.082 253.18 198.546C252.117 190.266 258.552 185.641 264.736 191.938C271.132 198.451 268.167 213.934 264.768 219.702C264.667 219.873 264.566 220.035 264.465 220.189ZM264.2 218.668C265.64 215.947 267.001 211.321 267.392 206.499C267.838 201.01 266.996 195.667 264.023 192.639C262.482 191.07 260.998 190.3 259.72 190.079C258.458 189.861 257.335 190.164 256.425 190.864C254.581 192.282 253.41 195.551 254.457 199.967L254.858 201.662L264.2 218.668ZM253.968 202.119L252.77 200.899C249.65 197.722 246.374 197.113 244.284 198.017C242.283 198.883 240.818 201.403 241.852 205.766C242.847 209.968 246.847 213.437 251.614 215.836C255.829 217.958 260.375 219.106 263.353 219.204L253.968 202.119Z" fill="white"/>
<path d="M219.304 221.214L227.833 237.698C223.036 238.016 211.324 233.6 209.599 225.949C207.874 218.298 214.206 215.677 219.304 221.214Z" fill="#FF845E"/>
<path d="M219.304 221.214L227.833 237.698C230.53 233.323 233.058 219.988 227.959 214.45C222.86 208.912 217.579 213.565 219.304 221.214Z" fill="#FF845E"/>
<path d="M256.63 202.056L265.159 218.54C260.362 218.858 248.65 214.442 246.925 206.791C245.2 199.14 251.532 196.519 256.63 202.056Z" fill="#FF845E"/>
<path d="M256.63 202.056L265.159 218.54C267.856 214.164 270.384 200.83 265.285 195.292C260.186 189.754 254.905 194.406 256.63 202.056Z" fill="#FF845E"/>
<path fill-rule="evenodd" clip-rule="evenodd" d="M201.451 259.538C203.078 258.701 204.08 257.057 204.351 255.13C206.077 256.03 207.997 256.17 209.625 255.332C211.37 254.434 212.396 252.61 212.573 250.502C214.425 251.66 216.571 251.923 218.363 251.001C221.373 249.452 222.244 245.146 220.308 241.384C218.372 237.622 214.363 235.827 211.353 237.376C209.608 238.274 208.582 240.098 208.405 242.207C206.553 241.049 204.406 240.786 202.614 241.708C200.987 242.545 199.985 244.189 199.714 246.116C197.987 245.216 196.068 245.076 194.44 245.914C191.43 247.462 190.56 251.768 192.495 255.53C194.431 259.292 198.441 261.087 201.451 259.538Z" fill="#FD476D"/>
<path fill-rule="evenodd" clip-rule="evenodd" d="M195.985 251.529C196.178 250.925 196.825 250.592 197.43 250.786L201.557 252.108C202.161 252.302 202.494 252.949 202.3 253.553C202.107 254.158 201.46 254.491 200.855 254.297L196.728 252.974C196.124 252.78 195.791 252.133 195.985 251.529Z" fill="black"/>
<path fill-rule="evenodd" clip-rule="evenodd" d="M203.924 247.419C204.118 246.814 204.765 246.481 205.369 246.675L209.496 247.998C210.101 248.192 210.433 248.839 210.24 249.443C210.046 250.047 209.399 250.38 208.795 250.187L204.668 248.864C204.063 248.67 203.73 248.023 203.924 247.419Z" fill="black"/>
<path fill-rule="evenodd" clip-rule="evenodd" d="M211.535 243.691C211.729 243.087 212.376 242.754 212.98 242.948L217.107 244.27C217.712 244.464 218.045 245.111 217.851 245.716C217.657 246.32 217.01 246.653 216.406 246.459L212.279 245.136C211.675 244.943 211.342 244.296 211.535 243.691Z" fill="black"/>
<path fill-rule="evenodd" clip-rule="evenodd" d="M283.152 219.018C282.881 220.946 281.879 222.589 280.251 223.427C277.241 224.976 273.232 223.181 271.296 219.419C269.36 215.656 270.231 211.351 273.241 209.802C274.869 208.965 276.788 209.105 278.515 210.005C278.786 208.077 279.788 206.434 281.415 205.596C284.425 204.048 288.435 205.842 290.37 209.604C292.306 213.367 291.436 217.672 288.426 219.221C286.798 220.058 284.878 219.918 283.152 219.018Z" fill="#FD476D"/>
<path fill-rule="evenodd" clip-rule="evenodd" d="M274.785 215.417C274.979 214.812 275.626 214.479 276.23 214.673L280.357 215.996C280.962 216.19 281.295 216.837 281.101 217.441C280.907 218.046 280.26 218.378 279.656 218.185L275.529 216.862C274.925 216.668 274.592 216.021 274.785 215.417Z" fill="black"/>
<path fill-rule="evenodd" clip-rule="evenodd" d="M281.598 211.912C281.792 211.308 282.439 210.975 283.043 211.168L287.17 212.491C287.774 212.685 288.107 213.332 287.914 213.936C287.72 214.541 287.073 214.874 286.468 214.68L282.341 213.357C281.737 213.163 281.404 212.516 281.598 211.912Z" fill="black"/>
<path d="M227.534 218.675C227.788 219.749 227.341 220.775 226.535 220.966C225.729 221.157 224.869 220.44 224.615 219.365C224.36 218.29 224.808 217.264 225.614 217.074C226.42 216.883 227.28 217.6 227.534 218.675Z" fill="white"/>
<path d="M264.886 198.534C265.14 199.609 264.693 200.635 263.886 200.826C263.08 201.016 262.221 200.299 261.966 199.225C261.712 198.15 262.159 197.124 262.966 196.933C263.772 196.742 264.631 197.459 264.886 198.534Z" fill="white"/>
<path fill-rule="evenodd" clip-rule="evenodd" d="M353.902 216.987C354.564 216.489 355.504 216.623 356.002 217.285C367.513 232.595 369.078 245.972 367.607 256.027C366.876 261.028 365.401 265.161 364.09 268.249C363.566 269.482 363.063 270.559 362.652 271.44C362.551 271.656 362.456 271.861 362.367 272.054C362.137 272.549 361.959 272.947 361.831 273.267C361.768 273.425 361.723 273.549 361.693 273.646C361.678 273.694 361.668 273.73 361.662 273.756C361.655 273.782 361.654 273.793 361.654 273.79C361.538 274.61 360.779 275.181 359.959 275.065C359.139 274.949 358.568 274.19 358.684 273.369C358.742 272.962 358.895 272.53 359.045 272.154C359.205 271.753 359.414 271.292 359.644 270.794C359.739 270.589 359.839 270.375 359.943 270.152C360.352 269.274 360.827 268.256 361.328 267.076C362.579 264.133 363.957 260.257 364.639 255.593C365.995 246.32 364.629 233.75 353.604 219.088C353.106 218.425 353.239 217.485 353.902 216.987Z" fill="black"/>
<path fill-rule="evenodd" clip-rule="evenodd" d="M195.182 344.872C195.187 345.7 194.52 346.376 193.691 346.381C180.433 346.461 172.31 341.805 167.288 336.798C164.796 334.315 163.1 331.777 161.924 329.772C161.455 328.973 161.063 328.247 160.746 327.66C160.668 327.517 160.595 327.382 160.527 327.256C160.348 326.928 160.207 326.677 160.091 326.488C159.985 326.316 159.936 326.257 159.937 326.257C159.937 326.257 159.94 326.259 159.945 326.265C159.356 325.682 159.35 324.733 159.932 324.143C160.514 323.554 161.464 323.548 162.053 324.13C162.297 324.371 162.496 324.673 162.645 324.914C162.807 325.178 162.981 325.491 163.161 325.821C163.237 325.959 163.314 326.103 163.395 326.252C163.711 326.836 164.072 327.505 164.512 328.255C165.609 330.124 167.156 332.431 169.406 334.674C173.868 339.122 181.224 343.456 193.673 343.381C194.502 343.376 195.177 344.043 195.182 344.872Z" fill="black"/>
<path fill-rule="evenodd" clip-rule="evenodd" d="M362.335 211.58C362.572 210.786 363.407 210.334 364.201 210.571C370.119 212.337 381.873 220.021 382.987 236.735C383.042 237.562 382.416 238.276 381.59 238.331C380.763 238.386 380.048 237.761 379.993 236.934C378.981 221.749 368.352 214.94 363.343 213.446C362.55 213.209 362.098 212.374 362.335 211.58Z" fill="black"/>
<path fill-rule="evenodd" clip-rule="evenodd" d="M195.611 356.443C196.107 357.107 195.971 358.047 195.308 358.543C191.798 361.168 182.55 364.557 172.692 358.21C171.996 357.762 171.795 356.833 172.243 356.137C172.692 355.44 173.62 355.239 174.316 355.688C182.886 361.206 190.762 358.197 193.511 356.141C194.174 355.645 195.114 355.78 195.611 356.443Z" fill="black"/>
<defs>
<filter id="filter0_f" x="144.721" y="163.657" width="205.127" height="172.602" filterUnits="userSpaceOnUse" color-interpolation-filters="sRGB">
<feFlood flood-opacity="0" result="BackgroundImageFix"/>
<feBlend mode="normal" in="SourceGraphic" in2="BackgroundImageFix" result="shape"/>
<feGaussianBlur stdDeviation="6.5" result="effect1_foregroundBlur"/>
</filter>
<filter id="filter1_f" x="125.104" y="145.693" width="247.127" height="214.602" filterUnits="userSpaceOnUse" color-interpolation-filters="sRGB">
<feFlood flood-opacity="0" result="BackgroundImageFix"/>
<feBlend mode="normal" in="SourceGraphic" in2="BackgroundImageFix" result="shape"/>
<feGaussianBlur stdDeviation="17" result="effect1_foregroundBlur"/>
</filter>
<filter id="filter2_f" x="72.6348" y="48.2393" width="235.208" height="210.324" filterUnits="userSpaceOnUse" color-interpolation-filters="sRGB">
<feFlood flood-opacity="0" result="BackgroundImageFix"/>
<feBlend mode="normal" in="SourceGraphic" in2="BackgroundImageFix" result="shape"/>
<feGaussianBlur stdDeviation="6.5" result="effect1_foregroundBlur"/>
</filter>
<filter id="filter3_f" x="53.7012" y="30.6514" width="277.208" height="252.324" filterUnits="userSpaceOnUse" color-interpolation-filters="sRGB">
<feFlood flood-opacity="0" result="BackgroundImageFix"/>
<feBlend mode="normal" in="SourceGraphic" in2="BackgroundImageFix" result="shape"/>
<feGaussianBlur stdDeviation="17" result="effect1_foregroundBlur"/>
</filter>
<linearGradient id="paint0_linear" x1="245.001" y1="335.765" x2="273.231" y2="230.311" gradientUnits="userSpaceOnUse">
<stop stop-color="#EFB33E"/>
<stop offset="1" stop-color="white" stop-opacity="0"/>
</linearGradient>
<linearGradient id="paint1_linear" x1="281.281" y1="179.943" x2="269.203" y2="236.7" gradientUnits="userSpaceOnUse">
<stop stop-color="#EFB33E"/>
<stop offset="1" stop-color="white" stop-opacity="0"/>
</linearGradient>
<linearGradient id="paint2_linear" x1="200.386" y1="255.085" x2="220.537" y2="127.383" gradientUnits="userSpaceOnUse">
<stop stop-color="#EFB33E"/>
<stop offset="1" stop-color="white" stop-opacity="0"/>
</linearGradient>
<linearGradient id="paint3_linear" x1="219.424" y1="66.3775" x2="212.26" y2="134.806" gradientUnits="userSpaceOnUse">
<stop stop-color="#EFB33E"/>
<stop offset="1" stop-color="white" stop-opacity="0"/>
</linearGradient>
</defs>
</svg>
