<svg width="430" height="430" viewBox="0 0 430 430" fill="none" xmlns="http://www.w3.org/2000/svg">
<path d="M430 215C430 333.741 333.741 430 215 430C96.2588 430 0 333.741 0 215C0 96.2588 96.2588 0 215 0C333.741 0 430 96.2588 430 215Z" fill="#9971FF"/>
<mask id="mask0" mask-type="alpha" maskUnits="userSpaceOnUse" x="0" y="0" width="430" height="430">
<path d="M430 215C430 333.741 333.741 430 215 430C96.2588 430 0 333.741 0 215C0 96.2588 96.2588 0 215 0C333.741 0 430 96.2588 430 215Z" fill="#8E61FA"/>
</mask>
<g mask="url(#mask0)">
<path d="M323.524 308.596C325.089 328.964 360.699 395.42 378.307 426.103C419.395 488.773 317.654 459.397 300.046 453.521C282.437 447.646 215.914 406.519 202.218 337.973C188.522 269.427 196.348 175.421 198.305 151.92C199.87 133.119 213.826 141.347 221 142C218 128.5 221 115.18 231.566 108.834C239.392 104.134 250.48 108.181 255.045 110.793C257.001 106.876 261.066 99.1232 272.654 101C285 103 287 113 287 118.5C308.5 103.5 320.83 122.5 315 143.5C307.088 172 306.164 192.83 311.5 213C316.065 203.861 326.263 192.264 337.22 196.964C350.916 202.839 347.003 220.466 337.22 242.008C327.437 263.551 321.568 283.136 323.524 308.596Z" fill="#FF845E"/>
<path fill-rule="evenodd" clip-rule="evenodd" d="M308.972 219.047C310.051 219.285 310.732 220.353 310.494 221.431L310.491 221.445C308.905 228.625 306.863 237.866 304.929 255.761C304.811 256.859 303.824 257.653 302.726 257.535C301.628 257.416 300.834 256.429 300.952 255.331C302.908 237.229 304.983 227.834 306.588 220.568C306.826 219.49 307.894 218.808 308.972 219.047Z" fill="black"/>
<path fill-rule="evenodd" clip-rule="evenodd" d="M287.571 117.884C286.495 117.635 285.42 118.304 285.17 119.38C284.779 121.067 284.395 122.71 284.02 124.316C277.565 151.961 273.675 168.619 277.009 207.671C277.103 208.772 278.071 209.588 279.172 209.494C280.272 209.4 281.088 208.432 280.994 207.331C277.714 168.909 281.494 152.725 287.91 125.249C288.287 123.636 288.673 121.983 289.067 120.285C289.317 119.209 288.647 118.134 287.571 117.884Z" fill="black"/>
<path fill-rule="evenodd" clip-rule="evenodd" d="M255.267 109.808C254.188 109.571 253.121 110.253 252.884 111.332C245.256 146.045 241.953 179.546 250.059 212.478C250.324 213.551 251.407 214.206 252.48 213.942C253.552 213.678 254.208 212.595 253.944 211.522C246.05 179.455 249.218 146.654 256.791 112.19C257.028 111.112 256.346 110.045 255.267 109.808Z" fill="black"/>
<path d="M101.476 308.595C99.9107 328.963 64.3015 395.42 46.6925 426.103C5.60496 488.773 107.346 459.396 124.954 453.521C142.563 447.646 209.086 406.518 222.782 337.973C236.478 269.427 228.652 175.421 226.695 151.92C225.13 133.119 210.391 129.724 203.216 130.377C203.216 120.585 203.216 114.709 193.434 108.834C185.608 104.134 174.52 108.181 169.955 110.792C167.999 106.875 164.086 101 152.346 101C142.955 101 137.998 110.139 136.694 114.709C122.998 106.875 115.172 116.668 115.172 136.252V218.507C110.606 209.367 98.7367 192.264 87.7801 196.964C74.0842 202.839 77.9973 220.465 87.7801 242.008C97.5628 263.551 103.432 283.136 101.476 308.595Z" fill="#FFCF52"/>
<path fill-rule="evenodd" clip-rule="evenodd" d="M115.016 220.059C116.121 220.059 117.016 220.954 117.016 222.059C117.016 229.602 114.305 255.025 112.968 266.675C112.842 267.772 111.85 268.56 110.752 268.434C109.655 268.308 108.868 267.316 108.994 266.219C110.346 254.442 113.016 229.312 113.016 222.059C113.016 220.954 113.911 220.059 115.016 220.059Z" fill="black"/>
<path fill-rule="evenodd" clip-rule="evenodd" d="M137.883 117.831C138.987 117.831 139.883 118.726 139.883 119.831V227.439C139.883 228.543 138.987 229.439 137.883 229.439C136.778 229.439 135.883 228.543 135.883 227.439V119.831C135.883 118.726 136.778 117.831 137.883 117.831Z" fill="black"/>
<path fill-rule="evenodd" clip-rule="evenodd" d="M170.404 109.775C171.5 109.907 172.282 110.903 172.15 112C168.04 146.136 169.599 194.887 170.734 213.869C170.8 214.972 169.96 215.919 168.857 215.985C167.755 216.051 166.807 215.21 166.741 214.108C165.603 195.081 164.023 146.032 168.179 111.522C168.311 110.425 169.307 109.643 170.404 109.775Z" fill="black"/>
<path fill-rule="evenodd" clip-rule="evenodd" d="M202.351 125.538C203.393 125.904 203.941 127.046 203.574 128.088C198.266 143.182 195.468 162.962 194.451 181.809C193.433 200.648 194.203 218.363 195.937 229.27C196.11 230.361 195.367 231.386 194.276 231.56C193.185 231.733 192.16 230.989 191.987 229.898C190.195 218.628 189.429 200.615 190.456 181.594C191.483 162.581 194.311 142.37 199.801 126.761C200.167 125.719 201.309 125.172 202.351 125.538Z" fill="black"/>
<path d="M194.589 42.6204C188.019 48.5497 187.2 59.2792 192.798 66.0968L206.008 82.1852C209.886 86.9091 211.825 89.271 214.455 89.4373C217.085 89.6036 219.306 87.5047 223.749 83.307L238.88 69.0108C245.291 62.9526 245.831 52.2054 240.06 45.4958C234.51 39.0437 225.258 38.8373 219.395 45.0347C218.201 46.297 216.174 46.1688 215.148 44.7661C210.112 37.8795 200.907 36.9188 194.589 42.6204Z" fill="#4CE6B7"/>
</g>
<path fill-rule="evenodd" clip-rule="evenodd" d="M354.205 85.7762C354.791 86.3616 354.792 87.3113 354.206 87.8975L327.919 114.222C327.334 114.808 326.384 114.809 325.798 114.223C325.211 113.638 325.211 112.688 325.796 112.102L352.083 85.7777C352.669 85.1915 353.619 85.1908 354.205 85.7762Z" fill="#4CE6B7"/>
<path fill-rule="evenodd" clip-rule="evenodd" d="M361.329 115.804C361.713 116.538 361.43 117.445 360.696 117.829L339.696 128.829C338.962 129.213 338.056 128.93 337.672 128.196C337.287 127.462 337.57 126.556 338.304 126.172L359.304 115.172C360.038 114.787 360.945 115.07 361.329 115.804ZM78.6683 119.752C79.3576 119.293 80.2889 119.479 80.7484 120.168C82.9193 123.425 86.2261 128.46 89.0925 132.985C90.5251 135.247 91.8534 137.39 92.8766 139.124C93.3877 139.99 93.8287 140.764 94.1705 141.405C94.4975 142.019 94.7792 142.593 94.9234 143.026C95.1853 143.812 94.7606 144.661 93.9747 144.923C93.1888 145.185 92.3393 144.761 92.0773 143.975C92.0215 143.807 91.8511 143.432 91.5232 142.817C91.21 142.229 90.7932 141.496 90.2929 140.649C89.2931 138.954 87.9839 136.841 86.5582 134.59C83.708 130.091 80.4147 125.076 78.2523 121.832C77.7927 121.143 77.979 120.212 78.6683 119.752ZM57.7523 136.168C58.2118 135.479 59.1431 135.293 59.8324 135.752L88.3324 154.752C89.0217 155.212 89.2079 156.143 88.7484 156.832C88.2889 157.522 87.3576 157.708 86.6683 157.248L58.1683 138.248C57.479 137.789 57.2927 136.858 57.7523 136.168ZM342 143.5C342 142.672 342.672 142 343.5 142H360C360.829 142 361.5 142.672 361.5 143.5C361.5 144.329 360.829 145 360 145H343.5C342.672 145 342 144.329 342 143.5ZM78.4608 174.658C78.6498 175.465 78.1492 176.272 77.3426 176.461L45.3426 183.961C44.5361 184.15 43.729 183.649 43.5399 182.843C43.3509 182.036 43.8515 181.229 44.658 181.04L76.6581 173.54C77.4646 173.351 78.2717 173.851 78.4608 174.658Z" fill="#4CE6B7"/>
</svg>
