<svg width="430" height="430" viewBox="0 0 430 430" fill="none" xmlns="http://www.w3.org/2000/svg">
<path d="M430 215C430 333.741 333.741 430 215 430C96.2588 430 0 333.741 0 215C0 96.2588 96.2588 0 215 0C333.741 0 430 96.2588 430 215Z" fill="#4CE6B7"/>
<path fill-rule="evenodd" clip-rule="evenodd" d="M285.535 94.7231C286.24 94.2883 287.164 94.5074 287.599 95.2125L311.502 133.976C311.937 134.681 311.718 135.606 311.012 136.04C310.307 136.475 309.383 136.256 308.948 135.551L285.045 96.7872C284.61 96.082 284.829 95.1579 285.535 94.7231Z" fill="#449AFF"/>
<path fill-rule="evenodd" clip-rule="evenodd" d="M282.723 121.543C283.31 120.958 284.259 120.959 284.844 121.545L303.689 140.441C304.274 141.028 304.273 141.978 303.687 142.563C303.1 143.148 302.15 143.147 301.565 142.56L282.72 123.664C282.135 123.077 282.136 122.128 282.723 121.543Z" fill="#449AFF"/>
<path d="M103.901 211.234C112.344 201.555 120.993 192.906 128.818 185.699C147.97 168.401 170.828 159.752 196.157 167.783C202.747 169.842 238.99 191.465 243.109 188.582C243.109 188.582 307.77 144.101 324.657 162.429C341.543 180.962 303.034 208.557 270.909 242.329L230.753 273.836C237.343 266.835 316.625 311.727 276.057 329.643C271.115 331.908 265.349 331.496 259.789 331.084C231.371 328.201 207.483 314.404 180.301 308.638C174.535 307.403 155.177 320.376 149.617 322.641C127.171 331.29 90.9276 346.941 70.1288 326.76C62.5094 319.346 59.6264 308.02 60.0383 297.518C61.0679 268.688 81.8667 236.563 103.901 211.234Z" fill="#FFF176"/>
<path fill-rule="evenodd" clip-rule="evenodd" d="M203.052 207.48C205.852 196.873 205.181 184.702 202.846 173.334L206.764 172.529C209.166 184.226 209.936 197.075 206.919 208.502C203.883 220.001 197.002 230.057 184.235 235.905C179.695 238.064 174.368 239.432 169.141 238.755C157.338 237.384 149.242 226.299 154.151 214.59C157.435 206.499 164.556 199.443 170.551 194.275L173.162 197.305C167.216 202.431 160.749 208.961 157.854 216.104L157.849 216.116L157.844 216.127C154.117 225.002 160.014 233.675 169.615 234.783L169.629 234.784L169.644 234.786C173.881 235.339 178.427 234.24 182.529 232.287L182.543 232.28L182.556 232.274C194.08 227 200.271 218.011 203.052 207.48Z" fill="#231F20"/>
<path fill-rule="evenodd" clip-rule="evenodd" d="M240.619 214.793C237.605 226.555 229.749 239.79 211.738 249.643C202.812 254.526 195.812 256.344 190.29 256.099C184.684 255.852 180.769 253.483 178.116 250.403C175.515 247.383 174.19 243.759 173.507 240.981C173.162 239.579 172.972 238.357 172.868 237.479C172.815 237.039 172.784 236.684 172.766 236.433C172.757 236.307 172.751 236.208 172.748 236.136C172.746 236.101 172.745 236.072 172.744 236.051L172.743 236.025L172.742 236.016L172.742 236.013C172.742 236.012 172.742 236.011 174.741 235.944C176.74 235.878 176.74 235.877 176.74 235.876L176.74 235.882L176.742 235.929C176.745 235.975 176.749 236.047 176.756 236.145C176.77 236.34 176.795 236.634 176.84 237.007C176.929 237.755 177.092 238.812 177.391 240.026C177.995 242.481 179.115 245.433 181.147 247.793C183.128 250.093 186.034 251.907 190.467 252.103C194.985 252.303 201.241 250.826 209.819 246.134C226.816 236.835 233.993 224.535 236.744 213.8C239.518 202.977 237.819 193.621 236.866 190.381L240.704 189.252C241.81 193.013 243.611 203.118 240.619 214.793Z" fill="#231F20"/>
<path d="M326.486 84.2946C317.641 89.0749 313.855 100.699 318.203 109.728L328.463 131.035C331.476 137.291 332.982 140.419 335.84 141.309C338.698 142.199 341.714 140.479 347.745 137.038L368.287 125.322C376.992 120.357 380.474 108.638 375.906 99.6816C371.513 91.069 361.356 88.3561 353.219 93.6222C351.562 94.6948 349.358 94.0088 348.603 92.185C344.894 83.2306 334.991 79.6979 326.486 84.2946Z" fill="#9971FF"/>
</svg>
